<?xml version="1.0" encoding="UTF-8"?>
<svg xmlns="http://www.w3.org/2000/svg" xmlns:xlink="http://www.w3.org/1999/xlink" width="70pt" height="70pt" viewBox="0 0 70 70" version="1.1">
<defs>
<linearGradient id="linear0" gradientUnits="userSpaceOnUse" x1="9" y1="15.799" x2="9" y2="5.316" gradientTransform="matrix(3.888889,0,0,3.888889,0,0)">
<stop offset="0" style="stop-color:rgb(47,166,255);stop-opacity:1;"/>
<stop offset="0.775" style="stop-color:rgb(79,180,255);stop-opacity:1;"/>
</linearGradient>
</defs>
<g id="surface1">
<path style=" stroke:none;fill-rule:nonzero;fill:url(#linear0);" d="M 0 20.671875 L 67.882813 20.671875 L 67.882813 59.242188 C 67.882813 1272.734375 66.902344 2256.464844 65.6875 2256.464844 L 4.3125 2256.464844 C 3.632813 2648.28125 2.796875 2647.445313 2.117188 2254.269531 L 2.117188 20.671875 Z "/>
<path style=" stroke:none;fill-rule:nonzero;fill:rgb(0,108,188);fill-opacity:1;" d="M 4.324219 8.554688 L 65.675781 8.554688 C 66.890625 8.554688 67.871094 992.285156 67.871094 2205.777344 L 67.871094 2215.695313 L 2.128906 2215.695313 L 2.128906 10.757813 C 2.808594 -382.421875 3.644531 -383.257813 4.324219 8.554688 Z "/>
<path style=" stroke:none;fill-rule:nonzero;fill:rgb(41,164,255);fill-opacity:1;" d="M 54.054688 28.464844 L 37.78125 28.464844 C 37.621094 74.546875 37.453125 74.496094 37.292969 28.320313 L 32.628906 25.226563 C 32.46875 -21.277344 32.304688 -21.328125 32.144531 25.078125 L 18.480469 25.078125 C 18 25.078125 17.609375 415.089844 17.609375 896.191406 L 17.609375 924.9375 C 17.609375 1155.613281 17.699219 1376.785156 17.863281 1539.535156 C 18.027344 1702.28125 18.25 1793.195313 18.480469 1792.160156 L 54.054688 1792.160156 C 54.324219 1947.5 54.65625 1947.167969 54.925781 1791.292969 L 54.925781 29.335938 C 54.65625 -126.539063 54.324219 -126.871094 54.054688 28.464844 Z "/>
<path style=" stroke:none;fill-rule:nonzero;fill:rgb(255,255,255);fill-opacity:1;" d="M 20.425781 26.851563 L 28.675781 26.851563 C 28.886719 26.851563 29.058594 27.023438 29.058594 27.234375 L 29.058594 28.277344 C 29.058594 28.488281 28.886719 28.65625 28.675781 28.65625 L 20.425781 28.65625 C 20.214844 28.65625 20.042969 28.488281 20.042969 28.277344 L 20.042969 27.234375 C 20.042969 27.023438 20.214844 26.851563 20.425781 26.851563 Z "/>
<path style=" stroke:none;fill-rule:nonzero;fill:rgb(0,108,188);fill-opacity:1;" d="M 20.304688 26.851563 L 21.585938 26.851563 C 21.730469 26.851563 21.847656 26.96875 21.847656 27.113281 L 21.847656 28.398438 C 21.847656 28.539063 21.730469 28.65625 21.585938 28.65625 L 20.304688 28.65625 C 20.160156 28.65625 20.042969 28.539063 20.042969 28.398438 L 20.042969 27.113281 C 20.042969 26.96875 20.160156 26.851563 20.304688 26.851563 Z "/>
<path style=" stroke:none;fill-rule:nonzero;fill:rgb(255,255,255);fill-opacity:0.901961;" d="M 54.054688 28.425781 L 36.167969 28.425781 C 35.933594 28.628906 35.710938 120.949219 35.546875 285.089844 L 32.675781 3158.980469 C 32.511719 3323.121094 32.289063 3415.441406 32.054688 3415.644531 L 18.480469 3415.644531 C 18 3415.644531 17.609375 3805.65625 17.609375 4286.757813 L 17.609375 4308.730469 C 17.609375 4539.40625 17.699219 4760.578125 17.863281 4923.328125 C 18.027344 5086.074219 18.25 5176.984375 18.480469 5175.953125 L 54.054688 5175.953125 C 54.324219 5331.292969 54.65625 5330.960938 54.925781 5175.085938 L 54.925781 29.296875 C 54.65625 -126.582031 54.324219 -126.914063 54.054688 28.425781 Z "/>
</g>
</svg>
