<?xml version="1.0" encoding="UTF-8"?>
<svg xmlns="http://www.w3.org/2000/svg" xmlns:xlink="http://www.w3.org/1999/xlink" width="70pt" height="70pt" viewBox="0 0 70 70" version="1.1">
<defs>
<linearGradient id="linear0" gradientUnits="userSpaceOnUse" x1="9" y1="15.799" x2="9" y2="5.316" gradientTransform="matrix(3.888889,0,0,3.888889,0,0)">
<stop offset="0" style="stop-color:rgb(19.607843%,74.509804%,86.666667%);stop-opacity:1;"/>
<stop offset="0.775" style="stop-color:rgb(19.607843%,83.137255%,96.078431%);stop-opacity:1;"/>
</linearGradient>
</defs>
<g id="surface1">
<path style=" stroke:none;fill-rule:nonzero;fill:url(#linear0);" d="M 0 20.671875 L 67.882813 20.671875 L 67.882813 59.242188 C 67.882813 1272.734375 66.902344 2256.464844 65.6875 2256.464844 L 4.3125 2256.464844 C 3.632813 2648.28125 2.796875 2647.445313 2.117188 2254.269531 L 2.117188 20.671875 Z "/>
<path style=" stroke:none;fill-rule:nonzero;fill:rgb(0%,47.058824%,83.137255%);fill-opacity:1;" d="M 4.324219 8.554688 L 65.675781 8.554688 C 66.890625 8.554688 67.871094 992.285156 67.871094 2205.777344 L 67.871094 2215.695313 L 2.128906 2215.695313 L 2.128906 10.757813 C 2.808594 -382.421875 3.644531 -383.257813 4.324219 8.554688 Z "/>
<path style=" stroke:none;fill-rule:nonzero;fill:rgb(96.862745%,55.294118%,11.764706%);fill-opacity:1;" d="M 52.609375 28.570313 L 36.492188 28.570313 C 36.335938 73.074219 36.167969 73.023438 36.011719 28.429688 L 31.410156 25.367188 C 31.253906 -20.59375 31.089844 -20.644531 30.933594 25.21875 L 17.390625 25.21875 C 16.914063 25.21875 16.527344 411.746094 16.527344 888.554688 L 16.527344 917 C 16.527344 1146.289063 16.617188 1366.484375 16.78125 1528.617188 C 16.941406 1690.75 17.160156 1781.375 17.390625 1780.332031 L 52.609375 1780.332031 C 52.875 1935.09375 53.207031 1934.761719 53.472656 1779.46875 L 53.472656 29.433594 C 53.207031 -125.050781 52.875 -125.382813 52.609375 28.570313 Z "/>
<path style=" stroke:none;fill-rule:nonzero;fill:rgb(100%,100%,100%);fill-opacity:1;" d="M 20.242188 26.871094 L 27.929688 26.871094 C 28.125 26.871094 28.285156 27.03125 28.285156 27.226563 L 28.285156 28.199219 C 28.285156 28.394531 28.125 28.550781 27.929688 28.550781 L 20.242188 28.550781 C 20.046875 28.550781 19.886719 28.394531 19.886719 28.199219 L 19.886719 27.226563 C 19.886719 27.03125 20.046875 26.871094 20.242188 26.871094 Z "/>
<path style=" stroke:none;fill-rule:nonzero;fill:rgb(81.960784%,34.901961%,0%);fill-opacity:1;" d="M 20.128906 26.871094 L 21.328125 26.871094 C 21.460938 26.871094 21.566406 26.980469 21.566406 27.113281 L 21.566406 28.3125 C 21.566406 28.445313 21.460938 28.550781 21.328125 28.550781 L 20.128906 28.550781 C 19.996094 28.550781 19.886719 28.445313 19.886719 28.3125 L 19.886719 27.113281 C 19.886719 26.980469 19.996094 26.871094 20.128906 26.871094 Z "/>
<path style=" stroke:none;fill-rule:nonzero;fill:rgb(100%,100%,100%);fill-opacity:1;" d="M 52.609375 28.53125 L 34.910156 28.53125 C 34.714844 -46.847656 34.496094 -46.757813 34.300781 28.777344 L 31.453125 2871.554688 C 32.160156 2888.414063 32.601563 2959.539063 32.429688 3030.417969 C 32.261719 3101.292969 31.550781 3145.082031 30.84375 3128.222656 L 17.390625 3128.222656 C 17.164063 3127.1875 16.941406 3217.277344 16.78125 3378.570313 C 16.617188 3539.859375 16.527344 3759.050781 16.527344 3987.667969 L 16.527344 4009.410156 C 16.527344 4238.695313 16.617188 4458.894531 16.78125 4621.027344 C 16.941406 4783.160156 17.160156 4873.78125 17.390625 4872.742188 L 52.609375 4872.742188 C 52.875 5027.503906 53.207031 5027.171875 53.472656 4871.878906 L 53.472656 29.390625 C 53.207031 -125.898438 52.875 -126.226563 52.609375 28.53125 Z "/>
</g>
</svg>
