<?xml version="1.0" encoding="UTF-8"?>
<svg xmlns="http://www.w3.org/2000/svg" xmlns:xlink="http://www.w3.org/1999/xlink" width="70pt" height="70pt" viewBox="0 0 70 70" version="1.1">
<defs>
<linearGradient id="linear0" gradientUnits="userSpaceOnUse" x1="9.24" y1="0.96" x2="8.85" y2="16.52" gradientTransform="matrix(3.888889,0,0,3.888889,0,0)">
<stop offset="0" style="stop-color:rgb(19.607843%,83.137255%,96.078431%);stop-opacity:1;"/>
<stop offset="0.23" style="stop-color:rgb(19.215686%,81.568627%,94.509804%);stop-opacity:1;"/>
<stop offset="0.46" style="stop-color:rgb(17.254902%,76.470588%,90.196078%);stop-opacity:1;"/>
<stop offset="0.7" style="stop-color:rgb(14.509804%,68.627451%,83.137255%);stop-opacity:1;"/>
<stop offset="0.94" style="stop-color:rgb(10.980392%,57.254902%,72.941176%);stop-opacity:1;"/>
<stop offset="1" style="stop-color:rgb(9.803922%,54.117647%,70.196078%);stop-opacity:1;"/>
</linearGradient>
</defs>
<g id="surface1">
<path style=" stroke:none;fill-rule:nonzero;fill:rgb(0%,35.686275%,63.137255%);fill-opacity:1;" d="M 66.5 14 L 37.683594 14 C 37.40625 23.394531 37.105469 23.296875 36.828125 13.726563 L 28.582031 8.246094 C 28.304688 0.75 28.007813 0.667969 27.726563 8.011719 L -3.5 8.011719 C -7.6875 3.714844 -11.429688 34.183594 -11.859375 76.066406 C -12.289063 117.949219 -9.242188 155.382813 -5.054688 159.679688 L -5.054688 210.621094 C -9.242188 214.917969 -12.289063 252.351563 -11.859375 294.234375 C -11.429688 336.113281 -7.6875 366.585938 -3.5 362.289063 L 66.5 362.289063 C 67.007813 364.613281 67.601563 364.035156 68.054688 360.773438 L 68.054688 15.554688 C 67.601563 12.28125 67.007813 11.6875 66.5 14 Z "/>
<path style=" stroke:none;fill-rule:nonzero;fill:rgb(100%,100%,100%);fill-opacity:1;" d="M 8.59375 10.964844 L 22.359375 10.964844 C 22.703125 10.964844 22.984375 11.246094 22.984375 11.589844 L 22.984375 13.339844 C 22.984375 13.683594 22.703125 13.960938 22.359375 13.960938 L 8.59375 13.960938 C 8.25 13.960938 7.972656 13.683594 7.972656 13.339844 L 7.972656 11.589844 C 7.972656 11.246094 8.25 10.964844 8.59375 10.964844 Z "/>
<path style=" stroke:none;fill-rule:nonzero;fill:rgb(10.196078%,76.470588%,94.901961%);fill-opacity:1;" d="M 8.398438 10.964844 L 10.539063 10.964844 C 10.773438 10.964844 10.964844 11.15625 10.964844 11.394531 L 10.964844 13.535156 C 10.964844 13.769531 10.773438 13.960938 10.539063 13.960938 L 8.398438 13.960938 C 8.164063 13.960938 7.972656 13.769531 7.972656 13.535156 L 7.972656 11.394531 C 7.972656 11.15625 8.164063 10.964844 8.398438 10.964844 Z "/>
<path style=" stroke:none;fill-rule:nonzero;fill:url(#linear0);" d="M 66.5 13.921875 L 35 13.921875 C 34.585938 12.597656 34.1875 29.6875 33.910156 60.589844 L 28.660156 19.445313 C 28.363281 46.347656 27.976563 61.539063 27.570313 62.222656 L 3.5 62.222656 C 2.640625 62.222656 1.945313 69.1875 1.945313 77.777344 L 1.945313 116.667969 C -2.242188 120.960938 -5.289063 158.394531 -4.859375 200.277344 C -4.429688 242.160156 -0.6875 272.628906 3.5 268.332031 L 66.5 268.332031 C 67.007813 270.660156 67.601563 270.078125 68.054688 266.816406 L 68.054688 15.554688 C 67.605469 12.253906 67.011719 11.628906 66.5 13.921875 Z "/>
<path style=" stroke:none;fill-rule:nonzero;fill:rgb(100%,100%,100%);fill-opacity:1;" d="M 39.589844 22.167969 C 39.488281 19.351563 39.378906 19.351563 39.277344 22.167969 C 38.964844 22.167969 38.929688 22.167969 38.773438 49.390625 L 26.484375 40.289063 C 26.484375 40.496094 26.484375 40.703125 26.484375 40.910156 L 34.339844 40.910156 L 31.109375 52.109375 C 31.046875 64.9375 31.039063 79.960938 31.089844 93.40625 C 31.140625 106.847656 31.25 117.433594 31.382813 122.5 C 31.617188 122.5 31.734375 122.5 31.890625 122.226563 L 44.566406 104.105469 C 44.566406 104.105469 44.566406 103.871094 44.566406 103.714844 C 44.363281 91.714844 44.109375 91.476563 43.90625 103.09375 L 36.128906 103.09375 L 32.976563 92.476563 C 33.171875 275.039063 34.808594 407.292969 36.636719 387.878906 C 38.460938 368.460938 39.78125 204.726563 39.589844 22.167969 Z "/>
</g>
</svg>
