<?xml version="1.0" encoding="UTF-8"?>
<svg xmlns="http://www.w3.org/2000/svg" xmlns:xlink="http://www.w3.org/1999/xlink" width="70pt" height="70pt" viewBox="0 0 70 70" version="1.1">
<defs>
<linearGradient id="linear0" gradientUnits="userSpaceOnUse" x1="9" y1="13.14" x2="9" y2="0.39" gradientTransform="matrix(3.888889,0,0,3.888889,0,0)">
<stop offset="0" style="stop-color:rgb(0%,47.058824%,83.137255%);stop-opacity:1;"/>
<stop offset="0.82" style="stop-color:rgb(36.862745%,62.745098%,93.72549%);stop-opacity:1;"/>
</linearGradient>
</defs>
<g id="surface1">
<path style=" stroke:none;fill-rule:nonzero;fill:url(#linear0);" d="M 70 35.582031 C 69.765625 27.878906 63.988281 21.480469 56.351563 20.457031 C 20.117188 14.816406 -13.824219 39.621094 -19.464844 75.851563 C -25.101563 112.085938 -0.300781 146.027344 35.933594 151.667969 C 27.300781 151.5 19.507813 156.800781 16.488281 164.890625 C 52.957031 160.335938 78.832031 127.082031 74.277344 90.609375 C 69.722656 54.140625 36.46875 28.269531 0 32.820313 C 0.402344 43.3125 9.226563 51.492188 19.714844 51.101563 C 20.285156 51.140625 20.859375 51.140625 21.429688 51.101563 L 53.355469 51.101563 C 53.640625 55.140625 53.925781 55.140625 54.210938 51.101563 C 62.800781 51.039063 69.789063 44.171875 70 35.582031 Z "/>
<path style=" stroke:none;fill-rule:nonzero;fill:rgb(31.372549%,90.196078%,100%);fill-opacity:1;" d="M 36.828125 32.355469 C 36.65625 22.210938 28.320313 14.113281 18.175781 14.234375 C 8.035156 14.355469 -0.105469 22.648438 -0.0351563 32.792969 C 0.0351563 42.9375 8.289063 51.121094 18.433594 51.101563 L 36.828125 51.101563 Z "/>
<path style=" stroke:none;fill-rule:nonzero;fill:rgb(0%,47.058824%,83.137255%);fill-opacity:1;" d="M 45.890625 59.65625 L 37.140625 68.367188 C 37.066406 69.347656 36.949219 69.921875 36.828125 69.921875 C 36.707031 69.921875 36.589844 69.347656 36.515625 68.367188 L 27.804688 59.65625 C 27.90625 55.84375 28.015625 55.570313 28.117188 58.878906 L 33.25 58.878906 C 33.382813 66.351563 33.546875 66.144531 33.679688 58.332031 L 33.679688 47.054688 C 33.820313 37.703125 34 37.550781 34.144531 46.667969 L 39.550781 46.667969 C 39.785156 46.667969 39.976563 65.820313 39.976563 89.445313 L 39.976563 58.332031 C 39.976563 70.386719 40.027344 81.898438 40.117188 90.042969 C 40.207031 98.1875 40.324219 102.207031 40.445313 101.109375 L 45.578125 101.109375 C 45.589844 82.273438 45.710938 65.914063 45.890625 59.65625 Z "/>
<path style=" stroke:none;fill-rule:nonzero;fill:rgb(100%,100%,100%);fill-opacity:1;" d="M 27.804688 38.1875 L 36.828125 29.167969 L 45.890625 38.1875 C 46.019531 50.433594 46.058594 69.472656 45.988281 85.9375 C 45.921875 102.402344 45.757813 112.824219 45.578125 112.078125 L 40.445313 112.078125 C 40.1875 112.078125 39.976563 132.972656 39.976563 158.746094 L 39.976563 170.410156 L 33.679688 170.410156 L 33.679688 158.746094 C 34.007813 146.933594 34.179688 110.523438 34.0625 77.429688 C 33.945313 44.332031 33.582031 27.074219 33.25 38.890625 L 28.117188 38.890625 C 28.015625 42.570313 27.90625 42.320313 27.804688 38.1875 Z "/>
</g>
</svg>
