<?xml version="1.0" encoding="UTF-8"?>
<svg xmlns="http://www.w3.org/2000/svg" xmlns:xlink="http://www.w3.org/1999/xlink" width="70pt" height="70pt" viewBox="0 0 70 70" version="1.1">
<defs>
<linearGradient id="linear0" gradientUnits="userSpaceOnUse" x1="9" y1="15.83" x2="9" y2="5.79" gradientTransform="matrix(3.888889,0,0,3.888889,0,0)">
<stop offset="0" style="stop-color:rgb(47,166,255);stop-opacity:1;"/>
<stop offset="0.18" style="stop-color:rgb(63,173,255);stop-opacity:1;"/>
<stop offset="0.41" style="stop-color:rgb(75,178,255);stop-opacity:1;"/>
<stop offset="0.78" style="stop-color:rgb(79,180,255);stop-opacity:1;"/>
</linearGradient>
</defs>
<g id="surface1">
<path style=" stroke:none;fill-rule:nonzero;fill:url(#linear0);" d="M 0 22.515625 L 66.109375 22.515625 L 66.109375 59.382813 C 66.109375 181.804688 65.117188 281.050781 63.894531 281.050781 L 4.160156 281.050781 C 3.472656 319.964844 2.625 319.117188 1.945313 278.832031 L 1.945313 22.515625 Z "/>
<path style=" stroke:none;fill-rule:nonzero;fill:rgb(0,124,216);fill-opacity:1;" d="M 4.160156 8.4375 L 65.839844 8.4375 C 67.0625 8.4375 68.054688 107.683594 68.054688 230.105469 L 68.054688 22.515625 L 1.945313 22.515625 L 1.945313 10.617188 C 2.625 -29.65625 3.472656 -30.488281 4.160156 8.4375 Z "/>
<path style=" stroke:none;fill-rule:nonzero;fill:rgb(255,255,255);fill-opacity:1;" d="M 10.929688 26.792969 L 58.996094 26.792969 C 59.574219 26.792969 60.042969 73.804688 60.042969 131.792969 L 60.042969 137.238281 C 60.042969 195.230469 59.574219 242.238281 58.996094 242.238281 L 10.929688 242.238281 C 10.609375 259.210938 10.230469 258.8125 9.917969 241.1875 L 9.917969 27.84375 C 10.230469 10.21875 10.609375 9.824219 10.929688 26.792969 Z "/>
<path style=" stroke:none;fill-rule:nonzero;fill:rgb(171,219,255);fill-opacity:1;" d="M 10.964844 37.644531 L 59.035156 37.644531 C 59.613281 37.644531 60.082031 84.65625 60.082031 142.644531 L 60.082031 148.128906 C 60.082031 206.117188 59.613281 253.128906 59.035156 253.128906 L 10.964844 253.128906 C 10.652344 270.867188 10.265625 270.464844 9.957031 252.078125 L 9.957031 38.890625 C 10.265625 20.441406 10.652344 19.964844 10.964844 37.644531 Z "/>
<path style=" stroke:none;fill-rule:nonzero;fill:rgb(171,219,255);fill-opacity:1;" d="M 10.964844 48.609375 L 59.035156 48.609375 C 59.613281 48.609375 60.082031 95.621094 60.082031 153.609375 L 60.082031 159.09375 C 60.082031 217.085938 59.613281 264.09375 59.035156 264.09375 L 10.964844 264.09375 C 10.652344 281.832031 10.265625 281.433594 9.957031 263.042969 L 9.957031 49.660156 C 10.265625 31.273438 10.652344 30.875 10.964844 48.609375 Z "/>
<path style=" stroke:none;fill-rule:nonzero;fill:rgb(0,108,188);fill-opacity:1;" d="M 19.871094 30.566406 L 19.871094 52.304688 C 19.871094 112.441406 20.359375 161.195313 20.960938 161.195313 L 30.101563 161.195313 C 30.671875 157.105469 31.113281 109.53125 31.109375 52.304688 L 31.109375 39.394531 C 31.445313 18.769531 31.863281 18.347656 32.199219 38.304688 L 37.683594 38.304688 C 37.976563 37.203125 38.257813 48.320313 38.464844 68.984375 C 38.671875 89.648438 38.785156 117.992188 38.773438 147.195313 L 38.773438 160.105469 C 38.773438 189.671875 38.890625 217.972656 39.105469 238.511719 C 39.316406 259.046875 39.605469 270.050781 39.898438 268.996094 L 49.039063 268.996094 C 49.378906 288.109375 49.792969 287.695313 50.128906 267.90625 L 50.128906 30.566406 C 49.792969 10.777344 49.378906 10.363281 49.039063 29.476563 L 20.960938 29.476563 C 20.621094 10.363281 20.207031 10.777344 19.871094 30.566406 Z "/>
</g>
</svg>
