<?xml version="1.0" encoding="UTF-8"?>
<svg xmlns="http://www.w3.org/2000/svg" xmlns:xlink="http://www.w3.org/1999/xlink" width="70pt" height="70pt" viewBox="0 0 70 70" version="1.1">
<defs>
<linearGradient id="linear0" gradientUnits="userSpaceOnUse" x1="2.55" y1="10.17" x2="15.3" y2="10.17" gradientTransform="matrix(3.888876,0.0101811,-0.0101811,3.888876,0.388889,-0.116667)">
<stop offset="0" style="stop-color:rgb(0,81,142);stop-opacity:1;"/>
<stop offset="0.07" style="stop-color:rgb(0,86,150);stop-opacity:1;"/>
<stop offset="0.36" style="stop-color:rgb(0,101,176);stop-opacity:1;"/>
<stop offset="0.52" style="stop-color:rgb(0,108,188);stop-opacity:1;"/>
<stop offset="0.64" style="stop-color:rgb(0,103,180);stop-opacity:1;"/>
<stop offset="0.82" style="stop-color:rgb(0,95,166);stop-opacity:1;"/>
<stop offset="1" style="stop-color:rgb(0,81,142);stop-opacity:1;"/>
</linearGradient>
</defs>
<g id="surface1">
<path style=" stroke:none;fill-rule:nonzero;fill:url(#linear0);" d="M 35 19.988281 C 21.3125 19.988281 10.226563 16.101563 10.226563 10.929688 L 10.226563 58.957031 C 10.226563 63.894531 21.117188 67.9375 34.648438 68.054688 L 35 68.054688 C 48.6875 68.054688 59.8125 64.167969 59.8125 59.070313 L 59.8125 11.042969 C 59.851563 16.023438 48.726563 20.027344 35 19.988281 Z "/>
<path style=" stroke:none;fill-rule:nonzero;fill:rgb(229,243,255);fill-opacity:1;" d="M 59.851563 11.042969 C 59.851563 16.023438 48.726563 20.027344 35.039063 19.988281 C 21.351563 19.949219 10.265625 16.101563 10.265625 10.929688 C 10.265625 5.753906 21.390625 190.554688 35 1.945313 C 48.609375 -186.667969 59.773438 6.066406 59.773438 11.042969 "/>
<path style=" stroke:none;fill-rule:nonzero;fill:rgb(119,197,255);fill-opacity:1;" d="M 54.054688 10.304688 C 54.054688 13.457031 45.539063 16.023438 35.039063 15.984375 C 24.539063 15.945313 16.0625 13.378906 16.0625 10.1875 C 16.0625 7 24.578125 4.472656 35 4.511719 C 45.421875 4.550781 54.015625 265.066406 53.976563 10.304688 "/>
<path style=" stroke:none;fill-rule:nonzero;fill:rgb(0,124,216);fill-opacity:1;" d="M 35 11.667969 C -25.136719 7.5 -77.265625 52.875 -81.433594 113.011719 C -85.601563 173.148438 -40.226563 225.277344 19.910156 229.445313 C 78.855469 233.609375 130.019531 189.203125 134.1875 130.257813 C 138.351563 71.3125 93.945313 20.148438 35 15.984375 C 40.121094 16.117188 45.222656 15.367188 50.089844 13.765625 C 45.207031 12.25 40.109375 11.542969 35 11.667969 Z "/>
<path style=" stroke:none;fill-rule:nonzero;fill:rgb(255,255,255);fill-opacity:1;" d="M 48.496094 39.589844 L 45.304688 38.578125 C 45.109375 38.578125 44.996094 38.578125 44.917969 38.226563 L 44.253906 36.59375 C 44.253906 36.398438 44.253906 36.207031 44.253906 36.011719 C 43.789063 35 137.589844 33.988281 192.035156 33.015625 C 192.035156 32.808594 192.035156 32.601563 192.035156 32.394531 C 191.488281 31.851563 190.945313 31.382813 190.4375 30.800781 C 190.347656 16.101563 190.183594 7.1875 190.011719 7.1875 C 189.835938 7.1875 189.675781 16.101563 189.582031 30.800781 L 186.859375 166.910156 C 186.667969 166.910156 186.550781 166.910156 186.355469 166.910156 L 184.761719 166.25 C 184.386719 4223.394531 151.195313 7482.109375 110.625 7444.792969 C 70.054688 7407.472656 37.464844 4088.257813 37.839844 31.109375 C 37.449219 30.0625 37.0625 29.011719 36.75 27.960938 C 36.628906 21.617188 36.484375 21.488281 36.359375 27.609375 L 33.753906 27.609375 C 33.484375 27.609375 33.445313 27.609375 33.289063 58.722656 C 32.976563 167.609375 32.628906 272.609375 32.238281 377.609375 C 32.238281 377.609375 32.238281 377.960938 31.890625 381.5 L 30.253906 447.609375 C 30.054688 455.421875 29.832031 455.421875 29.632813 447.609375 L 26.523438 446.09375 C 26.378906 436.863281 26.199219 436.863281 26.054688 446.09375 C 25.472656 508.316406 24.890625 574.429688 24.226563 632.761719 C 24.226563 632.917969 24.226563 633.070313 24.226563 633.226563 C 24.734375 731.421875 224.078125 928.785156 224.078125 928.785156 C 224.078125 928.992188 224.078125 929.199219 224.078125 929.40625 L 223.378906 1081.070313 C 223.34375 1105.359375 223.152344 1124.457031 222.910156 1127.738281 C 221.859375 1131.628906 220.8125 1135.515625 219.761719 1236.628906 C 219.488281 1236.628906 219.410156 1256.070313 219.410156 1279.40625 L 219.410156 42.777344 C 219.410156 43.050781 219.410156 43.167969 250.988281 151.976563 C 465.617188 471.917969 219.410156 471.917969 219.410156 471.917969 C 219.617188 476.625 219.773438 493.699219 219.800781 514.695313 C 219.800781 515.199219 267.515625 582.398438 267.515625 582.398438 C 267.515625 582.59375 267.515625 582.789063 267.515625 582.984375 C 266.972656 687.984375 266.503906 792.984375 266 897.984375 C 266 898.125 266 898.269531 266 898.410156 L 267.945313 1088.964844 C 267.945313 1088.964844 267.945313 1089.160156 299.054688 1088.964844 L 300.921875 1087.996094 L 29.59375 50.554688 C 29.59375 50.554688 29.945313 50.554688 30.140625 50.554688 L 31.773438 116.667969 C 31.964844 116.667969 32.042969 136.460938 36.050781 222.445313 C 254.917969 545.222656 32.042969 545.222656 32.042969 545.222656 C 32.09375 564.988281 32.269531 579.164063 32.472656 580.222656 L 35.039063 580.222656 C 35.3125 580.222656 35.390625 580.222656 35.503906 579.910156 C 70.503906 578.859375 109.394531 577.773438 140.503906 576.722656 C 140.617188 573.011719 140.742188 572.878906 140.855469 576.332031 L 139.183594 575.671875 C 139.34375 567.992188 139.527344 567.992188 139.6875 575.671875 L 142.800781 727.339844 C 142.9375 728.375 143.128906 728.375 143.265625 727.339844 C 143.851563 726.714844 263.820313 726.054688 329.933594 725.472656 C 396.042969 724.890625 329.738281 725.199219 329.933594 724.929688 C 329.375 723.945313 328.867188 722.933594 328.417969 721.894531 L 327.832031 721.894531 C 328.183594 721.351563 375.082031 720.84375 394.527344 720.300781 C 394.652344 714.988281 394.792969 714.851563 394.917969 719.910156 C 393.867188 719.523438 608.804688 719.09375 713.804688 718.785156 C 741.027344 718.785156 714.117188 718.589844 744.917969 718.316406 C 744.917969 717.382813 744.917969 716.605469 744.917969 715.789063 C 744.917969 714.972656 48.765625 39.707031 48.496094 39.589844 Z M 39.316406 45.5 L 39.003906 72.722656 C 51.890625 74.730469 60.710938 86.804688 58.703125 99.691406 C 56.695313 112.578125 44.621094 121.398438 31.734375 119.390625 L 31.34375 119.117188 C 30.0625 118.179688 29.1875 116.789063 28.894531 115.226563 C 28.503906 113.214844 29.183594 111.140625 30.683594 109.746094 C 30.488281 109.550781 50.128906 109.472656 30.683594 109.277344 L 30.179688 108.695313 L 27.144531 108.695313 C 27.144531 108.695313 26.949219 108.695313 27.339844 108.695313 L 27.339844 111.6875 L 26.484375 110.871094 C 26.484375 110.871094 26.484375 110.679688 26.09375 110.871094 C 24.304688 112.449219 24.113281 115.167969 25.667969 116.976563 L 84 116.976563 L 26.132813 140.3125 C 7.878906 140.914063 -6.433594 156.199219 -5.832031 174.457031 C -5.230469 192.710938 10.054688 207.023438 28.3125 206.421875 C 29.84375 206.492188 31.277344 205.65625 31.964844 204.285156 C 77.855469 205.9375 116.394531 170.078125 118.046875 124.191406 C 119.699219 78.304688 83.84375 39.765625 37.957031 38.109375 C 49.777344 -64.089844 37.566406 37.839844 37.527344 37.566406 C 37.488281 37.292969 37.527344 37.566406 37.527344 37.292969 C 37.78125 37.066406 38.015625 36.820313 38.226563 36.554688 C 37.683594 36.128906 92.671875 36.128906 131.5625 36.554688 C 134.03125 62.027344 115.382813 84.679688 89.910156 87.148438 C 64.4375 89.621094 41.785156 70.972656 39.316406 45.5 Z "/>
</g>
</svg>
