<?xml version="1.0" encoding="UTF-8"?>
<svg xmlns="http://www.w3.org/2000/svg" xmlns:xlink="http://www.w3.org/1999/xlink" width="70pt" height="70pt" viewBox="0 0 70 70" version="1.1">
<defs>
<linearGradient id="linear0" gradientUnits="userSpaceOnUse" x1="9" y1="15.799" x2="9" y2="5.316" gradientTransform="matrix(3.888889,0,0,3.888889,0,0)">
<stop offset="0" style="stop-color:rgb(65.098039%,47.843137%,95.686275%);stop-opacity:1;"/>
<stop offset="0.775" style="stop-color:rgb(71.764706%,58.823529%,97.647059%);stop-opacity:1;"/>
</linearGradient>
</defs>
<g id="surface1">
<path style=" stroke:none;fill-rule:nonzero;fill:url(#linear0);" d="M 0 20.671875 L 67.882813 20.671875 L 67.882813 59.242188 C 67.882813 1272.734375 66.902344 2256.464844 65.6875 2256.464844 L 4.3125 2256.464844 C 3.632813 2648.28125 2.796875 2647.445313 2.117188 2254.269531 L 2.117188 20.671875 Z "/>
<path style=" stroke:none;fill-rule:nonzero;fill:rgb(46.666667%,22.745098%,86.27451%);fill-opacity:1;" d="M 4.324219 8.554688 L 65.675781 8.554688 C 66.890625 8.554688 67.871094 992.285156 67.871094 2205.777344 L 67.871094 2215.695313 L 2.128906 2215.695313 L 2.128906 10.757813 C 2.808594 -382.421875 3.644531 -383.257813 4.324219 8.554688 Z "/>
<path style=" stroke:none;fill-rule:nonzero;fill:rgb(100%,100%,100%);fill-opacity:1;" d="M 11.273438 25.023438 L 23.464844 25.023438 C 24.054688 25.023438 24.53125 25.503906 24.53125 26.089844 L 24.53125 54.808594 C 24.53125 55.398438 24.054688 55.875 23.464844 55.875 L 11.273438 55.875 C 10.683594 55.875 10.207031 55.398438 10.207031 54.808594 L 10.207031 26.089844 C 10.207031 25.503906 10.683594 25.023438 11.273438 25.023438 Z "/>
<path style=" stroke:none;fill-rule:nonzero;fill:rgb(100%,100%,100%);fill-opacity:0.74902;" d="M 28.902344 25.023438 L 41.09375 25.023438 C 41.683594 25.023438 42.160156 25.503906 42.160156 26.089844 L 42.160156 54.808594 C 42.160156 55.398438 41.683594 55.875 41.09375 55.875 L 28.902344 55.875 C 28.3125 55.875 27.835938 55.398438 27.835938 54.808594 L 27.835938 26.089844 C 27.835938 25.503906 28.3125 25.023438 28.902344 25.023438 Z "/>
<path style=" stroke:none;fill-rule:nonzero;fill:rgb(100%,100%,100%);fill-opacity:0.501961;" d="M 46.535156 25.023438 L 58.726563 25.023438 C 59.316406 25.023438 59.792969 25.503906 59.792969 26.089844 L 59.792969 54.808594 C 59.792969 55.398438 59.316406 55.875 58.726563 55.875 L 46.535156 55.875 C 45.945313 55.875 45.46875 55.398438 45.46875 54.808594 L 45.46875 26.089844 C 45.46875 25.503906 45.945313 25.023438 46.535156 25.023438 Z "/>
</g>
</svg>
