<?xml version="1.0" encoding="UTF-8"?>
<svg xmlns="http://www.w3.org/2000/svg" xmlns:xlink="http://www.w3.org/1999/xlink" width="70pt" height="70pt" viewBox="0 0 70 70" version="1.1">
<defs>
<linearGradient id="linear0" gradientUnits="userSpaceOnUse" x1="9" y1="15.83" x2="9" y2="5.79" gradientTransform="matrix(3.888889,0,0,3.888889,0,0)">
<stop offset="0" style="stop-color:rgb(70.196078%,70.196078%,70.196078%);stop-opacity:1;"/>
<stop offset="0.26" style="stop-color:rgb(75.686275%,75.686275%,75.686275%);stop-opacity:1;"/>
<stop offset="1" style="stop-color:rgb(90.196078%,90.196078%,90.196078%);stop-opacity:1;"/>
</linearGradient>
</defs>
<g id="surface1">
<path style=" stroke:none;fill-rule:nonzero;fill:url(#linear0);" d="M 0 22.515625 L 66.109375 22.515625 L 66.109375 59.382813 C 66.109375 181.804688 65.117188 281.050781 63.894531 281.050781 L 4.160156 281.050781 C 3.472656 319.964844 2.625 319.117188 1.945313 278.832031 L 1.945313 22.515625 Z "/>
<path style=" stroke:none;fill-rule:nonzero;fill:rgb(21.568627%,76.078431%,69.411765%);fill-opacity:1;" d="M 4.160156 8.4375 L 65.839844 8.4375 C 67.0625 8.4375 68.054688 107.683594 68.054688 230.105469 L 68.054688 22.515625 L 1.945313 22.515625 L 1.945313 10.617188 C 2.625 -29.65625 3.472656 -30.488281 4.160156 8.4375 Z "/>
<path style=" stroke:none;fill-rule:nonzero;fill:rgb(100%,100%,100%);fill-opacity:1;" d="M 10.929688 26.792969 L 59.035156 26.792969 C 59.597656 28.886719 60.042969 75.289063 60.042969 131.792969 L 60.042969 137.238281 C 60.042969 193.742188 59.597656 240.144531 59.035156 242.238281 L 10.929688 242.238281 C 10.609375 259.210938 10.230469 258.8125 9.917969 241.1875 L 9.917969 27.84375 C 10.230469 10.21875 10.609375 9.824219 10.929688 26.792969 Z "/>
<path style=" stroke:none;fill-rule:nonzero;fill:rgb(21.568627%,76.078431%,69.411765%);fill-opacity:1;" d="M 10.964844 37.644531 L 59.070313 37.644531 C 59.636719 39.738281 60.082031 86.140625 60.082031 142.644531 L 60.082031 148.128906 C 60.082031 204.632813 59.636719 251.035156 59.070313 253.128906 L 10.964844 253.128906 C 10.648438 270.097656 10.269531 269.703125 9.957031 252.078125 L 9.957031 38.890625 C 10.269531 21.203125 10.648438 20.734375 10.964844 37.644531 Z "/>
<path style=" stroke:none;fill-rule:nonzero;fill:rgb(14.509804%,50.980392%,46.666667%);fill-opacity:1;" d="M 10.964844 48.609375 L 59.070313 48.609375 C 59.636719 50.703125 60.082031 97.105469 60.082031 153.609375 L 60.082031 159.09375 C 60.082031 215.597656 59.636719 262 59.070313 264.09375 L 10.964844 264.09375 C 10.648438 281.066406 10.269531 280.667969 9.957031 263.042969 L 9.957031 49.660156 C 10.269531 32.035156 10.648438 31.640625 10.964844 48.609375 Z "/>
</g>
</svg>
