<?xml version="1.0" encoding="UTF-8"?>
<svg xmlns="http://www.w3.org/2000/svg" xmlns:xlink="http://www.w3.org/1999/xlink" width="70pt" height="70pt" viewBox="0 0 70 70" version="1.1">
<defs>
<linearGradient id="linear0" gradientUnits="userSpaceOnUse" x1="9" y1="11.95" x2="9" y2="0" gradientTransform="matrix(3.888889,0,0,3.888889,0,0)">
<stop offset="0" style="stop-color:rgb(0%,47.058824%,83.137255%);stop-opacity:1;"/>
<stop offset="0.16" style="stop-color:rgb(7.45098%,50.196078%,85.490196%);stop-opacity:1;"/>
<stop offset="0.53" style="stop-color:rgb(23.529412%,56.862745%,89.803922%);stop-opacity:1;"/>
<stop offset="0.82" style="stop-color:rgb(33.333333%,61.176471%,92.54902%);stop-opacity:1;"/>
<stop offset="1" style="stop-color:rgb(36.862745%,62.745098%,93.72549%);stop-opacity:1;"/>
</linearGradient>
</defs>
<g id="surface1">
<path style=" stroke:none;fill-rule:nonzero;fill:url(#linear0);" d="M 67.785156 31.929688 C 67.578125 24.707031 62.152344 18.707031 54.988281 17.773438 C 54.566406 7.601563 46.027344 -0.328125 35.855469 0 C 27.773438 -0.132813 20.484375 4.835938 17.65625 12.40625 C 8.992188 13.40625 2.371094 20.605469 2.101563 29.320313 C 2.242188 34.09375 4.285156 38.613281 7.777344 41.871094 C 11.269531 45.128906 15.917969 46.855469 20.6875 46.667969 L 53.003906 46.667969 C 61.117188 46.582031 67.679688 40.039063 67.785156 31.929688 Z "/>
<path style=" stroke:none;fill-rule:nonzero;fill:rgb(94.901961%,94.901961%,94.901961%);fill-opacity:1;" d="M 24.734375 25.121094 L 35 15.050781 C 35.21875 12.792969 35.519531 11.519531 35.835938 11.519531 C 36.152344 11.519531 36.453125 12.792969 36.671875 15.050781 L 46.667969 25.121094 C 46.84375 39.398438 46.90625 63.789063 46.8125 84.6875 C 46.722656 105.585938 46.503906 117.820313 46.277344 114.566406 L 39.976563 114.566406 C 39.683594 116.460938 39.453125 139.761719 39.433594 169.011719 L 39.433594 181.609375 C 39.433594 205.238281 39.242188 224.390625 39.003906 224.390625 L 32.238281 224.390625 C 32.105469 231.898438 31.941406 231.734375 31.8125 223.960938 L 31.8125 26.5625 C 31.652344 18.089844 31.464844 17.886719 31.304688 26.015625 L 25.082031 26.015625 C 24.96875 29.898438 24.84375 29.578125 24.734375 25.121094 Z "/>
<path style=" stroke:none;fill-rule:nonzero;fill:rgb(65.098039%,47.843137%,95.686275%);fill-opacity:1;" d="M 54.445313 44.214844 C 54.332031 39.886719 54.207031 39.707031 54.09375 43.710938 L 35.621094 37.527344 L 35 37.527344 L 35 70 L 35.503906 70 L 53.820313 62.6875 C 54.007813 76.828125 54.261719 76.636719 54.445313 62.222656 Z "/>
<path style=" stroke:none;fill-rule:nonzero;fill:rgb(33.333333%,18.431373%,60%);fill-opacity:1;" d="M 35 37.644531 L 17.460938 360.421875 C 17.207031 364.066406 17.011719 385.1875 16.996094 410.976563 L 16.996094 435.207031 C 17.003906 460.769531 17.175781 482.84375 17.421875 489.648438 L 35 70 C 35.183594 84.128906 35.441406 83.917969 35.621094 69.496094 L 35.621094 38.382813 C 35.4375 25.140625 35.1875 24.847656 35 37.644531 Z "/>
<path style=" stroke:none;fill-rule:nonzero;fill:rgb(71.764706%,47.843137%,95.686275%);fill-opacity:0.74902;" d="M 26.910156 42.464844 L 26.910156 65.0625 L 33.015625 66.035156 L 33.015625 41.417969 Z "/>
<path style=" stroke:none;fill-rule:nonzero;fill:rgb(71.764706%,47.843137%,95.686275%);fill-opacity:0.74902;" d="M 19.367188 43.710938 L 19.367188 63.464844 L 24.695313 64.554688 L 24.695313 42.816406 Z "/>
</g>
</svg>
