<?xml version="1.0" encoding="UTF-8"?>
<svg xmlns="http://www.w3.org/2000/svg" xmlns:xlink="http://www.w3.org/1999/xlink" width="70pt" height="70pt" viewBox="0 0 70 70" version="1.1">
<defs>
<linearGradient id="linear0" gradientUnits="userSpaceOnUse" x1="3.44" y1="14.22" x2="3.44" y2="10.54" gradientTransform="matrix(3.888889,0,0,3.888889,0,0)">
<stop offset="0.09" style="stop-color:rgb(47,166,255);stop-opacity:1;"/>
<stop offset="1" style="stop-color:rgb(119,197,255);stop-opacity:1;"/>
</linearGradient>
<linearGradient id="linear1" gradientUnits="userSpaceOnUse" x1="14.51" y1="14.22" x2="14.51" y2="10.54" gradientTransform="matrix(3.888889,0,0,3.888889,0,0)">
<stop offset="0.09" style="stop-color:rgb(47,166,255);stop-opacity:1;"/>
<stop offset="1" style="stop-color:rgb(119,197,255);stop-opacity:1;"/>
</linearGradient>
<linearGradient id="linear2" gradientUnits="userSpaceOnUse" x1="8.98" y1="4.4" x2="8.98" y2="0.71" gradientTransform="matrix(3.888889,0,0,3.888889,0,0)">
<stop offset="0.09" style="stop-color:rgb(47,166,255);stop-opacity:1;"/>
<stop offset="1" style="stop-color:rgb(119,197,255);stop-opacity:1;"/>
</linearGradient>
</defs>
<g id="surface1">
<path style=" stroke:none;fill-rule:nonzero;fill:rgb(0,108,188);fill-opacity:1;" d="M 28.464844 46.042969 L 41.339844 46.042969 C 41.667969 63.769531 42.0625 63.445313 42.390625 45.1875 C 43.089844 41.875 44.933594 38.914063 47.601563 36.828125 L 46.199219 36.828125 L 40.910156 25.160156 C 40.589844 5.835938 40.1875 5.140625 39.859375 23.332031 C 38.300781 23.898438 36.660156 24.199219 35 24.226563 C 33.285156 24.242188 31.585938 23.9375 29.984375 23.332031 C 29.476563 5.328125 28.917969 26.777344 28.660156 73.890625 L 21.972656 85.554688 C 21.703125 132.5 21.816406 192.152344 22.246094 225.554688 C 24.890625 227.640625 26.71875 230.585938 27.417969 233.878906 C 27.933594 262.871094 28.589844 244.328125 28.878906 192.460938 C 29.171875 140.59375 28.984375 75.039063 28.464844 46.042969 Z M 20.6875 9.917969 L 12.910156 9.917969 C 12.523438 9.4375 12.164063 30.371094 11.976563 64.359375 L 2.101563 27.457031 C 2.101563 27.820313 2.101563 28.179688 2.101563 28.542969 L 5.714844 34.765625 C 6.003906 84.949219 6.628906 105.117188 7.15625 81.433594 C 9.09375 80.484375 11.222656 79.992188 13.378906 79.996094 C 13.894531 79.957031 14.414063 79.957031 14.933594 79.996094 C 15.277344 97.148438 15.679688 96.945313 16.023438 79.449219 L 19.09375 28 L 23.722656 19.988281 C 23.722656 19.585938 23.722656 19.183594 23.722656 18.785156 C 21.679688 16.277344 20.554688 13.148438 20.535156 9.917969 Z M 58.101563 64.359375 C 57.808594 49.601563 57.460938 49.402344 57.167969 63.816406 L 49.390625 63.816406 C 49.394531 67.015625 48.328125 70.125 46.355469 72.644531 L 47.5625 72.644531 L 51.023438 80.695313 L 358.246094 86.023438 C 358.460938 124.660156 358.894531 146.199219 359.332031 140.464844 L 360.8125 140.464844 C 400.546875 138.738281 434.15625 169.546875 435.886719 209.28125 C 437.613281 249.015625 406.804688 282.625 367.070313 284.355469 C 367.761719 -8081.222656 300.503906 -14918.6875 216.847656 -14987.542969 C 133.191406 -15056.402344 64.816406 -8330.578125 64.128906 35 L 67.746094 28.738281 C 67.746094 28.375 67.746094 28.011719 67.746094 27.648438 Z M 41.882813 52.265625 L 27.921875 52.265625 C 27.457031 50.875 27.039063 78.964844 26.871094 122.265625 C 25.855469 125.101563 23.964844 127.542969 21.464844 129.226563 L 169.246094 129.226563 L 24.539063 134.515625 C 24.738281 167.359375 25.089844 187.867188 25.472656 188.960938 L 45.109375 188.960938 C 45.410156 202.265625 45.75 202.066406 46.042969 188.417969 L 43.011719 183.167969 C 42.894531 180.789063 42.777344 180.289063 42.660156 181.6875 C 40.152344 179.992188 38.246094 177.539063 37.214844 174.6875 C 37.554688 303.554688 38.875 380.617188 40.164063 346.8125 C 41.449219 313.003906 42.222656 181.132813 41.882813 52.265625 Z "/>
<path style=" stroke:none;fill-rule:nonzero;fill:url(#linear0);" d="M 20.570313 48.144531 C 20.570313 52.117188 17.351563 55.339844 13.378906 55.339844 C 9.40625 55.339844 6.183594 52.117188 6.183594 48.144531 C 6.183594 44.171875 9.40625 40.949219 13.378906 40.949219 C 17.351563 40.949219 20.570313 44.171875 20.570313 48.144531 Z "/>
<path style=" stroke:none;fill-rule:nonzero;fill:url(#linear1);" d="M 63.621094 48.144531 C 63.621094 52.117188 60.402344 55.339844 56.429688 55.339844 C 52.453125 55.339844 49.234375 52.117188 49.234375 48.144531 C 49.234375 44.171875 52.453125 40.949219 56.429688 40.949219 C 60.402344 40.949219 63.621094 44.171875 63.621094 48.144531 Z "/>
<path style=" stroke:none;fill-rule:nonzero;fill:url(#linear2);" d="M 42.117188 9.917969 C 42.117188 13.890625 38.894531 17.109375 34.921875 17.109375 C 30.949219 17.109375 27.726563 13.890625 27.726563 9.917969 C 27.726563 5.941406 30.949219 2.722656 34.921875 2.722656 C 38.894531 2.722656 42.117188 5.941406 42.117188 9.917969 Z "/>
<path style=" stroke:none;fill-rule:nonzero;fill:rgb(41,164,255);fill-opacity:1;" d="M 56.429688 24.964844 C 28.507813 23.085938 4.347656 44.199219 2.46875 72.121094 C 0.589844 100.039063 21.699219 124.199219 49.621094 126.078125 L 50.789063 331.371094 L 56.117188 331.371094 C 56.335938 370.011719 56.765625 391.550781 57.207031 385.816406 L 58.683594 385.816406 C 98.417969 384.085938 132.03125 414.898438 133.757813 454.628906 C 135.488281 494.363281 104.679688 527.976563 64.945313 529.707031 C 66.308594 507.152344 67.234375 378.128906 67.007813 241.519531 C 66.785156 104.910156 65.492188 12.449219 64.128906 35 L 67.199219 29.710938 L 148.867188 28.273438 C 149.78125 2.746094 129.828125 -18.6875 104.300781 -19.601563 C 78.773438 -20.511719 57.339844 -0.558594 56.429688 24.964844 Z M 42.390625 45.1875 C 43.089844 41.875 44.933594 38.914063 47.601563 36.828125 L 46.199219 36.828125 L 43.710938 29.984375 C 37.675781 33.863281 33.761719 40.300781 33.09375 47.445313 L 41.105469 47.445313 C 41.492188 74.664063 42.011719 73.753906 42.390625 45.1875 Z M 42.933594 52.964844 C 42.609375 34.757813 42.210938 34.496094 41.882813 52.265625 L 33.601563 52.265625 C 34.726563 58.347656 38.226563 63.734375 43.320313 67.238281 L 44.761719 67.238281 C 45.058594 80.542969 45.398438 80.34375 45.695313 66.695313 L 42.660156 61.445313 C 42.546875 59.066406 42.429688 58.566406 42.3125 59.964844 C 41.882813 57.628906 42.042969 55.226563 42.777344 52.964844 Z "/>
</g>
</svg>
