<?xml version="1.0" encoding="UTF-8"?>
<svg xmlns="http://www.w3.org/2000/svg" xmlns:xlink="http://www.w3.org/1999/xlink" width="70pt" height="70pt" viewBox="0 0 70 70" version="1.1">
<defs>
<linearGradient id="linear0" gradientUnits="userSpaceOnUse" x1="6.41" y1="1.78" x2="6.41" y2="14.13" gradientTransform="matrix(3.888889,0,0,3.888889,0,0)">
<stop offset="0" style="stop-color:rgb(101,189,255);stop-opacity:1;"/>
<stop offset="0.38" style="stop-color:rgb(93,186,255);stop-opacity:1;"/>
<stop offset="0.76" style="stop-color:rgb(69,176,255);stop-opacity:1;"/>
<stop offset="1" style="stop-color:rgb(47,166,255);stop-opacity:1;"/>
</linearGradient>
<linearGradient id="linear1" gradientUnits="userSpaceOnUse" x1="7.85" y1="13.09" x2="16.6" y2="13.09" gradientTransform="matrix(3.888889,0,0,3.888889,0,0)">
<stop offset="0" style="stop-color:rgb(0,81,142);stop-opacity:1;"/>
<stop offset="0.07" style="stop-color:rgb(0,86,150);stop-opacity:1;"/>
<stop offset="0.36" style="stop-color:rgb(0,101,176);stop-opacity:1;"/>
<stop offset="0.52" style="stop-color:rgb(0,108,188);stop-opacity:1;"/>
<stop offset="0.64" style="stop-color:rgb(0,103,180);stop-opacity:1;"/>
<stop offset="0.82" style="stop-color:rgb(0,95,166);stop-opacity:1;"/>
<stop offset="1" style="stop-color:rgb(0,81,142);stop-opacity:1;"/>
</linearGradient>
</defs>
<g id="surface1">
<path style=" stroke:none;fill-rule:nonzero;fill:rgb(51,168,255);fill-opacity:1;" d="M 5.523438 6.960938 L 9.410156 2.566406 C 9.84375 -7.292969 10.300781 -1.308594 10.695313 19.445313 L 46.898438 19.445313 C 47.621094 13.957031 48.332031 39.101563 48.855469 88.699219 C 49.382813 138.292969 49.675781 207.746094 49.660156 280 L 49.660156 49.738281 C 49.652344 101.800781 49.425781 151.144531 49.039063 185.851563 L 45.148438 182.15625 Z "/>
<path style=" stroke:none;fill-rule:nonzero;fill:rgb(51,168,255);fill-opacity:0.501961;" d="M 5.523438 6.960938 L 9.410156 2.566406 C 9.84375 -7.292969 10.300781 -1.308594 10.695313 19.445313 L 46.898438 19.445313 C 47.621094 13.957031 48.332031 39.101563 48.855469 88.699219 C 49.382813 138.292969 49.675781 207.746094 49.660156 280 L 49.660156 49.738281 C 49.652344 101.800781 49.425781 151.144531 49.039063 185.851563 L 45.148438 182.15625 Z "/>
<path style=" stroke:none;fill-rule:nonzero;fill:rgb(255,255,255);fill-opacity:1;" d="M 8.554688 6.960938 L 10.851563 4.316406 C 11.25 -11.441406 11.695313 -11.59375 12.09375 3.890625 L 45.890625 3.890625 C 46.789063 3.890625 47.523438 77.015625 47.523438 167.222656 L 47.523438 48.339844 C 47.519531 93.632813 47.339844 136.984375 47.015625 168.894531 L 43.398438 499.449219 "/>
<path style=" stroke:none;fill-rule:nonzero;fill:url(#linear0);" d="M 43.167969 6.921875 L 5.445313 6.921875 L 5.640625 53.589844 C 5.640625 120.167969 6.179688 174.144531 6.84375 174.144531 L 43.167969 174.144531 C 43.542969 195.308594 44 194.847656 44.371094 172.9375 L 44.371094 8.128906 C 44 -13.78125 43.542969 -14.242188 43.167969 6.921875 Z "/>
<path style=" stroke:none;fill-rule:nonzero;fill:url(#linear1);" d="M 47.523438 39.199219 C 38.148438 39.199219 30.527344 36.789063 30.527344 33.792969 L 30.527344 62.648438 C 30.527344 65.605469 37.996094 68.015625 47.289063 68.054688 L 47.523438 68.054688 C 56.933594 68.054688 64.554688 65.644531 64.554688 62.648438 L 64.554688 33.792969 C 64.554688 36.789063 56.933594 39.199219 47.523438 39.199219 Z "/>
<path style=" stroke:none;fill-rule:nonzero;fill:rgb(209,235,255);fill-opacity:1;" d="M 64.554688 33.792969 C 64.554688 36.789063 56.777344 39.199219 47.523438 39.199219 C 38.265625 39.199219 30.527344 36.789063 30.527344 33.792969 C 30.527344 30.800781 38.304688 28.351563 47.523438 28.351563 C 56.738281 28.351563 64.554688 273.351563 64.554688 33.792969 "/>
<path style=" stroke:none;fill-rule:nonzero;fill:rgb(119,197,255);fill-opacity:1;" d="M 60.589844 33.367188 C 60.589844 35.273438 54.714844 375.589844 47.523438 375.589844 C 40.328125 375.589844 34.496094 374.070313 34.496094 372.167969 C 34.496094 370.261719 40.328125 368.707031 47.523438 368.707031 C 54.714844 368.707031 60.589844 384.261719 60.589844 714.816406 "/>
<path style=" stroke:none;fill-rule:nonzero;fill:rgb(0,124,216);fill-opacity:1;" d="M 47.523438 34.144531 C 11.011719 31.296875 -20.894531 58.589844 -23.742188 95.101563 C -26.585938 131.613281 0.703125 163.519531 37.214844 166.367188 C 0.703125 169.210938 -26.585938 201.117188 -23.742188 237.628906 C -20.894531 274.144531 11.011719 301.433594 47.523438 298.589844 C 51.015625 298.675781 54.503906 298.230469 57.867188 297.265625 C 130.527344 294.410156 187.113281 233.191406 184.253906 160.535156 C 181.398438 87.875 120.179688 31.289063 47.523438 34.144531 Z "/>
</g>
</svg>
