<?xml version="1.0" encoding="UTF-8"?>
<svg xmlns="http://www.w3.org/2000/svg" xmlns:xlink="http://www.w3.org/1999/xlink" width="70pt" height="70pt" viewBox="0 0 70 70" version="1.1">
<defs>
<linearGradient id="linear0" gradientUnits="userSpaceOnUse" x1="11.08" y1="31.2" x2="11.08" y2="15.71" gradientTransform="matrix(3.888889,0,0,3.85,0,-55.688889)">
<stop offset="0" style="stop-color:rgb(58.039216%,58.039216%,58.039216%);stop-opacity:1;"/>
<stop offset="0.33" style="stop-color:rgb(60.784314%,60.784314%,60.784314%);stop-opacity:1;"/>
<stop offset="0.82" style="stop-color:rgb(68.235294%,68.627451%,69.019608%);stop-opacity:1;"/>
<stop offset="1" style="stop-color:rgb(71.372549%,72.156863%,72.54902%);stop-opacity:1;"/>
</linearGradient>
</defs>
<g id="surface1">
<path style=" stroke:none;fill-rule:nonzero;fill:url(#linear0);" d="M 70 37.683594 L 70 30.722656 L 69.609375 30.371094 L 62.457031 27.960938 L 60.628906 23.332031 L 64.167969 16.023438 L 68.054688 15.207031 L 62.222656 12.832031 L 59.5 10.148438 L 58.566406 56.816406 L 51.566406 410.707031 L 46.859375 12.832031 L 43.828125 5.054688 L 36.867188 5.054688 L 36.515625 40.054688 L 34.105469 12.523438 L 29.207031 195.300781 L 21.117188 191.410156 L 16.140625 15.320313 L 16.605469 108.65625 L 20.339844 23.332031 C 24.089844 21.074219 28.402344 19.914063 32.785156 19.988281 C 37.753906 20.015625 42.601563 21.5625 46.667969 24.421875 C 74.585938 24.035156 97.535156 46.355469 97.921875 74.277344 C 98.308594 102.199219 75.988281 125.148438 48.066406 125.535156 C 49.699219 126.945313 50.945313 128.753906 51.683594 130.785156 C 25.234375 130.558594 3.972656 108.933594 4.199219 82.484375 C 4.425781 56.035156 26.050781 34.773438 52.5 35 C 52.5 38.34375 51.164063 41.550781 48.792969 43.910156 C 46.421875 46.265625 43.207031 47.582031 39.859375 47.5625 C 37.257813 47.558594 34.722656 46.757813 32.589844 45.265625 C 28.378906 49.3125 22.863281 51.726563 17.035156 52.070313 L 16.292969 203.738281 L 21.273438 208.753906 L 22.285156 58.332031 L 29.285156 54.445313 L 34.105469 255.851563 L 49.503906 255.851563 L 49.777344 254.878906 L 298.667969 247.449219 L 51.683594 54.445313 L 59.890625 58.332031 L 64.828125 53.433594 L 64.359375 52.5 L 60.746094 45.539063 L 62.222656 40.679688 Z "/>
<path style=" stroke:none;fill-rule:nonzero;fill:rgb(31.372549%,90.196078%,100%);fill-opacity:1;" d="M 15.554688 41.417969 C 11.824219 41.4375 8.242188 39.964844 5.601563 37.332031 L 35 10.304688 L 37.839844 10.304688 L 15.554688 37.332031 C 18.203125 37.539063 20.828125 36.699219 22.867188 35 C 25.519531 32.429688 29.089844 31.027344 32.785156 31.109375 C 36.496094 31.046875 40.085938 32.441406 42.777344 35 C 43.261719 79.492188 43.460938 146.851563 43.300781 210.484375 C 43.136719 274.121094 42.640625 323.808594 42.003906 339.9375 C 41.367188 356.066406 40.695313 336.046875 40.25 287.777344 C 38.292969 285.839844 35.652344 284.75 32.898438 284.746094 C -50.863281 282.726563 -120.402344 348.992188 -122.421875 432.753906 C -124.441406 516.519531 -58.175781 586.058594 25.589844 588.078125 C -125.367188 590.847656 -249.988281 470.71875 -252.757813 319.765625 C -255.527344 168.808594 -135.402344 44.1875 15.554688 41.417969 Z "/>
<path style=" stroke:none;fill-rule:nonzero;fill:rgb(31.372549%,90.196078%,100%);fill-opacity:1;" d="M 15.554688 34.300781 C 13.71875 34.296875 11.957031 33.570313 10.65625 32.277344 C 11.347656 -38.148438 12.476563 -39.277344 13.183594 29.75 C 13.945313 59.789063 14.792969 60.136719 15.554688 30.722656 C 16.414063 30.644531 17.230469 30.304688 17.890625 29.75 C 26.15625 21.589844 39.449219 21.589844 47.714844 29.75 C 48.367188 100.3125 48.34375 209.628906 47.667969 277.488281 C 46.988281 345.347656 45.894531 347.570313 45.1875 282.527344 C 38.289063 275.679688 27.160156 275.679688 20.261719 282.527344 C -48.285156 283.828125 -104.90625 229.3125 -106.207031 160.765625 C -107.503906 92.21875 -52.992188 35.597656 15.554688 34.300781 Z "/>
<path style=" stroke:none;fill-rule:nonzero;fill:rgb(19.607843%,74.509804%,86.666667%);fill-opacity:1;" d="M 15.554688 48.535156 C 9.914063 48.574219 4.488281 46.347656 0.503906 42.351563 C 0.503906 41.519531 0.503906 40.691406 0.503906 39.859375 C 4.398438 43.902344 10.003906 45.8125 15.554688 44.996094 C 20.226563 45 24.707031 43.136719 28 39.820313 C 29.300781 38.664063 30.964844 37.988281 32.707031 37.917969 C 89.042969 36.574219 135.800781 81.15625 137.140625 137.492188 C 138.484375 193.828125 93.902344 240.585938 37.566406 241.929688 L 40.09375 426.535156 L 40.792969 564.707031 L 37.566406 241.929688 C 9.644531 241.285156 -13.511719 263.394531 -14.15625 291.316406 C -14.800781 319.238281 7.3125 342.394531 35.234375 343.039063 C -46.09375 348.472656 -116.425781 286.949219 -121.859375 205.625 C -127.292969 124.300781 -65.769531 53.96875 15.554688 48.535156 Z "/>
</g>
</svg>
