<?xml version="1.0" encoding="UTF-8"?>
<svg xmlns="http://www.w3.org/2000/svg" xmlns:xlink="http://www.w3.org/1999/xlink" width="70pt" height="70pt" viewBox="0 0 70 70" version="1.1">
<g id="surface1">
<path style=" stroke:none;fill-rule:nonzero;fill:rgb(103,190,255);fill-opacity:1;" d="M 35.699219 32.042969 L 38.226563 32.042969 L 38.226563 39.082031 C 38.226563 69.152344 37.984375 93.527344 37.683594 93.527344 L 35 93.527344 C 34.832031 103.085938 34.621094 102.878906 34.457031 92.984375 L 34.457031 33.171875 C 34.832031 7.871094 35.320313 7.425781 35.699219 32.042969 Z "/>
<path style=" stroke:none;fill-rule:nonzero;fill:rgb(103,190,255);fill-opacity:0.501961;" d="M 35.699219 32.042969 L 38.226563 32.042969 L 38.226563 39.082031 C 38.226563 69.152344 37.984375 93.527344 37.683594 93.527344 L 35 93.527344 C 34.832031 103.085938 34.621094 102.878906 34.457031 92.984375 L 34.457031 33.171875 C 34.832031 7.871094 35.320313 7.425781 35.699219 32.042969 Z "/>
<path style=" stroke:none;fill-rule:nonzero;fill:rgb(103,190,255);fill-opacity:1;" d="M 64.398438 32.042969 L 66.929688 32.042969 C 67.550781 32.042969 68.054688 82.535156 68.054688 144.820313 L 68.054688 150.773438 C 68.054688 180.839844 67.8125 205.214844 67.511719 205.214844 L 64.945313 205.214844 C 64.773438 214.773438 64.566406 214.566406 64.398438 204.671875 Z "/>
<path style=" stroke:none;fill-rule:nonzero;fill:rgb(103,190,255);fill-opacity:0.501961;" d="M 64.398438 32.042969 L 66.929688 32.042969 C 67.550781 32.042969 68.054688 82.535156 68.054688 144.820313 L 68.054688 150.773438 C 68.054688 180.839844 67.8125 205.214844 67.511719 205.214844 L 64.945313 205.214844 C 64.773438 214.773438 64.566406 214.566406 64.398438 204.671875 Z "/>
<path style=" stroke:none;fill-rule:nonzero;fill:rgb(103,190,255);fill-opacity:1;" d="M 68.054688 33.054688 L 68.054688 35.503906 L 34.609375 35.503906 L 34.609375 33.054688 C 14.8125 32.703125 15.242188 32.273438 35.738281 31.929688 L 66.851563 31.929688 C 87.371094 32.273438 87.828125 32.703125 68.054688 33.054688 Z "/>
<path style=" stroke:none;fill-rule:nonzero;fill:rgb(103,190,255);fill-opacity:1;" d="M 35 54.445313 L 37.527344 54.445313 C 37.828125 54.445313 38.070313 78.820313 38.070313 108.890625 L 38.070313 115.929688 L 35.699219 115.929688 C 35.347656 135.726563 34.917969 135.296875 34.570313 114.800781 L 34.570313 54.871094 C 34.707031 48.898438 34.863281 48.746094 35 54.445313 Z "/>
<path style=" stroke:none;fill-rule:nonzero;fill:rgb(103,190,255);fill-opacity:0.501961;" d="M 35 54.445313 L 37.527344 54.445313 C 37.828125 54.445313 38.070313 78.820313 38.070313 108.890625 L 38.070313 115.929688 L 35.699219 115.929688 C 35.347656 135.726563 34.917969 135.296875 34.570313 114.800781 L 34.570313 54.871094 C 34.707031 48.898438 34.863281 48.746094 35 54.445313 Z "/>
<path style=" stroke:none;fill-rule:nonzero;fill:rgb(103,190,255);fill-opacity:1;" d="M 64.945313 54.445313 L 67.472656 54.445313 C 67.773438 54.445313 68.015625 78.820313 68.015625 108.890625 L 68.015625 114.839844 C 68.015625 177.125 67.511719 227.617188 66.890625 227.617188 L 64.359375 227.617188 L 64.359375 54.871094 C 64.539063 43.445313 64.765625 43.277344 64.945313 54.445313 Z "/>
<path style=" stroke:none;fill-rule:nonzero;fill:rgb(103,190,255);fill-opacity:0.501961;" d="M 64.945313 54.445313 L 67.472656 54.445313 C 67.773438 54.445313 68.015625 78.820313 68.015625 108.890625 L 68.015625 114.839844 C 68.015625 177.125 67.511719 227.617188 66.890625 227.617188 L 64.359375 227.617188 L 64.359375 54.871094 C 64.539063 43.445313 64.765625 43.277344 64.945313 54.445313 Z "/>
<path style=" stroke:none;fill-rule:nonzero;fill:rgb(103,190,255);fill-opacity:1;" d="M 34.609375 60.9375 L 34.609375 58.488281 L 68.09375 58.488281 L 68.09375 60.9375 C 87.890625 61.289063 87.460938 61.71875 66.964844 62.066406 L 35.855469 62.066406 C 15.324219 61.71875 14.847656 61.289063 34.609375 60.9375 Z "/>
<path style=" stroke:none;fill-rule:nonzero;fill:rgb(47,166,255);fill-opacity:1;" d="M 54.792969 45.65625 C 54.796875 70.800781 54.613281 92.34375 54.367188 96.210938 L 50.554688 96.210938 C 50.402344 105.988281 50.203125 105.804688 50.050781 95.746094 L 50.050781 42.777344 C 50.1875 36.78125 50.339844 36.597656 50.476563 42.273438 L 54.367188 42.273438 C 54.496094 41.183594 54.625 45.613281 54.722656 54.484375 C 54.816406 63.359375 54.871094 75.859375 54.871094 88.9375 Z "/>
<path style=" stroke:none;fill-rule:nonzero;fill:rgb(0,138,240);fill-opacity:1;" d="M 61.753906 48.609375 C 61.757813 73.757813 61.578125 95.300781 61.328125 99.167969 L 57.4375 99.167969 C 57.285156 108.945313 57.085938 108.761719 56.933594 98.699219 L 56.933594 95.820313 C 57.066406 88.035156 57.226563 87.859375 57.359375 95.355469 L 61.25 95.355469 C 61.375 93.019531 61.507813 96.472656 61.605469 104.761719 C 61.703125 113.050781 61.757813 125.300781 61.753906 138.132813 Z "/>
<path style=" stroke:none;fill-rule:nonzero;fill:rgb(0,138,240);fill-opacity:1;" d="M 54.792969 51.566406 C 54.804688 63.953125 54.765625 76.257813 54.6875 85.746094 C 54.605469 95.238281 54.492188 101.132813 54.367188 102.121094 L 50.554688 102.121094 C 50.402344 111.910156 50.203125 111.742188 50.050781 101.695313 L 50.050781 98.777344 C 50.039063 85.035156 50.085938 71.46875 50.183594 61.714844 C 50.28125 51.960938 50.417969 47.019531 50.554688 48.222656 L 54.445313 48.222656 C 54.570313 45.886719 54.699219 49.339844 54.796875 57.628906 C 54.898438 65.917969 54.953125 78.167969 54.949219 91 L 54.949219 93.917969 Z "/>
<path style=" stroke:none;fill-rule:nonzero;fill:rgb(89,184,255);fill-opacity:1;" d="M 47.832031 42.777344 C 47.84375 54.78125 47.804688 66.6875 47.722656 75.574219 C 47.640625 84.457031 47.527344 89.496094 47.40625 89.445313 L 43.515625 89.445313 C 43.386719 109.847656 43.117188 115.941406 42.914063 103.054688 C 42.710938 90.167969 42.648438 63.179688 42.777344 42.777344 L 42.777344 39.785156 C 42.910156 31.996094 43.074219 31.820313 43.207031 39.316406 L 47.09375 39.316406 C 47.484375 39.316406 47.679688 59.34375 93.761719 59.34375 Z "/>
<path style=" stroke:none;fill-rule:nonzero;fill:rgb(47,166,255);fill-opacity:1;" d="M 47.832031 48.609375 C 47.84375 60.996094 47.804688 73.300781 47.726563 82.792969 C 47.644531 92.28125 47.53125 98.175781 47.40625 99.167969 L 43.515625 99.167969 C 43.371094 107.359375 43.195313 107.179688 43.050781 98.699219 L 43.050781 95.746094 C 43.183594 88.664063 43.34375 88.476563 43.476563 95.238281 L 47.367188 95.238281 C 47.753906 95.238281 47.949219 115.265625 97.921875 115.265625 Z "/>
<path style=" stroke:none;fill-rule:nonzero;fill:rgb(0,138,240);fill-opacity:1;" d="M 47.832031 54.445313 C 47.855469 67.0625 47.820313 80.0625 47.738281 89.859375 C 47.65625 99.65625 47.535156 105.214844 47.40625 105 L 43.515625 105 C 43.355469 118.082031 43.128906 119.039063 42.957031 107.351563 C 42.789063 95.667969 42.714844 74.128906 42.777344 54.445313 L 42.777344 51.410156 C 42.910156 44.332031 43.070313 44.144531 43.207031 50.90625 L 47.09375 50.90625 C 47.242188 48.617188 47.390625 52.914063 47.503906 62.65625 C 47.617188 72.394531 47.679688 86.589844 47.679688 101.460938 Z "/>
<path style=" stroke:none;fill-rule:nonzero;fill:rgb(41,164,255);fill-opacity:1;" d="M 51.761719 22.554688 C 51.398438 -2.050781 50.921875 -2.480469 50.554688 21.464844 L 19.445313 21.464844 C 19.148438 20.410156 18.863281 31.414063 18.648438 51.953125 C 18.4375 72.488281 18.316406 100.789063 18.316406 130.355469 L 18.316406 28.503906 C 18.335938 59.195313 18.59375 83.019531 18.898438 82.949219 L 21.390625 82.949219 C 21.558594 92.507813 21.765625 92.300781 21.933594 82.40625 L 21.933594 78.90625 L 48.066406 78.90625 L 48.066406 82.40625 C 48.085938 113.09375 48.34375 136.917969 48.648438 136.851563 L 51.179688 136.851563 C 51.359375 147.101563 51.582031 146.894531 51.761719 136.304688 Z "/>
<path style=" stroke:none;fill-rule:nonzero;fill:rgb(41,164,255);fill-opacity:1;" d="M 21.933594 44.023438 C 21.765625 34.128906 21.558594 33.921875 21.390625 43.476563 L 18.859375 43.476563 C 18.554688 43.410156 18.296875 67.234375 18.277344 97.921875 L 18.277344 103.871094 C 18.207031 156.347656 18.570313 204.75 19.09375 212.761719 L 32.628906 212.761719 L 32.628906 209.222656 L 21.933594 209.222656 Z "/>
<path style=" stroke:none;fill-rule:nonzero;fill:rgb(41,164,255);fill-opacity:1;" d="M 35.429688 9.179688 C 35.082031 -11.316406 34.652344 -11.746094 34.300781 8.050781 L 3.1875 8.050781 C 2.566406 8.050781 2.0625 58.542969 2.0625 120.828125 L 2.0625 15.128906 C 2.195313 21.101563 2.351563 21.253906 2.488281 15.554688 L 5.054688 15.554688 C 5.226563 25.113281 5.433594 24.90625 5.601563 15.011719 L 5.601563 11.667969 L 31.734375 11.667969 L 31.734375 15.207031 C 31.914063 25.734375 32.136719 25.867188 32.316406 15.554688 L 35 15.554688 C 35.179688 25.808594 35.402344 25.601563 35.582031 15.011719 L 35.582031 9.179688 Z "/>
<path style=" stroke:none;fill-rule:nonzero;fill:rgb(41,164,255);fill-opacity:1;" d="M 5.601563 30.644531 C 5.429688 21.472656 5.226563 21.253906 5.054688 30.0625 L -2.488281 30.0625 C -2.796875 32.113281 -3.035156 57.636719 -3.035156 88.394531 L -3.035156 36.554688 C -3.035156 37.140625 1.945313 119.3125 1.945313 119.3125 L 16.292969 119.3125 L 16.292969 34.144531 L 5.601563 34.144531 Z "/>
<path style=" stroke:none;fill-rule:nonzero;fill:rgb(47,166,255);fill-opacity:1;" d="M 30.410156 32.355469 C 30.421875 44.359375 30.382813 56.265625 30.300781 65.152344 C 30.21875 74.035156 30.105469 79.070313 29.984375 79.023438 L 26.09375 79.023438 C 25.941406 89.917969 25.738281 89.746094 25.589844 78.59375 L 25.589844 29.398438 C 25.71875 21.601563 25.882813 21.410156 26.015625 28.894531 L 29.90625 28.894531 C 30.292969 28.894531 30.488281 48.921875 80.460938 48.921875 Z M 30.410156 35.3125 C 30.410156 35 30.214844 35 29.828125 35 L 25.9375 35 C 25.816406 35.988281 25.699219 41.882813 25.621094 51.375 C 25.539063 60.867188 25.5 73.167969 25.511719 85.554688 L 25.511719 88.589844 C 25.519531 100.980469 25.578125 112.46875 25.675781 120.5 C 25.769531 128.53125 25.894531 132.441406 26.015625 131.367188 L 29.90625 131.367188 C 30.039063 138.128906 30.199219 137.941406 30.332031 130.859375 Z M 30.410156 41.222656 C 30.410156 40.949219 30.214844 40.753906 29.828125 40.753906 L 25.9375 40.753906 C 25.820313 40.707031 25.703125 45.742188 25.621094 54.628906 C 25.539063 63.511719 25.5 75.417969 25.511719 87.421875 L 25.511719 90.457031 C 25.507813 103.285156 25.566406 115.535156 25.664063 123.824219 C 25.761719 132.113281 25.890625 135.570313 26.015625 133.234375 L 29.90625 133.234375 C 30.039063 140.71875 30.203125 140.527344 30.332031 132.726563 Z M 14.078125 15.984375 C 13.902344 3.503906 13.671875 3.335938 13.496094 15.554688 L 9.605469 15.554688 C 9.480469 16.546875 9.367188 22.4375 9.285156 31.929688 C 9.207031 41.421875 9.167969 53.726563 9.179688 66.109375 L 9.179688 69.144531 C 9.433594 67.074219 9.621094 44.925781 9.605469 19.445313 L 13.496094 19.445313 C 13.628906 26.929688 13.789063 26.738281 13.921875 18.9375 Z M 14.078125 21.894531 C 14.078125 21.621094 13.882813 21.429688 13.496094 21.429688 L 9.605469 21.429688 C 9.484375 21.378906 9.371094 26.414063 9.289063 35.300781 C 9.207031 44.183594 9.167969 56.09375 9.179688 68.09375 L 9.179688 24.890625 C 9.175781 36.941406 9.226563 48.457031 9.316406 56.601563 C 9.40625 64.742188 9.523438 68.761719 9.644531 67.667969 L 13.535156 67.667969 C 13.667969 75.164063 13.828125 74.988281 13.960938 67.199219 Z M 14.078125 27.84375 C 14.078125 27.535156 13.882813 27.339844 13.496094 27.339844 L 9.605469 27.339844 C 9.480469 28.328125 9.367188 34.222656 9.285156 43.714844 C 9.207031 53.203125 9.167969 65.507813 9.179688 77.894531 L 9.179688 80.851563 C 9.179688 106.625 9.386719 127.515625 9.644531 127.515625 L 13.535156 127.515625 C 13.667969 134.277344 13.828125 134.089844 13.960938 127.011719 Z "/>
</g>
</svg>
