<?xml version="1.0" encoding="UTF-8"?>
<svg xmlns="http://www.w3.org/2000/svg" xmlns:xlink="http://www.w3.org/1999/xlink" width="70pt" height="70pt" viewBox="0 0 70 70" version="1.1">
<g id="surface1">
<path style=" stroke:none;fill-rule:nonzero;fill:rgb(47,166,255);fill-opacity:1;" d="M 42.117188 32.746094 C 42.140625 87.171875 41.726563 133.601563 41.183594 137.746094 L 33.054688 137.746094 C 32.730469 157.054688 32.328125 156.695313 32.003906 136.8125 L 32.003906 26.792969 C 32.296875 11.246094 32.644531 10.855469 32.9375 25.746094 L 41.066406 25.746094 C 41.609375 23.492188 42.074219 64.761719 42.117188 119.078125 Z "/>
<path style=" stroke:none;fill-rule:nonzero;fill:rgb(47,166,255);fill-opacity:1;" d="M 56.542969 38.890625 C 56.566406 93.316406 56.152344 139.746094 55.609375 143.890625 L 47.484375 143.890625 C 47.160156 163.199219 46.753906 162.839844 46.433594 142.957031 L 46.433594 32.976563 C 46.722656 17.429688 47.074219 17.039063 47.367188 31.929688 L 55.496094 31.929688 C 56.039063 29.675781 56.503906 70.945313 56.542969 125.261719 Z "/>
<path style=" stroke:none;fill-rule:nonzero;fill:rgb(47,166,255);fill-opacity:1;" d="M 42.117188 45.109375 C 42.140625 99.539063 41.726563 145.96875 41.183594 150.109375 L 33.054688 150.109375 C 32.730469 169.421875 32.328125 169.0625 32.003906 149.179688 L 32.003906 39.160156 C 32.296875 23.613281 32.644531 23.222656 32.9375 38.109375 L 41.066406 38.109375 C 41.609375 35.859375 42.074219 77.128906 42.117188 131.445313 Z "/>
<path style=" stroke:none;fill-rule:nonzero;fill:rgb(89,184,255);fill-opacity:1;" d="M 27.6875 26.601563 C 27.710938 78.882813 27.316406 123.574219 26.792969 127.710938 L 18.433594 127.710938 C 18.109375 147.035156 17.703125 146.691406 17.382813 126.816406 L 17.382813 20.417969 C 17.675781 4.894531 18.023438 4.53125 18.316406 19.445313 L 26.445313 19.445313 C 27.300781 19.445313 27.6875 63.464844 131.445313 63.464844 Z "/>
<path style=" stroke:none;fill-rule:nonzero;fill:rgb(47,166,255);fill-opacity:1;" d="M 27.6875 38.890625 C 27.710938 64.691406 27.628906 90.285156 27.460938 109.996094 C 27.292969 129.707031 27.050781 141.90625 26.792969 143.890625 L 18.433594 143.890625 C 18.152344 144.996094 17.878906 134.289063 17.679688 114.351563 C 17.480469 94.414063 17.371094 67.0625 17.382813 38.890625 L 17.382813 32.746094 C 17.675781 17.207031 18.023438 16.832031 18.316406 31.734375 L 26.445313 31.734375 C 27.300781 31.734375 27.6875 75.753906 127.554688 75.753906 Z "/>
<path style=" stroke:none;fill-rule:nonzero;fill:rgb(47,166,255);fill-opacity:1;" d="M 27.6875 51.292969 C 27.710938 77.097656 27.628906 102.691406 27.460938 122.402344 C 27.292969 142.113281 27.050781 154.3125 26.792969 156.292969 L 18.433594 156.292969 C 18.109375 175.605469 17.703125 175.246094 17.382813 155.359375 L 17.382813 45.109375 C 17.671875 28.886719 18.023438 28.503906 18.316406 44.101563 L 26.445313 44.101563 C 27.300781 44.101563 27.6875 49.234375 127.554688 49.234375 Z "/>
<path style=" stroke:none;fill-rule:nonzero;fill:rgb(51,168,255);fill-opacity:1;" d="M 4.160156 5.871094 L 9.179688 5.871094 L 9.179688 19.871094 C 9.179688 82.15625 8.671875 132.648438 8.050781 132.648438 L 3.070313 132.648438 C 2.449219 132.648438 1.945313 82.15625 1.945313 19.871094 L 1.945313 8.207031 C 2.625 -32.117188 3.472656 -33.003906 4.160156 5.871094 Z "/>
<path style=" stroke:none;fill-rule:nonzero;fill:rgb(51,168,255);fill-opacity:0.501961;" d="M 4.160156 5.871094 L 9.179688 5.871094 L 9.179688 19.871094 C 9.179688 82.15625 8.671875 132.648438 8.050781 132.648438 L 3.070313 132.648438 C 2.449219 132.648438 1.945313 82.15625 1.945313 19.871094 L 1.945313 8.207031 C 2.625 -32.117188 3.472656 -33.003906 4.160156 5.871094 Z "/>
<path style=" stroke:none;fill-rule:nonzero;fill:rgb(51,168,255);fill-opacity:1;" d="M 60.820313 5.871094 L 65.839844 5.871094 C 67.0625 5.871094 68.054688 105.117188 68.054688 227.539063 L 68.054688 239.207031 C 68.054688 301.492188 67.550781 351.984375 66.929688 351.984375 L 61.910156 351.984375 C 61.558594 371.78125 61.128906 371.351563 60.785156 350.855469 L 60.785156 5.871094 Z "/>
<path style=" stroke:none;fill-rule:nonzero;fill:rgb(51,168,255);fill-opacity:0.501961;" d="M 60.820313 5.871094 L 65.839844 5.871094 C 67.0625 5.871094 68.054688 105.117188 68.054688 227.539063 L 68.054688 239.207031 C 68.054688 301.492188 67.550781 351.984375 66.929688 351.984375 L 61.910156 351.984375 C 61.558594 371.78125 61.128906 371.351563 60.785156 350.855469 L 60.785156 5.871094 Z "/>
<path style=" stroke:none;fill-rule:nonzero;fill:rgb(41,164,255);fill-opacity:1;" d="M 68.054688 8.089844 L 68.054688 12.949219 L 1.945313 12.949219 L 1.945313 8.089844 C -36.96875 7.398438 -36.125 6.554688 4.160156 5.871094 L 65.878906 5.871094 C 106.152344 6.554688 106.980469 7.398438 68.054688 8.089844 Z "/>
<path style=" stroke:none;fill-rule:nonzero;fill:rgb(51,168,255);fill-opacity:1;" d="M 0 49.621094 L 8.089844 49.621094 C 8.710938 49.621094 9.214844 100.113281 9.214844 162.398438 L 9.214844 176.398438 L 4.160156 176.398438 C 3.472656 215.3125 2.625 214.46875 1.945313 174.183594 L 1.945313 50.554688 C 2.292969 30.121094 2.722656 29.765625 3.070313 49.621094 Z "/>
<path style=" stroke:none;fill-rule:nonzero;fill:rgb(51,168,255);fill-opacity:0.501961;" d="M 0 49.621094 L 8.089844 49.621094 C 8.710938 49.621094 9.214844 100.113281 9.214844 162.398438 L 9.214844 176.398438 L 4.160156 176.398438 C 3.472656 215.3125 2.625 214.46875 1.945313 174.183594 L 1.945313 50.554688 C 2.292969 30.121094 2.722656 29.765625 3.070313 49.621094 Z "/>
<path style=" stroke:none;fill-rule:nonzero;fill:rgb(51,168,255);fill-opacity:1;" d="M 61.910156 49.621094 L 66.929688 49.621094 C 67.550781 49.621094 68.054688 100.113281 68.054688 162.398438 L 68.054688 174.066406 C 68.054688 296.488281 67.0625 395.734375 65.839844 395.734375 L 60.820313 395.734375 L 60.820313 50.554688 C 61.160156 31.582031 61.570313 31.230469 61.910156 49.621094 Z "/>
<path style=" stroke:none;fill-rule:nonzero;fill:rgb(51,168,255);fill-opacity:0.501961;" d="M 61.910156 49.621094 L 66.929688 49.621094 C 67.550781 49.621094 68.054688 100.113281 68.054688 162.398438 L 68.054688 174.066406 C 68.054688 296.488281 67.0625 395.734375 65.839844 395.734375 L 60.820313 395.734375 L 60.820313 50.554688 C 61.160156 31.582031 61.570313 31.230469 61.910156 49.621094 Z "/>
<path style=" stroke:none;fill-rule:nonzero;fill:rgb(41,164,255);fill-opacity:1;" d="M 1.945313 62.535156 L 1.945313 57.671875 L 68.054688 57.671875 L 68.054688 62.535156 C 106.96875 63.222656 106.125 64.066406 65.839844 64.75 L 4.160156 64.75 C -36.125 64.066406 -36.96875 63.222656 1.945313 62.535156 Z "/>
</g>
</svg>
