<?xml version="1.0" encoding="UTF-8"?>
<svg xmlns="http://www.w3.org/2000/svg" xmlns:xlink="http://www.w3.org/1999/xlink" width="70pt" height="70pt" viewBox="0 0 70 70" version="1.1">
<defs>
<linearGradient id="linear0" gradientUnits="userSpaceOnUse" x1="9.5" y1="7.37" x2="17.5" y2="7.37" gradientTransform="matrix(3.888889,0,0,3.888889,0,0)">
<stop offset="0" style="stop-color:rgb(0%,35.686275%,63.137255%);stop-opacity:1;"/>
<stop offset="0.07" style="stop-color:rgb(0%,37.647059%,66.27451%);stop-opacity:1;"/>
<stop offset="0.36" style="stop-color:rgb(0%,44.313725%,78.431373%);stop-opacity:1;"/>
<stop offset="0.52" style="stop-color:rgb(0%,47.058824%,83.137255%);stop-opacity:1;"/>
<stop offset="1" style="stop-color:rgb(0%,35.686275%,63.137255%);stop-opacity:1;"/>
</linearGradient>
<linearGradient id="linear1" gradientUnits="userSpaceOnUse" x1="0.5" y1="7.37" x2="8.5" y2="7.37" gradientTransform="matrix(3.888889,0,0,3.888889,0,0)">
<stop offset="0" style="stop-color:rgb(0%,35.686275%,63.137255%);stop-opacity:1;"/>
<stop offset="0.07" style="stop-color:rgb(0%,37.647059%,66.27451%);stop-opacity:1;"/>
<stop offset="0.36" style="stop-color:rgb(0%,44.313725%,78.431373%);stop-opacity:1;"/>
<stop offset="0.52" style="stop-color:rgb(0%,47.058824%,83.137255%);stop-opacity:1;"/>
<stop offset="1" style="stop-color:rgb(0%,35.686275%,63.137255%);stop-opacity:1;"/>
</linearGradient>
<linearGradient id="linear2" gradientUnits="userSpaceOnUse" x1="5" y1="11.9" x2="13" y2="11.9" gradientTransform="matrix(3.888889,0,0,3.888889,0,0)">
<stop offset="0" style="stop-color:rgb(0%,35.686275%,63.137255%);stop-opacity:1;"/>
<stop offset="0.07" style="stop-color:rgb(0%,37.647059%,66.27451%);stop-opacity:1;"/>
<stop offset="0.36" style="stop-color:rgb(0%,44.313725%,78.431373%);stop-opacity:1;"/>
<stop offset="0.52" style="stop-color:rgb(0%,47.058824%,83.137255%);stop-opacity:1;"/>
<stop offset="1" style="stop-color:rgb(0%,35.686275%,63.137255%);stop-opacity:1;"/>
</linearGradient>
</defs>
<g id="surface1">
<path style=" stroke:none;fill-rule:nonzero;fill:url(#linear0);" d="M 52.5 17.964844 C 43.90625 17.964844 36.945313 15.75 36.945313 12.988281 L 36.945313 39.394531 C 36.945313 42.078125 43.789063 44.292969 52.304688 44.332031 L 52.5 44.332031 C 61.09375 44.332031 68.054688 42.117188 68.054688 39.394531 L 68.054688 12.988281 C 68.054688 15.75 61.09375 17.964844 52.5 17.964844 Z "/>
<path style=" stroke:none;fill-rule:nonzero;fill:rgb(90.980392%,90.980392%,90.980392%);fill-opacity:1;" d="M 68.054688 12.988281 C 68.054688 15.75 61.09375 17.964844 52.5 17.964844 C 43.90625 17.964844 36.945313 15.75 36.945313 12.988281 C 36.945313 10.226563 43.90625 8.050781 52.5 8.050781 C 61.09375 8.050781 68.054688 10.265625 68.054688 12.988281 "/>
<path style=" stroke:none;fill-rule:nonzero;fill:rgb(31.372549%,90.196078%,100%);fill-opacity:1;" d="M 64.4375 12.601563 C 64.4375 14.351563 59.070313 327.601563 52.5 327.601563 C 45.929688 327.601563 40.5625 326.199219 40.5625 324.449219 C 40.5625 322.699219 45.929688 321.300781 52.5 321.300781 C 59.070313 321.300781 64.4375 461.300781 64.4375 636.300781 "/>
<path style=" stroke:none;fill-rule:nonzero;fill:rgb(19.607843%,74.509804%,86.666667%);fill-opacity:1;" d="M 52.5 13.339844 C 48.511719 16.464844 45.28125 20.453125 43.050781 25.003906 C 8.6875 27.613281 -17.058594 57.589844 -14.445313 91.953125 C -11.835938 126.316406 18.136719 152.058594 52.5 149.449219 C 55.695313 149.535156 58.886719 149.117188 61.949219 148.207031 C 99.191406 145.597656 127.269531 113.289063 124.660156 76.046875 C 122.046875 38.804688 89.742188 10.730469 52.5 13.339844 Z "/>
<path style=" stroke:none;fill-rule:nonzero;fill:url(#linear1);" d="M 17.5 17.964844 C 8.90625 17.964844 1.945313 15.75 1.945313 12.988281 L 1.945313 39.394531 C 1.945313 42.078125 8.789063 44.292969 17.5 44.332031 C 26.09375 44.332031 33.054688 42.117188 33.054688 39.394531 L 33.054688 12.988281 C 33.054688 15.75 26.09375 17.964844 17.5 17.964844 Z "/>
<path style=" stroke:none;fill-rule:nonzero;fill:rgb(90.980392%,90.980392%,90.980392%);fill-opacity:1;" d="M 33.054688 12.988281 C 33.054688 15.75 26.09375 17.964844 17.5 17.964844 C 8.90625 17.964844 1.945313 15.75 1.945313 12.988281 C 1.945313 10.226563 8.90625 8.050781 17.5 8.050781 C 26.09375 8.050781 33.054688 10.265625 33.054688 12.988281 "/>
<path style=" stroke:none;fill-rule:nonzero;fill:rgb(31.372549%,90.196078%,100%);fill-opacity:1;" d="M 29.4375 12.601563 C 29.4375 14.351563 24.070313 327.601563 17.5 327.601563 C 10.929688 327.601563 5.5625 326.199219 5.5625 324.449219 C 5.5625 322.699219 10.929688 321.300781 17.5 321.300781 C 24.070313 321.300781 29.4375 461.300781 29.4375 636.300781 "/>
<path style=" stroke:none;fill-rule:nonzero;fill:rgb(19.607843%,74.509804%,86.666667%);fill-opacity:1;" d="M 17.5 13.339844 C 13.511719 16.464844 10.28125 20.453125 8.050781 25.003906 C -26.3125 27.613281 -52.058594 57.589844 -49.445313 91.953125 C -46.835938 126.316406 -16.863281 152.058594 17.5 149.449219 C 20.695313 149.535156 23.886719 149.117188 26.949219 148.207031 C 64.191406 145.597656 92.269531 113.289063 89.660156 76.046875 C 87.046875 38.804688 54.742188 10.730469 17.5 13.339844 Z "/>
<path style=" stroke:none;fill-rule:nonzero;fill:url(#linear2);" d="M 35 35.582031 C 26.40625 35.582031 19.445313 33.367188 19.445313 30.605469 L 19.445313 57.011719 C 19.445313 59.734375 26.289063 61.910156 34.804688 61.949219 L 35 61.949219 C 43.59375 61.949219 50.554688 59.734375 50.554688 57.011719 L 50.554688 30.605469 C 50.554688 33.367188 43.59375 35.582031 35 35.582031 Z "/>
<path style=" stroke:none;fill-rule:nonzero;fill:rgb(90.980392%,90.980392%,90.980392%);fill-opacity:1;" d="M 50.554688 30.605469 C 50.554688 33.367188 43.59375 35.582031 35 35.582031 C 26.40625 35.582031 19.445313 33.367188 19.445313 30.605469 C 19.445313 27.84375 26.40625 25.667969 35 25.667969 C 43.59375 25.667969 50.554688 27.882813 50.554688 30.605469 "/>
<path style=" stroke:none;fill-rule:nonzero;fill:rgb(31.372549%,90.196078%,100%);fill-opacity:1;" d="M 46.9375 30.214844 C 46.9375 31.964844 41.570313 345.214844 35 345.214844 C 28.429688 345.214844 23.0625 343.816406 23.0625 342.066406 C 23.0625 340.316406 28.429688 27.222656 35 27.222656 C 41.570313 27.222656 46.9375 167.222656 46.9375 342.222656 "/>
<path style=" stroke:none;fill-rule:nonzero;fill:rgb(19.607843%,74.509804%,86.666667%);fill-opacity:1;" d="M 35 31.109375 C 31.011719 34.238281 27.78125 38.226563 25.550781 42.777344 C 29.359375 40.378906 32.585938 37.164063 35 33.367188 C 38.195313 33.453125 41.386719 33.03125 44.449219 32.121094 C 41.363281 31.339844 38.183594 31 35 31.109375 Z "/>
</g>
</svg>
