<?xml version="1.0" encoding="UTF-8"?>
<svg xmlns="http://www.w3.org/2000/svg" xmlns:xlink="http://www.w3.org/1999/xlink" width="70pt" height="70pt" viewBox="0 0 70 70" version="1.1">
<defs>
<linearGradient id="linear0" gradientUnits="userSpaceOnUse" x1="2.59" y1="10.16" x2="15.41" y2="10.16" gradientTransform="matrix(3.888889,0,0,3.888889,0,0)">
<stop offset="0" style="stop-color:rgb(0%,35.686275%,63.137255%);stop-opacity:1;"/>
<stop offset="0.07" style="stop-color:rgb(0%,37.647059%,66.27451%);stop-opacity:1;"/>
<stop offset="0.36" style="stop-color:rgb(0%,44.313725%,78.431373%);stop-opacity:1;"/>
<stop offset="0.52" style="stop-color:rgb(0%,47.058824%,83.137255%);stop-opacity:1;"/>
<stop offset="0.64" style="stop-color:rgb(0%,45.490196%,80.392157%);stop-opacity:1;"/>
<stop offset="0.82" style="stop-color:rgb(0%,41.568627%,73.333333%);stop-opacity:1;"/>
<stop offset="1" style="stop-color:rgb(0%,35.686275%,63.137255%);stop-opacity:1;"/>
</linearGradient>
</defs>
<g id="surface1">
<path style=" stroke:none;fill-rule:nonzero;fill:url(#linear0);" d="M 35 19.988281 C 21.234375 19.988281 10.070313 16.101563 10.070313 10.964844 L 10.070313 59.035156 C 10.070313 63.972656 21.039063 67.976563 34.648438 68.054688 L 35 68.054688 C 48.765625 68.054688 59.929688 64.167969 59.929688 59.035156 L 59.929688 10.964844 C 59.929688 15.984375 48.765625 19.988281 35 19.988281 Z "/>
<path style=" stroke:none;fill-rule:nonzero;fill:rgb(90.980392%,90.980392%,90.980392%);fill-opacity:1;" d="M 59.929688 10.964844 C 59.929688 15.984375 48.765625 19.988281 35 19.988281 C 21.234375 19.988281 10.070313 16.101563 10.070313 10.964844 C 10.070313 5.832031 21.234375 19.445313 35 1.945313 C 48.765625 -15.554688 59.929688 5.832031 59.929688 10.964844 "/>
<path style=" stroke:none;fill-rule:nonzero;fill:rgb(31.372549%,90.196078%,100%);fill-opacity:1;" d="M 54.132813 10.226563 C 54.132813 13.417969 45.539063 15.984375 35 15.984375 C 24.460938 15.984375 15.867188 13.417969 15.867188 10.226563 C 15.867188 7.039063 24.460938 4.511719 35 4.511719 C 45.539063 4.511719 54.132813 261.179688 54.132813 10.226563 "/>
<path style=" stroke:none;fill-rule:nonzero;fill:rgb(9.803922%,54.117647%,70.196078%);fill-opacity:1;" d="M 35 11.667969 C -26.210938 7.488281 -79.21875 53.722656 -83.398438 114.9375 C -87.574219 176.148438 -41.339844 229.15625 19.871094 233.332031 C 79.890625 237.511719 131.933594 192.242188 136.109375 132.222656 C 140.289063 72.203125 95.019531 20.160156 35 15.984375 C 40.136719 16.132813 45.257813 15.371094 50.128906 13.726563 C 45.234375 12.203125 40.121094 11.507813 35 11.667969 Z "/>
<path style=" stroke:none;fill-rule:nonzero;fill:rgb(94.901961%,94.901961%,94.901961%);fill-opacity:1;" d="M 55.417969 24.578125 C 54.132813 24.578125 55.648438 121.800781 51.101563 36.246094 C 46.550781 -49.3125 44.957031 30.605469 42 34.535156 C 38.859375 37.652344 34.738281 39.589844 30.332031 40.015625 C 27.371094 40.972656 24.804688 42.871094 23.023438 45.421875 L 225.246094 45.421875 C 21.972656 45.421875 19.679688 76.535156 19.679688 76.535156 C -6.09375 75.769531 -27.605469 96.046875 -28.371094 121.820313 C -29.132813 147.59375 -8.855469 169.105469 16.917969 169.867188 C 17.226563 301.078125 93.683594 243.753906 93.683594 243.753906 C 144.15625 244.3125 184.621094 285.683594 184.0625 336.15625 C 183.503906 386.628906 142.132813 427.089844 91.660156 426.535156 C 92.933594 426.832031 94.253906 426.898438 95.550781 426.726563 C 97.222656 426.726563 98.503906 425.132813 101.578125 423.460938 C 104.648438 421.789063 111.726563 423.460938 112.855469 423.460938 C 113.984375 423.460938 115.65625 420.503906 431.746094 419.570313 C 431.433594 629.570313 428.554688 427.351563 428.554688 427.351563 C 431.210938 427.175781 433.617188 425.726563 435.011719 423.460938 C 434.699219 423.070313 563.34375 421.050781 575.011719 421.246094 C 586.679688 421.4375 574.390625 495.949219 641.121094 495.949219 C 641.480469 495.632813 641.804688 495.28125 642.09375 494.898438 C 644.144531 491.980469 645.644531 488.710938 646.527344 485.253906 C 50.554688 35 50.554688 31.617188 52.890625 30.214844 C 55.222656 28.816406 55.535156 27.535156 317.332031 27.417969 L 317.332031 27.222656 C 316.757813 26.851563 316.246094 26.394531 315.816406 25.859375 L 315.390625 328.300781 L 315.816406 25.859375 C 315.816406 24.5 56.699219 24.578125 55.417969 24.578125 Z M 50.554688 28.699219 L 50.320313 28.699219 C 49.953125 45.578125 49.527344 45.464844 49.15625 28.390625 L 47.988281 28.390625 C 49.578125 25.367188 50.148438 25.496094 50.554688 28.699219 Z M 52.734375 28.699219 C 53.070313 27.898438 53.5 27.144531 54.015625 26.445313 C 53.472656 27.195313 53.015625 28.003906 52.65625 28.855469 Z M 54.132813 26.714844 C -0.636719 26.628906 -45.101563 70.960938 -45.1875 125.726563 C -45.273438 180.496094 -0.945313 224.964844 53.820313 225.050781 C 53.765625 224.558594 53.765625 224.0625 53.820313 223.570313 C 11.941406 223.402344 -22.152344 257.210938 -22.320313 299.09375 C -22.492188 340.976563 11.320313 375.066406 53.199219 375.238281 C -43 375.003906 -120.792969 296.828125 -120.554688 200.628906 C -120.320313 104.429688 -42.144531 26.636719 54.054688 26.871094 Z "/>
<path style=" stroke:none;fill-rule:nonzero;fill:rgb(94.901961%,94.901961%,94.901961%);fill-opacity:1;" d="M 47.484375 44.800781 C 47.484375 44.800781 45.578125 223.6875 45.5 288.011719 C 45.421875 352.332031 208.40625 412.457031 45.5 412.457031 C -56.023438 411.90625 -137.882813 329.160156 -137.335938 227.636719 C -136.789063 126.109375 -54.042969 44.253906 47.484375 44.800781 Z "/>
</g>
</svg>
