<?xml version="1.0" encoding="UTF-8"?>
<svg xmlns="http://www.w3.org/2000/svg" xmlns:xlink="http://www.w3.org/1999/xlink" width="70pt" height="70pt" viewBox="0 0 70 70" version="1.1">
<defs>
<linearGradient id="linear0" gradientUnits="userSpaceOnUse" x1="5.41" y1="17.33" x2="5.41" y2="4.61" gradientTransform="matrix(3.888889,0,0,3.888889,0,0)">
<stop offset="0" style="stop-color:rgb(58.039216%,58.039216%,58.039216%);stop-opacity:1;"/>
<stop offset="0.53" style="stop-color:rgb(63.529412%,63.529412%,63.529412%);stop-opacity:1;"/>
<stop offset="1" style="stop-color:rgb(70.196078%,70.196078%,70.196078%);stop-opacity:1;"/>
</linearGradient>
<linearGradient id="linear1" gradientUnits="userSpaceOnUse" x1="10.04" y1="-1347.39" x2="10.04" y2="-1336.82" gradientTransform="matrix(3.888889,0,0,-3.888889,0,-5172.222222)">
<stop offset="0" style="stop-color:rgb(0%,47.058824%,83.137255%);stop-opacity:1;"/>
<stop offset="0.16" style="stop-color:rgb(7.45098%,50.196078%,85.490196%);stop-opacity:1;"/>
<stop offset="0.53" style="stop-color:rgb(23.529412%,56.862745%,89.803922%);stop-opacity:1;"/>
<stop offset="0.82" style="stop-color:rgb(33.333333%,61.176471%,92.54902%);stop-opacity:1;"/>
<stop offset="1" style="stop-color:rgb(36.862745%,62.745098%,93.72549%);stop-opacity:1;"/>
</linearGradient>
</defs>
<g id="surface1">
<path style=" stroke:none;fill-rule:nonzero;fill:rgb(46.666667%,46.666667%,46.666667%);fill-opacity:1;" d="M 55.6875 49.621094 C 55.648438 170.339844 54.679688 267.261719 53.472656 271.289063 L 19.714844 271.289063 C 19.027344 310.203125 18.183594 309.355469 17.5 269.070313 L 17.5 4.589844 C 18.101563 4.359375 18.675781 29.445313 19.082031 73.710938 C 19.488281 117.972656 19.691406 177.324219 19.640625 237.222656 L 53.472656 237.222656 C 54.695313 237.222656 55.6875 336.464844 55.6875 458.890625 Z "/>
<path style=" stroke:none;fill-rule:nonzero;fill:rgb(60%,60%,60%);fill-opacity:1;" d="M 47.910156 57.398438 C 47.871094 178.117188 46.902344 275.039063 45.695313 279.066406 L 11.9375 279.066406 C 11.25 317.980469 10.402344 317.136719 9.722656 276.851563 L 9.722656 12.367188 C 10.378906 -26.527344 11.195313 -27.375 11.859375 10.148438 L 45.695313 10.148438 C 46.917969 10.148438 47.910156 109.394531 47.910156 231.816406 Z "/>
<path style=" stroke:none;fill-rule:nonzero;fill:url(#linear0);" d="M 40.132813 65.179688 C 40.09375 185.894531 39.125 282.816406 37.917969 286.84375 L 4.160156 286.84375 C 3.46875 324.96875 2.628906 324.128906 1.945313 284.628906 L 1.945313 20.144531 C 2.601563 -18.75 3.417969 -19.597656 4.082031 17.929688 L 37.917969 17.929688 C 39.140625 17.929688 40.132813 117.171875 40.132813 239.59375 Z "/>
<path style=" stroke:none;fill-rule:nonzero;fill:rgb(0%,18.823529%,40.392157%);fill-opacity:1;" d="M 7.542969 28.429688 C 7.535156 27.328125 7.964844 26.269531 8.738281 25.488281 C 9.511719 24.707031 10.566406 24.265625 11.667969 24.265625 L 30.722656 24.265625 C 32.960938 24.199219 34.855469 25.917969 35 28.15625 C 35.054688 29.304688 34.632813 30.421875 33.839844 31.25 C 33.046875 32.082031 31.949219 32.550781 30.800781 32.550781 L 11.667969 32.550781 C 9.40625 32.507813 7.585938 30.6875 7.542969 28.429688 Z "/>
<path style=" stroke:none;fill-rule:nonzero;fill:rgb(31.372549%,90.196078%,100%);fill-opacity:1;" d="M 14.699219 28.429688 C 14.699219 29.972656 13.445313 31.226563 11.898438 31.226563 C 10.355469 31.226563 9.101563 29.972656 9.101563 28.429688 C 9.101563 26.882813 10.355469 25.628906 11.898438 25.628906 C 13.445313 25.628906 14.699219 26.882813 14.699219 28.429688 Z "/>
<path style=" stroke:none;fill-rule:nonzero;fill:url(#linear1);" d="M 68.054688 54.753906 C 67.863281 48.371094 63.070313 43.070313 56.738281 42.234375 C 56.296875 33.296875 48.765625 26.371094 39.820313 26.679688 C 32.703125 26.496094 26.246094 30.832031 23.722656 37.488281 C 16.085938 38.410156 10.265625 44.773438 10.035156 52.460938 C 10.371094 61.152344 17.675781 67.933594 26.367188 67.628906 L 55.105469 67.628906 C 62.183594 67.523438 67.910156 61.832031 68.054688 54.753906 Z "/>
<path style=" stroke:none;fill-rule:nonzero;fill:rgb(94.901961%,94.901961%,94.901961%);fill-opacity:1;" d="M 52.929688 56.195313 L 52.929688 43.128906 L 49.3125 43.128906 L 49.3125 59.148438 L 58.839844 59.148438 L 58.839844 56.195313 Z M 25.316406 49.777344 C 24.613281 49.453125 23.949219 49.046875 23.332031 48.570313 C 23.179688 50.152344 23.019531 49.734375 22.867188 47.328125 L 21.699219 294.777344 L 29.398438 53.859375 L 22.867188 43.984375 C 21.617188 43.554688 20.296875 43.359375 18.976563 43.398438 C -16.460938 42.230469 -46.136719 70.007813 -47.308594 105.445313 C -48.480469 140.886719 -20.699219 170.5625 14.738281 171.734375 C -80.835938 171.292969 -158.671875 248.414063 -159.113281 343.992188 C -159.554688 439.566406 -82.429688 517.402344 13.144531 517.84375 C 13.285156 520.003906 14.734375 521.859375 16.800781 522.511719 C 55.910156 521.855469 88.148438 553.03125 88.804688 592.140625 C 89.457031 631.253906 58.28125 663.488281 19.171875 664.144531 L 144.898438 792.476563 L 322.503906 664.144531 C -149.050781 664.070313 -285.363281 527.636719 -285.289063 359.410156 C -285.214844 191.1875 -148.78125 54.875 19.445313 54.949219 L 19.445313 58.527344 C 20.65625 59.117188 21.984375 59.421875 23.332031 59.421875 C 24.902344 59.535156 26.464844 59.15625 27.804688 58.332031 C 28.921875 57.511719 29.550781 56.179688 29.476563 54.792969 C 29.515625 53.796875 29.167969 52.820313 28.503906 52.070313 C 27.628906 51.078125 26.539063 50.292969 25.316406 49.777344 Z M 45.382813 55.921875 C 46.269531 54.445313 46.714844 52.746094 46.667969 51.023438 C 46.722656 49.511719 46.386719 48.011719 45.695313 46.667969 C 45.113281 45.457031 44.175781 44.453125 43.011719 43.789063 C 41.765625 43.050781 40.332031 42.699219 38.890625 42.777344 C 37.707031 42.082031 36.371094 41.695313 35 41.648438 C -47.6875 40.867188 -115.359375 107.261719 -116.140625 189.953125 C -116.925781 272.640625 -50.527344 340.308594 32.160156 341.09375 C 112.175781 340.804688 176.804688 275.703125 176.515625 195.6875 C 176.226563 115.671875 111.125 51.042969 31.109375 51.332031 C 31.089844 52.75 31.410156 54.148438 32.042969 55.417969 C -47.421875 56.148438 -111.253906 121.160156 -110.523438 200.628906 C -109.792969 280.09375 -44.777344 343.925781 34.6875 343.195313 C 35.867188 343.894531 37.207031 344.285156 38.578125 344.320313 L 41.882813 348.210938 L 46.667969 348.210938 L 42.039063 343.933594 C 121.570313 344.855469 186.792969 281.132813 187.714844 201.601563 C 188.640625 122.066406 124.914063 56.847656 45.382813 55.921875 Z M 41.765625 54.949219 C 41.058594 145.921875 39.960938 197.796875 38.8125 194.640625 L 37.410156 200.472656 L 34.921875 200.199219 L 34.921875 191.023438 L 37.371094 536.355469 L 44.566406 200.394531 C 0.238281 193.824219 -30.371094 161.890625 -29.554688 123.316406 C -28.738281 84.742188 3.191406 54.132813 41.765625 54.949219 Z "/>
</g>
</svg>
