<?xml version="1.0" encoding="UTF-8"?>
<svg xmlns="http://www.w3.org/2000/svg" xmlns:xlink="http://www.w3.org/1999/xlink" width="70pt" height="70pt" viewBox="0 0 70 70" version="1.1">
<defs>
<linearGradient id="linear0" gradientUnits="userSpaceOnUse" x1="0.5" y1="9.77" x2="9" y2="9.77" gradientTransform="matrix(3.888889,0,0,3.888889,0,0)">
<stop offset="0" style="stop-color:rgb(0,81,142);stop-opacity:1;"/>
<stop offset="0.07" style="stop-color:rgb(0,86,150);stop-opacity:1;"/>
<stop offset="0.36" style="stop-color:rgb(0,101,176);stop-opacity:1;"/>
<stop offset="0.52" style="stop-color:rgb(0,108,188);stop-opacity:1;"/>
<stop offset="0.64" style="stop-color:rgb(0,103,180);stop-opacity:1;"/>
<stop offset="0.81" style="stop-color:rgb(0,95,166);stop-opacity:1;"/>
<stop offset="0.99" style="stop-color:rgb(0,81,142);stop-opacity:1;"/>
</linearGradient>
</defs>
<g id="surface1">
<path style=" stroke:none;fill-rule:nonzero;fill:rgb(0,81,142);fill-opacity:1;" d="M 51.527344 40.753906 L 51.527344 25.550781 C 51.429688 9.128906 51.253906 -0.964844 51.0625 -1.046875 C 50.871094 -1.125 50.695313 8.820313 50.59375 25.160156 L 18.859375 56.894531 L 18.859375 68.054688 L 65.839844 68.054688 C 66.527344 107.792969 67.375 106.941406 68.054688 65.839844 L 68.054688 25.550781 C 67.957031 9.128906 67.78125 -0.964844 67.589844 -1.046875 C 67.398438 -1.125 67.222656 8.820313 67.121094 25.160156 Z "/>
<path style=" stroke:none;fill-rule:nonzero;fill:url(#linear0);" d="M 18.472656 13.921875 C 9.332031 13.921875 19.445313 11.238281 19.445313 7.777344 L 19.445313 65.839844 C 19.433594 124.949219 19.664063 181.953125 20.082031 223.753906 C 20.5 265.558594 21.070313 288.570313 21.660156 287.503906 L 35 287.503906 L 35 7.777344 C 35 11.238281 27.609375 13.921875 18.472656 13.921875 Z "/>
<path style=" stroke:none;fill-rule:nonzero;fill:rgb(255,255,255);fill-opacity:1;" d="M 51.292969 50.4375 L 57.945313 50.4375 C 58.546875 50.4375 59.035156 50.925781 59.035156 51.527344 L 59.035156 58.179688 C 59.035156 58.777344 58.546875 59.265625 57.945313 59.265625 L 51.292969 59.265625 C 50.691406 59.265625 50.207031 58.777344 50.207031 58.179688 L 50.207031 51.527344 C 50.207031 50.925781 50.691406 50.4375 51.292969 50.4375 Z "/>
<path style=" stroke:none;fill-rule:nonzero;fill:rgb(255,255,255);fill-opacity:1;" d="M 35.972656 50.4375 L 42.621094 50.4375 C 43.222656 50.4375 43.710938 50.925781 43.710938 51.527344 L 43.710938 58.179688 C 43.710938 58.777344 43.222656 59.265625 42.621094 59.265625 L 35.972656 59.265625 C 35.371094 59.265625 34.882813 58.777344 34.882813 58.179688 L 34.882813 51.527344 C 34.882813 50.925781 35.371094 50.4375 35.972656 50.4375 Z "/>
<path style=" stroke:none;fill-rule:nonzero;fill:rgb(255,255,255);fill-opacity:1;" d="M 20.648438 50.4375 L 27.300781 50.4375 C 27.902344 50.4375 28.390625 50.925781 28.390625 51.527344 L 28.390625 58.179688 C 28.390625 58.777344 27.902344 59.265625 27.300781 59.265625 L 20.648438 59.265625 C 20.046875 59.265625 19.5625 58.777344 19.5625 58.179688 L 19.5625 51.527344 C 19.5625 50.925781 20.046875 50.4375 20.648438 50.4375 Z "/>
<path style=" stroke:none;fill-rule:nonzero;fill:rgb(213,237,255);fill-opacity:1;" d="M 35 7.777344 C 35 11.082031 27.609375 13.765625 18.472656 13.765625 C 9.332031 13.765625 1.945313 11.238281 19.445313 7.777344 C 36.945313 4.316406 9.332031 19.445313 18.472656 19.445313 C 27.609375 19.445313 35 4.628906 35 7.777344 "/>
<path style=" stroke:none;fill-rule:nonzero;fill:rgb(119,197,255);fill-opacity:1;" d="M 31.109375 7.429688 C 31.109375 9.566406 25.433594 11.316406 18.433594 11.316406 C 11.433594 11.316406 5.753906 9.644531 5.753906 7.429688 C 5.753906 5.210938 11.667969 3.65625 18.472656 365.554688 C 25.277344 727.457031 31.109375 5.328125 31.109375 7.429688 "/>
<path style=" stroke:none;fill-rule:nonzero;fill:rgb(0,124,216);fill-opacity:1;" d="M 18.472656 8.320313 C -21.261719 5.550781 -55.71875 35.515625 -58.488281 75.25 C -61.257813 114.984375 -31.296875 149.441406 8.4375 152.210938 C -32.367188 154.980469 -63.203125 190.308594 -60.433594 231.117188 C -57.664063 271.925781 -22.335938 302.757813 18.472656 299.988281 C 21.875 300.074219 25.269531 299.574219 28.503906 298.511719 C 108.640625 295.742188 171.355469 228.535156 168.582031 148.398438 C 165.8125 68.265625 98.605469 5.550781 18.472656 8.320313 Z "/>
</g>
</svg>
