<?xml version="1.0" encoding="UTF-8"?>
<svg xmlns="http://www.w3.org/2000/svg" xmlns:xlink="http://www.w3.org/1999/xlink" width="70pt" height="70pt" viewBox="0 0 70 70" version="1.1">
<defs>
<linearGradient id="linear0" gradientUnits="userSpaceOnUse" x1="-3071.86" y1="6711.69" x2="-3071.86" y2="6747.69" gradientTransform="matrix(1.924902,0.000000000000000206,0.000000000000000206,-1.924902,6008.402161,13121.307348)">
<stop offset="0" style="stop-color:rgb(0%,35.686275%,63.137255%);stop-opacity:1;"/>
<stop offset="0.1" style="stop-color:rgb(0%,37.647059%,66.27451%);stop-opacity:1;"/>
<stop offset="0.52" style="stop-color:rgb(0%,44.313725%,78.431373%);stop-opacity:1;"/>
<stop offset="0.75" style="stop-color:rgb(0%,47.058824%,83.137255%);stop-opacity:1;"/>
</linearGradient>
</defs>
<g id="surface1">
<path style=" stroke:none;fill-rule:nonzero;fill:url(#linear0);" d="M 0.699219 33.324219 L 33.316406 0.710938 C 34.242188 -0.21875 35.742188 -0.21875 36.667969 0.710938 L 69.28125 33.324219 C 70.210938 34.25 70.210938 35.75 69.28125 36.675781 L 36.667969 69.289063 C 35.742188 70.21875 34.242188 70.21875 33.316406 69.289063 L 0.699219 36.675781 C -0.226563 35.75 -0.226563 34.25 0.699219 33.324219 Z "/>
<path style=" stroke:none;fill-rule:nonzero;fill:rgb(31.372549%,90.196078%,100%);fill-opacity:1;" d="M 35 13.261719 C 31.304688 13.261719 28.351563 12.328125 28.351563 11.121094 L 28.351563 22.4375 C 28.351563 23.566406 322.117188 28.972656 238.351563 28.972656 L 35 28.972656 C 38.65625 28.972656 41.648438 28.039063 41.648438 26.871094 L 41.648438 11.121094 C 41.6875 12.328125 38.890625 13.261719 35 13.261719 Z "/>
<path style=" stroke:none;fill-rule:nonzero;fill:rgb(91.764706%,91.764706%,91.764706%);fill-opacity:1;" d="M 41.6875 11.121094 C 41.6875 12.328125 38.695313 225.011719 35.039063 225.011719 C 31.382813 225.011719 28.390625 12.328125 28.390625 11.121094 C 28.390625 9.917969 31.34375 9.023438 35 9.023438 C 38.65625 9.023438 41.648438 102.355469 41.648438 219.023438 "/>
<path style=" stroke:none;fill-rule:nonzero;fill:rgb(31.372549%,90.196078%,100%);fill-opacity:1;" d="M 40.132813 10.964844 C 40.132813 11.707031 37.839844 147.078125 35.039063 147.078125 C 32.238281 147.078125 29.945313 11.667969 29.945313 10.964844 C 29.945313 10.265625 32.199219 9.605469 35 9.605469 C 37.800781 9.605469 40.09375 71.828125 40.09375 145.714844 "/>
<path style=" stroke:none;fill-rule:nonzero;fill:rgb(19.607843%,74.509804%,86.666667%);fill-opacity:1;" d="M 35 11.277344 C 33.691406 11.222656 32.382813 11.355469 31.109375 11.667969 C 32.375 12.035156 33.683594 12.21875 35 12.210938 C 36.316406 12.21875 37.625 12.035156 38.890625 11.667969 C 37.617188 11.355469 36.308594 11.226563 35 11.277344 Z "/>
<path style=" stroke:none;fill-rule:nonzero;fill:rgb(31.372549%,90.196078%,100%);fill-opacity:1;" d="M 35 49.855469 C 31.304688 49.855469 28.351563 48.921875 28.351563 47.714844 L 28.351563 59.035156 C 28.351563 60.160156 322.117188 65.566406 238.351563 65.566406 L 35 65.566406 C 38.65625 65.566406 41.648438 64.632813 41.648438 63.464844 L 41.648438 47.714844 C 41.6875 48.921875 38.890625 49.855469 35 49.855469 Z "/>
<path style=" stroke:none;fill-rule:nonzero;fill:rgb(91.764706%,91.764706%,91.764706%);fill-opacity:1;" d="M 41.6875 47.714844 C 41.6875 48.921875 38.695313 261.605469 35.039063 261.605469 C 31.382813 261.605469 28.390625 260.671875 28.390625 259.464844 C 28.390625 258.261719 323.945313 257.367188 35.039063 257.367188 C -253.867188 257.367188 41.6875 350.699219 41.6875 467.367188 "/>
<path style=" stroke:none;fill-rule:nonzero;fill:rgb(31.372549%,90.196078%,100%);fill-opacity:1;" d="M 40.132813 47.5625 C 40.132813 48.300781 37.839844 183.671875 35.039063 183.671875 C 32.238281 183.671875 29.945313 183.050781 29.945313 182.3125 C 29.945313 181.570313 255.5 180.949219 35.039063 180.949219 C -185.421875 180.949219 40.132813 243.171875 40.132813 317.0625 "/>
<path style=" stroke:none;fill-rule:nonzero;fill:rgb(19.607843%,74.509804%,86.666667%);fill-opacity:1;" d="M 35 47.871094 C 33.734375 47.519531 32.425781 47.351563 31.109375 47.367188 C 32.375 47.734375 33.683594 47.917969 35 47.910156 C 36.316406 47.917969 37.625 47.734375 38.890625 47.367188 C 37.574219 47.351563 36.265625 47.523438 35 47.871094 Z "/>
<path style=" stroke:none;fill-rule:nonzero;fill:rgb(31.372549%,90.196078%,100%);fill-opacity:1;" d="M 51.410156 31.460938 C 47.523438 31.460938 44.761719 30.527344 44.761719 29.359375 L 44.761719 40.640625 C 44.761719 41.804688 338.527344 47.210938 258.648438 47.210938 C 262.304688 47.210938 265.300781 46.238281 265.300781 45.070313 L 265.300781 29.359375 C 58.0625 30.527344 55.066406 31.460938 51.410156 31.460938 Z "/>
<path style=" stroke:none;fill-rule:nonzero;fill:rgb(91.764706%,91.764706%,91.764706%);fill-opacity:1;" d="M 58.0625 29.359375 C 58.0625 30.527344 55.066406 239.359375 51.410156 239.359375 C 47.753906 239.359375 44.761719 238.429688 44.761719 237.261719 C 44.761719 236.09375 47.714844 27.222656 51.410156 27.222656 C 55.105469 27.222656 58.0625 124.445313 58.0625 241.109375 "/>
<path style=" stroke:none;fill-rule:nonzero;fill:rgb(31.372549%,90.196078%,100%);fill-opacity:1;" d="M 56.503906 29.167969 C 56.503906 29.945313 54.210938 165.277344 51.410156 165.277344 C 48.609375 165.277344 46.316406 164.695313 46.316406 163.917969 C 46.316406 163.140625 271.871094 162.59375 51.410156 162.59375 C -169.050781 162.59375 56.503906 220.929688 56.503906 294.816406 "/>
<path style=" stroke:none;fill-rule:nonzero;fill:rgb(19.607843%,74.509804%,86.666667%);fill-opacity:1;" d="M 51.410156 29.476563 C 50.148438 29.109375 48.839844 28.925781 47.523438 28.933594 C 48.789063 29.285156 50.097656 29.457031 51.410156 29.4375 C 52.726563 29.457031 54.035156 29.285156 55.300781 28.933594 C 53.984375 28.929688 52.675781 29.113281 51.410156 29.476563 Z "/>
<path style=" stroke:none;fill-rule:nonzero;fill:rgb(31.372549%,90.196078%,100%);fill-opacity:1;" d="M 19.132813 31.460938 C 15.4375 31.460938 12.484375 30.527344 12.484375 29.359375 L 12.484375 40.640625 C 12.484375 41.804688 306.25 47.171875 226.371094 47.171875 C 230.027344 47.171875 233.023438 46.199219 233.023438 45.035156 L 233.023438 29.359375 C 25.785156 30.527344 22.789063 31.460938 19.132813 31.460938 Z "/>
<path style=" stroke:none;fill-rule:nonzero;fill:rgb(91.764706%,91.764706%,91.764706%);fill-opacity:1;" d="M 25.785156 29.359375 C 25.785156 30.527344 22.789063 239.359375 19.132813 239.359375 C 15.476563 239.359375 12.484375 238.429688 12.484375 237.261719 C 12.484375 236.09375 15.554688 27.222656 19.132813 27.222656 C 22.710938 27.222656 25.785156 124.445313 25.785156 241.109375 "/>
<path style=" stroke:none;fill-rule:nonzero;fill:rgb(31.372549%,90.196078%,100%);fill-opacity:1;" d="M 24.226563 29.167969 C 24.226563 29.945313 21.933594 165.277344 19.132813 165.277344 C 16.332031 165.277344 14.039063 29.945313 14.039063 29.167969 C 14.039063 28.390625 16.292969 27.84375 19.132813 27.84375 C 21.972656 27.84375 24.226563 86.179688 24.226563 160.066406 "/>
<path style=" stroke:none;fill-rule:nonzero;fill:rgb(19.607843%,74.509804%,86.666667%);fill-opacity:1;" d="M 19.132813 29.476563 C 17.871094 29.109375 16.558594 28.925781 15.246094 28.933594 C 16.511719 29.285156 17.820313 29.457031 19.132813 29.4375 C 20.445313 29.457031 21.757813 29.285156 23.023438 28.933594 C 21.707031 28.929688 20.398438 29.113281 19.132813 29.476563 Z "/>
</g>
</svg>
