<?xml version="1.0" encoding="UTF-8"?>
<svg xmlns="http://www.w3.org/2000/svg" xmlns:xlink="http://www.w3.org/1999/xlink" width="70pt" height="70pt" viewBox="0 0 70 70" version="1.1">
<defs>
<linearGradient id="linear0" gradientUnits="userSpaceOnUse" x1="9" y1="11.84" x2="9" y2="0" gradientTransform="matrix(3.888889,0,0,3.888889,0,0)">
<stop offset="0" style="stop-color:rgb(0%,47.058824%,83.137255%);stop-opacity:1;"/>
<stop offset="0.16" style="stop-color:rgb(7.45098%,50.196078%,85.490196%);stop-opacity:1;"/>
<stop offset="0.53" style="stop-color:rgb(23.529412%,56.862745%,89.803922%);stop-opacity:1;"/>
<stop offset="0.82" style="stop-color:rgb(33.333333%,61.176471%,92.54902%);stop-opacity:1;"/>
<stop offset="1" style="stop-color:rgb(36.862745%,62.745098%,93.72549%);stop-opacity:1;"/>
</linearGradient>
<linearGradient id="linear1" gradientUnits="userSpaceOnUse" x1="4.62" y1="13.54" x2="13.47" y2="13.54" gradientTransform="matrix(3.888889,0,0,3.888889,0,0)">
<stop offset="0" style="stop-color:rgb(19.607843%,74.509804%,86.666667%);stop-opacity:1;"/>
<stop offset="0.06" style="stop-color:rgb(21.568627%,77.254902%,89.019608%);stop-opacity:1;"/>
<stop offset="0.3" style="stop-color:rgb(28.627451%,86.666667%,96.862745%);stop-opacity:1;"/>
<stop offset="0.45" style="stop-color:rgb(31.372549%,90.196078%,100%);stop-opacity:1;"/>
<stop offset="0.55" style="stop-color:rgb(31.372549%,90.196078%,100%);stop-opacity:1;"/>
<stop offset="0.7" style="stop-color:rgb(28.627451%,86.666667%,96.862745%);stop-opacity:1;"/>
<stop offset="0.94" style="stop-color:rgb(21.568627%,77.254902%,89.019608%);stop-opacity:1;"/>
<stop offset="1" style="stop-color:rgb(19.607843%,74.509804%,86.666667%);stop-opacity:1;"/>
</linearGradient>
</defs>
<g id="surface1">
<path style=" stroke:none;fill-rule:nonzero;fill:url(#linear0);" d="M 67.472656 31.617188 C 67.265625 24.480469 61.910156 18.550781 54.832031 17.617188 C 54.390625 7.542969 45.933594 -0.308594 35.855469 0 C 27.847656 -0.132813 20.621094 4.789063 17.8125 12.289063 C 9.277344 13.339844 2.789063 20.457031 2.527344 29.050781 C 2.886719 38.789063 11.066406 46.394531 20.804688 46.042969 L 51.917969 46.042969 C 52.175781 46.066406 52.4375 46.066406 52.695313 46.042969 C 60.710938 46.027344 67.261719 39.632813 67.472656 31.617188 Z "/>
<path style=" stroke:none;fill-rule:nonzero;fill:url(#linear1);" d="M 35.195313 40.792969 C 25.667969 40.792969 17.964844 38.34375 17.964844 35.3125 L 17.964844 64.515625 C 17.964844 67.511719 25.746094 69.960938 34.960938 70 L 35.195313 70 C 44.683594 70 52.382813 67.550781 52.382813 64.515625 L 52.382813 35.3125 C 52.382813 38.34375 44.683594 40.792969 35.195313 40.792969 Z "/>
<path style=" stroke:none;fill-rule:nonzero;fill:rgb(90.980392%,90.980392%,90.980392%);fill-opacity:1;" d="M 52.382813 35.3125 C 52.382813 38.34375 44.605469 40.792969 35.195313 40.792969 C 25.785156 40.792969 17.964844 38.34375 17.964844 35.3125 C 17.964844 32.277344 25.746094 29.828125 35.195313 29.828125 C 44.644531 29.828125 52.382813 274.828125 52.382813 35.3125 "/>
<path style=" stroke:none;fill-rule:nonzero;fill:rgb(31.372549%,90.196078%,100%);fill-opacity:1;" d="M 48.378906 35 C 48.378906 36.90625 42.464844 70 35.195313 70 C 27.921875 70 21.972656 68.40625 21.972656 66.5 C 21.972656 64.59375 27.882813 63 35.195313 63 C 42.503906 63 48.378906 78.554688 48.378906 98 "/>
<path style=" stroke:none;fill-rule:nonzero;fill:rgb(19.607843%,74.509804%,86.666667%);fill-opacity:1;" d="M 35.195313 35.699219 C -1.316406 32.8125 -33.257813 60.070313 -36.148438 96.582031 C -39.035156 133.09375 -11.777344 165.035156 24.734375 167.921875 C -12.851563 170.8125 -40.980469 203.621094 -38.089844 241.207031 C -35.203125 278.792969 -2.390625 306.921875 35.195313 304.035156 C 38.730469 304.105469 42.257813 303.648438 45.65625 302.671875 C 119.378906 299.785156 176.800781 237.679688 173.910156 163.957031 C 171.023438 90.234375 108.917969 32.8125 35.195313 35.699219 Z "/>
<path style=" stroke:none;fill-rule:nonzero;fill:rgb(94.901961%,94.901961%,94.901961%);fill-opacity:1;" d="M 24.460938 19.445313 L 34.535156 9.253906 C 34.753906 7 35.054688 5.726563 35.371094 5.726563 C 35.683594 5.726563 35.984375 7 36.207031 9.253906 L 46.277344 19.445313 C 46.457031 33.71875 46.515625 58.113281 46.425781 79.007813 C 46.332031 99.90625 46.113281 112.144531 45.890625 108.890625 L 39.707031 108.890625 C 39.40625 108.890625 39.160156 133.265625 39.160156 163.332031 L 39.160156 33.367188 C 40.34375 34.546875 41.203125 45.082031 41.085938 56.894531 C 40.96875 68.707031 39.914063 77.324219 38.734375 76.144531 L 31.964844 76.144531 C 31.832031 83.652344 31.671875 83.492188 31.539063 75.714844 L 31.539063 20.765625 C 31.402344 14.261719 31.246094 14.0625 31.109375 20.222656 L 24.8125 20.222656 C 24.695313 24.140625 24.574219 23.863281 24.460938 19.445313 Z "/>
</g>
</svg>
