<?xml version="1.0" encoding="UTF-8"?>
<svg xmlns="http://www.w3.org/2000/svg" xmlns:xlink="http://www.w3.org/1999/xlink" width="70pt" height="70pt" viewBox="0 0 70 70" version="1.1">
<defs>
<linearGradient id="linear0" gradientUnits="userSpaceOnUse" x1="5.41" y1="17.33" x2="5.41" y2="0.61" gradientTransform="matrix(3.888889,0,0,3.888889,0,0)">
<stop offset="0" style="stop-color:rgb(41,164,255);stop-opacity:1;"/>
<stop offset="0.53" style="stop-color:rgb(69,176,255);stop-opacity:1;"/>
<stop offset="1" style="stop-color:rgb(103,190,255);stop-opacity:1;"/>
</linearGradient>
<linearGradient id="linear1" gradientUnits="userSpaceOnUse" x1="10.04" y1="17.39" x2="10.04" y2="6.82" gradientTransform="matrix(3.888889,0,0,3.888889,0,0)">
<stop offset="0" style="stop-color:rgb(0,108,188);stop-opacity:1;"/>
<stop offset="0.16" style="stop-color:rgb(0,120,210);stop-opacity:1;"/>
<stop offset="0.53" style="stop-color:rgb(1,147,255);stop-opacity:1;"/>
<stop offset="0.82" style="stop-color:rgb(31,159,255);stop-opacity:1;"/>
<stop offset="1" style="stop-color:rgb(41,164,255);stop-opacity:1;"/>
</linearGradient>
</defs>
<g id="surface1">
<path style=" stroke:none;fill-rule:nonzero;fill:url(#linear0);" d="M 40.132813 65.179688 C 40.113281 186.730469 39.132813 284.765625 37.917969 286.84375 L 4.160156 286.84375 C 3.472656 325.757813 2.625 324.914063 1.945313 284.628906 L 1.945313 4.589844 C 2.554688 3.355469 3.144531 27.847656 3.566406 72.089844 C 3.988281 116.332031 4.203125 176.253906 4.160156 237.222656 L 37.917969 237.222656 C 39.140625 237.222656 40.132813 336.464844 40.132813 458.890625 Z "/>
<path style=" stroke:none;fill-rule:nonzero;fill:rgb(0,44,78);fill-opacity:1;" d="M 7.542969 25.160156 C 7.566406 22.894531 9.398438 21.058594 11.667969 21.039063 L 30.722656 21.039063 C 31.839844 21.007813 32.921875 21.425781 33.726563 22.203125 C 34.53125 22.976563 34.988281 24.042969 35 25.160156 C 35 26.285156 34.546875 27.363281 33.742188 28.144531 C 32.933594 28.929688 31.847656 29.355469 30.722656 29.320313 L 11.667969 29.320313 C 9.382813 29.300781 7.542969 27.445313 7.542969 25.160156 Z "/>
<path style=" stroke:none;fill-rule:nonzero;fill:rgb(0,44,78);fill-opacity:1;" d="M 7.542969 12.871094 C 7.542969 10.589844 9.382813 8.734375 11.667969 8.710938 L 30.722656 8.710938 C 31.847656 8.679688 32.933594 9.105469 33.742188 9.886719 C 34.546875 10.671875 35 11.75 35 12.871094 C 34.988281 13.988281 34.53125 15.054688 33.726563 15.832031 C 32.921875 16.605469 31.839844 17.027344 30.722656 16.996094 L 11.667969 16.996094 C 9.398438 16.972656 7.566406 15.140625 7.542969 12.871094 Z "/>
<path style=" stroke:none;fill-rule:nonzero;fill:rgb(119,197,255);fill-opacity:1;" d="M 14.699219 12.871094 C 14.699219 14.417969 13.445313 15.671875 11.898438 15.671875 C 10.355469 15.671875 9.101563 14.417969 9.101563 12.871094 C 9.101563 11.324219 10.355469 10.070313 11.898438 10.070313 C 13.445313 10.070313 14.699219 11.324219 14.699219 12.871094 Z "/>
<path style=" stroke:none;fill-rule:nonzero;fill:rgb(119,197,255);fill-opacity:1;" d="M 14.699219 25.160156 C 14.699219 26.707031 13.445313 27.960938 11.898438 27.960938 C 10.355469 27.960938 9.101563 26.707031 9.101563 25.160156 C 9.101563 23.613281 10.355469 22.359375 11.898438 22.359375 C 13.445313 22.359375 14.699219 23.613281 14.699219 25.160156 Z "/>
<path style=" stroke:none;fill-rule:nonzero;fill:url(#linear1);" d="M 68.054688 54.753906 C 67.847656 48.378906 63.0625 43.085938 56.738281 42.234375 C 56.277344 33.304688 48.757813 26.390625 39.820313 26.679688 C 32.707031 26.507813 26.257813 30.839844 23.722656 37.488281 C 16.085938 38.410156 10.265625 44.773438 10.035156 52.460938 C 10.371094 61.152344 17.675781 67.933594 26.367188 67.628906 L 55.105469 67.628906 C 62.175781 67.503906 67.890625 61.824219 68.054688 54.753906 Z "/>
<path style=" stroke:none;fill-rule:nonzero;fill:rgb(229,243,255);fill-opacity:1;" d="M 52.929688 56.195313 L 52.929688 43.128906 L 49.3125 43.128906 L 49.3125 59.148438 L 58.839844 59.148438 L 58.839844 56.195313 Z M 25.316406 49.777344 C 24.605469 49.464844 23.9375 49.0625 23.332031 48.570313 C 23.179688 50.292969 23.019531 49.871094 22.867188 47.328125 L 21.699219 306.5625 L 29.320313 53.785156 L 22.867188 43.984375 C 21.613281 43.5625 20.296875 43.363281 18.976563 43.398438 C -16.460938 42.230469 -46.136719 70.007813 -47.308594 105.445313 C -48.480469 140.886719 -20.699219 170.5625 14.738281 171.734375 C -80.835938 171.292969 -158.671875 248.414063 -159.113281 343.992188 C -159.554688 439.566406 -82.429688 517.402344 13.144531 517.84375 C 13.273438 520.007813 14.730469 521.867188 16.800781 522.511719 C 55.910156 521.855469 88.148438 553.03125 88.804688 592.140625 C 89.457031 631.253906 58.28125 663.488281 19.171875 664.144531 L 144.9375 796.367188 L 310.839844 664.144531 L 25.511719 664.144531 L 19.171875 660.566406 C 185.171875 661.714844 320.675781 528.078125 321.824219 362.074219 C 322.972656 196.074219 189.335938 60.570313 23.332031 59.421875 C 24.902344 59.542969 26.46875 59.160156 27.804688 58.332031 C 28.917969 57.503906 29.542969 56.179688 29.476563 54.792969 C 29.515625 53.796875 29.167969 52.820313 28.503906 52.070313 C 27.621094 51.085938 26.53125 50.304688 25.316406 49.777344 Z M 45.382813 55.921875 C 46.261719 54.441406 46.703125 52.742188 46.667969 51.023438 C 46.71875 49.511719 46.382813 48.011719 45.695313 46.667969 C 45.097656 45.464844 44.167969 44.464844 43.011719 43.789063 C 41.761719 43.0625 40.332031 42.714844 38.890625 42.777344 C 37.519531 42.839844 36.1875 43.226563 35 43.90625 C -47.6875 43.121094 -115.359375 109.519531 -116.140625 192.207031 C -116.925781 274.898438 -50.527344 342.566406 32.160156 343.351563 C 112.800781 343.058594 177.933594 277.453125 177.644531 196.816406 C 177.355469 116.179688 111.75 51.042969 31.109375 51.332031 C 31.089844 52.75 31.410156 54.152344 32.042969 55.417969 C -47.421875 56.148438 -111.253906 121.160156 -110.523438 200.628906 C -109.792969 280.09375 -44.777344 343.925781 34.6875 343.195313 C 35.863281 343.90625 37.203125 344.296875 38.578125 344.320313 L 41.882813 348.210938 L 46.550781 348.210938 L 41.921875 343.933594 C 121.453125 344.890625 186.703125 281.191406 187.660156 201.660156 C 188.613281 122.125 124.914063 56.878906 45.382813 55.921875 Z M 41.765625 54.949219 C 41.0625 146.414063 39.964844 198.40625 38.8125 194.601563 L 37.410156 200.433594 L 34.921875 200.277344 L 34.921875 191.023438 L 37.371094 532.390625 L 44.800781 200.589844 C 0.246094 193.785156 -30.351563 161.859375 -29.535156 123.296875 C -28.71875 84.734375 3.203125 54.132813 41.765625 54.949219 Z "/>
</g>
</svg>
