<?xml version="1.0" encoding="UTF-8"?>
<svg xmlns="http://www.w3.org/2000/svg" xmlns:xlink="http://www.w3.org/1999/xlink" width="70pt" height="70pt" viewBox="0 0 70 70" version="1.1">
<defs>
<linearGradient id="linear0" gradientUnits="userSpaceOnUse" x1="0.5" y1="9.96" x2="12.43" y2="9.96" gradientTransform="matrix(3.888889,0,0,3.888889,0,0)">
<stop offset="0" style="stop-color:rgb(0%,35.686275%,63.137255%);stop-opacity:1;"/>
<stop offset="0.07" style="stop-color:rgb(0%,37.647059%,66.27451%);stop-opacity:1;"/>
<stop offset="0.36" style="stop-color:rgb(0%,44.313725%,78.431373%);stop-opacity:1;"/>
<stop offset="0.52" style="stop-color:rgb(0%,47.058824%,83.137255%);stop-opacity:1;"/>
<stop offset="0.64" style="stop-color:rgb(0%,45.490196%,80.392157%);stop-opacity:1;"/>
<stop offset="0.82" style="stop-color:rgb(0%,41.568627%,73.333333%);stop-opacity:1;"/>
<stop offset="1" style="stop-color:rgb(0%,35.686275%,63.137255%);stop-opacity:1;"/>
</linearGradient>
<linearGradient id="linear1" gradientUnits="userSpaceOnUse" x1="11.77" y1="17.03" x2="11.77" y2="8.9" gradientTransform="matrix(3.888889,0,0,3.888889,0,0)">
<stop offset="0" style="stop-color:rgb(9.803922%,54.117647%,70.196078%);stop-opacity:1;"/>
<stop offset="0" style="stop-color:rgb(9.803922%,54.117647%,70.196078%);stop-opacity:1;"/>
<stop offset="0.11" style="stop-color:rgb(13.333333%,64.705882%,79.607843%);stop-opacity:1;"/>
<stop offset="0.23" style="stop-color:rgb(16.078431%,72.941176%,87.058824%);stop-opacity:1;"/>
<stop offset="0.37" style="stop-color:rgb(18.039216%,78.823529%,92.156863%);stop-opacity:1;"/>
<stop offset="0.53" style="stop-color:rgb(19.215686%,81.960784%,95.294118%);stop-opacity:1;"/>
<stop offset="0.78" style="stop-color:rgb(19.607843%,83.137255%,96.078431%);stop-opacity:1;"/>
</linearGradient>
</defs>
<g id="surface1">
<path style=" stroke:none;fill-rule:nonzero;fill:url(#linear0);" d="M 25.160156 20.609375 C 12.328125 20.609375 1.828125 16.722656 1.828125 12.210938 L 1.828125 56.894531 C 1.828125 61.484375 12.054688 65.253906 24.695313 65.292969 L 25.042969 65.292969 C 37.839844 65.292969 48.378906 61.40625 48.378906 56.894531 L 48.378906 12.210938 C 48.339844 16.839844 37.957031 20.609375 25.160156 20.609375 Z "/>
<path style=" stroke:none;fill-rule:nonzero;fill:rgb(91.764706%,91.764706%,91.764706%);fill-opacity:1;" d="M 48.339844 12.210938 C 48.339844 16.839844 37.957031 20.609375 25.003906 20.609375 C 12.054688 20.609375 1.671875 16.722656 1.671875 12.210938 C 1.671875 7.699219 12.328125 3.890625 25.160156 3.890625 C 37.996094 3.890625 48.496094 7.777344 48.496094 12.328125 "/>
<path style=" stroke:none;fill-rule:nonzero;fill:rgb(31.372549%,90.196078%,100%);fill-opacity:1;" d="M 42.777344 11.667969 C 42.777344 14.621094 35 16.996094 25.003906 16.996094 C 15.011719 16.996094 7.351563 14.464844 7.351563 11.667969 C 7.351563 8.867188 15.320313 6.183594 25.160156 6.183594 C 35 6.183594 42.777344 8.554688 42.777344 11.667969 "/>
<path style=" stroke:none;fill-rule:nonzero;fill:rgb(9.803922%,54.117647%,70.196078%);fill-opacity:1;" d="M 25.160156 12.753906 C -30.679688 8.855469 -79.109375 50.964844 -83.007813 106.808594 C -86.90625 162.652344 -44.796875 211.078125 11.042969 214.976563 C -45.871094 218.875 -88.851563 268.175781 -84.953125 325.089844 C -81.054688 382.007813 -31.753906 424.988281 25.160156 421.089844 C 29.9375 421.203125 34.695313 420.507813 39.238281 419.027344 C 151.429688 415.140625 239.222656 321.042969 235.335938 208.851563 C 231.449219 96.664063 137.351563 8.867188 25.160156 12.753906 Z "/>
<path style=" stroke:none;fill-rule:nonzero;fill:url(#linear1);" d="M 65.140625 49.542969 C 63.53125 48.039063 61.515625 47.039063 59.34375 46.667969 C 59.050781 39.769531 53.257813 34.390625 46.355469 34.609375 C 40.839844 34.503906 35.855469 37.886719 33.910156 43.050781 C 28.046875 43.703125 23.546875 48.550781 23.332031 54.445313 C 23.585938 61.117188 29.183594 66.328125 35.855469 66.109375 L 57.828125 66.109375 C 63.253906 66.074219 67.691406 61.773438 67.898438 56.351563 C 67.871094 53.796875 66.820313 51.359375 64.984375 49.582031 "/>
<path style=" stroke:none;fill-rule:nonzero;fill:rgb(100%,100%,100%);fill-opacity:1;" d="M 55.609375 61.445313 L 51.957031 61.445313 L 51.957031 51.605469 C 51.957031 50.570313 51.957031 49.402344 51.957031 48.105469 C 51.957031 49.078125 51.566406 219.214844 51.449219 265.882813 L 47.5625 277.042969 L 44.527344 277.042969 L 40.640625 265.960938 C 40.421875 265.222656 40.253906 264.46875 40.132813 263.707031 C 40.132813 265.300781 40.132813 266.738281 40.132813 267.945313 L 40.132813 61.445313 L 36.867188 61.445313 L 36.867188 44.996094 L 42.3125 44.996094 L 45.65625 54.753906 C 50.300781 56.703125 53.371094 61.199219 53.496094 66.234375 C 53.621094 71.269531 50.78125 75.910156 46.238281 78.089844 C 46.433594 77.195313 89.015625 76.378906 108.460938 75.714844 L 105.078125 65.996094 L 55.609375 65.996094 Z "/>
</g>
</svg>
