<?xml version="1.0" encoding="UTF-8"?>
<svg xmlns="http://www.w3.org/2000/svg" xmlns:xlink="http://www.w3.org/1999/xlink" width="70pt" height="70pt" viewBox="0 0 70 70" version="1.1">
<defs>
<linearGradient id="linear0" gradientUnits="userSpaceOnUse" x1="9.908" y1="15.943" x2="7.516" y2="2.383" gradientTransform="matrix(3.888889,0,0,3.888889,0,0)">
<stop offset="0.15" style="stop-color:rgb(0,108,188);stop-opacity:1;"/>
<stop offset="0.8" style="stop-color:rgb(41,164,255);stop-opacity:1;"/>
<stop offset="1" style="stop-color:rgb(95,187,255);stop-opacity:1;"/>
</linearGradient>
</defs>
<g id="surface1">
<path style=" stroke:none;fill-rule:nonzero;fill:url(#linear0);" d="M 56.351563 27.804688 C 56.007813 16.839844 46.902344 8.191406 35.933594 8.414063 C 27.195313 8.3125 19.351563 13.757813 16.394531 21.984375 C 7.117188 23.238281 0.148438 31.082031 0 40.445313 C 0.28125 51.054688 9.097656 59.429688 19.707031 59.164063 L 53.746094 59.164063 C 62.492188 58.945313 69.585938 52.011719 70 43.273438 C 69.839844 35.472656 64.066406 28.933594 56.351563 27.804688 Z "/>
<path style=" stroke:none;fill-rule:nonzero;fill:rgb(229,243,255);fill-opacity:1;" d="M 50.167969 44.332031 L 50.167969 31.109375 L 46.667969 31.109375 L 46.667969 47.171875 L 56.234375 47.171875 L 56.234375 44.332031 Z M 22.398438 37.839844 C 21.675781 37.546875 21.007813 37.140625 20.417969 36.632813 L 19.171875 1367.964844 L 2679.183594 36.632813 L 26.714844 36.632813 L 20.417969 31.539063 C 19.175781 31.078125 17.851563 30.863281 16.527344 30.917969 C -19.984375 29.746094 -50.53125 58.394531 -51.703125 94.910156 C -52.875 131.421875 -24.222656 161.96875 12.289063 163.140625 C -83.285156 162.6875 -161.132813 239.800781 -161.582031 335.378906 C -162.035156 430.953125 -84.921875 508.800781 10.65625 509.25 C 10.65625 511.234375 138.640625 513.140625 15.359375 513.140625 C 54.472656 512.472656 86.714844 543.636719 87.382813 582.75 C 88.046875 621.859375 56.882813 654.101563 17.773438 654.769531 L 143.699219 2136.433594 L 3152.214844 654.769531 L 24.226563 654.769531 L 17.773438 46.667969 C -8 47.816406 -27.964844 69.640625 -26.8125 95.414063 C -25.664063 121.1875 -3.839844 141.148438 21.933594 140 C 23.5625 140.097656 25.179688 139.644531 26.523438 138.714844 C 53.015625 138.738281 74.507813 117.277344 74.53125 90.785156 C 74.550781 64.292969 53.09375 42.800781 26.601563 42.777344 C 26.621094 41.78125 26.273438 40.8125 25.628906 40.054688 C 24.71875 39.097656 23.621094 38.34375 22.398438 37.839844 Z M 42.777344 44.023438 C 44.5 41.261719 44.5 37.761719 42.777344 35 C 42.171875 33.785156 41.226563 32.773438 40.054688 32.082031 C 38.871094 31.410156 37.527344 31.0625 36.167969 31.070313 C 7.171875 29.914063 -17.273438 52.476563 -18.433594 81.472656 C -19.59375 110.46875 2.972656 134.914063 31.964844 136.070313 C 59.878906 135.289063 81.867188 112.027344 81.082031 84.117188 C 80.300781 56.207031 57.039063 34.214844 29.128906 35 C 28.441406 36.375 28.09375 37.894531 28.117188 39.433594 C 28.125 40.785156 28.445313 42.113281 29.050781 43.320313 C -50.417969 44.0625 -114.238281 109.085938 -113.496094 188.554688 C -112.757813 268.019531 -47.734375 331.839844 31.734375 331.101563 C 32.90625 331.816406 34.246094 332.21875 35.621094 332.265625 L 38.964844 336.15625 L 43.671875 336.15625 L 38.890625 46.976563 C 40.5 46.496094 41.882813 45.445313 42.777344 44.023438 Z M 38.890625 43.050781 C 37.96875 503.578125 36.894531 554.285156 35.933594 182.722656 L 34.535156 188.644531 L 32.042969 188.667969 L 32.042969 186.613281 L 34.496094 3565.546875 L 42.230469 189.019531 C -2.636719 181.90625 -33.242188 149.980469 -32.425781 111.410156 C -31.609375 72.839844 0.320313 42.234375 38.890625 43.050781 Z "/>
</g>
</svg>
