<?xml version="1.0" encoding="UTF-8"?>
<svg xmlns="http://www.w3.org/2000/svg" xmlns:xlink="http://www.w3.org/1999/xlink" width="70pt" height="70pt" viewBox="0 0 70 70" version="1.1">
<defs>
<linearGradient id="linear0" gradientUnits="userSpaceOnUse" x1="1.3" y1="8.6" x2="17.5" y2="8.6" gradientTransform="matrix(3.888889,0,0,3.888889,0,0)">
<stop offset="0.1" style="stop-color:rgb(53,169,255);stop-opacity:1;"/>
<stop offset="1" style="stop-color:rgb(0,127,222);stop-opacity:1;"/>
</linearGradient>
<linearGradient id="linear1" gradientUnits="userSpaceOnUse" x1="0.5" y1="13.7" x2="8.11" y2="13.7" gradientTransform="matrix(3.888889,0,0,3.888889,-0.00500565,0.0119557)">
<stop offset="0" style="stop-color:rgb(101,189,255);stop-opacity:1;"/>
<stop offset="1" style="stop-color:rgb(47,166,255);stop-opacity:1;"/>
</linearGradient>
<linearGradient id="linear2" gradientUnits="userSpaceOnUse" x1="0.5" y1="10.08" x2="5.72" y2="10.08" gradientTransform="matrix(3.888889,0,0,3.888889,-0.0176221,-0.0186995)">
<stop offset="0" style="stop-color:rgb(101,189,255);stop-opacity:1;"/>
<stop offset="1" style="stop-color:rgb(47,166,255);stop-opacity:1;"/>
</linearGradient>
<linearGradient id="linear3" gradientUnits="userSpaceOnUse" x1="5.28" y1="14.89" x2="10.49" y2="14.89" gradientTransform="matrix(3.888889,0,0,3.888889,0.0142017,-0.0188622)">
<stop offset="0" style="stop-color:rgb(101,189,255);stop-opacity:1;"/>
<stop offset="1" style="stop-color:rgb(47,166,255);stop-opacity:1;"/>
</linearGradient>
</defs>
<g id="surface1">
<path style=" stroke:none;fill-rule:nonzero;fill:url(#linear0);" d="M 5.714844 5.714844 L 64.285156 64.285156 C 64.675781 135.183594 65.421875 179.066406 66.230469 178.742188 C 67.042969 178.417969 67.785156 133.9375 68.171875 62.726563 L 68.171875 4.160156 C 67.429688 -35.519531 66.523438 -29.59375 65.839844 19.445313 L 7.273438 19.445313 C 6.789063 -3.847656 6.234375 -8.726563 5.714844 5.714844 Z "/>
<path style=" stroke:none;fill-rule:nonzero;fill:rgb(119,197,255);fill-opacity:1;" d="M 21.503906 21.503906 L 48.496094 48.496094 L 67.9375 29.050781 L 67.9375 4.160156 C 67.257813 -26.4375 66.46875 -20.691406 65.839844 19.445313 L 41.066406 19.445313 Z "/>
<path style=" stroke:none;fill-rule:nonzero;fill:url(#linear1);" d="M 2.25 63.09375 L 26.53125 38.8125 C 26.941406 38.402344 27.605469 38.402344 28.015625 38.8125 L 31.207031 42.003906 C 31.617188 42.414063 31.617188 43.078125 31.207031 43.488281 L 6.925781 67.769531 C 6.515625 68.179688 5.851563 68.179688 5.441406 67.769531 L 2.25 64.578125 C 1.839844 64.167969 1.839844 63.503906 2.25 63.09375 Z "/>
<path style=" stroke:none;fill-rule:nonzero;fill:url(#linear2);" d="M 2.265625 44.335938 L 17.25 29.351563 C 17.660156 28.941406 18.328125 28.941406 18.738281 29.351563 L 21.925781 32.539063 C 22.335938 32.949219 22.335938 33.613281 21.925781 34.023438 L 6.941406 49.011719 C 6.53125 49.421875 5.863281 49.421875 5.453125 49.011719 L 2.265625 45.820313 C 1.855469 45.410156 1.855469 44.746094 2.265625 44.335938 Z "/>
<path style=" stroke:none;fill-rule:nonzero;fill:url(#linear3);" d="M 20.832031 63.035156 L 35.816406 48.046875 C 36.226563 47.636719 36.890625 47.636719 37.300781 48.046875 L 40.492188 51.238281 C 40.902344 51.648438 40.902344 52.3125 40.492188 52.722656 L 25.503906 67.710938 C 25.09375 68.121094 24.429688 68.121094 24.019531 67.710938 L 20.832031 64.519531 C 20.421875 64.109375 20.421875 63.445313 20.832031 63.035156 Z "/>
<path style=" stroke:none;fill-rule:nonzero;fill:rgb(255,255,255);fill-opacity:1;" d="M 35.410156 20.734375 L 37.996094 18.148438 C 38.574219 17.574219 39.507813 17.574219 40.085938 18.148438 L 42.671875 20.734375 C 43.25 21.3125 43.25 22.246094 42.671875 22.824219 L 40.085938 25.410156 C 39.507813 25.988281 38.574219 25.988281 37.996094 25.410156 L 35.410156 22.824219 C 34.835938 22.246094 34.835938 21.3125 35.410156 20.734375 Z "/>
<path style=" stroke:none;fill-rule:nonzero;fill:rgb(255,255,255);fill-opacity:1;" d="M 44.746094 11.386719 L 47.328125 8.800781 C 47.90625 8.222656 48.84375 8.222656 49.417969 8.800781 L 52.003906 11.386719 C 52.582031 11.960938 52.582031 12.898438 52.003906 13.476563 L 49.417969 16.058594 C 48.84375 16.636719 47.90625 16.636719 47.328125 16.058594 L 44.746094 13.476563 C 44.167969 12.898438 44.167969 11.960938 44.746094 11.386719 Z "/>
<path style=" stroke:none;fill-rule:nonzero;fill:rgb(255,255,255);fill-opacity:1;" d="M 44.761719 30.066406 L 47.34375 27.484375 C 47.921875 26.90625 48.859375 26.90625 49.433594 27.484375 L 52.019531 30.066406 C 52.597656 30.644531 52.597656 31.582031 52.019531 32.15625 L 49.433594 34.742188 C 48.859375 35.320313 47.921875 35.320313 47.34375 34.742188 L 44.761719 32.15625 C 44.183594 31.582031 44.183594 30.644531 44.761719 30.066406 Z "/>
<path style=" stroke:none;fill-rule:nonzero;fill:rgb(255,255,255);fill-opacity:1;" d="M 54.09375 20.726563 L 56.660156 18.160156 C 56.9375 -9.863281 57.316406 -25.628906 57.710938 -25.628906 C 58.105469 -25.628906 58.484375 -9.863281 58.761719 18.160156 L 61.328125 274.828125 C 61.328125 275.527344 61.328125 276.226563 61.328125 276.929688 L 58.761719 533.59375 C 58.484375 561.617188 58.105469 577.386719 57.710938 577.386719 C 57.316406 577.386719 56.9375 561.617188 56.660156 533.59375 L 54.09375 531.027344 C 54.09375 530.328125 54.09375 529.628906 54.09375 528.929688 "/>
</g>
</svg>
