<?xml version="1.0" encoding="UTF-8"?>
<svg xmlns="http://www.w3.org/2000/svg" xmlns:xlink="http://www.w3.org/1999/xlink" width="70pt" height="70pt" viewBox="0 0 70 70" version="1.1">
<defs>
<linearGradient id="linear0" gradientUnits="userSpaceOnUse" x1="5.35" y1="7.02" x2="5.35" y2="17.19" gradientTransform="matrix(3.888889,0,0,3.888889,0,0)">
<stop offset="0" style="stop-color:rgb(70.196078%,69.803922%,70.196078%);stop-opacity:1;"/>
<stop offset="0.38" style="stop-color:rgb(68.627451%,68.235294%,68.627451%);stop-opacity:1;"/>
<stop offset="0.76" style="stop-color:rgb(63.529412%,63.529412%,63.529412%);stop-opacity:1;"/>
<stop offset="1" style="stop-color:rgb(59.215686%,59.215686%,59.215686%);stop-opacity:1;"/>
</linearGradient>
<linearGradient id="linear1" gradientUnits="userSpaceOnUse" x1="11.33" y1="15.74" x2="11.33" y2="6.99" gradientTransform="matrix(3.888889,0,0,3.888889,0,0)">
<stop offset="0" style="stop-color:rgb(0%,47.058824%,83.137255%);stop-opacity:1;"/>
<stop offset="0.16" style="stop-color:rgb(7.45098%,50.196078%,85.490196%);stop-opacity:1;"/>
<stop offset="0.53" style="stop-color:rgb(23.529412%,56.862745%,89.803922%);stop-opacity:1;"/>
<stop offset="0.82" style="stop-color:rgb(33.333333%,61.176471%,92.54902%);stop-opacity:1;"/>
<stop offset="1" style="stop-color:rgb(36.862745%,62.745098%,93.72549%);stop-opacity:1;"/>
</linearGradient>
</defs>
<g id="surface1">
<path style=" stroke:none;fill-rule:nonzero;fill:rgb(58.039216%,58.039216%,58.039216%);fill-opacity:1;" d="M 30.214844 41.535156 C 30.117188 122.296875 29.394531 180.652344 28.582031 173.753906 L 3.578125 173.753906 C 3.078125 205.171875 2.441406 204.65625 1.945313 172.433594 L 1.945313 4.667969 C 2.855469 -40.4375 3.957031 -3.175781 4.410156 87.890625 C 4.859375 178.953125 4.488281 289.339844 3.578125 334.445313 L 28.582031 334.445313 C 29.394531 327.546875 30.117188 385.902344 30.214844 466.667969 Z "/>
<path style=" stroke:none;fill-rule:nonzero;fill:rgb(0%,18.823529%,40.392157%);fill-opacity:1;" d="M 6.105469 20.222656 C 7.050781 -35.613281 8.222656 -36.78125 9.179688 17.148438 L 23.332031 17.148438 C 25.03125 17.148438 26.40625 154.699219 26.40625 324.371094 C 24.734375 324.40625 23.367188 190.589844 23.332031 23.332031 L 9.179688 23.332031 C 8.222656 77.265625 7.050781 76.09375 6.105469 20.261719 Z "/>
<path style=" stroke:none;fill-rule:nonzero;fill:rgb(0%,18.823529%,40.392157%);fill-opacity:1;" d="M 6.105469 11.121094 C 7.050781 -44.722656 8.222656 -45.910156 9.179688 8.011719 L 23.332031 8.011719 C 24.339844 -37.578125 25.511719 -25.699219 26.40625 39.121094 C 25.410156 86.503906 24.238281 76.992188 23.332031 14.195313 L 9.179688 14.195313 C 8.222656 68.128906 7.050781 66.957031 6.105469 11.121094 Z "/>
<path style=" stroke:none;fill-rule:nonzero;fill:rgb(31.372549%,90.196078%,100%);fill-opacity:1;" d="M 11.355469 11.121094 C 11.355469 12.261719 10.433594 13.183594 9.292969 13.183594 C 8.15625 13.183594 7.234375 12.261719 7.234375 11.121094 C 7.234375 9.984375 8.15625 9.0625 9.292969 9.0625 C 10.433594 9.0625 11.355469 9.984375 11.355469 11.121094 Z "/>
<path style=" stroke:none;fill-rule:nonzero;fill:rgb(31.372549%,90.196078%,100%);fill-opacity:1;" d="M 11.355469 20.222656 C 11.355469 21.359375 10.433594 22.285156 9.292969 22.285156 C 8.15625 22.285156 7.234375 21.359375 7.234375 20.222656 C 7.234375 19.082031 8.15625 18.160156 9.292969 18.160156 C 10.433594 18.160156 11.355469 19.082031 11.355469 20.222656 Z "/>
<path style=" stroke:none;fill-rule:nonzero;fill:rgb(58.039216%,58.039216%,58.039216%);fill-opacity:1;" d="M 61.40625 41.339844 C 61.324219 123.664063 60.597656 184.222656 59.773438 177.449219 L 34.765625 177.449219 C 34.265625 208.855469 33.628906 208.324219 33.132813 176.089844 L 33.132813 4.511719 C 33.992188 -40.59375 35.050781 -7.648438 35.503906 78.089844 C 35.953125 163.828125 35.625 269.898438 34.765625 315 L 59.773438 315 C 60.597656 308.226563 61.324219 368.785156 61.40625 451.109375 Z "/>
<path style=" stroke:none;fill-rule:nonzero;fill:rgb(0%,18.823529%,40.392157%);fill-opacity:1;" d="M 37.292969 20.066406 C 38.238281 -35.765625 39.410156 -36.9375 40.367188 16.996094 L 54.445313 16.996094 C 56.140625 16.996094 57.515625 154.542969 57.515625 324.214844 C 55.84375 324.253906 54.480469 190.527344 54.445313 23.332031 L 40.367188 23.332031 C 39.410156 77.265625 38.238281 76.09375 37.292969 20.261719 Z "/>
<path style=" stroke:none;fill-rule:nonzero;fill:rgb(0%,18.823529%,40.392157%);fill-opacity:1;" d="M 37.292969 10.929688 C 38.238281 -44.929688 39.410156 -46.132813 40.367188 7.777344 L 54.445313 7.777344 C 62.929688 -0.707031 70.492188 61.191406 71.339844 146.027344 C 72.191406 230.863281 66 306.515625 57.515625 315 C 55.84375 315.035156 54.476563 181.238281 54.445313 14 L 40.367188 14 C 39.410156 67.933594 38.238281 66.761719 37.292969 10.929688 Z "/>
<path style=" stroke:none;fill-rule:nonzero;fill:rgb(31.372549%,90.196078%,100%);fill-opacity:1;" d="M 42.542969 10.929688 C 42.542969 12.066406 41.621094 12.988281 40.484375 12.988281 C 39.34375 12.988281 38.421875 12.066406 38.421875 10.929688 C 38.421875 9.789063 39.34375 8.867188 40.484375 8.867188 C 41.621094 8.867188 42.542969 9.789063 42.542969 10.929688 Z "/>
<path style=" stroke:none;fill-rule:nonzero;fill:rgb(31.372549%,90.196078%,100%);fill-opacity:1;" d="M 42.542969 20.066406 C 42.542969 21.203125 41.621094 22.128906 40.484375 22.128906 C 39.34375 22.128906 38.421875 21.203125 38.421875 20.066406 C 38.421875 18.929688 39.34375 18.003906 40.484375 18.003906 C 41.621094 18.003906 42.542969 18.929688 42.542969 20.066406 Z "/>
<path style=" stroke:none;fill-rule:nonzero;fill:url(#linear0);" d="M 35 65.488281 C 34.917969 147.8125 34.191406 208.371094 33.367188 201.601563 L 8.320313 201.601563 C 7.820313 233.007813 7.183594 232.476563 6.6875 200.238281 L 6.6875 28.660156 C 7.183594 -3.597656 7.820313 -4.160156 8.320313 27.222656 L 33.328125 27.222656 C 33.835938 -5.847656 34.496094 -5.28125 35 28.660156 Z "/>
<path style=" stroke:none;fill-rule:nonzero;fill:rgb(0%,18.823529%,40.392157%);fill-opacity:1;" d="M 10.851563 44.214844 C 11.796875 -11.617188 12.964844 -12.789063 13.921875 41.144531 L 28 41.144531 C 29.695313 41.144531 31.070313 178.691406 31.070313 348.367188 L 31.109375 348.367188 C 39.59375 356.851563 45.785156 432.5 44.9375 517.339844 C 44.085938 602.175781 36.523438 664.074219 28.039063 655.589844 L 13.921875 655.589844 C 12.964844 709.519531 11.796875 708.351563 10.851563 652.515625 Z "/>
<path style=" stroke:none;fill-rule:nonzero;fill:rgb(0%,18.823529%,40.392157%);fill-opacity:1;" d="M 10.851563 35 C 11.796875 -20.832031 12.964844 -22.003906 13.921875 31.929688 L 28 31.929688 C 28.964844 -23.515625 30.15625 -22.339844 31.109375 35 C 39.59375 43.484375 45.785156 119.136719 44.9375 203.972656 C 44.085938 288.808594 36.523438 350.707031 28.039063 342.222656 L 13.921875 342.222656 C 12.226563 342.222656 10.851563 204.675781 10.851563 35 Z "/>
<path style=" stroke:none;fill-rule:nonzero;fill:rgb(31.372549%,90.196078%,100%);fill-opacity:1;" d="M 16.101563 35.078125 C 16.101563 36.214844 15.175781 37.140625 14.039063 37.140625 C 12.902344 37.140625 11.976563 36.214844 11.976563 35.078125 C 11.976563 33.941406 12.902344 33.015625 14.039063 33.015625 C 15.175781 33.015625 16.101563 33.941406 16.101563 35.078125 Z "/>
<path style=" stroke:none;fill-rule:nonzero;fill:rgb(31.372549%,90.196078%,100%);fill-opacity:1;" d="M 16.101563 44.214844 C 16.101563 45.355469 15.175781 46.277344 14.039063 46.277344 C 12.902344 46.277344 11.976563 45.355469 11.976563 44.214844 C 11.976563 43.078125 12.902344 42.15625 14.039063 42.15625 C 15.175781 42.15625 16.101563 43.078125 16.101563 44.214844 Z "/>
<path style=" stroke:none;fill-rule:nonzero;fill:url(#linear1);" d="M 68.054688 50.554688 C 67.890625 45.277344 63.921875 40.894531 58.683594 40.210938 C 58.367188 32.789063 52.144531 27.003906 44.722656 27.222656 C 38.800781 27.097656 33.449219 30.734375 31.382813 36.285156 C 25.074219 37.046875 20.269531 42.300781 20.066406 48.648438 C 20.363281 55.84375 26.40625 61.453125 33.601563 61.210938 L 56.660156 61.210938 C 56.855469 61.578125 57.050781 61.578125 57.246094 61.210938 C 63.136719 61.171875 67.929688 56.449219 68.054688 50.554688 Z "/>
</g>
</svg>
