<?xml version="1.0" encoding="UTF-8"?>
<svg xmlns="http://www.w3.org/2000/svg" xmlns:xlink="http://www.w3.org/1999/xlink" width="70pt" height="70pt" viewBox="0 0 70 70" version="1.1">
<defs>
<linearGradient id="linear0" gradientUnits="userSpaceOnUse" x1="2.59" y1="10.16" x2="15.41" y2="10.16" gradientTransform="matrix(3.888889,0,0,3.888889,0,0)">
<stop offset="0" style="stop-color:rgb(0,81,142);stop-opacity:1;"/>
<stop offset="0.07" style="stop-color:rgb(0,86,150);stop-opacity:1;"/>
<stop offset="0.36" style="stop-color:rgb(0,101,176);stop-opacity:1;"/>
<stop offset="0.52" style="stop-color:rgb(0,108,188);stop-opacity:1;"/>
<stop offset="0.64" style="stop-color:rgb(0,103,180);stop-opacity:1;"/>
<stop offset="0.82" style="stop-color:rgb(0,95,166);stop-opacity:1;"/>
<stop offset="1" style="stop-color:rgb(0,81,142);stop-opacity:1;"/>
</linearGradient>
</defs>
<g id="surface1">
<path style=" stroke:none;fill-rule:nonzero;fill:url(#linear0);" d="M 35 19.988281 C 21.234375 19.988281 10.070313 16.101563 10.070313 10.964844 L 10.070313 59.035156 C 10.070313 63.972656 21.039063 67.976563 34.648438 68.054688 L 35 68.054688 C 48.765625 68.054688 59.929688 64.167969 59.929688 59.035156 L 59.929688 10.964844 C 59.929688 15.984375 48.765625 19.988281 35 19.988281 Z "/>
<path style=" stroke:none;fill-rule:nonzero;fill:rgb(209,235,255);fill-opacity:1;" d="M 59.929688 10.964844 C 59.929688 15.984375 48.765625 19.988281 35 19.988281 C 21.234375 19.988281 10.070313 16.101563 10.070313 10.964844 C 10.070313 5.832031 21.234375 19.445313 35 1.945313 C 48.765625 -15.554688 59.929688 5.832031 59.929688 10.964844 "/>
<path style=" stroke:none;fill-rule:nonzero;fill:rgb(119,197,255);fill-opacity:1;" d="M 54.132813 10.226563 C 54.132813 13.417969 45.539063 15.984375 35 15.984375 C 24.460938 15.984375 15.867188 13.417969 15.867188 10.226563 C 15.867188 7.039063 24.460938 4.511719 35 4.511719 C 45.539063 4.511719 54.132813 261.179688 54.132813 10.226563 "/>
<path style=" stroke:none;fill-rule:nonzero;fill:rgb(0,124,216);fill-opacity:1;" d="M 35 11.667969 C -26.210938 7.488281 -79.21875 53.722656 -83.398438 114.9375 C -87.574219 176.148438 -41.339844 229.15625 19.871094 233.332031 C 79.890625 237.511719 131.933594 192.242188 136.109375 132.222656 C 140.289063 72.203125 95.019531 20.160156 35 15.984375 C 40.136719 16.132813 45.257813 15.371094 50.128906 13.726563 C 45.234375 12.203125 40.121094 11.507813 35 11.667969 Z "/>
<path style=" stroke:none;fill-rule:nonzero;fill:rgb(229,243,255);fill-opacity:1;" d="M 49.15625 35 L 49.15625 41.339844 L 45.265625 41.339844 C 44.902344 55.660156 44.5 55.464844 44.140625 40.792969 L 44.140625 35 L 38.890625 35 L 38.890625 41.921875 C 40.066406 119.578125 41.585938 120.933594 42.777344 45.382813 L 48.570313 45.382813 L 49.582031 44.878906 C 49.582031 44.878906 49.15625 204.320313 48.570313 212.101563 L 39.316406 212.101563 L 39.316406 215.988281 L 49.660156 215.988281 C 96.742188 217.308594 135.976563 180.214844 137.296875 133.136719 C 138.617188 86.058594 101.523438 46.820313 54.445313 45.5 L 54.445313 35 Z "/>
<path style=" stroke:none;fill-rule:nonzero;fill:rgb(229,243,255);fill-opacity:1;" d="M 37.0625 35 L 37.0625 33.09375 C 36.496094 29.898438 35.832031 28.835938 35.195313 30.101563 C 34.566406 29.902344 33.910156 29.796875 33.25 29.789063 L 258.804688 29.789063 L 30.214844 37.179688 L 26.328125 29.789063 C 25.84375 -119.542969 24.457031 -220.738281 22.886719 -220.738281 C 21.316406 -220.738281 19.925781 -119.542969 19.445313 29.789063 C 9.78125 29.242188 1.5 36.632813 0.953125 46.296875 C 0.40625 55.960938 7.796875 64.242188 17.460938 64.789063 C 16.101563 107.566406 15.789063 197.011719 15.789063 348.679688 L 15.789063 361.550781 L 20.339844 361.550781 L 20.339844 37.179688 L 22.789063 43.285156 C 23.449219 44.84375 24.980469 45.859375 26.679688 45.851563 C 28.390625 45.851563 29.089844 44.839844 57.789063 43.285156 L 55.183594 37.410156 L 55.183594 45.773438 L 36.984375 45.773438 L 36.984375 35 Z "/>
</g>
</svg>
