<?xml version="1.0" encoding="UTF-8"?>
<svg xmlns="http://www.w3.org/2000/svg" xmlns:xlink="http://www.w3.org/1999/xlink" width="70pt" height="70pt" viewBox="0 0 70 70" version="1.1">
<defs>
<linearGradient id="linear0" gradientUnits="userSpaceOnUse" x1="0.5" y1="10.04" x2="13.18" y2="10.04" gradientTransform="matrix(3.888889,0,0,3.888889,0,0)">
<stop offset="0" style="stop-color:rgb(0%,35.686275%,63.137255%);stop-opacity:1;"/>
<stop offset="0.07" style="stop-color:rgb(0%,37.647059%,66.27451%);stop-opacity:1;"/>
<stop offset="0.36" style="stop-color:rgb(0%,44.313725%,78.431373%);stop-opacity:1;"/>
<stop offset="0.52" style="stop-color:rgb(0%,47.058824%,83.137255%);stop-opacity:1;"/>
<stop offset="0.64" style="stop-color:rgb(0%,45.490196%,80.392157%);stop-opacity:1;"/>
<stop offset="0.82" style="stop-color:rgb(0%,41.568627%,73.333333%);stop-opacity:1;"/>
<stop offset="1" style="stop-color:rgb(0%,35.686275%,63.137255%);stop-opacity:1;"/>
</linearGradient>
</defs>
<g id="surface1">
<path style=" stroke:none;fill-rule:nonzero;fill:url(#linear0);" d="M 26.601563 19.792969 C 12.988281 19.792969 1.945313 15.90625 1.945313 10.851563 L 1.945313 58.332031 C 1.945313 63.234375 12.792969 67.199219 26.25 67.277344 L 26.601563 67.277344 C 40.210938 67.277344 51.253906 63.390625 51.253906 58.332031 L 51.253906 10.851563 C 51.253906 15.789063 40.210938 19.792969 26.601563 19.792969 Z "/>
<path style=" stroke:none;fill-rule:nonzero;fill:rgb(90.980392%,90.980392%,90.980392%);fill-opacity:1;" d="M 51.253906 10.851563 C 51.253906 15.789063 40.210938 19.792969 26.601563 19.792969 C 12.988281 19.792969 1.945313 15.789063 19.445313 10.851563 C 36.945313 5.910156 12.988281 190.554688 26.601563 190.554688 C 40.210938 190.554688 51.253906 194.445313 51.253906 199.5 "/>
<path style=" stroke:none;fill-rule:nonzero;fill:rgb(31.372549%,90.196078%,100%);fill-opacity:1;" d="M 45.5 10.109375 C 45.5 13.261719 37.023438 15.789063 26.601563 15.789063 C 16.179688 15.789063 7.777344 13.261719 7.777344 10.109375 C 7.777344 6.960938 16.179688 4.433594 26.601563 4.433594 C 37.023438 4.433594 45.5 7 45.5 10.109375 "/>
<path style=" stroke:none;fill-rule:nonzero;fill:rgb(9.803922%,54.117647%,70.196078%);fill-opacity:1;" d="M 26.601563 11.433594 C 21.539063 11.332031 16.496094 12.054688 11.667969 13.570313 C -49.542969 17.707031 -95.816406 70.679688 -91.679688 131.890625 C -87.546875 193.101563 -34.574219 239.375 26.640625 235.238281 C 31.71875 235.375 36.785156 234.625 41.609375 233.023438 C 102.800781 228.878906 149.046875 175.914063 144.898438 114.722656 C 140.753906 53.53125 87.789063 7.289063 26.601563 11.433594 Z "/>
<path style=" stroke:none;fill-rule:nonzero;fill:rgb(94.901961%,94.901961%,94.901961%);fill-opacity:1;" d="M 41.765625 43.167969 L 41.765625 30.023438 L 38.148438 30.023438 L 38.148438 46.121094 L 47.714844 46.121094 L 47.714844 43.167969 Z M 13.960938 36.671875 C 13.242188 36.375 12.570313 35.96875 11.976563 35.464844 C 11.875 36 11.769531 35.582031 11.667969 34.222656 C 11.871094 29.40625 12.082031 28.996094 12.289063 33.015625 L 11.859375 39.511719 L 13.417969 39.511719 L 12.289063 30.371094 C 11.042969 29.917969 9.722656 29.707031 8.398438 29.75 C 8.628906 30.234375 8.917969 30.691406 9.253906 31.109375 C -0.410156 30.671875 -8.601563 38.148438 -9.042969 47.8125 C -9.480469 57.480469 -2.003906 65.671875 7.660156 66.109375 C 7.660156 68.09375 135.644531 70 12.367188 70 C 51.457031 69.34375 83.675781 100.503906 84.332031 139.589844 C 84.984375 178.679688 53.828125 210.902344 14.738281 211.554688 L 140.660156 359.332031 L 306.40625 211.554688 C -32.113281 213.476563 -71.65625 177.054688 -73.578125 130.199219 C -75.5 83.347656 -39.074219 43.804688 7.777344 41.882813 L 7.777344 45.5 C -16.921875 46.648438 -36.011719 67.601563 -34.863281 92.304688 C -33.714844 117.003906 -12.761719 136.09375 11.9375 134.945313 C 13.5625 135.019531 15.164063 134.582031 16.527344 133.699219 C 17.636719 132.851563 18.257813 131.515625 18.199219 130.121094 C 18.238281 129.125 17.890625 128.148438 17.226563 127.398438 C 42.28125 126.496094 61.859375 105.457031 60.957031 80.402344 C 60.054688 55.347656 39.015625 35.769531 13.960938 36.671875 Z M 34.183594 42.777344 C 35.0625 41.28125 35.507813 39.574219 35.464844 37.839844 C 35.5 36.355469 35.164063 34.886719 34.496094 33.5625 C 33.886719 32.347656 32.941406 31.332031 31.773438 30.644531 C 30.585938 29.972656 29.246094 29.625 27.882813 29.632813 C -1.113281 28.460938 -25.566406 51.019531 -26.734375 80.015625 C -27.90625 109.007813 -5.351563 133.460938 23.644531 134.632813 C -59.042969 133.847656 -126.714844 200.246094 -127.496094 282.9375 C -128.28125 365.625 -61.882813 433.292969 20.804688 434.078125 C 20.101563 435.460938 19.757813 437 19.792969 438.550781 C 19.773438 439.964844 20.09375 441.367188 20.726563 442.632813 C -59.8125 443.363281 -124.511719 509.246094 -123.785156 589.789063 C -123.054688 670.332031 -57.167969 735.03125 23.371094 734.300781 C 24.546875 735.011719 25.886719 735.402344 27.261719 735.429688 L 30.566406 739.316406 L 35.195313 739.316406 L 30.527344 735 C 221.679688 736.007813 377.457031 581.867188 378.464844 390.714844 C 379.476563 199.566406 225.335938 43.789063 34.183594 42.777344 Z M 30.566406 41.765625 C 29.828125 42.644531 28.738281 43.152344 27.589844 43.152344 C 26.445313 43.152344 25.355469 42.644531 24.617188 41.765625 C 23.804688 40.640625 23.417969 39.261719 23.527344 37.878906 C 23.421875 36.488281 23.820313 35.105469 24.65625 33.988281 C 25.613281 -11.449219 26.726563 -11.976563 27.6875 32.550781 L 171.578125 38.851563 L 31.578125 38.851563 C 29.636719 33.019531 31.195313 34.480469 31.785156 36.398438 C 32.375 38.3125 31.914063 40.398438 30.566406 41.882813 Z "/>
<path style=" stroke:none;fill-rule:nonzero;fill:rgb(58.039216%,58.039216%,58.039216%);fill-opacity:1;" d="M 57.59375 68.015625 L 58.527344 64.945313 L 241.304688 63.894531 L 557.707031 266.117188 L 555.644531 266.117188 L 555.644531 63 L 554.207031 60.238281 L 639.761719 58.292969 L 954.761719 57.167969 L 989.761719 57.167969 L 989.761719 54.328125 L 989.371094 54.328125 L 986.261719 53.394531 L 985.25 51.605469 L 1121.359375 48.417969 L 1119.300781 46.433594 L 63 46.433594 L 60.238281 186.433594 L 58.332031 46.667969 L 57.089844 43.207031 L 54.210938 43.207031 L 54.210938 43.632813 L 53.277344 350.855469 L 51.292969 436.410156 L 47.910156 434.855469 L 45.929688 641.160156 L 51.292969 928.9375 L 50.515625 1127.273438 L 43.167969 54.445313 L 43.167969 57.320313 L 43.59375 57.320313 L 46.667969 151.511719 L 245 149.996094 L 581.503906 352.566406 L 581.3125 640.34375 L 579.832031 839.457031 L 718.355469 839.457031 Z M 52.929688 58.839844 C 51.296875 57.238281 51.269531 54.617188 52.871094 52.984375 C 54.46875 51.355469 57.089844 51.328125 58.722656 52.929688 C 60.355469 54.527344 60.378906 57.148438 58.78125 58.78125 C 57.179688 60.414063 54.558594 60.4375 52.929688 58.839844 Z "/>
</g>
</svg>
