<?xml version="1.0" encoding="UTF-8"?>
<svg xmlns="http://www.w3.org/2000/svg" xmlns:xlink="http://www.w3.org/1999/xlink" width="70pt" height="70pt" viewBox="0 0 70 70" version="1.1">
<defs>
<linearGradient id="linear0" gradientUnits="userSpaceOnUse" x1="2.44" y1="10.67" x2="15.27" y2="10.67" gradientTransform="matrix(3.888889,-0.000678739,0.000678739,3.888889,0.544444,-1.944444)">
<stop offset="0" style="stop-color:rgb(0,81,142);stop-opacity:1;"/>
<stop offset="0.07" style="stop-color:rgb(0,86,150);stop-opacity:1;"/>
<stop offset="0.36" style="stop-color:rgb(0,101,176);stop-opacity:1;"/>
<stop offset="0.52" style="stop-color:rgb(0,108,188);stop-opacity:1;"/>
<stop offset="0.64" style="stop-color:rgb(0,103,180);stop-opacity:1;"/>
<stop offset="0.82" style="stop-color:rgb(0,95,166);stop-opacity:1;"/>
<stop offset="1" style="stop-color:rgb(0,81,142);stop-opacity:1;"/>
</linearGradient>
</defs>
<g id="surface1">
<path style=" stroke:none;fill-rule:nonzero;fill:url(#linear0);" d="M 35 19.988281 C 21.234375 19.988281 10.070313 16.101563 10.070313 10.964844 L 10.070313 59.035156 C 10.070313 63.972656 21.039063 67.976563 34.648438 68.054688 L 35 68.054688 C 48.765625 68.054688 59.929688 64.167969 59.929688 59.035156 L 59.929688 10.964844 C 59.929688 15.945313 48.765625 19.988281 35 19.988281 Z "/>
<path style=" stroke:none;fill-rule:nonzero;fill:rgb(209,235,255);fill-opacity:1;" d="M 59.929688 10.964844 C 59.929688 15.945313 48.765625 19.988281 35 19.988281 C 21.234375 19.988281 10.070313 16.101563 10.070313 10.964844 C 10.070313 5.832031 21.234375 19.445313 35 1.945313 C 48.765625 -15.554688 59.929688 5.832031 59.929688 10.964844 "/>
<path style=" stroke:none;fill-rule:nonzero;fill:rgb(119,197,255);fill-opacity:1;" d="M 54.09375 10.226563 C 54.09375 13.417969 45.539063 15.984375 35 15.984375 C 24.460938 15.984375 15.867188 13.417969 15.867188 10.265625 C 15.867188 7.117188 24.421875 4.511719 35 4.511719 C 45.578125 4.511719 54.09375 261.179688 54.09375 10.226563 "/>
<path style=" stroke:none;fill-rule:nonzero;fill:rgb(0,124,216);fill-opacity:1;" d="M 35 11.667969 C -26.210938 7.476563 -79.226563 53.707031 -83.417969 114.917969 C -87.605469 176.128906 -41.378906 229.144531 19.832031 233.332031 C 79.851563 237.523438 131.902344 192.261719 136.089844 132.242188 C 140.28125 72.222656 95.019531 20.171875 35 15.984375 C 40.136719 16.109375 45.253906 15.34375 50.128906 13.726563 C 45.234375 12.210938 40.121094 11.511719 35 11.667969 Z "/>
<path style=" stroke:none;fill-rule:nonzero;fill:rgb(229,243,255);fill-opacity:1;" d="M 46.667969 35 C 46.667969 35.3125 46.667969 35.933594 46.667969 36.632813 C -20.988281 36.546875 -75.902344 91.324219 -75.988281 158.976563 C -76.074219 226.632813 -21.300781 281.546875 46.355469 281.632813 C 46.355469 282.101563 46.355469 282.800781 67.589844 282.800781 C 88.820313 282.800781 67.589844 283.851563 67.589844 284.199219 C 160.40625 284.46875 235.429688 359.929688 235.160156 452.746094 C 234.894531 545.558594 159.433594 620.585938 66.617188 620.316406 L 66.890625 620.316406 L 67.003906 666.984375 C 68.757813 664.082031 70.140625 660.972656 71.128906 657.726563 C 72.214844 654.035156 191.683594 651.390625 106.128906 650.261719 C 103.621094 647.183594 99.535156 645.871094 95.707031 646.917969 C 167.65625 645.9375 226.777344 703.472656 227.753906 775.425781 C 228.730469 847.375 171.195313 906.496094 99.246094 907.472656 C -141.683594 921.992188 -348.761719 738.453125 -363.28125 497.523438 C -377.800781 256.597656 -194.261719 49.519531 46.667969 35 Z M 45.460938 66.109375 C 35.796875 65.261719 27.273438 72.410156 26.425781 82.074219 C 25.578125 91.738281 32.722656 100.261719 42.390625 101.109375 C 41.261719 171.109375 41.609375 315 42.390625 105 C -48.890625 105.375 -122.585938 179.679688 -122.207031 270.957031 C -121.832031 362.238281 -47.53125 435.929688 43.75 435.554688 L 44.101563 497.777344 C 44.292969 529.199219 102.859375 505.554688 102.859375 505.554688 L 103.171875 556.109375 C 103.628906 555.347656 103.867188 554.472656 103.871094 553.582031 C 103.898438 553.15625 103.898438 552.726563 103.871094 552.300781 C 103.871094 551.640625 103.871094 550.898438 103.679688 550.394531 C 103.730469 549.496094 103.835938 548.597656 103.988281 547.710938 C 45.539063 35.933594 45.578125 35.503906 45.617188 35.195313 Z M 44.292969 225.554688 C 44.097656 227.441406 43.859375 228.78125 43.59375 229.445313 C 43.414063 233.339844 43.230469 233.339844 43.050781 229.445313 C 42.515625 236.960938 42.023438 199.875 41.949219 146.609375 C 41.875 93.347656 42.246094 44.074219 42.777344 36.554688 C 42.777344 36.285156 85.554688 36.050781 136.109375 35.972656 L 135.371094 35.972656 C 135.371094 35.894531 135.023438 35.972656 135.722656 67.082031 C 134.886719 319.125 113.777344 516.664063 88.570313 508.296875 C 63.367188 499.929688 43.613281 288.832031 44.449219 36.789063 Z M 26.054688 571.667969 C 26.054688 571.394531 26.054688 571.160156 26.054688 571.003906 C 26.074219 570.785156 26.074219 570.5625 26.054688 570.34375 C 25.9375 569.050781 25.9375 567.75 26.054688 566.457031 C -121.839844 566.132813 -241.472656 445.980469 -241.148438 298.082031 C -240.828125 150.1875 -120.671875 30.554688 27.222656 30.878906 C 27.679688 29.5 28.453125 28.25 29.476563 27.222656 C 27.773438 26.714844 26.007813 26.453125 24.226563 26.445313 C 21.738281 26.9375 19.683594 28.691406 18.808594 31.074219 C 17.933594 33.457031 18.367188 36.125 19.949219 38.109375 C 19.464844 36.765625 18.617188 35.582031 17.5 34.6875 C 17.875 37.648438 18.527344 40.5625 19.445313 43.398438 C 20.765625 47.832031 303.332031 50.554688 23.605469 50.984375 C 24.1875 71.632813 23.605469 52.8125 22.789063 159.871094 C 21.464844 369.871094 20.339844 428.207031 19.679688 428.207031 C -87.453125 426.402344 -172.835938 338.09375 -171.035156 230.960938 C -169.230469 123.832031 -80.917969 38.445313 26.210938 40.25 Z M 27.066406 587.222656 C -33.070313 587.285156 -81.769531 636.089844 -81.707031 696.226563 C -81.640625 756.367188 -32.835938 805.0625 27.300781 805 C -19.949219 805.277344 -58.027344 843.808594 -57.75 891.0625 C -57.472656 938.3125 -18.941406 976.390625 28.3125 976.109375 C 1.464844 976.488281 -19.996094 998.554688 -19.621094 1025.402344 C -19.242188 1052.25 2.824219 1073.710938 29.671875 1073.332031 C 21.082031 1073.753906 14.457031 1081.054688 14.875 1089.648438 C 15.292969 1098.238281 22.597656 1104.863281 31.1875 1104.445313 C 31.1875 1103.785156 85.632813 1102.964844 120.632813 1102.109375 C 120.960938 1101.367188 121.234375 1100.601563 121.449219 1099.816406 C 121.570313 1098.378906 121.570313 1096.9375 121.449219 1095.5 C 121.449219 1095.148438 121.449219 1094.761719 121.214844 1094.332031 C 121.0625 1091.902344 120.90625 1091.546875 120.75 1093.285156 C 123.671875 -1382.027344 105.972656 -3625.496094 81.21875 -3917.648438 C 56.46875 -4209.796875 34.03125 -2440 31.109375 35.3125 L 30.332031 35.3125 C 15.300781 34.796875 2.691406 46.566406 2.179688 61.601563 C 1.664063 76.632813 13.433594 89.238281 28.464844 89.753906 C 43.148438 89.410156 54.769531 77.234375 54.425781 62.554688 C 54.082031 47.871094 41.902344 36.25 27.222656 36.59375 L 27.222656 37.023438 C 27.222656 37.800781 27.222656 38.617188 27.222656 39.394531 C 27.222656 39.589844 27.222656 39.785156 27.222656 39.976563 L 27.222656 41.496094 Z M 29.632813 582.011719 C 29.988281 570.695313 30.367188 570.695313 30.722656 582.011719 C 31.390625 587.769531 31.675781 596.796875 31.460938 605.34375 C 31.8125 605.34375 31.851563 648.472656 85.90625 648.472656 C 85.792969 668.851563 85.632813 686.199219 85.4375 699.027344 C 67.179688 849.050781 40.21875 822.65625 25.214844 640.070313 C 10.214844 457.488281 12.851563 187.859375 31.109375 37.839844 C 30.761719 53.132813 30.367188 52.734375 30.023438 36.75 Z M 26.753906 593.679688 C 26.566406 595.878906 26.390625 604.050781 26.25 617.011719 L 25.707031 683.121094 C 25.042969 764.789063 24.773438 792.011719 22.867188 830.898438 C 22.53125 824.335938 22.183594 826.453125 21.855469 837.042969 L 64.632813 841.632813 L 21.855469 841.632813 C 239.039063 840.082031 417.5625 666.484375 420.601563 449.304688 C 423.640625 232.121094 250.042969 53.59375 32.859375 50.554688 C 33.121094 54.4375 33.382813 54.027344 33.640625 49.351563 L 32.550781 49.351563 C 33.53125 32.925781 33.351563 22.910156 33.15625 22.675781 C 32.960938 22.441406 32.777344 32.019531 32.667969 48.183594 Z M 44.683594 593.679688 C 43.265625 594.203125 41.707031 594.203125 40.289063 593.679688 C 40.113281 587.75 39.921875 587.75 39.746094 593.679688 C 38.242188 591.851563 36.875 602.558594 36.691406 617.59375 C 36.507813 632.628906 37.578125 646.296875 39.082031 648.121094 C 39.027344 648.523438 39.027344 648.929688 39.082031 649.328125 C 40.515625 649.648438 42.011719 649.511719 43.359375 648.9375 C 44.074219 648.640625 44.710938 648.1875 45.226563 647.617188 Z M 35.351563 585.355469 C 34.804688 583.761719 34.027344 581.464844 34.648438 580.066406 C 35.703125 579.480469 36.925781 579.273438 38.109375 579.484375 C 189.925781 580.773438 314.042969 458.746094 315.332031 306.929688 C 316.621094 155.113281 194.59375 31 42.777344 29.710938 L 42.390625 29.320313 L 42.15625 29.089844 C 42.078125 28.324219 42 28.246094 41.921875 28.855469 C 41.152344 28.167969 40.273438 27.613281 39.316406 27.222656 C 37.957031 26.628906 36.484375 26.335938 35 26.367188 C 23.1875 25.613281 13 34.582031 12.25 46.394531 C 11.5 58.207031 20.464844 68.394531 32.277344 69.144531 C 43.855469 68.824219 52.976563 59.175781 52.65625 47.601563 C 52.332031 36.023438 42.6875 26.898438 31.109375 27.222656 C 29.78125 28.199219 28.777344 29.554688 28.234375 31.109375 C 27.847656 32.382813 27.574219 33.683594 27.417969 35 C 28.585938 34.296875 29.949219 33.984375 31.304688 34.105469 L 385.195313 62.339844 L 36.246094 49.15625 L 276.304688 49.15625 C 31.070313 100.214844 30.761719 170.214844 30.605469 224.660156 C 32.179688 220.582031 33.785156 230.035156 34.195313 245.777344 C 34.601563 261.519531 33.65625 277.589844 32.082031 281.671875 L 238.195313 281.671875 L 35 281.671875 C 35 281.984375 35 282.292969 35 282.605469 C 34.710938 285.800781 35.027344 289.019531 35.933594 292.09375 L 119.933594 315.429688 L 40.988281 297.148438 L 40.015625 296.179688 C 35.660156 290.34375 121.488281 285.484375 129.265625 284.316406 C 129.382813 283.015625 129.5 282.445313 129.617188 282.605469 L 128.683594 282.605469 C 62.574219 307.003906 -11.554688 272.433594 -35.953125 205.390625 C -60.351563 138.347656 -25.78125 64.222656 41.261719 39.820313 Z "/>
</g>
</svg>
