<?xml version="1.0" encoding="UTF-8"?>
<svg xmlns="http://www.w3.org/2000/svg" xmlns:xlink="http://www.w3.org/1999/xlink" width="70pt" height="70pt" viewBox="0 0 70 70" version="1.1">
<defs>
<linearGradient id="linear0" gradientUnits="userSpaceOnUse" x1="2.59" y1="10.16" x2="15.41" y2="10.16" gradientTransform="matrix(3.888889,0,0,3.888889,0,0)">
<stop offset="0" style="stop-color:rgb(0,81,142);stop-opacity:1;"/>
<stop offset="0.07" style="stop-color:rgb(0,86,150);stop-opacity:1;"/>
<stop offset="0.36" style="stop-color:rgb(0,101,176);stop-opacity:1;"/>
<stop offset="0.52" style="stop-color:rgb(0,108,188);stop-opacity:1;"/>
<stop offset="0.64" style="stop-color:rgb(0,103,180);stop-opacity:1;"/>
<stop offset="0.82" style="stop-color:rgb(0,95,166);stop-opacity:1;"/>
<stop offset="1" style="stop-color:rgb(0,81,142);stop-opacity:1;"/>
</linearGradient>
<radialGradient id="radial0" gradientUnits="userSpaceOnUse" cx="9.36" cy="10.57" fx="9.36" fy="10.57" r="7.07" gradientTransform="matrix(3.888889,0,0,3.888889,0,0)">
<stop offset="0" style="stop-color:rgb(229,243,255);stop-opacity:1;"/>
<stop offset="0.58" style="stop-color:rgb(221,240,255);stop-opacity:1;"/>
<stop offset="1" style="stop-color:rgb(205,233,255);stop-opacity:1;"/>
</radialGradient>
</defs>
<g id="surface1">
<path style=" stroke:none;fill-rule:nonzero;fill:url(#linear0);" d="M 35 19.988281 C 21.234375 19.988281 10.070313 16.101563 10.070313 10.964844 L 10.070313 59.035156 C 10.070313 63.972656 21.039063 67.976563 34.648438 68.054688 L 35 68.054688 C 48.765625 68.054688 59.929688 64.167969 59.929688 59.035156 L 59.929688 10.964844 C 59.929688 15.984375 48.765625 19.988281 35 19.988281 Z "/>
<path style=" stroke:none;fill-rule:nonzero;fill:rgb(209,235,255);fill-opacity:1;" d="M 59.929688 10.964844 C 59.929688 15.984375 48.765625 19.988281 35 19.988281 C 21.234375 19.988281 10.070313 16.101563 10.070313 10.964844 C 10.070313 5.832031 21.234375 19.445313 35 1.945313 C 48.765625 -15.554688 59.929688 5.832031 59.929688 10.964844 "/>
<path style=" stroke:none;fill-rule:nonzero;fill:rgb(119,197,255);fill-opacity:1;" d="M 54.132813 10.226563 C 54.132813 13.417969 45.539063 15.984375 35 15.984375 C 24.460938 15.984375 15.867188 13.417969 15.867188 10.226563 C 15.867188 7.039063 24.460938 4.511719 35 4.511719 C 45.539063 4.511719 54.132813 261.179688 54.132813 10.226563 "/>
<path style=" stroke:none;fill-rule:nonzero;fill:rgb(0,124,216);fill-opacity:1;" d="M 35 11.667969 C -26.210938 7.488281 -79.21875 53.722656 -83.398438 114.9375 C -87.574219 176.148438 -41.339844 229.15625 19.871094 233.332031 C 79.890625 237.511719 131.933594 192.242188 136.109375 132.222656 C 140.289063 72.203125 95.019531 20.160156 35 15.984375 C 40.136719 16.132813 45.257813 15.371094 50.128906 13.726563 C 45.234375 12.203125 40.121094 11.507813 35 11.667969 Z "/>
<path style=" stroke:none;fill-rule:nonzero;fill:url(#radial0);" d="M 50.167969 44.332031 L 50.167969 31.109375 L 46.667969 31.109375 L 46.667969 47.171875 L 56.234375 47.171875 L 56.234375 44.332031 Z M 22.398438 37.839844 C 21.675781 37.546875 21.007813 37.140625 20.417969 36.632813 L 19.171875 170.179688 L 287.503906 36.632813 L 26.714844 36.632813 L 20.417969 31.539063 C 19.175781 31.078125 17.851563 30.863281 16.527344 30.917969 C -19.984375 29.746094 -50.53125 58.394531 -51.703125 94.910156 C -52.875 131.421875 -24.222656 161.96875 12.289063 163.140625 C -83.285156 162.6875 -161.132813 239.800781 -161.582031 335.378906 C -162.035156 430.953125 -84.921875 508.800781 10.65625 509.25 C 10.65625 511.234375 138.640625 513.140625 15.359375 513.140625 C 54.472656 512.472656 86.71875 543.640625 87.382813 582.75 C 88.050781 621.859375 56.882813 654.105469 17.773438 654.773438 L 143.695313 802.550781 L 332.773438 654.773438 L 24.226563 654.773438 L 17.773438 46.667969 C -8 47.816406 -27.964844 69.640625 -26.8125 95.414063 C -25.664063 121.1875 -3.839844 141.148438 21.933594 140 C 23.5625 140.097656 25.179688 139.644531 26.523438 138.714844 C 53.015625 138.738281 74.507813 117.277344 74.53125 90.785156 C 74.550781 64.292969 53.09375 42.800781 26.601563 42.777344 C 26.617188 41.78125 26.273438 40.8125 25.628906 40.054688 C 24.71875 39.097656 23.621094 38.34375 22.398438 37.839844 Z M 42.777344 44.023438 C 43.660156 42.542969 44.105469 40.84375 44.0625 39.121094 C 43.972656 37.664063 43.53125 36.25 42.777344 35 C 42.171875 33.785156 41.226563 32.773438 40.054688 32.082031 C 38.871094 31.410156 37.527344 31.0625 36.167969 31.070313 C 7.171875 29.914063 -17.273438 52.476563 -18.433594 81.472656 C -19.59375 110.46875 2.972656 134.914063 31.964844 136.070313 C 59.878906 135.289063 81.867188 112.027344 81.082031 84.117188 C 80.300781 56.207031 57.039063 34.214844 29.128906 35 C 28.4375 36.375 28.09375 37.894531 28.117188 39.433594 C 28.125 40.785156 28.445313 42.113281 29.050781 43.320313 C -50.417969 44.0625 -114.238281 109.085938 -113.496094 188.554688 C -112.757813 268.019531 -47.734375 331.839844 31.734375 331.101563 C 32.90625 331.816406 34.246094 332.21875 35.621094 332.265625 L 38.964844 336.15625 L 43.671875 336.15625 L 38.890625 46.976563 C 40.5 46.496094 41.882813 45.445313 42.777344 44.023438 Z M 38.890625 43.050781 C 38.179688 133.523438 37.082031 185.273438 35.933594 182.738281 L 34.535156 188.648438 L 32.042969 188.6875 L 32.042969 186.628906 L 34.496094 524.457031 L 42.234375 189.039063 C -2.640625 181.921875 -33.25 149.992188 -32.433594 111.417969 C -31.617188 72.84375 0.316406 42.234375 38.890625 43.050781 Z "/>
</g>
</svg>
