<?xml version="1.0" encoding="UTF-8"?>
<svg xmlns="http://www.w3.org/2000/svg" xmlns:xlink="http://www.w3.org/1999/xlink" width="70pt" height="70pt" viewBox="0 0 70 70" version="1.1">
<defs>
<radialGradient id="radial0" gradientUnits="userSpaceOnUse" cx="-105.006" cy="-10.409" fx="-105.006" fy="-10.409" r="5.954" gradientTransform="matrix(4.028889,0,0,3.993889,457.873889,76.393333)">
<stop offset="0.183" style="stop-color:rgb(41,164,255);stop-opacity:1;"/>
<stop offset="1" style="stop-color:rgb(0,108,188);stop-opacity:1;"/>
</radialGradient>
<clipPath id="clip1">
  <path d="M 11 31 L 29 31 L 29 52 L 11 52 Z "/>
</clipPath>
<clipPath id="clip2">
  <path d="M 58.210938 29.285156 C 61.277344 42.101563 53.367188 54.980469 40.546875 58.042969 C 27.726563 61.105469 14.851563 53.195313 11.785156 40.375 C 8.722656 27.554688 16.632813 14.679688 29.453125 11.617188 C 42.273438 8.554688 55.148438 16.464844 58.210938 29.285156 Z "/>
</clipPath>
<clipPath id="clip3">
  <path d="M 35 18 L 59 18 L 59 43 L 35 43 Z "/>
</clipPath>
<clipPath id="clip4">
  <path d="M 58.210938 29.285156 C 61.277344 42.101563 53.367188 54.980469 40.546875 58.042969 C 27.726563 61.105469 14.851563 53.195313 11.785156 40.375 C 8.722656 27.554688 16.632813 14.679688 29.453125 11.617188 C 42.273438 8.554688 55.148438 16.464844 58.210938 29.285156 Z "/>
</clipPath>
</defs>
<g id="surface1">
<path style=" stroke:none;fill-rule:nonzero;fill:rgb(119,197,255);fill-opacity:1;" d="M 11.488281 20.480469 C 11.277344 143.339844 11.015625 143.078125 10.804688 19.792969 C 10.796875 15.480469 7.304688 11.988281 2.992188 11.980469 C 2.777344 134.035156 2.519531 133.777344 2.304688 11.300781 C 2.519531 -111.175781 2.777344 -111.4375 2.992188 10.617188 C -71.585938 12.773438 -130.292969 74.980469 -128.136719 149.554688 C -125.976563 224.132813 -63.773438 282.839844 10.804688 280.679688 L 2115.554688 280.679688 L 10.804688 280.679688 C 10.804688 -97.328125 11.109375 -403.917969 11.488281 -404.105469 C 11.867188 -404.292969 12.171875 -98.007813 12.171875 280 C 86.5625 282.15625 148.613281 223.601563 150.773438 149.210938 C 152.929688 74.824219 94.375 12.769531 19.984375 10.613281 C 20.167969 9.570313 20.339844 81.347656 20.46875 209.933594 C 20.597656 338.515625 20.671875 513.214844 20.667969 695.058594 C 20.671875 876.902344 20.597656 1051.597656 20.46875 1180.183594 C 20.339844 1308.765625 20.167969 1380.542969 19.984375 1379.5 C 395.457031 1377.34375 698.089844 1071.214844 695.933594 695.742188 C 693.773438 320.269531 387.644531 17.636719 12.171875 19.792969 L 20.480469 19.792969 Z "/>
<path style=" stroke:none;fill-rule:nonzero;fill:rgb(119,197,255);fill-opacity:1;" d="M 60.710938 67.882813 C 60.539063 165.664063 60.332031 165.457031 60.160156 67.335938 C 60.15625 63.886719 57.363281 61.089844 53.910156 61.085938 L 53.367188 61.085938 L 53.910156 61.085938 C 54.082031 -37.035156 54.289063 -37.242188 54.460938 60.539063 C 57.910156 60.535156 60.707031 57.738281 60.710938 54.289063 L 60.160156 54.289063 L 60.710938 54.289063 C 61.011719 54.289063 61.257813 299.785156 61.257813 602.621094 C 61.261719 606.074219 64.054688 608.871094 67.507813 608.871094 L 68.605469 608.871094 L 67.507813 608.871094 C 64.058594 608.875 61.261719 611.671875 61.257813 615.121094 C 60.957031 615.121094 60.710938 370.292969 60.710938 67.882813 Z "/>
<path style=" stroke:none;fill-rule:nonzero;fill:url(#radial0);" d="M 58.210938 29.285156 C 61.277344 42.101563 53.367188 54.980469 40.546875 58.042969 C 27.726563 61.105469 14.851563 53.195313 11.785156 40.375 C 8.722656 27.554688 16.632813 14.679688 29.453125 11.617188 C 42.273438 8.554688 55.148438 16.464844 58.210938 29.285156 Z "/>
<g clip-path="url(#clip1)" clip-rule="nonzero">
<g clip-path="url(#clip2)" clip-rule="nonzero">
<path style=" stroke:none;fill-rule:nonzero;fill:rgb(229,243,255);fill-opacity:1;" d="M 22.203125 51.003906 C 24.515625 51.0625 26.675781 49.867188 27.855469 47.875 C 29.03125 45.882813 29.035156 43.410156 27.863281 41.414063 C 26.695313 39.417969 24.535156 38.214844 22.222656 38.265625 C 22.238281 38.085938 22.25 37.902344 22.25 37.722656 C 22.214844 34.183594 19.328125 31.339844 15.789063 31.359375 L 11.011719 31.359375 C 10.066406 38.503906 12.339844 45.699219 17.214844 51.003906 Z "/>
</g>
</g>
<g clip-path="url(#clip3)" clip-rule="nonzero">
<g clip-path="url(#clip4)" clip-rule="nonzero">
<path style=" stroke:none;fill-rule:nonzero;fill:rgb(229,243,255);fill-opacity:1;" d="M 58.507813 30.390625 C 58.507813 30.332031 58.507813 30.273438 58.480469 30.21875 C 57.710938 26.058594 55.820313 22.1875 53.011719 19.019531 C 52.648438 18.871094 52.273438 18.757813 51.890625 18.671875 C 49.820313 18.078125 47.59375 18.472656 45.847656 19.734375 C 44.101563 20.996094 43.03125 22.988281 42.945313 25.136719 C 42.6875 25.109375 42.425781 25.089844 42.167969 25.085938 C 38.878906 25.085938 36.066406 27.453125 35.507813 30.695313 C 34.953125 33.9375 36.808594 37.109375 39.90625 38.207031 C 40.050781 39.738281 40.8125 41.140625 42.011719 42.097656 L 49.90625 42.097656 C 53.304688 38.613281 56.199219 34.675781 58.507813 30.390625 Z "/>
</g>
</g>
<path style=" stroke:none;fill-rule:nonzero;fill:rgb(119,197,255);fill-opacity:1;" d="M 66.855469 14.902344 C 64.40625 10.832031 58.6875 9.242188 50.695313 10.433594 C -434.703125 8.199219 -830.003906 399.878906 -832.242188 885.273438 C -834.476563 1370.671875 -442.796875 1765.976563 42.597656 1768.210938 C 866.269531 1766.570313 1535.316406 2432.957031 1536.957031 3256.628906 C 1538.601563 4080.300781 872.210938 4749.347656 48.542969 4750.988281 C 49.476563 4750.785156 1926.875 4750.539063 2829.097656 4750.402344 C 1521.242188 5516.277344 -159.851563 5076.917969 -925.726563 3769.0625 C -1691.605469 2461.210938 -1252.242188 780.117188 55.609375 14.242188 C 834.179688 12.136719 1467.039063 641.585938 1469.140625 1420.152344 C 1471.246094 2198.722656 841.796875 2831.582031 63.230469 2833.6875 C 64.71875 5315.03125 69.953125 2830.238281 74.894531 2830.238281 C 69.785156 2836.605469 63.519531 2841.949219 56.429688 2845.992188 C -714.757813 2856.421875 -1348.382813 2239.703125 -1358.8125 1468.515625 C -1369.238281 697.328125 -752.519531 63.707031 18.667969 53.277344 C 12.585938 963.277344 8.238281 53.277344 6.746094 50.804688 C 5.257813 48.332031 6.515625 44.078125 3452.304688 39.15625 C 3451.847656 38.546875 4020.082031 38.246094 4537.304688 37.632813 C 4537.058594 35.523438 4537.09375 33.394531 4537.402344 31.292969 C 4535.929688 -1219.789063 3520.53125 -2232.800781 2269.449219 -2231.324219 C 1018.363281 -2229.851563 5.355469 -1214.453125 6.828125 36.628906 C 2.011719 43.074219 703.890625 48.867188 3146.109375 52.9375 C 3148.738281 56.453125 3153.03125 58.300781 3157.390625 57.796875 C 3159.019531 57.789063 3160.644531 57.65625 3162.253906 57.40625 C 3170.828125 55.84375 3179.035156 52.675781 3186.4375 48.074219 C 3194 43.746094 3200.679688 38.03125 3206.121094 31.226563 C 67.988281 24.769531 69.296875 18.976563 66.855469 14.902344 Z "/>
</g>
</svg>
