<?xml version="1.0" encoding="UTF-8"?>
<svg xmlns="http://www.w3.org/2000/svg" xmlns:xlink="http://www.w3.org/1999/xlink" width="70pt" height="70pt" viewBox="0 0 70 70" version="1.1">
<defs>
<linearGradient id="linear0" gradientUnits="userSpaceOnUse" x1="9" y1="12.46" x2="9" y2="1.18" gradientTransform="matrix(3.888889,0,0,3.888889,0,0)">
<stop offset="0" style="stop-color:rgb(0,108,188);stop-opacity:1;"/>
<stop offset="0.82" style="stop-color:rgb(41,164,255);stop-opacity:1;"/>
</linearGradient>
<linearGradient id="linear1" gradientUnits="userSpaceOnUse" x1="9" y1="16.82" x2="9" y2="12.46" gradientTransform="matrix(3.888889,0,0,3.888889,0,0)">
<stop offset="0.15" style="stop-color:rgb(153,211,255);stop-opacity:1;"/>
<stop offset="1" style="stop-color:rgb(0,127,222);stop-opacity:1;"/>
</linearGradient>
<radialGradient id="radial0" gradientUnits="userSpaceOnUse" cx="9.43" cy="7.03" fx="9.43" fy="7.03" r="7.27" gradientTransform="matrix(3.888889,0,0,3.888889,0,0)">
<stop offset="0" style="stop-color:rgb(229,243,255);stop-opacity:1;"/>
<stop offset="0.58" style="stop-color:rgb(221,240,255);stop-opacity:1;"/>
<stop offset="1" style="stop-color:rgb(205,233,255);stop-opacity:1;"/>
</radialGradient>
</defs>
<g id="surface1">
<path style=" stroke:none;fill-rule:nonzero;fill:url(#linear0);" d="M 4.277344 4.589844 L 65.683594 4.589844 C 66.886719 4.589844 67.859375 5.5625 67.859375 6.765625 L 67.859375 46.238281 C 67.859375 47.441406 66.886719 48.417969 65.683594 48.417969 L 4.277344 48.417969 C 3.074219 48.417969 2.101563 47.441406 2.101563 46.238281 L 2.101563 6.765625 C 2.101563 5.5625 3.074219 4.589844 4.277344 4.589844 Z "/>
<path style=" stroke:none;fill-rule:nonzero;fill:url(#linear1);" d="M 48.183594 61.714844 C 41.6875 60.707031 41.417969 56 41.457031 48.457031 L 28.542969 48.457031 C 28.542969 56 28.3125 60.707031 21.816406 61.714844 C 19.914063 62.023438 18.523438 63.679688 18.550781 65.605469 L 51.449219 65.605469 C 51.476563 63.679688 50.085938 62.023438 48.183594 61.714844 Z "/>
<path style=" stroke:none;fill-rule:nonzero;fill:url(#radial0);" d="M 50.828125 30.683594 L 50.828125 17.148438 L 46.9375 17.148438 L 46.9375 33.679688 L 56.777344 33.679688 L 56.777344 30.683594 Z M 22.285156 23.996094 C 21.550781 23.699219 20.871094 23.292969 20.261719 22.789063 L 18.9375 164.1875 L 291.277344 22.789063 L 26.714844 22.789063 L 20.261719 17.539063 C 19.015625 17.082031 17.699219 16.855469 16.371094 16.878906 C -21.214844 15.664063 -52.667969 45.148438 -53.878906 82.734375 C -55.09375 120.320313 -25.609375 151.777344 11.976563 152.988281 C -86.820313 152.539063 -167.277344 232.261719 -167.726563 331.0625 C -168.179688 429.859375 -88.453125 510.316406 10.34375 510.765625 C 144.03125 513.28125 254.445313 406.941406 256.957031 273.253906 C 259.472656 139.566406 153.132813 29.152344 19.445313 26.640625 C 59.617188 25.960938 92.734375 57.980469 93.410156 98.15625 C 94.085938 138.328125 62.070313 171.445313 21.894531 172.121094 L 151.785156 187.679688 C 21.191406 147.382813 20.609375 97.019531 20.261719 31.109375 C 18.648438 31.09375 17.097656 30.484375 15.90625 29.398438 L 15.90625 33.289063 C -9.867188 34.46875 -29.804688 56.320313 -28.621094 82.09375 C -27.441406 107.867188 -5.589844 127.804688 20.183594 126.621094 C 46.117188 127.921875 68.195313 107.949219 69.496094 82.015625 C 70.792969 56.082031 50.824219 34.003906 24.890625 32.707031 C 26.023438 31.839844 26.664063 30.476563 26.601563 29.050781 C 26.648438 28.019531 26.285156 27.011719 25.589844 26.25 C 24.652344 25.28125 23.527344 24.511719 22.285156 23.996094 Z M 43.050781 30.371094 C 43.964844 28.847656 44.421875 27.09375 44.371094 25.316406 C 44.394531 23.792969 44.046875 22.285156 43.359375 20.921875 C 42.738281 19.671875 41.765625 18.632813 40.5625 17.929688 C 39.375 17.25 38.035156 16.890625 36.671875 16.878906 C 6.601563 15.6875 -18.738281 39.09375 -19.929688 69.164063 C -21.121094 99.234375 2.285156 124.574219 32.355469 125.765625 C 23.765625 124.949219 16.136719 131.253906 15.320313 139.84375 C 14.507813 148.433594 20.808594 156.0625 29.398438 156.878906 C 65.632813 156.542969 94.734375 126.902344 94.402344 90.667969 C 94.070313 54.4375 64.425781 25.332031 28.195313 25.667969 C 28.179688 27.121094 28.5 28.554688 29.128906 29.867188 C -52.488281 30.628906 -118.03125 97.410156 -117.269531 179.023438 C -116.507813 260.640625 -49.726563 326.183594 31.890625 325.421875 C 33.0625 326.136719 34.402344 326.539063 35.777344 326.589844 L 39.199219 330.476563 L 44.023438 330.476563 L 39.316406 33.367188 C 40.878906 32.84375 42.199219 31.78125 43.050781 30.371094 Z M 39.160156 29.359375 C 38.441406 123.546875 37.3125 177.0625 36.128906 172.9375 L 34.6875 178.964844 L 32.238281 179.042969 L 32.238281 176.828125 L 34.6875 211.4375 L 42.542969 179.355469 C -3.519531 172.058594 -34.945313 139.203125 -34.066406 99.554688 C -33.1875 59.90625 -0.332031 28.480469 39.316406 29.359375 Z "/>
</g>
</svg>
