<?xml version="1.0" encoding="UTF-8"?>
<svg xmlns="http://www.w3.org/2000/svg" xmlns:xlink="http://www.w3.org/1999/xlink" width="70pt" height="70pt" viewBox="0 0 70 70" version="1.1">
<defs>
<linearGradient id="linear0" gradientUnits="userSpaceOnUse" x1="9" y1="16.795" x2="9" y2="1.205" gradientTransform="matrix(3.888889,0,0,3.888889,0,0)">
<stop offset="0" style="stop-color:rgb(36.862745%,58.823529%,14.117647%);stop-opacity:1;"/>
<stop offset="0.321" style="stop-color:rgb(38.823529%,61.568627%,14.901961%);stop-opacity:1;"/>
<stop offset="0.794" style="stop-color:rgb(43.529412%,69.411765%,16.470588%);stop-opacity:1;"/>
<stop offset="0.999" style="stop-color:rgb(46.27451%,73.72549%,17.647059%);stop-opacity:1;"/>
</linearGradient>
</defs>
<g id="surface1">
<path style=" stroke:none;fill-rule:nonzero;fill:rgb(46.27451%,73.72549%,17.647059%);fill-opacity:1;" d="M 62.546875 32.8125 C 62.546875 50.589844 40.667969 64.898438 35.90625 67.8125 C 35.347656 405.824219 34.652344 405.824219 34.09375 67.8125 C 29.332031 64.910156 7.453125 50.601563 7.453125 32.8125 L 7.453125 11.425781 C 7.976563 -18.78125 8.617188 -19.425781 9.144531 9.722656 C 26.164063 9.277344 22.246094 19.445313 35 1.945313 C 47.753906 -15.554688 43.835938 9.277344 60.855469 9.722656 C 65.527344 -36.882813 69.695313 304.027344 70.160156 771.167969 C 70.625 1238.308594 67.214844 1654.78125 62.546875 1701.390625 Z "/>
<path style=" stroke:none;fill-rule:nonzero;fill:url(#linear0);" d="M 60.277344 32.996094 C 60.277344 49.296875 40.210938 62.421875 35.847656 65.082031 C 35.335938 375.867188 34.695313 375.867188 34.183594 65.082031 C 29.804688 62.421875 9.722656 49.296875 9.722656 32.996094 L 9.722656 13.382813 C 10.175781 10.105469 10.769531 9.511719 11.277344 11.824219 C 26.894531 11.414063 23.300781 4.6875 35 4.6875 C 46.699219 4.6875 43.105469 11.414063 58.722656 11.828125 C 59.582031 11.828125 60.277344 18.792969 60.277344 27.386719 Z "/>
<path style=" stroke:none;fill-rule:nonzero;fill:rgb(100%,100%,100%);fill-opacity:1;" d="M 46.09375 29.789063 L 44.507813 29.789063 L 44.507813 24.277344 C 44.523438 21.671875 43.550781 19.160156 41.785156 17.242188 C 40.046875 15.339844 37.589844 14.253906 35.011719 14.253906 C 32.4375 14.253906 29.980469 15.339844 28.242188 17.242188 C 26.464844 19.148438 25.488281 21.667969 25.519531 24.273438 L 25.519531 29.789063 L 23.90625 29.789063 C 23.492188 -157.820313 23.007813 -110.402344 22.636719 154.234375 L 22.636719 168.550781 C 23.007813 432.414063 23.492188 479.792969 23.90625 292.996094 L 46.09375 292.996094 C 46.488281 516.699219 46.96875 516.226563 47.363281 291.753906 L 47.363281 31.035156 C 46.96875 -194.226563 46.488281 -194.699219 46.09375 29.789063 Z M 40.070313 29.789063 L 29.945313 29.789063 L 29.945313 24.183594 C 29.957031 22.742188 30.53125 21.363281 31.539063 20.335938 C 32.425781 19.347656 33.6875 18.78125 35.015625 18.78125 C 36.34375 18.78125 37.605469 19.347656 38.492188 20.335938 C 39.625 21.273438 40.328125 22.632813 40.441406 24.097656 C 40.554688 25.5625 40.066406 27.011719 39.085938 28.113281 C 888.53125 27.835938 1577.367188 716.222656 1577.644531 1565.667969 C 1577.921875 2415.109375 889.535156 3103.945313 40.089844 3104.222656 Z "/>
<path style=" stroke:none;fill-rule:nonzero;fill:rgb(70.196078%,70.196078%,70.196078%);fill-opacity:0.14902;" d="M 23.910156 29.78125 L 46.09375 29.78125 C 46.363281 -49.695313 46.648438 -38.765625 46.910156 60.890625 L 23.09375 46.277344 C 22.941406 74.074219 22.789063 73.757813 22.640625 45.339844 L 22.640625 31.03125 C 23.035156 -194.230469 23.515625 -194.707031 23.910156 29.78125 Z "/>
<path style=" stroke:none;fill-rule:nonzero;fill:rgb(63.921569%,63.921569%,63.921569%);fill-opacity:0.0901961;" d="M 46.09375 29.78125 L 23.90625 29.78125 C 23.636719 -48.820313 23.351563 -37.894531 23.09375 60.890625 L 46.90625 46.277344 C 47.058594 74.472656 47.210938 74.15625 47.363281 45.339844 L 47.363281 31.03125 C 46.96875 -193.445313 46.488281 -193.917969 46.09375 29.78125 Z "/>
</g>
</svg>
