<?xml version="1.0" encoding="UTF-8"?>
<svg xmlns="http://www.w3.org/2000/svg" xmlns:xlink="http://www.w3.org/1999/xlink" width="70pt" height="70pt" viewBox="0 0 70 70" version="1.1">
<defs>
<linearGradient id="linear0" gradientUnits="userSpaceOnUse" x1="9" y1="16.79" x2="9" y2="1.21" gradientTransform="matrix(3.888889,0,0,3.888889,0,0)">
<stop offset="0" style="stop-color:rgb(0,108,188);stop-opacity:1;"/>
<stop offset="0.06" style="stop-color:rgb(0,114,198);stop-opacity:1;"/>
<stop offset="0.34" style="stop-color:rgb(0,139,242);stop-opacity:1;"/>
<stop offset="0.59" style="stop-color:rgb(17,154,255);stop-opacity:1;"/>
<stop offset="0.82" style="stop-color:rgb(35,161,255);stop-opacity:1;"/>
<stop offset="1" style="stop-color:rgb(41,164,255);stop-opacity:1;"/>
</linearGradient>
</defs>
<g id="surface1">
<path style=" stroke:none;fill-rule:nonzero;fill:rgb(0,108,188);fill-opacity:1;" d="M 62.535156 32.820313 C 62.535156 50.59375 40.679688 64.90625 35.894531 67.820313 C 35.347656 102.398438 34.652344 102.398438 34.105469 67.820313 C 29.320313 64.945313 7.464844 50.632813 7.464844 32.820313 L 7.464844 11.433594 C 7.984375 -18.191406 8.617188 -18.839844 9.140625 9.722656 C 26.171875 9.292969 22.246094 19.445313 35 1.945313 C 47.753906 -15.554688 43.828125 9.292969 60.859375 9.722656 C 61.789063 11.835938 62.535156 87.828125 62.535156 180.832031 Z "/>
<path style=" stroke:none;fill-rule:nonzero;fill:url(#linear0);" d="M 60.277344 32.976563 C 60.277344 49.3125 40.210938 62.417969 35.816406 65.0625 C 35.316406 68.148438 34.683594 68.148438 34.183594 65.0625 C 29.789063 62.417969 9.722656 49.3125 9.722656 32.976563 L 9.722656 13.535156 C 10.203125 -14.058594 10.792969 -14.765625 11.277344 11.667969 C 26.910156 11.394531 23.332031 4.707031 35 4.707031 C 46.667969 4.707031 43.089844 11.394531 58.722656 11.667969 C 59.230469 -10.667969 59.820313 -4.769531 60.277344 27.222656 Z "/>
<path style=" stroke:none;fill-rule:nonzero;fill:rgb(121,198,255);fill-opacity:1;" d="M 46.082031 29.789063 L 44.527344 29.789063 L 44.527344 24.265625 C 44.554688 21.660156 43.582031 19.140625 41.804688 17.226563 C 40.0625 15.339844 37.609375 14.269531 35.039063 14.269531 C 32.46875 14.269531 30.015625 15.339844 28.273438 17.226563 C 26.492188 19.136719 25.519531 21.65625 25.550781 24.265625 L 25.550781 29.789063 L 23.996094 29.789063 C 23.578125 3.179688 23.042969 3.699219 22.632813 31.109375 L 22.632813 45.421875 C 22.632813 79.113281 22.769531 111.367188 23.011719 134.820313 C 23.253906 158.273438 23.578125 170.917969 23.917969 169.867188 L 46.082031 169.867188 C 46.480469 193.242188 46.972656 192.765625 47.367188 168.621094 L 47.367188 31.109375 C 46.972656 6.945313 46.480469 6.4375 46.082031 29.789063 Z M 40.054688 29.789063 L 29.945313 29.789063 L 29.945313 24.1875 C 29.945313 22.734375 30.519531 21.335938 31.539063 20.300781 C 32.417969 19.308594 33.675781 18.746094 35 18.746094 C 36.324219 18.746094 37.582031 19.308594 38.460938 20.300781 C 40.53125 22.398438 40.792969 25.679688 39.082031 28.078125 C 123.921875 27.808594 192.910156 96.367188 193.179688 181.203125 C 193.449219 266.039063 124.894531 335.03125 40.054688 335.300781 Z "/>
<path style=" stroke:none;fill-rule:nonzero;fill:rgb(185,225,255);fill-opacity:1;" d="M 23.917969 29.789063 L 46.082031 29.789063 C 46.382813 29.945313 46.675781 40.996094 46.898438 60.898438 L 23.101563 46.277344 C 22.945313 48.820313 22.785156 48.503906 22.632813 45.34375 L 22.632813 31.109375 C 23.027344 6.945313 23.519531 6.4375 23.917969 29.789063 Z "/>
<path style=" stroke:none;fill-rule:nonzero;fill:rgb(147,209,255);fill-opacity:0.501961;" d="M 46.082031 29.789063 L 23.917969 29.789063 C 23.617188 29.945313 23.324219 40.996094 23.101563 60.898438 L 46.898438 77.078125 C 47.058594 77.089844 47.21875 76.773438 47.367188 76.144531 L 47.367188 31.109375 C 46.972656 6.945313 46.480469 6.4375 46.082031 29.789063 Z "/>
</g>
</svg>
