<?xml version="1.0" encoding="UTF-8"?>
<svg xmlns="http://www.w3.org/2000/svg" xmlns:xlink="http://www.w3.org/1999/xlink" width="70pt" height="70pt" viewBox="0 0 70 70" version="1.1">
<defs>
<radialGradient id="radial0" gradientUnits="userSpaceOnUse" cx="9" cy="9" fx="9" fy="9" r="8.5" gradientTransform="matrix(3.888889,0,0,3.888889,0,0)">
<stop offset="0.18" style="stop-color:rgb(41,164,255);stop-opacity:1;"/>
<stop offset="0.56" style="stop-color:rgb(39,163,255);stop-opacity:1;"/>
<stop offset="0.69" style="stop-color:rgb(31,159,255);stop-opacity:1;"/>
<stop offset="0.78" style="stop-color:rgb(17,154,255);stop-opacity:1;"/>
<stop offset="0.86" style="stop-color:rgb(0,146,254);stop-opacity:1;"/>
<stop offset="0.93" style="stop-color:rgb(0,131,228);stop-opacity:1;"/>
<stop offset="0.99" style="stop-color:rgb(0,112,196);stop-opacity:1;"/>
<stop offset="1" style="stop-color:rgb(0,108,188);stop-opacity:1;"/>
</radialGradient>
<radialGradient id="radial1" gradientUnits="userSpaceOnUse" cx="38.95" cy="182.07" fx="38.95" fy="182.07" r="9.88" gradientTransform="matrix(3.655556,0,0,3.655556,-111.65,-634.822222)">
<stop offset="0.27" style="stop-color:rgb(153,211,255);stop-opacity:1;"/>
<stop offset="0.49" style="stop-color:rgb(141,206,255);stop-opacity:1;"/>
<stop offset="0.88" style="stop-color:rgb(105,191,255);stop-opacity:1;"/>
<stop offset="1" style="stop-color:rgb(93,186,255);stop-opacity:1;"/>
</radialGradient>
</defs>
<g id="surface1">
<path style=" stroke:none;fill-rule:nonzero;fill:url(#radial0);" d="M 35 1.945313 C 16.742188 1.945313 1.945313 16.742188 1.945313 35 C 1.945313 53.257813 16.742188 68.054688 35 68.054688 C 53.257813 68.054688 68.054688 53.257813 68.054688 35 C 68.035156 16.753906 53.246094 1.964844 35 1.945313 Z M 35 63.542969 C 19.234375 63.542969 6.457031 50.765625 6.457031 35 C 6.457031 19.234375 19.234375 6.457031 35 6.457031 C 50.765625 6.457031 63.542969 19.234375 63.542969 35 C 63.542969 50.765625 50.765625 63.542969 35 63.542969 Z "/>
<path style=" stroke:none;fill-rule:nonzero;fill:rgb(255,255,255);fill-opacity:1;" d="M 63.542969 35 C 63.542969 50.765625 50.765625 63.542969 35 63.542969 C 19.234375 63.542969 6.457031 50.765625 6.457031 35 C 6.457031 19.234375 19.234375 6.457031 35 6.457031 C 50.765625 6.457031 63.542969 19.234375 63.542969 35 Z "/>
<path style=" stroke:none;fill-rule:nonzero;fill:url(#radial1);" d="M 52.265625 28.503906 C 55.03125 25.714844 55.03125 21.222656 52.265625 18.433594 L 40.015625 6.144531 C 37.242188 3.386719 32.757813 3.386719 29.984375 6.144531 L 17.734375 18.433594 C 14.96875 21.222656 14.96875 25.714844 17.734375 28.503906 L 27.921875 38.890625 C 28.292969 75.984375 28.503906 126.335938 28.503906 178.890625 L 28.503906 197.867188 C 28.507813 261.855469 28.757813 323.269531 29.207031 368.976563 L 33.871094 373.644531 C 34.496094 435.957031 35.503906 435.957031 36.128906 373.644531 L 43.285156 366.488281 C 43.285156 366.046875 43.285156 365.605469 43.285156 365.167969 L 41.378906 363.261719 C 41.378906 362.78125 41.378906 362.300781 41.378906 361.820313 L 39.472656 359.917969 C 39.472656 359.476563 39.472656 359.035156 39.472656 358.59375 L 37.566406 356.6875 C 37.566406 356.210938 37.566406 355.730469 37.566406 355.25 L 35.660156 353.34375 C 35.660156 352.902344 35.660156 352.464844 35.660156 352.023438 L 33.015625 349.339844 L 33.015625 348.367188 Z M 35 9.140625 C 37.222656 9.140625 39.023438 10.941406 39.023438 13.164063 C 39.023438 15.386719 37.222656 17.1875 35 17.1875 C 32.777344 17.1875 30.976563 15.386719 30.976563 13.164063 C 30.976563 10.941406 32.777344 9.140625 35 9.140625 Z "/>
<path style=" stroke:none;fill-rule:nonzero;fill:rgb(71,176,255);fill-opacity:0.74902;" d="M 31.8125 59.5 C 31.980469 83.851563 32.257813 98.339844 32.550781 98.207031 C 32.847656 98.078125 33.125 83.339844 33.289063 58.839844 L 33.289063 43.285156 C 33.148438 39.714844 33.003906 39.449219 32.859375 42.503906 C 32.6875 23.628906 32.4375 13.550781 32.179688 15.058594 C 31.925781 16.566406 31.6875 29.496094 31.539063 50.285156 L 31.539063 65.839844 C 31.632813 64.902344 31.722656 62.773438 31.8125 59.5 Z "/>
<path style=" stroke:none;fill-rule:nonzero;fill:rgb(71,176,255);fill-opacity:0.74902;" d="M 26.289063 22.515625 L 44.214844 22.515625 C 44.816406 22.515625 45.304688 23.003906 45.304688 23.605469 L 45.304688 23.800781 C 45.304688 24.402344 44.816406 24.890625 44.214844 24.890625 L 26.289063 24.890625 C 25.6875 24.890625 25.199219 24.402344 25.199219 23.800781 L 25.199219 23.605469 C 25.199219 23.003906 25.6875 22.515625 26.289063 22.515625 Z "/>
<path style=" stroke:none;fill-rule:nonzero;fill:rgb(71,176,255);fill-opacity:0.74902;" d="M 26.289063 26.367188 L 44.214844 26.367188 C 44.816406 26.367188 45.304688 26.855469 45.304688 27.457031 L 45.304688 27.648438 C 45.304688 28.25 44.816406 28.738281 44.214844 28.738281 L 26.289063 28.738281 C 25.6875 28.738281 25.199219 28.25 25.199219 27.648438 L 25.199219 27.457031 C 25.199219 26.855469 25.6875 26.367188 26.289063 26.367188 Z "/>
</g>
</svg>
