<?xml version="1.0" encoding="UTF-8"?>
<svg xmlns="http://www.w3.org/2000/svg" xmlns:xlink="http://www.w3.org/1999/xlink" width="70pt" height="70pt" viewBox="0 0 70 70" version="1.1">
<defs>
<linearGradient id="linear0" gradientUnits="userSpaceOnUse" x1="9" y1="16.21" x2="9" y2="0.62" gradientTransform="matrix(3.888889,0,0,3.888889,0,0)">
<stop offset="0" style="stop-color:rgb(0,138,240);stop-opacity:1;"/>
<stop offset="0.21" style="stop-color:rgb(0,141,246);stop-opacity:1;"/>
<stop offset="0.44" style="stop-color:rgb(7,149,255);stop-opacity:1;"/>
<stop offset="0.69" style="stop-color:rgb(35,161,255);stop-opacity:1;"/>
<stop offset="0.95" style="stop-color:rgb(71,176,255);stop-opacity:1;"/>
<stop offset="1" style="stop-color:rgb(79,180,255);stop-opacity:1;"/>
</linearGradient>
</defs>
<g id="surface1">
<path style=" stroke:none;fill-rule:nonzero;fill:rgb(0,138,240);fill-opacity:1;" d="M 62.222656 32.820313 C 62.222656 50.59375 40.714844 64.90625 36.050781 67.820313 C 35.503906 102.398438 34.808594 102.398438 34.261719 67.820313 C 29.4375 64.90625 7.777344 50.554688 7.777344 32.820313 L 7.777344 11.433594 C 8.292969 -18.191406 8.925781 -18.839844 9.449219 9.722656 C 26.328125 9.292969 22.476563 19.445313 35 1.945313 C 47.523438 -15.554688 43.671875 9.292969 60.394531 9.722656 C 61.324219 11.835938 62.066406 87.828125 62.066406 180.832031 Z "/>
<path style=" stroke:none;fill-rule:nonzero;fill:url(#linear0);" d="M 59.8125 32.976563 C 59.8125 49.3125 40.09375 62.417969 35.816406 65.0625 C 35.316406 68.148438 34.683594 68.148438 34.183594 65.0625 C 29.90625 62.417969 10.1875 49.3125 10.1875 32.976563 L 10.1875 13.535156 C 10.648438 -11.257813 11.199219 -11.957031 11.667969 11.667969 C 26.988281 11.238281 23.332031 4.550781 35 4.550781 C 46.667969 4.550781 42.972656 11.394531 58.332031 11.667969 C 58.832031 -9.222656 59.402344 -3.363281 59.851563 27.222656 Z "/>
<path style=" stroke:none;fill-rule:nonzero;fill:rgb(201,232,255);fill-opacity:1;" d="M 35 25.394531 C 40.554688 25.414063 45.253906 29.503906 46.042969 35 C 46.605469 73.980469 47.332031 79.914063 47.949219 50.554688 L 53.394531 50.554688 C 53.996094 85.480469 54.742188 84.6875 55.339844 48.496094 C 54.222656 38.101563 45.453125 30.21875 35 30.21875 C 24.546875 30.21875 15.777344 38.101563 14.660156 48.496094 C 14.617188 102.351563 14.804688 155.558594 15.175781 194.867188 C 15.546875 234.175781 16.066406 255.890625 16.605469 254.605469 L 22.050781 254.605469 C 22.609375 255.261719 23.144531 231.25 23.511719 188.949219 C 23.878906 146.652344 24.039063 90.347656 23.957031 35 C 24.746094 29.503906 29.445313 25.414063 35 25.394531 Z "/>
<path style=" stroke:none;fill-rule:nonzero;fill:rgb(255,255,255);fill-opacity:1;" d="M 42.429688 36.554688 C 42.429688 40.65625 39.101563 43.984375 35 43.984375 C 30.898438 43.984375 27.570313 40.65625 27.570313 36.554688 C 27.570313 32.453125 30.898438 29.128906 35 29.128906 C 39.101563 29.128906 42.429688 32.453125 42.429688 36.554688 Z "/>
</g>
</svg>
