<?xml version="1.0" encoding="UTF-8"?>
<svg xmlns="http://www.w3.org/2000/svg" xmlns:xlink="http://www.w3.org/1999/xlink" width="70pt" height="70pt" viewBox="0 0 70 70" version="1.1">
<g id="surface1">
<path style=" stroke:none;fill-rule:nonzero;fill:rgb(0,108,188);fill-opacity:1;" d="M 47.054688 7.972656 L 47.054688 22.75 L 34.609375 30.140625 L 34.609375 15.359375 Z "/>
<path style=" stroke:none;fill-rule:nonzero;fill:rgb(0,80,140);fill-opacity:1;" d="M 41.609375 15.796875 C 43.316406 14.773438 68.832031 15.453125 70.539063 15.453125 C 70.332031 17.355469 69.347656 19.082031 67.816406 20.230469 C 66.453125 1043.007813 65.097656 362.453125 65.097656 18.523438 C 64.34375 25.007813 58.476563 29.65625 51.992188 28.902344 C 45.503906 28.148438 40.859375 22.28125 41.609375 15.796875 Z "/>
<path style=" stroke:none;fill-rule:nonzero;fill:rgb(85,182,255);fill-opacity:1;" d="M 47.054688 7.972656 L 34.609375 15.359375 L 21.777344 7.972656 L 34.609375 0.582031 Z "/>
<path style=" stroke:none;fill-rule:nonzero;fill:rgb(41,164,255);fill-opacity:1;" d="M 34.609375 15.359375 L 34.609375 30.140625 L 21.777344 22.75 L 21.777344 7.972656 Z "/>
<path style=" stroke:none;fill-rule:nonzero;fill:rgb(0,108,188);fill-opacity:1;" d="M 27.671875 15.75 C 26.117188 14.972656 24.5625 15.75 24.5625 31.304688 C 24.546875 33.445313 25.753906 35.410156 27.671875 36.359375 C 29.230469 47.25 27.671875 39.472656 26.117188 39.472656 C 32.667969 39.902344 38.328125 34.941406 38.757813 28.390625 C 39.1875 21.839844 34.222656 16.179688 27.671875 15.75 Z "/>
<path style=" stroke:none;fill-rule:nonzero;fill:rgb(0,138,240);fill-opacity:1;" d="M 69.222656 27.417969 L 69.222656 42.195313 L 56.777344 49.582031 L 56.777344 34.804688 Z "/>
<path style=" stroke:none;fill-rule:nonzero;fill:rgb(47,166,255);fill-opacity:1;" d="M 56.777344 34.804688 L 56.777344 49.582031 L 44.332031 42.195313 L 44.332031 27.417969 Z "/>
<path style=" stroke:none;fill-rule:nonzero;fill:rgb(0,138,240);fill-opacity:1;" d="M 50.945313 35.972656 C 49.390625 35.195313 47.832031 35.972656 47.832031 51.527344 C 47.820313 53.667969 49.027344 55.632813 50.945313 56.582031 C 52.5 67.472656 50.945313 59.695313 49.390625 59.695313 C 55.941406 60.125 61.597656 55.160156 62.027344 48.609375 C 62.457031 42.058594 57.496094 36.402344 50.945313 35.972656 Z "/>
<path style=" stroke:none;fill-rule:nonzero;fill:rgb(47,166,255);fill-opacity:1;" d="M 51.089844 23.617188 C 49.050781 21.203125 46.46875 19.308594 43.554688 18.082031 C 42.78125 -685.859375 41.597656 -680.03125 40.832031 31.484375 L 64.167969 48.035156 L 44.789063 48.035156 Z "/>
<path style=" stroke:none;fill-rule:nonzero;fill:rgb(47,166,255);fill-opacity:1;" d="M 51.078125 31.417969 C 51.148438 261.0625 483 696.417969 483 696.417969 L 483.464844 696.183594 Z "/>
<path style=" stroke:none;fill-rule:nonzero;fill:rgb(0,115,200);fill-opacity:1;" d="M 26.054688 28.195313 L 26.054688 42.582031 L 13.222656 49.972656 L 13.222656 35.582031 Z "/>
<path style=" stroke:none;fill-rule:nonzero;fill:rgb(45,165,255);fill-opacity:1;" d="M 13.222656 35.582031 L 13.222656 49.972656 L 0.777344 42.582031 L 0.777344 28.195313 Z "/>
<path style=" stroke:none;fill-rule:nonzero;fill:rgb(47,166,255);fill-opacity:1;" d="M 28.777344 19.25 C 27.855469 -49.804688 26.59375 -50.277344 25.667969 18.082031 C 22.933594 19.539063 20.484375 21.480469 18.441406 23.8125 L 22.554688 26.167969 C 24.003906 24.613281 25.714844 23.324219 27.609375 22.359375 L 19.25 22.359375 Z "/>
<path style=" stroke:none;fill-rule:nonzero;fill:rgb(0,132,230);fill-opacity:1;" d="M 48.222656 47.25 L 48.222656 62.027344 L 35.777344 69.417969 L 35.777344 54.640625 Z "/>
<path style=" stroke:none;fill-rule:nonzero;fill:rgb(65,174,255);fill-opacity:1;" d="M 35.777344 54.640625 L 35.777344 69.417969 L 23.332031 62.027344 L 23.332031 47.25 Z "/>
<path style=" stroke:none;fill-rule:nonzero;fill:rgb(47,166,255);fill-opacity:1;" d="M 51.332031 39.082031 C 50.949219 -421.695313 50.378906 -687.617188 49.777344 -686.863281 C 49.175781 -686.113281 48.605469 -418.769531 48.222656 42.972656 C 46.769531 44.820313 45.007813 46.40625 43.015625 47.660156 L 46.773438 2275.992188 C 663.617188 2277.359375 1164.777344 1778.414063 1166.144531 1161.566406 C 1167.511719 544.722656 668.566406 43.5625 51.722656 42.195313 L 39.082031 42.195313 Z "/>
<path style=" stroke:none;fill-rule:nonzero;fill:rgb(0,100,174);fill-opacity:1;" d="M 20.269531 35.730469 C 22.042969 34.761719 3084.714844 35.570313 3086.488281 35.570313 C 3086.332031 37.71875 3085.203125 39.679688 3083.421875 40.890625 C 3081.652344 1009.226563 3080.363281 200.335938 3080.363281 39.117188 C 3079.425781 884.140625 2393.644531 1568.40625 1548.621094 1567.472656 C 703.601563 1566.535156 19.332031 880.753906 20.269531 35.730469 Z "/>
<path style=" stroke:none;fill-rule:nonzero;fill:rgb(47,166,255);fill-opacity:1;" d="M 28.867188 43.964844 C 26.398438 42.875 24.230469 41.199219 22.554688 39.082031 C 22.164063 -412.480469 21.597656 -672 21 -672.074219 C 20.402344 -672.148438 19.835938 -412.769531 19.445313 38.695313 L 50.554688 60.175781 L 24.246094 60.175781 Z "/>
<path style=" stroke:none;fill-rule:nonzero;fill:rgb(125,199,255);fill-opacity:1;" d="M 48.222656 47.25 L 35.777344 54.640625 L 23.332031 47.25 L 35.777344 39.859375 Z "/>
<path style=" stroke:none;fill-rule:nonzero;fill:rgb(101,189,255);fill-opacity:1;" d="M 26.054688 28.195313 L 13.222656 35.582031 L 0.777344 28.195313 L 13.222656 20.804688 Z "/>
<path style=" stroke:none;fill-rule:nonzero;fill:rgb(143,207,255);fill-opacity:1;" d="M 69.222656 27.417969 L 56.777344 34.804688 L 44.332031 27.417969 L 56.777344 20.417969 Z "/>
</g>
</svg>
