<?xml version="1.0" encoding="UTF-8"?>
<svg xmlns="http://www.w3.org/2000/svg" xmlns:xlink="http://www.w3.org/1999/xlink" width="70pt" height="70pt" viewBox="0 0 70 70" version="1.1">
<g id="surface1">
<path style=" stroke:none;fill-rule:nonzero;fill:rgb(0,108,188);fill-opacity:1;" d="M 51.0625 9.332031 L 51.0625 27.183594 L 35.699219 36.167969 L 35.699219 18.277344 Z "/>
<path style=" stroke:none;fill-rule:nonzero;fill:rgb(0,80,140);fill-opacity:1;" d="M 44.527344 18.316406 C 46.667969 17.070313 48.417969 18.042969 48.417969 20.496094 C 48.273438 23.21875 46.824219 25.710938 44.527344 27.183594 C 42.390625 151.628906 40.640625 26.910156 40.640625 24.964844 C 40.789063 22.253906 42.234375 19.777344 44.527344 18.316406 Z "/>
<path style=" stroke:none;fill-rule:nonzero;fill:rgb(0,108,188);fill-opacity:1;" d="M 30.722656 42.777344 L 30.722656 60.628906 L 15.359375 69.609375 L 15.359375 51.722656 Z "/>
<path style=" stroke:none;fill-rule:nonzero;fill:rgb(0,80,140);fill-opacity:1;" d="M 23.023438 52.617188 C 25.160156 51.410156 26.910156 52.382813 26.910156 54.832031 C 26.753906 57.554688 25.308594 60.039063 23.023438 61.523438 C 20.882813 185.964844 19.132813 61.289063 19.132813 59.304688 C 19.289063 56.582031 20.734375 54.097656 23.023438 52.617188 Z "/>
<path style=" stroke:none;fill-rule:nonzero;fill:rgb(41,164,255);fill-opacity:1;" d="M 15.359375 51.722656 L 15.359375 69.609375 L 0 60.628906 L 0 42.777344 Z "/>
<path style=" stroke:none;fill-rule:nonzero;fill:rgb(0,108,188);fill-opacity:1;" d="M 70 42.816406 L 70 60.667969 L 54.640625 69.648438 L 54.640625 51.761719 Z "/>
<path style=" stroke:none;fill-rule:nonzero;fill:rgb(47,166,255);fill-opacity:1;" d="M 44.683594 24.109375 C 49.105469 25.964844 52.480469 29.679688 53.898438 34.261719 L 54.640625 33.832031 L 58.527344 36.089844 C 57.503906 29.039063 52.851563 23.042969 46.277344 20.300781 C 45.761719 0.148438 45.1875 1.546875 44.683594 24.1875 Z "/>
<path style=" stroke:none;fill-rule:nonzero;fill:rgb(41,164,255);fill-opacity:1;" d="M 54.640625 51.800781 L 54.640625 69.648438 L 39.277344 60.667969 L 39.277344 42.816406 Z "/>
<path style=" stroke:none;fill-rule:nonzero;fill:rgb(0,80,140);fill-opacity:1;" d="M 47.40625 52.851563 C 45.382813 51.683594 43.75 52.65625 43.75 262.851563 C 43.886719 265.425781 45.246094 267.78125 47.40625 269.1875 C 49.429688 284.511719 74.394531 267.089844 74.394531 267.089844 C 133.554688 259.636719 175.472656 205.636719 168.019531 146.476563 C 160.566406 87.316406 106.566406 45.398438 47.40625 52.851563 Z "/>
<path style=" stroke:none;fill-rule:nonzero;fill:rgb(47,166,255);fill-opacity:1;" d="M 35.777344 62.648438 C 31.351563 62.675781 27.027344 61.316406 23.410156 58.761719 C 22.648438 5.734375 22.3125 -90.527344 22.585938 -179.417969 C 22.859375 -268.308594 23.671875 -329.480469 24.601563 -330.773438 C 25.53125 -332.066406 26.363281 -273.183594 26.660156 -185.082031 C 26.953125 -96.980469 26.648438 0.167969 25.898438 55.300781 C 5.980469 60.464844 -5.980469 80.800781 -0.816406 100.722656 C 4.347656 120.644531 24.683594 132.605469 44.605469 127.4375 L 410.160156 127.4375 C 26.714844 129.875 10.234375 117.347656 7.796875 99.457031 C 5.359375 81.566406 17.886719 65.085938 35.777344 62.648438 Z "/>
<path style=" stroke:none;fill-rule:nonzero;fill:rgb(85,182,255);fill-opacity:1;" d="M 51.0625 9.332031 L 35.738281 18.316406 L 20.378906 9.332031 L 35.738281 0.351563 Z "/>
<path style=" stroke:none;fill-rule:nonzero;fill:rgb(47,166,255);fill-opacity:1;" d="M 20.378906 20.609375 C 15.066406 24.085938 11.675781 29.835938 11.199219 36.167969 L 15.554688 33.792969 L 15.554688 33.988281 C 16.339844 30.890625 18.015625 28.09375 20.378906 25.9375 Z "/>
<path style=" stroke:none;fill-rule:nonzero;fill:rgb(85,182,255);fill-opacity:1;" d="M 70 42.816406 L 54.640625 51.800781 L 39.277344 42.816406 L 54.640625 33.832031 Z "/>
<path style=" stroke:none;fill-rule:nonzero;fill:rgb(85,182,255);fill-opacity:1;" d="M 30.722656 42.777344 L 15.359375 51.722656 L 0 42.777344 L 15.359375 33.792969 Z "/>
<path style=" stroke:none;fill-rule:nonzero;fill:rgb(41,164,255);fill-opacity:1;" d="M 35.699219 18.316406 L 35.699219 36.167969 L 20.378906 27.183594 L 20.378906 9.332031 Z "/>
</g>
</svg>
