<?xml version="1.0" encoding="UTF-8"?>
<svg xmlns="http://www.w3.org/2000/svg" xmlns:xlink="http://www.w3.org/1999/xlink" width="70pt" height="70pt" viewBox="0 0 70 70" version="1.1">
<g id="surface1">
<path style=" stroke:none;fill-rule:nonzero;fill:rgb(46.666667%,22.745098%,86.27451%);fill-opacity:1;" d="M 51.628906 14.03125 L 51.628906 41.222656 L 28.257813 54.886719 L 28.257813 27.648438 L 51.628906 14.027344 Z "/>
<path style=" stroke:none;fill-rule:nonzero;fill:rgb(71.764706%,58.823529%,97.647059%);fill-opacity:1;" d="M 51.628906 14.03125 L 28.265625 27.6875 L 4.929688 14.023438 L 28.265625 0.359375 L 51.628906 14.027344 Z "/>
<path style=" stroke:none;fill-rule:nonzero;fill:rgb(65.098039%,47.843137%,95.686275%);fill-opacity:1;" d="M 28.261719 27.6875 L 28.261719 54.886719 L 4.890625 41.222656 L 4.890625 14.027344 L 28.265625 27.691406 Z "/>
<path style=" stroke:none;fill-rule:nonzero;fill:rgb(19.607843%,74.509804%,86.666667%);fill-opacity:1;" d="M 45.34375 50.945313 C 45.34375 51.074219 45.320313 307.609375 45.296875 54.832031 C 45.273438 -197.945313 45.246094 264.832031 45.21875 85.945313 L 45.113281 455.390625 C 45.074219 579.832031 45.039063 474.832031 44.992188 750.945313 L 44.808594 754.832031 C 188.707031 754.917969 305.292969 871.644531 305.207031 1015.542969 C 305.121094 1159.445313 188.398438 1276.03125 44.496094 1275.945313 L 44.433594 1283.722656 C 182.964844 1283.828125 295.179688 1396.21875 295.074219 1534.75 C 294.964844 1673.28125 182.578125 1785.496094 44.046875 1785.390625 L 43.96875 1882.609375 L 43.449219 1933.167969 C 52.042969 1933.273438 58.917969 1940.324219 58.8125 1948.917969 C 58.703125 1957.507813 51.652344 1964.386719 43.0625 1964.277344 L 42.710938 1991.5 L 42.273438 2287.054688 L 41.804688 2586.5 C 203.960938 2586.820313 335.15625 2718.539063 334.832031 2880.695313 C 334.511719 3042.851563 202.796875 3174.042969 40.640625 3173.722656 L 40.25 3321.5 L 39.277344 3687.054688 L 38.890625 3698.722656 L 38.253906 3881.5 L 37.773438 4009.832031 L 37.09375 4157.609375 L 36.625 4250.945313 L 35.226563 4270.390625 C 35.082031 4270.390625 34.933594 4293.722656 34.785156 4274.277344 L 33.960938 4332.609375 L 32.277344 4332.609375 L 31.65625 4332.578125 L 30.503906 4332.449219 L 29.953125 4332.371094 L 29.304688 4332.253906 L 28.796875 4332.148438 L 28.019531 4331.960938 L 27.597656 4331.84375 L 26.277344 4331.402344 L 25.65625 4331.136719 L 25.34375 4331 L 24.441406 4330.535156 C 22.40625 4329.628906 21.023438 4327.695313 20.816406 4325.480469 L 20.816406 4330.945313 C 21.023438 4333.164063 22.40625 4335.097656 24.441406 4336.003906 L 25.34375 4382.667969 C 25.445313 4433.433594 118.996094 4522.667969 118.996094 4522.667969 L 119.539063 4763.851563 L 144.296875 5242.183594 C 144.398438 5273.503906 195.164063 5249.960938 195.164063 5249.960938 L 195.941406 5436.828125 L 246.808594 5491.925781 L 258.734375 5495.8125 C 258.832031 5495.8125 258.929688 5519.4375 262.625 5519.4375 L 263.234375 5585.550781 C 263.335938 5585.550781 263.429688 5613.0625 267.125 5613.0625 L 267.402344 5613.0625 L 268.027344 5644.175781 L 269.796875 5644.175781 C 270.074219 5644.160156 546.183594 5644.140625 1098.128906 5644.117188 L 1097.691406 5644.117188 L 1096.292969 5643.921875 L 1096.226563 5643.921875 L 1095.839844 5643.84375 L 1780.28125 5643.695313 L 2258.617188 5643.566406 L 2896.394531 5643.382813 L 3028.617188 5643.34375 C 3028.539063 5643.320313 3172.503906 5643.292969 3246.394531 5643.269531 L 3245.421875 5642.902344 L 3249.3125 5642.753906 L 3260.976563 5642.171875 L 3276.53125 5642.082031 C 3276.417969 5642.015625 3482.644531 5641.941406 3307.644531 5641.871094 L 3307.199219 5641.574219 L 3649.421875 5641.304688 L 3653.3125 5640.992188 L 3661.089844 5640.929688 C 3660.933594 5640.785156 3964.421875 5640.636719 4104.421875 5640.488281 L 4104.34375 5640.390625 L 4127.679688 5640.117188 C 4127.734375 5640.210938 4127.789063 5640.132813 4127.839844 5639.886719 L 4127.78125 5639.8125 L 4155 5639.382813 L 4158.890625 5639.289063 C 4158.957031 5639.164063 4159.015625 5639.03125 4159.070313 5638.902344 L 4158.964844 5638.675781 L 4182.296875 5638.597656 C 4182.339844 5638.476563 4182.375 5638.355469 4182.402344 5638.230469 L 4182.332031 5637.984375 L 4182.332031 5637.917969 C 4182.355469 5637.789063 4182.371094 5637.65625 4182.378906 5637.527344 C 4182.367188 5637.394531 4209.601563 5637.355469 4209.601563 5637.273438 L 4209.601563 50.554688 L 4209.550781 54.445313 Z "/>
<path style=" stroke:none;fill-rule:nonzero;fill:rgb(31.372549%,90.196078%,100%);fill-opacity:1;" d="M 41.746094 45.5 C 46.5625 2822.167969 46.585938 52.785156 100.082031 55.5625 C 94.621094 58.339844 88.164063 58.339844 82.703125 55.5625 C 77.890625 52.78125 77.871094 48.273438 82.65625 45.496094 C 88.730469 43.855469 95.226563 45.3125 100.023438 49.386719 Z "/>
<path style=" stroke:none;fill-rule:nonzero;fill:rgb(19.607843%,74.509804%,86.666667%);fill-opacity:1;" d="M 65.078125 57.453125 C 65.078125 57.582031 65.058594 314.121094 65.039063 61.34375 C 65.019531 -191.433594 64.984375 271.34375 64.960938 92.453125 L 64.855469 461.898438 C 64.816406 473.566406 64.777344 481.34375 64.730469 761.34375 L 64.550781 765.230469 C 64.484375 897.453125 64.355469 769.121094 64.242188 1286.34375 L 64.183594 1294.121094 L 63.792969 1344.675781 L 63.714844 1438.011719 L 63.199219 1488.566406 C 71.789063 1488.671875 78.667969 1495.722656 78.558594 1504.316406 C 78.453125 1512.90625 71.402344 1519.785156 62.808594 1519.675781 L 62.46875 1546.898438 C 62.351563 1636.34375 62.175781 1566.34375 62.023438 1838.566406 L 61.558594 2138.011719 C 223.714844 2138.332031 354.90625 2270.046875 354.585938 2432.203125 C 354.261719 2594.363281 222.546875 2725.554688 60.390625 2725.230469 L 60 2740.789063 L 59.039063 3106.34375 L 58.6875 3118.011719 L 58.054688 3296.898438 L 57.570313 3429.121094 L 56.890625 3573.011719 L 56.425781 3666.34375 L 55.023438 3685.789063 L 54.585938 3689.675781 L 53.757813 3744.121094 L 51.988281 3744.121094 C 51.777344 3744.121094 51.570313 3744.121094 51.363281 3744.082031 C 51.160156 3744.042969 50.976563 3744.054688 50.796875 3744.035156 L 50.183594 3743.964844 L 49.636719 3743.886719 L 48.984375 3743.769531 L 48.480469 3743.671875 L 47.699219 3743.484375 L 47.28125 3743.367188 L 45.957031 3742.917969 L 45.335938 3742.65625 L 45.027344 3742.519531 L 44.125 3742.050781 C 42.089844 3741.148438 40.703125 3739.214844 40.5 3736.996094 L 40.5 3742.460938 C 40.703125 3744.675781 42.089844 3746.609375 44.125 3747.515625 L 45.027344 3794.492188 L 181.691406 4035.671875 L 205.027344 4035.671875 C 205.453125 4202.480469 353.230469 4285.882813 648.359375 4285.882813 L 648.464844 4290.082031 L 657.019531 4309.527344 C 657.089844 4309.527344 657.15625 4313.617188 703.6875 4313.617188 L 703.996094 4368.714844 L 715.664063 4368.714844 C 715.75 4368.714844 715.835938 4372.859375 762.332031 4372.859375 L 762.621094 4404.585938 L 832.914063 4435.699219 L 833.1875 4435.699219 C 833.394531 4435.699219 833.597656 4459.652344 864.296875 4459.652344 L 866.066406 4459.652344 C 866.339844 4459.652344 866.621094 4459.613281 1694.402344 4459.597656 C 1803.289063 4459.597656 1694.621094 4459.597656 1694.734375 4459.574219 L 1694.628906 4459.574219 L 1693.230469 4459.382813 L 1693.164063 4459.382813 L 1692.773438 4459.296875 L 2369.441406 4459.152344 L 2851.664063 4459.019531 L 3485.554688 4458.839844 L 3621.664063 4458.800781 L 3839.441406 4458.722656 L 4803.886719 4458.355469 L 4807.773438 4458.207031 C 4808.171875 4458.03125 4808.5625 4457.835938 4808.941406 4457.621094 L 4808.785156 4457.53125 C 4808.667969 4457.464844 5018.785156 4457.390625 4839.898438 4457.320313 L 4839.453125 4457.023438 L 5181.675781 4456.753906 L 5185.566406 4456.441406 L 5193.34375 4456.375 C 5193.5 4456.234375 5193.644531 4456.085938 5193.785156 4455.933594 L 5193.707031 4455.835938 L 5217.042969 4455.5625 L 5384.265625 4455.335938 L 5442.597656 4455.257813 L 5469.820313 4454.871094 L 5516.484375 4454.777344 C 5516.421875 4454.652344 5528.152344 4454.523438 5695.375 4454.386719 L 5695.269531 4454.164063 L 5695.269531 4454.085938 C 5695.230469 4453.960938 5703.046875 4453.839844 5800.269531 4453.714844 L 5800.191406 4453.46875 L 5800.191406 4453.398438 C 5800.167969 4453.273438 5831.304688 4453.144531 5804.082031 4453.011719 C 5776.859375 4452.878906 5804.054688 4452.84375 5831.304688 4452.757813 L 5831.304688 4447.203125 C 5831.277344 4548.324219 6052.96875 4447.199219 6173.527344 4447.199219 Z "/>
<path style=" stroke:none;fill-rule:nonzero;fill:rgb(31.372549%,90.196078%,100%);fill-opacity:1;" d="M 61.445313 52.035156 C 63.597656 52.757813 65.054688 54.769531 65.066406 57.042969 C 65.082031 59.316406 63.644531 61.347656 61.5 62.09375 C 56.039063 64.875 49.582031 64.875 44.125 62.09375 C 39.3125 59.3125 39.289063 54.804688 44.074219 52.03125 C 50.152344 50.390625 56.644531 51.84375 61.445313 55.917969 Z "/>
<path style=" stroke:none;fill-rule:nonzero;fill:rgb(19.607843%,74.509804%,86.666667%);fill-opacity:1;" d="M 65.109375 45.1875 C 65.109375 45.304688 65.089844 286.300781 65.078125 402.964844 L 65.039063 406.855469 C 65.015625 535.1875 64.984375 616.855469 64.960938 437.964844 L 64.855469 803.523438 C 64.816406 815.1875 64.777344 822.964844 64.730469 1102.964844 L 64.550781 1106.855469 C 64.484375 1239.078125 64.355469 1110.746094 64.242188 1627.964844 L 64.183594 1635.746094 L 63.792969 1686.300781 L 63.714844 1779.632813 C 204.394531 1779.777344 318.320313 1893.933594 318.179688 2034.613281 C 318.035156 2175.292969 203.878906 2289.21875 63.199219 2289.078125 C 71.789063 2289.183594 78.667969 2296.238281 78.558594 2304.828125 C 78.453125 2313.417969 71.402344 2320.296875 62.808594 2320.1875 L 62.460938 2347.410156 L 62.019531 2639.078125 L 61.554688 2942.410156 C 77.660156 2942.734375 90.457031 2956.054688 90.136719 2972.160156 C 89.816406 2988.269531 76.496094 3001.066406 60.386719 3000.746094 L 59.996094 3016.300781 L 59.027344 3381.855469 L 58.636719 3393.523438 L 58.003906 3576.300781 L 57.519531 3704.632813 L 56.839844 3848.523438 L 56.375 3941.855469 L 54.972656 3961.300781 L 54.535156 3965.1875 L 53.707031 4019.632813 L 51.941406 4019.632813 C 51.730469 4019.632813 51.523438 4019.632813 51.316406 4019.59375 C 51.113281 4019.554688 50.929688 4019.566406 50.75 4019.546875 L 50.136719 4019.476563 L 49.589844 4019.398438 L 48.9375 4019.285156 L 48.433594 4019.183594 L 47.65625 4018.988281 L 47.234375 4018.871094 C 46.785156 4018.742188 46.34375 4018.59375 45.914063 4018.429688 L 45.289063 4018.164063 L 44.972656 4018.027344 L 44.070313 4017.5625 C 42.035156 4016.65625 40.648438 4014.722656 40.441406 4012.503906 L 40.441406 4017.972656 C 40.648438 4020.191406 42.035156 4022.125 44.070313 4023.027344 L 44.972656 4070.007813 L 181.636719 4311.183594 L 206.292969 4754.621094 L 210.492188 4763.175781 L 397.160156 4763.175781 C 397.230469 4763.175781 397.296875 4767.273438 447.714844 4767.273438 L 448.019531 4822.371094 L 459.6875 4822.371094 C 459.773438 4822.371094 459.855469 4826.519531 506.351563 4826.519531 L 506.640625 4858.246094 L 576.933594 4889.355469 L 577.203125 4889.355469 C 577.410156 4889.355469 577.617188 4913.3125 608.316406 4913.3125 L 610.082031 4913.3125 C 610.359375 4913.3125 610.636719 4913.28125 1442.304688 4913.257813 C 1551.191406 4913.257813 1442.523438 4913.257813 1442.636719 4913.234375 L 1442.535156 4913.234375 L 1441.136719 4913.039063 L 1441.066406 4913.039063 L 1440.679688 4912.953125 L 2121.234375 4912.808594 L 2599.566406 4912.679688 L 3237.34375 4912.5 L 3373.457031 4912.460938 C 3373.378906 4912.4375 3513.457031 4912.402344 3587.34375 4912.382813 L 3586.371094 4912.015625 L 3590.261719 4911.859375 C 3590.660156 4911.6875 3591.050781 4911.488281 3591.429688 4911.273438 L 3591.28125 4911.1875 L 3910.167969 4910.972656 L 4349.613281 4910.683594 L 4384.613281 4910.410156 L 4388.503906 4910.097656 L 4396.28125 4910.035156 C 4396.433594 4909.890625 4396.582031 4909.746094 4396.722656 4909.589844 L 4396.644531 4909.496094 L 4419.980469 4909.214844 L 4587.199219 4908.992188 L 4645.535156 4908.914063 C 4645.632813 4908.777344 4645.722656 4908.632813 4645.804688 4908.484375 L 4645.757813 4908.390625 C 4645.691406 4908.269531 4657.421875 4908.140625 4824.644531 4908.003906 L 4824.539063 4907.78125 L 4824.539063 4907.703125 C 4824.582031 4907.582031 4824.617188 4907.460938 4824.644531 4907.335938 L 4824.566406 4907.089844 L 4824.566406 4907.023438 C 4824.542969 4906.894531 4855.679688 4906.761719 4828.457031 4906.632813 C 4801.234375 4906.507813 4828.429688 4906.46875 4855.679688 4906.386719 L 4855.679688 4906.277344 Z "/>
<path style=" stroke:none;fill-rule:nonzero;fill:rgb(31.372549%,90.196078%,100%);fill-opacity:1;" d="M 52.84375 38.03125 C 46.058594 38.015625 40.550781 41.183594 40.539063 45.113281 C 40.527344 49.046875 46.019531 52.246094 52.804688 52.265625 C 59.589844 52.285156 65.097656 49.113281 65.109375 45.183594 C 65.121094 41.253906 59.628906 38.050781 52.84375 38.03125 Z "/>
</g>
</svg>
