<?xml version="1.0" encoding="UTF-8"?>
<svg xmlns="http://www.w3.org/2000/svg" xmlns:xlink="http://www.w3.org/1999/xlink" width="70pt" height="70pt" viewBox="0 0 70 70" version="1.1">
<g id="surface1">
<path style=" stroke:none;fill-rule:nonzero;fill:rgb(0,108,188);fill-opacity:1;" d="M 57.089844 16.0625 L 57.089844 41.609375 L 35.15625 54.40625 L 35.15625 28.855469 Z "/>
<path style=" stroke:none;fill-rule:nonzero;fill:rgb(85,182,255);fill-opacity:1;" d="M 57.089844 16.0625 L 35.15625 28.894531 L 13.222656 16.0625 L 35.15625 3.226563 Z "/>
<path style=" stroke:none;fill-rule:nonzero;fill:rgb(41,164,255);fill-opacity:1;" d="M 35.15625 28.894531 L 35.15625 54.40625 L 13.222656 41.609375 L 13.222656 16.0625 Z "/>
<path style=" stroke:none;fill-rule:nonzero;fill:rgb(0,108,188);fill-opacity:1;" d="M 23.566406 29.246094 C 20.6875 27.609375 18.355469 28.933594 18.355469 328.6875 C 97.738281 330.128906 163.253906 266.941406 164.695313 187.5625 C 166.132813 108.179688 102.949219 42.660156 23.566406 41.222656 C 26.40625 208.445313 28.777344 76.222656 28.777344 38.265625 C 28.554688 34.609375 26.625 31.265625 23.566406 29.246094 Z "/>
<path style=" stroke:none;fill-rule:nonzero;fill:rgb(47,166,255);fill-opacity:1;" d="M 70 55.804688 L 59.929688 45.695313 C 59.824219 33.976563 59.675781 27.261719 59.519531 27.261719 C 59.363281 27.261719 59.214844 33.976563 59.109375 45.695313 L 59.109375 53.472656 L 13.066406 53.472656 C 8.769531 53.472656 5.289063 49.988281 5.289063 45.695313 C 5.289063 41.398438 8.769531 37.917969 13.066406 37.917969 L 22.359375 37.917969 C 23.175781 82.855469 24.164063 81.851563 24.964844 35.273438 L 13.066406 35.273438 C 5.851563 35.273438 0 41.121094 0 48.339844 C 0 55.554688 5.851563 61.40625 13.066406 61.40625 L 58.957031 61.40625 L 58.957031 69.183594 C 59.058594 80.902344 59.207031 87.617188 59.363281 87.617188 C 59.519531 87.617188 59.667969 80.902344 59.773438 69.183594 L 70 56.503906 C 70 56.273438 70 56.039063 70 55.804688 Z "/>
</g>
</svg>
