<?xml version="1.0" encoding="UTF-8"?>
<svg xmlns="http://www.w3.org/2000/svg" xmlns:xlink="http://www.w3.org/1999/xlink" width="70pt" height="70pt" viewBox="0 0 70 70" version="1.1">
<defs>
<linearGradient id="linear0" gradientUnits="userSpaceOnUse" x1="9" y1="0.81" x2="9" y2="21.28" gradientTransform="matrix(3.888889,0,0,3.888889,0,0)">
<stop offset="0" style="stop-color:rgb(100%,84.313725%,5.882353%);stop-opacity:1;"/>
<stop offset="0.34" style="stop-color:rgb(93.333333%,70.196078%,3.529412%);stop-opacity:1;"/>
<stop offset="0.77" style="stop-color:rgb(86.27451%,54.901961%,1.176471%);stop-opacity:1;"/>
<stop offset="1" style="stop-color:rgb(83.529412%,49.019608%,0.392157%);stop-opacity:1;"/>
</linearGradient>
</defs>
<g id="surface1">
<path style=" stroke:none;fill-rule:nonzero;fill:url(#linear0);" d="M 68.054688 9.722656 L 68.054688 51.839844 C 68.054688 112.339844 67.8125 170.308594 67.382813 212.722656 C 66.949219 255.136719 66.367188 278.4375 65.761719 277.394531 L 48.183594 277.394531 C 47.882813 277.394531 47.640625 301.769531 47.640625 331.839844 L 47.640625 61.445313 C 47.636719 102.691406 47.398438 140.1875 47.027344 158.304688 C 46.65625 176.421875 46.214844 172.042969 45.890625 147 L 35.3125 54.210938 L 4.238281 54.210938 C 3.527344 95.324219 2.648438 94.460938 1.945313 51.957031 L 1.945313 9.722656 C 2.648438 -32.78125 3.527344 -33.644531 4.238281 7.464844 L 65.761719 7.464844 C 66.472656 -33.644531 67.351563 -32.78125 68.054688 9.722656 Z "/>
<path style=" stroke:none;fill-rule:nonzero;fill:rgb(100%,89.411765%,32.156863%);fill-opacity:1;" d="M 7.972656 35 L 19.640625 44.800781 C 19.851563 74.027344 20.191406 91.238281 20.554688 91.070313 C 20.917969 90.898438 21.257813 73.371094 21.464844 43.945313 L 21.464844 39.667969 L 67.976563 39.667969 L 67.976563 33.054688 L 8.671875 33.054688 C 8.441406 26.257813 8.199219 26.941406 7.972656 35 Z "/>
<path style=" stroke:none;fill-rule:nonzero;fill:rgb(100%,100%,100%);fill-opacity:1;" d="M 63.15625 25.121094 L 51.0625 15.320313 C 50.726563 -11.222656 50.269531 -16.542969 49.882813 1.578125 C 49.496094 19.699219 49.242188 58.148438 49.234375 100.878906 L 49.234375 105.15625 L 1.945313 105.15625 L 1.945313 27.222656 L 62.457031 27.222656 C 62.683594 33.96875 62.929688 33.234375 63.15625 25.121094 Z "/>
</g>
</svg>
