<?xml version="1.0" encoding="UTF-8"?>
<svg xmlns="http://www.w3.org/2000/svg" xmlns:xlink="http://www.w3.org/1999/xlink" width="70pt" height="70pt" viewBox="0 0 70 70" version="1.1">
<defs>
<linearGradient id="linear0" gradientUnits="userSpaceOnUse" x1="13.23" y1="12.83" x2="8.6" y2="4.06" gradientTransform="matrix(3.888889,0,0,3.888889,0,0)">
<stop offset="0" style="stop-color:rgb(0,127,222);stop-opacity:1;"/>
<stop offset="0.9" style="stop-color:rgb(53,169,255);stop-opacity:1;"/>
</linearGradient>
<linearGradient id="linear1" gradientUnits="userSpaceOnUse" x1="11.23" y1="10.28" x2="14.44" y2="15.8" gradientTransform="matrix(3.888889,0,0,3.888889,0,0)">
<stop offset="0.1" style="stop-color:rgb(53,169,255);stop-opacity:1;"/>
<stop offset="0.29" style="stop-color:rgb(45,165,255);stop-opacity:1;"/>
<stop offset="0.51" style="stop-color:rgb(25,157,255);stop-opacity:1;"/>
<stop offset="0.74" style="stop-color:rgb(0,141,246);stop-opacity:1;"/>
<stop offset="0.88" style="stop-color:rgb(0,127,222);stop-opacity:1;"/>
</linearGradient>
</defs>
<g id="surface1">
<path style=" stroke:none;fill-rule:nonzero;fill:rgb(119,197,255);fill-opacity:1;" d="M 3.851563 38.890625 L 34.609375 58.878906 L 65.957031 38.8125 L 69.882813 43.398438 L 34.609375 66.109375 L -0.117188 43.398438 Z "/>
<path style=" stroke:none;fill-rule:nonzero;fill:rgb(255,255,255);fill-opacity:1;" d="M 6.144531 36.320313 L 34.609375 2.410156 L 63.660156 36.359375 L 34.609375 54.714844 Z "/>
<path style=" stroke:none;fill-rule:nonzero;fill:rgb(119,197,255);fill-opacity:1;" d="M 34.609375 2.410156 L 34.609375 54.714844 L 6.144531 36.320313 Z "/>
<path style=" stroke:none;fill-rule:nonzero;fill:url(#linear0);" d="M 34.609375 2.410156 L 34.609375 54.714844 L 63.660156 36.359375 Z "/>
<path style=" stroke:none;fill-rule:nonzero;fill:rgb(51,168,255);fill-opacity:1;" d="M 34.609375 29.4375 L 63.660156 36.359375 L 34.609375 54.714844 Z "/>
<path style=" stroke:none;fill-rule:nonzero;fill:rgb(171,219,255);fill-opacity:1;" d="M 34.609375 54.714844 L 6.144531 36.320313 L 34.609375 29.4375 Z "/>
<path style=" stroke:none;fill-rule:nonzero;fill:url(#linear1);" d="M 34.609375 66.109375 L 69.882813 43.398438 L 65.957031 38.8125 L 34.609375 58.878906 Z "/>
<path style=" stroke:none;fill-rule:nonzero;fill:rgb(0,134,234);fill-opacity:1;" d="M 52.578125 67.589844 C 69.609375 55.378906 70 48.417969 70 46.238281 C 70 43.128906 69.6875 35.039063 61.5625 34.570313 C 57.546875 34.246094 53.816406 36.675781 52.5 40.484375 C 51.261719 36.648438 47.574219 34.148438 43.554688 34.417969 C 35.429688 35 35 43.128906 35 46.238281 C 35 48.417969 85.554688 55.378906 52.382813 67.472656 "/>
<path style=" stroke:none;fill-rule:nonzero;fill:rgb(255,255,255);fill-opacity:1;" d="M 70 44.996094 L 62.222656 44.996094 C 62 45.550781 61.796875 57.242188 61.679688 76.105469 L 59.226563 80.265625 C 59.171875 90.167969 59.070313 96.316406 58.957031 96.316406 C 58.84375 96.316406 58.738281 90.167969 58.683594 80.265625 L 54.988281 42.777344 C 54.898438 18.390625 54.664063 2.207031 54.40625 2.207031 C 54.144531 2.207031 53.914063 18.390625 53.820313 42.777344 L 50.554688 52.890625 C 50.511719 65.082031 50.394531 73.171875 50.265625 73.171875 C 50.132813 73.171875 50.015625 65.082031 49.972656 52.890625 L 47.015625 46.082031 C 46.914063 24.171875 46.695313 10.164063 46.453125 10.164063 C 46.210938 10.164063 45.992188 24.171875 45.890625 46.082031 L 42 53.160156 C 41.890625 75.367188 41.664063 89.097656 41.417969 88.160156 L 37.683594 88.160156 C -32.121094 88.675781 -88.289063 145.679688 -87.773438 215.484375 C -87.257813 285.285156 -30.253906 341.453125 39.550781 340.9375 L 42.777344 340.9375 C 42.953125 348.648438 43.148438 348.519531 43.320313 340.589844 L 46.082031 50.554688 L 49.972656 59.070313 C 50.0625 83.460938 50.296875 99.640625 50.554688 99.640625 C 50.816406 99.640625 51.046875 83.460938 51.140625 59.070313 L 55.027344 47.679688 L 58.332031 54.132813 C 58.441406 73.941406 58.652344 86.230469 58.878906 86.230469 C 59.105469 86.230469 59.3125 73.941406 59.421875 54.132813 L 63.3125 47.832031 C 63.484375 39.914063 63.683594 39.800781 63.855469 47.523438 L 70 47.523438 "/>
</g>
</svg>
