<?xml version="1.0" encoding="UTF-8"?>
<svg xmlns="http://www.w3.org/2000/svg" xmlns:xlink="http://www.w3.org/1999/xlink" width="70pt" height="70pt" viewBox="0 0 70 70" version="1.1">
<defs>
<linearGradient id="linear0" gradientUnits="userSpaceOnUse" x1="13.25" y1="12.83" x2="8.62" y2="4.06" gradientTransform="matrix(3.888889,0,0,3.888889,0,0)">
<stop offset="0" style="stop-color:rgb(0,127,222);stop-opacity:1;"/>
<stop offset="0.9" style="stop-color:rgb(53,169,255);stop-opacity:1;"/>
</linearGradient>
</defs>
<g id="surface1">
<path style=" stroke:none;fill-rule:nonzero;fill:rgb(119,197,255);fill-opacity:1;" d="M 3.929688 38.929688 L 34.726563 58.878906 L 66.070313 38.851563 L 70 43.398438 L 34.726563 66.148438 L 0 43.4375 Z "/>
<path style=" stroke:none;fill-rule:nonzero;fill:rgb(255,255,255);fill-opacity:1;" d="M 6.261719 36.359375 L 34.726563 2.410156 L 63.777344 36.398438 L 34.726563 54.753906 Z "/>
<path style=" stroke:none;fill-rule:nonzero;fill:rgb(119,197,255);fill-opacity:1;" d="M 34.726563 2.410156 L 34.726563 54.753906 L 6.261719 36.359375 Z "/>
<path style=" stroke:none;fill-rule:nonzero;fill:url(#linear0);" d="M 34.726563 2.410156 L 34.726563 54.753906 L 63.777344 36.398438 Z "/>
<path style=" stroke:none;fill-rule:nonzero;fill:rgb(51,168,255);fill-opacity:1;" d="M 34.726563 29.4375 L 63.777344 36.398438 L 34.726563 54.753906 Z "/>
<path style=" stroke:none;fill-rule:nonzero;fill:rgb(171,219,255);fill-opacity:1;" d="M 34.726563 54.753906 L 6.261719 36.359375 L 34.726563 29.4375 Z "/>
<path style=" stroke:none;fill-rule:nonzero;fill:rgb(41,164,255);fill-opacity:1;" d="M 34.726563 66.148438 L 70 43.398438 L 66.070313 38.851563 L 34.726563 58.878906 Z "/>
<path style=" stroke:none;fill-rule:nonzero;fill:rgb(0,108,188);fill-opacity:1;" d="M 67.859375 62.222656 C 68.394531 92.261719 69.046875 91.609375 69.570313 60.511719 C 69.574219 55.214844 65.335938 50.894531 60.042969 50.789063 C 54.09375 50.789063 51.023438 420.234375 50.4375 60.511719 C 50.347656 154.558594 51.019531 238.914063 51.957031 251.066406 L 67.859375 251.066406 Z "/>
<path style=" stroke:none;fill-rule:nonzero;fill:rgb(255,255,255);fill-opacity:0.8;" d="M 60.042969 52.035156 C 59.007813 52.042969 57.996094 51.746094 57.128906 51.179688 L 54.25 58.683594 L 338.140625 51.214844 C 338.363281 128.011719 276.292969 190.445313 199.5 190.671875 C 122.707031 190.898438 60.269531 128.828125 60.042969 52.035156 Z "/>
<path style=" stroke:none;fill-rule:nonzero;fill:rgb(0,108,188);fill-opacity:1;" d="M 65.410156 46.667969 C 65.410156 49.628906 63.007813 52.035156 60.042969 52.035156 C 57.082031 52.035156 54.679688 49.628906 54.679688 46.667969 C 54.679688 43.703125 57.082031 41.300781 60.042969 41.300781 C 63.007813 41.300781 65.410156 43.703125 65.410156 46.667969 Z "/>
<path style=" stroke:none;fill-rule:nonzero;fill:rgb(41,164,255);fill-opacity:1;" d="M 57.089844 67.589844 C 57.886719 113.464844 58.867188 112.484375 59.65625 65.023438 L 59.65625 64.710938 C 58.644531 56.738281 54.09375 50.207031 45.382813 50.207031 C 36.671875 50.207031 31.964844 55.726563 31.109375 64.75 C 31.035156 131.867188 31.230469 199.242188 31.652344 251.847656 C 32.078125 304.453125 32.695313 337.90625 33.367188 344.75 L 57.128906 344.75 Z "/>
<path style=" stroke:none;fill-rule:nonzero;fill:rgb(255,255,255);fill-opacity:0.8;" d="M 45.5 52.109375 C 43.964844 52.117188 42.464844 51.671875 41.183594 50.828125 L 45.460938 62.222656 L 49.738281 51.0625 C 48.457031 51.808594 46.984375 52.171875 45.5 52.109375 Z "/>
<path style=" stroke:none;fill-rule:nonzero;fill:rgb(41,164,255);fill-opacity:1;" d="M 53.472656 44.101563 C 53.472656 48.523438 49.886719 52.109375 45.460938 52.109375 C 41.035156 52.109375 37.449219 48.523438 37.449219 44.101563 C 37.449219 39.675781 41.035156 36.089844 45.460938 36.089844 C 49.886719 36.089844 53.472656 39.675781 53.472656 44.101563 Z "/>
</g>
</svg>
