<?xml version="1.0" encoding="UTF-8"?>
<svg xmlns="http://www.w3.org/2000/svg" xmlns:xlink="http://www.w3.org/1999/xlink" width="70pt" height="70pt" viewBox="0 0 70 70" version="1.1">
<defs>
<linearGradient id="linear0" gradientUnits="userSpaceOnUse" x1="13.25" y1="13.06" x2="8.62" y2="4.29" gradientTransform="matrix(3.888889,0,0,3.888889,0,0)">
<stop offset="0" style="stop-color:rgb(9.803922%,53.333333%,85.098039%);stop-opacity:1;"/>
<stop offset="0.9" style="stop-color:rgb(32.941176%,68.235294%,94.117647%);stop-opacity:1;"/>
</linearGradient>
<linearGradient id="linear1" gradientUnits="userSpaceOnUse" x1="11.26" y1="10.51" x2="14.46" y2="16.03" gradientTransform="matrix(3.888889,0,0,3.888889,0,0)">
<stop offset="0.1" style="stop-color:rgb(32.941176%,68.235294%,94.117647%);stop-opacity:1;"/>
<stop offset="0.29" style="stop-color:rgb(30.980392%,67.058824%,93.333333%);stop-opacity:1;"/>
<stop offset="0.51" style="stop-color:rgb(25.490196%,63.529412%,91.372549%);stop-opacity:1;"/>
<stop offset="0.74" style="stop-color:rgb(16.470588%,57.647059%,87.843137%);stop-opacity:1;"/>
<stop offset="0.88" style="stop-color:rgb(9.803922%,53.333333%,85.098039%);stop-opacity:1;"/>
</linearGradient>
</defs>
<g id="surface1">
<path style=" stroke:none;fill-rule:nonzero;fill:rgb(31.372549%,90.196078%,100%);fill-opacity:1;" d="M 3.929688 39.785156 L 34.726563 59.773438 L 66.070313 39.707031 L 70 44.253906 L 34.726563 67.003906 L 0 44.292969 Z "/>
<path style=" stroke:none;fill-rule:nonzero;fill:rgb(100%,100%,100%);fill-opacity:1;" d="M 6.261719 37.214844 L 34.726563 3.304688 L 63.777344 37.253906 L 34.726563 55.609375 Z "/>
<path style=" stroke:none;fill-rule:nonzero;fill:rgb(31.372549%,90.196078%,100%);fill-opacity:1;" d="M 34.726563 3.304688 L 34.726563 55.609375 L 6.261719 37.214844 Z "/>
<path style=" stroke:none;fill-rule:nonzero;fill:url(#linear0);" d="M 34.726563 3.304688 L 34.726563 55.609375 L 63.777344 37.253906 Z "/>
<path style=" stroke:none;fill-rule:nonzero;fill:rgb(32.54902%,69.411765%,87.843137%);fill-opacity:1;" d="M 34.726563 30.332031 L 63.777344 37.253906 L 34.726563 55.609375 Z "/>
<path style=" stroke:none;fill-rule:nonzero;fill:rgb(61.176471%,92.156863%,100%);fill-opacity:1;" d="M 34.726563 55.609375 L 6.261719 37.214844 L 34.726563 30.332031 Z "/>
<path style=" stroke:none;fill-rule:nonzero;fill:url(#linear1);" d="M 34.726563 67.003906 L 70 44.253906 L 66.070313 39.707031 L 34.726563 59.773438 Z "/>
<path style=" stroke:none;fill-rule:nonzero;fill:rgb(46.666667%,22.745098%,86.27451%);fill-opacity:1;" d="M 52.617188 35.15625 L 35.234375 59.5 L 52.617188 66.578125 L 70 59.5 Z "/>
<path style=" stroke:none;fill-rule:nonzero;fill:rgb(97.647059%,97.647059%,97.647059%);fill-opacity:0.501961;" d="M 52.617188 35.15625 L 35.234375 59.5 L 52.617188 66.578125 Z "/>
</g>
</svg>
