<?xml version="1.0" encoding="UTF-8"?>
<svg xmlns="http://www.w3.org/2000/svg" xmlns:xlink="http://www.w3.org/1999/xlink" width="70pt" height="70pt" viewBox="0 0 70 70" version="1.1">
<defs>
<linearGradient id="linear0" gradientUnits="userSpaceOnUse" x1="13.18" y1="13.01" x2="8.63" y2="4.38" gradientTransform="matrix(3.888889,0,0,3.888889,0,0)">
<stop offset="0" style="stop-color:rgb(0,127,222);stop-opacity:1;"/>
<stop offset="0.9" style="stop-color:rgb(53,169,255);stop-opacity:1;"/>
</linearGradient>
<linearGradient id="linear1" gradientUnits="userSpaceOnUse" x1="11.22" y1="10.5" x2="14.37" y2="15.93" gradientTransform="matrix(3.888889,0,0,3.888889,0,0)">
<stop offset="0.1" style="stop-color:rgb(53,169,255);stop-opacity:1;"/>
<stop offset="0.29" style="stop-color:rgb(45,165,255);stop-opacity:1;"/>
<stop offset="0.51" style="stop-color:rgb(25,157,255);stop-opacity:1;"/>
<stop offset="0.74" style="stop-color:rgb(0,141,246);stop-opacity:1;"/>
<stop offset="0.88" style="stop-color:rgb(0,127,222);stop-opacity:1;"/>
</linearGradient>
</defs>
<g id="surface1">
<path style=" stroke:none;fill-rule:nonzero;fill:rgb(119,197,255);fill-opacity:1;" d="M 4.472656 39.746094 L 34.726563 59.382813 L 65.527344 39.707031 L 69.417969 44.179688 L 34.726563 66.539063 L 0.582031 44.214844 Z "/>
<path style=" stroke:none;fill-rule:nonzero;fill:rgb(255,255,255);fill-opacity:1;" d="M 6.726563 37.253906 L 34.726563 3.890625 L 63.3125 37.292969 L 34.726563 55.339844 Z "/>
<path style=" stroke:none;fill-rule:nonzero;fill:rgb(119,197,255);fill-opacity:1;" d="M 34.726563 3.890625 L 34.726563 55.339844 L 6.726563 37.253906 Z "/>
<path style=" stroke:none;fill-rule:nonzero;fill:url(#linear0);" d="M 34.726563 3.890625 L 34.726563 55.339844 L 63.3125 37.292969 Z "/>
<path style=" stroke:none;fill-rule:nonzero;fill:rgb(51,168,255);fill-opacity:1;" d="M 34.726563 30.449219 L 63.3125 37.292969 L 34.726563 55.339844 Z "/>
<path style=" stroke:none;fill-rule:nonzero;fill:rgb(171,219,255);fill-opacity:1;" d="M 34.726563 55.339844 L 6.726563 37.253906 L 34.726563 30.449219 Z "/>
<path style=" stroke:none;fill-rule:nonzero;fill:url(#linear1);" d="M 34.726563 66.539063 L 69.417969 44.179688 L 65.527344 39.707031 L 34.726563 59.382813 Z "/>
<path style=" stroke:none;fill-rule:nonzero;fill:rgb(135,204,255);fill-opacity:1;" d="M 63.464844 46.199219 C 64.324219 45.351563 64.804688 44.195313 64.804688 42.992188 C 64.804688 41.785156 64.324219 40.628906 63.464844 39.785156 L 55.6875 32.003906 C 53.925781 30.246094 51.074219 30.246094 49.3125 32.003906 L 41.535156 39.785156 C 39.789063 41.566406 39.789063 44.417969 41.535156 46.199219 L 48.027344 52.695313 C 48.257813 76.625 48.386719 108.839844 48.378906 142.140625 L 48.378906 154.195313 C 48.363281 195.609375 48.535156 235.480469 48.84375 263.082031 L 51.800781 558.640625 C 51.984375 578.910156 52.246094 590.46875 52.519531 590.46875 C 52.792969 590.46875 53.054688 578.910156 53.238281 558.640625 L 57.789063 554.089844 C 57.789063 553.816406 57.789063 553.542969 57.789063 553.273438 L 56.582031 552.066406 C 56.582031 551.753906 56.582031 551.445313 56.582031 551.132813 L 55.378906 549.929688 C 55.378906 549.644531 55.378906 549.355469 55.378906 549.070313 L 54.171875 547.867188 C 54.171875 547.570313 54.171875 547.269531 54.171875 546.972656 L 52.964844 545.726563 C 52.964844 545.457031 52.964844 545.183594 52.964844 544.910156 L 51.253906 543.199219 L 51.253906 542.578125 Z M 52.5 33.871094 C 53.914063 33.878906 55.0625 148.273438 55.066406 289.691406 C 55.070313 431.109375 53.929688 546.257813 52.515625 547.199219 C 51.101563 548.140625 49.949219 434.515625 49.933594 293.105469 L 47.367188 293.105469 Z "/>
<path style=" stroke:none;fill-rule:nonzero;fill:rgb(71,176,255);fill-opacity:0.74902;" d="M 50.554688 66.109375 C 50.65625 82.445313 50.832031 92.386719 51.023438 92.300781 C 51.214844 92.210938 51.390625 82.109375 51.488281 65.683594 L 51.488281 55.726563 C 51.414063 54.089844 51.332031 53.917969 51.253906 55.222656 C 51.082031 42.824219 50.847656 41.871094 50.664063 52.789063 C 50.480469 63.703125 50.375 84.453125 50.398438 105.777344 L 50.398438 115.539063 C 50.527344 102.398438 50.582031 84.113281 50.554688 66.109375 Z "/>
<path style=" stroke:none;fill-rule:nonzero;fill:rgb(71,176,255);fill-opacity:0.74902;" d="M 46.976563 42.390625 L 58.371094 42.390625 C 58.757813 42.390625 59.070313 42.703125 59.070313 43.089844 L 59.070313 43.207031 C 59.070313 43.59375 58.757813 43.90625 58.371094 43.90625 L 46.976563 43.90625 C 46.589844 43.90625 46.277344 43.59375 46.277344 43.207031 L 46.277344 43.089844 C 46.277344 42.703125 46.589844 42.390625 46.976563 42.390625 Z "/>
<path style=" stroke:none;fill-rule:nonzero;fill:rgb(71,176,255);fill-opacity:0.74902;" d="M 46.976563 44.839844 L 58.371094 44.839844 C 58.757813 44.839844 59.070313 45.152344 59.070313 45.539063 L 59.070313 45.65625 C 59.070313 46.042969 58.757813 46.355469 58.371094 46.355469 L 46.976563 46.355469 C 46.589844 46.355469 46.277344 46.042969 46.277344 45.65625 L 46.277344 45.539063 C 46.277344 45.152344 46.589844 44.839844 46.976563 44.839844 Z "/>
</g>
</svg>
