<?xml version="1.0" encoding="UTF-8"?>
<svg xmlns="http://www.w3.org/2000/svg" xmlns:xlink="http://www.w3.org/1999/xlink" width="70pt" height="70pt" viewBox="0 0 70 70" version="1.1">
<defs>
<linearGradient id="linear0" gradientUnits="userSpaceOnUse" x1="-6784.85" y1="1118.78" x2="-6784.85" y2="1089.98" gradientTransform="matrix(1.944444,0,0,-1.944444,13223.816667,2177.738889)">
<stop offset="0" style="stop-color:rgb(41,164,255);stop-opacity:1;"/>
<stop offset="0.18" style="stop-color:rgb(35,161,255);stop-opacity:1;"/>
<stop offset="0.41" style="stop-color:rgb(17,154,255);stop-opacity:1;"/>
<stop offset="0.66" style="stop-color:rgb(0,139,242);stop-opacity:1;"/>
<stop offset="0.94" style="stop-color:rgb(0,114,198);stop-opacity:1;"/>
<stop offset="1" style="stop-color:rgb(0,108,188);stop-opacity:1;"/>
</linearGradient>
<linearGradient id="linear1" gradientUnits="userSpaceOnUse" x1="-1.47" y1="14.91" x2="17.16" y2="14.8" gradientTransform="matrix(3.888889,0,0,3.888889,0,0)">
<stop offset="0" style="stop-color:rgb(17,154,255);stop-opacity:0.141423;"/>
<stop offset="0.16" style="stop-color:rgb(0,110,192);stop-opacity:0;"/>
<stop offset="0.18" style="stop-color:rgb(0,103,180);stop-opacity:0.0558247;"/>
<stop offset="0.23" style="stop-color:rgb(0,87,152);stop-opacity:0.178639;"/>
<stop offset="0.28" style="stop-color:rgb(0,77,134);stop-opacity:0.256794;"/>
<stop offset="0.34" style="stop-color:rgb(0,73,128);stop-opacity:0.286567;"/>
<stop offset="0.76" style="stop-color:rgb(0,36,64);stop-opacity:0.331226;"/>
<stop offset="0.9" style="stop-color:rgb(0,122,212);stop-opacity:0;"/>
<stop offset="1" style="stop-color:rgb(17,154,255);stop-opacity:0;"/>
</linearGradient>
<clipPath id="clip1">
  <path d="M 35 35 L 68 35 L 68 68 L 35 68 Z "/>
</clipPath>
<clipPath id="clip2">
  <path d="M 67.746094 51.605469 C 67.746094 60.539063 60.5 67.785156 51.566406 67.785156 C 42.632813 67.785156 35.390625 60.539063 35.390625 51.605469 C 35.390625 42.671875 42.632813 35.429688 51.566406 35.429688 C 60.5 35.429688 67.746094 42.671875 67.746094 51.605469 Z "/>
</clipPath>
<clipPath id="clip3">
  <path d="M 60 37 L 68 37 L 68 68 L 60 68 Z "/>
</clipPath>
<clipPath id="clip4">
  <path d="M 67.746094 51.605469 C 67.746094 60.539063 60.5 67.785156 51.566406 67.785156 C 42.632813 67.785156 35.390625 60.539063 35.390625 51.605469 C 35.390625 42.671875 42.632813 35.429688 51.566406 35.429688 C 60.5 35.429688 67.746094 42.671875 67.746094 51.605469 Z "/>
</clipPath>
<clipPath id="clip5">
  <path d="M 61 38 L 68 38 L 68 68 L 61 68 Z "/>
</clipPath>
<clipPath id="clip6">
  <path d="M 67.746094 51.605469 C 67.746094 60.539063 60.5 67.785156 51.566406 67.785156 C 42.632813 67.785156 35.390625 60.539063 35.390625 51.605469 C 35.390625 42.671875 42.632813 35.429688 51.566406 35.429688 C 60.5 35.429688 67.746094 42.671875 67.746094 51.605469 Z "/>
</clipPath>
</defs>
<g id="surface1">
<path style=" stroke:none;fill-rule:nonzero;fill:url(#linear0);" d="M 21.816406 41.417969 L 38.65625 41.417969 L 38.65625 58.332031 L 21.816406 58.332031 Z M 2.371094 19.015625 L 19.015625 19.015625 L 19.015625 2.214844 L 4.550781 2.214844 C 3.261719 2.214844 2.214844 12.664063 2.214844 25.550781 Z M 4.550781 58.332031 L 19.015625 58.332031 L 19.015625 41.417969 L 2.214844 41.417969 L 2.214844 55.882813 C 2.894531 60.835938 3.785156 61.769531 4.550781 58.332031 Z M 2.214844 38.890625 L 19.015625 38.890625 L 19.015625 21.816406 L 2.214844 21.816406 Z M 41.457031 58.332031 L 55.921875 58.332031 C 56.683594 61.804688 57.578125 60.914063 58.253906 56 L 58.253906 41.417969 L 41.457031 41.417969 Z M 22.011719 38.890625 L 38.65625 38.890625 L 38.65625 21.816406 L 21.816406 21.816406 Z M 41.648438 38.890625 L 58.332031 38.890625 L 58.332031 21.816406 L 41.457031 21.816406 Z M 41.648438 2.488281 L 41.648438 19.015625 L 58.332031 19.015625 L 58.332031 4.550781 C 57.652344 -0.363281 56.761719 -1.253906 56 2.214844 Z M 22.207031 19.289063 L 38.65625 19.289063 L 38.65625 2.214844 L 21.816406 2.214844 Z "/>
<path style=" stroke:none;fill-rule:nonzero;fill:url(#linear1);" d="M 41.457031 58.332031 L 57.59375 58.332031 C 57.363281 61.539063 57.125 61.160156 56.894531 57.207031 L 41.339844 57.207031 Z "/>
<path style=" stroke:none;fill-rule:nonzero;fill:rgb(47,166,255);fill-opacity:1;" d="M 67.746094 51.605469 C 67.746094 60.539063 60.5 67.785156 51.566406 67.785156 C 42.632813 67.785156 35.390625 60.539063 35.390625 51.605469 C 35.390625 42.671875 42.632813 35.429688 51.566406 35.429688 C 60.5 35.429688 67.746094 42.671875 67.746094 51.605469 Z "/>
<g clip-path="url(#clip1)" clip-rule="nonzero">
<g clip-path="url(#clip2)" clip-rule="nonzero">
<path style=" stroke:none;fill-rule:nonzero;fill:rgb(143,207,255);fill-opacity:1;" d="M 66.34375 53.9375 C 65.527344 96.714844 64.359375 73.382813 63.816406 116.160156 C -7.058594 115.484375 -65.066406 172.394531 -65.742188 243.269531 C -66.417969 314.144531 -9.511719 372.152344 61.367188 372.828125 C 61.367188 373.0625 61.367188 373.410156 61.09375 442.828125 C 60.003906 516.714844 58.917969 594.496094 59.929688 757.828125 C 58.761719 757.828125 59.148438 756.777344 58.605469 756.464844 C 57.78125 720.648438 56.84375 723.613281 56.042969 764.550781 C 55.246094 805.484375 54.671875 880.078125 54.484375 967.789063 L 199.382813 1068.898438 L 125.183594 967.789063 C 54.484375 968.410156 53.394531 1143.488281 233.839844 967.789063 C 234.1875 1022.464844 323.285156 1022.464844 323.285156 1022.464844 C 323.285156 1022.464844 323.515625 1116.539063 334.949219 1022.464844 C 346.382813 928.394531 334.949219 1022.464844 335.144531 1022.464844 C 335.339844 1022.464844 335.144531 1022.464844 335.144531 1022.464844 C 333.707031 1022.464844 333.394531 1020.714844 331.996094 1020.523438 C 331.429688 1020.371094 330.871094 1020.1875 330.320313 1019.976563 C 329.273438 1019.628906 328.066406 1019.433594 327.832031 1017.878906 C 327.375 1006.1875 326.894531 1005.535156 326.433594 1015.972656 C 325.964844 1015.660156 325.695313 1015.078125 325.226563 1014.726563 C 325.046875 1014.207031 324.753906 1013.726563 324.371094 1013.328125 L 320.988281 1022.351563 L 317.839844 1022.351563 C 323.984375 1012.082031 323.90625 1010.800781 322.503906 1009.984375 C 321.105469 1009.167969 321.339844 1056.648438 320.792969 1029.429688 C 320.25 1002.207031 319.9375 1079.984375 319.785156 1087.761719 C 318.65625 1118.871094 317.683594 1216.09375 316.246094 1201.082031 C 315.972656 1298.304688 315.816406 1337.195313 315.582031 1337.195313 C 315.351563 1337.195313 314.457031 1336.648438 342.804688 1335.714844 C 371.15625 1334.785156 342.261719 1333.421875 517.804688 1332.488281 C 517.609375 1331.945313 516.210938 1332.0625 516.832031 1331.050781 C 517.457031 1330.039063 515.746094 1330.542969 684.054688 1331.050781 C 684.445313 1330.3125 683.589844 1329.378906 703.5 1328.949219 C 704.378906 1328.449219 705.320313 1328.070313 706.300781 1327.820313 L 749.078125 1327.820313 C 707 1438.8125 837.433594 1565.238281 741.882813 1327.820313 C 742.738281 1327.820313 743.476563 1327.277344 1006.792969 1331.710938 C 1008.078125 1331.710938 743.476563 1331.710938 743.476563 1331.710938 C 743.476563 1331.710938 744.527344 1465.996094 864.035156 1465.996094 C 864.300781 1460.09375 864.582031 1460.09375 864.851563 1465.996094 C 865.472656 1494.421875 909.300781 1465.761719 909.300781 1465.761719 C 909.632813 1467.023438 910.003906 1466.691406 910.3125 1464.867188 C 910.078125 1464.515625 945.3125 1464.011719 1003.644531 1464.246094 C 1396.171875 1204.277344 1503.632813 675.328125 1243.667969 282.800781 C 983.699219 -109.726563 454.75 -217.1875 62.222656 42.777344 C 62.726563 42.390625 163.332031 42.15625 105 41.261719 C 105.3125 29.273438 105.65625 28.503906 105.972656 39.082031 L 195.417969 39.082031 C 106.710938 172.277344 391.6875 42.972656 106.246094 74.082031 C 106.246094 74.589844 106.246094 74.859375 106.246094 74.859375 C 106.246094 74.859375 105.542969 74.859375 105.15625 74.628906 L 104.882813 241.851563 C 103.945313 315.609375 102.625 315.207031 101.695313 240.878906 C 101.695313 240.410156 101.695313 240.214844 148.359375 239.984375 C 195.027344 239.75 147.621094 239.554688 222.25 239.050781 C 222.125 235.320313 221.988281 235.054688 221.859375 238.273438 C 221.550781 238.273438 221.355469 238.273438 221.277344 273.273438 C 221.199219 308.273438 219.996094 370.496094 220.1875 479.382813 C 220.382813 588.273438 219.449219 564.9375 218.90625 533.828125 C 217.621094 533.167969 217.15625 584.382813 216.609375 646.605469 C 216.066406 708.828125 216.609375 647.929688 280.621094 767.976563 C 344.632813 888.027344 426.066406 767.976563 280.621094 767.976563 C 280.996094 773.46875 281.378906 772.707031 281.75 765.722656 C 281.75 765.023438 308.972656 764.050781 406.195313 763.933594 C 406.945313 757.550781 407.644531 802.132813 407.90625 872.820313 C 408.101563 916.105469 455.464844 923.378906 455.464844 923.378906 C 456.347656 925.28125 457.050781 927.257813 457.566406 929.289063 L 456.128906 929.09375 C 456.128906 927.964844 455.15625 928.472656 454.609375 928.238281 C 65.488281 53.042969 66.382813 53.238281 66.34375 53.9375 Z "/>
</g>
</g>
<g clip-path="url(#clip3)" clip-rule="nonzero">
<g clip-path="url(#clip4)" clip-rule="nonzero">
<path style=" stroke:none;fill-rule:nonzero;fill:rgb(143,207,255);fill-opacity:1;" d="M 60.746094 39.9375 C 60.238281 39.472656 59.695313 39.042969 60.511719 38.382813 C 61.328125 37.722656 59.734375 37.253906 72.179688 38.382813 C 72.183594 354.105469 69.625 610.398438 66.46875 610.828125 C 63.3125 611.257813 60.75 355.660156 60.746094 39.9375 Z "/>
</g>
</g>
<g clip-path="url(#clip5)" clip-rule="nonzero">
<g clip-path="url(#clip6)" clip-rule="nonzero">
<path style=" stroke:none;fill-rule:nonzero;fill:rgb(143,207,255);fill-opacity:1;" d="M 61.949219 38.382813 C 62.378906 37.957031 159.171875 37.996094 166.949219 38.382813 C 174.726563 38.773438 166.445313 112.273438 165.9375 127.828125 C 165.433594 143.382813 61.640625 38.890625 61.949219 38.382813 Z "/>
</g>
</g>
</g>
</svg>
