<?xml version="1.0" encoding="UTF-8"?>
<svg xmlns="http://www.w3.org/2000/svg" xmlns:xlink="http://www.w3.org/1999/xlink" width="70pt" height="70pt" viewBox="0 0 70 70" version="1.1">
<defs>
<linearGradient id="linear0" gradientUnits="userSpaceOnUse" x1="13.01" y1="5.83" x2="12.78" y2="19.82" gradientTransform="matrix(3.888889,0,0,3.888889,0,0)">
<stop offset="0" style="stop-color:rgb(61.176471%,92.156863%,100%);stop-opacity:1;"/>
<stop offset="1" style="stop-color:rgb(31.372549%,90.196078%,100%);stop-opacity:1;"/>
</linearGradient>
</defs>
<g id="surface1">
<path style=" stroke:none;fill-rule:nonzero;fill:rgb(0%,47.058824%,83.137255%);fill-opacity:1;" d="M 50.945313 101.109375 L 23.722656 101.109375 C 22.753906 101.109375 21.972656 179.460938 21.972656 276.109375 L 21.972656 315.777344 C 23.347656 314.585938 24.816406 313.507813 26.367188 312.550781 L 31.539063 312.550781 L 34.417969 316.4375 L 34.417969 322.429688 L 30.800781 327.25 L 25.820313 326.589844 L 21.933594 325.070313 L 21.933594 324.023438 C 21.921875 371.105469 22.101563 416.621094 22.433594 450.289063 C 22.761719 483.953125 23.210938 502.921875 23.683594 502.910156 L 50.90625 502.910156 C 51.449219 533.621094 52.117188 532.9375 52.65625 501.121094 L 52.65625 -2.761719 C 51.925781 -7.394531 51.242188 34.0625 50.945313 101.109375 Z "/>
<path style=" stroke:none;fill-rule:nonzero;fill:rgb(94.901961%,94.901961%,94.901961%);fill-opacity:1;" d="M 26.054688 8.050781 L 31.109375 8.050781 C 31.230469 6.953125 31.351563 10.972656 31.4375 19.117188 C 31.527344 27.261719 31.578125 38.773438 31.578125 50.828125 L 31.578125 57.4375 C 31.335938 57.566406 31.136719 39.445313 31.109375 15.554688 L 26.054688 15.554688 C 25.921875 23.054688 25.757813 22.875 25.628906 15.089844 L 25.628906 8.476563 C 25.757813 0.703125 25.921875 0.539063 26.054688 8.050781 Z M 35 8.050781 L 40.015625 8.050781 C 40.253906 8.050781 40.445313 27.203125 40.445313 50.828125 L 40.445313 57.4375 C 40.457031 69.441406 40.414063 81.347656 40.332031 90.234375 C 40.253906 99.117188 40.136719 104.15625 40.015625 104.105469 L 35 104.105469 C 34.867188 111.601563 34.703125 111.425781 34.570313 103.640625 L 34.570313 8.476563 C 34.703125 0.703125 34.867188 0.539063 35 8.050781 Z M 43.828125 8.050781 L 48.804688 8.050781 C 49.042969 8.050781 49.234375 27.203125 49.234375 50.828125 L 49.234375 57.4375 C 49.246094 69.441406 49.203125 81.347656 49.121094 90.234375 C 49.042969 99.117188 48.925781 104.15625 48.804688 104.105469 L 43.671875 104.105469 C 43.527344 112.296875 43.347656 112.121094 43.207031 103.640625 L 43.207031 8.476563 C 43.347656 -0.882813 43.53125 -1.050781 43.671875 8.050781 Z M 26.054688 20.066406 L 31.109375 20.066406 C 31.230469 18.972656 31.351563 22.988281 31.4375 31.132813 C 31.527344 39.277344 31.578125 50.792969 31.578125 62.84375 L 31.578125 27.222656 C 31.4375 36.5625 31.253906 36.699219 31.109375 27.570313 L 26.054688 27.570313 C 25.921875 35.105469 25.757813 34.972656 25.628906 27.222656 L 25.628906 20.496094 C 25.757813 12.71875 25.921875 12.558594 26.054688 20.066406 Z M 35 20.066406 L 40.015625 20.066406 C 40.253906 20.066406 40.445313 39.21875 40.445313 62.84375 L 40.445313 27.222656 C 40.445313 50.847656 40.253906 70 40.015625 70 L 35 70 C 34.863281 75.371094 34.707031 73.367188 34.589844 64.6875 C 34.472656 56.007813 34.40625 41.863281 34.417969 27.222656 L 34.417969 20.496094 C 34.578125 5.058594 34.835938 4.875 35 20.066406 Z M 43.828125 20.066406 L 48.804688 20.066406 C 49.042969 20.066406 49.234375 39.21875 49.234375 62.84375 L 49.234375 27.222656 C 49.234375 50.847656 49.042969 70 48.804688 70 L 43.671875 70 C 43.550781 71.097656 43.433594 67.078125 43.34375 58.933594 C 43.253906 50.789063 43.203125 39.273438 43.207031 27.222656 L 43.207031 20.496094 C 43.347656 11.132813 43.53125 10.964844 43.671875 20.066406 Z "/>
<path style=" stroke:none;fill-rule:nonzero;fill:rgb(31.372549%,90.196078%,100%);fill-opacity:1;" d="M 27.6875 42.972656 C 27.25 41.195313 25.628906 39.964844 23.800781 40.015625 L 9.839844 40.015625 C -47.078125 39.953125 -93.269531 86.039063 -93.332031 142.957031 C -93.398438 199.871094 -47.308594 246.0625 9.605469 246.128906 L 9.605469 246.320313 L 23.800781 246.320313 C 24.464844 248.148438 26.375 249.203125 28.273438 248.792969 C 30.175781 248.382813 31.480469 246.636719 31.332031 244.699219 C 31.183594 242.757813 29.628906 241.226563 27.6875 241.109375 Z "/>
<path style=" stroke:none;fill-rule:nonzero;fill:rgb(19.607843%,74.509804%,86.666667%);fill-opacity:1;" d="M 38.421875 41.222656 C 38.230469 35.628906 33.597656 31.21875 28 31.304688 C 23.539063 31.234375 19.53125 34.019531 18.042969 38.226563 C 14.492188 38.800781 11.523438 41.234375 10.265625 44.605469 L 22.945313 44.605469 C 23.839844 42.804688 25.675781 41.660156 27.6875 41.648438 C 30.441406 41.53125 32.851563 43.472656 33.324219 46.1875 C 33.796875 48.898438 32.183594 51.542969 29.558594 52.363281 C 26.929688 53.183594 24.097656 51.925781 22.945313 49.429688 L 9.839844 49.429688 C 10.855469 54.027344 14.96875 57.28125 19.679688 57.207031 L 37.332031 57.207031 C 41.683594 57.441406 45.417969 54.136719 45.714844 49.789063 C 46.015625 45.441406 42.765625 41.660156 38.421875 41.300781 Z "/>
<path style=" stroke:none;fill-rule:nonzero;fill:rgb(31.372549%,90.196078%,100%);fill-opacity:1;" d="M 27.6875 42.972656 C 27.25 41.195313 25.628906 39.964844 23.800781 40.015625 L 9.839844 40.015625 C 9.355469 40 8.871094 39.933594 8.398438 39.820313 C 4.953125 39.085938 2.558594 35.949219 2.75 32.429688 C 2.945313 28.914063 5.671875 26.058594 9.179688 25.707031 L 8.515625 25.707031 L 8.75 25.042969 C 9.863281 21.734375 13.042969 19.574219 16.527344 19.753906 C 19.410156 19.695313 22.109375 21.179688 23.605469 23.644531 C 25.363281 25.125 26.625 27.105469 27.222656 29.320313 C 25.503906 25.621094 21.773438 23.277344 17.695313 23.332031 C 13.574219 23.296875 9.835938 25.734375 8.207031 29.515625 C 3.902344 30.316406 0.714844 33.976563 0.519531 38.351563 C 0.324219 42.722656 3.171875 46.65625 7.390625 47.832031 C 7.605469 49.382813 8.429688 50.785156 9.683594 51.722656 L 23.800781 51.722656 C 24.464844 53.546875 26.375 54.605469 28.273438 54.195313 C 30.175781 53.785156 31.480469 52.035156 31.332031 50.097656 C 31.183594 48.160156 29.628906 46.628906 27.6875 46.511719 Z "/>
<path style=" stroke:none;fill-rule:nonzero;fill:url(#linear0);" d="M 31.109375 43.90625 L 48.609375 26.40625 C 49.429688 -54.65625 50.75 -54.65625 51.566406 26.40625 L 69.027344 43.90625 C 69.296875 70.601563 69.375 110.828125 69.230469 145.765625 C 69.085938 180.703125 68.746094 203.441406 68.367188 203.351563 L 57.789063 203.351563 C 57.273438 203.351563 56.855469 245.136719 56.855469 296.683594 L 56.855469 318.5 C 56.855469 359.308594 56.523438 392.390625 56.117188 392.390625 L 44.449219 392.390625 C 44.222656 406.222656 43.9375 405.933594 43.710938 391.648438 L 43.710938 46.433594 C 43.425781 29.472656 43.066406 29.117188 42.777344 45.5 L 31.929688 45.5 C 31.667969 57.542969 31.367188 56.953125 31.109375 43.90625 Z "/>
</g>
</svg>
