<?xml version="1.0" encoding="UTF-8"?>
<svg xmlns="http://www.w3.org/2000/svg" xmlns:xlink="http://www.w3.org/1999/xlink" width="70pt" height="70pt" viewBox="0 0 70 70" version="1.1">
<defs>
<linearGradient id="linear0" gradientUnits="userSpaceOnUse" x1="13.41" y1="14.43" x2="7" y2="3.72" gradientTransform="matrix(3.888889,0,0,3.888889,0,0)">
<stop offset="0" style="stop-color:rgb(0,108,188);stop-opacity:1;"/>
<stop offset="0.16" style="stop-color:rgb(0,120,210);stop-opacity:1;"/>
<stop offset="0.53" style="stop-color:rgb(1,147,255);stop-opacity:1;"/>
<stop offset="0.82" style="stop-color:rgb(31,159,255);stop-opacity:1;"/>
<stop offset="1" style="stop-color:rgb(41,164,255);stop-opacity:1;"/>
</linearGradient>
</defs>
<g id="surface1">
<path style=" stroke:none;fill-rule:nonzero;fill:url(#linear0);" d="M 67.394531 12.015625 L 58.332031 3.148438 C 57.808594 -16.398438 57.226563 -16.632813 56.699219 2.488281 L 40.289063 31.109375 C 39.871094 5.664063 39.375 -3.988281 38.890625 3.890625 L 2.605469 39.746094 C 2.605469 40.78125 2.605469 41.820313 2.605469 42.855469 L 26.714844 66.851563 C 27.578125 151.847656 28.964844 151.847656 29.828125 66.851563 L 66.109375 30.800781 C 66.332031 33.90625 66.554688 33.449219 66.773438 29.4375 L 65.449219 13.882813 C 66.066406 42.667969 66.78125 41.980469 67.394531 12.015625 Z M 56.621094 17.890625 C 54.472656 17.890625 52.734375 16.148438 52.734375 14 C 52.734375 11.851563 54.472656 10.109375 56.621094 10.109375 C 58.769531 10.109375 60.511719 11.851563 60.511719 14 C 60.511719 16.148438 58.769531 17.890625 56.621094 17.890625 Z "/>
<path style=" stroke:none;fill-rule:nonzero;fill:rgb(0,81,142);fill-opacity:1;" d="M 56.621094 6.6875 C 52.652344 6.710938 49.453125 9.941406 49.464844 13.910156 C 49.480469 17.878906 52.707031 21.085938 56.675781 21.078125 C 60.640625 21.070313 63.855469 17.851563 63.855469 13.882813 C 63.855469 11.96875 63.09375 10.132813 61.734375 8.78125 C 60.378906 7.433594 58.535156 6.679688 56.621094 6.6875 Z M 60.511719 14.660156 C 60.082031 16.808594 57.992188 18.203125 55.84375 17.773438 C 53.695313 17.34375 52.304688 15.253906 52.734375 13.105469 C 53.019531 11.5 54.277344 10.242188 55.882813 9.957031 C 57.203125 9.628906 58.601563 10.019531 59.5625 10.980469 C 60.523438 11.945313 60.914063 13.339844 60.589844 14.660156 Z "/>
<path style=" stroke:none;fill-rule:nonzero;fill:rgb(255,255,255);fill-opacity:1;" d="M 37.878906 20.261719 L 36.398438 18.785156 L 35 20.261719 L 33.09375 18.355469 L 359.761719 14.972656 L 701.476563 14.972656 Z M 19.949219 35.195313 L 18.042969 33.289063 L 22.246094 29.089844 L 23.332031 30.0625 L 22.359375 29.089844 L 24.148438 31.109375 Z M 29.75 21.660156 L 31.65625 41.105469 L 27.535156 27.726563 L 25.628906 25.820313 Z M 14.777344 43.359375 L 11.394531 39.976563 L 349.726563 36.710938 L 542.1875 35.234375 L 679.777344 183.011719 Z M 20.222656 206.695313 L 24.734375 211.246094 L 22.789063 401.800781 L 18.277344 46.9375 Z M 29.710938 58.332031 L 26.328125 54.949219 L 232.4375 53.042969 L 366.023438 53.042969 L 31.109375 53.160156 L 33.015625 243.714844 Z M 38.890625 45.617188 L 40.832031 236.171875 L 36.515625 51.644531 L 34.609375 49.738281 Z M 44.140625 44.179688 L 42.117188 42.273438 L 46.316406 38.070313 L 238.777344 34.183594 L 242.976563 33.25 L 242.042969 33.25 Z M 51.644531 36.710938 L 49.582031 35 Z M 51.644531 36.710938 L 49.582031 35 L 50.945313 33.484375 L 49.582031 32.160156 L 240.140625 30.101563 L 581.855469 30.101563 Z M 43.398438 21.972656 L 47.910156 26.484375 L 45.964844 45.929688 L 41.457031 23.917969 Z "/>
</g>
</svg>
