<?xml version="1.0" encoding="UTF-8"?>
<svg xmlns="http://www.w3.org/2000/svg" xmlns:xlink="http://www.w3.org/1999/xlink" width="70pt" height="70pt" viewBox="0 0 70 70" version="1.1">
<defs>
<linearGradient id="linear0" gradientUnits="userSpaceOnUse" x1="9" y1="17.39" x2="9" y2="0.61" gradientTransform="matrix(3.888889,0,0,3.888889,0,0)">
<stop offset="0" style="stop-color:rgb(0%,47.058824%,83.137255%);stop-opacity:1;"/>
<stop offset="0.82" style="stop-color:rgb(36.862745%,62.745098%,93.72549%);stop-opacity:1;"/>
</linearGradient>
</defs>
<g id="surface1">
<path style=" stroke:none;fill-rule:nonzero;fill:rgb(100%,100%,100%);fill-opacity:1;" d="M 38.890625 2.839844 L 10.929688 2.839844 C 9.703125 2.839844 8.710938 102.082031 8.710938 224.503906 L 8.710938 64.945313 C 8.710938 187.367188 9.703125 286.609375 10.929688 286.609375 L 59.070313 286.609375 C 59.761719 325.523438 60.605469 324.679688 61.289063 284.394531 L 61.289063 25.316406 C 60.605469 -14.96875 59.761719 -15.8125 59.070313 23.101563 L 43.089844 23.101563 C 42.410156 61.332031 41.582031 60.5 40.910156 20.921875 L 40.910156 5.054688 C 40.28125 -28.835938 39.527344 -29.664063 38.890625 2.839844 Z "/>
<path style=" stroke:none;fill-rule:nonzero;fill:url(#linear0);" d="M 37.683594 5.640625 L 37.683594 20.6875 C 37.683594 23.738281 40.15625 26.210938 43.207031 26.210938 L 58.332031 26.210938 L 58.332031 64.359375 L 11.667969 64.359375 L 11.667969 5.640625 L 37.722656 5.640625 M 38.890625 2.371094 L 10.578125 2.371094 C 9.984375 1.328125 9.410156 24.222656 8.984375 65.90625 C 8.5625 107.589844 8.320313 164.570313 8.320313 224.039063 L 8.320313 65.410156 C 8.320313 124.878906 8.5625 181.859375 8.984375 223.542969 C 9.410156 265.226563 9.984375 288.121094 10.578125 287.078125 L 59.421875 287.078125 C 60.121094 327.507813 60.984375 326.660156 61.679688 284.859375 L 61.679688 25.160156 C 60.984375 -16.636719 60.121094 -17.484375 59.421875 22.945313 L 43.207031 22.945313 C 42.515625 61.847656 41.671875 60.984375 40.988281 20.6875 L 40.988281 4.589844 C 40.335938 -31.367188 39.546875 -32.199219 38.890625 2.371094 Z "/>
<path style=" stroke:none;fill-rule:nonzero;fill:rgb(0%,47.058824%,83.137255%);fill-opacity:1;" d="M 60.820313 23.332031 L 40.210938 283.890625 L 40.210938 19.445313 C 40.210938 21.59375 41.953125 23.332031 44.101563 23.332031 Z "/>
<path style=" stroke:none;fill-rule:nonzero;fill:rgb(51.372549%,72.54902%,97.647059%);fill-opacity:1;" d="M 51.566406 33.015625 L 27.222656 33.015625 C 27.214844 -54.726563 26.496094 -125.269531 25.621094 -124.832031 C 24.742188 -124.394531 24.035156 -53.136719 24.035156 34.609375 C 24.035156 122.359375 24.742188 193.613281 25.621094 194.054688 C 26.496094 194.492188 27.214844 123.949219 27.222656 36.207031 L 51.722656 36.207031 C 51.722656 35.144531 51.722656 34.078125 51.722656 33.015625 Z M 51.566406 42.503906 L 27.222656 42.503906 C 27.214844 -45.242188 26.496094 -115.796875 25.621094 -115.363281 C 24.742188 -114.929688 24.035156 -43.671875 24.035156 44.082031 C 24.035156 131.832031 24.742188 203.089844 25.621094 203.523438 C 26.496094 203.957031 27.214844 133.402344 27.222656 45.65625 L 51.722656 45.65625 C 51.730469 133.402344 52.445313 203.957031 53.324219 203.523438 C 54.203125 203.089844 54.910156 131.832031 54.910156 44.082031 C 54.910156 -43.671875 54.203125 -114.929688 53.324219 -115.363281 C 52.445313 -115.796875 51.730469 -45.242188 51.722656 42.503906 Z M 51.566406 52.035156 L 27.222656 52.035156 C 27.222656 53.097656 27.222656 54.160156 27.222656 55.222656 L 51.722656 55.222656 C 51.730469 142.964844 52.445313 213.507813 53.324219 213.070313 C 54.203125 212.632813 54.910156 141.375 54.910156 53.628906 C 54.910156 -34.121094 54.203125 -105.375 53.324219 -105.816406 C 52.445313 -106.253906 51.730469 -35.710938 51.722656 52.035156 Z "/>
<path style=" stroke:none;fill-rule:nonzero;fill:rgb(0%,47.058824%,83.137255%);fill-opacity:1;" d="M 18.628906 37.800781 L 18.628906 32.667969 C 18.398438 45.726563 18.148438 54.925781 17.890625 59.890625 L 17.035156 83.222656 L 17.035156 31.578125 C 17.445313 31.453125 17.847656 31.296875 18.238281 31.109375 C 18.664063 30.984375 19.070313 30.800781 19.445313 30.566406 L 20.6875 30.566406 L 20.6875 37.800781 Z M 17.109375 47.910156 L 17.109375 47.328125 C 17.066406 46.992188 17.066406 46.652344 17.109375 46.316406 C 17.238281 46.023438 17.382813 45.738281 17.539063 45.460938 C 17.867188 45.085938 18.230469 44.75 18.628906 44.449219 C 18.898438 47.527344 19.171875 47.304688 19.445313 43.789063 C 21.777344 40.25 19.445313 43.515625 46.667969 43.4375 C 46.667969 43.296875 46.667969 43.152344 46.667969 43.011719 C 46.667969 42.503906 46.394531 42.273438 45.8125 42.273438 C 45.191406 43.765625 44.601563 67.199219 44.140625 108.382813 L 44.140625 106.632813 C 44.480469 106.441406 44.847656 106.296875 45.226563 106.207031 C 45.589844 106.164063 45.953125 106.164063 46.316406 106.207031 C 47.980469 101.265625 49.734375 110.761719 50.226563 127.417969 C 50.722656 144.074219 49.769531 161.582031 48.105469 166.523438 L 202.6875 458.1875 L 52.578125 170.996094 L 19.445313 45.734375 C 19.363281 45.695313 19.285156 47.011719 19.210938 49.621094 L 22.050781 49.621094 L 22.050781 51.253906 Z M 21.933594 56 C 22.003906 119.777344 21.722656 182.339844 21.195313 219.023438 L 79.527344 223.300781 L 21.195313 223.300781 L 20.300781 218.75 L 20.300781 217.078125 C 20.523438 232.183594 20.773438 242.417969 21.039063 247.101563 L 21.039063 249.433594 L 21.039063 247.839844 L 20.535156 247.839844 C 21.566406 203.070313 21.640625 124.46875 21.199219 71.535156 C 20.761719 18.605469 19.972656 11.386719 19.445313 55.417969 C 19.140625 55.3125 18.828125 55.25 18.511719 55.222656 L 17.964844 55.222656 L 17.964844 53.707031 L 17.382813 53.707031 C 17.589844 57.496094 17.988281 59.835938 18.421875 59.789063 C 18.851563 59.738281 19.246094 57.308594 19.445313 53.472656 C 19.535156 56.011719 19.628906 55.835938 19.714844 52.964844 C 22.050781 52.226563 19.714844 52.617188 19.714844 52.539063 C 19.714844 52.460938 19.367188 52.539063 19.054688 52.539063 C 18.605469 43.503906 18.140625 44.832031 17.695313 56.429688 L 17.695313 54.832031 C 18.261719 54.589844 18.867188 54.457031 19.484375 54.445313 L 71.515625 202.222656 L 194.484375 54.445313 C 15.625 53.457031 12.496094 53.527344 12.496094 54.601563 C 12.496094 55.675781 15.625 57.347656 19.484375 58.332031 C 20.222656 9.402344 21.183594 8.488281 21.933594 56 Z "/>
</g>
</svg>
