<?xml version="1.0" encoding="UTF-8"?>
<svg xmlns="http://www.w3.org/2000/svg" xmlns:xlink="http://www.w3.org/1999/xlink" width="70pt" height="70pt" viewBox="0 0 70 70" version="1.1">
<defs>
<linearGradient id="linear0" gradientUnits="userSpaceOnUse" x1="6.49" y1="17.38" x2="6.49" y2="0.44" gradientTransform="matrix(3.888889,0,0,3.888889,0,0)">
<stop offset="0" style="stop-color:rgb(41,164,255);stop-opacity:1;"/>
<stop offset="0.53" style="stop-color:rgb(69,176,255);stop-opacity:1;"/>
<stop offset="1" style="stop-color:rgb(103,190,255);stop-opacity:1;"/>
</linearGradient>
<linearGradient id="linear1" gradientUnits="userSpaceOnUse" x1="10.06" y1="13.89" x2="16.48" y2="13.89" gradientTransform="matrix(3.888889,0,0,3.888889,0,0)">
<stop offset="0" style="stop-color:rgb(0,81,142);stop-opacity:1;"/>
<stop offset="0.07" style="stop-color:rgb(0,86,150);stop-opacity:1;"/>
<stop offset="0.36" style="stop-color:rgb(0,101,176);stop-opacity:1;"/>
<stop offset="0.52" style="stop-color:rgb(0,108,188);stop-opacity:1;"/>
<stop offset="0.64" style="stop-color:rgb(0,103,180);stop-opacity:1;"/>
<stop offset="0.82" style="stop-color:rgb(0,95,166);stop-opacity:1;"/>
<stop offset="1" style="stop-color:rgb(0,81,142);stop-opacity:1;"/>
</linearGradient>
</defs>
<g id="surface1">
<path style=" stroke:none;fill-rule:nonzero;fill:rgb(0,124,216);fill-opacity:1;" d="M 42.777344 37.214844 C 8.414063 34.820313 -21.386719 60.738281 -23.78125 95.101563 C -26.175781 129.46875 -0.257813 159.265625 34.105469 161.660156 C -1.332031 164.054688 -28.121094 194.726563 -25.726563 230.164063 C -23.332031 265.601563 7.339844 292.390625 42.777344 289.996094 C 45.722656 290.070313 48.65625 289.636719 51.449219 288.710938 C 120.898438 286.316406 175.257813 228.074219 172.859375 158.628906 C 170.464844 89.179688 112.226563 34.820313 42.777344 37.214844 Z "/>
<path style=" stroke:none;fill-rule:nonzero;fill:url(#linear0);" d="M 44.605469 65.371094 C 44.605469 124.84375 44.367188 181.820313 43.941406 223.503906 C 43.519531 265.191406 42.945313 288.082031 42.351563 287.039063 L 8.128906 287.039063 C 7.441406 326.773438 6.589844 325.925781 5.910156 284.820313 L 5.910156 3.890625 C 6.949219 0.714844 7.871094 70.265625 8.128906 171.109375 L 42.351563 171.109375 C 43.582031 171.09375 44.585938 269.726563 44.605469 392.777344 Z "/>
<path style=" stroke:none;fill-rule:nonzero;fill:rgb(0,44,78);fill-opacity:1;" d="M 11.667969 24.8125 C 11.667969 22.523438 13.5 20.652344 15.789063 20.609375 L 35 20.609375 C 37.320313 20.609375 39.199219 22.492188 39.199219 24.8125 C 39.210938 25.933594 38.773438 27.011719 37.984375 27.804688 C 37.195313 28.601563 36.121094 29.050781 35 29.050781 L 15.789063 29.050781 C 13.484375 29.007813 11.644531 27.117188 11.667969 24.8125 Z "/>
<path style=" stroke:none;fill-rule:nonzero;fill:rgb(0,44,78);fill-opacity:1;" d="M 11.667969 12.328125 C 11.667969 10.039063 13.5 8.171875 15.789063 8.128906 L 35 8.128906 C 37.320313 8.128906 39.199219 10.007813 39.199219 12.328125 C 39.199219 14.648438 37.320313 16.527344 35 16.527344 L 15.789063 16.527344 C 13.5 16.484375 11.667969 14.617188 11.667969 12.328125 Z "/>
<path style=" stroke:none;fill-rule:nonzero;fill:rgb(119,197,255);fill-opacity:1;" d="M 18.820313 12.328125 C 18.820313 13.894531 17.550781 15.167969 15.984375 15.167969 C 14.414063 15.167969 13.144531 13.894531 13.144531 12.328125 C 13.144531 10.761719 14.414063 9.488281 15.984375 9.488281 C 17.550781 9.488281 18.820313 10.761719 18.820313 12.328125 Z "/>
<path style=" stroke:none;fill-rule:nonzero;fill:rgb(119,197,255);fill-opacity:1;" d="M 18.820313 24.8125 C 18.820313 26.378906 17.550781 27.648438 15.984375 27.648438 C 14.414063 27.648438 13.144531 26.378906 13.144531 24.8125 C 13.144531 23.242188 14.414063 21.972656 15.984375 21.972656 C 17.550781 21.972656 18.820313 23.242188 18.820313 24.8125 Z "/>
<path style=" stroke:none;fill-rule:nonzero;fill:url(#linear1);" d="M 51.605469 44.253906 C 44.722656 44.253906 39.121094 42.195313 39.121094 39.707031 L 39.121094 63.777344 C 39.121094 66.226563 44.644531 68.25 51.449219 68.289063 C 58.371094 68.289063 63.933594 66.265625 63.933594 63.777344 L 63.933594 39.707031 C 64.089844 42.195313 58.527344 44.253906 51.605469 44.253906 Z "/>
<path style=" stroke:none;fill-rule:nonzero;fill:rgb(205,233,255);fill-opacity:1;" d="M 64.089844 39.707031 C 64.089844 42.195313 58.527344 44.253906 51.605469 44.253906 C 44.683594 44.253906 39.121094 42.195313 39.121094 39.707031 C 39.121094 37.214844 44.722656 35.195313 51.605469 35.195313 C 58.488281 35.195313 64.089844 237.417969 64.089844 39.707031 "/>
<path style=" stroke:none;fill-rule:nonzero;fill:rgb(119,197,255);fill-opacity:1;" d="M 61.171875 39.355469 C 61.171875 40.949219 56.894531 327.132813 51.605469 327.132813 C 46.316406 327.132813 42.039063 325.851563 42.039063 324.253906 C 42.039063 322.660156 46.316406 321.378906 51.605469 321.378906 C 56.894531 321.378906 61.171875 449.710938 61.171875 609.15625 "/>
<path style=" stroke:none;fill-rule:nonzero;fill:rgb(119,197,255);fill-opacity:1;" d="M 53.199219 33.679688 L 61.484375 25.394531 C 61.382813 21.25 61.273438 20.988281 61.171875 24.65625 L 56.351563 24.65625 C 56.351563 14.660156 51.023438 4.707031 41.417969 4.707031 C 46.757813 9.929688 49.589844 17.195313 49.195313 24.65625 L 44.605469 24.65625 C 44.425781 23.90625 44.261719 34.332031 44.195313 50.796875 C 44.125 67.261719 44.164063 86.300781 44.292969 98.542969 L 52.578125 106.828125 C 52.78125 124.011719 53.082031 121.5625 53.253906 101.363281 C 53.425781 81.164063 53.402344 50.859375 53.199219 33.679688 Z "/>
</g>
</svg>
