<?xml version="1.0" encoding="UTF-8"?>
<svg xmlns="http://www.w3.org/2000/svg" xmlns:xlink="http://www.w3.org/1999/xlink" width="70pt" height="70pt" viewBox="0 0 70 70" version="1.1">
<defs>
<linearGradient id="linear0" gradientUnits="userSpaceOnUse" x1="7.89" y1="6.9" x2="7.89" y2="19.35" gradientTransform="matrix(3.888889,0,0,3.888889,0,0)">
<stop offset="0.22" style="stop-color:rgb(79,180,255);stop-opacity:1;"/>
<stop offset="1" style="stop-color:rgb(0,124,216);stop-opacity:1;"/>
</linearGradient>
<linearGradient id="linear1" gradientUnits="userSpaceOnUse" x1="7.53" y1="0.22" x2="8.44" y2="11.53" gradientTransform="matrix(3.888889,0,0,3.888889,0,0)">
<stop offset="0.22" style="stop-color:rgb(79,180,255);stop-opacity:1;"/>
<stop offset="1" style="stop-color:rgb(0,124,216);stop-opacity:1;"/>
</linearGradient>
<radialGradient id="radial0" gradientUnits="userSpaceOnUse" cx="-19.24" cy="6.51" fx="-19.24" fy="6.51" r="6.13" gradientTransform="matrix(3.655556,0.0388889,-0.0388889,3.655556,124.561111,24.344444)">
<stop offset="0.27" style="stop-color:rgb(153,211,255);stop-opacity:1;"/>
<stop offset="1" style="stop-color:rgb(93,186,255);stop-opacity:1;"/>
</radialGradient>
</defs>
<g id="surface1">
<path style=" stroke:none;fill-rule:nonzero;fill:url(#linear0);" d="M 54.640625 66.539063 C 57.5 66.539063 59.828125 64.230469 59.851563 61.367188 L 59.226563 61.367188 C 57.789063 44.410156 48.496094 31.109375 30.722656 31.109375 C 12.949219 31.109375 3.34375 42.390625 15.554688 60.785156 C 13.976563 58.195313 10.597656 57.375 8.011719 58.957031 C 5.421875 60.535156 4.605469 63.910156 6.183594 66.5 L 54.640625 66.5 Z "/>
<path style=" stroke:none;fill-rule:nonzero;fill:rgb(255,255,255);fill-opacity:0.8;" d="M 30.722656 35 C 27.585938 35.019531 24.515625 34.113281 21.894531 32.394531 L 30.644531 55.300781 L 39.355469 32.550781 C 36.765625 34.164063 33.773438 35.011719 30.722656 35 Z "/>
<path style=" stroke:none;fill-rule:nonzero;fill:url(#linear1);" d="M 47.09375 18.667969 C 47.09375 27.707031 39.765625 35.039063 30.722656 35.039063 C 21.679688 35.039063 14.351563 27.707031 14.351563 18.667969 C 14.351563 9.625 21.679688 2.292969 30.722656 2.292969 C 39.765625 2.292969 47.09375 9.625 47.09375 18.667969 Z "/>
<path style=" stroke:none;fill-rule:nonzero;fill:url(#radial0);" d="M 67.160156 44.527344 C 67.988281 43.703125 68.453125 42.585938 68.453125 41.417969 C 68.453125 40.25 67.988281 39.128906 67.160156 38.304688 L 59.617188 30.527344 C 58.796875 29.691406 57.675781 29.21875 56.503906 29.21875 C 55.335938 29.21875 54.214844 29.691406 53.394531 30.527344 L 45.617188 38.070313 C 43.890625 39.800781 43.890625 42.601563 45.617188 44.332031 L 51.878906 50.710938 C 52.101563 73.445313 52.230469 104.230469 52.226563 136.265625 L 52.226563 147.933594 C 52.214844 189.347656 52.386719 229.21875 52.695313 256.820313 L 55.535156 548.488281 C 55.9375 586.515625 56.566406 586.515625 56.972656 548.488281 L 59.773438 545.6875 L 61.40625 544.015625 C 61.40625 543.757813 61.40625 543.5 61.40625 543.238281 L 60.199219 542.035156 C 60.199219 541.734375 60.199219 541.4375 60.199219 541.140625 L 58.996094 539.933594 C 58.996094 539.675781 58.996094 539.414063 58.996094 539.15625 L 57.828125 537.949219 C 57.828125 537.652344 57.828125 537.355469 57.828125 537.054688 L 56.621094 535.851563 C 56.621094 535.589844 56.621094 535.332031 56.621094 535.070313 L 54.988281 533.398438 L 54.988281 51.722656 Z M 56.542969 32.433594 C 57.925781 36.621094 59.027344 149.449219 59.035156 287.660156 L 310.449219 540.4375 Z "/>
<path style=" stroke:none;fill-rule:nonzero;fill:rgb(71,176,255);fill-opacity:0.74902;" d="M 54.445313 63.699219 C 54.542969 80.039063 54.722656 89.988281 54.914063 89.90625 C 55.101563 89.828125 55.28125 79.734375 55.378906 63.3125 L 55.378906 53.785156 C 55.300781 52.144531 55.222656 51.972656 55.144531 53.277344 C 54.976563 41.464844 54.753906 40.25 54.570313 50.136719 C 54.390625 60.023438 54.28125 79.3125 54.289063 99.945313 L 54.289063 109.511719 C 54.414063 97.875 54.472656 80.621094 54.445313 63.699219 Z "/>
<path style=" stroke:none;fill-rule:nonzero;fill:rgb(71,176,255);fill-opacity:0.74902;" d="M 50.394531 41.515625 L 50.394531 41.359375 C 50.398438 40.996094 50.695313 40.703125 51.0625 40.703125 L 62.222656 40.773438 C 62.585938 40.773438 62.882813 41.070313 62.878906 41.4375 L 62.878906 41.59375 C 62.875 41.957031 62.578125 42.253906 62.214844 42.25 L 51.050781 42.183594 C 50.6875 42.179688 50.394531 41.882813 50.394531 41.515625 Z "/>
<path style=" stroke:none;fill-rule:nonzero;fill:rgb(71,176,255);fill-opacity:0.74902;" d="M 50.355469 43.941406 L 50.355469 43.785156 C 50.359375 43.421875 50.65625 43.128906 51.023438 43.128906 L 62.183594 43.199219 C 62.546875 43.199219 62.84375 43.496094 62.839844 43.863281 L 62.839844 44.019531 C 62.835938 44.382813 62.539063 44.675781 62.171875 44.675781 L 51.011719 44.605469 C 50.648438 44.605469 50.355469 44.308594 50.355469 43.941406 Z "/>
</g>
</svg>
