<?xml version="1.0" encoding="UTF-8"?>
<svg xmlns="http://www.w3.org/2000/svg" xmlns:xlink="http://www.w3.org/1999/xlink" width="70pt" height="70pt" viewBox="0 0 70 70" version="1.1">
<defs>
<linearGradient id="linear0" gradientUnits="userSpaceOnUse" x1="12.3" y1="0.49" x2="12.3" y2="17.33" gradientTransform="matrix(3.888889,0,0,3.888889,0,0)">
<stop offset="0" style="stop-color:rgb(41,164,255);stop-opacity:1;"/>
<stop offset="0.18" style="stop-color:rgb(31,159,255);stop-opacity:1;"/>
<stop offset="0.47" style="stop-color:rgb(1,147,255);stop-opacity:1;"/>
<stop offset="0.84" style="stop-color:rgb(0,120,210);stop-opacity:1;"/>
<stop offset="1" style="stop-color:rgb(0,108,188);stop-opacity:1;"/>
</linearGradient>
<linearGradient id="linear1" gradientUnits="userSpaceOnUse" x1="9.48" y1="17.51" x2="9.48" y2="9.35" gradientTransform="matrix(3.888889,0,0,3.888889,0,0)">
<stop offset="0" style="stop-color:rgb(0,124,216);stop-opacity:1;"/>
<stop offset="0" style="stop-color:rgb(0,124,216);stop-opacity:1;"/>
<stop offset="0.14" style="stop-color:rgb(3,148,255);stop-opacity:1;"/>
<stop offset="0.3" style="stop-color:rgb(37,162,255);stop-opacity:1;"/>
<stop offset="0.47" style="stop-color:rgb(61,172,255);stop-opacity:1;"/>
<stop offset="0.68" style="stop-color:rgb(73,177,255);stop-opacity:1;"/>
<stop offset="1" style="stop-color:rgb(79,180,255);stop-opacity:1;"/>
</linearGradient>
</defs>
<g id="surface1">
<path style=" stroke:none;fill-rule:nonzero;fill:url(#linear0);" d="M 64.867188 190.554688 L 30.800781 190.554688 C 29.589844 190.535156 28.605469 287.429688 28.582031 408.332031 L 28.582031 52.617188 C 30.3125 51.167969 32.160156 49.867188 34.105469 48.726563 L 40.5625 48.726563 L 44.140625 53.472656 L 44.140625 60.667969 L 39.628906 387.332031 L 33.367188 386.554688 L 28.582031 58.644531 L 28.582031 65.214844 C 28.605469 186.117188 29.589844 283.011719 30.800781 282.996094 L 64.867188 282.996094 C 65.542969 321.226563 66.375 320.394531 67.042969 280.816406 L 67.042969 4.082031 C 65.953125 2.953125 65.023438 82.640625 64.867188 190.554688 Z "/>
<path style=" stroke:none;fill-rule:nonzero;fill:rgb(229,243,255);fill-opacity:1;" d="M 33.679688 8.710938 L 39.9375 8.710938 C 40.238281 8.710938 40.484375 33.085938 40.484375 63.15625 L 40.484375 17.34375 C 40.484375 47.414063 40.238281 71.789063 39.9375 71.789063 L 33.679688 71.789063 C 33.507813 81.347656 33.300781 81.140625 33.132813 71.246094 L 33.132813 9.253906 C 33.300781 -0.640625 33.507813 -0.847656 33.679688 8.710938 Z M 44.683594 8.710938 L 50.945313 8.710938 C 51.246094 8.710938 51.488281 33.085938 51.488281 63.15625 L 51.488281 17.34375 C 51.488281 47.414063 51.246094 71.789063 50.945313 71.789063 L 44.683594 71.789063 C 44.515625 81.347656 44.304688 81.140625 44.140625 71.246094 L 44.140625 9.253906 C 44.304688 -0.640625 44.515625 -0.847656 44.683594 8.710938 Z M 55.726563 8.710938 L 61.988281 8.710938 C 62.289063 8.710938 62.535156 33.085938 62.535156 63.15625 L 62.535156 17.34375 C 62.535156 47.414063 62.289063 71.789063 61.988281 71.789063 L 55.726563 71.789063 C 55.558594 81.347656 55.351563 81.140625 55.183594 71.246094 L 55.183594 9.253906 C 55.351563 -0.640625 55.558594 -0.847656 55.726563 8.710938 Z M 33.679688 23.332031 L 39.9375 23.332031 C 40.238281 23.332031 40.484375 47.707031 40.484375 77.777344 L 40.484375 32.042969 C 40.484375 62.113281 40.238281 86.488281 39.9375 86.488281 L 33.679688 86.488281 C 33.507813 96.046875 33.300781 95.839844 33.132813 85.945313 L 33.132813 23.957031 C 33.300781 14.035156 33.507813 13.800781 33.679688 23.332031 Z M 44.683594 23.332031 L 50.945313 23.332031 C 51.246094 23.332031 51.488281 47.707031 51.488281 77.777344 L 51.488281 32.042969 C 51.488281 62.113281 51.246094 86.488281 50.945313 86.488281 L 44.683594 86.488281 C 44.515625 96.046875 44.304688 95.839844 44.140625 85.945313 L 44.140625 23.957031 C 44.304688 14.035156 44.515625 13.800781 44.683594 23.332031 Z M 55.726563 23.332031 L 61.988281 23.332031 C 62.289063 23.332031 62.535156 47.707031 62.535156 77.777344 L 62.535156 32.042969 C 62.535156 62.113281 62.289063 86.488281 61.988281 86.488281 L 55.726563 86.488281 C 55.558594 96.046875 55.351563 95.839844 55.183594 85.945313 L 55.183594 23.957031 C 55.351563 14.035156 55.558594 13.800781 55.726563 23.332031 Z M 33.679688 38.109375 L 39.9375 38.109375 C 40.238281 38.109375 40.484375 62.488281 40.484375 92.554688 L 40.484375 46.667969 C 40.484375 76.734375 40.238281 101.109375 39.9375 101.109375 L 33.679688 101.109375 C 33.378906 101.109375 33.132813 76.734375 33.132813 46.667969 L 33.132813 38.65625 C 33.300781 28.761719 33.507813 28.554688 33.679688 38.109375 Z M 44.683594 38.109375 L 50.945313 38.109375 C 51.246094 38.109375 51.488281 62.488281 51.488281 92.554688 L 51.488281 46.667969 C 51.488281 76.734375 51.246094 101.109375 50.945313 101.109375 L 44.683594 101.109375 C 44.515625 110.667969 44.304688 110.460938 44.140625 100.566406 L 44.140625 38.65625 C 44.304688 28.761719 44.515625 28.554688 44.683594 38.109375 Z M 44.683594 52.8125 L 50.945313 52.8125 C 51.246094 52.8125 51.488281 77.1875 51.488281 107.253906 L 51.488281 65.332031 C 51.488281 95.402344 51.246094 119.777344 50.945313 119.777344 L 44.683594 119.777344 C 44.515625 129.335938 44.304688 129.128906 44.140625 119.234375 L 44.140625 53.355469 C 44.304688 43.460938 44.515625 43.253906 44.683594 52.8125 Z M 55.726563 38.109375 L 61.988281 38.109375 C 62.289063 38.109375 62.535156 62.488281 62.535156 92.554688 L 62.535156 46.667969 C 62.535156 76.734375 62.289063 101.109375 61.988281 101.109375 L 55.726563 101.109375 C 55.558594 110.667969 55.351563 110.460938 55.183594 100.566406 L 55.183594 38.65625 C 55.351563 28.761719 55.558594 28.554688 55.726563 38.109375 Z "/>
<path style=" stroke:none;fill-rule:nonzero;fill:rgb(119,197,255);fill-opacity:1;" d="M 36.945313 50.554688 C 34.636719 50.601563 32.652344 52.199219 32.121094 54.445313 L 14.621094 54.445313 C -55.179688 54.359375 -111.835938 110.875 -111.921875 180.679688 C -112.007813 250.480469 -55.492188 307.136719 14.3125 307.222656 L 14.3125 307.457031 L 32.121094 307.457031 C 103.0625 308.789063 161.652344 252.359375 162.984375 181.417969 C 164.316406 110.476563 107.886719 51.886719 36.945313 50.554688 Z "/>
<path style=" stroke:none;fill-rule:nonzero;fill:url(#linear1);" d="M 50.554688 48.457031 C 50.242188 41.464844 44.324219 36.054688 37.332031 36.359375 C 31.804688 36.25 26.808594 39.652344 24.890625 44.839844 C 20.425781 45.441406 16.640625 48.417969 15.011719 52.617188 L 31.109375 52.617188 C 32.566406 49.621094 36 48.148438 39.171875 49.167969 C 42.34375 50.183594 44.28125 53.378906 43.722656 56.660156 C 43.164063 59.945313 40.273438 62.3125 36.945313 62.222656 C 34.382813 62.164063 32.074219 60.65625 30.996094 58.332031 L 14.582031 58.332031 C 16 63.976563 21.136719 67.882813 26.949219 67.746094 L 49.039063 67.746094 C 54.339844 67.699219 58.726563 63.617188 59.148438 58.332031 C 59.089844 53.378906 55.453125 49.199219 50.554688 48.457031 Z "/>
<path style=" stroke:none;fill-rule:nonzero;fill:rgb(119,197,255);fill-opacity:1;" d="M 36.945313 50.554688 C 34.636719 50.601563 32.652344 52.199219 32.121094 54.445313 L 14.621094 54.445313 C 14.007813 54.433594 13.394531 54.355469 12.792969 54.210938 C 8.765625 53.324219 5.851563 49.816406 5.714844 45.695313 C 5.765625 41.121094 9.21875 37.300781 13.765625 36.789063 L 14.621094 36.789063 L 14.894531 36.011719 C 16.316406 31.964844 20.171875 29.285156 24.460938 29.359375 C 28.082031 29.328125 31.449219 31.207031 33.328125 34.300781 C 34.28125 34.0625 35.261719 33.945313 36.246094 33.949219 C 34.097656 29.453125 29.558594 26.59375 24.578125 26.601563 C 19.40625 26.457031 14.65625 29.453125 12.5625 34.183594 C 7.046875 35.171875 3.015625 39.9375 2.957031 45.539063 C 3.0625 50.753906 6.621094 55.261719 11.667969 56.582031 C -1.21875 57.367188 -11.03125 68.449219 -10.246094 81.335938 C -9.464844 94.222656 1.617188 104.035156 14.503906 103.25 L 32.121094 103.25 C 46.671875 104.582031 59.550781 93.863281 60.878906 79.3125 C 62.210938 64.761719 51.496094 51.886719 36.945313 50.554688 Z "/>
</g>
</svg>
