<?xml version="1.0" encoding="UTF-8"?>
<svg xmlns="http://www.w3.org/2000/svg" xmlns:xlink="http://www.w3.org/1999/xlink" width="70pt" height="65pt" viewBox="0 0 70 65" version="1.1">
<g id="surface1">
<path style=" stroke:none;fill-rule:nonzero;fill:rgb(0,0,0);fill-opacity:1;" d="M 70 56.332031 L 30.625 56.332031 C 40.289063 56.8125 47.734375 64.960938 47.25 74.535156 C 46.765625 84.105469 38.539063 91.480469 28.875 91 C 36.125 91.597656 41.511719 97.902344 40.90625 105.082031 C 40.300781 112.261719 33.9375 117.597656 26.6875 117 L 23.625 138.667969 L 15.75 138.667969 L 12.6875 136.5 C 11.738281 135.839844 10.984375 134.941406 10.5 133.898438 C -11.125 134.378906 -29.046875 117.402344 -29.53125 95.984375 C -30.015625 74.5625 -12.875 56.8125 8.75 56.332031 L 0 56.332031 L 0 52 L 8.75 52 C 9.0625 50.726563 9.660156 49.542969 10.5 48.535156 C 10.984375 47.492188 11.738281 46.59375 12.6875 45.933594 L 9.625 43.765625 L 17.5 43.765625 L 20.5625 65.433594 C 27.8125 64.835938 34.175781 70.171875 34.78125 77.351563 C 35.386719 84.53125 30 90.835938 22.75 91.433594 C 32.414063 90.953125 40.640625 98.328125 41.125 107.898438 C 41.609375 117.472656 34.164063 125.621094 24.5 126.101563 L 63.875 126.101563 Z M 19.6875 60.667969 L 22.3125 60.667969 L 24.5 59.367188 L 37.625 57.199219 C 37.976563 56.378906 38.125 55.488281 38.0625 54.601563 C 38.125 53.710938 37.976563 52.820313 37.625 52 L 36.3125 49.832031 L 34.125 48.535156 L 17.0625 48.535156 L 14.875 61.535156 L 13.5625 83.199219 C 6.3125 83.082031 0.339844 88.804688 0.21875 95.984375 C 0.0976563 103.164063 5.875 109.082031 13.125 109.199219 C 5.875 109.320313 0.0976563 115.238281 0.21875 122.417969 C 0.339844 129.597656 6.3125 135.320313 13.5625 135.199219 L 14.875 159.035156 L 28 159.035156 Z M 70 13 L 30.625 13 C 40.289063 13.480469 47.734375 21.628906 47.25 31.199219 C 46.765625 40.773438 38.539063 48.144531 28.875 47.667969 C 36.125 48.265625 41.511719 54.570313 40.90625 61.75 C 40.300781 68.929688 33.9375 74.265625 26.6875 73.667969 L 23.625 95.332031 L 15.75 95.332031 L 12.6875 93.167969 C 11.738281 92.507813 10.984375 91.609375 10.5 90.566406 C -11.125 91.046875 -29.046875 74.070313 -29.53125 52.648438 C -30.015625 31.230469 -12.875 13.480469 8.75 13 L 0 13 L 0 8.667969 L 8.75 8.667969 C 9.0625 7.394531 9.660156 6.210938 10.5 5.199219 C 10.984375 4.15625 11.738281 3.261719 12.6875 2.601563 L 9.625 0.433594 L 17.5 0.433594 L 20.5625 22.101563 C 27.8125 21.5 34.175781 26.835938 34.78125 34.015625 C 35.386719 41.195313 30 47.5 22.75 48.101563 C 11.757813 45.945313 4.605469 35.371094 6.78125 24.484375 C 8.957031 13.59375 19.632813 6.511719 30.625 8.667969 L 70 8.667969 Z M 19.6875 17.332031 L 22.3125 17.332031 L 24.5 16.035156 L 37.625 13.867188 C 38.050781 12.914063 38.203125 11.863281 38.0625 10.832031 C 38.125 9.945313 37.976563 9.054688 37.625 8.234375 L 36.3125 6.066406 L 34.125 4.765625 L 17.0625 4.765625 L 14.875 17.765625 L 13.5625 39.433594 C 6.3125 39.3125 0.339844 45.035156 0.21875 52.214844 C 0.0976563 59.394531 5.875 65.3125 13.125 65.433594 C 5.875 65.554688 0.0976563 71.46875 0.21875 78.648438 C 0.339844 85.828125 6.3125 91.554688 13.5625 91.433594 L 14.875 115.265625 L 28 115.265625 Z M 0 30.332031 L 39.375 30.332031 C 39.6875 29.0625 40.285156 27.875 41.125 26.867188 C 41.609375 25.824219 42.363281 24.925781 43.3125 24.265625 L 40.25 22.101563 L 48.125 22.101563 L 51.1875 43.765625 C 58.4375 43.167969 64.800781 48.503906 65.40625 55.683594 C 66.011719 62.863281 60.625 69.167969 53.375 69.765625 C 63.039063 69.289063 71.265625 76.660156 71.75 86.234375 C 72.234375 95.804688 64.789063 103.953125 55.125 104.433594 L 63.875 104.433594 L 63.875 108.765625 L 55.125 108.765625 C 64.789063 109.246094 72.234375 117.394531 71.75 126.964844 C 71.265625 136.539063 63.039063 143.910156 53.375 143.433594 C 60.625 144.03125 66.011719 150.335938 65.40625 157.515625 C 64.800781 164.695313 58.4375 170.03125 51.1875 169.433594 L 48.125 191.101563 L 40.25 191.101563 L 37.1875 188.933594 C 36.238281 188.273438 35.484375 187.375 35 186.332031 C -7.285156 185.136719 -40.582031 150.214844 -39.375 108.332031 C -38.167969 66.453125 -2.910156 33.46875 39.375 34.667969 L 0 34.667969 Z M 52.9375 38.566406 L 55.125 37.265625 L 68.25 35.101563 C 68.601563 34.28125 68.75 33.390625 68.6875 32.5 C 68.75 31.609375 68.601563 30.71875 68.25 29.898438 L 66.9375 27.734375 L 64.75 26.433594 L 59.5 26.433594 L 57.3125 39.433594 L 56 61.101563 C 48.75 60.980469 42.777344 66.703125 42.65625 73.882813 C 42.535156 81.0625 48.3125 86.980469 55.5625 87.101563 C 48.3125 87.21875 42.535156 93.136719 42.65625 100.316406 C 42.777344 107.496094 48.75 113.21875 56 113.101563 L 57.3125 136.933594 L 75.6875 136.933594 Z "/>
</g>
</svg>
