<?xml version="1.0" encoding="UTF-8"?>
<svg xmlns="http://www.w3.org/2000/svg" xmlns:xlink="http://www.w3.org/1999/xlink" width="70pt" height="70pt" viewBox="0 0 70 70" version="1.1">
<defs>
<linearGradient id="linear0" gradientUnits="userSpaceOnUse" x1="9" y1="0.36" x2="9" y2="18.31" gradientTransform="matrix(3.888889,0,0,3.888889,0,0)">
<stop offset="0.18" style="stop-color:rgb(41,164,255);stop-opacity:1;"/>
<stop offset="1" style="stop-color:rgb(0,108,188);stop-opacity:1;"/>
</linearGradient>
</defs>
<g id="surface1">
<path style=" stroke:none;fill-rule:nonzero;fill:url(#linear0);" d="M 70 44.023438 C 69.859375 36.199219 64.085938 29.625 56.351563 28.464844 C 56.03125 17.480469 46.921875 8.804688 35.933594 9.023438 C 27.21875 8.933594 19.410156 14.382813 16.488281 22.59375 C 7.121094 23.800781 0.078125 31.738281 0 41.183594 C 0.378906 51.753906 9.140625 60.082031 19.714844 59.929688 L 53.355469 59.929688 C 53.640625 63.96875 53.925781 63.96875 54.210938 59.929688 C 62.914063 59.78125 69.917969 52.726563 70 44.023438 Z "/>
<path style=" stroke:none;fill-rule:nonzero;fill:rgb(229,243,255);fill-opacity:1;" d="M 47.949219 25.628906 C -43.332031 19.601563 -122.210938 88.71875 -128.234375 179.996094 C -134.261719 271.277344 -65.148438 350.160156 26.132813 356.183594 C 25.441406 359.183594 25.898438 362.332031 27.417969 365.011719 L 18.316406 46.976563 C 18.316406 48.429688 18.316406 49.882813 18.316406 51.332031 L 110.714844 346.890625 L 27.378906 42.15625 C -8.058594 43.027344 -36.082031 72.457031 -35.214844 107.898438 C -34.34375 143.335938 -4.910156 171.359375 30.527344 170.488281 C 35.21875 171.617188 40.128906 169.816406 42.980469 165.925781 C 45.835938 162.039063 46.078125 156.816406 43.59375 152.679688 Z M 45.851563 33.792969 C 44.9375 37.546875 41.585938 40.195313 37.722656 40.210938 C 37.050781 40.214844 36.382813 40.125 35.738281 39.9375 C 34.753906 39.71875 33.828125 39.292969 33.015625 38.695313 C 32.160156 38.109375 31.421875 37.371094 30.839844 36.515625 C 29.507813 34.542969 29.070313 32.101563 29.632813 29.789063 C 30.5 26.019531 33.851563 23.34375 37.722656 23.332031 C 44.164063 22.773438 49.839844 27.546875 50.398438 33.988281 C 50.957031 40.433594 46.1875 46.109375 39.746094 46.667969 C 41.902344 47.238281 43.746094 48.632813 44.878906 50.554688 C 40.25 50.285156 36.714844 46.316406 36.984375 41.6875 C 37.25 37.058594 41.222656 33.527344 45.851563 33.792969 Z "/>
<path style=" stroke:none;fill-rule:nonzero;fill:rgb(95,187,255);fill-opacity:1;" d="M 46.042969 31.8125 C 46.042969 27.171875 42.300781 23.410156 37.683594 23.410156 C 33.066406 23.410156 29.320313 27.171875 29.320313 31.8125 C 29.320313 36.449219 33.066406 40.210938 37.683594 40.210938 C 42.300781 40.210938 46.042969 36.449219 46.042969 31.8125 Z "/>
</g>
</svg>
