<?xml version="1.0" encoding="UTF-8"?>
<svg xmlns="http://www.w3.org/2000/svg" xmlns:xlink="http://www.w3.org/1999/xlink" width="70pt" height="70pt" viewBox="0 0 70 70" version="1.1">
<defs>
<linearGradient id="linear0" gradientUnits="userSpaceOnUse" x1="9" y1="16.82" x2="9" y2="1.18" gradientTransform="matrix(3.888889,0,0,3.888889,0,0)">
<stop offset="0" style="stop-color:rgb(9.803922%,54.117647%,70.196078%);stop-opacity:1;"/>
<stop offset="0.09" style="stop-color:rgb(12.156863%,61.568627%,76.862745%);stop-opacity:1;"/>
<stop offset="0.24" style="stop-color:rgb(15.686275%,70.980392%,85.098039%);stop-opacity:1;"/>
<stop offset="0.4" style="stop-color:rgb(17.647059%,77.647059%,91.372549%);stop-opacity:1;"/>
<stop offset="0.57" style="stop-color:rgb(19.215686%,81.960784%,94.901961%);stop-opacity:1;"/>
<stop offset="0.78" style="stop-color:rgb(19.607843%,83.137255%,96.078431%);stop-opacity:1;"/>
</linearGradient>
<linearGradient id="linear1" gradientUnits="userSpaceOnUse" x1="8.36" y1="11.35" x2="8.36" y2="14.46" gradientTransform="matrix(3.888889,0,0,3.888889,0,0)">
<stop offset="0" style="stop-color:rgb(77.647059%,60.392157%,92.156863%);stop-opacity:1;"/>
<stop offset="1" style="stop-color:rgb(43.529412%,29.411765%,69.803922%);stop-opacity:1;"/>
</linearGradient>
</defs>
<g id="surface1">
<path style=" stroke:none;fill-rule:nonzero;fill:url(#linear0);" d="M 55.144531 22.90625 C 54.847656 12.550781 46.253906 4.371094 35.894531 4.589844 C 27.648438 4.503906 20.242188 9.632813 17.421875 17.382813 C 8.605469 18.597656 2.015625 26.101563 1.945313 35 C 2.304688 44.953125 10.613281 52.761719 20.570313 52.5 C 21.117188 52.539063 21.660156 52.539063 22.207031 52.5 L 26.871094 52.5 C 26.589844 51.808594 26.445313 51.070313 26.445313 50.320313 C 26.457031 49.324219 26.726563 48.347656 27.222656 47.484375 L 20.570313 47.484375 C 13.378906 47.726563 7.300781 42.1875 6.882813 35 C 6.949219 28.527344 11.78125 23.097656 18.199219 22.285156 L 21.15625 21.816406 L 118.378906 18.976563 C 115.769531 41.753906 95.1875 58.105469 72.410156 55.496094 C 49.632813 52.886719 33.285156 32.304688 35.894531 9.527344 C 43.523438 9.351563 49.890625 15.320313 50.207031 22.945313 L 50.207031 27.222656 L 54.445313 27.804688 C 59.355469 28.433594 63.082031 32.539063 63.234375 37.488281 C 63.046875 42.984375 58.542969 47.347656 53.042969 47.367188 L 48.261719 47.367188 C 46.875 40.160156 40.550781 34.960938 33.210938 35 C 33.199219 -101.96875 32.078125 -212.097656 30.710938 -211.417969 C 29.339844 -210.738281 28.234375 -99.507813 28.234375 37.46875 C 28.234375 174.445313 29.339844 285.675781 30.710938 286.355469 C 32.078125 287.035156 33.199219 176.90625 33.210938 39.9375 C 38.648438 40.273438 42.882813 44.777344 42.882813 50.226563 C 42.882813 55.671875 38.648438 60.175781 33.210938 60.511719 L 38.148438 75.753906 L 20.222656 75.753906 L 37.292969 60.511719 C 37.550781 64.585938 37.816406 64.585938 38.070313 60.511719 C 44.429688 68.789063 56.296875 70.347656 64.574219 63.992188 C 72.855469 57.632813 74.414063 45.769531 68.054688 37.488281 C 67.917969 30.117188 62.445313 23.9375 55.144531 22.90625 Z "/>
<path style=" stroke:none;fill-rule:nonzero;fill:url(#linear1);" d="M 32.433594 44.140625 L 32.589844 44.140625 C 35.894531 44.140625 38.578125 46.820313 38.578125 50.128906 L 38.578125 50.285156 C 38.578125 53.589844 35.894531 56.273438 32.589844 56.273438 L 32.433594 56.273438 C 29.125 56.273438 26.445313 53.589844 26.445313 50.285156 L 26.445313 50.128906 C 26.445313 46.820313 29.125 44.140625 32.433594 44.140625 Z "/>
</g>
</svg>
