<?xml version="1.0" encoding="UTF-8"?>
<svg xmlns="http://www.w3.org/2000/svg" xmlns:xlink="http://www.w3.org/1999/xlink" width="70pt" height="51pt" viewBox="0 0 70 51" version="1.1">
<g id="surface1">
<path style=" stroke:none;fill-rule:nonzero;fill:rgb(0,114,198);fill-opacity:1;" d="M 30.136719 0 L 0.0390625 9.820313 L 0.0390625 34.191406 L 27.921875 44.296875 L 30.109375 45.101563 L 30.109375 45.089844 L 60.578125 34.242188 L 60.578125 9.824219 Z "/>
<path style=" stroke:none;fill-rule:nonzero;fill:rgb(0,71,124);fill-opacity:1;" d="M 2.4375 12.265625 L 2.4375 32.535156 L 3.160156 58.714844 L 3.160156 13.148438 L 5.308594 12.449219 L 5.308594 11.199219 L 2.4375 12.132813 Z M 6.367188 11.082031 L 6.367188 33.960938 L 7.210938 37.019531 L 7.210938 11.828125 L 9.742188 11.003906 L 9.742188 9.753906 L 6.367188 10.855469 Z M 11.125 9.398438 L 11.125 35.683594 L 12.089844 36.035156 L 12.089844 10.238281 L 15.140625 9.246094 L 15.140625 7.992188 L 11.125 9.300781 Z M 28.023438 5.046875 L 28.023438 3.792969 L 23.074219 5.410156 L 23.0625 5.410156 L 23.0625 40.015625 L 24.269531 40.453125 L 24.269531 6.265625 Z M 16.878906 7.484375 L 16.878906 37.769531 L 17.96875 38.164063 L 17.96875 8.324219 L 20.949219 7.351563 L 20.949219 6.101563 L 16.878906 7.425781 Z "/>
<path style=" stroke:none;fill-rule:nonzero;fill:rgb(0,142,248);fill-opacity:1;" d="M 60.570313 34.277344 L 30.140625 45.101563 L 30.140625 0.0390625 L 60.578125 9.875 Z "/>
<path style=" stroke:none;fill-rule:nonzero;fill:rgb(59,171,255);fill-opacity:1;" d="M 69.261719 44.769531 C 56.660156 63.527344 30.949219 68.707031 11.835938 56.34375 C -7.28125 43.980469 -12.5625 18.753906 0.0390625 0 L -0.730469 0 C 7.019531 0.722656 13.15625 6.742188 13.890625 14.347656 L 46.28125 14.347656 C 46.28125 23.121094 39.03125 30.234375 30.085938 30.234375 C 21.144531 30.234375 13.890625 23.121094 13.890625 14.347656 "/>
<path style=" stroke:none;fill-rule:nonzero;fill:rgb(95,187,255);fill-opacity:1;" d="M 36.945313 50.320313 C 41.191406 51.019531 44.519531 54.285156 45.234375 58.453125 L 45.234375 100.46875 C 43.851563 57.925781 42.339844 57.679688 40.777344 57.730469 C 46.085938 59.328125 50.007813 63.75 50.882813 69.132813 L 60.988281 79.046875 Z "/>
<path style=" stroke:none;fill-rule:nonzero;fill:rgb(0,84,146);fill-opacity:1;" d="M 33.085938 2.976563 C 33.085938 3.414063 32.726563 3.769531 32.28125 3.769531 C 31.832031 3.769531 31.472656 3.414063 31.472656 2.976563 C 31.472656 2.539063 31.832031 2.1875 32.28125 2.1875 C 32.726563 2.1875 33.085938 2.539063 33.085938 2.976563 Z "/>
<path style=" stroke:none;fill-rule:nonzero;fill:rgb(0,84,146);fill-opacity:1;" d="M 59.144531 11.191406 C 59.144531 10.753906 58.800781 10.402344 58.378906 10.402344 C 57.960938 10.402344 57.617188 10.753906 57.617188 11.191406 C 57.617188 11.628906 57.960938 11.984375 58.378906 11.984375 C 58.800781 11.984375 59.144531 11.628906 59.144531 11.191406 Z "/>
<path style=" stroke:none;fill-rule:nonzero;fill:rgb(255,255,255);fill-opacity:1;" d="M 31.816406 51 C 37.46875 51.207031 42 55.65625 42.210938 61.199219 C 50.273438 61.5 56.734375 67.84375 57.042969 75.753906 L 63.242188 75.753906 C 59.128906 75.726563 61.199219 75.726563 63.242188 75.753906 Z M 31.816406 31.175781 C 44.363281 22.660156 61.566406 25.734375 70.246094 38.046875 C 78.925781 50.355469 75.789063 67.238281 63.242188 75.753906 L 95.648438 75.753906 C 98.269531 75.820313 100.378906 77.890625 100.449219 80.464844 L 98.8125 80.464844 L 98.59375 79.609375 C 99.230469 79.851563 99.851563 80.140625 100.449219 80.464844 C 81.621094 103.921875 46.976563 107.964844 23.066406 89.492188 C -0.84375 71.019531 -4.964844 37.023438 13.863281 13.566406 L 13.652344 14.199219 L 13.003906 14.019531 C 12.8125 13.875 12.621094 13.722656 12.4375 13.566406 Z "/>
</g>
</svg>
