<?xml version="1.0" encoding="UTF-8"?>
<svg xmlns="http://www.w3.org/2000/svg" xmlns:xlink="http://www.w3.org/1999/xlink" width="70pt" height="70pt" viewBox="0 0 70 70" version="1.1">
<g id="surface1">
<path style=" stroke:none;fill-rule:nonzero;fill:rgb(0,108,188);fill-opacity:1;" d="M 35.066406 69.960938 L 35.066406 54.359375 C 20.054688 59.546875 3.683594 51.582031 -1.503906 36.570313 C -6.691406 21.558594 1.273438 5.1875 16.28125 0 L 16.28125 -0.640625 L 0 -0.640625 C -17.097656 -5.449219 -27.890625 -22.292969 -25.117188 -39.832031 C -22.347656 -57.375 -6.882813 -70.066406 10.863281 -69.367188 C 28.609375 -68.667969 43.023438 -54.800781 44.40625 -37.09375 C 45.792969 -19.386719 33.707031 -3.449219 16.28125 0 Z "/>
<path style=" stroke:none;fill-rule:nonzero;fill:rgb(0,81,142);fill-opacity:1;" d="M 15.601563 34.933594 C 9.234375 38.632813 1.316406 38.371094 -4.792969 34.265625 C -10.902344 30.160156 -14.132813 22.925781 -13.113281 15.632813 C -12.09375 8.34375 -7.003906 2.273438 0 0 L 0.484375 0 L -0.75 -2.332031 C -5.328125 1.097656 -11.328125 1.972656 -16.695313 0 Z "/>
<path style=" stroke:none;fill-rule:nonzero;fill:rgb(0,108,188);fill-opacity:1;" d="M 29.65625 33.589844 C 29.023438 31.804688 27.300781 30.644531 25.410156 30.71875 C 23.519531 30.792969 21.898438 32.089844 21.40625 33.914063 C 20.914063 35.742188 21.667969 37.675781 23.265625 38.691406 C 24.863281 39.703125 26.933594 39.5625 28.378906 38.339844 L 33.59375 43.554688 L 28.378906 45.730469 C 47.179688 -1029.835938 342.742188 -1894.65625 688.535156 -1893.292969 C 1034.328125 -1891.925781 1299.402344 -1024.890625 1280.597656 43.289063 L 1285.742188 43.289063 C 1281.574219 44.167969 1282.507813 45.417969 1283.015625 46.53125 C 1283.523438 47.640625 1283.523438 48.425781 1283.015625 48.5625 C 1282.507813 48.699219 1281.574219 48.164063 1280.597656 47.175781 Z M 43.460938 24.003906 L 31.144531 42.910156 L 27.929688 42.910156 L 40.21875 24.003906 Z M 29.910156 26.054688 C 28.625 26.054688 27.964844 916.609375 27.964844 2705.5 C 27.964844 2707.1875 641.046875 4539.695313 641.046875 4539.695313 C 641.046875 4539.695313 642.917969 4538.816406 2511.605469 4537.058594 C 4380.289063 4535.300781 31.109375 26.054688 29.910156 26.054688 Z M 41.433594 43.167969 C 40.796875 41.398438 39.085938 40.25 37.207031 40.328125 C 35.332031 40.40625 33.722656 41.695313 33.234375 43.507813 C 32.746094 45.320313 33.488281 47.242188 35.074219 48.253906 C 36.65625 49.261719 38.714844 49.128906 40.152344 47.917969 L 45.359375 53.125 L 40.152344 55.308594 C 58.722656 -1006.988281 350.617188 -1861.0625 692.113281 -1859.707031 C 1033.609375 -1858.351563 1295.390625 -1002.082031 1276.820313 52.828125 L 1282.011719 52.828125 C 1277.832031 53.550781 1278.988281 55.046875 1279.648438 56.488281 C 1280.308594 57.929688 1280.308594 58.964844 1279.648438 59.019531 C 1278.988281 59.070313 1277.832031 58.128906 1276.820313 56.714844 Z M 41.644531 35.636719 C 40.367188 35.636719 39.734375 125.082031 39.734375 2711.191406 C 39.734375 2712.882813 660.207031 2713.726563 1901.152344 2713.726563 C 3142.101563 2713.726563 3142.722656 2712.847656 1903.023438 2711.089844 C 1902.390625 2697.0625 1901.726563 2703.039063 1901.125 2728.199219 Z "/>
</g>
</svg>
