<?xml version="1.0" encoding="UTF-8"?>
<svg xmlns="http://www.w3.org/2000/svg" xmlns:xlink="http://www.w3.org/1999/xlink" width="70pt" height="70pt" viewBox="0 0 70 70" version="1.1">
<g id="surface1">
<path style=" stroke:none;fill-rule:nonzero;fill:rgb(81.960784%,34.901961%,0%);fill-opacity:1;" d="M 7.507813 8.203125 L 12.21875 27.222656 C 12.773438 -197.441406 13.390625 -197.722656 13.945313 26.445313 L 59.109375 26.445313 C 60.011719 -57.265625 60.902344 248.335938 61.5625 866.027344 C 62.222656 1483.722656 62.589844 2354.417969 62.5625 3258.109375 L 62.5625 3314.5 C 67.234375 3335.117188 70.855469 3730.527344 70.648438 4197.667969 C 70.441406 4664.808594 66.488281 5026.785156 61.816406 5006.167969 L 56.730469 5010.796875 L 10.5625 5010.796875 L 7.449219 5009.488281 Z "/>
<path style=" stroke:none;fill-rule:nonzero;fill:rgb(100%,100%,100%);fill-opacity:1;" d="M 11.296875 8.167969 L 14.183594 4.875 C 14.671875 -195.496094 15.222656 -195.746094 15.714844 4.179688 L 57.890625 4.179688 C 59.011719 4.179688 59.921875 913.042969 59.921875 2034.179688 L 59.921875 2087.792969 C 59.921875 2659.582031 59.679688 3204.785156 59.253906 3588.902344 L 54.75 3593.007813 Z "/>
<path style=" stroke:none;fill-rule:nonzero;fill:rgb(100%,100%,100%);fill-opacity:1;" d="M 40.832031 38.339844 C 40.84375 40.644531 39.953125 42.859375 38.351563 44.511719 L 288.773438 1576.734375 L 44.4375 50.597656 L 191.535156 44.511719 C 38.351563 42.03125 40.363281 40.019531 42.847656 40.019531 C 45.328125 40.019531 47.339844 42.03125 47.339844 44.511719 Z M 22.582031 38.335938 C 22.570313 35.984375 23.457031 33.714844 25.054688 31.988281 L 2078.390625 38.074219 L 33.449219 49.101563 L 1508.203125 31.988281 L 34.261719 31.988281 Z M 29.167969 38.195313 C 29.957031 -422 30.9375 -422.972656 31.730469 35.644531 L 36.898438 290.949219 Z "/>
<path style=" stroke:none;fill-rule:nonzero;fill:rgb(100%,100%,100%);fill-opacity:1;" d="M 48.609375 38.109375 C 48.632813 41.546875 47.300781 44.851563 44.910156 47.316406 L 51.085938 2333.984375 L 53.980469 56.390625 L 2310.503906 47.316406 C 44.910156 -578.3125 552.078125 -1085.480469 1177.707031 -1085.480469 C 1803.335938 -1085.480469 2310.503906 -578.3125 2310.503906 47.316406 C 2307.964844 671.921875 1799.5625 1176.203125 1174.957031 1173.660156 C 550.351563 1171.117188 46.070313 662.714844 48.609375 38.109375 Z M 14.777344 37.824219 C 14.757813 41.257813 16.085938 44.5625 18.480469 47.027344 L 24.65625 2333.695313 L 27.558594 56.105469 L 2284.078125 47.027344 C 18.46875 43.597656 17.144531 40.304688 14.777344 37.824219 Z "/>
</g>
</svg>
