<?xml version="1.0" encoding="UTF-8"?>
<svg xmlns="http://www.w3.org/2000/svg" xmlns:xlink="http://www.w3.org/1999/xlink" width="70pt" height="70pt" viewBox="0 0 70 70" version="1.1">
<g id="surface1">
<path style=" stroke:none;fill-rule:nonzero;fill:rgb(0%,47.058824%,83.137255%);fill-opacity:1;" d="M 5.984375 9.988281 L 64.023438 9.988281 C 64.667969 -364.03125 65.464844 -363.242188 66.109375 12.054688 L 66.109375 23.242188 L 3.890625 23.242188 L 3.890625 12.054688 C 4.535156 -366.257813 5.335938 -367.046875 5.984375 9.988281 Z "/>
<path style=" stroke:none;fill-rule:nonzero;fill:rgb(94.901961%,94.901961%,94.901961%);fill-opacity:1;" d="M 13.667969 13.921875 L 56.34375 13.921875 C 56.90625 13.921875 57.363281 14.378906 57.363281 14.945313 L 57.363281 18.148438 C 57.363281 18.714844 56.90625 19.171875 56.34375 19.171875 L 13.667969 19.171875 C 13.105469 19.171875 12.648438 18.714844 12.648438 18.148438 L 12.648438 14.945313 C 12.648438 14.378906 13.105469 13.921875 13.667969 13.921875 Z "/>
<path style=" stroke:none;fill-rule:nonzero;fill:rgb(94.901961%,94.901961%,94.901961%);fill-opacity:1;" d="M 25.710938 52.378906 L 33.699219 30.8125 C 33.394531 14.050781 33.027344 13.523438 32.71875 29.398438 L 27.75 29.398438 C 27.3125 30.070313 26.921875 303.148438 26.769531 713.84375 L 18.78125 735.414063 C 18.660156 1056.09375 18.707031 1414.269531 18.902344 1694.753906 C 19.097656 1975.242188 19.417969 2142.667969 19.757813 2143.191406 L 24.726563 2143.191406 C 25.035156 2159.292969 25.402344 2159.039063 25.710938 2142.507813 Z M 43.230469 52.378906 L 51.21875 30.8125 C 50.914063 -132.105469 50.546875 -132.632813 50.242188 29.398438 L 45.273438 29.398438 C 44.835938 28.441406 44.441406 301.8125 44.289063 713.84375 L 36.300781 735.414063 C 36.179688 1056.738281 36.226563 1415.664063 36.421875 1696.351563 C 36.621094 1977.035156 36.941406 2143.9375 37.28125 2143.191406 L 42.25 2143.191406 C 42.554688 2305.453125 42.921875 2305.195313 43.230469 2142.507813 Z "/>
</g>
</svg>
