<?xml version="1.0" encoding="UTF-8"?>
<svg xmlns="http://www.w3.org/2000/svg" xmlns:xlink="http://www.w3.org/1999/xlink" width="70pt" height="70pt" viewBox="0 0 70 70" version="1.1">
<g id="surface1">
<path style=" stroke:none;fill-rule:nonzero;fill:rgb(255,255,255);fill-opacity:1;" d="M 59.007813 21.332031 C 71.660156 39.015625 73.601563 62.214844 64.0625 81.761719 C 65.492188 139.078125 215.726563 86.085938 371.285156 86.085938 C 370.089844 164.839844 305.277344 227.714844 226.523438 226.523438 C 147.765625 225.328125 84.890625 160.515625 86.085938 81.761719 C 83.75 97.316406 81.359375 98.808594 78.910156 86.234375 C 78.933594 -23042.070313 97.699219 -41772.515625 120.828125 -41749.386719 C 143.957031 -41726.257813 162.6875 -22958.3125 162.664063 169.992188 L 163.808594 169.550781 C 162.664063 -31.027344 325.621094 -193.984375 526.640625 -193.984375 C 727.65625 -193.984375 890.613281 -31.027344 890.613281 169.992188 Z "/>
<path style=" stroke:none;fill-rule:nonzero;fill:rgb(255,255,255);fill-opacity:0.701961;" d="M 48.917969 50.753906 C 50.320313 47.53125 51.195313 33.558594 50.871094 19.542969 C 50.550781 5.527344 49.152344 -3.222656 47.75 0 C 41.53125 -0.832031 32.804688 -2.847656 29.601563 -3.605469 C 29.601563 237325.421875 221.992188 429719.417969 459.324219 429720.414063 C 696.652344 429721.410156 889.046875 237329.027344 889.046875 0 C 889.824219 173.398438 893.933594 318.890625 895.40625 318.890625 C 807.347656 -54.824219 1038.914063 -429.164063 1412.628906 -517.222656 C 1786.339844 -605.28125 2160.679688 -373.710938 2248.738281 0 C 2204.730469 -20.148438 2152.613281 -5.890625 2124.992188 33.851563 C 2097.367188 73.59375 2102.171875 127.414063 2136.394531 161.636719 C 2170.617188 195.863281 2224.4375 200.664063 2264.179688 173.042969 C 2303.925781 145.421875 2318.183594 93.300781 2298.035156 49.296875 L 2299.335938 294.296875 C 2340.011719 75.761719 2365.578125 121.816406 2365.84375 171.4375 C 2366.105469 221.058594 2341.03125 267.386719 2299.335938 294.296875 Z "/>
</g>
</svg>
