<?xml version="1.0" encoding="UTF-8"?>
<svg xmlns="http://www.w3.org/2000/svg" xmlns:xlink="http://www.w3.org/1999/xlink" width="70pt" height="70pt" viewBox="0 0 70 70" version="1.1">
<defs>
<linearGradient id="linear0" gradientUnits="userSpaceOnUse" x1="9" y1="13.51" x2="9" y2="0.76" gradientTransform="matrix(3.888889,0,0,3.888889,0,0)">
<stop offset="0" style="stop-color:rgb(65,174,255);stop-opacity:1;"/>
<stop offset="0.44" style="stop-color:rgb(71,176,255);stop-opacity:1;"/>
<stop offset="0.85" style="stop-color:rgb(83,182,255);stop-opacity:1;"/>
<stop offset="1" style="stop-color:rgb(91,185,255);stop-opacity:1;"/>
</linearGradient>
</defs>
<g id="surface1">
<path style=" stroke:none;fill-rule:nonzero;fill:url(#linear0);" d="M 2.332031 2.957031 L 67.667969 2.957031 C 68.957031 2.957031 70 4 70 5.289063 L 70 50.207031 C 70 51.496094 68.957031 52.539063 67.667969 52.539063 L 2.332031 52.539063 C 1.042969 52.539063 0 51.496094 0 50.207031 L 0 5.289063 C 0 4 1.042969 2.957031 2.332031 2.957031 Z "/>
<path style=" stroke:none;fill-rule:nonzero;fill:rgb(255,255,255);fill-opacity:1;" d="M 5.25 7.3125 L 64.75 7.3125 C 65.394531 7.3125 65.917969 7.832031 65.917969 8.476563 L 65.917969 46.976563 C 65.917969 47.621094 65.394531 48.144531 64.75 48.144531 L 5.25 48.144531 C 4.605469 48.144531 4.082031 47.621094 4.082031 46.976563 L 4.082031 8.476563 C 4.082031 7.832031 4.605469 7.3125 5.25 7.3125 Z "/>
<path style=" stroke:none;fill-rule:nonzero;fill:rgb(0,132,230);fill-opacity:1;" d="M 58.101563 36.320313 C 58.101563 97.121094 57.617188 147.003906 57.011719 149.101563 L 31.734375 149.101563 C 31.734375 148.347656 31.734375 147.597656 31.734375 146.84375 L 57.011719 146.84375 C 57.308594 146.824219 57.589844 158.828125 57.796875 180.101563 C 58 201.371094 58.109375 230.074219 58.101563 259.621094 "/>
<path style=" stroke:none;fill-rule:nonzero;fill:rgb(0,132,230);fill-opacity:1;" d="M 58.101563 29.320313 C 58.101563 90.121094 57.617188 140.003906 57.011719 142.101563 L 31.734375 142.101563 C 31.734375 141.347656 31.734375 140.597656 31.734375 139.84375 L 57.011719 139.84375 C 57.308594 139.824219 57.589844 151.828125 57.796875 173.101563 C 58 194.371094 58.109375 223.074219 58.101563 252.621094 "/>
<path style=" stroke:none;fill-rule:nonzero;fill:rgb(0,132,230);fill-opacity:1;" d="M 58.101563 19.171875 C 58.109375 48.71875 58 77.425781 57.796875 98.695313 C 57.589844 119.964844 57.308594 131.96875 57.011719 131.949219 L 14.660156 131.949219 C 14.65625 194.011719 14.148438 243.910156 13.527344 243.597656 C 12.90625 243.289063 12.40625 192.886719 12.40625 130.820313 C 12.40625 68.757813 12.90625 18.355469 13.527344 18.046875 C 14.148438 17.734375 14.65625 67.632813 14.660156 129.695313 L 57.011719 129.695313 C 57.308594 129.675781 57.589844 141.679688 57.796875 162.949219 C 58 184.21875 58.109375 212.925781 58.101563 242.472656 "/>
<path style=" stroke:none;fill-rule:nonzero;fill:rgb(0,82,144);fill-opacity:1;" d="M 19.949219 49.351563 C 16.222656 52.699219 10.570313 52.699219 6.84375 49.351563 L 6.027344 65.644531 C 5.988281 119.914063 6.292969 170.828125 6.792969 192.6875 C 7.289063 214.546875 7.871094 202.59375 8.246094 162.867188 L 13.300781 157.734375 L 18.394531 162.90625 C 18.625 202.21875 19.050781 226.269531 19.503906 226.078125 C 19.960938 225.886719 20.382813 201.476563 20.609375 161.972656 Z "/>
<path style=" stroke:none;fill-rule:nonzero;fill:rgb(0,107,186);fill-opacity:1;" d="M 25.238281 40.988281 C 25.238281 34.503906 20 29.246094 13.535156 29.246094 C 7.070313 29.246094 1.828125 34.503906 1.828125 40.988281 C 1.828125 47.476563 7.070313 52.734375 13.535156 52.734375 C 20 52.734375 25.238281 47.476563 25.238281 40.988281 Z "/>
<path style=" stroke:none;fill-rule:nonzero;fill:rgb(125,199,255);fill-opacity:1;" d="M 22.4375 40.988281 C 22.4375 36.070313 18.453125 32.082031 13.535156 32.082031 C 8.613281 32.082031 4.628906 36.070313 4.628906 40.988281 C 4.628906 45.90625 8.613281 49.894531 13.535156 49.894531 C 18.453125 49.894531 22.4375 45.90625 22.4375 40.988281 Z "/>
</g>
</svg>
