<?xml version="1.0" encoding="UTF-8"?>
<svg xmlns="http://www.w3.org/2000/svg" xmlns:xlink="http://www.w3.org/1999/xlink" width="70pt" height="70pt" viewBox="0 0 70 70" version="1.1">
<g id="surface1">
<path style=" stroke:none;fill-rule:nonzero;fill:rgb(0%,35.686275%,63.137255%);fill-opacity:1;" d="M 58.765625 12.703125 L 21.410156 12.703125 L 21.410156 8 L 58.765625 8 C 58.761719 16235.507813 45.605469 29388.707031 29.378906 29386.5 C 13.152344 29384.289063 -0.00390625 16227.507813 0 0 L 3.339844 1411.667969 C 3.730469 489.199219 3.296875 -574.625 2.375 -964.445313 C 1.453125 -1354.265625 0.390625 -922.46875 0 0 L -3.339844 1411.667969 C -2.949219 69066.546875 52.210938 123595.65625 119.867188 123205.832031 C 187.519531 122816.011719 242.050781 67654.882813 241.660156 0 Z "/>
<path style=" stroke:none;fill-rule:nonzero;fill:rgb(0%,47.058824%,83.137255%);fill-opacity:1;" d="M 59.050781 42.390625 L 62.121094 50 C 62.136719 546658.492188 505.261719 989761.039063 1051.867188 989747.230469 C 1598.476563 989733.425781 2041.578125 546608.5 2041.566406 0.0078125 L 2033.058594 -2.128906 C 2033.472656 -4.199219 2032.304688 -6.265625 2030.308594 -6.972656 C 2028.316406 -7.683594 2026.105469 -6.820313 2025.121094 -4.945313 C 2024.136719 -3.074219 2024.675781 -0.765625 2026.386719 0.476563 C 2028.097656 1.71875 2030.460938 1.515625 2031.9375 0 L 22.945313 21.777344 L 30.9375 13.789063 L 58.113281 40.964844 C 46.800781 -504.089844 479.484375 -955.117188 1024.542969 -966.429688 C 1569.597656 -977.742188 2020.625 -545.058594 2031.9375 0 Z "/>
<path style=" stroke:none;fill-rule:nonzero;fill:rgb(100%,100%,100%);fill-opacity:0.6;" d="M 24.410156 12.132813 C 24.410156 15.15625 21.960938 17.609375 18.933594 17.609375 C 15.910156 17.609375 13.460938 15.15625 13.460938 12.132813 C 13.460938 9.109375 15.910156 6.65625 18.933594 6.65625 C 21.960938 6.65625 24.410156 9.109375 24.410156 12.132813 Z "/>
<path style=" stroke:none;fill-rule:nonzero;fill:rgb(100%,100%,100%);fill-opacity:0.501961;" d="M 24.410156 12.132813 C 21.058594 10.621094 19.570313 6.679688 21.082031 3.328125 C 22.59375 -0.0234375 26.535156 -1.511719 29.886719 0 L 29.886719 6.65625 C 28.382813 4.695313 28.382813 1.964844 29.886719 0 Z "/>
</g>
</svg>
