<?xml version="1.0" encoding="UTF-8"?>
<svg xmlns="http://www.w3.org/2000/svg" xmlns:xlink="http://www.w3.org/1999/xlink" width="70pt" height="70pt" viewBox="0 0 70 70" version="1.1">
<defs>
<radialGradient id="radial0" gradientUnits="userSpaceOnUse" cx="13428.81" cy="3518.86" fx="13428.81" fy="3518.86" r="56.67" gradientTransform="matrix(0.583333,0,0,0.583333,-7798.505556,-2017.672222)">
<stop offset="0.18" style="stop-color:rgb(41,164,255);stop-opacity:1;"/>
<stop offset="1" style="stop-color:rgb(0,108,188);stop-opacity:1;"/>
</radialGradient>
<linearGradient id="linear0" gradientUnits="userSpaceOnUse" x1="4.4" y1="11.48" x2="4.37" y2="7.53" gradientTransform="matrix(3.888889,0,0,3.888889,0,0)">
<stop offset="0" style="stop-color:rgb(153,211,255);stop-opacity:1;"/>
<stop offset="1" style="stop-color:rgb(249,252,255);stop-opacity:1;"/>
</linearGradient>
<linearGradient id="linear1" gradientUnits="userSpaceOnUse" x1="10.13" y1="15.45" x2="10.13" y2="11.9" gradientTransform="matrix(3.888889,0,0,3.888889,0,0)">
<stop offset="0" style="stop-color:rgb(153,211,255);stop-opacity:1;"/>
<stop offset="1" style="stop-color:rgb(249,252,255);stop-opacity:1;"/>
</linearGradient>
<linearGradient id="linear2" gradientUnits="userSpaceOnUse" x1="14.18" y1="11.15" x2="14.18" y2="7.38" gradientTransform="matrix(3.888889,0,0,3.888889,0,0)">
<stop offset="0" style="stop-color:rgb(153,211,255);stop-opacity:1;"/>
<stop offset="1" style="stop-color:rgb(249,252,255);stop-opacity:1;"/>
</linearGradient>
<linearGradient id="linear3" gradientUnits="userSpaceOnUse" x1="4.4" y1="11.48" x2="4.37" y2="7.53" gradientTransform="matrix(3.888889,0,0,3.888889,0,0)">
<stop offset="0" style="stop-color:rgb(153,211,255);stop-opacity:1;"/>
<stop offset="1" style="stop-color:rgb(249,252,255);stop-opacity:1;"/>
</linearGradient>
<linearGradient id="linear4" gradientUnits="userSpaceOnUse" x1="10.13" y1="15.45" x2="10.13" y2="11.9" gradientTransform="matrix(3.888889,0,0,3.888889,0,0)">
<stop offset="0" style="stop-color:rgb(153,211,255);stop-opacity:1;"/>
<stop offset="1" style="stop-color:rgb(249,252,255);stop-opacity:1;"/>
</linearGradient>
</defs>
<g id="surface1">
<path style=" stroke:none;fill-rule:nonzero;fill:url(#radial0);" d="M 55.261719 61.132813 C 40.828125 72.324219 20.054688 69.695313 8.867188 55.261719 C -2.324219 40.828125 0.304688 20.054688 14.738281 8.867188 L 15.089844 8.632813 C 29.59375 -2.195313 50.113281 0.660156 61.113281 15.035156 C 72.113281 29.410156 69.503906 49.960938 55.261719 61.132813 "/>
<path style=" stroke:none;fill-rule:nonzero;fill:rgb(255,255,255);fill-opacity:0.6;" d="M 26.015625 28.117188 C 35.367188 19.222656 47.761719 14.242188 60.667969 14.195313 C 58.972656 12.097656 57.027344 10.21875 54.871094 8.59375 C 48.59375 8.980469 42.429688 10.429688 36.632813 12.871094 C 30.667969 15.433594 25.273438 19.164063 20.765625 23.839844 C 22.933594 24.660156 24.773438 26.160156 26.015625 28.117188 Z "/>
<path style=" stroke:none;fill-rule:nonzero;fill:rgb(255,255,255);fill-opacity:0.6;" d="M 9.644531 41.417969 C 8.308594 44.726563 7.230469 48.132813 6.417969 51.605469 C -92.382813 52.269531 -171.933594 132.902344 -171.265625 231.699219 C -170.601563 330.496094 -89.96875 410.050781 8.828125 409.382813 C 9.527344 500.1875 182.078125 662.160156 182.078125 662.160156 C 11.4375 708.253906 -164.257813 607.285156 -210.351563 436.644531 C -256.441406 266.003906 -155.472656 90.308594 15.167969 44.214844 C 13.089844 43.847656 11.171875 42.871094 9.644531 41.417969 Z "/>
<path style=" stroke:none;fill-rule:nonzero;fill:rgb(229,243,255);fill-opacity:0.54902;" d="M 13.457031 23.761719 C 12.082031 20.078125 11.179688 16.238281 10.773438 12.328125 C 9.140625 14.042969 7.707031 15.933594 6.496094 17.964844 C 6.933594 21.117188 7.675781 24.214844 8.710938 27.222656 C 9.929688 25.640625 11.574219 24.4375 13.457031 23.761719 Z "/>
<path style=" stroke:none;fill-rule:nonzero;fill:url(#linear0);" d="M 27.648438 33.753906 C 27.648438 39.617188 22.898438 44.371094 17.035156 44.371094 C 11.167969 44.371094 6.417969 39.617188 6.417969 33.753906 C 6.417969 27.890625 11.167969 23.140625 17.035156 23.140625 C 22.898438 23.140625 27.648438 27.890625 27.648438 33.753906 Z "/>
<path style=" stroke:none;fill-rule:nonzero;fill:rgb(229,243,255);fill-opacity:0.54902;" d="M 32.511719 53.160156 C 32.515625 51.296875 33.273438 49.515625 34.609375 48.222656 C 31.027344 46.257813 27.71875 43.824219 24.773438 40.988281 C 113.90625 42.589844 184.863281 116.140625 183.265625 205.273438 C 181.664063 294.40625 108.109375 365.367188 18.976563 363.765625 C 20.730469 365.5625 22.617188 367.226563 24.617188 368.746094 C 111.515625 370.945313 183.746094 302.285156 185.945313 215.386719 C 188.148438 128.488281 119.488281 56.257813 32.589844 54.054688 C 32.542969 53.757813 32.519531 53.460938 32.511719 53.160156 Z "/>
<path style=" stroke:none;fill-rule:nonzero;fill:rgb(229,243,255);fill-opacity:0.54902;" d="M 57.011719 53.976563 C 53.398438 53.980469 49.796875 53.5625 46.277344 52.734375 L 46.707031 59.539063 L 51.101563 105.972656 L 139.609375 105.972656 C 51.425781 54.402344 56.910156 54.738281 62.222656 53.707031 C 60.492188 53.898438 58.753906 53.988281 57.011719 53.976563 Z "/>
<path style=" stroke:none;fill-rule:nonzero;fill:url(#linear1);" d="M 46.316406 53.160156 C 46.316406 56.984375 43.21875 60.082031 39.394531 60.082031 C 35.570313 60.082031 32.472656 56.984375 32.472656 53.160156 C 32.472656 49.339844 35.570313 46.238281 39.394531 46.238281 C 43.21875 46.238281 46.316406 49.339844 46.316406 53.160156 Z "/>
<path style=" stroke:none;fill-rule:nonzero;fill:rgb(229,243,255);fill-opacity:0.701961;" d="M 47.910156 34.726563 C 48.253906 33.207031 49.085938 31.839844 50.285156 30.839844 C 43.878906 26.183594 38.058594 20.777344 32.9375 14.738281 C 29.957031 11.234375 27.347656 7.429688 25.160156 3.382813 C -19.941406 2.210938 -57.453125 37.828125 -58.625 82.929688 C -59.796875 128.035156 -24.179688 165.546875 20.921875 166.714844 C 62.160156 169.027344 97.460938 137.46875 99.769531 96.230469 C 102.078125 54.992188 70.519531 19.691406 29.285156 17.382813 C 34.75 23.914063 41.007813 29.738281 47.910156 34.726563 Z "/>
<path style=" stroke:none;fill-rule:nonzero;fill:url(#linear2);" d="M 62.496094 36.050781 C 62.496094 40.109375 59.203125 43.398438 55.144531 43.398438 C 51.085938 43.398438 47.792969 40.109375 47.792969 36.050781 C 47.792969 31.992188 51.085938 28.699219 55.144531 28.699219 C 59.203125 28.699219 62.496094 31.992188 62.496094 36.050781 Z "/>
<path style=" stroke:none;fill-rule:nonzero;fill:rgb(229,243,255);fill-opacity:0.54902;" d="M 67.472656 40.988281 L 66.109375 40.328125 L 64.945313 39.707031 L 64.710938 39.707031 L 63.699219 38.890625 L 63.429688 38.890625 L 62.222656 38.109375 C 161.019531 38.796875 240.554688 119.445313 239.867188 218.246094 C 239.179688 317.042969 158.53125 396.578125 59.734375 395.890625 C 60.199219 427.972656 119.542969 481.445313 119.542969 481.445313 L 119.855469 502.25 L 193.746094 502.25 L 193.746094 505.59375 L 368.746094 505.59375 C 369.214844 504.183594 369.59375 502.738281 369.871094 501.277344 Z "/>
<path style=" stroke:none;fill-rule:nonzero;fill:url(#linear3);" d="M 27.648438 33.753906 C 27.648438 39.617188 22.898438 44.371094 17.035156 44.371094 C 11.167969 44.371094 6.417969 39.617188 6.417969 33.753906 C 6.417969 27.890625 11.167969 23.140625 17.035156 23.140625 C 22.898438 23.140625 27.648438 27.890625 27.648438 33.753906 Z "/>
<path style=" stroke:none;fill-rule:nonzero;fill:url(#linear4);" d="M 46.316406 53.160156 C 46.316406 56.984375 43.21875 60.082031 39.394531 60.082031 C 35.570313 60.082031 32.472656 56.984375 32.472656 53.160156 C 32.472656 49.339844 35.570313 46.238281 39.394531 46.238281 C 43.21875 46.238281 46.316406 49.339844 46.316406 53.160156 Z "/>
</g>
</svg>
