<?xml version="1.0" encoding="UTF-8"?>
<svg xmlns="http://www.w3.org/2000/svg" xmlns:xlink="http://www.w3.org/1999/xlink" width="70pt" height="70pt" viewBox="0 0 70 70" version="1.1">
<defs>
<linearGradient id="linear0" gradientUnits="userSpaceOnUse" x1="8.59" y1="-7.79" x2="9.12" y2="20.05" gradientTransform="matrix(3.888889,0,0,3.888889,0,0)">
<stop offset="0.22" style="stop-color:rgb(19.607843%,83.137255%,96.078431%);stop-opacity:1;"/>
<stop offset="0.47" style="stop-color:rgb(19.215686%,81.960784%,95.294118%);stop-opacity:1;"/>
<stop offset="0.63" style="stop-color:rgb(18.039216%,78.823529%,92.156863%);stop-opacity:1;"/>
<stop offset="0.77" style="stop-color:rgb(16.078431%,72.941176%,87.058824%);stop-opacity:1;"/>
<stop offset="0.89" style="stop-color:rgb(13.333333%,64.705882%,79.607843%);stop-opacity:1;"/>
<stop offset="1" style="stop-color:rgb(9.803922%,54.117647%,70.196078%);stop-opacity:1;"/>
<stop offset="1" style="stop-color:rgb(9.803922%,54.117647%,70.196078%);stop-opacity:1;"/>
</linearGradient>
</defs>
<g id="surface1">
<path style=" stroke:none;fill-rule:nonzero;fill:url(#linear0);" d="M 58.566406 33.714844 L 54.679688 33.714844 L 54.679688 21.738281 C 54.710938 16.113281 52.644531 10.675781 48.882813 6.496094 C 45.320313 2.34375 40.117188 -0.0273438 34.648438 0 C 29.128906 -0.0742188 23.859375 2.304688 20.261719 6.496094 C 16.472656 10.660156 14.402344 16.109375 14.464844 21.738281 L 14.464844 33.714844 L 11.316406 33.714844 C 3.90625 26.308594 -2.699219 80.367188 -3.441406 154.464844 C -4.183594 228.566406 1.222656 294.640625 8.632813 302.050781 L 8.632813 333.160156 C 1.222656 340.570313 -4.183594 406.644531 -3.441406 480.746094 C -2.699219 554.84375 3.90625 608.902344 11.316406 601.496094 L 58.566406 601.496094 C 59.414063 648.503906 60.449219 647.484375 61.289063 598.8125 L 61.289063 36.398438 C 60.449219 -12.273438 59.414063 -13.292969 58.566406 33.714844 Z M 45.460938 33.714844 L 23.839844 33.714844 L 23.839844 21.542969 C 23.875 18.429688 25.082031 15.445313 27.222656 13.183594 C 29.066406 11.070313 31.730469 9.851563 34.535156 9.839844 C 126.886719 7.808594 203.402344 81.03125 205.429688 173.386719 C 207.460938 265.742188 134.238281 342.253906 41.882813 344.285156 C 88.058594 343.941406 125.773438 381.09375 126.117188 427.273438 C 126.460938 473.449219 89.304688 511.160156 43.128906 511.503906 C 44.585938 513.425781 45.414063 515.746094 45.5 518.15625 Z "/>
<path style=" stroke:none;fill-rule:nonzero;fill:rgb(31.372549%,90.196078%,100%);fill-opacity:1;" d="M 58.683594 33.714844 L 11.355469 33.714844 C 10.722656 33.921875 10.113281 57.464844 9.644531 99.828125 L 60.394531 134.828125 C 60.71875 140.261719 61.046875 139.574219 61.367188 132.804688 L 61.367188 101.695313 C 60.660156 32.597656 59.636719 6.667969 58.683594 33.714844 Z "/>
<path style=" stroke:none;fill-rule:nonzero;fill:rgb(100%,100%,100%);fill-opacity:0.2;" d="M 11.433594 33.714844 L 58.722656 33.714844 C 60.546875 28.882813 62.417969 39.765625 62.902344 58.023438 C 63.386719 76.277344 62.296875 94.996094 60.472656 99.828125 L 9.683594 134.828125 C 9.347656 134.753906 9.019531 134.070313 8.710938 132.804688 L 8.710938 101.695313 C 9.429688 31.925781 10.46875 5.996094 11.433594 33.714844 Z "/>
<path style=" stroke:none;fill-rule:nonzero;fill:rgb(100%,100%,100%);fill-opacity:1;" d="M 30.332031 41.222656 L 35 36.554688 C 35.101563 28.0625 35.25 28.0625 35.351563 36.554688 L 39.976563 41.222656 C 39.976563 41.351563 39.976563 41.480469 39.976563 41.609375 L 37.253906 41.609375 C 37.125 41.609375 37.023438 52.058594 37.023438 64.945313 L 37.023438 47.832031 C 37.023438 60.71875 36.917969 71.167969 36.789063 71.167969 L 33.714844 71.167969 C 33.648438 76.28125 33.550781 76.1875 33.484375 70.933594 L 33.484375 41.84375 C 33.398438 36.910156 33.296875 36.820313 33.210938 41.609375 L 30.488281 41.609375 C 30.4375 43.265625 30.382813 43.128906 30.332031 41.222656 Z M 39.9375 62.535156 L 35.3125 67.160156 C 35.265625 72.183594 35.203125 75.0625 35.136719 75.0625 C 35.070313 75.0625 35.003906 72.183594 34.960938 67.160156 L 30.332031 62.535156 C 30.332031 62.402344 30.332031 62.273438 30.332031 62.144531 L 27.609375 62.144531 C 27.695313 66.933594 27.800781 66.847656 27.882813 61.910156 L 27.882813 55.882813 C 27.957031 51.644531 28.042969 51.554688 28.117188 55.648438 L 25.238281 55.648438 C 25.367188 55.648438 25.472656 66.097656 25.472656 78.984375 L 25.472656 85.011719 C 25.472656 97.898438 25.578125 108.34375 25.707031 108.34375 L 28.429688 108.34375 C 28.300781 -209.527344 30.777344 -477.464844 33.953125 -490.117188 C 37.132813 -502.765625 39.8125 -255.335938 39.9375 62.535156 Z M 21.660156 56.503906 L 21.660156 53.785156 C 21.589844 49.542969 21.5 49.453125 21.429688 53.550781 L 15.554688 53.550781 C 15.484375 57.644531 15.394531 57.558594 15.320313 53.316406 L 15.320313 50.554688 C 15.394531 46.277344 15.484375 46.144531 15.554688 50.207031 L 21.429688 50.207031 C 21.5 54.300781 21.589844 54.210938 21.660156 49.972656 L 21.660156 47.25 C 21.710938 40.671875 21.792969 36.808594 21.875 36.769531 C 21.957031 36.730469 22.035156 40.523438 22.089844 47.054688 L 26.714844 51.722656 C 26.714844 51.824219 26.714844 51.929688 26.714844 52.035156 L 22.089844 56.699219 C 22.035156 63.234375 21.957031 67.023438 21.875 66.984375 C 21.792969 66.949219 21.710938 63.085938 21.660156 56.503906 Z M 48.609375 47.25 L 48.609375 44.527344 C 48.609375 57.414063 48.714844 67.859375 48.84375 67.859375 L 54.832031 67.859375 C 54.832031 91.195313 55.105469 67.859375 55.105469 91.195313 L 55.105469 94.070313 C 55.085938 107.570313 54.96875 117.546875 54.832031 117.40625 L 48.84375 117.40625 C 48.714844 117.40625 48.609375 127.851563 48.609375 140.738281 L 48.609375 143.460938 C 48.621094 153.035156 48.570313 162.171875 48.484375 166.472656 C 48.398438 170.773438 48.292969 169.355469 48.222656 162.90625 L 43.59375 158.238281 L 43.59375 157.929688 L 48.222656 153.570313 C 48.222656 153.570313 48.609375 47.015625 48.609375 47.25 Z "/>
</g>
</svg>
