<?xml version="1.0" encoding="UTF-8"?>
<svg xmlns="http://www.w3.org/2000/svg" xmlns:xlink="http://www.w3.org/1999/xlink" width="70pt" height="70pt" viewBox="0 0 70 70" version="1.1">
<defs>
<linearGradient id="linear0" gradientUnits="userSpaceOnUse" x1="9" y1="17.5" x2="9" y2="0.5" gradientTransform="matrix(3.888889,0,0,3.888889,0,0)">
<stop offset="0.16" style="stop-color:rgb(0,111,194);stop-opacity:1;"/>
<stop offset="0.32" style="stop-color:rgb(0,116,202);stop-opacity:1;"/>
<stop offset="0.51" style="stop-color:rgb(0,131,228);stop-opacity:1;"/>
<stop offset="0.72" style="stop-color:rgb(17,154,255);stop-opacity:1;"/>
<stop offset="0.94" style="stop-color:rgb(77,179,255);stop-opacity:1;"/>
<stop offset="1" style="stop-color:rgb(97,187,255);stop-opacity:1;"/>
</linearGradient>
</defs>
<g id="surface1">
<path style=" stroke:none;fill-rule:nonzero;fill:url(#linear0);" d="M 47.792969 19.445313 L 22.207031 19.445313 C 21.621094 19.640625 21.058594 43.476563 20.648438 85.554688 L 2.605469 20.648438 C 2.378906 22.347656 2.15625 27.59375 1.945313 36.207031 L 1.945313 61.792969 C 2.15625 70.40625 2.378906 75.652344 2.605469 77.351563 L 20.648438 95.394531 C 21.058594 137.476563 21.621094 161.308594 22.207031 161.503906 L 47.792969 161.503906 C 48.296875 180.441406 48.851563 180.207031 49.351563 160.84375 L 67.394531 142.800781 C 67.613281 145.648438 67.835938 145.125 68.054688 141.246094 L 68.054688 22.207031 C 67.835938 18.324219 67.613281 17.800781 67.394531 20.648438 L 49.351563 260.554688 C 49.507813 152.558594 48.84375 49.46875 47.792969 19.445313 Z "/>
<path style=" stroke:none;fill-rule:nonzero;fill:rgb(229,243,255);fill-opacity:1;" d="M 23.332031 29.710938 L 23.0625 56.933594 L 19.171875 60.820313 C 19.039063 76.640625 19.007813 98.636719 19.089844 117.601563 C 19.171875 136.5625 19.355469 149.21875 19.5625 150.265625 L 34.339844 150.265625 C 34.507813 159.824219 34.714844 159.617188 34.882813 149.722656 L 34.882813 19.640625 C 34.882813 -15.800781 34.597656 -44.570313 34.242188 -44.625 C 33.886719 -44.679688 33.601563 -15.992188 33.601563 19.445313 L 29.710938 23.332031 L 29.4375 50.554688 C 29.21875 70.359375 28.882813 70.359375 28.660156 50.554688 L 18.667969 13.765625 L 13.339844 19.132813 L 23.332031 28.933594 C 23.332031 29.191406 23.332031 29.453125 23.332031 29.710938 Z "/>
<path style=" stroke:none;fill-rule:nonzero;fill:rgb(229,243,255);fill-opacity:1;" d="M 62.921875 22.984375 L 47.015625 7.078125 C 46.765625 -2.597656 46.488281 -2.707031 46.238281 6.765625 L 23.761719 6.765625 C 23.472656 6.351563 23.191406 17.550781 22.984375 37.878906 L 7.078125 22.984375 C 6.972656 24.027344 6.867188 26.648438 6.765625 30.761719 L 6.765625 53.238281 C 6.769531 56.128906 6.882813 58.898438 7.078125 61.015625 L 22.984375 76.921875 C 23.191406 97.25 23.472656 108.449219 23.761719 108.035156 L 46.238281 108.035156 C 46.488281 117.507813 46.765625 117.398438 47.015625 107.722656 L 62.921875 91.816406 C 63.027344 91.703125 63.132813 91.441406 63.234375 91.039063 L 63.234375 23.761719 C 63.128906 22.011719 63.027344 21.75 62.921875 22.984375 Z M 61.523438 44.179688 L 49.273438 31.929688 L 52.226563 28.933594 C 52.226563 28.621094 52.226563 28.3125 52.226563 28 L 41.6875 27.726563 C 41.339844 27.667969 41.046875 54.964844 41.027344 89.949219 L 40.871094 38.890625 C 40.871094 56.085938 40.941406 72.535156 41.066406 84.320313 C 41.191406 96.109375 41.363281 102.1875 41.535156 101.109375 C 41.679688 108.71875 41.855469 108.71875 42 101.109375 L 45.304688 97.84375 L 58.332031 49.078125 L 48.457031 58.957031 L 35 45.539063 L 38.109375 42.777344 C 38.109375 42.464844 38.109375 42.15625 38.109375 41.84375 L 37.917969 41.84375 L 27.222656 41.183594 C 26.871094 41.121094 26.582031 68.421875 26.5625 103.40625 L 26.832031 113.945313 C 26.832031 131.144531 26.902344 147.589844 27.027344 159.375 C 27.15625 171.164063 27.324219 177.242188 27.496094 176.167969 C 27.644531 181.777344 27.8125 181.707031 27.960938 175.972656 L 31.109375 49.542969 L 43.089844 61.523438 L 23.996094 61.523438 L 8.4375 45.964844 L 8.4375 23.996094 L 13.339844 19.132813 L 18.667969 13.765625 L 23.996094 8.4375 L 46.003906 8.4375 L 61.5625 23.996094 Z "/>
</g>
</svg>
