<?xml version="1.0" encoding="UTF-8"?>
<svg xmlns="http://www.w3.org/2000/svg" xmlns:xlink="http://www.w3.org/1999/xlink" width="70pt" height="70pt" viewBox="0 0 70 70" version="1.1">
<defs>
<linearGradient id="linear0" gradientUnits="userSpaceOnUse" x1="9.19" y1="17.5" x2="9.19" y2="0.5" gradientTransform="matrix(3.888889,0,0,3.888889,0,0)">
<stop offset="0" style="stop-color:rgb(0%,47.058824%,83.137255%);stop-opacity:1;"/>
<stop offset="0.82" style="stop-color:rgb(36.862745%,62.745098%,93.72549%);stop-opacity:1;"/>
</linearGradient>
</defs>
<g id="surface1">
<path style=" stroke:none;fill-rule:nonzero;fill:rgb(0%,47.058824%,83.137255%);fill-opacity:1;" d="M 51.917969 11.199219 C 108.960938 8.730469 157.207031 52.972656 159.679688 110.015625 C 162.148438 167.0625 117.90625 215.308594 60.859375 217.777344 C 64.472656 218.304688 67.121094 221.441406 67.042969 225.089844 C 67.058594 226.757813 66.496094 228.378906 65.449219 229.679688 L 166.5625 229.679688 L 53.785156 229.679688 Z "/>
<path style=" stroke:none;fill-rule:nonzero;fill:url(#linear0);" d="M 52.734375 198.332031 L 17.734375 198.332031 C 69.496094 195.894531 109.480469 151.957031 107.042969 100.195313 C 104.605469 48.4375 60.667969 8.449219 8.90625 10.890625 L 8.90625 68.015625 L 43.90625 68.015625 C 48.824219 68.015625 52.8125 64.03125 52.8125 59.109375 L 52.8125 20.570313 C 52.585938 16.6875 52.585938 12.792969 52.8125 8.90625 C 54.210938 11.667969 62.570313 252.777344 62.570313 252.777344 C 72.832031 234.628906 68.699219 211.742188 52.734375 198.332031 Z "/>
<path style=" stroke:none;fill-rule:nonzero;fill:rgb(94.901961%,94.901961%,94.901961%);fill-opacity:1;" d="M 31.109375 45.265625 L 31.109375 26.988281 C 31.457031 35.46875 31.820313 34.851563 32.160156 25.199219 L 30.0625 237.300781 L 32.160156 43.476563 C 31.507813 82.113281 31.109375 152.464844 31.109375 228.355469 C 31.386719 170.410156 31.386719 103.210938 31.109375 45.265625 Z "/>
<path style=" stroke:none;fill-rule:nonzero;fill:rgb(36.862745%,62.745098%,93.72549%);fill-opacity:1;" d="M 44.527344 67.785156 C 41.738281 67.355469 39.460938 65.328125 38.710938 62.605469 C 37.964844 59.882813 38.886719 56.976563 41.066406 55.183594 L 9.527344 55.183594 C 6.109375 55.808594 3.625 58.785156 3.625 62.261719 C 3.625 65.738281 6.109375 68.714844 9.527344 69.339844 C 9.902344 69.378906 10.28125 69.378906 10.65625 69.339844 Z "/>
<path style=" stroke:none;fill-rule:nonzero;fill:rgb(94.901961%,94.901961%,94.901961%);fill-opacity:1;" d="M 38.851563 25.238281 C 38.851563 26.421875 37.890625 27.378906 36.710938 27.378906 C 35.53125 27.378906 34.570313 26.421875 34.570313 25.238281 C 34.570313 24.058594 35.53125 23.101563 36.710938 23.101563 C 37.890625 23.101563 38.851563 24.058594 38.851563 25.238281 Z "/>
<path style=" stroke:none;fill-rule:nonzero;fill:rgb(94.901961%,94.901961%,94.901961%);fill-opacity:1;" d="M 32.042969 25.238281 C 32.042969 26.421875 31.085938 27.378906 29.90625 27.378906 C 28.722656 27.378906 27.765625 26.421875 27.765625 25.238281 C 27.765625 24.058594 28.722656 23.101563 29.90625 23.101563 C 31.085938 23.101563 32.042969 24.058594 32.042969 25.238281 Z "/>
<path style=" stroke:none;fill-rule:nonzero;fill:rgb(94.901961%,94.901961%,94.901961%);fill-opacity:1;" d="M 25.277344 25.238281 C 25.277344 26.421875 24.320313 27.378906 23.140625 27.378906 C 21.957031 27.378906 21 26.421875 21 25.238281 C 21 24.058594 21.957031 23.101563 23.140625 23.101563 C 24.320313 23.101563 25.277344 24.058594 25.277344 25.238281 Z "/>
<path style=" stroke:none;fill-rule:nonzero;fill:rgb(70.196078%,70.196078%,70.196078%);fill-opacity:1;" d="M 23.332031 35 L 24.578125 33.753906 C 24.578125 33.496094 24.578125 33.238281 24.578125 32.976563 L 14.894531 23.332031 L 13.648438 147.777344 C 13.648438 148.296875 13.648438 148.816406 13.648438 149.332031 L 22.671875 35 C 22.871094 48.691406 23.132813 48.691406 23.332031 35 Z "/>
<path style=" stroke:none;fill-rule:nonzero;fill:rgb(94.901961%,94.901961%,94.901961%);fill-opacity:1;" d="M 24.5 16.722656 L 23.332031 15.554688 C 23.113281 -4.25 22.777344 -4.25 22.554688 15.554688 L 13.648438 24.382813 C 13.648438 24.902344 13.648438 25.421875 13.648438 25.9375 L 14.855469 27.222656 L 24.5 17.5 C 24.5 17.242188 24.5 16.980469 24.5 16.722656 Z "/>
<path style=" stroke:none;fill-rule:nonzero;fill:rgb(70.196078%,70.196078%,70.196078%);fill-opacity:1;" d="M 36.246094 35 L 35 33.714844 C 35 33.457031 35 33.199219 35 32.9375 L 44.839844 23.332031 L 46.042969 147.777344 C 46.042969 148.296875 46.042969 148.816406 46.042969 149.332031 L 37.023438 35 C 36.800781 54.804688 36.464844 54.804688 36.246094 35 Z "/>
<path style=" stroke:none;fill-rule:nonzero;fill:rgb(94.901961%,94.901961%,94.901961%);fill-opacity:1;" d="M 35.195313 16.722656 L 36.4375 15.554688 C 36.660156 -4.25 36.996094 -4.25 37.214844 15.554688 L 46.042969 24.421875 C 46.042969 24.941406 46.042969 25.460938 46.042969 25.976563 L 44.839844 27.222656 L 35.195313 17.5 C 35.195313 17.242188 35.195313 16.980469 35.195313 16.722656 Z "/>
</g>
</svg>
