<?xml version="1.0" encoding="UTF-8"?>
<svg xmlns="http://www.w3.org/2000/svg" xmlns:xlink="http://www.w3.org/1999/xlink" width="70pt" height="70pt" viewBox="0 0 70 70" version="1.1">
<defs>
<linearGradient id="linear0" gradientUnits="userSpaceOnUse" x1="9" y1="172.704" x2="9" y2="160.613" gradientTransform="matrix(3.888889,0,0,3.888889,0,-622.222222)">
<stop offset="0" style="stop-color:rgb(0,124,216);stop-opacity:1;"/>
<stop offset="0.11" style="stop-color:rgb(3,148,255);stop-opacity:1;"/>
<stop offset="0.23" style="stop-color:rgb(37,162,255);stop-opacity:1;"/>
<stop offset="0.37" style="stop-color:rgb(61,172,255);stop-opacity:1;"/>
<stop offset="0.53" style="stop-color:rgb(73,177,255);stop-opacity:1;"/>
<stop offset="0.78" style="stop-color:rgb(79,180,255);stop-opacity:1;"/>
</linearGradient>
</defs>
<g id="surface1">
<path style=" stroke:none;fill-rule:nonzero;fill:url(#linear0);" d="M 68.054688 34.609375 C 67.839844 27.335938 62.425781 21.265625 55.222656 20.222656 C 48.667969 17.542969 41.167969 18.746094 35.777344 23.332031 C 31.75 17.304688 24.710938 14.007813 17.5 14.777344 C 8.902344 16.050781 2.394531 23.207031 1.945313 31.890625 C 2.058594 36.699219 4.097656 41.261719 7.609375 44.554688 C 11.117188 47.84375 15.804688 49.585938 20.609375 49.390625 L 53.277344 49.390625 C 61.4375 49.390625 68.054688 42.773438 68.054688 34.609375 Z "/>
<path style=" stroke:none;fill-rule:nonzero;fill:rgb(229,243,255);fill-opacity:1;" d="M 52.109375 50.167969 C 52.109375 59.617188 44.449219 67.277344 35 67.277344 C 25.550781 67.277344 17.890625 59.617188 17.890625 50.167969 C 17.890625 40.714844 25.550781 33.054688 35 33.054688 C 44.449219 33.054688 52.109375 40.714844 52.109375 50.167969 Z "/>
<path style=" stroke:none;fill-rule:nonzero;fill:rgb(0,108,188);fill-opacity:1;" d="M 49.390625 39.277344 C 43.449219 31.496094 32.355469 29.9375 24.5 35.777344 C 19.414063 39.640625 16.800781 45.9375 17.648438 52.265625 C 18.5 58.59375 22.6875 63.976563 28.609375 66.359375 C 34.535156 68.742188 41.28125 67.753906 46.277344 63.777344 C 53.769531 57.796875 55.148438 46.941406 49.390625 39.277344 Z M 19.832031 49 C 19.980469 46.851563 20.507813 44.746094 21.390625 42.777344 L 25.667969 42.777344 C 25.191406 44.820313 24.933594 46.90625 24.890625 49 Z M 28 42.777344 L 33.832031 42.777344 L 33.832031 49 L 27.222656 49 C 27.265625 46.90625 27.527344 44.820313 28 42.777344 Z M 36.167969 42.777344 L 42 42.777344 C 42.472656 44.820313 42.734375 46.90625 42.777344 49 L 36.167969 49 Z M 34.222656 50.945313 L 34.222656 57.167969 L 28 57.167969 L 26.832031 51.332031 Z M 32.277344 50.945313 L 39.277344 50.945313 C 39.1875 53.035156 38.925781 55.117188 38.5 57.167969 L 36.167969 57.167969 Z M 41.609375 50.945313 L 50.554688 50.945313 C 50.40625 53.09375 49.878906 55.199219 49 57.167969 L 44.722656 57.167969 C 45.195313 55.125 45.457031 53.039063 45.5 50.945313 Z M 41.609375 49 C 41.519531 46.910156 41.261719 44.828125 40.832031 42.777344 L 45.109375 42.777344 C 46.035156 44.726563 46.566406 46.84375 46.667969 49 Z M 43.554688 40.445313 L 40.054688 40.445313 C 39.515625 38.78125 38.730469 37.207031 37.722656 35.777344 C 39.984375 36.886719 41.976563 38.480469 43.554688 40.445313 Z M 37.722656 40.445313 L 36.167969 40.445313 L 36.167969 35 C 38.75 35.832031 40.777344 37.859375 41.609375 40.445313 Z M 34.222656 35 L 34.222656 40.832031 L 28.777344 40.832031 C 29.464844 38.082031 31.523438 35.875 34.222656 35 Z M 25.667969 62.222656 C 26.648438 61.488281 27.6875 60.835938 28.777344 60.277344 C 27.617188 61.757813 26.816406 63.488281 26.445313 65.332031 L 22.945313 65.332031 C 15.320313 64.582031 9.75 57.792969 10.5 50.167969 C 11.25 42.542969 18.042969 36.96875 25.667969 37.722656 Z M 19.832031 51.332031 L 24.890625 51.332031 C 24.980469 53.425781 25.238281 55.507813 25.667969 57.554688 L 21.390625 57.554688 C 20.550781 55.574219 20.027344 53.476563 19.832031 51.332031 Z M 22.945313 59.5 L 26.445313 59.5 L 28.777344 64.167969 C 26.433594 63.1875 24.414063 61.570313 22.945313 59.5 Z M 28.777344 59.5 L 33.832031 59.5 L 33.832031 65.332031 C 31.394531 64.195313 29.558594 62.074219 28.777344 59.5 Z M 36.167969 65.332031 L 36.167969 59.5 L 41.222656 59.5 C 40.710938 62.214844 38.78125 64.445313 36.167969 65.332031 Z M 44.722656 62.222656 C 48.957031 64.15625 51.34375 68.71875 50.519531 73.304688 C 49.695313 77.886719 45.867188 81.328125 41.222656 81.667969 C 42.304688 80.28125 43.097656 78.695313 43.554688 77 L 40.054688 77 C 35.976563 75.710938 33.710938 71.359375 35 67.277344 C 36.289063 63.195313 40.640625 60.933594 44.722656 62.222656 Z "/>
<path style=" stroke:none;fill-rule:nonzero;fill:rgb(205,233,255);fill-opacity:1;" d="M 19.832031 44.332031 C 15.347656 42.152344 12.167969 37.964844 11.277344 33.054688 C 11.335938 28.585938 13.5 24.40625 17.109375 21.777344 L 19.445313 19.832031 L 21.390625 43.167969 L 19.054688 62.609375 C 27.324219 61.324219 32.984375 53.574219 31.695313 45.304688 C 30.40625 37.035156 22.65625 31.378906 14.390625 32.667969 C 15.039063 36.648438 17.679688 40.023438 21.390625 41.609375 Z "/>
<path style=" stroke:none;fill-rule:nonzero;fill:rgb(229,243,255);fill-opacity:1;" d="M 24.890625 21 C 24.890625 23.363281 22.972656 25.277344 20.609375 25.277344 C 18.25 25.277344 16.332031 23.363281 16.332031 21 C 16.332031 18.636719 18.25 16.722656 20.609375 16.722656 C 22.972656 16.722656 24.890625 18.636719 24.890625 21 Z "/>
<path style=" stroke:none;fill-rule:nonzero;fill:rgb(205,233,255);fill-opacity:1;" d="M 49.390625 44.332031 L 47.832031 41.609375 C 51.445313 39.902344 54.042969 36.585938 54.832031 32.667969 C 54.746094 29.230469 53.007813 26.046875 50.167969 24.109375 L 47.832031 22.554688 L 67.277344 20.222656 L 92.167969 20.222656 C 96.113281 22.550781 98.378906 26.933594 98 31.5 C 101.542969 44.921875 93.535156 58.679688 80.109375 62.222656 C 66.6875 65.765625 52.933594 57.757813 49.390625 44.332031 Z "/>
<path style=" stroke:none;fill-rule:nonzero;fill:rgb(229,243,255);fill-opacity:1;" d="M 53.277344 21 C 53.277344 23.363281 51.363281 25.277344 49 25.277344 C 46.636719 25.277344 44.722656 23.363281 44.722656 21 C 44.722656 18.636719 46.636719 16.722656 49 16.722656 C 51.363281 16.722656 53.277344 18.636719 53.277344 21 Z "/>
<path style=" stroke:none;fill-rule:nonzero;fill:rgb(45,165,255);fill-opacity:1;" d="M 24.890625 43.167969 C 24.890625 45.527344 22.972656 47.445313 20.609375 47.445313 C 18.25 47.445313 16.332031 45.527344 16.332031 43.167969 C 16.332031 40.804688 18.25 38.890625 20.609375 38.890625 C 22.972656 38.890625 24.890625 40.804688 24.890625 43.167969 Z "/>
<path style=" stroke:none;fill-rule:nonzero;fill:rgb(45,165,255);fill-opacity:1;" d="M 53.277344 43.167969 C 53.277344 45.527344 51.363281 47.445313 49 47.445313 C 46.636719 47.445313 44.722656 45.527344 44.722656 43.167969 C 44.722656 40.804688 46.636719 38.890625 49 38.890625 C 51.363281 38.890625 53.277344 40.804688 53.277344 43.167969 Z "/>
</g>
</svg>
