<?xml version="1.0" encoding="UTF-8"?>
<svg xmlns="http://www.w3.org/2000/svg" xmlns:xlink="http://www.w3.org/1999/xlink" width="70pt" height="70pt" viewBox="0 0 70 70" version="1.1">
<defs>
<linearGradient id="linear0" gradientUnits="userSpaceOnUse" x1="10.56" y1="7.77" x2="10.56" y2="19.24" gradientTransform="matrix(3.888889,0,0,3.888889,0,0)">
<stop offset="0.22" style="stop-color:rgb(79,180,255);stop-opacity:1;"/>
<stop offset="1" style="stop-color:rgb(0,124,216);stop-opacity:1;"/>
</linearGradient>
<linearGradient id="linear1" gradientUnits="userSpaceOnUse" x1="10.23" y1="1.63" x2="11.07" y2="12.04" gradientTransform="matrix(3.888889,0,0,3.888889,0,0)">
<stop offset="0.22" style="stop-color:rgb(79,180,255);stop-opacity:1;"/>
<stop offset="1" style="stop-color:rgb(0,124,216);stop-opacity:1;"/>
</linearGradient>
</defs>
<g id="surface1">
<path style=" stroke:none;fill-rule:nonzero;fill:url(#linear0);" d="M 63.117188 66.773438 C 65.6875 66.816406 67.816406 64.789063 67.898438 62.222656 L 67.898438 61.445313 C 65.996094 46.433594 57.4375 34.222656 41.105469 34.222656 C 24.773438 34.222656 15.90625 44.566406 14.234375 61.445313 C 13.960938 64.085938 15.871094 66.449219 18.511719 66.734375 L 63.117188 66.734375 Z "/>
<path style=" stroke:none;fill-rule:nonzero;fill:rgb(255,255,255);fill-opacity:0.8;" d="M 41.105469 37.761719 C 38.210938 37.773438 35.375 36.949219 32.9375 35.390625 L 41.027344 56.464844 L 49.039063 35.503906 C 46.660156 36.988281 43.910156 37.769531 41.105469 37.761719 Z "/>
<path style=" stroke:none;fill-rule:nonzero;fill:url(#linear1);" d="M 56.15625 22.710938 C 56.15625 31.023438 49.417969 37.761719 41.105469 37.761719 C 32.792969 37.761719 26.054688 31.023438 26.054688 22.710938 C 26.054688 14.398438 32.792969 7.660156 41.105469 7.660156 C 49.417969 7.660156 56.15625 14.398438 56.15625 22.710938 Z "/>
<path style=" stroke:none;fill-rule:nonzero;fill:rgb(0,108,188);fill-opacity:1;" d="M 23.332031 22.867188 L 23.332031 3.890625 C 22.453125 -13.292969 21.597656 44.164063 21.429688 132.222656 C 21.257813 220.28125 21.832031 305.59375 22.710938 322.777344 L 17.773438 322.777344 C 18.652344 303.449219 19.210938 216.390625 19.015625 128.332031 C 18.824219 40.273438 17.953125 -15.441406 17.070313 3.890625 L 17.070313 22.207031 C 17.054688 57.886719 16.769531 86.382813 16.410156 88.316406 L 12.054688 88.316406 C 11.902344 87.152344 11.765625 78.632813 11.6875 65.5 C 11.613281 52.363281 11.601563 36.273438 11.667969 22.398438 L 11.667969 17.304688 C 11.589844 4.136719 11.449219 -4 11.296875 -4.0625 C 11.144531 -4.128906 11.003906 3.890625 10.929688 16.996094 L -2.292969 25.550781 C -2.292969 25.859375 -2.292969 26.171875 -2.292969 26.484375 L 10.851563 35 C 10.90625 52.84375 11.070313 64.953125 11.257813 64.890625 C 11.445313 64.828125 11.613281 52.609375 11.667969 34.726563 L 11.667969 29.59375 C 11.789063 23.226563 11.933594 23.066406 12.054688 29.167969 L 22.710938 29.167969 C 22.90625 39.332031 23.140625 39.082031 23.332031 28.503906 Z "/>
</g>
</svg>
