<?xml version="1.0" encoding="UTF-8"?>
<svg xmlns="http://www.w3.org/2000/svg" xmlns:xlink="http://www.w3.org/1999/xlink" width="70pt" height="70pt" viewBox="0 0 70 70" version="1.1">
<g id="surface1">
<path style=" stroke:none;fill-rule:nonzero;fill:rgb(3,148,255);fill-opacity:1;" d="M 67.117188 20.535156 C 67.769531 19.882813 587.917969 18.84375 67.117188 18.191406 L 63.992188 15.0625 L 49.925781 1388.800781 C 49.273438 1388.148438 48.363281 1388.148438 47.710938 1388.800781 C 47.058594 2039.800781 46.929688 1390.492188 47.710938 1391.144531 L 62.425781 1405.601563 C -325.71875 1038.6875 -342.929688 426.589844 23.984375 38.441406 C 390.898438 -349.703125 1003 -366.914063 1391.144531 0 L 47.449219 35.515625 C 37.644531 -335.539063 330.488281 -644.285156 701.539063 -654.089844 C 1072.589844 -663.898438 1381.339844 -371.050781 1391.144531 0 C 1391.796875 651 1392.835938 520.800781 1393.359375 0 L 1407.296875 -13.808594 L 1537.496094 -13.9375 L 1540.882813 -17.324219 Z M 2.773438 20.535156 C 2.121094 19.882813 2.253906 18.84375 2.773438 18.191406 L 5.898438 15.0625 L 19.96875 1387.398438 C 20.617188 1386.75 21.527344 1386.75 22.179688 1387.398438 C 22.832031 2039.179688 23.875 1387.398438 24.527344 1387.398438 L 7.722656 18.191406 C 2.699219 -362.796875 307.480469 -675.71875 688.464844 -680.742188 C 1069.453125 -685.765625 1382.375 -380.988281 1387.398438 0 L 22.441406 35.515625 C 12.636719 -341.410156 310.242188 -654.914063 687.164063 -664.722656 C 1064.085938 -674.527344 1377.59375 -376.921875 1387.398438 0 C 1386.75 651 1385.707031 520.800781 1385.183594 0 L 6.03125 24.183594 L 5.898438 24.050781 Z "/>
<path style=" stroke:none;fill-rule:nonzero;fill:rgb(0,140,244);fill-opacity:1;" d="M 25.898438 19.601563 C 25.898438 22.421875 23.59375 24.5 21.144531 24.5 C 18.695313 24.5 16.101563 22.125 16.101563 19.601563 C 16.101563 17.074219 18.117188 14.699219 21.144531 14.699219 C 24.027344 14.699219 25.898438 17.074219 25.898438 19.601563 Z "/>
<path style=" stroke:none;fill-rule:nonzero;fill:rgb(0,140,244);fill-opacity:1;" d="M 53.898438 19.601563 C 53.898438 22.304688 51.707031 24.5 49 24.5 C 46.292969 24.5 44.101563 22.304688 44.101563 19.601563 C 44.101563 16.894531 46.292969 14.699219 49 14.699219 C 51.707031 14.699219 53.898438 16.894531 53.898438 19.601563 Z "/>
<path style=" stroke:none;fill-rule:nonzero;fill:rgb(57,171,255);fill-opacity:1;" d="M 57.398438 50.398438 C 56.90625 50.398438 56.421875 99.398438 55.945313 169.398438 L 55.945313 169.390625 C 55.945313 158.746094 47.390625 150.121094 36.839844 150.121094 C 28.410156 150.121094 21.261719 155.625 18.726563 163.265625 C -26.359375 163.46875 -63.074219 127.085938 -63.277344 82 C -63.480469 36.917969 -27.097656 0.203125 17.988281 0 C 7.242188 43.648438 1.398438 49.546875 1.398438 56.820313 C 1.398438 64.101563 7.242188 70 14.460938 70 L 14.476563 69.996094 L 14.476563 70 L 56.722656 70 L 56.722656 69.996094 L 56.679688 72.796875 C 56.785156 72.796875 56.890625 72.785156 371.679688 72.78125 C 478.082031 93.796875 688.09375 93.796875 688.09375 93.796875 C 662.191406 257.90625 508.15625 369.949219 344.046875 344.046875 C 179.9375 318.144531 67.894531 164.109375 93.796875 0 Z "/>
<path style=" stroke:none;fill-rule:nonzero;fill:rgb(255,255,255);fill-opacity:1;" d="M 32.199219 22.398438 L 37.800781 22.398438 L 37.800781 54.601563 L 32.199219 54.601563 Z "/>
<path style=" stroke:none;fill-rule:nonzero;fill:rgb(255,255,255);fill-opacity:0.2;" d="M 30.917969 46.230469 C 18.152344 54.765625 0.882813 51.339844 -7.65625 38.574219 C -16.191406 25.808594 -12.765625 8.539063 0 0 C -1.261719 -0.265625 -2.558594 -0.421875 -3.898438 -0.421875 C -12.328125 -0.421875 -19.476563 5.085938 -22.011719 12.726563 C -24.5 8.914063 -24.78125 4.070313 -22.75 0 C 7.242188 43.648438 1.398438 49.546875 1.398438 56.820313 C 1.398438 64.101563 7.242188 70 14.457031 70 L 14.476563 69.996094 L 14.476563 70 L 19.96875 70 C 0.636719 56.183594 -3.832031 29.316406 9.984375 9.984375 C 23.800781 -9.34375 50.667969 -13.816406 70 0 C 70 -7.921875 76.269531 -14.363281 84.117188 -14.671875 Z "/>
<path style=" stroke:none;fill-rule:nonzero;fill:rgb(0,140,244);fill-opacity:1;" d="M 39.898438 19.601563 C 39.898438 22.421875 37.59375 24.5 35.144531 24.5 C 32.695313 24.5 30.101563 22.125 30.101563 19.601563 C 30.101563 17.074219 32.40625 14.699219 35.144531 14.699219 C 37.882813 14.699219 39.898438 17.074219 39.898438 19.601563 Z "/>
<path style=" stroke:none;fill-rule:nonzero;fill:rgb(255,255,255);fill-opacity:1;" d="M 37.800781 48.1875 L 37.800781 31.289063 C 37.480469 31.273438 37.164063 31.238281 36.84375 31.238281 C 35.242188 31.238281 33.6875 231.441406 32.199219 606.640625 L 32.199219 623.125 C 30.476563 1647.925781 29.261719 625.996094 29.261719 628.023438 C 29.261719 630.972656 32.109375 633.765625 35.121094 633.765625 C 38.21875 633.765625 40.742188 631.191406 40.742188 628.023438 C -132.683594 465.851563 -141.804688 193.792969 20.371094 20.371094 C 182.542969 -153.054688 454.601563 -162.171875 628.023438 0 Z "/>
<path style=" stroke:none;fill-rule:nonzero;fill:rgb(0,140,244);fill-opacity:1;" d="M 39.058594 53.199219 C 39.058594 55.539063 37.148438 57.261719 35.117188 57.261719 C 33.089844 57.261719 30.941406 55.292969 30.941406 53.199219 C 30.941406 51.109375 32.851563 49.140625 35.117188 49.140625 C 37.386719 49.140625 39.058594 51.109375 39.058594 53.199219 Z "/>
<path style=" stroke:none;fill-rule:nonzero;fill:rgb(0,140,244);fill-opacity:1;" d="M 36.398438 23.800781 L 36.398438 53.199219 L 33.601563 53.199219 L 33.601563 23.800781 Z "/>
</g>
</svg>
