<?xml version="1.0" encoding="UTF-8"?>
<svg xmlns="http://www.w3.org/2000/svg" xmlns:xlink="http://www.w3.org/1999/xlink" width="70pt" height="70pt" viewBox="0 0 70 70" version="1.1">
<defs>
<linearGradient id="linear0" gradientUnits="userSpaceOnUse" x1="9" y1="19.85" x2="9" y2="-1.02" gradientTransform="matrix(3.888889,0,0,3.888889,0,0)">
<stop offset="0" style="stop-color:rgb(0,138,240);stop-opacity:1;"/>
<stop offset="0.02" style="stop-color:rgb(0,139,242);stop-opacity:1;"/>
<stop offset="1" style="stop-color:rgb(47,166,255);stop-opacity:1;"/>
</linearGradient>
</defs>
<g id="surface1">
<path style=" stroke:none;fill-rule:nonzero;fill:url(#linear0);" d="M 0 33.328125 L 33.328125 70 C 33.765625 65.484375 34.371094 62.941406 35 62.941406 C 35.628906 62.941406 36.234375 65.484375 36.671875 70 L 69.300781 102.628906 C 69.308594 103.742188 69.308594 104.859375 69.300781 105.972656 L 36.632813 138.640625 C 35.726563 147.53125 34.273438 147.53125 33.367188 138.640625 L 0.699219 36.671875 C 0.691406 35.558594 0.691406 34.441406 0.699219 33.328125 Z "/>
<path style=" stroke:none;fill-rule:nonzero;fill:rgb(143,207,255);fill-opacity:1;" d="M 43.554688 15.554688 L 35.3125 7.351563 C 35.132813 -8.496094 34.867188 -8.496094 34.6875 7.351563 L 26.445313 15.554688 C 24.511719 16.414063 23.015625 32.78125 23.101563 52.109375 C 23.1875 71.441406 24.824219 86.414063 26.753906 85.554688 L 31.578125 85.554688 C 31.8125 85.554688 32.003906 104.707031 32.003906 128.332031 L 32.003906 136.109375 C 32.003906 159.738281 32.195313 178.890625 32.433594 178.890625 L 37.566406 178.890625 C 37.699219 186.398438 37.863281 186.234375 37.996094 178.460938 L 37.996094 170.683594 C 38.125 162.910156 38.289063 162.746094 38.421875 170.253906 L 43.246094 170.253906 C 47.515625 171.113281 51.050781 137.179688 51.136719 94.460938 C 51.222656 51.742188 47.828125 16.414063 43.554688 15.554688 Z "/>
<path style=" stroke:none;fill-rule:nonzero;fill:rgb(143,207,255);fill-opacity:1;" d="M 15.554688 25.707031 L 7.390625 33.988281 C 7.390625 34.183594 7.390625 34.378906 7.390625 34.570313 L 15.554688 42.777344 C 15.632813 55.882813 15.773438 63.898438 15.925781 63.835938 C 16.078125 63.769531 16.21875 55.636719 16.292969 42.464844 L 16.292969 37.683594 C 16.425781 29.910156 16.589844 29.746094 16.722656 37.253906 L 24.5 37.253906 C 24.628906 37.824219 24.777344 37.660156 24.890625 36.828125 L 24.890625 31.695313 C 24.808594 31.171875 24.710938 30.964844 24.617188 31.109375 L 16.839844 31.109375 C 16.703125 31.851563 16.53125 31.699219 16.410156 30.722656 L 16.410156 26.015625 C 16.410156 2.390625 16.222656 -16.832031 15.984375 -16.917969 C 15.75 -17.003906 15.554688 2.078125 15.554688 25.707031 Z "/>
<path style=" stroke:none;fill-rule:nonzero;fill:rgb(143,207,255);fill-opacity:1;" d="M 54.753906 42.777344 L 63.039063 34.535156 C 63.039063 34.339844 63.039063 34.144531 63.039063 33.949219 L 54.753906 25.707031 C 54.628906 15.359375 54.457031 12.984375 54.308594 19.578125 C 54.160156 26.171875 54.0625 40.597656 54.054688 56.816406 L 54.054688 30.878906 C 54.054688 31.980469 54.011719 33.035156 53.929688 33.773438 C 53.847656 34.515625 53.738281 34.875 53.628906 34.765625 L 45.851563 34.765625 C 44.667969 33.691406 43.625 42.398438 43.515625 54.210938 C 43.410156 66.023438 44.28125 76.46875 45.460938 77.542969 L 45.460938 36.828125 C 44.28125 37.902344 43.410156 48.347656 43.515625 60.160156 C 43.625 71.972656 44.667969 80.679688 45.851563 79.605469 L 53.628906 79.605469 C 53.863281 79.605469 54.054688 98.757813 54.054688 122.382813 L 54.054688 127.207031 C 54.289063 146.535156 54.632813 143.304688 54.828125 119.992188 C 55.019531 96.675781 54.988281 62.109375 54.753906 42.777344 Z "/>
<path style=" stroke:none;fill-rule:nonzero;fill:rgb(255,255,255);fill-opacity:1;" d="M 45.851563 35 C 45.886719 29.378906 41.621094 24.664063 36.027344 24.132813 C 30.433594 23.597656 25.359375 27.425781 24.332031 32.953125 C 23.308594 38.476563 26.671875 43.871094 32.082031 45.382813 L 32.082031 49.078125 C 29.359375 50.484375 27.949219 53.574219 28.675781 56.554688 C 29.398438 59.539063 32.070313 61.636719 35.136719 61.636719 C 38.203125 61.636719 40.875 59.539063 41.597656 56.554688 C 42.324219 53.574219 40.914063 50.484375 38.1875 49.078125 L 38.1875 45.1875 C 42.695313 43.832031 45.796875 39.703125 45.851563 35 Z "/>
<path style=" stroke:none;fill-rule:nonzero;fill:rgb(41,164,255);fill-opacity:1;" d="M 41.339844 34.960938 C 41.339844 38.441406 38.519531 41.261719 35.039063 41.261719 C 31.558594 41.261719 28.738281 38.441406 28.738281 34.960938 C 28.738281 31.480469 31.558594 28.660156 35.039063 28.660156 C 38.519531 28.660156 41.339844 31.480469 41.339844 34.960938 Z "/>
</g>
</svg>
