<?xml version="1.0" encoding="UTF-8"?>
<svg xmlns="http://www.w3.org/2000/svg" xmlns:xlink="http://www.w3.org/1999/xlink" width="70pt" height="70pt" viewBox="0 0 70 70" version="1.1">
<defs>
<linearGradient id="linear0" gradientUnits="userSpaceOnUse" x1="9.88" y1="8.59" x2="11.52" y2="10.23" gradientTransform="matrix(3.888885,-0.00542991,0.00542991,3.888885,7.894444,-1.555556)">
<stop offset="0" style="stop-color:rgb(89,184,255);stop-opacity:1;"/>
<stop offset="1" style="stop-color:rgb(0,138,240);stop-opacity:1;"/>
</linearGradient>
<linearGradient id="linear1" gradientUnits="userSpaceOnUse" x1="6.18" y1="8.59" x2="7.81" y2="10.23" gradientTransform="matrix(3.888889,0,0,3.888889,0,0)">
<stop offset="0" style="stop-color:rgb(89,184,255);stop-opacity:1;"/>
<stop offset="1" style="stop-color:rgb(0,138,240);stop-opacity:1;"/>
</linearGradient>
<linearGradient id="linear2" gradientUnits="userSpaceOnUse" x1="2.48" y1="8.59" x2="4.11" y2="10.23" gradientTransform="matrix(3.888889,0,0,3.888889,0,0)">
<stop offset="0" style="stop-color:rgb(89,184,255);stop-opacity:1;"/>
<stop offset="1" style="stop-color:rgb(0,138,240);stop-opacity:1;"/>
</linearGradient>
</defs>
<g id="surface1">
<path style=" stroke:none;fill-rule:nonzero;fill:url(#linear0);" d="M 54.054688 34.960938 C 54.054688 37.453125 52.035156 39.472656 49.542969 39.472656 C 47.054688 39.472656 45.035156 37.453125 45.035156 34.960938 C 45.035156 32.46875 47.054688 30.449219 49.542969 30.449219 C 52.035156 30.449219 54.054688 32.46875 54.054688 34.960938 Z "/>
<path style=" stroke:none;fill-rule:nonzero;fill:url(#linear1);" d="M 39.667969 35 C 39.667969 37.492188 37.648438 39.511719 35.15625 39.511719 C 32.664063 39.511719 30.644531 37.492188 30.644531 35 C 30.644531 32.507813 32.664063 30.488281 35.15625 30.488281 C 37.648438 30.488281 39.667969 32.507813 39.667969 35 Z "/>
<path style=" stroke:none;fill-rule:nonzero;fill:url(#linear2);" d="M 25.277344 35 C 25.277344 37.492188 23.257813 39.511719 20.765625 39.511719 C 18.273438 39.511719 16.253906 37.492188 16.253906 35 C 16.253906 32.507813 18.273438 30.488281 20.765625 30.488281 C 23.257813 30.488281 25.277344 32.507813 25.277344 35 Z "/>
<path style=" stroke:none;fill-rule:nonzero;fill:rgb(119,197,255);fill-opacity:1;" d="M 24.042969 53.035156 L 21.460938 55.625 C 21.003906 56.078125 16.9375 52.761719 12.375 48.210938 L -6.734375 29.152344 C -15.859375 20.054688 -22.519531 11.9375 -21.609375 11.027344 L -19.027344 8.4375 L 24.039063 51.386719 C 25.539063 53.359375 25.539063 53.988281 24.042969 53.035156 Z "/>
<path style=" stroke:none;fill-rule:nonzero;fill:rgb(0,132,230);fill-opacity:1;" d="M 21.070313 14.421875 L 23.65625 17.003906 C 24.113281 17.457031 20.796875 21.523438 16.246094 26.085938 L -4.15625 46.546875 L -6.746094 43.964844 C -9.738281 45.882813 -9.738281 44.625 -6.75 40.664063 L 19.417969 14.421875 C 21.394531 12.921875 22.023438 12.921875 21.070313 14.421875 Z "/>
<path style=" stroke:none;fill-rule:nonzero;fill:rgb(119,197,255);fill-opacity:1;" d="M 66.71875 30.644531 L 69.300781 33.234375 C 70.210938 34.144531 63.550781 42.261719 54.425781 51.363281 L 35.316406 70.417969 C 30.753906 74.96875 26.6875 78.285156 26.230469 77.832031 L 23.648438 75.242188 C 22.152344 76.199219 22.152344 75.566406 23.652344 73.59375 Z "/>
<path style=" stroke:none;fill-rule:nonzero;fill:rgb(0,132,230);fill-opacity:1;" d="M 69.292969 36.503906 L 66.703125 39.085938 L 46.300781 18.625 C 41.753906 14.0625 38.433594 9.996094 38.890625 9.542969 L 41.507813 6.933594 C 40.550781 5.433594 41.179688 5.433594 43.15625 6.933594 L 69.324219 33.179688 C 72.3125 37.136719 72.3125 38.398438 69.320313 36.476563 Z "/>
</g>
</svg>
