<?xml version="1.0" encoding="UTF-8"?>
<svg xmlns="http://www.w3.org/2000/svg" xmlns:xlink="http://www.w3.org/1999/xlink" width="70pt" height="70pt" viewBox="0 0 70 70" version="1.1">
<defs>
<linearGradient id="linear0" gradientUnits="userSpaceOnUse" x1="5.82" y1="25.68" x2="5.82" y2="14.64" gradientTransform="matrix(3.888889,0,0,3.927778,0,-44.372222)">
<stop offset="0" style="stop-color:rgb(0,138,240);stop-opacity:1;"/>
<stop offset="0.01" style="stop-color:rgb(0,139,242);stop-opacity:1;"/>
<stop offset="0.35" style="stop-color:rgb(19,154,255);stop-opacity:1;"/>
<stop offset="0.68" style="stop-color:rgb(39,163,255);stop-opacity:1;"/>
<stop offset="1" style="stop-color:rgb(47,166,255);stop-opacity:1;"/>
</linearGradient>
</defs>
<g id="surface1">
<path style=" stroke:none;fill-rule:nonzero;fill:rgb(0,108,188);fill-opacity:1;" d="M 70 35.621094 L 61.753906 43.867188 C 61.683594 45.183594 61.546875 45.976563 61.394531 45.910156 C 61.246094 45.84375 61.113281 44.929688 61.054688 43.554688 L 61.054688 38.890625 C 60.925781 31.125 60.761719 30.976563 60.628906 38.5 L 47.015625 38.5 L 55.496094 46.667969 C 55.628906 58.550781 55.828125 58.550781 55.960938 46.667969 L 58.332031 44.253906 C 58.421875 34.0625 58.566406 30.757813 58.691406 36.082031 C 58.816406 41.40625 58.890625 54.136719 58.878906 67.589844 L 58.878906 76.105469 C 58.878906 101.878906 58.667969 122.773438 58.410156 122.773438 L 50.050781 122.773438 C 49.972656 125.625 49.890625 125.429688 49.816406 122.226563 L 47.40625 119.855469 C 47.40625 119.699219 47.40625 119.542969 47.40625 119.390625 L 45.265625 42.777344 L 45.265625 27.882813 L 52.382813 20.804688 C 52.382813 20.664063 52.382813 20.519531 52.382813 20.378906 L 49.972656 18.003906 C 50.046875 14.804688 50.128906 14.609375 50.207031 17.460938 L 58.722656 17.460938 C 58.984375 19.496094 59.191406 41.546875 59.1875 68.015625 L 59.1875 26.25 C 59.203125 39.703125 59.125 52.433594 59 57.757813 C 58.878906 63.078125 58.734375 59.777344 58.644531 49.582031 L 56.273438 47.210938 C 56.140625 35.328125 55.9375 35.328125 55.804688 47.210938 L 47.132813 32.316406 L 60.472656 32.316406 C 60.605469 39.828125 60.769531 39.664063 60.898438 31.890625 L 60.898438 27.222656 C 60.957031 25.847656 61.089844 24.933594 61.238281 24.867188 C 61.390625 24.800781 61.527344 25.59375 61.601563 26.910156 L 70 35 C 70 35.207031 70 35.414063 70 35.621094 Z "/>
<path style=" stroke:none;fill-rule:nonzero;fill:url(#linear0);" d="M 2.253906 13.261719 L 43.011719 13.261719 C 44.257813 13.261719 45.265625 14.269531 45.265625 15.515625 L 45.265625 54.484375 C 45.265625 55.730469 44.257813 56.738281 43.011719 56.738281 L 2.253906 56.738281 C 1.011719 56.738281 0 55.730469 0 54.484375 L 0 15.515625 C 0 14.269531 1.011719 13.261719 2.253906 13.261719 Z "/>
<path style=" stroke:none;fill-rule:nonzero;fill:rgb(255,255,255);fill-opacity:1;" d="M 9.957031 18.589844 L 18.316406 18.589844 C 18.941406 18.589844 19.445313 19.09375 19.445313 19.714844 L 19.445313 27.609375 C 19.445313 28.234375 18.941406 28.738281 18.316406 28.738281 L 9.957031 28.738281 C 9.332031 28.738281 8.828125 28.234375 8.828125 27.609375 L 8.828125 19.714844 C 8.828125 19.09375 9.332031 18.589844 9.957031 18.589844 Z "/>
<path style=" stroke:none;fill-rule:nonzero;fill:rgb(255,255,255);fill-opacity:1;" d="M 28.039063 30.214844 L 36.398438 30.214844 C 37.023438 30.214844 37.527344 30.722656 37.527344 31.34375 L 37.527344 39.238281 C 37.527344 39.863281 37.023438 40.367188 36.398438 40.367188 L 28.039063 40.367188 C 27.417969 40.367188 26.910156 39.863281 26.910156 39.238281 L 26.910156 31.34375 C 26.910156 30.722656 27.417969 30.214844 28.039063 30.214844 Z "/>
<path style=" stroke:none;fill-rule:nonzero;fill:rgb(255,255,255);fill-opacity:1;" d="M 9.957031 41.261719 L 18.316406 41.261719 C 18.941406 41.261719 19.445313 41.765625 19.445313 42.390625 L 19.445313 50.285156 C 19.445313 50.90625 18.941406 51.410156 18.316406 51.410156 L 9.957031 51.410156 C 9.332031 51.410156 8.828125 50.90625 8.828125 50.285156 L 8.828125 42.390625 C 8.828125 41.765625 9.332031 41.261719 9.957031 41.261719 Z "/>
</g>
</svg>
