<?xml version="1.0" encoding="UTF-8"?>
<svg xmlns="http://www.w3.org/2000/svg" xmlns:xlink="http://www.w3.org/1999/xlink" width="70pt" height="70pt" viewBox="0 0 70 70" version="1.1">
<g id="surface1">
<path style=" stroke:none;fill-rule:nonzero;fill:rgb(0,102,178);fill-opacity:1;" d="M 31.21875 52.21875 C 22.121094 58.519531 7.558594 68.179688 6.160156 69.300781 C 4.339844 81.898438 1.679688 76.300781 0.839844 68.878906 C 0 67.621094 0 64.960938 10.640625 63.699219 C 21.839844 63 30.941406 49.980469 36.820313 45.921875 L 40.179688 49.558594 C 41.71875 51.101563 40.039063 52.21875 40.039063 52.21875 Z M 30.800781 43.398438 C 30.800781 43.398438 14 25.339844 12.039063 23.378906 C 10.21875 21.28125 11.898438 18.898438 20.441406 18.058594 C 30.238281 17.21875 24.359375 15.960938 25.898438 17.5 C 27.441406 19.039063 38.640625 39.199219 40.039063 40.738281 C 41.441406 42.28125 41.300781 44.660156 38.921875 46.339844 C 38.5 49.140625 37.378906 57.539063 35.699219 48.578125 C 35.558594 49.980469 34.859375 55.578125 34.160156 59.78125 C 34.160156 59.78125 35.699219 58.660156 38.359375 57.398438 Z M 42.839844 31.5 C 50.398438 39.621094 62.160156 52.359375 63.421875 53.621094 C 64.960938 55.300781 67.621094 55.300781 68.738281 60.621094 C 69.859375 65.941406 70.421875 57.121094 70.140625 55.441406 C 69.300781 54.460938 53.480469 37.519531 48.71875 32.339844 L 44.660156 35.140625 C 42.699219 46.339844 44.101563 37.800781 44.101563 37.800781 Z M 44.519531 23.238281 C 44.519531 23.238281 64.820313 9.101563 67.058594 7.421875 C 69.300781 5.738281 68.179688 3.078125 69.859375 2.101563 C 71.539063 1.121094 63.980469 -0.839844 62.160156 4.199219 C 60.339844 9.238281 37.800781 17.359375 36.121094 18.621094 C 34.441406 19.878906 34.019531 22.121094 36.121094 24.359375 C 36.398438 29.820313 37.519531 27.019531 39.058594 25.898438 C 46.898438 38.5 40.460938 25.898438 39.058594 24.640625 C 37.660156 24.5 36.679688 24.5 36.679688 24.5 L 41.019531 21.421875 Z "/>
</g>
</svg>
