<?xml version="1.0" encoding="UTF-8"?>
<svg xmlns="http://www.w3.org/2000/svg" xmlns:xlink="http://www.w3.org/1999/xlink" width="70pt" height="70pt" viewBox="0 0 70 70" version="1.1">
<defs>
<linearGradient id="linear0" gradientUnits="userSpaceOnUse" x1="13.119" y1="5.643" x2="11.489" y2="16.919" gradientTransform="matrix(3.888889,0,0,3.888889,0,0)">
<stop offset="0" style="stop-color:rgb(65.098039%,47.843137%,95.686275%);stop-opacity:1;"/>
<stop offset="1" style="stop-color:rgb(46.666667%,22.745098%,86.27451%);stop-opacity:1;"/>
</linearGradient>
</defs>
<g id="surface1">
<path style=" stroke:none;fill-rule:nonzero;fill:rgb(46.666667%,22.745098%,86.27451%);fill-opacity:1;" d="M 19.03125 13.484375 L 23.527344 16.082031 L 11.054688 37.6875 L 6.558594 35.089844 Z "/>
<path style=" stroke:none;fill-rule:nonzero;fill:rgb(46.666667%,22.745098%,86.27451%);fill-opacity:1;" d="M 23.558594 16.496094 L 28.054688 13.898438 L 40.53125 35.503906 L 36.035156 38.101563 Z "/>
<path style=" stroke:none;fill-rule:nonzero;fill:rgb(46.666667%,22.745098%,86.27451%);fill-opacity:1;" d="M 35.824219 38.109375 L 35.824219 43.304688 L 10.878906 43.304688 L 10.878906 38.109375 Z "/>
<path style=" stroke:none;fill-rule:nonzero;fill:rgb(52.54902%,83.921569%,20%);fill-opacity:1;" d="M 30.140625 10.300781 C 30.140625 13.792969 27.308594 16.625 23.816406 16.625 C 20.324219 16.625 17.492188 13.792969 17.492188 10.300781 C 17.492188 6.808594 20.324219 3.976563 23.816406 3.976563 C 27.308594 3.976563 30.140625 6.808594 30.140625 10.300781 Z "/>
<path style=" stroke:none;fill-rule:nonzero;fill:rgb(52.54902%,83.921569%,20%);fill-opacity:1;" d="M 12.648438 41.082031 C 12.648438 44.574219 9.816406 47.40625 6.324219 47.40625 C 2.832031 47.40625 0 44.574219 0 41.082031 C 0 37.589844 2.832031 34.757813 6.324219 34.757813 C 9.816406 34.757813 12.648438 37.589844 12.648438 41.082031 Z "/>
<path style=" stroke:none;fill-rule:nonzero;fill:rgb(100%,100%,100%);fill-opacity:1;" d="M 68.480469 44.132813 C 68.480469 55.566406 59.207031 64.839844 47.769531 64.839844 C 36.335938 64.839844 27.0625 55.566406 27.0625 44.132813 C 27.0625 32.695313 36.335938 23.421875 47.769531 23.421875 C 59.207031 23.421875 68.480469 32.695313 68.480469 44.132813 Z "/>
<path style=" stroke:none;fill-rule:nonzero;fill:rgb(46.666667%,22.745098%,86.27451%);fill-opacity:1;" d="M 38.316406 49.484375 C 38.027344 49.878906 37.734375 49.167969 37.492188 47.496094 L 41.878906 43.113281 C 87.304688 38.558594 124.5 403.113281 124.953125 857.367188 C 125.410156 1311.621094 88.953125 1683.558594 43.527344 1688.113281 L 39.140625 1692.5 C -6.230469 1694.777344 -43.195313 1328.820313 -43.421875 875.113281 C -43.648438 421.410156 -7.054688 51.761719 38.316406 49.484375 Z "/>
<path style=" stroke:none;fill-rule:nonzero;fill:rgb(46.666667%,22.745098%,86.27451%);fill-opacity:1;" d="M 41.558594 52.726563 C 41.265625 53.121094 40.972656 52.410156 40.730469 50.734375 L 45.109375 46.351563 C 90.644531 41.796875 127.925781 407.222656 128.378906 862.550781 C 128.835938 1317.878906 92.292969 1690.6875 46.761719 1695.242188 L 42.390625 52.386719 C 42.125 53.519531 41.828125 53.640625 41.558594 52.726563 Z "/>
<path style=" stroke:none;fill-rule:nonzero;fill:rgb(46.666667%,22.745098%,86.27451%);fill-opacity:1;" d="M 44.765625 55.933594 C 44.476563 56.328125 44.179688 55.621094 43.941406 53.945313 L 48.324219 49.558594 C 93.855469 44.996094 131.136719 410.414063 131.59375 865.742188 C 132.050781 1321.070313 95.507813 1693.886719 49.976563 1698.449219 L 45.59375 55.609375 C 45.332031 56.730469 45.035156 56.84375 44.765625 55.933594 Z "/>
<path style=" stroke:none;fill-rule:nonzero;fill:rgb(46.666667%,22.745098%,86.27451%);fill-opacity:1;" d="M 46.371094 41.433594 C 46.082031 41.828125 45.785156 41.117188 45.546875 39.445313 L 49.933594 35.058594 C 95.464844 30.503906 132.746094 395.929688 133.203125 851.257813 C 133.65625 1306.585938 97.113281 1679.394531 51.582031 1683.945313 L 47.195313 1688.328125 C 1.71875 1690.605469 -35.332031 1323.78125 -35.5625 869.003906 C -35.789063 414.226563 0.894531 43.707031 46.371094 41.433594 Z "/>
<path style=" stroke:none;fill-rule:nonzero;fill:rgb(46.666667%,22.745098%,86.27451%);fill-opacity:1;" d="M 49.609375 44.671875 C 49.320313 45.066406 49.027344 44.359375 48.785156 42.683594 L 53.167969 38.296875 C 98.703125 33.734375 135.984375 399.148438 136.441406 854.476563 C 136.894531 1309.804688 100.355469 1682.621094 54.820313 1687.1875 L 50.4375 44.332031 C 50.175781 45.457031 49.882813 45.578125 49.609375 44.671875 Z "/>
<path style=" stroke:none;fill-rule:nonzero;fill:rgb(46.666667%,22.745098%,86.27451%);fill-opacity:1;" d="M 52.820313 47.878906 C 52.527344 48.273438 52.234375 47.5625 51.996094 45.890625 L 56.390625 41.503906 C 102.027344 36.949219 139.398438 403.246094 139.851563 859.648438 C 140.308594 1316.046875 103.679688 1689.726563 58.039063 1694.28125 L 53.652344 1698.667969 C 8.066406 1700.964844 -29.074219 1333.285156 -29.304688 877.433594 C -29.535156 421.582031 7.234375 50.179688 52.820313 47.878906 Z "/>
<path style=" stroke:none;fill-rule:nonzero;fill:rgb(65.098039%,47.843137%,95.686275%);fill-opacity:1;" d="M 37.410156 46.753906 C 37.191406 44.554688 36.894531 43.320313 36.585938 43.320313 C 36.273438 43.320313 35.976563 44.554688 35.757813 46.753906 L 28.273438 54.238281 C 30.753906 58.90625 34.816406 62.539063 39.734375 64.480469 L 46.613281 57.605469 C 46.617188 57.054688 46.617188 56.5 46.613281 55.949219 Z "/>
<path style=" stroke:none;fill-rule:nonzero;fill:rgb(71.764706%,58.823529%,97.647059%);fill-opacity:1;" d="M 58.226563 24.300781 L 49.699219 32.828125 C 49.695313 33.378906 49.695313 33.933594 49.699219 34.484375 L 58.902344 43.683594 C 59.121094 45.878906 59.417969 47.117188 59.726563 47.117188 C 60.039063 47.117188 60.335938 45.878906 60.554688 43.683594 L 68.46875 35.777344 C 66.53125 30.855469 62.898438 26.785156 58.226563 24.300781 Z "/>
<path style=" stroke:none;fill-rule:nonzero;fill:url(#linear0);" d="M 47.832031 24.636719 C 58.457031 24.636719 67.066406 33.246094 67.066406 43.871094 C 67.066406 54.492188 58.457031 63.105469 47.832031 63.105469 C 37.210938 63.105469 28.597656 54.492188 28.597656 43.871094 C 28.613281 33.253906 37.214844 24.648438 47.832031 24.636719 M 47.832031 21.71875 C 35.589844 21.71875 25.667969 31.644531 25.667969 43.886719 C 25.667969 56.128906 35.589844 66.054688 47.832031 66.054688 C 60.074219 66.054688 70 56.128906 70 43.886719 C 70 31.644531 60.074219 21.71875 47.832031 21.71875 Z "/>
</g>
</svg>
