<?xml version="1.0" encoding="UTF-8"?>
<svg xmlns="http://www.w3.org/2000/svg" xmlns:xlink="http://www.w3.org/1999/xlink" width="70pt" height="70pt" viewBox="0 0 70 70" version="1.1">
<g id="surface1">
<path style=" stroke:none;fill-rule:nonzero;fill:rgb(119,197,255);fill-opacity:1;" d="M 24.65625 44.167969 L 22.21875 2490.277344 C 22.90625 2490.277344 23.460938 1932.808594 23.460938 1245.136719 C 23.460938 557.46875 22.90625 0 22.21875 0 L 2.613281 28.625 C 2.621094 5442.089844 7.015625 9824.164063 12.429688 9816.257813 C 17.84375 9808.351563 22.226563 5413.464844 22.21875 0 L 19.78125 -2.441406 L 39.386719 17.101563 C 39.390625 -4724.109375 35.550781 -8571.449219 30.808594 -8576.171875 C 26.070313 -8580.894531 22.222656 -4741.210938 22.21875 0 Z "/>
<path style=" stroke:none;fill-rule:nonzero;fill:rgb(0,132,230);fill-opacity:1;" d="M 21.855469 7.691406 L 24.296875 2442.136719 C 24.972656 -4267.507813 20.078125 -10253.441406 13.371094 -10927.820313 C 6.660156 -11602.199219 0.675781 -6709.644531 0 0 L 5.039063 31.007813 L 260.554688 28.582031 C 260.5625 -71921.847656 202.242188 -130255.59375 130.292969 -130263.484375 C 58.339844 -130271.378906 0.0078125 -71950.429688 0 0 L 20.300781 7.699219 C 20.300781 -5597.992188 15.757813 -10144.023438 10.152344 -10146.148438 C 4.546875 -10148.277344 0.00390625 -5605.691406 0 0 Z "/>
<path style=" stroke:none;fill-rule:nonzero;fill:rgb(119,197,255);fill-opacity:1;" d="M 64.949219 23.0625 L 67.386719 2469.171875 C 68.070313 -16139.140625 53.535156 -31776.90625 34.929688 -32458.746094 C 16.320313 -33140.589844 0.683594 -18608.3125 0 0 L -18.042969 17.988281 C -18.039063 626.183594 -17.542969 1115.90625 -16.933594 1113.429688 C -16.328125 1110.953125 -15.835938 617.207031 -15.835938 8.996094 C -15.835938 -599.21875 -16.328125 -1092.964844 -16.933594 -1095.441406 C -17.542969 -1097.917969 -18.039063 -608.191406 -18.042969 0 L -20.484375 -2.449219 C -20.484375 670.878906 -19.9375 1217.265625 -19.265625 1217.941406 C -18.589844 1218.617188 -18.046875 673.328125 -18.042969 0 L 1.558594 -19.550781 Z "/>
<path style=" stroke:none;fill-rule:nonzero;fill:rgb(0,132,230);fill-opacity:1;" d="M 67.40625 28.566406 L 64.960938 2466.902344 L 45.699219 2447.585938 C 46.375 -10171.660156 36.691406 -20949.492188 24.074219 -21625.375 C 11.453125 -22301.257813 0.675781 -12619.246094 0 0 L -2.441406 -2.433594 C -2.441406 671.964844 -1.898438 1219.222656 -1.222656 1219.894531 C -0.546875 1220.566406 0 674.402344 0 0 L 17.703125 17.757813 C 17.707031 -4870.578125 13.75 -8837.328125 8.859375 -8842.234375 C 3.972656 -8847.136719 0.00390625 -4888.332031 0 0 Z "/>
<path style=" stroke:none;fill-rule:nonzero;fill:rgb(255,255,255);fill-opacity:1;" d="M 49.734375 40.292969 L 45.378906 40.292969 C 43.78125 43.273438 44.898438 46.984375 47.875 48.582031 C 50.855469 50.183594 54.566406 49.066406 56.167969 46.085938 L 56.167969 50.753906 L 60.511719 46.085938 C 59.246094 1076.628906 57.433594 1078.578125 56.167969 50.753906 L 54.960938 50.753906 C 54.277344 30803.65625 78.652344 56288.355469 109.40625 56972.421875 C 140.160156 57656.488281 165.644531 33280.878906 166.328125 2527.976563 L 167.601563 2527.976563 C 167.179688 2528.027344 166.75 2528.027344 166.328125 2527.976563 Z "/>
<path style=" stroke:none;fill-rule:nonzero;fill:rgb(255,255,255);fill-opacity:1;" d="M 57.097656 44.890625 C 59.960938 45.335938 62.207031 47.582031 62.652344 50.445313 L 62.652344 54.335938 C 62.699219 51.71875 62.699219 53.070313 62.652344 54.335938 L 58.292969 54.335938 C 59.5625 -983.308594 61.386719 -983.308594 62.652344 54.335938 L 61.457031 54.335938 C 61.851563 149.542969 62.261719 149.542969 62.652344 54.335938 L 61.398438 54.335938 C 61.816406 54.285156 62.238281 54.285156 62.652344 54.335938 L 67.003906 54.335938 C 65.617188 54.941406 64.042969 54.941406 62.652344 54.335938 Z "/>
</g>
</svg>
