<?xml version="1.0" encoding="UTF-8"?>
<svg xmlns="http://www.w3.org/2000/svg" xmlns:xlink="http://www.w3.org/1999/xlink" width="70pt" height="70pt" viewBox="0 0 70 70" version="1.1">
<defs>
<linearGradient id="linear0" gradientUnits="userSpaceOnUse" x1="5.055" y1="-1401.772" x2="5.055" y2="-1395.802" gradientTransform="matrix(3.888889,0,0,-3.888889,0,-5411.941111)">
<stop offset="0" style="stop-color:rgb(19.607843%,74.509804%,86.666667%);stop-opacity:1;"/>
<stop offset="0.18" style="stop-color:rgb(19.607843%,79.215686%,91.764706%);stop-opacity:1;"/>
<stop offset="0.41" style="stop-color:rgb(19.607843%,82.352941%,94.901961%);stop-opacity:1;"/>
<stop offset="0.78" style="stop-color:rgb(19.607843%,83.137255%,96.078431%);stop-opacity:1;"/>
</linearGradient>
<linearGradient id="linear1" gradientUnits="userSpaceOnUse" x1="9" y1="-1404.702" x2="9" y2="-1398.732" gradientTransform="matrix(3.888889,0,0,-3.888889,0,-5411.941111)">
<stop offset="0" style="stop-color:rgb(19.607843%,74.509804%,86.666667%);stop-opacity:1;"/>
<stop offset="0.18" style="stop-color:rgb(19.607843%,79.215686%,91.764706%);stop-opacity:1;"/>
<stop offset="0.41" style="stop-color:rgb(19.607843%,82.352941%,94.901961%);stop-opacity:1;"/>
<stop offset="0.78" style="stop-color:rgb(19.607843%,83.137255%,96.078431%);stop-opacity:1;"/>
</linearGradient>
<linearGradient id="linear2" gradientUnits="userSpaceOnUse" x1="12.945" y1="-1407.632" x2="12.945" y2="-1401.662" gradientTransform="matrix(3.888889,0,0,-3.888889,0,-5411.941111)">
<stop offset="0" style="stop-color:rgb(19.607843%,74.509804%,86.666667%);stop-opacity:1;"/>
<stop offset="0.18" style="stop-color:rgb(19.607843%,79.215686%,91.764706%);stop-opacity:1;"/>
<stop offset="0.41" style="stop-color:rgb(19.607843%,82.352941%,94.901961%);stop-opacity:1;"/>
<stop offset="0.78" style="stop-color:rgb(19.607843%,83.137255%,96.078431%);stop-opacity:1;"/>
</linearGradient>
</defs>
<g id="surface1">
<path style=" stroke:none;fill-rule:nonzero;fill:url(#linear0);" d="M 0 16.179688 L 39.316406 16.179688 L 39.316406 38.109375 C 39.316406 111.136719 38.726563 170.332031 37.996094 170.332031 L 1.320313 170.332031 C 0.59375 170.332031 0 111.136719 0 38.109375 Z "/>
<path style=" stroke:none;fill-rule:nonzero;fill:rgb(46.27451%,46.27451%,46.27451%);fill-opacity:1;" d="M 0 7.777344 L 37.996094 7.777344 C 38.726563 7.777344 39.316406 66.976563 39.316406 140 L 39.316406 16.179688 L 0 16.179688 L 0 9.101563 C 0.40625 -14.929688 0.910156 -15.433594 1.320313 7.777344 Z "/>
<path style=" stroke:none;fill-rule:nonzero;fill:rgb(94.901961%,94.901961%,94.901961%);fill-opacity:1;" d="M 5.949219 10.304688 L 33.367188 10.304688 C 33.730469 10.304688 34.027344 10.601563 34.027344 10.964844 L 34.027344 13.027344 C 34.027344 13.394531 33.730469 13.6875 33.367188 13.6875 L 5.949219 13.6875 C 5.585938 13.6875 5.289063 13.394531 5.289063 13.027344 L 5.289063 10.964844 C 5.289063 10.601563 5.585938 10.304688 5.949219 10.304688 Z "/>
<path style=" stroke:none;fill-rule:nonzero;fill:url(#linear1);" d="M 15.320313 27.535156 L 54.679688 27.535156 L 54.679688 49.464844 C 54.679688 122.492188 54.085938 181.6875 53.355469 181.6875 L 16.644531 181.6875 C 16.234375 204.898438 15.730469 204.394531 15.320313 180.367188 Z "/>
<path style=" stroke:none;fill-rule:nonzero;fill:rgb(46.27451%,46.27451%,46.27451%);fill-opacity:1;" d="M 16.644531 19.171875 L 53.316406 19.171875 C 54.046875 19.171875 54.640625 78.371094 54.640625 151.394531 L 54.640625 27.535156 L 15.359375 27.535156 L 15.359375 20.496094 C 15.757813 -2.070313 16.242188 -2.570313 16.644531 19.171875 Z "/>
<path style=" stroke:none;fill-rule:nonzero;fill:rgb(94.901961%,94.901961%,94.901961%);fill-opacity:1;" d="M 21.273438 21.699219 L 48.6875 21.699219 C 49.054688 21.699219 49.351563 21.996094 49.351563 22.359375 L 49.351563 24.421875 C 49.351563 24.789063 49.054688 25.082031 48.6875 25.082031 L 21.273438 25.082031 C 20.90625 25.082031 20.609375 24.789063 20.609375 24.421875 L 20.609375 22.359375 C 20.609375 21.996094 20.90625 21.699219 21.273438 21.699219 Z "/>
<path style=" stroke:none;fill-rule:nonzero;fill:url(#linear2);" d="M 30.683594 38.964844 L 70 38.964844 L 70 60.898438 C 70 133.925781 69.40625 193.121094 68.679688 193.121094 L 32.003906 193.121094 C 31.59375 216.332031 31.089844 215.828125 30.683594 191.800781 Z "/>
<path style=" stroke:none;fill-rule:nonzero;fill:rgb(46.27451%,46.27451%,46.27451%);fill-opacity:1;" d="M 32.003906 30.566406 L 68.679688 30.566406 C 69.089844 7.355469 69.59375 7.859375 70 31.890625 L 70 38.964844 L 30.683594 38.964844 L 30.683594 31.890625 C 31.089844 7.859375 31.59375 7.355469 32.003906 30.566406 Z "/>
<path style=" stroke:none;fill-rule:nonzero;fill:rgb(94.901961%,94.901961%,94.901961%);fill-opacity:1;" d="M 62.378906 49.15625 C 62.378906 50.917969 60.949219 52.34375 59.1875 52.34375 C 57.425781 52.34375 56 50.917969 56 49.15625 C 56 47.394531 57.425781 45.964844 59.1875 45.964844 C 60.949219 45.964844 62.378906 47.394531 62.378906 49.15625 Z "/>
<path style=" stroke:none;fill-rule:nonzero;fill:rgb(94.901961%,94.901961%,94.901961%);fill-opacity:1;" d="M 53.667969 49.15625 C 53.667969 50.917969 52.238281 52.34375 50.476563 52.34375 C 48.714844 52.34375 47.289063 50.917969 47.289063 49.15625 C 47.289063 47.394531 48.714844 45.964844 50.476563 45.964844 C 52.238281 45.964844 53.667969 47.394531 53.667969 49.15625 Z "/>
<path style=" stroke:none;fill-rule:nonzero;fill:rgb(94.901961%,94.901961%,94.901961%);fill-opacity:1;" d="M 44.683594 49.15625 C 44.683594 50.917969 43.253906 52.34375 41.496094 52.34375 C 39.734375 52.34375 38.304688 50.917969 38.304688 49.15625 C 38.304688 47.394531 39.734375 45.964844 41.496094 45.964844 C 43.253906 45.964844 44.683594 47.394531 44.683594 49.15625 Z "/>
<path style=" stroke:none;fill-rule:nonzero;fill:rgb(94.901961%,94.901961%,94.901961%);fill-opacity:1;" d="M 36.632813 33.09375 L 64.050781 33.09375 C 64.414063 33.09375 64.710938 33.390625 64.710938 33.753906 L 64.710938 35.816406 C 64.710938 36.183594 64.414063 36.476563 64.050781 36.476563 L 36.632813 36.476563 C 36.269531 36.476563 35.972656 36.183594 35.972656 35.816406 L 35.972656 33.753906 C 35.972656 33.390625 36.269531 33.09375 36.632813 33.09375 Z "/>
</g>
</svg>
