<?xml version="1.0" encoding="UTF-8"?>
<svg xmlns="http://www.w3.org/2000/svg" xmlns:xlink="http://www.w3.org/1999/xlink" width="70pt" height="70pt" viewBox="0 0 70 70" version="1.1">
<defs>
<linearGradient id="linear0" gradientUnits="userSpaceOnUse" x1="9.01" y1="16.5" x2="9.01" y2="1.5" gradientTransform="matrix(3.888889,0,0,3.888889,0,0)">
<stop offset="0" style="stop-color:rgb(36.862745%,58.823529%,25.490196%);stop-opacity:1;"/>
<stop offset="0.34" style="stop-color:rgb(41.960784%,66.666667%,25.882353%);stop-opacity:1;"/>
<stop offset="0.67" style="stop-color:rgb(45.098039%,71.764706%,26.27451%);stop-opacity:1;"/>
<stop offset="1" style="stop-color:rgb(46.27451%,73.333333%,26.27451%);stop-opacity:1;"/>
</linearGradient>
</defs>
<g id="surface1">
<path style=" stroke:none;fill-rule:nonzero;fill:rgb(100%,79.215686%,0%);fill-opacity:1;" d="M 61.792969 11.316406 L 66.734375 11.316406 C 67.464844 11.316406 68.054688 70.515625 68.054688 143.539063 L 68.054688 157.148438 C 68.054688 230.175781 67.464844 289.371094 66.734375 289.371094 L 61.792969 289.371094 Z "/>
<path style=" stroke:none;fill-rule:nonzero;fill:rgb(100%,79.215686%,0%);fill-opacity:1;" d="M 61.792969 35 L 66.734375 35 C 67.464844 35 68.054688 94.199219 68.054688 167.222656 L 68.054688 190.011719 C 68.054688 263.035156 67.464844 322.234375 66.734375 322.234375 L 61.792969 322.234375 Z "/>
<path style=" stroke:none;fill-rule:nonzero;fill:url(#linear0);" d="M 10.964844 5.832031 L 59.109375 5.832031 C 60.59375 5.832031 61.792969 7.035156 61.792969 8.515625 L 61.792969 61.484375 C 61.792969 62.964844 60.59375 64.167969 59.109375 64.167969 L 10.964844 64.167969 C 9.484375 64.167969 8.285156 62.964844 8.285156 61.484375 L 8.285156 8.515625 C 8.285156 7.035156 9.484375 5.832031 10.964844 5.832031 Z "/>
<path style=" stroke:none;fill-rule:nonzero;fill:rgb(70.588235%,92.54902%,21.176471%);fill-opacity:1;" d="M 22.945313 50.167969 L 20.183594 50.167969 C 19.9375 51.164063 19.660156 50.859375 19.445313 49.351563 L 19.445313 16.878906 C 19.671875 3.4375 19.953125 3.140625 20.183594 16.101563 L 27.6875 16.101563 C 27.933594 5.441406 28.214844 8.710938 28.429688 24.65625 L 110.09375 24.65625 L 20.921875 24.65625 L 20.921875 55.496094 L 22.945313 55.496094 C 25.199219 53.453125 27.191406 70.082031 27.398438 92.632813 C 27.601563 115.183594 25.9375 135.121094 23.683594 137.160156 C 23.242188 133.042969 22.914063 94.421875 22.945313 50.167969 Z "/>
<path style=" stroke:none;fill-rule:nonzero;fill:rgb(70.588235%,92.54902%,21.176471%);fill-opacity:1;" d="M 23.332031 54.132813 L 17.109375 54.132813 C 16.867188 55.132813 16.589844 54.824219 16.371094 53.316406 L 15.867188 13.144531 C 15.941406 12.832031 16.019531 12.632813 16.101563 12.5625 L 15.867188 12.5625 L 27.6875 12.5625 L 27.6875 14.15625 L 17.382813 14.15625 L 17.851563 52.734375 L 23.332031 52.734375 Z "/>
<path style=" stroke:none;fill-rule:nonzero;fill:rgb(70.588235%,92.54902%,21.176471%);fill-opacity:1;" d="M 46.667969 50.554688 L 40.484375 50.554688 C 40.308594 57.398438 40.113281 57.300781 39.9375 50.285156 L 39.394531 50.285156 L 39.9375 30.722656 C 40.167969 17.28125 40.449219 16.984375 40.679688 29.945313 L 37.140625 29.945313 L 37.140625 21.195313 L 35.660156 21.195313 L 35.660156 30.683594 C 37.917969 32.617188 39.585938 52.464844 39.394531 75.015625 C 39.199219 97.566406 37.214844 114.28125 34.960938 112.351563 L 31.421875 112.351563 L 31.421875 129.539063 L 46.667969 129.539063 Z "/>
<path style=" stroke:none;fill-rule:nonzero;fill:rgb(21.176471%,33.72549%,8.235294%);fill-opacity:1;" d="M 28.503906 8.90625 L 50.359375 8.90625 C 50.917969 8.90625 51.371094 9.359375 51.371094 9.917969 L 51.371094 19.988281 C 51.371094 20.546875 50.917969 21 50.359375 21 L 28.503906 21 C 27.945313 21 27.496094 20.546875 27.496094 19.988281 L 27.496094 9.917969 C 27.496094 9.359375 27.945313 8.90625 28.503906 8.90625 Z "/>
<path style=" stroke:none;fill-rule:nonzero;fill:rgb(21.176471%,33.72549%,8.235294%);fill-opacity:1;" d="M 34.417969 42.972656 L 34.417969 60.003906 C 34.417969 60.5625 33.964844 61.015625 33.40625 61.015625 L 31.1875 61.015625 C 30.628906 61.015625 30.179688 60.5625 30.179688 60.003906 L 30.179688 42.972656 C 30.179688 42.414063 30.628906 41.960938 31.1875 41.960938 L 33.40625 41.960938 C 33.964844 41.960938 34.417969 42.414063 34.417969 42.972656 Z "/>
<path style=" stroke:none;fill-rule:nonzero;fill:rgb(21.176471%,33.72549%,8.235294%);fill-opacity:1;" d="M 27.183594 43.050781 L 27.183594 60.082031 C 27.183594 60.640625 26.730469 61.09375 26.171875 61.09375 L 23.957031 61.09375 C 23.398438 61.09375 22.945313 60.640625 22.945313 60.082031 L 22.945313 43.050781 C 22.945313 42.492188 23.398438 42.039063 23.957031 42.039063 L 26.171875 42.039063 C 26.730469 42.039063 27.183594 42.492188 27.183594 43.050781 Z "/>
<path style=" stroke:none;fill-rule:nonzero;fill:rgb(94.901961%,94.901961%,94.901961%);fill-opacity:1;" d="M 50.4375 43.050781 L 50.4375 60.082031 C 50.4375 60.640625 49.984375 61.09375 49.429688 61.09375 L 47.210938 61.09375 C 46.652344 61.09375 46.199219 60.640625 46.199219 60.082031 L 46.199219 43.050781 C 46.199219 42.492188 46.652344 42.039063 47.210938 42.039063 L 49.429688 42.039063 C 49.984375 42.039063 50.4375 42.492188 50.4375 43.050781 Z "/>
<path style=" stroke:none;fill-rule:nonzero;fill:rgb(94.901961%,94.901961%,94.901961%);fill-opacity:1;" d="M 35.582031 31.34375 C 35.582031 28.9375 33.773438 26.988281 31.539063 26.988281 C 29.304688 26.988281 27.496094 28.9375 27.496094 31.34375 C 27.496094 33.75 29.304688 35.699219 31.539063 35.699219 C 33.773438 35.699219 35.582031 33.75 35.582031 31.34375 Z "/>
<path style=" stroke:none;fill-rule:nonzero;fill:rgb(23.137255%,23.137255%,23.137255%);fill-opacity:1;" d="M 10.148438 47.640625 L 3.265625 47.640625 C 2.855469 70.898438 2.351563 70.453125 1.945313 46.472656 L 1.945313 23.683594 C 1.945313 -49.339844 2.535156 -108.539063 3.265625 -108.539063 L 8.207031 -108.539063 L 8.207031 47.640625 Z "/>
</g>
</svg>
