<?xml version="1.0" encoding="UTF-8"?>
<svg xmlns="http://www.w3.org/2000/svg" xmlns:xlink="http://www.w3.org/1999/xlink" width="70pt" height="70pt" viewBox="0 0 70 70" version="1.1">
<defs>
<linearGradient id="linear0" gradientUnits="userSpaceOnUse" x1="7.699" y1="259.22" x2="7.699" y2="263.711" gradientTransform="matrix(3.888889,0,0,3.888889,0,-972.222222)">
<stop offset="0.23" style="stop-color:rgb(36.862745%,62.745098%,93.72549%);stop-opacity:1;"/>
<stop offset="0.32" style="stop-color:rgb(35.686275%,62.352941%,93.333333%);stop-opacity:1;"/>
<stop offset="0.48" style="stop-color:rgb(31.372549%,60.392157%,92.156863%);stop-opacity:1;"/>
<stop offset="0.57" style="stop-color:rgb(24.705882%,57.254902%,90.196078%);stop-opacity:1;"/>
<stop offset="0.75" style="stop-color:rgb(14.901961%,53.333333%,87.45098%);stop-opacity:1;"/>
<stop offset="0.93" style="stop-color:rgb(7.058824%,49.803922%,85.098039%);stop-opacity:1;"/>
</linearGradient>
<linearGradient id="linear1" gradientUnits="userSpaceOnUse" x1="9.927" y1="261.091" x2="9.927" y2="265.582" gradientTransform="matrix(3.888889,0,0,3.888889,0,-972.222222)">
<stop offset="0.02" style="stop-color:rgb(36.862745%,62.745098%,93.72549%);stop-opacity:1;"/>
<stop offset="0.14" style="stop-color:rgb(35.686275%,62.352941%,93.333333%);stop-opacity:1;"/>
<stop offset="0.23" style="stop-color:rgb(35.686275%,62.352941%,93.333333%);stop-opacity:1;"/>
<stop offset="0.34" style="stop-color:rgb(31.372549%,60.392157%,92.156863%);stop-opacity:1;"/>
<stop offset="0.44" style="stop-color:rgb(24.705882%,57.254902%,90.196078%);stop-opacity:1;"/>
<stop offset="0.63" style="stop-color:rgb(14.901961%,53.333333%,87.45098%);stop-opacity:1;"/>
<stop offset="0.93" style="stop-color:rgb(7.058824%,49.803922%,85.098039%);stop-opacity:1;"/>
</linearGradient>
</defs>
<g id="surface1">
<path style=" stroke:none;fill-rule:nonzero;fill:rgb(47.843137%,47.843137%,47.843137%);fill-opacity:1;" d="M 32.089844 9.804688 L 36.453125 9.804688 L 36.453125 37.308594 L 32.089844 37.308594 Z "/>
<path style=" stroke:none;fill-rule:nonzero;fill:rgb(7.843137%,56.470588%,87.45098%);fill-opacity:1;" d="M 40.675781 8.945313 C 108.007813 10.710938 161.15625 66.730469 159.390625 134.0625 C 157.621094 201.394531 101.605469 254.546875 34.273438 252.777344 C -33.058594 251.011719 -86.210938 194.992188 -84.441406 127.660156 C -82.675781 60.328125 -26.660156 7.175781 40.675781 8.945313 Z "/>
<path style=" stroke:none;fill-rule:nonzero;fill:url(#linear0);" d="M 33.398438 35.855469 L 26.398438 35.855469 C 21.871094 35.902344 18.132813 39.398438 17.78125 43.910156 C 17.429688 48.421875 20.582031 52.457031 25.042969 53.203125 C 24.882813 52.125 24.914063 51.027344 25.128906 49.957031 C 22.390625 49.328125 20.5625 46.738281 20.886719 43.945313 C 21.210938 41.152344 23.585938 39.050781 26.398438 39.066406 L 33.398438 39.066406 C 36.453125 39.066406 38.929688 41.542969 38.929688 44.597656 C 38.929688 47.652344 36.453125 50.128906 33.398438 50.128906 L 31.476563 50.128906 C -16.847656 50.019531 -56.109375 89.109375 -56.21875 137.433594 C -56.324219 185.757813 -17.238281 225.019531 31.085938 225.128906 C -370.546875 225.203125 -696.074219 550.855469 -695.996094 952.488281 C -695.921875 1354.121094 -370.269531 1679.648438 31.363281 1679.570313 L 33.414063 1679.570313 C 36.578125 1679.640625 39.53125 1677.988281 41.132813 1675.261719 C 42.734375 1672.53125 42.734375 1669.148438 41.132813 1666.417969 C 39.53125 1663.691406 36.578125 1662.039063 33.414063 1662.105469 Z "/>
<path style=" stroke:none;fill-rule:nonzero;fill:url(#linear1);" d="M 43.484375 43.25 C 412.902344 43.21875 712.398438 342.667969 712.425781 712.085938 C 712.453125 1081.503906 413.003906 1381 43.585938 1381.027344 C 570.863281 1381.078125 998.265625 1808.566406 998.214844 2335.84375 C 998.160156 2863.121094 570.675781 3290.523438 43.394531 3290.46875 C 46.136719 3291.101563 47.964844 3293.6875 47.640625 3296.480469 C 47.316406 3299.273438 44.941406 3301.375 42.132813 3301.359375 L 35.132813 3301.359375 C 32.132813 3301.28125 29.746094 3298.828125 29.746094 3295.828125 C 29.746094 3292.828125 32.132813 3290.375 35.132813 3290.296875 L 33.210938 3290.296875 C 33.46875 3289.75 33.601563 3289.152344 33.601563 3288.550781 C 33.601563 3288.050781 33.507813 3287.558594 33.324219 3287.09375 L 35.144531 3287.09375 C 30.394531 3287.195313 26.59375 3291.074219 26.59375 3295.828125 C 26.59375 3300.578125 30.394531 3304.460938 35.144531 3304.558594 L 42.144531 3304.558594 C 46.667969 3304.511719 50.410156 3301.015625 50.761719 3296.503906 C 51.113281 3291.992188 47.960938 3287.960938 43.496094 3287.210938 Z "/>
<path style=" stroke:none;fill-rule:nonzero;fill:rgb(31.372549%,90.196078%,100%);fill-opacity:1;" d="M 21.699219 64.265625 L 20.097656 1678.152344 C 19.894531 1699.054688 19.613281 1710.835938 19.320313 1710.835938 C 19.027344 1710.835938 18.746094 1699.054688 18.542969 1678.152344 L 0.625 1660.265625 C 0.625 1659.226563 0.625 1658.191406 0.625 1657.152344 L -0.992188 1655.550781 L 18.453125 1674.964844 C 18.453125 1675.472656 18.453125 1675.976563 18.453125 1676.484375 Z "/>
<path style=" stroke:none;fill-rule:nonzero;fill:rgb(7.843137%,56.470588%,87.45098%);fill-opacity:1;" d="M 19.761719 27.300781 L 21.550781 206.1875 C 21.550781 206.707031 21.550781 207.226563 21.550781 207.746094 L 2.429688 49.8125 L 0.636719 48.035156 C 0.636719 47 0.636719 45.960938 0.636719 44.925781 L 18.21875 27.300781 C 18.421875 6.757813 18.703125 -4.792969 18.992188 -4.792969 C 19.28125 -4.792969 19.558594 6.757813 19.761719 27.300781 Z "/>
<path style=" stroke:none;fill-rule:nonzero;fill:rgb(31.372549%,90.196078%,100%);fill-opacity:1;" d="M 48.289063 65.53125 C 48.28125 65.109375 48.273438 64.597656 48.265625 64.007813 L 48.289063 64.007813 L 67.734375 44.605469 L 1687.128906 44.605469 C 1687.128906 45.644531 1687.128906 46.679688 1687.128906 47.714844 L 1669.195313 65.558594 C 1668.78125 490.851563 1668.101563 501.285156 1667.675781 88.890625 L 1667.652344 88.871094 Z "/>
<path style=" stroke:none;fill-rule:nonzero;fill:rgb(7.843137%,56.470588%,87.45098%);fill-opacity:1;" d="M 51.765625 28.578125 L 69.363281 46.21875 C 69.363281 47.246094 69.363281 48.273438 69.363281 49.304688 L 67.570313 228.191406 L 48.433594 31.914063 C 48.433594 31.394531 48.433594 30.875 48.433594 30.355469 L 46.644531 28.582031 C 46.644531 -1385.726563 47.789063 -2532.25 49.203125 -2532.25 C 50.617188 -2532.253906 51.765625 -1385.730469 51.765625 28.578125 Z "/>
</g>
</svg>
