<?xml version="1.0" encoding="UTF-8"?>
<svg xmlns="http://www.w3.org/2000/svg" xmlns:xlink="http://www.w3.org/1999/xlink" width="70pt" height="70pt" viewBox="0 0 70 70" version="1.1">
<defs>
<radialGradient id="radial0" gradientUnits="userSpaceOnUse" cx="-6811.4" cy="6729.69" fx="-6811.4" fy="6729.69" r="17" gradientTransform="matrix(1.944444,0,0,-1.944444,13280.205556,13121.305556)">
<stop offset="0.18" style="stop-color:rgb(41,164,255);stop-opacity:1;"/>
<stop offset="1" style="stop-color:rgb(0,108,188);stop-opacity:1;"/>
</radialGradient>
</defs>
<g id="surface1">
<path style=" stroke:none;fill-rule:nonzero;fill:url(#radial0);" d="M 55.261719 61.132813 C 40.828125 72.324219 20.054688 69.695313 8.867188 55.261719 C -2.324219 40.828125 0.304688 20.054688 14.738281 8.867188 L 15.089844 8.632813 C 29.59375 -2.195313 50.113281 0.660156 61.113281 15.035156 C 72.113281 29.410156 69.503906 49.960938 55.261719 61.132813 "/>
<path style=" stroke:none;fill-rule:nonzero;fill:rgb(41,164,255);fill-opacity:1;" d="M 35 5.09375 C 18.484375 5.09375 5.09375 18.484375 5.09375 35 C 5.09375 51.515625 18.484375 64.90625 35 64.90625 C 51.515625 64.90625 64.90625 51.515625 64.90625 35 C 64.882813 18.492188 51.507813 5.117188 35 5.09375 Z M 55.027344 15.167969 C 52.421875 16.632813 49.597656 17.683594 46.667969 18.277344 C 45.652344 14.527344 44.007813 10.976563 41.804688 7.777344 C 46.808594 8.980469 51.382813 11.535156 55.027344 15.167969 Z M 35 6.765625 C 45.488281 15.453125 47.351563 30.828125 39.238281 41.765625 C 42.082031 45.152344 44.117188 49.144531 45.1875 53.433594 C 38.183594 54.71875 31 54.71875 23.996094 53.433594 C 17.296875 47.136719 14.019531 38.011719 15.183594 28.894531 C 16.34375 19.777344 21.804688 11.765625 29.867188 7.351563 C 31.554688 7 33.273438 6.804688 35 6.765625 Z M 27.222656 7.777344 C 24.992188 10.945313 23.324219 14.46875 22.285156 18.199219 C 19.65625 17.667969 17.152344 16.652344 14.894531 15.207031 C 18.304688 11.71875 22.546875 9.160156 27.222656 7.777344 Z M 14.464844 54.445313 C 16.570313 53.039063 18.917969 52.039063 21.390625 51.488281 C 22.351563 55.351563 24.144531 58.960938 26.640625 62.066406 C 21.992188 60.621094 17.796875 57.992188 14.464844 54.445313 Z M 39.394531 63 C 37.9375 63.195313 36.46875 63.273438 35 63.234375 C 33.117188 63.238281 31.242188 63.042969 29.398438 62.648438 C 26.144531 59.476563 23.886719 55.421875 22.90625 50.984375 C 30.449219 49.445313 38.226563 49.445313 45.773438 50.984375 C 44.769531 55.429688 42.484375 59.488281 39.199219 62.648438 Z M 42.234375 62.378906 C 44.804688 59.1875 46.636719 55.46875 47.601563 51.488281 C 50.351563 52.132813 52.976563 53.226563 55.378906 54.714844 C 51.777344 58.390625 47.226563 60.988281 42.234375 62.222656 Z M 47.988281 49.855469 C 47.679688 48.457031 106.320313 47.015625 55.765625 45.5 L 53.976563 88.277344 C 53.785156 208.832031 53.589844 329.390625 53.316406 442.167969 C 45.503906 440.570313 37.449219 440.570313 29.632813 442.167969 C 29.359375 441.117188 29.167969 439.988281 28.972656 438.820313 C 28.972656 438.707031 28.972656 438.589844 28.972656 438.472656 L 27.183594 437.964844 C 27.160156 438.328125 27.160156 438.691406 27.183594 439.054688 C 27.183594 440.300781 72.371094 508.707031 72.371094 508.707031 C 70.007813 507.132813 67.371094 506.011719 64.59375 505.398438 C 55.730469 494.765625 55.914063 479.269531 65.023438 468.84375 C -27.332031 471.078125 -100.390625 547.757813 -98.15625 640.109375 C -95.921875 732.464844 -19.242188 805.523438 73.109375 803.289063 C 72.839844 896.621094 72.605469 822.734375 72.410156 1098.84375 C 72.214844 1374.957031 72.410156 1099.816406 72.101563 1242.734375 L 73.929688 1242.304688 L 73.929688 1241.644531 C 73.695313 1240.632813 120.59375 1239.660156 147.816406 1238.726563 C 483.996094 1207.574219 731.269531 909.792969 700.117188 573.609375 C 668.964844 237.429688 371.179688 -9.84375 35 21.3125 C 38.628906 21.3125 42.246094 20.972656 45.8125 20.300781 C 45.539063 125.84375 264.367188 350.855469 264.367188 350.855469 L 266.15625 393.632813 C 265.871094 392.234375 265.558594 390.9375 265.222656 389.746094 C 268.375 389.050781 271.394531 387.859375 274.167969 386.207031 C 283.453125 396.722656 283.554688 412.480469 274.398438 423.109375 C 377.503906 360.589844 410.402344 226.324219 347.878906 123.21875 C 285.359375 20.117188 151.09375 -12.78125 47.988281 49.738281 Z "/>
<path style=" stroke:none;fill-rule:nonzero;fill:rgb(255,255,255);fill-opacity:1;" d="M 14.351563 27.222656 C 15.84375 27.007813 17.351563 26.902344 18.859375 26.910156 C 74.703125 25.074219 121.460938 68.855469 123.296875 124.695313 C 125.132813 180.539063 81.351563 227.296875 25.511719 229.132813 C -28.203125 228.5 -71.238281 184.441406 -70.601563 130.726563 C -69.96875 77.007813 -25.910156 33.976563 27.804688 34.609375 C 27.925781 36.972656 27.066406 39.28125 25.433594 40.988281 C 90.941406 42.984375 142.425781 97.710938 140.429688 163.214844 C 138.429688 228.722656 83.707031 280.207031 18.199219 278.210938 C 16.902344 278.21875 15.601563 278.152344 14.3125 278.015625 Z M 12.210938 41.726563 C 12.921875 41.777344 13.636719 41.777344 14.351563 41.726563 C 16.292969 44.832031 20.386719 45.773438 23.488281 43.828125 C 26.59375 41.882813 27.53125 37.792969 25.589844 34.6875 C 25.75 32.910156 25.089844 31.15625 23.792969 29.925781 C 22.496094 28.699219 20.707031 28.132813 18.9375 28.390625 C 18.125 28.308594 17.304688 28.308594 16.488281 28.390625 Z "/>
<path style=" stroke:none;fill-rule:nonzero;fill:rgb(255,255,255);fill-opacity:1;" d="M 30.566406 43.207031 L 30.566406 26.832031 L 32.859375 26.832031 L 38.109375 35 C 39.210938 36.710938 40.195313 38.492188 41.066406 40.328125 C 40.871094 38.148438 40.832031 36.167969 40.832031 33.601563 L 40.832031 26.832031 L 42.777344 26.832031 L 42.777344 43.207031 L 40.640625 43.207031 L 35.503906 35 C 34.378906 33.171875 33.289063 31.109375 32.433594 29.554688 C 32.433594 31.617188 32.433594 33.445313 32.433594 36.320313 L 32.433594 43.320313 Z "/>
<path style=" stroke:none;fill-rule:nonzero;fill:rgb(255,255,255);fill-opacity:1;" d="M 46.238281 40.640625 C 47.421875 41.324219 48.761719 41.6875 50.128906 41.6875 C 52.304688 41.6875 53.550781 40.5625 392.351563 38.890625 C 731.148438 37.214844 391.496094 36.476563 389.277344 35.660156 C 387.0625 34.84375 384.921875 33.328125 384.921875 30.996094 C 385 29.683594 385.613281 28.460938 386.625 27.621094 C 387.632813 26.78125 388.945313 26.398438 390.25 26.5625 C 392.90625 28.195313 394.328125 31.253906 393.867188 34.339844 L 54.445313 29.089844 C 53.492188 28.566406 52.417969 28.300781 51.332031 28.3125 C 49.078125 28.3125 48.222656 160.535156 48.222656 273.3125 C 48.222656 386.089844 49.234375 506.023438 363.222656 277.511719 C 677.210938 49 604.332031 281.710938 368.042969 275.644531 C 131.753906 269.578125 372.75 269.890625 372.75 269.890625 C 371.296875 269.90625 369.863281 269.542969 368.589844 268.839844 Z "/>
</g>
</svg>
