<?xml version="1.0" encoding="UTF-8"?>
<svg xmlns="http://www.w3.org/2000/svg" xmlns:xlink="http://www.w3.org/1999/xlink" width="70pt" height="70pt" viewBox="0 0 70 70" version="1.1">
<defs>
<linearGradient id="linear0" gradientUnits="userSpaceOnUse" x1="9" y1="19.25" x2="9" y2="-0.46" gradientTransform="matrix(3.888889,0,0,3.888889,-0.0137949,-0.00571404)">
<stop offset="0" style="stop-color:rgb(0,138,240);stop-opacity:1;"/>
<stop offset="0.55" style="stop-color:rgb(23,156,255);stop-opacity:1;"/>
<stop offset="1" style="stop-color:rgb(47,166,255);stop-opacity:1;"/>
</linearGradient>
<linearGradient id="linear1" gradientUnits="userSpaceOnUse" x1="7.54" y1="6.44" x2="7.53" y2="5.18" gradientTransform="matrix(3.888889,0,0,3.888889,0,0)">
<stop offset="0" style="stop-color:rgb(153,211,255);stop-opacity:1;"/>
<stop offset="0.12" style="stop-color:rgb(173,220,255);stop-opacity:1;"/>
<stop offset="0.42" style="stop-color:rgb(215,238,255);stop-opacity:1;"/>
<stop offset="0.72" style="stop-color:rgb(241,249,255);stop-opacity:1;"/>
<stop offset="1" style="stop-color:rgb(249,252,255);stop-opacity:1;"/>
</linearGradient>
</defs>
<g id="surface1">
<path style=" stroke:none;fill-rule:nonzero;fill:url(#linear0);" d="M 2.570313 33.433594 L 33.398438 2.605469 C 34.261719 1.742188 35.667969 1.742188 36.53125 2.605469 L 67.359375 33.433594 C 68.222656 34.296875 68.222656 35.703125 67.359375 36.566406 L 36.53125 67.394531 C 35.667969 68.257813 34.261719 68.257813 33.398438 67.394531 L 2.570313 36.566406 C 1.707031 35.703125 1.707031 34.296875 2.570313 33.433594 Z "/>
<path style=" stroke:none;fill-rule:nonzero;fill:rgb(255,255,255);fill-opacity:1;" d="M 42.351563 40.871094 L 53.394531 40.871094 C 53.515625 46.972656 53.660156 46.8125 53.785156 40.445313 L 53.785156 29.4375 C 53.722656 28.070313 53.589844 27.164063 53.441406 27.105469 C 53.292969 27.046875 53.152344 27.847656 53.082031 29.167969 L 50.050781 332.5 L 50.050781 332.695313 C 49.898438 334.175781 49.65625 334.175781 49.503906 332.695313 L 36.011719 19.09375 C 35.859375 17.613281 35.617188 17.613281 35.464844 19.09375 L 32.042969 361.316406 C 32.042969 361.511719 32.042969 361.707031 32.042969 361.898438 L 45.304688 375.160156 C 45.304688 375.355469 45.304688 375.550781 45.304688 375.746094 L 45.109375 395.1875 L 42.078125 698.523438 C 43.894531 706.039063 45.425781 564.914063 45.503906 383.308594 C 45.578125 201.703125 44.167969 48.390625 42.351563 40.871094 Z "/>
<path style=" stroke:none;fill-rule:nonzero;fill:rgb(255,255,255);fill-opacity:1;" d="M 26.910156 40.871094 L 15.867188 40.871094 C 15.765625 44.640625 15.65625 44.488281 15.554688 40.445313 L 15.554688 29.4375 C 15.621094 28.265625 15.742188 27.515625 15.878906 27.460938 C 16.011719 27.402344 16.140625 28.050781 16.214844 29.167969 L 13.144531 332.5 L 13.144531 332.695313 C 13.296875 334.175781 13.539063 334.175781 13.6875 332.695313 L 33.25 19.09375 C 33.402344 17.613281 33.644531 17.613281 33.792969 19.09375 L 37.214844 361.316406 C 37.214844 361.511719 37.214844 361.707031 37.214844 361.898438 L 23.957031 36.359375 C 23.957031 36.554688 23.957031 36.75 23.957031 36.945313 L 23.957031 37.140625 L 330.320313 37.140625 C 330.332031 8415.605469 262.421875 15208.53125 178.636719 15209.5625 C 94.851563 15210.59375 26.921875 8419.339844 26.910156 40.871094 Z "/>
<path style=" stroke:none;fill-rule:nonzero;fill:rgb(255,255,255);fill-opacity:1;" d="M 26.523438 50.828125 L 34.300781 58.605469 C 34.453125 60.085938 34.691406 60.085938 34.84375 58.605469 L 42.621094 50.828125 C 42.542969 50.277344 42.445313 50.042969 42.351563 50.167969 L 37.800781 50.167969 C 37.675781 56.277344 37.53125 56.132813 37.410156 49.777344 L 37.410156 31.109375 C 37.296875 30.28125 37.148438 30.117188 37.023438 30.683594 L 32.199219 30.683594 C 32.066406 23.171875 31.902344 23.335938 31.773438 31.109375 L 31.773438 49.777344 C 31.773438 51.925781 31.597656 53.667969 31.382813 53.667969 L 26.792969 53.667969 C 26.761719 52.296875 26.65625 51.210938 26.523438 50.828125 Z "/>
<path style=" stroke:none;fill-rule:nonzero;fill:rgb(0,108,188);fill-opacity:1;" d="M 41.417969 30.253906 C 36.8125 33.578125 30.402344 32.652344 26.921875 28.167969 C 23.445313 23.683594 24.144531 17.246094 28.503906 13.609375 C 33.132813 10.398438 39.464844 11.390625 42.886719 15.863281 C 46.308594 20.335938 45.609375 26.707031 41.300781 30.332031 "/>
<path style=" stroke:none;fill-rule:nonzero;fill:url(#linear1);" d="M 32.667969 21.582031 C 32.667969 23.453125 31.152344 24.964844 29.285156 24.964844 C 27.414063 24.964844 25.898438 23.453125 25.898438 21.582031 C 25.898438 19.714844 27.414063 18.199219 29.285156 18.199219 C 31.152344 18.199219 32.667969 19.714844 32.667969 21.582031 Z "/>
<path style=" stroke:none;fill-rule:nonzero;fill:rgb(229,243,255);fill-opacity:0.54902;" d="M 25.9375 27.222656 L 26.679688 38.890625 L 27.222656 29.167969 C 27.523438 27.703125 27.964844 26.269531 28.542969 24.890625 L 27.648438 24.890625 C 27.625 25.609375 26.753906 26.386719 25.9375 27.222656 Z "/>
<path style=" stroke:none;fill-rule:nonzero;fill:rgb(229,243,255);fill-opacity:0.54902;" d="M 28.15625 18.394531 C 27.699219 17.230469 27.386719 16.015625 27.222656 14.777344 C -22.175781 14.414063 -62.519531 54.164063 -62.882813 103.5625 C -63.25 152.960938 -23.5 193.300781 25.898438 193.667969 C 74.011719 193.882813 113.183594 155.054688 113.398438 106.945313 C 113.613281 58.835938 74.789063 19.660156 26.679688 19.445313 C 27.082031 18.984375 27.585938 18.625 28.15625 18.394531 Z "/>
<path style=" stroke:none;fill-rule:nonzero;fill:rgb(229,243,255);fill-opacity:0.54902;" d="M 31.773438 23.878906 C 31.273438 76.734375 30.621094 112.183594 29.90625 124.988281 C -14.125 125.484375 -49.417969 161.578125 -48.921875 205.605469 C -48.429688 249.636719 -12.335938 284.925781 31.695313 284.433594 C -10.1875 285.132813 -43.574219 319.648438 -42.875 361.53125 C -42.175781 403.414063 -7.660156 436.796875 34.222656 436.101563 L 34.222656 27.726563 C 34.476563 22.277344 34.742188 21.75 35 26.171875 C 33.820313 25.5625 32.734375 24.792969 31.773438 23.878906 Z "/>
<path style=" stroke:none;fill-rule:nonzero;fill:rgb(229,243,255);fill-opacity:0.54902;" d="M 41.960938 28 C 40.824219 27.992188 39.6875 27.859375 38.578125 27.609375 C 38.578125 84.425781 38.355469 138.992188 37.957031 179.277344 C 29.363281 180.4375 23.339844 188.34375 24.5 196.933594 C 25.660156 205.523438 33.566406 211.546875 42.15625 210.390625 C 42.6875 209.890625 43.167969 209.34375 43.59375 208.753906 Z "/>
<path style=" stroke:none;fill-rule:nonzero;fill:rgb(229,243,255);fill-opacity:1;" d="M 43.710938 22.320313 C 43.710938 23.609375 42.667969 24.65625 41.378906 24.65625 C 40.089844 24.65625 39.042969 23.609375 39.042969 22.320313 C 39.042969 21.035156 40.089844 19.988281 41.378906 19.988281 C 42.667969 19.988281 43.710938 21.035156 43.710938 22.320313 Z "/>
<path style=" stroke:none;fill-rule:nonzero;fill:rgb(229,243,255);fill-opacity:0.54902;" d="M 35.816406 17.1875 C 38.097656 16.097656 40.597656 15.539063 43.128906 15.554688 C 42.605469 14.886719 41.992188 14.296875 41.300781 13.804688 C 3.714844 12.207031 -28.050781 41.378906 -29.652344 78.964844 C -31.253906 116.550781 -2.082031 148.316406 35.503906 149.917969 C 35.117188 149.917969 34.765625 192.695313 34.378906 212.140625 C 33.445313 211.015625 32.625 209.804688 31.929688 208.523438 L 30.605469 259.078125 C 31.300781 260.464844 32.148438 261.769531 33.132813 262.964844 C -26.863281 262.246094 -76.085938 310.300781 -76.804688 370.300781 C -77.523438 430.296875 -29.46875 479.519531 30.527344 480.238281 L 166.640625 493.035156 L 28.660156 515.859375 L 34.417969 482.457031 L 29.285156 482.457031 C -97.339844 478.777344 -199.8125 373.9375 -198.351563 246.070313 C -196.890625 118.203125 -92.050781 15.726563 35.816406 17.1875 Z "/>
<path style=" stroke:none;fill-rule:nonzero;fill:rgb(229,243,255);fill-opacity:0.54902;" d="M 44.917969 23.683594 L 44.214844 23.683594 L 43.828125 23.449219 C 43.578125 31.640625 43.3125 35.582031 43.050781 35.117188 L 43.515625 62.339844 L 43.945313 85.671875 L 45.035156 140.117188 C 45.171875 139.667969 45.289063 139.214844 45.382813 138.753906 Z "/>
<path style=" stroke:none;fill-rule:nonzero;fill:rgb(229,243,255);fill-opacity:1;" d="M 32.667969 21.582031 C 32.667969 23.453125 31.152344 24.964844 29.285156 24.964844 C 27.414063 24.964844 25.898438 23.453125 25.898438 21.582031 C 25.898438 19.714844 27.414063 18.199219 29.285156 18.199219 C 31.152344 18.199219 32.667969 19.714844 32.667969 21.582031 Z "/>
<path style=" stroke:none;fill-rule:nonzero;fill:rgb(229,243,255);fill-opacity:1;" d="M 38.578125 27.726563 C 38.578125 28.929688 37.601563 29.90625 36.398438 29.90625 C 35.195313 29.90625 34.222656 28.929688 34.222656 27.726563 C 34.222656 26.523438 35.195313 25.550781 36.398438 25.550781 C 37.601563 25.550781 38.578125 26.523438 38.578125 27.726563 Z "/>
</g>
</svg>
