<?xml version="1.0" encoding="UTF-8"?>
<svg xmlns="http://www.w3.org/2000/svg" xmlns:xlink="http://www.w3.org/1999/xlink" width="70pt" height="70pt" viewBox="0 0 70 70" version="1.1">
<defs>
<linearGradient id="linear0" gradientUnits="userSpaceOnUse" x1="7.699" y1="956.076" x2="7.699" y2="960.567" gradientTransform="matrix(3.888889,0,0,3.888889,0,-3694.444444)">
<stop offset="0.23" style="stop-color:rgb(36.862745%,62.745098%,93.72549%);stop-opacity:1;"/>
<stop offset="0.93" style="stop-color:rgb(7.058824%,49.803922%,85.098039%);stop-opacity:1;"/>
</linearGradient>
<linearGradient id="linear1" gradientUnits="userSpaceOnUse" x1="9.927" y1="957.947" x2="9.927" y2="962.438" gradientTransform="matrix(3.888889,0,0,3.888889,0,-3694.444444)">
<stop offset="0.02" style="stop-color:rgb(36.862745%,62.745098%,93.72549%);stop-opacity:1;"/>
<stop offset="0.93" style="stop-color:rgb(7.058824%,49.803922%,85.098039%);stop-opacity:1;"/>
</linearGradient>
</defs>
<g id="surface1">
<path style=" stroke:none;fill-rule:nonzero;fill:url(#linear0);" d="M 33.398438 23.628906 L 26.398438 23.628906 C 21.871094 23.675781 18.132813 27.171875 17.78125 31.683594 C 17.429688 36.195313 20.582031 40.230469 25.042969 40.976563 C 24.886719 39.894531 24.921875 38.792969 25.144531 37.722656 C 22.40625 37.09375 20.578125 34.503906 20.902344 31.710938 C 21.226563 28.917969 23.601563 26.816406 26.414063 26.832031 L 33.414063 26.832031 C 36.46875 26.832031 38.941406 29.308594 38.941406 32.363281 C 38.941406 35.417969 36.46875 37.894531 33.414063 37.894531 L 31.476563 37.894531 C -450.699219 37.785156 -841.664063 428.578125 -841.773438 910.753906 C -841.878906 1392.929688 -451.085938 1783.898438 31.085938 1784.003906 C -370.546875 1784.082031 -696.074219 2109.730469 -695.996094 2511.363281 C -695.921875 2913 -370.269531 3238.523438 31.363281 3238.449219 L 33.414063 3238.449219 C 36.578125 3238.515625 39.53125 3236.867188 41.132813 3234.136719 C 42.734375 3231.40625 42.734375 3228.023438 41.132813 3225.296875 C 39.53125 3222.566406 36.578125 3220.917969 33.414063 3220.984375 Z "/>
<path style=" stroke:none;fill-rule:nonzero;fill:url(#linear1);" d="M 43.484375 31.023438 C 413.976563 30.992188 714.339844 331.3125 714.371094 701.804688 C 714.398438 1072.296875 414.078125 1372.660156 43.585938 1372.6875 C 96.207031 1372.742188 138.820313 1415.441406 138.769531 1468.0625 C 138.714844 1520.683594 96.015625 1563.296875 43.394531 1563.242188 C 46.136719 1563.875 47.964844 1566.460938 47.640625 1569.253906 C 47.316406 1572.046875 44.941406 1574.148438 42.132813 1574.132813 L 35.132813 1574.132813 C 32.078125 1574.132813 29.601563 1571.65625 29.601563 1568.601563 C 29.601563 1565.546875 32.078125 1563.074219 35.132813 1563.074219 L 33.210938 1563.074219 C 33.46875 1562.527344 33.601563 1561.929688 33.601563 1561.328125 C 33.601563 1560.828125 33.507813 1560.332031 33.324219 1559.867188 L 35.144531 1559.867188 C 30.394531 1559.96875 26.59375 1563.847656 26.59375 1568.601563 C 26.59375 1573.351563 30.394531 1577.234375 35.144531 1577.332031 L 42.144531 1577.332031 C 46.667969 1577.285156 50.410156 1573.789063 50.761719 1569.277344 C 51.113281 1564.765625 47.960938 1560.734375 43.496094 1559.984375 Z "/>
<path style=" stroke:none;fill-rule:nonzero;fill:rgb(31.372549%,90.196078%,100%);fill-opacity:1;" d="M 21.699219 52.039063 L 20.097656 1669.816406 C 19.890625 1876.902344 19.613281 1993.34375 19.320313 1993.34375 C 19.027344 1993.34375 18.75 1876.902344 18.542969 1669.816406 L 0.636719 35.777344 C 0.636719 34.742188 0.636719 33.703125 0.636719 32.667969 L -2.253906 31.078125 L 17.1875 50.496094 C 17.1875 51.003906 17.1875 51.511719 17.1875 52.019531 Z "/>
<path style=" stroke:none;fill-rule:nonzero;fill:rgb(7.843137%,56.470588%,87.45098%);fill-opacity:1;" d="M 19.761719 15.074219 L 21.550781 193.960938 C 21.550781 194.480469 21.550781 195 21.550781 195.519531 L 2.429688 37.585938 L 637.777344 35.8125 C 637.777344 34.777344 637.777344 33.738281 637.777344 32.703125 L 18.21875 15.074219 C 18.648438 -408.535156 19.335938 -408.535156 19.761719 15.074219 Z "/>
<path style=" stroke:none;fill-rule:nonzero;fill:rgb(31.372549%,90.196078%,100%);fill-opacity:1;" d="M 48.289063 53.304688 C 48.28125 52.882813 48.273438 52.375 48.265625 51.785156 L 48.289063 51.785156 L 67.734375 32.386719 L 1687.125 32.386719 C 1687.125 33.421875 1687.125 34.460938 1687.125 35.496094 L 1669.191406 53.339844 C 1668.996094 258.558594 1668.722656 376.371094 1668.4375 380.75 C 1668.152344 385.128906 1667.875 275.710938 1667.671875 76.671875 L 1667.648438 76.652344 Z "/>
<path style=" stroke:none;fill-rule:nonzero;fill:rgb(7.843137%,56.470588%,87.45098%);fill-opacity:1;" d="M 51.765625 16.351563 L 69.363281 33.992188 C 69.363281 35.019531 69.363281 36.046875 69.363281 37.078125 L 67.570313 215.964844 L 48.433594 19.6875 C 48.433594 19.167969 48.433594 18.648438 48.433594 18.128906 L 46.644531 16.351563 C 46.644531 -1397.957031 47.789063 -2544.480469 49.203125 -2544.480469 C 50.617188 -2544.480469 51.765625 -1397.957031 51.765625 16.351563 Z "/>
</g>
</svg>
