<?xml version="1.0" encoding="UTF-8"?>
<svg xmlns="http://www.w3.org/2000/svg" xmlns:xlink="http://www.w3.org/1999/xlink" width="70pt" height="70pt" viewBox="0 0 70 70" version="1.1">
<defs>
<linearGradient id="linear0" gradientUnits="userSpaceOnUse" x1="9" y1="1.36" x2="9" y2="17.87" gradientTransform="matrix(3.888889,0,0,3.888889,0,0)">
<stop offset="0.18" style="stop-color:rgb(36.862745%,62.745098%,93.72549%);stop-opacity:1;"/>
<stop offset="1" style="stop-color:rgb(0%,47.058824%,83.137255%);stop-opacity:1;"/>
</linearGradient>
</defs>
<g id="surface1">
<path style=" stroke:none;fill-rule:nonzero;fill:rgb(0%,47.058824%,83.137255%);fill-opacity:1;" d="M 63.621094 32.667969 C 63.621094 51.488281 40.871094 66.65625 35.933594 69.726563 C 35.359375 104.765625 34.640625 104.765625 34.066406 69.726563 C 29.128906 66.65625 6.378906 51.488281 6.378906 32.667969 L 6.378906 10.035156 C 6.917969 -21.003906 7.582031 -21.683594 8.128906 8.246094 C 25.820313 7.777344 21.738281 0 35 0 C 48.261719 0 44.179688 7.777344 61.871094 8.246094 C 62.84375 10.359375 63.621094 89.835938 63.621094 187.132813 Z "/>
<path style=" stroke:none;fill-rule:nonzero;fill:url(#linear0);" d="M 61.25 32.859375 C 61.25 50.128906 40.40625 63.972656 35.855469 66.851563 C 35.328125 98.242188 34.671875 98.242188 34.144531 66.851563 C 29.59375 64.050781 8.75 50.128906 8.75 32.859375 L 8.75 12.09375 C 9.242188 -16.117188 9.847656 -16.738281 10.34375 10.460938 C 26.5625 10.035156 22.828125 291.667969 35 2.917969 C 47.171875 -285.832031 43.4375 10.035156 59.65625 10.460938 C 60.542969 12.574219 61.25 85.085938 61.25 173.792969 Z "/>
<path style=" stroke:none;fill-rule:nonzero;fill:rgb(90.196078%,90.196078%,90.196078%);fill-opacity:1;" d="M 45.890625 48.6875 C 45.890625 151.78125 45.054688 235.355469 44.023438 235.355469 L 25.976563 235.355469 C 25.398438 268.125 24.683594 267.414063 24.109375 233.488281 L 24.109375 15.320313 C 24.683594 -18.613281 25.398438 -19.339844 25.976563 13.417969 L 44.023438 13.417969 C 44.523438 13.40625 45.003906 33.605469 45.355469 69.457031 C 45.707031 105.308594 45.898438 153.792969 45.890625 203.972656 Z "/>
<path style=" stroke:none;fill-rule:nonzero;fill:rgb(0%,18.823529%,40.392157%);fill-opacity:1;" d="M 27.222656 19.445313 C 27.902344 14.53125 28.792969 13.640625 29.554688 17.109375 L 40.445313 17.109375 C 41.207031 13.640625 42.097656 14.53125 42.777344 19.445313 C 49.328125 25.886719 54.117188 84.214844 53.472656 149.722656 C 52.828125 215.230469 46.996094 263.109375 40.445313 256.667969 L 29.554688 256.667969 C 23.003906 263.109375 17.171875 215.230469 16.527344 149.722656 C 15.882813 84.214844 20.671875 25.886719 27.222656 19.445313 Z "/>
<path style=" stroke:none;fill-rule:nonzero;fill:rgb(31.372549%,90.196078%,100%);fill-opacity:1;" d="M 31.265625 19.40625 C 31.265625 20.285156 30.554688 21 29.671875 21 C 28.792969 21 28.078125 20.285156 28.078125 19.40625 C 28.078125 18.523438 28.792969 17.8125 29.671875 17.8125 C 30.554688 17.8125 31.265625 18.523438 31.265625 19.40625 Z "/>
<path style=" stroke:none;fill-rule:nonzero;fill:rgb(0%,18.823529%,40.392157%);fill-opacity:1;" d="M 27.222656 26.832031 C 27.941406 -14.800781 28.828125 -15.699219 29.554688 24.460938 L 40.445313 24.460938 C 41.738281 26.585938 42.777344 132.171875 42.777344 261.683594 C 49.328125 268.125 54.117188 326.453125 53.472656 391.960938 C 52.828125 457.46875 46.996094 505.347656 40.445313 498.90625 L 29.554688 498.90625 C 16.519531 505.347656 5.429688 404.894531 4.785156 274.535156 C 4.140625 144.175781 14.1875 33.277344 27.222656 26.832031 Z "/>
<path style=" stroke:none;fill-rule:nonzero;fill:rgb(31.372549%,90.196078%,100%);fill-opacity:1;" d="M 31.265625 26.832031 C 31.265625 27.714844 30.554688 28.429688 29.671875 28.429688 C 28.792969 28.429688 28.078125 27.714844 28.078125 26.832031 C 28.078125 25.953125 28.792969 25.238281 29.671875 25.238281 C 30.554688 25.238281 31.265625 25.953125 31.265625 26.832031 Z "/>
</g>
</svg>
