<?xml version="1.0" encoding="UTF-8"?>
<svg xmlns="http://www.w3.org/2000/svg" xmlns:xlink="http://www.w3.org/1999/xlink" width="70pt" height="70pt" viewBox="0 0 70 70" version="1.1">
<defs>
<linearGradient id="linear0" gradientUnits="userSpaceOnUse" x1="7.688" y1="-26.771" x2="7.688" y2="-21.482" gradientTransform="matrix(3.888889,0,0,3.888889,0,124.444444)">
<stop offset="0.23" style="stop-color:rgb(41,164,255);stop-opacity:1;"/>
<stop offset="0.32" style="stop-color:rgb(39,163,255);stop-opacity:1;"/>
<stop offset="0.48" style="stop-color:rgb(25,157,255);stop-opacity:1;"/>
<stop offset="0.57" style="stop-color:rgb(5,148,255);stop-opacity:1;"/>
<stop offset="0.75" style="stop-color:rgb(0,133,232);stop-opacity:1;"/>
<stop offset="0.93" style="stop-color:rgb(0,119,208);stop-opacity:1;"/>
</linearGradient>
<linearGradient id="linear1" gradientUnits="userSpaceOnUse" x1="10.312" y1="-24.568" x2="10.312" y2="-19.279" gradientTransform="matrix(3.888889,0,0,3.888889,0,124.444444)">
<stop offset="0.2" style="stop-color:rgb(119,197,255);stop-opacity:1;"/>
<stop offset="0.65" style="stop-color:rgb(47,166,255);stop-opacity:1;"/>
<stop offset="1" style="stop-color:rgb(0,124,216);stop-opacity:1;"/>
</linearGradient>
<linearGradient id="linear2" gradientUnits="userSpaceOnUse" x1="9" y1="5.38" x2="9" y2="0" gradientTransform="matrix(3.888889,0,0,3.888889,0,0)">
<stop offset="0.199" style="stop-color:rgb(0,81,142);stop-opacity:1;"/>
<stop offset="1" style="stop-color:rgb(0,108,188);stop-opacity:1;"/>
</linearGradient>
</defs>
<g id="surface1">
<path style=" stroke:none;fill-rule:nonzero;fill:url(#linear0);" d="M 33.972656 20.335938 L 25.746094 20.335938 C 20.402344 20.371094 15.980469 24.492188 15.566406 29.816406 C 15.148438 35.140625 18.878906 39.898438 24.148438 40.761719 C 23.960938 39.492188 23.996094 38.203125 24.253906 36.945313 C 21.007813 36.222656 18.832031 33.160156 19.214844 29.855469 C 19.597656 26.550781 22.417969 24.070313 25.746094 24.109375 L 33.972656 24.109375 C 37.570313 24.109375 40.488281 27.027344 40.488281 30.625 C 40.488281 34.222656 37.570313 37.140625 33.972656 37.140625 L 31.710938 37.140625 C -536.375 37.003906 -997.007813 497.421875 -997.140625 1065.507813 C -997.273438 1633.59375 -536.859375 2094.226563 31.226563 2094.359375 C -442.355469 2094.453125 -826.199219 2478.441406 -826.109375 2952.023438 C -826.019531 3425.609375 -442.03125 3809.453125 31.554688 3809.359375 L 33.972656 3809.359375 C 39.574219 3809.253906 44.058594 3804.679688 44.058594 3799.078125 C 44.058594 3793.472656 39.574219 3788.902344 33.972656 3788.792969 Z "/>
<path style=" stroke:none;fill-rule:nonzero;fill:url(#linear1);" d="M 45.851563 29.042969 C 480.773438 29.007813 833.378906 381.558594 833.410156 816.480469 C 833.445313 1251.40625 480.894531 1604.007813 45.96875 1604.042969 C 665.601563 1604.105469 1167.863281 2106.464844 1167.800781 2726.097656 C 1167.738281 3345.730469 665.378906 3847.992188 45.746094 3847.929688 C 48.976563 3848.667969 51.136719 3851.722656 50.753906 3855.015625 C 50.371094 3858.308594 47.570313 3860.785156 44.253906 3860.765625 L 36.027344 3860.765625 C 32.429688 3860.765625 29.511719 3857.847656 29.511719 3854.25 C 29.511719 3850.652344 32.429688 3847.738281 36.027344 3847.738281 L 33.761719 3847.738281 C 34.347656 3846.558594 34.402344 3845.1875 33.917969 3843.964844 L 36.027344 3843.964844 C 30.425781 3844.074219 25.941406 3848.644531 25.941406 3854.25 C 25.941406 3859.851563 30.425781 3864.425781 36.027344 3864.53125 L 44.253906 3864.53125 C 49.597656 3864.496094 54.019531 3860.375 54.433594 3855.050781 C 54.851563 3849.726563 51.121094 3844.96875 45.851563 3844.105469 Z "/>
<path style=" stroke:none;fill-rule:nonzero;fill:rgb(0,108,188);fill-opacity:1;" d="M 35 -0.0976563 L 4.472656 17.363281 L 4.472656 52.246094 L 35 69.902344 L 65.527344 52.441406 L 65.527344 17.441406 Z M 59.890625 48.785156 L 35 63.175781 L 10.109375 48.9375 L 10.109375 20.824219 L 35 6.4375 L 59.890625 20.863281 Z "/>
<path style=" stroke:none;fill-rule:nonzero;fill:url(#linear2);" d="M 35 0 L 4.472656 17.460938 L 10.109375 20.921875 L 35 6.535156 L 59.890625 20.921875 L 65.527344 17.460938 Z "/>
</g>
</svg>
