<?xml version="1.0" encoding="UTF-8"?>
<svg xmlns="http://www.w3.org/2000/svg" xmlns:xlink="http://www.w3.org/1999/xlink" width="70pt" height="70pt" viewBox="0 0 70 70" version="1.1">
<g id="surface1">
<path style=" stroke:none;fill-rule:nonzero;fill:rgb(119,197,255);fill-opacity:1;" d="M 24.65625 52.015625 L 22.222656 2498.125 C 22.910156 2498.125 23.46875 1938.902344 23.46875 1249.0625 C 23.46875 559.222656 22.910156 0 22.222656 0 L 2.617188 36.476563 C 2.628906 5449.941406 7.023438 9830.257813 12.4375 9820.183594 C 17.851563 9810.109375 22.230469 5413.464844 22.222656 0 L 19.785156 -2.445313 L 39.386719 17.101563 C 39.382813 4757.242188 35.535156 8596.050781 30.796875 8591.328125 C 26.054688 8586.605469 22.214844 4740.136719 22.222656 0 Z "/>
<path style=" stroke:none;fill-rule:nonzero;fill:rgb(0,132,230);fill-opacity:1;" d="M 21.855469 15.539063 L 24.292969 2449.984375 C 24.96875 -4258.585938 20.082031 -10245.40625 13.371094 -10921.953125 C 6.664063 -11598.496094 0.675781 -6708.574219 0 0 L 5.035156 38.851563 L 2.601563 36.421875 C 3.382813 -515.960938 3.71875 -1508.003906 3.433594 -2421.394531 C 3.152344 -3334.78125 2.3125 -3962.027344 1.355469 -3975.417969 C 0.402344 -3988.804688 -0.457031 -3385.292969 -0.765625 -2480.195313 C -1.074219 -1575.101563 -0.765625 -574.023438 0 0 L 20.300781 15.550781 C 20.304688 -5590.136719 15.761719 -10137.929688 10.15625 -10142.222656 C 4.550781 -10146.519531 0.00390625 -5605.691406 0 0 Z "/>
<path style=" stroke:none;fill-rule:nonzero;fill:rgb(119,197,255);fill-opacity:1;" d="M 64.953125 30.90625 L 67.390625 2477.015625 C 68.074219 864808.300781 767.6875 1563311.433594 1630.019531 1562627.425781 C 2492.347656 1561943.417969 3190.851563 862331.28125 3190.167969 0 L 3172.128906 17.988281 C 3172.132813 626.183594 3172.628906 1115.90625 3173.238281 1113.429688 C 3173.84375 1110.953125 3174.335938 617.207031 3174.335938 8.996094 C 3174.335938 -599.21875 3173.84375 -1092.964844 3173.238281 -1095.441406 C 3172.628906 -1097.917969 3172.132813 -608.191406 3172.128906 0 L 3169.6875 -2.449219 C 3169.6875 670.878906 3170.234375 1217.265625 3170.90625 1217.941406 C 3171.582031 1218.617188 3172.128906 673.328125 3172.128906 0 L 3191.730469 -19.550781 Z "/>
<path style=" stroke:none;fill-rule:nonzero;fill:rgb(0,132,230);fill-opacity:1;" d="M 67.40625 36.414063 L 64.960938 2474.75 L 45.699219 2455.433594 C 46.375 -10163.8125 36.695313 -20943.402344 24.078125 -21621.449219 C 11.457031 -22299.5 0.679688 -12619.246094 0 0 L -2.441406 -2.433594 C -2.441406 671.964844 -1.898438 1219.222656 -1.222656 1219.894531 C -0.546875 1220.566406 0 674.402344 0 0 L 17.703125 17.757813 C 17.707031 -4870.578125 13.75 -8837.328125 8.859375 -8842.234375 C 3.972656 -8847.136719 0.00390625 -4888.332031 0 0 Z "/>
</g>
</svg>
