<?xml version="1.0" encoding="UTF-8"?>
<svg xmlns="http://www.w3.org/2000/svg" xmlns:xlink="http://www.w3.org/1999/xlink" width="70pt" height="70pt" viewBox="0 0 70 70" version="1.1">
<defs>
<linearGradient id="linear0" gradientUnits="userSpaceOnUse" x1="8.11" y1="6.45" x2="8.11" y2="18.2" gradientTransform="matrix(3.888889,0,0,3.888889,0,0)">
<stop offset="0.22" style="stop-color:rgb(19.607843%,83.137255%,96.078431%);stop-opacity:1;"/>
<stop offset="1" style="stop-color:rgb(9.803922%,54.117647%,70.196078%);stop-opacity:1;"/>
</linearGradient>
<linearGradient id="linear1" gradientUnits="userSpaceOnUse" x1="7.78" y1="0.15" x2="8.64" y2="10.82" gradientTransform="matrix(3.888889,0,0,3.888889,0,0)">
<stop offset="0.22" style="stop-color:rgb(19.607843%,83.137255%,96.078431%);stop-opacity:1;"/>
<stop offset="1" style="stop-color:rgb(9.803922%,54.117647%,70.196078%);stop-opacity:1;"/>
</linearGradient>
<linearGradient id="linear2" gradientUnits="userSpaceOnUse" x1="13.49" y1="17.15" x2="13.49" y2="9.35" gradientTransform="matrix(3.888889,0,0,3.888889,0,0)">
<stop offset="0" style="stop-color:rgb(9.803922%,53.333333%,85.098039%);stop-opacity:1;"/>
<stop offset="0.9" style="stop-color:rgb(32.941176%,68.235294%,94.117647%);stop-opacity:1;"/>
</linearGradient>
</defs>
<g id="surface1">
<path style=" stroke:none;fill-rule:nonzero;fill:url(#linear0);" d="M 54.171875 62.535156 C 56.863281 62.535156 59.050781 60.363281 59.070313 57.671875 L 58.488281 57.671875 C 57.167969 42.117188 48.378906 29.75 31.851563 29.75 C 15.320313 29.75 5.753906 39.785156 3.890625 57.128906 C 3.640625 59.816406 5.597656 62.207031 8.285156 62.496094 L 54.171875 62.496094 Z "/>
<path style=" stroke:none;fill-rule:nonzero;fill:rgb(100%,100%,100%);fill-opacity:0.8;" d="M 31.617188 32.820313 C 28.675781 32.804688 25.796875 31.941406 23.332031 30.332031 L 31.5 51.957031 L 39.746094 30.488281 C 37.300781 32.003906 34.488281 32.808594 31.617188 32.820313 Z "/>
<path style=" stroke:none;fill-rule:nonzero;fill:url(#linear1);" d="M 47.054688 17.382813 C 47.054688 25.910156 40.144531 32.820313 31.617188 32.820313 C 23.089844 32.820313 16.179688 25.910156 16.179688 17.382813 C 16.179688 8.855469 23.089844 1.945313 31.617188 1.945313 C 40.144531 1.945313 47.054688 8.855469 47.054688 17.382813 Z "/>
<path style=" stroke:none;fill-rule:nonzero;fill:rgb(0%,35.686275%,63.137255%);fill-opacity:1;" d="M 66.109375 50.554688 C 66.109375 59.421875 55.378906 66.578125 53.042969 68.054688 C 52.765625 83.273438 52.429688 83.273438 52.148438 68.054688 C 49.660156 66.460938 38.890625 59.304688 38.890625 50.554688 L 38.890625 39.746094 C 39.140625 25.644531 39.449219 25.324219 39.707031 38.890625 C 48.066406 38.65625 46.160156 35 52.421875 35 C 58.683594 35 56.738281 400.554688 65.101563 38.890625 C 65.558594 40.96875 65.917969 78.671875 65.917969 124.445313 Z "/>
<path style=" stroke:none;fill-rule:nonzero;fill:url(#linear2);" d="M 64.828125 50.554688 C 64.828125 58.722656 54.988281 65.292969 52.851563 66.617188 C 52.601563 68.160156 52.285156 68.160156 52.035156 66.617188 C 49.894531 65.292969 40.054688 58.839844 40.054688 50.554688 L 40.054688 40.714844 C 40.28125 27.277344 40.5625 26.980469 40.792969 39.9375 C 48.570313 39.9375 46.707031 36.359375 52.460938 36.359375 C 58.214844 36.359375 56.351563 39.746094 64.128906 39.9375 C 64.371094 29.058594 64.652344 32.03125 64.867188 47.714844 Z "/>
</g>
</svg>
