<?xml version="1.0" encoding="UTF-8"?>
<svg xmlns="http://www.w3.org/2000/svg" xmlns:xlink="http://www.w3.org/1999/xlink" width="70pt" height="70pt" viewBox="0 0 70 70" version="1.1">
<defs>
<linearGradient id="linear0" gradientUnits="userSpaceOnUse" x1="9" y1="17.86" x2="9" y2="4.06" gradientTransform="matrix(3.888889,0,0,3.888889,0,0)">
<stop offset="0" style="stop-color:rgb(0%,47.058824%,83.137255%);stop-opacity:1;"/>
<stop offset="0.16" style="stop-color:rgb(7.45098%,50.196078%,85.490196%);stop-opacity:1;"/>
<stop offset="0.53" style="stop-color:rgb(23.529412%,56.862745%,89.803922%);stop-opacity:1;"/>
<stop offset="0.82" style="stop-color:rgb(33.333333%,61.176471%,92.54902%);stop-opacity:1;"/>
<stop offset="1" style="stop-color:rgb(36.862745%,62.745098%,93.72549%);stop-opacity:1;"/>
</linearGradient>
</defs>
<g id="surface1">
<path style=" stroke:none;fill-rule:nonzero;fill:url(#linear0);" d="M 64.75 66.421875 L 50.789063 30.179688 C 50.472656 13.363281 50.09375 13.101563 49.777344 29.476563 L 39.820313 29.476563 L 39.820313 20.84375 C 39.988281 18.941406 39.066406 17.101563 37.441406 16.097656 C 35.8125 15.09375 33.757813 15.09375 32.132813 16.097656 C 30.503906 17.101563 29.582031 18.941406 29.75 20.84375 L 29.75 29.476563 L 20.765625 29.476563 C 20.308594 29.214844 19.890625 56.914063 19.714844 99.476563 L 5.25 66.421875 C 4.957031 129.625 4.988281 203.199219 5.335938 263.589844 C 5.683594 323.976563 6.304688 363.59375 7 369.753906 L 63 369.753906 C 63.695313 363.59375 64.316406 323.976563 64.664063 263.589844 C 65.011719 203.199219 65.042969 129.625 64.75 66.421875 Z "/>
<path style=" stroke:none;fill-rule:nonzero;fill:rgb(51.372549%,72.54902%,97.647059%);fill-opacity:1;" d="M 13.105469 46.667969 L 46.667969 29.476563 L 49.582031 29.476563 C 50.058594 28.660156 50.480469 58.527344 50.632813 103.367188 L 53.859375 111.726563 L 7 62.222656 Z "/>
<path style=" stroke:none;fill-rule:nonzero;fill:rgb(51.372549%,72.54902%,97.647059%);fill-opacity:1;" d="M 37.101563 69.378906 L 60.433594 55.378906 L 64.671875 66.421875 C 64.949219 130.332031 64.902344 203.625 64.550781 263.613281 C 64.195313 323.605469 63.578125 363.058594 62.882813 369.753906 Z "/>
<path style=" stroke:none;fill-rule:nonzero;fill:rgb(0%,47.058824%,83.137255%);fill-opacity:1;" d="M 34.496094 62.222656 L 18.472656 9.917969 C 18.277344 21.128906 18.160156 41.933594 18.160156 64.359375 L 18.160156 65.800781 C 18.160156 100.164063 18.441406 128.023438 18.785156 128.023438 L 21.195313 128.023438 L 21.195313 29.476563 L 24.226563 29.476563 L 24.226563 12.523438 L 45.382813 12.523438 L 45.382813 29.476563 L 48.378906 29.476563 L 48.378906 12.523438 L 50.828125 12.523438 C 51.019531 23.445313 51.257813 23.207031 51.449219 11.898438 L 51.449219 10.460938 C 51.347656 7.648438 51.242188 7.460938 51.140625 9.917969 L 35 0.621094 C 34.742188 11.574219 34.550781 34.613281 34.496094 62.222656 Z "/>
</g>
</svg>
