<?xml version="1.0" encoding="UTF-8"?>
<svg xmlns="http://www.w3.org/2000/svg" xmlns:xlink="http://www.w3.org/1999/xlink" width="70pt" height="70pt" viewBox="0 0 70 70" version="1.1">
<defs>
<linearGradient id="linear0" gradientUnits="userSpaceOnUse" x1="9" y1="2.95" x2="9" y2="6.34" gradientTransform="matrix(3.888889,0,0,3.888889,0,0)">
<stop offset="0" style="stop-color:rgb(97,187,255);stop-opacity:1;"/>
<stop offset="1" style="stop-color:rgb(0,111,194);stop-opacity:1;"/>
</linearGradient>
<linearGradient id="linear1" gradientUnits="userSpaceOnUse" x1="8.99" y1="6.76" x2="8.99" y2="9.22" gradientTransform="matrix(3.888889,0,0,3.888889,0,0)">
<stop offset="0" style="stop-color:rgb(53,169,255);stop-opacity:1;"/>
<stop offset="1" style="stop-color:rgb(0,127,222);stop-opacity:1;"/>
</linearGradient>
</defs>
<g id="surface1">
<path style=" stroke:none;fill-rule:nonzero;fill:rgb(41,164,255);fill-opacity:1;" d="M 53.238281 43.632813 L 47.40625 30.800781 L 35 16.332031 L 22.515625 30.761719 L 16.644531 43.554688 L 18.707031 44.527344 L 23.488281 34.105469 L 28.195313 44.527344 L 30.292969 43.59375 L 24.851563 31.578125 L 35 19.832031 L 45.109375 31.617188 L 39.589844 43.59375 L 41.648438 44.566406 L 46.433594 34.183594 L 51.140625 44.605469 Z "/>
<path style=" stroke:none;fill-rule:nonzero;fill:url(#linear0);" d="M 41.570313 18.082031 C 41.570313 21.714844 38.628906 24.65625 35 24.65625 C 31.371094 24.65625 28.429688 21.714844 28.429688 18.082031 C 28.429688 14.453125 31.371094 11.511719 35 11.511719 C 38.628906 11.511719 41.570313 14.453125 41.570313 18.082031 Z "/>
<path style=" stroke:none;fill-rule:nonzero;fill:url(#linear1);" d="M 23.332031 26.289063 C 25.28125 26.210938 27.082031 27.320313 27.882813 29.09375 C 28.6875 30.867188 28.335938 32.953125 26.992188 34.367188 C 25.648438 35.777344 23.585938 36.234375 21.773438 35.519531 C 19.960938 34.800781 18.761719 33.058594 18.746094 31.109375 C 18.722656 28.527344 20.753906 26.394531 23.332031 26.289063 Z M 41.6875 31.109375 C 41.6875 33.730469 43.8125 35.855469 46.433594 35.855469 C 48.375 35.871094 50.132813 34.710938 50.882813 32.921875 C 51.632813 31.128906 51.226563 29.0625 49.855469 27.691406 C 48.480469 26.316406 46.414063 25.910156 44.625 26.660156 C 42.832031 27.410156 41.671875 29.167969 41.6875 31.109375 Z "/>
<path style=" stroke:none;fill-rule:nonzero;fill:rgb(45,165,255);fill-opacity:1;" d="M 21.429688 44.023438 C 21.429688 46.105469 19.738281 47.792969 17.65625 47.792969 C 15.570313 47.792969 13.882813 46.105469 13.882813 44.023438 C 13.882813 41.9375 15.570313 40.25 17.65625 40.25 C 19.738281 40.25 21.429688 41.9375 21.429688 44.023438 Z "/>
<path style=" stroke:none;fill-rule:nonzero;fill:rgb(45,165,255);fill-opacity:1;" d="M 33.015625 44.0625 C 33.015625 46.144531 31.328125 47.832031 29.246094 47.832031 C 27.160156 47.832031 25.472656 46.144531 25.472656 44.0625 C 25.472656 41.976563 27.160156 40.289063 29.246094 40.289063 C 31.328125 40.289063 33.015625 41.976563 33.015625 44.0625 Z "/>
<path style=" stroke:none;fill-rule:nonzero;fill:rgb(45,165,255);fill-opacity:1;" d="M 44.371094 44.101563 C 44.371094 46.183594 42.683594 47.871094 40.601563 47.871094 C 38.515625 47.871094 36.828125 46.183594 36.828125 44.101563 C 36.828125 42.015625 38.515625 40.328125 40.601563 40.328125 C 42.683594 40.328125 44.371094 42.015625 44.371094 44.101563 Z "/>
<path style=" stroke:none;fill-rule:nonzero;fill:rgb(45,165,255);fill-opacity:1;" d="M 55.960938 44.140625 C 55.960938 46.222656 54.273438 47.910156 52.1875 47.910156 C 50.105469 47.910156 48.417969 46.222656 48.417969 44.140625 C 48.417969 42.054688 50.105469 40.367188 52.1875 40.367188 C 54.273438 40.367188 55.960938 42.054688 55.960938 44.140625 Z "/>
<path style=" stroke:none;fill-rule:nonzero;fill:rgb(41,164,255);fill-opacity:1;" d="M 0 59.1875 C -0.00390625 81.617188 0.117188 102.417969 0.3125 113.632813 L 6.726563 62.222656 L 14.503906 66.65625 C 14.765625 88.121094 15.140625 88.023438 15.398438 66.421875 L 17.773438 62.222656 C 17.695313 60.367188 17.617188 60.078125 17.539063 61.367188 L 8.632813 56.039063 C 8.53125 58.496094 8.421875 58.308594 8.320313 55.496094 L 8.320313 14.503906 C 8.421875 11.691406 8.53125 11.503906 8.632813 13.960938 L 17.539063 8.789063 C 17.617188 10.027344 17.695313 9.683594 17.773438 7.777344 L 15.246094 346.109375 C 15.046875 316.953125 14.664063 306.964844 14.351563 322.777344 L 6.882813 7.542969 L 2.253906 34.765625 C 2.0625 45.980469 1.941406 66.78125 1.945313 89.210938 L 1.945313 59.1875 Z "/>
<path style=" stroke:none;fill-rule:nonzero;fill:rgb(71,176,255);fill-opacity:1;" d="M 17.773438 7.777344 L 15.246094 346.109375 C 15.101563 324.148438 14.84375 312.132813 14.582031 315 L 14.273438 315 L 6.804688 7.542969 L 2.179688 34.765625 C 2.101563 34.527344 2.019531 34.527344 1.945313 34.765625 C 1.945313 34.871094 1.945313 34.972656 1.945313 35.078125 L 8.320313 38.964844 C 8.421875 36.152344 8.53125 35.964844 8.632813 38.421875 L 17.539063 8.789063 C 17.617188 10.027344 17.695313 9.683594 17.773438 7.777344 Z "/>
<path style=" stroke:none;fill-rule:nonzero;fill:rgb(71,176,255);fill-opacity:1;" d="M 17.773438 62.222656 L 15.246094 66.695313 C 15.101563 88.832031 14.84375 101.039063 14.582031 98.273438 L 6.804688 62.457031 L 2.179688 59.734375 C 2.101563 59.972656 2.019531 59.972656 1.945313 59.734375 C 1.945313 59.628906 1.945313 59.527344 1.945313 59.421875 L 8.320313 55.535156 C 8.320313 77.960938 8.4375 98.765625 8.632813 109.976563 L 17.539063 115.148438 C 17.523438 94.746094 17.613281 74.957031 17.773438 62.222656 Z "/>
<path style=" stroke:none;fill-rule:nonzero;fill:rgb(41,164,255);fill-opacity:1;" d="M 68.054688 10.8125 C 67.953125 7.996094 67.847656 7.808594 67.746094 10.265625 L 63.273438 7.777344 L 55.496094 3.34375 C 55.179688 -12.46875 54.796875 -2.480469 54.601563 26.679688 L 52.226563 7.777344 C 52.132813 21.882813 52.101563 39.476563 52.148438 55.929688 C 52.191406 72.386719 52.308594 86.050781 52.460938 93.332031 L 61.367188 98.503906 C 61.5625 109.71875 61.679688 130.519531 61.679688 152.949219 L 61.679688 55.496094 C 61.679688 77.921875 61.5625 98.726563 61.367188 109.9375 L 52.460938 115.109375 C 52.308594 122.390625 52.191406 136.058594 52.148438 152.511719 C 52.101563 168.96875 52.132813 186.5625 52.226563 200.667969 L 54.753906 205.140625 C 54.953125 234.296875 55.335938 244.285156 55.648438 228.472656 L 63.117188 224.15625 L 67.746094 221.433594 C 67.847656 223.890625 67.953125 223.703125 68.054688 220.890625 Z "/>
<path style=" stroke:none;fill-rule:nonzero;fill:rgb(71,176,255);fill-opacity:1;" d="M 52.226563 62.222656 L 54.753906 66.695313 C 54.898438 88.65625 55.15625 100.671875 55.417969 97.804688 L 55.726563 97.804688 L 63.195313 93.488281 L 67.820313 90.765625 C 67.898438 91.003906 67.980469 91.003906 68.054688 90.765625 C 68.054688 90.664063 68.054688 90.558594 68.054688 90.457031 L 61.679688 86.566406 C 61.679688 108.996094 61.5625 129.796875 61.367188 141.011719 L 52.460938 146.183594 C 52.550781 132.1875 52.578125 115.007813 52.53125 98.96875 C 52.488281 82.929688 52.378906 69.558594 52.226563 62.222656 Z "/>
<path style=" stroke:none;fill-rule:nonzero;fill:rgb(71,176,255);fill-opacity:1;" d="M 52.226563 7.777344 L 54.753906 346.109375 C 54.960938 334.953125 55.210938 334.835938 55.417969 345.800781 L 62.882813 350.117188 L 67.511719 377.339844 C 67.585938 377.101563 67.667969 377.101563 67.746094 377.339844 C 67.746094 377.441406 67.746094 377.546875 67.746094 377.648438 L 61.367188 381.539063 C 61.265625 378.726563 61.15625 378.539063 61.054688 380.996094 L 52.460938 8.789063 C 52.382813 9.925781 52.304688 9.585938 52.226563 7.777344 Z "/>
</g>
</svg>
