<?xml version="1.0" encoding="UTF-8"?>
<svg xmlns="http://www.w3.org/2000/svg" xmlns:xlink="http://www.w3.org/1999/xlink" width="70pt" height="70pt" viewBox="0 0 70 70" version="1.1">
<defs>
<linearGradient id="linear0" gradientUnits="userSpaceOnUse" x1="9" y1="17.198" x2="9" y2="-3.282" gradientTransform="matrix(3.888889,0,0,3.888889,0,0)">
<stop offset="0" style="stop-color:rgb(36.862745%,58.823529%,14.117647%);stop-opacity:1;"/>
<stop offset="0.183" style="stop-color:rgb(38.431373%,61.176471%,14.509804%);stop-opacity:1;"/>
<stop offset="0.435" style="stop-color:rgb(42.745098%,68.235294%,16.470588%);stop-opacity:1;"/>
<stop offset="0.726" style="stop-color:rgb(49.803922%,79.607843%,18.823529%);stop-opacity:1;"/>
<stop offset="0.822" style="stop-color:rgb(52.54902%,83.921569%,20%);stop-opacity:1;"/>
</linearGradient>
</defs>
<g id="surface1">
<path style=" stroke:none;fill-rule:nonzero;fill:url(#linear0);" d="M 68.054688 9.722656 L 68.054688 51.847656 C 68.050781 1302.480469 67.035156 2313.445313 65.785156 2311.292969 L 48.222656 2311.292969 C 47.917969 2311.285156 47.671875 2556.160156 47.671875 2859.625 L 47.671875 61.445313 C 47.667969 479.785156 47.429688 860.566406 47.050781 1045.019531 C 46.675781 1229.472656 46.230469 1185.933594 45.898438 932.554688 L 35.308594 54.222656 C 35.195313 19.554688 35.078125 19.511719 34.96875 54.105469 L 4.214844 54.105469 C 3.511719 459.90625 2.648438 459.042969 1.945313 51.847656 L 1.945313 9.722656 C 2.648438 -396.671875 3.511719 -397.535156 4.214844 7.457031 L 65.785156 7.457031 C 66.488281 -397.535156 67.351563 -396.671875 68.054688 9.722656 Z "/>
<path style=" stroke:none;fill-rule:nonzero;fill:rgb(94.901961%,94.901961%,94.901961%);fill-opacity:1;" d="M 41.890625 30.554688 C 40.304688 29.074219 38.414063 27.960938 36.351563 27.292969 L 36.351563 21.210938 C 525.089844 19.828125 922.410156 414.910156 923.789063 903.644531 C 925.171875 1392.382813 530.089844 1789.703125 41.355469 1791.082031 L 41.355469 1791.507813 L 40.964844 1791.507813 L 41.355469 17.71875 C 41.285156 15.710938 41.207031 15.578125 41.136719 17.328125 C 39.433594 16.519531 37.578125 16.089844 35.691406 16.066406 L 35.691406 13.191406 C 35.5625 5.417969 35.398438 5.253906 35.265625 12.761719 L 33.300781 12.761719 C 33.0625 12.761719 32.871094 31.914063 32.871094 55.542969 L 32.871094 58.519531 C -626.492188 57.109375 -1162.160156 590.488281 -1163.570313 1249.855469 C -1164.980469 1909.222656 -631.601563 2444.886719 27.765625 2446.296875 C 696.742188 2445.699219 1238.570313 1902.90625 1237.972656 1233.929688 C 1237.375 564.953125 694.582031 23.125 25.605469 23.722656 C 25.523438 25.539063 26.160156 27.3125 27.371094 28.664063 C -870.398438 30.183594 -1596.953125 759.203125 -1595.433594 1656.972656 C -1593.914063 2554.742188 -864.898438 3281.296875 32.871094 3279.777344 L 32.871094 37.722656 C 31.808594 37.582031 30.765625 37.320313 29.761719 36.945313 C 28.699219 36.617188 27.695313 36.113281 26.792969 35.457031 L 372.90625 35.457031 L 26.792969 40.832031 C 26.871094 62.617188 26.949219 63.960938 27.023438 44.722656 C -444.414063 46.53125 -825.121094 430.171875 -823.3125 901.609375 C -821.5 1373.046875 -437.859375 1753.753906 33.578125 1751.945313 L 33.578125 1755.34375 C 33.578125 1992.234375 33.765625 2184.875 34.003906 2187.011719 L 36.628906 2187.011719 C 36.761719 2262.5 36.925781 2262.335938 37.058594 2186.578125 L 37.058594 42.777344 C 38.792969 42.457031 40.398438 41.644531 41.6875 40.445313 C 43.039063 39.085938 43.765625 37.226563 43.6875 35.316406 C 43.738281 33.554688 43.09375 31.84375 41.890625 30.554688 Z M 38.0625 35.523438 L 38.0625 35.554688 C 43.753906 40.257813 47.984375 90.210938 47.515625 147.128906 C 47.042969 204.042969 42.046875 246.371094 36.355469 241.667969 L 36.355469 237.390625 C 37.472656 33.964844 38.046875 34.695313 38.0625 35.523438 Z M 31.238281 23.421875 C 31.757813 -210.824219 32.351563 -211.582031 32.871094 21.339844 L 32.871094 25.816406 C 32.339844 185.960938 31.773438 185.128906 31.238281 23.421875 Z "/>
</g>
</svg>
