<?xml version="1.0" encoding="UTF-8"?>
<svg xmlns="http://www.w3.org/2000/svg" xmlns:xlink="http://www.w3.org/1999/xlink" width="70pt" height="70pt" viewBox="0 0 70 70" version="1.1">
<defs>
<linearGradient id="linear0" gradientUnits="userSpaceOnUse" x1="-6941.93" y1="-2082.96" x2="-6941.93" y2="-2101.68" gradientTransform="matrix(1.944444,0,0,-1.944444,13519.333333,-4018.972222)">
<stop offset="0" style="stop-color:rgb(36.862745%,62.745098%,93.72549%);stop-opacity:1;"/>
<stop offset="0.18" style="stop-color:rgb(34.509804%,61.960784%,92.941176%);stop-opacity:1;"/>
<stop offset="0.41" style="stop-color:rgb(28.235294%,59.215686%,91.372549%);stop-opacity:1;"/>
<stop offset="0.66" style="stop-color:rgb(18.039216%,54.901961%,88.235294%);stop-opacity:1;"/>
<stop offset="0.94" style="stop-color:rgb(3.921569%,48.627451%,84.313725%);stop-opacity:1;"/>
<stop offset="1" style="stop-color:rgb(0%,47.058824%,83.137255%);stop-opacity:1;"/>
</linearGradient>
<linearGradient id="linear1" gradientUnits="userSpaceOnUse" x1="11.5" y1="12.45" x2="11.5" y2="0.55" gradientTransform="matrix(3.888889,0,0,3.888889,0,0)">
<stop offset="0" style="stop-color:rgb(9.803922%,54.117647%,70.196078%);stop-opacity:1;"/>
<stop offset="0.24" style="stop-color:rgb(13.333333%,64.705882%,79.607843%);stop-opacity:1;"/>
<stop offset="0.53" style="stop-color:rgb(16.862745%,74.901961%,88.627451%);stop-opacity:1;"/>
<stop offset="0.79" style="stop-color:rgb(18.823529%,81.176471%,94.117647%);stop-opacity:1;"/>
<stop offset="1" style="stop-color:rgb(19.607843%,83.137255%,96.078431%);stop-opacity:1;"/>
</linearGradient>
</defs>
<g id="surface1">
<path style=" stroke:none;fill-rule:nonzero;fill:url(#linear0);" d="M 21.738281 51.0625 L 38.539063 51.0625 L 38.539063 66.109375 C 38.539063 76.851563 37.667969 85.554688 36.59375 85.554688 L 21.738281 85.554688 Z M 4.472656 67.859375 L 18.9375 67.859375 L 18.9375 51.0625 L 2.140625 51.0625 L 2.140625 65.527344 C 2.816406 70.441406 3.710938 71.332031 4.472656 67.859375 Z M 2.140625 48.417969 L 18.9375 48.417969 L 18.9375 31.460938 L 4.082031 31.460938 C 3.007813 31.460938 2.140625 40.167969 2.140625 50.90625 Z "/>
<path style=" stroke:none;fill-rule:evenodd;fill:url(#linear1);" d="M 44.722656 213.890625 C 50.914063 213.824219 56.863281 216.269531 61.222656 220.664063 C 65.582031 225.058594 67.976563 231.03125 67.859375 237.222656 C 67.925781 243.378906 65.507813 249.300781 61.152344 253.652344 C 56.800781 258.007813 50.878906 260.425781 44.722656 260.359375 L 21.582031 260.359375 L 21.582031 25.277344 C 73.667969 18.886719 121.070313 55.929688 127.457031 108.015625 C 133.847656 160.097656 96.804688 207.5 44.722656 213.890625 Z "/>
<path style=" stroke:none;fill-rule:nonzero;fill:rgb(100%,100%,100%);fill-opacity:1;" d="M 58.957031 12.601563 C 56.808594 12.601563 55.066406 14.339844 55.066406 16.488281 C -11.515625 16.726563 -65.296875 70.890625 -65.0625 137.472656 C -64.824219 204.054688 -10.660156 257.835938 55.921875 257.601563 L 49.429688 30.527344 L 48.921875 30.527344 C 31.738281 29.957031 17.351563 43.425781 16.78125 60.609375 C 16.210938 77.789063 29.679688 92.179688 46.859375 92.75 L 41.84375 26.015625 C 42.046875 25.535156 42.15625 25.019531 42.15625 24.5 C 42.15625 22.296875 40.371094 20.515625 38.167969 20.515625 C 35.96875 20.515625 34.183594 22.296875 34.183594 24.5 C -17.363281 24.640625 -59.035156 66.539063 -58.898438 118.085938 C -58.757813 169.632813 -16.859375 211.304688 34.6875 211.167969 L 30.140625 32.355469 C 29.777344 32.316406 29.410156 32.316406 29.050781 32.355469 C 26.902344 32.355469 25.160156 34.097656 25.160156 36.246094 C 25.160156 38.390625 26.902344 40.132813 29.050781 40.132813 C 31.199219 40.132813 32.9375 38.390625 32.9375 36.246094 C 32.921875 35.601563 32.75 34.976563 32.433594 34.417969 L 37.214844 28.390625 C 37.539063 28.429688 37.867188 28.429688 38.1875 28.390625 C 38.671875 28.367188 39.144531 28.261719 39.589844 28.078125 L 45.070313 33.832031 C 45.054688 34.066406 45.054688 34.300781 45.070313 34.535156 C 45.070313 36.679688 46.8125 38.421875 48.960938 38.421875 C 51.109375 38.421875 52.851563 36.679688 52.851563 34.535156 C 52.824219 33.695313 52.554688 32.886719 52.070313 32.199219 L 58.566406 20.535156 L 58.179688 20.535156 C 60.324219 20.535156 62.066406 18.792969 62.066406 16.644531 C 62.183594 14.710938 60.855469 12.984375 58.957031 12.601563 Z "/>
</g>
</svg>
