<?xml version="1.0" encoding="UTF-8"?>
<svg xmlns="http://www.w3.org/2000/svg" xmlns:xlink="http://www.w3.org/1999/xlink" width="70pt" height="70pt" viewBox="0 0 70 70" version="1.1">
<defs>
<linearGradient id="linear0" gradientUnits="userSpaceOnUse" x1="6050.2" y1="-3638.83" x2="6038.28" y2="-3638.83" gradientTransform="matrix(0.000000000000000238,3.888889,-3.888889,0.000000000000000238,-14116.005556,-23467.927778)">
<stop offset="0" style="stop-color:rgb(0,124,216);stop-opacity:1;"/>
<stop offset="0" style="stop-color:rgb(0,124,216);stop-opacity:1;"/>
<stop offset="0.11" style="stop-color:rgb(3,148,255);stop-opacity:1;"/>
<stop offset="0.23" style="stop-color:rgb(37,162,255);stop-opacity:1;"/>
<stop offset="0.37" style="stop-color:rgb(61,172,255);stop-opacity:1;"/>
<stop offset="0.53" style="stop-color:rgb(73,177,255);stop-opacity:1;"/>
<stop offset="0.78" style="stop-color:rgb(79,180,255);stop-opacity:1;"/>
</linearGradient>
</defs>
<g id="surface1">
<path style=" stroke:none;fill-rule:nonzero;fill:rgb(0,124,216);fill-opacity:1;" d="M 58.957031 52.539063 C 61.34375 52.300781 63.714844 53.136719 65.429688 54.816406 C 67.140625 56.5 68.019531 58.855469 67.820313 61.25 C 67.507813 63.902344 65.777344 66.175781 63.304688 67.183594 C 60.832031 68.195313 58.003906 67.785156 55.921875 66.109375 C 55.585938 72.023438 55.242188 71.308594 54.910156 64.011719 L 54.910156 52.5 Z "/>
<path style=" stroke:none;fill-rule:nonzero;fill:url(#linear0);" d="M 68.015625 52.5 L 68.015625 17.5 C 67.972656 12.613281 64 8.671875 59.109375 8.671875 L 1.984375 8.671875 L 1.984375 43.671875 C 1.984375 48.589844 5.96875 52.578125 10.890625 52.578125 L 49.464844 52.578125 C 53.351563 52.351563 57.246094 52.351563 61.132813 52.578125 C 68.910156 53.820313 67.511719 62.183594 67.511719 62.183594 C 68.042969 58.984375 68.210938 55.738281 68.015625 52.5 Z "/>
<path style=" stroke:none;fill-rule:nonzero;fill:rgb(0,124,216);fill-opacity:1;" d="M 0 44.410156 L 0 44.140625 C 0.414063 41.34375 2.4375 39.050781 5.164063 38.296875 C 7.886719 37.539063 10.800781 38.457031 12.601563 40.640625 L 12.015625 40.640625 L 12.601563 10.226563 C 12.640625 9.851563 12.640625 9.476563 12.601563 9.101563 C 11.976563 5.679688 8.996094 3.195313 5.523438 3.195313 C 2.046875 3.195313 -0.933594 5.679688 -1.554688 9.101563 C -1.554688 9.476563 -1.554688 9.851563 -1.554688 10.226563 Z "/>
<path style=" stroke:none;fill-rule:nonzero;fill:rgb(255,255,255);fill-opacity:1;" d="M 47.988281 32.976563 C 47.652344 13.1875 47.238281 12.773438 46.898438 31.890625 L 43.011719 31.890625 C 42.777344 31.34375 42.582031 30.761719 42.351563 30.214844 C 41.496094 28 40.5625 25.785156 39.667969 23.605469 L 39.355469 22.867188 C 41.964844 22.183594 43.664063 19.664063 43.316406 16.988281 C 42.972656 14.3125 40.691406 12.308594 37.996094 12.308594 C 35.296875 12.308594 33.015625 14.3125 32.671875 16.988281 C 32.328125 19.664063 34.023438 22.183594 36.632813 22.867188 L 36.285156 30.644531 C 35.3125 248.421875 34.378906 35.039063 33.445313 37.253906 L 32.746094 208.367188 L 28.855469 208.367188 C 28.566406 208.367188 28.285156 219.980469 28.082031 240.628906 C 27.878906 261.277344 27.765625 289.246094 27.765625 318.304688 L 136.65625 318.304688 L 30.878906 318.304688 C 30.488281 411.640625 30.140625 504.972656 29.789063 598.304688 C 28.933594 823.859375 28.117188 602.816406 27.339844 605.109375 C 27.136719 650.214844 27.335938 703.320313 27.785156 723.722656 C 28.238281 744.125 28.769531 724.101563 28.972656 679 C 30.179688 676.898438 52.304688 674.761719 371.195313 672.660156 C 441.195313 671.339844 507.304688 670.015625 573.417969 668.773438 L 578.316406 668.773438 L 580.183594 672.660156 C 581.273438 888.726563 584.460938 1003.214844 586.5625 1003.214844 C 586.707031 1035.375 587.027344 1055.984375 587.378906 1055.832031 C 587.734375 1055.679688 588.050781 1034.796875 588.195313 1002.515625 C 587.496094 1000.222656 586.714844 997.964844 585.9375 995.710938 L 584.890625 992.871094 L 582.011719 992.871094 C 584.660156 -13753.746094 467.265625 -25923.117188 319.800781 -26188.1875 C 172.332031 -26453.253906 50.640625 -14713.640625 47.988281 32.976563 Z M 35 17.65625 C 35 -156.3125 36.410156 -297.34375 38.148438 -297.34375 C 39.890625 -297.34375 41.300781 -156.3125 41.300781 17.65625 C 41.300781 191.625 39.890625 332.65625 38.148438 332.65625 C 36.410156 332.65625 35 191.625 35 17.65625 Z M 36.671875 31.890625 L 36.671875 31.617188 L 165.003906 28.816406 L 292.523438 28.816406 Z "/>
</g>
</svg>
