<?xml version="1.0" encoding="UTF-8"?>
<svg xmlns="http://www.w3.org/2000/svg" xmlns:xlink="http://www.w3.org/1999/xlink" width="70pt" height="70pt" viewBox="0 0 70 70" version="1.1">
<g id="surface1">
<path style=" stroke:none;fill-rule:nonzero;fill:rgb(41,164,255);fill-opacity:1;" d="M 0 58.644531 C -0.00390625 81.074219 0.117188 101.875 0.3125 113.089844 L 4.820313 365.867188 L 14.390625 66.109375 C 14.640625 89.273438 15.03125 89.171875 15.285156 65.878906 L 12.714844 61.523438 C 12.640625 59.78125 12.5625 59.503906 12.484375 60.707031 L 3.539063 55.648438 C 3.4375 57.945313 3.328125 57.757813 3.226563 55.105469 L 3.226563 14.972656 C 3.328125 12.160156 3.4375 11.972656 3.539063 14.429688 L 12.484375 9.371094 C 12.5625 10.574219 12.640625 10.296875 12.714844 8.554688 L 15.285156 4.199219 C 15.03125 -19.117188 14.644531 -19.253906 14.390625 3.890625 L 6.921875 8.207031 L 2.253906 268.761719 C 2.0625 279.976563 1.941406 300.777344 1.945313 323.207031 L 1.945313 58.644531 Z "/>
<path style=" stroke:none;fill-rule:nonzero;fill:rgb(71,176,255);fill-opacity:1;" d="M 8.320313 14.660156 L 8.554688 14.429688 L 17.5 9.371094 C 17.578125 10.789063 17.65625 10.511719 17.734375 8.554688 L 15.167969 4.199219 C 15.058594 -7.746094 14.902344 -14.570313 14.738281 -14.628906 C 14.578125 -14.6875 14.421875 -7.976563 14.3125 3.890625 L 6.804688 8.207031 L 217.777344 10.8125 C 217.777344 10.8125 217.582031 10.8125 217.542969 34.144531 L 221.042969 232.476563 Z "/>
<path style=" stroke:none;fill-rule:nonzero;fill:rgb(71,176,255);fill-opacity:1;" d="M 17.5 60.628906 L 8.554688 55.570313 C 8.464844 56.910156 8.375 56.792969 8.285156 55.222656 L 1.984375 59.109375 L 2.179688 59.109375 L 6.648438 311.890625 L 14.429688 316.207031 C 14.539063 328.082031 14.695313 334.808594 14.855469 334.761719 C 15.019531 334.71875 15.171875 327.910156 15.285156 315.972656 L 12.714844 311.617188 C 13.410156 443.703125 15.042969 494.597656 16.363281 425.289063 C 17.683594 355.980469 18.191406 192.714844 17.5 60.628906 Z "/>
<path style=" stroke:none;fill-rule:nonzero;fill:rgb(41,164,255);fill-opacity:1;" d="M 68.054688 58.644531 C 68.058594 81.074219 67.9375 101.875 67.746094 113.089844 L 63.234375 365.867188 L 55.609375 66.109375 C 55.359375 89.273438 54.96875 89.171875 54.714844 65.878906 L 52.148438 61.523438 C 52.226563 59.78125 52.304688 59.503906 52.382813 60.707031 L 61.328125 55.648438 C 61.429688 57.945313 61.535156 57.757813 61.640625 55.105469 L 61.640625 14.972656 C 61.539063 12.160156 61.429688 11.972656 61.328125 14.429688 L 52.382813 9.371094 C 52.304688 10.574219 52.226563 10.296875 52.148438 8.554688 L 49.582031 4.199219 C 49.582031 -162.253906 50.929688 -297.257813 52.59375 -297.34375 C 54.261719 -297.429688 55.609375 -162.5625 55.609375 3.890625 L 63.078125 8.128906 L 67.746094 268.683594 C 67.9375 279.898438 68.058594 300.699219 68.054688 323.128906 Z "/>
<path style=" stroke:none;fill-rule:nonzero;fill:rgb(71,176,255);fill-opacity:1;" d="M 61.679688 14.660156 L 61.445313 14.429688 L 52.5 9.371094 C 52.421875 10.789063 52.34375 10.511719 52.265625 8.554688 L 49.699219 4.199219 C 49.699219 -161.179688 51.039063 -295.3125 52.691406 -295.398438 C 54.347656 -295.484375 55.6875 -161.488281 55.6875 3.890625 L 63.195313 8.128906 L 67.820313 268.683594 C 67.820313 268.683594 67.820313 268.683594 68.054688 292.015625 L 64.554688 490.351563 Z "/>
<path style=" stroke:none;fill-rule:nonzero;fill:rgb(71,176,255);fill-opacity:1;" d="M 52.5 60.628906 L 61.445313 55.570313 C 61.535156 56.910156 61.625 56.792969 61.714844 55.222656 L 68.015625 59.109375 L 63.542969 311.890625 L 55.765625 316.207031 C 55.65625 328.082031 55.5 334.808594 55.339844 334.761719 C 55.175781 334.71875 55.019531 327.910156 54.910156 315.972656 L 52.34375 311.617188 C 51.652344 307.320313 51.125 247.652344 51.167969 178.34375 C 51.210938 109.035156 51.808594 56.332031 52.5 60.628906 Z "/>
<path style=" stroke:none;fill-rule:nonzero;fill:rgb(47,166,255);fill-opacity:1;" d="M 55.648438 23.0625 L 55.648438 46.9375 L 34.960938 58.957031 L 34.960938 35.039063 Z "/>
<path style=" stroke:none;fill-rule:nonzero;fill:rgb(171,219,255);fill-opacity:1;" d="M 55.648438 23.0625 L 35 35.078125 L 14.3125 23.0625 L 35 11.042969 Z "/>
<path style=" stroke:none;fill-rule:nonzero;fill:rgb(119,197,255);fill-opacity:1;" d="M 34.960938 35.078125 L 34.960938 58.957031 L 14.3125 46.9375 L 14.3125 23.0625 Z "/>
<path style=" stroke:none;fill-rule:nonzero;fill:rgb(171,219,255);fill-opacity:1;" d="M 14.3125 46.9375 L 34.960938 35.039063 L 34.960938 58.957031 Z "/>
<path style=" stroke:none;fill-rule:nonzero;fill:rgb(119,197,255);fill-opacity:1;" d="M 55.648438 46.9375 L 34.960938 35.039063 L 34.960938 58.957031 Z "/>
</g>
</svg>
