<?xml version="1.0" encoding="UTF-8"?>
<svg xmlns="http://www.w3.org/2000/svg" xmlns:xlink="http://www.w3.org/1999/xlink" width="70pt" height="70pt" viewBox="0 0 70 70" version="1.1">
<defs>
<radialGradient id="radial0" gradientUnits="userSpaceOnUse" cx="-36.63" cy="17.12" fx="-36.63" fy="17.12" r="11.18" gradientTransform="matrix(3.655556,0,0,3.655556,162.866667,-28.777778)">
<stop offset="0.27" style="stop-color:rgb(100%,84.313725%,5.882353%);stop-opacity:1;"/>
<stop offset="0.49" style="stop-color:rgb(100%,79.607843%,7.058824%);stop-opacity:1;"/>
<stop offset="0.88" style="stop-color:rgb(99.607843%,67.45098%,9.803922%);stop-opacity:1;"/>
<stop offset="1" style="stop-color:rgb(99.607843%,63.137255%,10.588235%);stop-opacity:1;"/>
</radialGradient>
</defs>
<g id="surface1">
<path style=" stroke:none;fill-rule:nonzero;fill:url(#radial0);" d="M 52.734375 27.960938 C 54.246094 26.449219 55.097656 24.402344 55.097656 22.265625 C 55.097656 20.125 54.246094 18.078125 52.734375 16.566406 L 38.890625 2.683594 C 37.386719 1.171875 35.34375 0.324219 33.210938 0.324219 C 31.078125 0.324219 29.035156 1.171875 27.535156 2.683594 L 13.6875 16.566406 C 10.582031 19.730469 10.582031 24.796875 13.6875 27.960938 L 25.355469 39.628906 C 25.769531 82.589844 26.003906 139.507813 26.015625 199.070313 L 26.015625 220.539063 C 26.007813 227.796875 26.285156 234.796875 26.792969 239.984375 L 32.042969 245.234375 C 32.375 280.953125 32.839844 301.257813 33.328125 301.257813 C 33.816406 301.257813 34.28125 280.953125 34.609375 245.234375 L 39.707031 240.140625 L 42.699219 237.144531 C 42.699219 236.652344 42.699219 236.160156 42.699219 235.667969 L 40.5625 233.488281 C 40.5625 232.945313 40.5625 232.398438 40.5625 231.855469 L 38.421875 229.679688 C 38.421875 229.183594 38.421875 228.691406 38.421875 228.199219 L 40.445313 50.554688 C 40.445313 50.023438 40.445313 49.492188 40.445313 48.960938 L 42.777344 46.667969 C 42.777344 46.175781 42.777344 45.679688 42.777344 45.1875 L 39.785156 42.15625 L 39.785156 41.066406 Z M 33.289063 6.027344 C 35.816406 6.050781 37.851563 8.113281 37.839844 10.640625 C 37.824219 13.171875 35.765625 15.210938 33.238281 15.207031 C 30.707031 15.199219 28.660156 13.144531 28.660156 10.617188 C 28.652344 9.402344 29.125 8.234375 29.980469 7.375 C 30.835938 6.511719 31.996094 6.027344 33.210938 6.027344 Z "/>
<path style=" stroke:none;fill-rule:nonzero;fill:rgb(100%,57.647059%,0%);fill-opacity:0.74902;" d="M 29.632813 63.039063 C 29.820313 84.535156 30.089844 96.824219 30.375 96.667969 C 30.660156 96.507813 30.925781 83.925781 31.109375 62.222656 L 31.109375 44.917969 C 30.96875 41.699219 30.824219 41.40625 30.683594 44.0625 C 30.378906 23.339844 29.980469 21.703125 29.660156 39.839844 C 29.339844 57.976563 29.148438 92.753906 29.167969 129.617188 L 29.167969 62.222656 C 29.320313 65.992188 29.480469 66.269531 29.632813 63.039063 Z "/>
<path style=" stroke:none;fill-rule:nonzero;fill:rgb(100%,57.647059%,0%);fill-opacity:0.74902;" d="M 23.371094 21.195313 L 43.671875 21.195313 C 44.359375 21.195313 44.917969 21.75 44.917969 22.4375 L 44.917969 22.632813 C 44.917969 23.320313 44.359375 23.878906 43.671875 23.878906 L 23.371094 23.878906 C 22.683594 23.878906 22.128906 23.320313 22.128906 22.632813 L 22.128906 22.4375 C 22.128906 21.75 22.683594 21.195313 23.371094 21.195313 Z "/>
<path style=" stroke:none;fill-rule:nonzero;fill:rgb(100%,57.647059%,0%);fill-opacity:0.74902;" d="M 23.371094 25.550781 L 43.671875 25.550781 C 44.359375 25.550781 44.917969 26.105469 44.917969 26.792969 L 44.917969 26.988281 C 44.917969 27.675781 44.359375 28.234375 43.671875 28.234375 L 23.371094 28.234375 C 22.683594 28.234375 22.128906 27.675781 22.128906 26.988281 L 22.128906 26.792969 C 22.128906 26.105469 22.683594 25.550781 23.371094 25.550781 Z "/>
</g>
</svg>
