<?xml version="1.0" encoding="UTF-8"?>
<svg xmlns="http://www.w3.org/2000/svg" xmlns:xlink="http://www.w3.org/1999/xlink" width="70pt" height="70pt" viewBox="0 0 70 70" version="1.1">
<defs>
<radialGradient id="radial0" gradientUnits="userSpaceOnUse" cx="7.18" cy="9.5" fx="7.18" fy="9.5" r="7.38" gradientTransform="matrix(3.888889,0,0,3.888889,0,0)">
<stop offset="0" style="stop-color:rgb(46.27451%,73.72549%,17.647059%);stop-opacity:1;"/>
<stop offset="0.41" style="stop-color:rgb(45.490196%,72.54902%,17.254902%);stop-opacity:1;"/>
<stop offset="0.66" style="stop-color:rgb(43.529412%,69.411765%,16.470588%);stop-opacity:1;"/>
<stop offset="0.88" style="stop-color:rgb(40%,63.529412%,15.294118%);stop-opacity:1;"/>
<stop offset="1" style="stop-color:rgb(36.862745%,58.823529%,14.117647%);stop-opacity:1;"/>
</radialGradient>
</defs>
<g id="surface1">
<path style=" stroke:none;fill-rule:nonzero;fill:rgb(14.509804%,50.980392%,46.666667%);fill-opacity:1;" d="M 38.890625 39.820313 C 123.726563 40.15625 192.230469 109.199219 191.898438 194.035156 C 191.5625 278.875 122.519531 347.378906 37.683594 347.042969 C 77.417969 348 108.851563 380.984375 107.898438 420.71875 C 106.941406 460.453125 73.957031 491.890625 34.222656 490.933594 L 34.222656 46.667969 L 32.511719 46.667969 L 32.511719 44.253906 C 31.019531 44.246094 29.550781 43.871094 28.234375 43.167969 L 28.234375 40.015625 C 1.386719 40.554688 -19.941406 62.753906 -19.40625 89.601563 C -18.867188 116.445313 3.332031 137.777344 30.179688 137.238281 C 15.144531 137.882813 3.476563 150.59375 4.121094 165.628906 C 4.765625 180.664063 17.476563 192.328125 32.511719 191.683594 L 32.511719 37.488281 C 31.195313 37.070313 29.984375 36.367188 28.972656 35.429688 C 27.480469 33.660156 27.582031 31.046875 29.207031 29.398438 C 30.109375 28.546875 31.273438 28.027344 32.511719 27.921875 L 32.511719 25.785156 L 34.183594 25.785156 L 34.183594 27.882813 C 36.675781 29.65625 38.035156 32.617188 37.761719 35.660156 L 37.761719 38.773438 C 36.667969 38.117188 35.449219 37.707031 34.183594 37.566406 L 34.183594 35 C 92.171875 34.011719 139.984375 80.222656 140.972656 138.210938 C 141.960938 196.199219 95.75 244.011719 37.761719 245 C -18.898438 244.6875 -64.574219 198.503906 -64.265625 141.847656 C -63.953125 85.1875 -17.769531 39.511719 38.890625 39.820313 Z M 32.511719 34.261719 L 32.511719 30.644531 C 32.046875 28.921875 31.523438 29.527344 31.109375 32.277344 C 31.109375 33.09375 83.144531 49.816406 83.144531 49.816406 Z M 35.816406 39.976563 C 35.816406 39.238281 35.273438 38.65625 34.183594 38.148438 L 34.183594 34.648438 C 33.09375 34.457031 197.515625 33.910156 197.515625 32.976563 Z "/>
<path style=" stroke:none;fill-rule:nonzero;fill:rgb(100%,79.215686%,0%);fill-opacity:1;" d="M 64.320313 36.90625 L 50.320313 36.90625 C 50.316406 41.808594 48.222656 46.476563 44.566406 49.738281 L 53.859375 60.199219 C 60.53125 54.28125 64.339844 45.785156 64.320313 36.867188 "/>
<path style=" stroke:none;fill-rule:nonzero;fill:url(#radial0);" d="M 33.132813 54.171875 C 23.617188 54.171875 15.90625 46.460938 15.90625 36.945313 C 15.90625 27.429688 23.617188 19.714844 33.132813 19.714844 L 33.132813 5.792969 C 15.949219 5.792969 2.023438 19.722656 2.023438 36.90625 C 2.023438 54.085938 15.949219 68.015625 33.132813 68.015625 C 40.777344 68.0625 48.167969 65.292969 53.898438 60.238281 L 44.566406 49.777344 C 41.433594 52.609375 37.359375 54.175781 33.132813 54.171875 Z "/>
<path style=" stroke:none;fill-rule:nonzero;fill:rgb(80%,80%,80%);fill-opacity:1;" d="M 31.695313 186.667969 L 31.695313 18.042969 C 37.058594 17.960938 42.230469 20.054688 46.019531 23.851563 C 49.808594 27.652344 51.894531 32.824219 51.800781 38.1875 L 68.054688 38.1875 C 27.054688 28.148438 -14.324219 53.246094 -24.363281 94.246094 C -34.40625 135.25 -9.304688 176.625 31.695313 186.667969 Z "/>
<path style=" stroke:none;fill-rule:nonzero;fill:rgb(60%,60%,60%);fill-opacity:1;" d="M 51.878906 38.1875 C 51.984375 27.199219 43.1875 18.195313 32.199219 18.042969 L 31.695313 18.042969 L 32.976563 259.15625 C 41.867188 259.675781 48.949219 266.792969 49.429688 275.683594 Z "/>
</g>
</svg>
