<?xml version="1.0" encoding="UTF-8"?>
<svg xmlns="http://www.w3.org/2000/svg" xmlns:xlink="http://www.w3.org/1999/xlink" width="70pt" height="70pt" viewBox="0 0 70 70" version="1.1">
<defs>
<linearGradient id="linear0" gradientUnits="userSpaceOnUse" x1="9" y1="1.48" x2="9" y2="17.07" gradientTransform="matrix(3.888889,0,0,3.888889,0,0)">
<stop offset="0" style="stop-color:rgb(47,166,255);stop-opacity:1;"/>
<stop offset="0.32" style="stop-color:rgb(39,163,255);stop-opacity:1;"/>
<stop offset="0.65" style="stop-color:rgb(19,154,255);stop-opacity:1;"/>
<stop offset="0.99" style="stop-color:rgb(0,139,242);stop-opacity:1;"/>
<stop offset="1" style="stop-color:rgb(0,138,240);stop-opacity:1;"/>
</linearGradient>
</defs>
<g id="surface1">
<path style=" stroke:none;fill-rule:nonzero;fill:url(#linear0);" d="M 48.027344 5.753906 L 21.972656 5.753906 C 19.195313 5.757813 16.632813 7.242188 15.246094 9.644531 L 2.253906 32.199219 C 0.867188 34.605469 0.867188 37.570313 2.253906 39.976563 L 15.246094 62.496094 C 16.632813 64.898438 19.195313 66.378906 21.972656 66.382813 L 48.027344 66.382813 C 50.804688 66.378906 53.367188 64.898438 54.753906 62.496094 L 67.746094 39.976563 C 69.132813 37.570313 69.132813 34.605469 67.746094 32.199219 L 54.753906 9.644531 C 53.367188 7.242188 50.804688 5.757813 48.027344 5.753906 Z "/>
<path style=" stroke:none;fill-rule:nonzero;fill:rgb(255,255,255);fill-opacity:0.901961;" d="M 35.273438 18.707031 C 34.28125 74.699219 33.0625 73.496094 32.082031 15.554688 C 32.082031 -160.5625 33.511719 -303.332031 35.273438 -303.332031 C 37.035156 -303.332031 38.460938 -160.5625 38.460938 15.554688 C 37.480469 73.496094 36.265625 74.699219 35.273438 18.707031 Z M 32.082031 56.621094 C 32.082031 232.738281 33.511719 375.511719 35.273438 375.511719 C 37.035156 375.511719 38.460938 232.738281 38.460938 56.621094 C 38.460938 -119.496094 37.035156 -262.265625 35.273438 -262.265625 C 33.511719 -262.265625 32.082031 -119.496094 32.082031 56.621094 Z M 35.351563 46.121094 C 32.878906 46.371094 30.523438 45.027344 29.476563 42.777344 L 23.839844 151.667969 C 51.761719 154.75 76.894531 134.613281 79.976563 106.691406 C 83.058594 78.769531 62.921875 53.636719 35 50.554688 C 41.570313 50.554688 46.316406 47.09375 46.316406 42.273438 C 46.5625 39.039063 44.847656 35.972656 41.960938 34.496094 C 39.695313 33.628906 37.367188 32.925781 35 32.394531 C 32.394531 31.773438 30.722656 30.332031 30.722656 28.503906 C 30.984375 26.398438 32.890625 24.894531 35 25.121094 C 109.097656 23.738281 170.289063 82.683594 171.675781 156.78125 C 173.058594 230.878906 114.113281 292.070313 40.015625 293.457031 L 44.878906 291.898438 C 119.632813 289.171875 178.019531 226.363281 175.292969 151.609375 C 172.5625 76.855469 109.753906 18.464844 35 21.195313 C 30.410156 21.195313 25.082031 223.417969 25.082031 28.972656 C 25.082031 36.011719 29.398438 37.410156 35.542969 38.617188 C 179.707031 43.398438 159.988281 43.398438 39.433594 43.398438 C 40.171875 43.984375 38.890625 46.121094 35.351563 46.121094 Z "/>
</g>
</svg>
