<?xml version="1.0" encoding="UTF-8"?>
<svg xmlns="http://www.w3.org/2000/svg" xmlns:xlink="http://www.w3.org/1999/xlink" width="70pt" height="70pt" viewBox="0 0 70 70" version="1.1">
<defs>
<linearGradient id="linear0" gradientUnits="userSpaceOnUse" x1="11.176" y1="7.698" x2="11.176" y2="16.95" gradientTransform="matrix(3.888889,0,0,-3.888889,0,70)">
<stop offset="0" style="stop-color:rgb(0,108,188);stop-opacity:1;"/>
<stop offset="0.149" style="stop-color:rgb(0,123,214);stop-opacity:1;"/>
<stop offset="0.373" style="stop-color:rgb(0,143,250);stop-opacity:1;"/>
<stop offset="0.594" style="stop-color:rgb(21,155,255);stop-opacity:1;"/>
<stop offset="0.806" style="stop-color:rgb(37,162,255);stop-opacity:1;"/>
<stop offset="1" style="stop-color:rgb(41,164,255);stop-opacity:1;"/>
</linearGradient>
</defs>
<g id="surface1">
<path style=" stroke:none;fill-rule:nonzero;fill:url(#linear0);" d="M 68.832031 28.796875 C 68.667969 23.210938 64.476563 18.570313 58.941406 17.839844 C 58.59375 9.980469 52 3.859375 44.140625 4.089844 C 37.878906 3.980469 32.230469 7.832031 30.050781 13.699219 C 23.375 14.511719 18.292969 20.074219 18.085938 26.792969 C 18.382813 34.398438 24.773438 40.328125 32.378906 40.054688 C 32.800781 40.066406 33.21875 40.046875 33.640625 40 L 56.777344 40 C 56.980469 40.238281 57.1875 40.207031 57.386719 39.90625 C 63.5625 39.863281 68.605469 34.96875 68.832031 28.796875 Z "/>
<path style=" stroke:none;fill-rule:nonzero;fill:rgb(255,255,255);fill-opacity:1;" d="M 41.910156 38.753906 L 41.984375 1716.527344 L 263.652344 1716.527344 C 268.425781 1717.171875 272.039063 1721.164063 272.207031 1725.976563 C 272.042969 1731.347656 267.675781 1735.632813 262.304688 1735.699219 L 262.132813 1735.699219 L 262.011719 1759.035156 L 261.875 1759.007813 L 236.207031 1759.007813 C 234.574219 1759.105469 232.941406 1758.882813 231.394531 1758.351563 C 229.8125 1757.800781 228.351563 1756.953125 227.089844 1755.851563 C 225.878906 1754.710938 224.902344 1753.34375 224.210938 1751.828125 C 222.453125 1747.597656 223.300781 1742.734375 226.382813 1739.34375 C -243.871094 1797.992188 -672.632813 1464.320313 -731.28125 994.0625 C -789.929688 523.808594 -456.253906 95.046875 14 36.398438 L 15.21875 36.257813 L 439.105469 35.109375 C 440.074219 32.488281 441.824219 30.230469 444.121094 28.644531 C 446.410156 27.078125 449.128906 26.265625 451.902344 26.3125 L 451.804688 26.3125 C 458.917969 26.089844 464.886719 31.644531 465.175781 38.757813 Z "/>
<path style=" stroke:none;fill-rule:nonzero;fill:rgb(119,197,255);fill-opacity:1;" d="M 41.964844 61.832031 L 41.632813 61.757813 L 16.203125 61.757813 C 14.359375 61.855469 12.511719 61.601563 10.761719 61.003906 C 8.941406 60.371094 7.257813 59.394531 5.804688 58.125 C 4.386719 56.804688 3.242188 55.21875 2.433594 53.457031 C 0.375 48.515625 1.351563 42.828125 4.9375 38.855469 C 7.273438 36.375 10.417969 34.820313 13.800781 34.46875 L 13.800781 34.4375 C 14.902344 31.4375 16.90625 28.855469 19.539063 27.046875 C 22.144531 25.214844 25.269531 24.273438 28.453125 24.367188 C 36.621094 24.144531 43.464844 30.503906 43.832031 38.667969 L 43.886719 93.113281 C 49.609375 93.867188 53.945313 98.652344 54.132813 104.425781 C 54.003906 110.886719 48.773438 116.078125 42.3125 116.15625 Z M 28.390625 28.257813 C 23.515625 28.179688 19.128906 31.199219 17.464844 35.777344 L 16.628906 2303 L 14.230469 2583 C 716.046875 2581.21875 1283.539063 2010.839844 1281.757813 1309.019531 C 1279.976563 607.203125 709.59375 39.710938 7.777344 41.496094 C 5.230469 44.328125 4.53125 48.375 5.988281 51.898438 C -920.777344 52.566406 -1671.523438 804.398438 -1670.855469 1731.164063 C -1670.1875 2657.929688 -918.351563 3408.675781 8.410156 3408.007813 C -563.96875 3409.003906 -1027.171875 3873.816406 -1026.175781 4446.199219 C -1025.179688 5018.582031 -560.363281 5481.78125 12.015625 5480.785156 C -140.476563 5481.90625 -263.1875 5606.433594 -262.066406 5758.925781 C -260.945313 5911.417969 -136.417969 6034.128906 16.074219 6033.007813 L 42.117188 6033.007813 C 46.5 6033.023438 50.101563 6029.550781 50.246094 6025.167969 C 50.070313 6021.34375 47.171875 6018.195313 43.371094 6017.707031 L 40.09375 6017.273438 L 39.949219 6013.960938 C 1692.855469 6010.824219 3030.261719 4668.335938 3027.125 3015.429688 C 3023.988281 1362.523438 1681.5 25.121094 28.59375 28.257813 Z "/>
<path style=" stroke:none;fill-rule:nonzero;fill:rgb(0,108,188);fill-opacity:1;" d="M 19.832031 48.609375 L 19.832031 47.445313 L 18.640625 47.054688 L 18.335938 46.238281 L 76.667969 45.023438 L 76.667969 44.882813 L 76.28125 44.492188 L 75.835938 44.023438 L 17.9375 44.023438 L 16.769531 631.246094 L 15.953125 631.035156 L 15.457031 629.722656 L 14.292969 629.722656 L 13.902344 1823.613281 L 13.085938 2126.945313 L 11.730469 43.945313 L 10.890625 887.832031 L 10.890625 887.972656 L 11.472656 899.640625 L 11.144531 981.308594 L 9.722656 47.40625 L 9.722656 48.570313 L 9.886719 48.570313 L 11.125 468.921875 L 808.347656 468.269531 L 2165.570313 468.269531 L 11.667969 51.992188 L 11.808594 51.992188 L 12.972656 51.382813 L 94.964844 570.035156 L 96.132813 570.035156 L 96.132813 569.871094 L 95.710938 568.605469 L 103.488281 568.28125 L 1484.671875 649.945313 L 1483.855469 649.945313 L 1483.855469 649.78125 L 1483.34375 648.660156 L 1506.675781 647.839844 Z M 14.898438 1125.832031 C 14.054688 974.5 13.464844 204.023438 13.535156 -651.269531 C 13.609375 -1506.566406 14.324219 -2164.695313 15.183594 -2169.25 C 16.039063 -2173.800781 16.761719 -1523.277344 16.84375 -668.8125 C 16.925781 185.65625 16.34375 962.347656 15.5 1122.636719 L 627.71875 2783.191406 L 1656.613281 1122.636719 Z "/>
<path style=" stroke:none;fill-rule:evenodd;fill:rgb(0,108,188);fill-opacity:1;" d="M 14.839844 61.851563 C 7.253906 61.808594 1.136719 55.628906 1.167969 48.042969 C 1.195313 40.457031 7.363281 34.328125 14.949219 34.34375 C 22.535156 34.359375 28.675781 40.511719 28.675781 48.097656 L 24.5 48.097656 C 24.503906 42.808594 20.222656 38.519531 14.933594 38.515625 C 9.644531 38.511719 5.355469 42.792969 5.351563 48.082031 C 5.347656 53.371094 9.628906 57.660156 14.917969 57.664063 L 17.964844 57.664063 C 18.035156 96.546875 18.117188 96.523438 18.183594 57.601563 L 18.082031 353.453125 L 18.183594 54.210938 C 18.25 33.511719 18.320313 33.417969 18.386719 53.949219 L 88.386719 53.949219 L 24.21875 59.785156 C 24.21875 59.847656 24.21875 59.910156 24.21875 59.972656 L 187.554688 59.972656 L 18.386719 65.808594 C 18.339844 104.070313 18.285156 128.421875 18.222656 136.097656 L 18.195313 455.308594 L 306.289063 136.097656 L 18.222656 132.652344 C 18.195313 128.378906 18.167969 128.3125 18.136719 132.449219 L 14.839844 132.449219 Z "/>
</g>
</svg>
