<?xml version="1.0" encoding="UTF-8"?>
<svg xmlns="http://www.w3.org/2000/svg" xmlns:xlink="http://www.w3.org/1999/xlink" width="70pt" height="70pt" viewBox="0 0 70 70" version="1.1">
<defs>
<linearGradient id="linear0" gradientUnits="userSpaceOnUse" x1="9" y1="19.848" x2="9" y2="-1.014" gradientTransform="matrix(3.888889,0,0,3.888889,-0.000517415,-0.00021432)">
<stop offset="0" style="stop-color:rgb(0,138,240);stop-opacity:1;"/>
<stop offset="0.546" style="stop-color:rgb(23,156,255);stop-opacity:1;"/>
<stop offset="0.999" style="stop-color:rgb(47,166,255);stop-opacity:1;"/>
</linearGradient>
</defs>
<g id="surface1">
<path style=" stroke:none;fill-rule:nonzero;fill:url(#linear0);" d="M 0.679688 33.351563 L 33.347656 0.683594 C 34.257813 -0.226563 35.734375 -0.226563 36.648438 0.683594 L 69.3125 33.351563 C 70.222656 34.261719 70.222656 35.738281 69.3125 36.648438 L 36.648438 69.316406 C 35.734375 70.226563 34.257813 70.226563 33.347656 69.316406 L 0.679688 36.648438 C -0.230469 35.738281 -0.230469 34.261719 0.679688 33.351563 Z "/>
<path style=" stroke:none;fill-rule:nonzero;fill:rgb(255,255,255);fill-opacity:1;" d="M 46.039063 25.296875 L 46.039063 22.761719 L 45.6875 22.628906 L 42.964844 21.738281 L 42.253906 20.003906 L 1422.808594 17.066406 L 1421.027344 15.289063 L 1420.667969 194.175781 L 1418.132813 1485.289063 L 1416.398438 1484.574219 L 1415.289063 1481.503906 L 33.585938 1481.503906 L 33.445313 13.332031 L 32.554688 40.554688 L 30.820313 752.21875 L 27.925781 750.839844 L 26.144531 2532.128906 L 381.324219 5067.683594 L 26.910156 21.777344 L 23.800781 1134 L 23.800781 1136.535156 L 24.15625 1275.367188 L 915.429688 3009.8125 L 26.199219 31.109375 L 27.976563 1808.691406 L 27.800781 4344.246094 L 26.511719 6079.402344 L 1144.335938 6079.402344 L 1144.472656 6079.050781 L 2035.027344 6076.328125 L 3769.472656 6075.613281 L 6706.964844 7852.835938 L 6705.183594 7852.835938 L 43.554688 30.679688 L 42.265625 28.144531 L 753.929688 26.410156 Z M 34.917969 3708.074219 C -982.378906 3706.726563 -1805.972656 2880.953125 -1804.625 1863.652344 C -1803.277344 846.355469 -977.5 22.761719 39.800781 24.109375 C 39.792969 26.800781 37.609375 28.980469 34.917969 28.980469 Z "/>
<path style=" stroke:none;fill-rule:nonzero;fill:rgb(255,255,255);fill-opacity:1;" d="M 40.878906 42.441406 L 37.796875 42.390625 L 35.6875 42.390625 L 34.171875 42.367188 C 31.304688 42.453125 28.921875 44.601563 28.53125 47.445313 L 30.640625 78.554688 C 31.734375 -510.71875 33.046875 -511.785156 34.140625 75.722656 L 32.625 101.164063 L 66.824219 143.941406 C 68.867188 144.203125 70.394531 145.957031 70.363281 148.019531 C 70.335938 150.082031 68.757813 151.789063 66.707031 151.988281 L 59.996094 151.890625 C 58.929688 709.792969 57.652344 708.699219 56.582031 148.964844 L 54.472656 148.933594 C 80.421875 143.277344 96.871094 117.65625 91.214844 91.707031 C 85.558594 65.757813 59.9375 49.308594 33.988281 54.964844 L 40.699219 152.1875 C 44 152.042969 46.566406 149.265625 46.449219 145.964844 C 75.035156 144.429688 96.964844 120.007813 95.425781 91.421875 C 93.886719 62.832031 69.46875 40.90625 40.878906 42.441406 Z "/>
<path style=" stroke:none;fill-rule:nonzero;fill:rgb(143,207,255);fill-opacity:1;" d="M 32.15625 47.484375 L 30.640625 47.464844 L 28.53125 47.445313 L 25.445313 47.398438 C 23.394531 47.148438 21.859375 45.390625 21.890625 43.324219 C 21.917969 41.257813 23.503906 39.546875 25.5625 39.355469 L 32.269531 136.578125 C 40.355469 42.183594 47.675781 621.191406 48.621094 1429.828125 C 49.566406 2238.464844 43.773438 2970.515625 35.6875 3064.910156 L 37.796875 3092.132813 C 881.40625 3090.617188 1564.058594 2405.507813 1562.542969 1561.894531 C 1561.027344 718.285156 875.914063 35.632813 32.304688 37.152344 L 25.59375 37.054688 C 22.289063 37.195313 19.714844 39.976563 19.832031 43.285156 C 19.621094 46.582031 22.105469 49.4375 25.402344 49.675781 L 28.484375 94.566406 L 61.109375 117.898438 C 63.980469 117.808594 66.363281 115.660156 66.75 112.8125 L 64.640625 112.78125 C 64.625 9082.960938 57.335938 16340.109375 48.367188 16322.078125 C 39.394531 16304.046875 32.140625 9017.660156 32.15625 47.484375 Z "/>
<path style=" stroke:none;fill-rule:nonzero;fill:rgb(143,207,255);fill-opacity:1;" d="M 38.222656 24.09375 C 38.222656 25.921875 36.742188 27.402344 34.917969 27.402344 C 33.09375 27.402344 31.613281 25.921875 31.613281 24.09375 C 31.613281 22.269531 33.09375 20.789063 34.917969 20.789063 C 36.742188 20.789063 38.222656 22.269531 38.222656 24.09375 Z "/>
</g>
</svg>
