<?xml version="1.0" encoding="UTF-8"?>
<svg xmlns="http://www.w3.org/2000/svg" xmlns:xlink="http://www.w3.org/1999/xlink" width="70pt" height="70pt" viewBox="0 0 70 70" version="1.1">
<defs>
<linearGradient id="linear0" gradientUnits="userSpaceOnUse" x1="9" y1="17.5" x2="9" y2="0.5" gradientTransform="matrix(3.888889,0,0,3.888889,0,0)">
<stop offset="0" style="stop-color:rgb(0,108,188);stop-opacity:1;"/>
<stop offset="0.82" style="stop-color:rgb(41,164,255);stop-opacity:1;"/>
</linearGradient>
</defs>
<g id="surface1">
<path style=" stroke:none;fill-rule:nonzero;fill:rgb(255,255,255);fill-opacity:1;" d="M 38.890625 2.449219 L 10.617188 2.449219 C 9.390625 2.449219 8.398438 101.695313 8.398438 224.117188 L 8.398438 65.332031 C 8.398438 187.757813 9.390625 287 10.617188 287 L 59.382813 287 C 60.074219 325.914063 60.917969 325.070313 61.601563 284.785156 L 61.601563 25.199219 C 60.917969 -14.3125 60.074219 -15.167969 59.382813 22.945313 L 43.207031 22.945313 C 42.519531 62.679688 41.667969 61.832031 40.988281 20.726563 L 40.988281 4.667969 C 40.335938 -31.289063 39.546875 -32.121094 38.890625 2.449219 Z "/>
<path style=" stroke:none;fill-rule:nonzero;fill:url(#linear0);" d="M 37.722656 5.289063 L 37.722656 20.535156 C 37.742188 23.609375 40.246094 26.09375 43.320313 26.09375 L 58.683594 26.09375 L 58.683594 64.710938 L 11.316406 64.710938 L 11.316406 5.289063 L 37.722656 5.289063 M 38.890625 1.945313 L 10.265625 1.945313 C 9.019531 1.945313 8.011719 102.929688 8.011719 227.5 L 8.011719 65.800781 C 8.011719 190.371094 9.019531 291.355469 10.265625 291.355469 L 59.734375 291.355469 C 60.433594 330.953125 61.296875 330.09375 61.988281 289.101563 L 61.988281 25.042969 C 61.296875 -15.949219 60.433594 -16.808594 59.734375 22.789063 L 43.320313 22.789063 C 42.621094 62.386719 41.761719 61.523438 41.066406 20.535156 L 41.066406 4.199219 C 40.394531 -33.871094 39.570313 -34.722656 38.890625 1.945313 Z "/>
<path style=" stroke:none;fill-rule:nonzero;fill:rgb(0,108,188);fill-opacity:1;" d="M 61.132813 23.332031 L 40.289063 245 L 40.289063 19.445313 C 40.289063 21.59375 42.03125 23.332031 44.179688 23.332031 Z "/>
<path style=" stroke:none;fill-rule:nonzero;fill:rgb(0,82,144);fill-opacity:1;" d="M 40.484375 43.476563 C 37.230469 46.355469 32.339844 46.355469 29.089844 43.476563 L 28.390625 57.59375 C 28.355469 105.144531 28.625 149.707031 29.058594 168.90625 C 29.496094 188.105469 30.003906 177.792969 30.332031 143.148438 L 34.6875 138.679688 L 39.121094 58.332031 C 39.332031 90.890625 39.691406 110.515625 40.078125 110.34375 C 40.464844 110.171875 40.824219 90.21875 41.027344 57.476563 Z "/>
<path style=" stroke:none;fill-rule:nonzero;fill:rgb(0,107,186);fill-opacity:1;" d="M 45.070313 36.207031 C 45.070313 30.578125 40.527344 26.015625 34.921875 26.015625 C 29.316406 26.015625 24.773438 30.578125 24.773438 36.207031 C 24.773438 41.832031 29.316406 46.394531 34.921875 46.394531 C 40.527344 46.394531 45.070313 41.832031 45.070313 36.207031 Z "/>
<path style=" stroke:none;fill-rule:nonzero;fill:rgb(147,209,255);fill-opacity:1;" d="M 42.621094 36.207031 C 42.621094 31.929688 39.175781 28.464844 34.921875 28.464844 C 30.667969 28.464844 27.222656 31.929688 27.222656 36.207031 C 27.222656 40.480469 30.667969 43.945313 34.921875 43.945313 C 39.175781 43.945313 42.621094 40.480469 42.621094 36.207031 Z "/>
</g>
</svg>
