<?xml version="1.0" encoding="UTF-8"?>
<svg xmlns="http://www.w3.org/2000/svg" xmlns:xlink="http://www.w3.org/1999/xlink" width="70pt" height="70pt" viewBox="0 0 70 70" version="1.1">
<defs>
<linearGradient id="linear0" gradientUnits="userSpaceOnUse" x1="9" y1="177.9" x2="9" y2="160.1" gradientTransform="matrix(3.888889,0,0,3.888889,0,-622.222222)">
<stop offset="0" style="stop-color:rgb(0%,47.058824%,83.137255%);stop-opacity:1;"/>
<stop offset="0.064" style="stop-color:rgb(3.921569%,48.627451%,84.313725%);stop-opacity:1;"/>
<stop offset="0.338" style="stop-color:rgb(18.039216%,54.901961%,88.235294%);stop-opacity:1;"/>
<stop offset="0.594" style="stop-color:rgb(28.235294%,59.215686%,91.372549%);stop-opacity:1;"/>
<stop offset="0.822" style="stop-color:rgb(34.509804%,61.960784%,92.941176%);stop-opacity:1;"/>
<stop offset="1" style="stop-color:rgb(36.862745%,62.745098%,93.72549%);stop-opacity:1;"/>
</linearGradient>
<linearGradient id="linear1" gradientUnits="userSpaceOnUse" x1="-26.189" y1="-295.6" x2="-26.189" y2="-311.105" gradientTransform="matrix(4.495556,0,0,4.001667,153.319444,1250.705556)">
<stop offset="0" style="stop-color:rgb(99.607843%,63.137255%,10.588235%);stop-opacity:1;"/>
<stop offset="0.284" style="stop-color:rgb(99.607843%,64.705882%,10.196078%);stop-opacity:1;"/>
<stop offset="0.547" style="stop-color:rgb(99.607843%,69.019608%,9.411765%);stop-opacity:1;"/>
<stop offset="0.8" style="stop-color:rgb(100%,76.470588%,7.843137%);stop-opacity:1;"/>
<stop offset="1" style="stop-color:rgb(100%,84.313725%,5.882353%);stop-opacity:1;"/>
</linearGradient>
</defs>
<g id="surface1">
<path style=" stroke:none;fill-rule:nonzero;fill:url(#linear0);" d="M 69.609375 38.890625 L 69.609375 31.109375 L 68.445313 30.722656 L 59.890625 28 L 57.554688 22.554688 L 62.222656 13.222656 L 56.390625 7.777344 L 55.222656 11.667969 L 47.445313 15.554688 L 42 13.222656 L 38.890625 0.390625 L 31.109375 0.390625 L 30.332031 15.554688 L 27.609375 10.109375 L 22.167969 29.554688 L 13.222656 7.777344 L 7.777344 13.609375 L 8.167969 25.277344 L 12.054688 33.054688 L 10.109375 28 L 3.890625 31.109375 L 3.890625 38.890625 L 5.054688 42.777344 L 13.609375 72.332031 L 19.054688 72.332031 L 7.777344 56.777344 L 13.609375 62.222656 L 14.777344 61.832031 L 22.554688 57.945313 L 28 81.277344 L 31.109375 69.609375 L 38.890625 69.609375 L 39.277344 68.445313 L 66.5 59.890625 L 71.945313 57.554688 L 80.890625 61.832031 L 86.332031 56.390625 L 85.945313 55.222656 L 82.054688 47.445313 L 79.722656 42 Z M 35 50.167969 C 30.960938 50.226563 27.066406 48.648438 24.207031 45.792969 C 21.351563 42.933594 19.773438 39.039063 19.832031 35 C 19.773438 30.960938 21.351563 27.066406 24.207031 24.207031 C 27.066406 21.351563 30.960938 19.773438 35 19.832031 C 39.039063 19.773438 42.933594 21.351563 45.792969 24.207031 C 48.648438 27.066406 50.226563 30.960938 50.167969 35 C 50.226563 39.039063 48.648438 42.933594 45.792969 45.792969 C 42.933594 48.648438 39.039063 50.226563 35 50.167969 Z "/>
<path style=" stroke:none;fill-rule:nonzero;fill:url(#linear1);" d="M 33.054688 40.832031 L 19.054688 40.832031 C 18.8125 168.515625 18.519531 168.222656 18.277344 40.054688 L 18.277344 39.667969 L 35 6.609375 C 35 6.222656 38.890625 6.222656 42.777344 6.222656 L 59.109375 6.222656 C 59.355469 -119.277344 59.648438 -116.367188 59.890625 14 L 59.890625 14.390625 L 33.054688 33.445313 L 52.109375 33.445313 C 52.355469 -91.933594 52.648438 -88.878906 52.890625 41.609375 L 56.777344 41.609375 L 20.609375 67.667969 C 20.222656 67.667969 18.277344 87.109375 19.054688 66.890625 Z "/>
</g>
</svg>
