<?xml version="1.0" encoding="UTF-8"?>
<svg xmlns="http://www.w3.org/2000/svg" xmlns:xlink="http://www.w3.org/1999/xlink" width="70pt" height="70pt" viewBox="0 0 70 70" version="1.1">
<defs>
<linearGradient id="linear0" gradientUnits="userSpaceOnUse" x1="5.839" y1="17.068" x2="5.839" y2="0" gradientTransform="matrix(3.888889,0,0,3.888889,0,0)">
<stop offset="0" style="stop-color:rgb(36.862745%,58.823529%,14.117647%);stop-opacity:1;"/>
<stop offset="0.037" style="stop-color:rgb(37.647059%,60%,14.509804%);stop-opacity:1;"/>
<stop offset="0.439" style="stop-color:rgb(45.882353%,72.941176%,17.647059%);stop-opacity:1;"/>
<stop offset="0.775" style="stop-color:rgb(50.588235%,81.176471%,19.215686%);stop-opacity:1;"/>
<stop offset="1" style="stop-color:rgb(52.54902%,83.921569%,20%);stop-opacity:1;"/>
</linearGradient>
</defs>
<g id="surface1">
<path style=" stroke:none;fill-rule:nonzero;fill:url(#linear0);" d="M 36.855469 34.75 C 33.765625 31.863281 30.078125 29.691406 26.054688 28.390625 L 26.054688 16.503906 C 978.824219 13.808594 1753.382813 783.992188 1756.078125 1736.761719 C 1758.773438 2689.53125 988.589844 3464.089844 35.820313 3466.785156 L 35.101563 3466.785156 L 35.820313 9.683594 C 35.679688 -27.125 35.53125 -27.378906 35.394531 8.949219 C 32.464844 7.542969 29.296875 6.707031 26.054688 6.484375 L 26.054688 0.839844 C 25.792969 -154.003906 25.46875 -154.324219 25.203125 0 L 20.078125 0 C 19.613281 0 19.238281 376.082031 19.238281 840 L 19.238281 845.832031 C 15.496094 846.273438 12 847.910156 9.261719 850.5 C 238.207031 849.339844 422.859375 662.800781 421.695313 433.859375 C 420.535156 204.917969 233.996094 20.265625 5.054688 21.429688 C 4.898438 24.972656 6.136719 28.433594 8.503906 31.074219 C 11.585938 33.9375 15.246094 36.105469 19.238281 37.425781 L 19.238281 48.78125 C 17.148438 48.496094 15.101563 47.976563 13.128906 47.226563 C 11.050781 46.585938 9.089844 45.609375 7.328125 44.332031 C 7.070313 -141.113281 6.734375 -168.015625 6.453125 -25.328125 C 6.171875 117.363281 5.992188 405.597656 5.992188 721 L 5.992188 54.832031 C 5.992188 367.015625 6.167969 653.082031 6.445313 797.609375 C -916.023438 801.144531 -1660.96875 1551.816406 -1657.4375 2474.285156 C -1653.902344 3396.753906 -903.230469 4141.699219 19.238281 4138.167969 L 19.238281 4144.804688 C 19.238281 4608.722656 19.613281 4984.804688 20.078125 4984.804688 L 25.203125 4984.804688 C 25.464844 5133.105469 25.78125 5132.785156 26.039063 4983.964844 L 26.039063 58.59375 C 29.910156 58.230469 33.558594 56.640625 36.457031 54.054688 C 39.097656 51.40625 40.515625 47.773438 40.367188 44.035156 C 40.460938 40.597656 39.199219 37.265625 36.855469 34.75 Z M 29.367188 44.472656 L 29.367188 44.53125 C 28.324219 548.730469 27.101563 550.207031 26.054688 48.546875 L 26.054688 40.210938 C 28.226563 41.417969 29.339844 42.84375 29.367188 44.460938 Z M 16.050781 20.824219 C 15.921875 18.851563 17.296875 17.097656 19.242188 16.75 L 19.242188 25.5 C 17.394531 24.652344 16.167969 22.855469 16.050781 20.824219 Z "/>
<path style=" stroke:none;fill-rule:nonzero;fill:rgb(9.803922%,54.117647%,70.196078%);fill-opacity:1;" d="M 60.5 69.28125 L 47.589844 56.367188 C 46.625 55.402344 46.625 53.839844 47.589844 52.875 L 47.832031 52.628906 C 48.796875 51.664063 50.359375 51.664063 51.324219 52.628906 L 64.238281 65.542969 C 65.203125 66.507813 65.203125 68.070313 64.238281 69.035156 L 63.992188 69.28125 C 63.03125 70.246094 61.464844 70.246094 60.5 69.28125 Z "/>
<path style=" stroke:none;fill-rule:nonzero;fill:rgb(19.607843%,74.509804%,86.666667%);fill-opacity:1;" d="M 56.554688 45.410156 C 56.554688 54.203125 49.429688 61.328125 40.640625 61.328125 C 31.847656 61.328125 24.722656 54.203125 24.722656 45.410156 C 24.722656 36.621094 31.847656 29.492188 40.640625 29.492188 C 49.429688 29.492188 56.554688 36.621094 56.554688 45.410156 Z "/>
<path style=" stroke:none;fill-rule:nonzero;fill:rgb(100%,100%,100%);fill-opacity:1;" d="M 53.171875 45.125 C 53.171875 52.03125 47.574219 57.628906 40.671875 57.628906 C 33.765625 57.628906 28.167969 52.03125 28.167969 45.125 C 28.167969 38.222656 33.765625 32.625 40.671875 32.625 C 47.574219 32.625 53.171875 38.222656 53.171875 45.125 Z "/>
</g>
</svg>
