<?xml version="1.0" encoding="UTF-8"?>
<svg xmlns="http://www.w3.org/2000/svg" xmlns:xlink="http://www.w3.org/1999/xlink" width="70pt" height="70pt" viewBox="0 0 70 70" version="1.1">
<defs>
<linearGradient id="linear0" gradientUnits="userSpaceOnUse" x1="13.31" y1="0.23" x2="6.51" y2="15" gradientTransform="matrix(3.888889,0,0,3.888889,0,0)">
<stop offset="0" style="stop-color:rgb(33.333333%,18.431373%,60%);stop-opacity:1;"/>
<stop offset="0.07" style="stop-color:rgb(39.215686%,23.921569%,66.666667%);stop-opacity:1;"/>
<stop offset="0.2" style="stop-color:rgb(48.627451%,32.54902%,77.254902%);stop-opacity:1;"/>
<stop offset="0.35" style="stop-color:rgb(56.078431%,39.215686%,85.490196%);stop-opacity:1;"/>
<stop offset="0.51" style="stop-color:rgb(61.176471%,44.313725%,91.372549%);stop-opacity:1;"/>
<stop offset="0.7" style="stop-color:rgb(64.313725%,47.058824%,94.509804%);stop-opacity:1;"/>
<stop offset="1" style="stop-color:rgb(65.098039%,47.843137%,95.686275%);stop-opacity:1;"/>
</linearGradient>
</defs>
<g id="surface1">
<path style=" stroke:none;fill-rule:nonzero;fill:rgb(9.803922%,54.117647%,70.196078%);fill-opacity:1;" d="M 36.632813 45.34375 L 45.964844 40.171875 C 45.964844 40.09375 45.964844 40.015625 45.964844 39.9375 L 45.964844 29.554688 C 45.964844 29.476563 45.964844 29.398438 45.964844 29.320313 L 45.695313 29.320313 L 36.476563 34.496094 C 36.476563 34.558594 36.476563 34.625 36.476563 34.6875 L 36.476563 45.070313 C 36.476563 45.148438 36.476563 45.226563 36.476563 45.304688 M 36.476563 58.292969 L 45.8125 53.121094 C 45.8125 53.042969 45.8125 52.964844 45.8125 52.890625 L 45.8125 42.542969 C 45.8125 42.464844 45.8125 42.390625 45.8125 42.3125 L 36.476563 47.484375 L 36.476563 57.867188 C 36.476563 57.945313 36.476563 58.023438 36.476563 58.101563 M 48.535156 38.65625 L 58.332031 33.640625 C 58.332031 33.5625 58.332031 33.484375 58.332031 33.40625 L 58.332031 23.0625 C 58.332031 22.984375 58.332031 22.90625 58.332031 22.828125 L 58.023438 22.828125 L 48.570313 28 L 48.570313 38.578125 C 48.570313 38.65625 48.570313 38.734375 48.570313 38.8125 M 48.570313 51.800781 L 58.332031 46.667969 C 58.332031 46.589844 58.332031 46.511719 58.332031 46.433594 L 58.332031 36.050781 C 58.332031 35.972656 58.332031 35.894531 58.332031 35.816406 L 49.039063 40.988281 C 49.039063 41.054688 49.039063 41.117188 49.039063 41.183594 L 49.039063 51.566406 C 49.039063 51.644531 49.039063 51.722656 49.039063 51.800781 "/>
<path style=" stroke:none;fill-rule:nonzero;fill:rgb(19.607843%,74.509804%,86.666667%);fill-opacity:1;" d="M 33.328125 45.34375 L 23.878906 40.132813 C 23.878906 40.054688 23.878906 39.976563 23.878906 39.898438 L 23.878906 29.554688 C 23.878906 29.476563 23.878906 29.398438 23.878906 29.320313 L 23.605469 29.320313 L 32.9375 34.496094 C 32.9375 34.570313 32.9375 34.648438 32.9375 34.726563 L 32.9375 45.070313 C 32.9375 45.148438 32.9375 45.226563 32.9375 45.304688 "/>
<path style=" stroke:none;fill-rule:nonzero;fill:rgb(19.607843%,74.509804%,86.666667%);fill-opacity:1;" d="M 33.328125 58.332031 L 23.878906 53.121094 C 23.878906 53.042969 23.878906 52.964844 23.878906 52.890625 L 23.878906 42.542969 C 23.878906 42.464844 23.878906 42.390625 23.878906 42.3125 L 33.210938 47.484375 C 33.210938 47.5625 33.210938 47.640625 33.210938 47.714844 L 33.210938 58.0625 C 33.210938 58.140625 33.210938 58.214844 33.210938 58.292969 "/>
<path style=" stroke:none;fill-rule:nonzero;fill:rgb(19.607843%,74.509804%,86.666667%);fill-opacity:1;" d="M 21.234375 38.890625 L 11.667969 33.640625 C 11.667969 33.5625 11.667969 33.484375 11.667969 33.40625 L 11.667969 23.0625 C 11.667969 22.984375 11.667969 22.90625 11.667969 22.828125 L 11.355469 22.828125 L 21.390625 28 C 21.390625 28.078125 21.390625 28.15625 21.390625 28.234375 L 21.390625 38.578125 C 21.390625 38.65625 21.390625 38.734375 21.390625 38.8125 "/>
<path style=" stroke:none;fill-rule:nonzero;fill:rgb(19.607843%,74.509804%,86.666667%);fill-opacity:1;" d="M 21.234375 51.839844 L 11.667969 46.667969 C 11.667969 46.589844 11.667969 46.511719 11.667969 46.433594 L 11.667969 36.050781 C 11.667969 35.972656 11.667969 35.894531 11.667969 35.816406 L 21.390625 40.988281 C 21.390625 41.066406 21.390625 41.144531 21.390625 41.222656 L 21.390625 51.566406 C 21.390625 51.644531 21.390625 51.722656 21.390625 51.800781 "/>
<path style=" stroke:none;fill-rule:nonzero;fill:rgb(31.372549%,90.196078%,100%);fill-opacity:1;" d="M 25.042969 26.484375 L 35 21.15625 C 35.097656 15.597656 35.214844 15.597656 35.3125 21.15625 L 44.839844 26.367188 C 44.839844 26.445313 44.839844 26.523438 44.839844 26.601563 L 45.070313 26.601563 L 35 32.042969 L 34.726563 32.042969 L 25.160156 26.871094 C 25.160156 26.78125 25.160156 26.691406 25.160156 26.601563 C 25.160156 26.328125 25.160156 26.601563 25.160156 26.601563 "/>
<path style=" stroke:none;fill-rule:nonzero;fill:rgb(31.372549%,90.196078%,100%);fill-opacity:1;" d="M 12.484375 19.640625 L 22.128906 14.273438 L 22.398438 14.273438 L 31.851563 19.445313 C 31.851563 19.523438 31.851563 19.601563 31.851563 19.679688 L 32.082031 19.679688 L 22.320313 25.199219 L 22.011719 25.199219 L 12.5625 19.988281 C 12.5625 19.910156 12.5625 19.832031 12.5625 19.753906 "/>
<path style=" stroke:none;fill-rule:nonzero;fill:rgb(31.372549%,90.196078%,100%);fill-opacity:1;" d="M 37.917969 19.753906 L 47.5625 14.390625 C 47.648438 10.714844 47.746094 10.714844 47.832031 14.390625 L 57.285156 19.445313 C 57.285156 19.523438 57.285156 19.601563 57.285156 19.679688 L 57.515625 19.679688 L 47.753906 25.316406 L 47.445313 25.316406 L 37.996094 20.105469 C 37.996094 20.027344 37.996094 19.949219 37.996094 19.871094 "/>
<path style=" stroke:none;fill-rule:nonzero;fill:rgb(31.372549%,90.196078%,100%);fill-opacity:1;" d="M 25.082031 12.988281 L 35 7.777344 L 44.722656 12.832031 C 44.722656 12.910156 44.722656 12.988281 44.722656 13.066406 L 44.957031 13.066406 L 35 18.472656 L 34.765625 18.472656 L 25.199219 13.339844 C 25.199219 13.273438 25.199219 13.210938 25.199219 13.144531 C 25.199219 12.949219 25.199219 13.144531 25.199219 13.144531 "/>
<path style=" stroke:none;fill-rule:nonzero;fill:url(#linear0);" d="M 68.328125 17.421875 C 65.761719 13.183594 59.773438 11.511719 51.410156 12.753906 L 50.398438 12.753906 L 57.828125 16.644531 C 138.371094 14.785156 205.167969 78.574219 207.023438 159.113281 C 208.882813 239.65625 145.097656 306.453125 64.554688 308.3125 C 66.109375 569.101563 71.59375 304.695313 76.765625 304.695313 C 71.382813 311.355469 64.785156 316.9375 57.320313 321.144531 C -15.464844 332.023438 -83.289063 281.835938 -94.167969 209.046875 C -105.046875 136.257813 -54.859375 68.433594 17.929688 57.554688 C 11.550781 154.777344 7 57.554688 5.445313 54.988281 C 3.890625 52.421875 5.09375 48.417969 304.890625 43.632813 L 304.890625 36.515625 C 303.839844 157.070313 302.945313 273.738281 301.972656 402.070313 C 296.957031 408.800781 295.554688 414.867188 298.082031 419.144531 C 300.820313 422.753906 305.246094 424.671875 309.75 424.199219 C 311.457031 424.195313 313.15625 424.066406 314.84375 423.8125 C 323.808594 422.15625 332.382813 418.832031 340.121094 414.011719 C 348.042969 409.492188 355.035156 403.511719 360.734375 396.394531 C 69.496094 27.765625 70.894531 21.699219 68.328125 17.421875 Z "/>
</g>
</svg>
