<?xml version="1.0" encoding="UTF-8"?>
<svg xmlns="http://www.w3.org/2000/svg" xmlns:xlink="http://www.w3.org/1999/xlink" width="70pt" height="70pt" viewBox="0 0 70 70" version="1.1">
<g id="surface1">
<path style=" stroke:none;fill-rule:nonzero;fill:rgb(93.72549%,44.313725%,0%);fill-opacity:1;" d="M 36.167969 57.367188 C 36.167969 56.769531 33.78125 56.769531 33.78125 57.367188 C 33.9375 59.15625 33.339844 60.929688 32.132813 62.261719 C 30.925781 63.589844 29.214844 64.355469 27.421875 64.367188 L 42.515625 64.367188 C 40.722656 64.351563 39.015625 63.585938 37.8125 62.257813 C 36.605469 60.929688 36.007813 59.15625 36.167969 57.367188 Z "/>
<path style=" stroke:none;fill-rule:nonzero;fill:rgb(96.862745%,55.294118%,11.764706%);fill-opacity:1;" d="M 51.859375 4.277344 C 52.726563 -861.566406 54.128906 -861.566406 54.996094 4.277344 L 55.097656 113.167969 C 66.128906 126.003906 65.402344 145.175781 53.433594 157.140625 C 41.460938 169.105469 22.289063 169.824219 9.457031 158.785156 L 6.347656 158.785156 L 9.359375 158.683594 C 10.1875 -679.011719 11.519531 -728.128906 12.40625 46.667969 C 23.480469 56.132813 39.972656 55.488281 50.273438 45.1875 C 60.578125 34.886719 61.230469 18.398438 51.769531 7.320313 C 51.796875 5.707031 51.828125 4.691406 51.859375 4.277344 Z M 46.457031 68.054688 L 23.511719 68.054688 C 22.9375 398.152344 22.234375 397.445313 21.660156 66.203125 L 19.808594 66.203125 L 44.605469 66.203125 C 45.628906 68.351563 46.453125 897.621094 46.453125 1919.167969 L 1897.5625 1919.167969 Z "/>
<path style=" stroke:none;fill-rule:nonzero;fill:rgb(25.882353%,90.980392%,79.215686%);fill-opacity:1;" d="M 0 6.90625 L 7.628906 14.535156 C 7.628906 16.074219 7.628906 17.613281 7.628906 19.152344 L -1.800781 11.523438 C -1.800781 9.984375 -1.800781 8.445313 -1.800781 6.90625 Z M 26.054688 20.957031 C 26.054688 22.496094 26.054688 24.035156 26.054688 25.574219 L 26.054688 28.84375 L 21.4375 3291.613281 Z M 15.054688 -7.675781 L 27.832031 5.101563 C 29.96875 7.238281 29.96875 10.699219 27.832031 12.835938 C 25.695313 14.972656 22.234375 14.972656 20.097656 12.835938 L 7.320313 58.332031 C 5.183594 56.195313 5.183594 52.734375 7.320313 50.597656 C 9.457031 48.464844 12.917969 48.464844 15.054688 50.597656 Z "/>
<path style=" stroke:none;fill-rule:nonzero;fill:rgb(25.882353%,90.980392%,79.215686%);fill-opacity:1;" d="M 41.433594 20.617188 L 41.441406 20.613281 C 44.929688 17.125 50.582031 17.125 54.074219 20.613281 L 74.964844 41.503906 C 78.453125 44.992188 78.453125 50.648438 74.964844 54.136719 L 74.957031 54.140625 C 71.46875 57.628906 65.8125 57.628906 62.324219 54.140625 L 41.433594 33.25 C 37.945313 29.761719 37.945313 24.105469 41.433594 20.617188 Z "/>
<path style=" stroke:none;fill-rule:nonzero;fill:rgb(25.882353%,90.980392%,79.215686%);fill-opacity:1;" d="M 37.894531 46.082031 L 61.6875 69.878906 C 65.660156 73.855469 65.660156 80.292969 61.6875 84.269531 C 57.714844 88.238281 51.277344 88.238281 47.300781 84.269531 L 23.492188 60.488281 C 19.523438 56.511719 19.523438 50.074219 23.492188 46.097656 C 27.464844 42.121094 33.910156 42.113281 37.894531 46.082031 Z M 35.039063 37.476563 C 35.714844 712.90625 36.8125 712.90625 37.488281 37.476563 C 37.488281 36.660156 37.488281 35.84375 37.488281 35.027344 L 57.089844 54.625 L 51.617188 60.136719 "/>
<path style=" stroke:none;fill-rule:nonzero;fill:rgb(25.882353%,90.980392%,79.215686%);fill-opacity:1;" d="M 40.78125 37.511719 L 46.492188 43.222656 C 46.492188 44.332031 46.492188 45.441406 46.492188 46.550781 L 37.453125 40.832031 C 37.453125 39.722656 37.453125 38.613281 37.453125 37.503906 L 45.230469 37.503906 Z "/>
</g>
</svg>
