<?xml version="1.0" encoding="UTF-8"?>
<svg xmlns="http://www.w3.org/2000/svg" xmlns:xlink="http://www.w3.org/1999/xlink" width="70pt" height="70pt" viewBox="0 0 70 70" version="1.1">
<defs>
<linearGradient id="linear0" gradientUnits="userSpaceOnUse" x1="9" y1="0.31" x2="9" y2="17.69" gradientTransform="matrix(3.888889,0,0,3.888889,0,0)">
<stop offset="0" style="stop-color:rgb(77.647059%,60.392157%,92.156863%);stop-opacity:1;"/>
<stop offset="0.09" style="stop-color:rgb(73.333333%,56.470588%,89.411765%);stop-opacity:1;"/>
<stop offset="0.49" style="stop-color:rgb(57.254902%,41.960784%,78.823529%);stop-opacity:1;"/>
<stop offset="0.81" style="stop-color:rgb(47.058824%,32.941176%,72.156863%);stop-opacity:1;"/>
<stop offset="1" style="stop-color:rgb(43.529412%,29.411765%,69.803922%);stop-opacity:1;"/>
</linearGradient>
</defs>
<g id="surface1">
<path style=" stroke:none;fill-rule:nonzero;fill:url(#linear0);" d="M 68.679688 11.121094 L 59.382813 190.554688 C 58.847656 168.90625 58.25 168.65625 57.710938 189.855469 L 40.484375 186.667969 C 40.421875 96.574219 39.773438 21.425781 38.890625 2.527344 L 1.320313 39.9375 C 1.320313 41.015625 1.320313 42.089844 1.320313 43.167969 L 26.367188 68.09375 C 27.273438 76.988281 28.726563 76.988281 29.632813 68.09375 L 67.316406 30.644531 C 67.535156 33.414063 67.757813 32.929688 67.976563 29.207031 L 66.617188 12.910156 C 67.265625 46.234375 68.035156 45.566406 68.679688 11.121094 Z M 57.476563 17.226563 C 55.777344 17.226563 54.242188 16.199219 53.59375 14.625 C 52.945313 13.050781 53.3125 11.242188 54.523438 10.042969 C 55.730469 8.847656 57.542969 8.496094 59.113281 9.160156 C 60.679688 9.820313 61.695313 11.363281 61.679688 13.066406 C 61.679688 14.175781 61.234375 15.242188 60.445313 16.023438 C 59.65625 16.804688 58.589844 17.238281 57.476563 17.226563 Z "/>
<path style=" stroke:none;fill-rule:nonzero;fill:rgb(33.333333%,18.431373%,60%);fill-opacity:1;" d="M 57.476563 5.601563 C 53.359375 5.621094 50.035156 8.972656 50.050781 13.09375 C 50.0625 17.210938 53.410156 20.539063 57.53125 20.535156 C 61.648438 20.527344 64.984375 17.183594 64.984375 13.066406 C 64.960938 8.9375 61.609375 5.601563 57.476563 5.601563 Z M 61.601563 13.882813 C 61.1875 15.949219 59.308594 17.394531 57.207031 17.253906 C 55.101563 17.117188 53.425781 15.441406 53.289063 13.339844 C 53.152344 11.234375 54.59375 9.355469 56.660156 8.945313 C 58.035156 8.671875 59.457031 9.101563 60.449219 10.09375 C 61.441406 11.085938 61.875 12.507813 61.601563 13.882813 Z "/>
</g>
</svg>
