<?xml version="1.0" encoding="UTF-8"?>
<svg xmlns="http://www.w3.org/2000/svg" xmlns:xlink="http://www.w3.org/1999/xlink" width="70pt" height="70pt" viewBox="0 0 70 70" version="1.1">
<defs>
<radialGradient id="radial0" gradientUnits="userSpaceOnUse" cx="9" cy="7.35" fx="9" fy="7.35" r="6.42" gradientTransform="matrix(3.888889,0,0,3.888889,0,0)">
<stop offset="0" style="stop-color:rgb(51,168,255);stop-opacity:1;"/>
<stop offset="0.21" style="stop-color:rgb(47,166,255);stop-opacity:1;"/>
<stop offset="0.43" style="stop-color:rgb(31,159,255);stop-opacity:1;"/>
<stop offset="0.65" style="stop-color:rgb(3,148,255);stop-opacity:1;"/>
<stop offset="0.88" style="stop-color:rgb(0,127,222);stop-opacity:1;"/>
<stop offset="1" style="stop-color:rgb(0,112,196);stop-opacity:1;"/>
</radialGradient>
<linearGradient id="linear0" gradientUnits="userSpaceOnUse" x1="9.02" y1="3.91" x2="9.08" y2="11.49" gradientTransform="matrix(3.888889,0,0,3.888889,0,0)">
<stop offset="0" style="stop-color:rgb(229,243,255);stop-opacity:1;"/>
<stop offset="0.23" style="stop-color:rgb(227,243,255);stop-opacity:0.988235;"/>
<stop offset="0.37" style="stop-color:rgb(219,239,255);stop-opacity:0.94902;"/>
<stop offset="0.48" style="stop-color:rgb(205,233,255);stop-opacity:0.890196;"/>
<stop offset="0.58" style="stop-color:rgb(187,226,255);stop-opacity:0.811765;"/>
<stop offset="0.67" style="stop-color:rgb(165,216,255);stop-opacity:0.701961;"/>
<stop offset="0.76" style="stop-color:rgb(137,204,255);stop-opacity:0.568627;"/>
<stop offset="0.84" style="stop-color:rgb(105,191,255);stop-opacity:0.411765;"/>
<stop offset="0.92" style="stop-color:rgb(65,174,255);stop-opacity:0.219608;"/>
<stop offset="0.99" style="stop-color:rgb(23,156,255);stop-opacity:0.0196078;"/>
<stop offset="1" style="stop-color:rgb(19,154,255);stop-opacity:0;"/>
</linearGradient>
</defs>
<g id="surface1">
<path style=" stroke:none;fill-rule:nonzero;fill:rgb(157,213,255);fill-opacity:1;" d="M 39.785156 67.628906 L 42.933594 64.246094 L 42.933594 55.222656 L 27.222656 55.222656 L 27.222656 64.246094 L 30.371094 402.578125 C 31.296875 422.980469 32.210938 364.636719 32.414063 272.261719 C 32.617188 179.886719 32.035156 88.460938 31.109375 68.054688 L 38.890625 68.054688 C 39.175781 79.003906 39.496094 78.851563 39.785156 67.628906 Z "/>
<path style=" stroke:none;fill-rule:nonzero;fill:url(#radial0);" d="M 35 1.945313 C 28.425781 1.878906 22.136719 4.640625 17.738281 9.53125 C 13.339844 14.417969 11.257813 20.960938 12.015625 27.496094 C 13.066406 37.101563 22.207031 41.570313 24.8125 53.746094 C 25.007813 139.1875 25.761719 200.179688 26.640625 201.523438 L 43.359375 201.523438 C 43.933594 232.1875 44.621094 231.632813 45.1875 200.042969 C 42.582031 187.871094 56.855469 183.398438 57.984375 173.792969 C 105.4375 167.449219 138.761719 123.832031 132.417969 76.378906 C 126.070313 28.921875 82.453125 -4.402344 35 1.945313 Z "/>
<path style=" stroke:none;fill-rule:nonzero;fill:url(#linear0);" d="M 44.566406 14.738281 C 41.574219 14.84375 39.230469 17.347656 39.316406 20.339844 L 39.316406 23.332031 L 31.109375 23.332031 L 31.109375 20.339844 C 31.140625 18.863281 30.578125 17.441406 29.546875 16.386719 C 28.515625 15.332031 27.101563 14.738281 25.628906 14.738281 C 22.636719 14.84375 20.289063 17.347656 20.378906 20.339844 C 20.289063 23.339844 22.628906 25.851563 25.628906 25.976563 L 28.117188 25.976563 L 28.117188 49.3125 C 28.117188 126.632813 28.742188 189.3125 29.515625 189.3125 C 30.289063 189.3125 30.917969 126.632813 30.917969 49.3125 L 30.917969 25.976563 L 39.316406 25.976563 L 39.316406 49.3125 C 39.316406 126.632813 39.945313 189.3125 40.714844 189.3125 C 41.488281 189.3125 42.117188 126.632813 42.117188 49.3125 L 42.117188 25.976563 L 39.667969 25.976563 C 41.109375 25.925781 42.476563 25.304688 43.460938 24.246094 C 44.445313 23.1875 44.96875 21.78125 44.917969 20.339844 C 45.84375 18.550781 45.710938 16.398438 44.566406 14.738281 Z M 28.117188 23.332031 L 25.472656 23.332031 C 24.636719 65.296875 23.652344 64.179688 22.828125 20.339844 L 19.832031 310.996094 Z M 44.761719 23.332031 L 42.117188 23.332031 L 42.117188 20.183594 C 41.992188 -81.226563 42.464844 -180.691406 43.328125 -235.308594 C 44.191406 -289.925781 45.292969 -289.925781 46.15625 -235.308594 C 47.019531 -180.691406 47.492188 -81.226563 47.367188 20.183594 C 46.554688 63.386719 45.582031 64.558594 44.761719 23.332031 Z "/>
<path style=" stroke:none;fill-rule:nonzero;fill:rgb(51,168,255);fill-opacity:1;" d="M 27.066406 61.445313 L 42.933594 58.371094 L 42.933594 56.621094 L 27.066406 59.734375 Z "/>
<path style=" stroke:none;fill-rule:nonzero;fill:rgb(51,168,255);fill-opacity:1;" d="M 42.933594 62.648438 L 42.933594 60.9375 L 27.066406 64.089844 L 27.066406 64.246094 L 28.273438 65.566406 Z "/>
</g>
</svg>
