<?xml version="1.0" encoding="UTF-8"?>
<svg xmlns="http://www.w3.org/2000/svg" xmlns:xlink="http://www.w3.org/1999/xlink" width="70pt" height="70pt" viewBox="0 0 70 70" version="1.1">
<g id="surface1">
<path style=" stroke:none;fill-rule:nonzero;fill:rgb(100%,100%,100%);fill-opacity:1;" d="M 65.621094 48.488281 C 65.621094 60.363281 55.992188 69.996094 44.113281 69.996094 C 32.234375 69.996094 22.605469 60.367188 22.605469 48.488281 C 22.605469 36.609375 32.234375 26.980469 44.113281 26.980469 C 55.988281 26.980469 65.621094 36.609375 65.621094 48.488281 Z "/>
<path style=" stroke:none;fill-rule:nonzero;fill:rgb(25.490196%,48.235294%,91.372549%);fill-opacity:1;" d="M 52.085938 44.683594 C 49.636719 44.683594 47.648438 46.675781 47.648438 49.136719 C 47.648438 50.566406 47.332031 51.925781 46.765625 53.144531 C 45.261719 56.367188 42.003906 58.597656 38.226563 58.597656 C 33.023438 58.597656 28.804688 54.359375 28.804688 49.136719 C 33.96875 49.171875 38.144531 53.351563 38.183594 58.515625 L 38.183594 60.761719 C 40.304688 62.511719 41.242188 65.316406 40.597656 67.988281 L 47.824219 75.214844 L 40.597656 73.1875 C 40.796875 70.042969 40.476563 72.832031 39.765625 75.226563 C 39.765625 73.722656 89.347656 72.332031 41.097656 71.214844 C 42.203125 62.898438 49.84375 57.054688 58.160156 58.160156 C 66.480469 59.269531 72.324219 66.910156 71.214844 75.226563 C 74.703125 75.226563 77.5625 77.921875 77.84375 81.347656 L 75.617188 81.347656 C 75.34375 79.152344 73.476563 77.453125 71.214844 77.453125 Z "/>
<path style=" stroke:none;fill-rule:evenodd;fill:rgb(25.490196%,48.235294%,91.372549%);fill-opacity:1;" d="M 46.738281 53.199219 C 45.222656 56.390625 41.980469 58.597656 38.226563 58.597656 C 33.023438 58.597656 28.804688 54.359375 28.804688 49.136719 C 33.972656 49.167969 38.15625 53.351563 38.1875 58.519531 L 38.1875 60.769531 C 40.308594 62.515625 41.246094 65.320313 40.605469 67.992188 L 47.832031 75.222656 L 40.605469 73.191406 C 40.804688 70.050781 40.484375 72.835938 39.769531 75.230469 L 46.441406 75.230469 C 40.472656 77.167969 43.765625 78.957031 47.722656 79.550781 C 51.679688 80.144531 55.257813 79.386719 56.371094 77.71875 C 57.480469 76.054688 55.828125 73.917969 52.382813 72.5625 C 55.746094 72.5625 58.523438 75.066406 58.972656 78.320313 C 75.863281 108.457031 99.441406 108.457031 99.441406 108.457031 L 97.210938 108.457031 C 96.9375 106.261719 95.074219 104.5625 92.8125 104.5625 C 90.363281 104.5625 88.378906 106.554688 88.378906 109.015625 C 78.3125 107.894531 71.0625 98.824219 72.183594 88.757813 C 73.304688 78.691406 82.375 71.441406 92.441406 72.5625 Z M 37.335938 39.464844 C 38.25 -112.699219 51.328125 -228.648438 66.542969 -219.507813 C 81.761719 -210.367188 93.355469 -79.605469 92.441406 72.5625 L 92.441406 74.808594 C 92.253906 1071.511719 172.898438 1881.023438 272.570313 1882.910156 C 372.238281 1884.792969 453.191406 1078.335938 453.378906 81.632813 L 460.238281 88.492188 L 460.242188 81.632813 C 452.65625 85.15625 453.175781 88.488281 454.539063 89.070313 C 455.902344 89.65625 457.59375 87.273438 458.316406 83.746094 C 460.144531 83.722656 461.90625 84.441406 463.203125 85.734375 C 464.496094 87.027344 465.214844 88.792969 465.1875 90.621094 C 465.1875 89.035156 987.273438 87.570313 466.59375 86.390625 C 467.761719 191.382813 383.597656 277.441406 278.609375 278.609375 C 173.617188 279.777344 87.558594 195.609375 86.390625 90.621094 C 90.070313 90.621094 93.085938 93.464844 93.386719 97.078125 C 93.5625 1188.417969 182.179688 2071.675781 291.3125 2069.890625 C 400.445313 2068.109375 488.773438 1181.960938 488.59375 90.621094 L 486.363281 90.621094 C 486.515625 89.875 486.597656 88.179688 486.558594 86.523438 C 486.519531 84.871094 486.375 83.699219 486.203125 83.699219 C 486.035156 83.699219 485.886719 84.871094 485.847656 86.523438 C 485.8125 88.179688 485.890625 89.875 486.042969 90.621094 C 485.792969 88.605469 484.078125 87.046875 482.007813 87.046875 C 479.761719 87.046875 477.9375 88.875 477.9375 91.132813 C 477.9375 92.621094 477.605469 94.03125 477.015625 95.296875 C 475.457031 98.640625 472.074219 100.960938 468.148438 100.960938 C 32.816406 58.960938 28.4375 54.5625 28.4375 49.136719 C 28.4375 46.425781 29.527344 43.976563 31.292969 42.199219 C 32.613281 41.921875 33.980469 41.921875 35.300781 42.199219 Z "/>
<path style=" stroke:none;fill-rule:nonzero;fill:rgb(7.843137%,32.54902%,78.431373%);fill-opacity:1;" d="M 52.027344 55.996094 C 36.5625 56.203125 23.859375 43.839844 23.648438 28.378906 C 23.441406 12.914063 35.804688 0.210938 51.269531 0 L 52.402344 -2.03125 C 52.214844 -1.265625 51.820313 -0.5625 51.269531 0 C 53.375 0 55.144531 -1.492188 55.644531 -3.511719 L 57.953125 -3.511719 C 57.417969 -0.191406 54.628906 2.339844 51.269531 2.339844 Z "/>
<path style=" stroke:none;fill-rule:evenodd;fill:rgb(7.843137%,32.54902%,78.431373%);fill-opacity:1;" d="M 48.609375 55.34375 C 50.136719 -78.890625 40.496094 -200.097656 27.070313 -215.378906 C 13.648438 -230.660156 1.527344 -134.234375 0 0 L 1.132813 -2.03125 C 1.023438 9.039063 1.832031 18.910156 2.9375 20.019531 C 4.042969 21.125 5.03125 13.046875 5.140625 1.976563 C 7.070313 1.976563 8.699219 0.613281 9.164063 -1.257813 C 9.078125 -30.035156 6.671875 -52.640625 3.792969 -51.75 C 0.914063 -50.855469 -1.34375 -26.800781 -1.257813 1.976563 L 1.050781 1.976563 C 1.050781 8.351563 0.535156 13.519531 -0.101563 13.519531 C -0.738281 13.519531 -1.257813 8.351563 -1.257813 1.976563 C -1.820313 5.464844 -4.753906 8.136719 -8.304688 8.136719 C -8.160156 9.523438 -8.4375 10.921875 -9.101563 12.148438 Z M 58.644531 50.507813 C 57.96875 53.648438 55.261719 55.996094 52.027344 55.996094 C 39.917969 56.203125 29.933594 46.558594 29.722656 34.449219 C 29.515625 22.339844 39.160156 12.355469 51.269531 12.148438 L 52.402344 10.113281 C 52.214844 10.882813 51.824219 11.585938 51.269531 12.148438 C 53.375 12.148438 55.144531 10.65625 55.648438 8.636719 L 57.957031 8.636719 C 54.75 7.25 51.011719 8.351563 49.074219 11.261719 C 47.136719 14.167969 47.558594 18.042969 50.074219 20.46875 C 52.589844 22.890625 56.480469 23.164063 59.3125 21.121094 C 62.144531 19.078125 63.109375 15.296875 61.601563 12.148438 Z "/>
<path style=" stroke:none;fill-rule:nonzero;fill:rgb(53.333333%,68.235294%,94.509804%);fill-opacity:1;" d="M 44.058594 44.941406 C 45.046875 47.539063 44.5 50.46875 42.644531 52.535156 L 42.644531 39.738281 C 44.308594 130.15625 45.867188 45.574219 47.207031 41.121094 C 48.199219 100.183594 49.078125 42.46875 49.796875 43.355469 L 48.144531 44.941406 Z "/>
<path style=" stroke:none;fill-rule:evenodd;fill:rgb(53.333333%,68.235294%,94.509804%);fill-opacity:1;" d="M 44.027344 45.304688 C 43.894531 44.78125 43.738281 45.105469 43.636719 46.136719 C 43.535156 47.167969 43.503906 48.703125 43.558594 50.050781 C 43.613281 51.398438 43.738281 52.300781 43.886719 52.347656 L 51.113281 59.578125 L 43.886719 53.078125 C 44.074219 52.351563 44.226563 52.515625 44.226563 52.71875 C 44.226563 52.917969 44.074219 53.078125 43.886719 53.078125 L 43.886719 39.738281 C 43.515625 39.738281 43.21875 42.726563 43.21875 46.40625 C 43.21875 50.089844 43.515625 53.078125 43.886719 53.078125 C 45.613281 146.410156 47.222656 113.597656 48.617188 54.507813 C 49.644531 115.757813 50.554688 55.90625 51.300781 56.824219 C 51.40625 1419.992188 161.996094 2524.214844 298.3125 2523.179688 C 434.628906 2522.144531 545.050781 1416.242188 544.945313 53.078125 L 543.296875 54.664063 C 543.339844 334.546875 566.066406 561.078125 594.050781 560.640625 C 622.039063 560.203125 644.695313 332.957031 644.652344 53.078125 Z M 43.828125 44.65625 C 43.75 138.144531 63.015625 331.945313 63.015625 331.945313 L 64.667969 330.359375 C 65.851563 333.832031 64.988281 337.675781 62.433594 340.308594 L 62.433594 342.546875 C 63.976563 353.484375 65.390625 409.628906 66.53125 344.097656 C 499.992188 344.921875 778.199219 345.269531 67.660156 345.269531 Z "/>
</g>
</svg>
