<?xml version="1.0" encoding="UTF-8"?>
<svg xmlns="http://www.w3.org/2000/svg" xmlns:xlink="http://www.w3.org/1999/xlink" width="70pt" height="70pt" viewBox="0 0 70 70" version="1.1">
<defs>
<linearGradient id="linear0" gradientUnits="userSpaceOnUse" x1="9" y1="16.39" x2="9" y2="-1.94" gradientTransform="matrix(3.888889,0,0,3.888889,0,0)">
<stop offset="0" style="stop-color:rgb(0%,47.058824%,83.137255%);stop-opacity:1;"/>
<stop offset="0.16" style="stop-color:rgb(7.45098%,50.196078%,85.490196%);stop-opacity:1;"/>
<stop offset="0.53" style="stop-color:rgb(23.529412%,56.862745%,89.803922%);stop-opacity:1;"/>
<stop offset="0.82" style="stop-color:rgb(33.333333%,61.176471%,92.54902%);stop-opacity:1;"/>
<stop offset="1" style="stop-color:rgb(36.862745%,62.745098%,93.72549%);stop-opacity:1;"/>
</linearGradient>
<linearGradient id="linear1" gradientUnits="userSpaceOnUse" x1="9.88" y1="7.11" x2="9.99" y2="17.27" gradientTransform="matrix(3.888889,0,0,3.888889,0,0)">
<stop offset="0" style="stop-color:rgb(19.607843%,83.137255%,96.078431%);stop-opacity:1;"/>
<stop offset="0.32" style="stop-color:rgb(19.215686%,81.960784%,95.294118%);stop-opacity:1;"/>
<stop offset="0.53" style="stop-color:rgb(18.039216%,78.823529%,92.156863%);stop-opacity:1;"/>
<stop offset="0.7" style="stop-color:rgb(16.078431%,72.941176%,87.058824%);stop-opacity:1;"/>
<stop offset="0.86" style="stop-color:rgb(13.333333%,64.705882%,79.607843%);stop-opacity:1;"/>
<stop offset="1" style="stop-color:rgb(9.803922%,54.117647%,70.196078%);stop-opacity:1;"/>
<stop offset="1" style="stop-color:rgb(9.803922%,54.117647%,70.196078%);stop-opacity:1;"/>
</linearGradient>
</defs>
<g id="surface1">
<path style=" stroke:none;fill-rule:nonzero;fill:url(#linear0);" d="M 68.054688 35.3125 C 67.832031 28.03125 62.363281 21.988281 55.144531 21.039063 C 47.234375 19.945313 39.503906 23.988281 35.894531 31.109375 C 34.09375 22.265625 26.445313 15.824219 17.421875 15.554688 C 8.71875 16.59375 2.09375 23.863281 1.867188 32.628906 C 2.246094 42.539063 10.582031 50.265625 20.496094 49.894531 C 21.039063 49.933594 21.585938 49.933594 22.128906 49.894531 L 52.265625 49.894531 C 52.523438 53.96875 52.785156 53.96875 53.042969 49.894531 C 61.171875 49.898438 67.824219 43.433594 68.054688 35.3125 Z "/>
<path style=" stroke:none;fill-rule:nonzero;fill:url(#linear1);" d="M 57.59375 66.890625 L 20.105469 66.890625 C 18.898438 66.890625 18.199219 64.984375 18.859375 63.972656 L 31.773438 45.148438 C 31.863281 45.800781 31.953125 45.515625 32.042969 44.292969 L 32.042969 31.851563 C 31.828125 30.367188 31.546875 30.089844 31.304688 31.109375 L 30.605469 31.109375 C 30.144531 57.054688 29.582031 56.488281 29.128906 29.632813 L 29.128906 28.972656 C 29.582031 2.117188 30.144531 1.550781 30.605469 27.496094 L 47.054688 27.496094 C 47.871094 27.496094 48.535156 93.65625 48.535156 175.273438 L 48.535156 175.933594 C 47.730469 175.949219 47.070313 111.570313 47.054688 31.109375 L 46.355469 31.109375 C 45.949219 31.109375 45.617188 64.191406 45.617188 105 L 45.617188 44.332031 C 45.609375 75.066406 45.707031 105.132813 45.890625 129.890625 L 58.800781 148.671875 C 59.460938 64.945313 58.761719 66.890625 57.59375 66.890625 Z "/>
<path style=" stroke:none;fill-rule:nonzero;fill:rgb(100%,100%,100%);fill-opacity:1;" d="M 24.421875 61.832031 L 34.222656 47.523438 C 34.480469 49.617188 34.742188 48.9375 35 45.5 L 35 39.746094 C 35.347656 19.25 35.777344 18.820313 36.128906 38.617188 L 41.726563 38.617188 C 42.351563 38.617188 42.855469 89.109375 42.855469 151.394531 L 42.855469 45.890625 C 42.855469 94.574219 43.003906 142.09375 43.285156 182 L 53.316406 196.582031 C 53.480469 223.242188 53.492188 256.535156 53.351563 284.371094 C 53.207031 312.207031 52.929688 330.535156 52.617188 332.695313 L 25.394531 332.695313 C 24.644531 359.542969 23.824219 320.671875 23.554688 245.875 C 23.285156 171.078125 23.675781 88.679688 24.421875 61.832031 Z "/>
</g>
</svg>
