<?xml version="1.0" encoding="UTF-8"?>
<svg xmlns="http://www.w3.org/2000/svg" xmlns:xlink="http://www.w3.org/1999/xlink" width="70pt" height="70pt" viewBox="0 0 70 70" version="1.1">
<defs>
<linearGradient id="linear0" gradientUnits="userSpaceOnUse" x1="9" y1="17.5" x2="9" y2="0.5" gradientTransform="matrix(3.888889,0,0,3.888889,0,0)">
<stop offset="0" style="stop-color:rgb(0,108,188);stop-opacity:1;"/>
<stop offset="0.817" style="stop-color:rgb(41,164,255);stop-opacity:1;"/>
</linearGradient>
</defs>
<g id="surface1">
<path style=" stroke:none;fill-rule:nonzero;fill:rgb(255,255,255);fill-opacity:1;" d="M 38.757813 2438.332031 L 10.621094 2438.332031 C 10.679688 1813.441406 10.472656 1192.246094 10.050781 728.492188 C 9.628906 264.738281 9.027344 1.769531 8.398438 4.667969 L 8.398438 65.332031 C 8.398438 654.933594 8.632813 1220.742188 9.050781 1638.019531 C 9.464844 2055.292969 10.03125 2289.777344 10.621094 2289.777344 L 59.378906 2289.777344 C 60.066406 2685.753906 60.914063 2684.90625 61.601563 2287.554688 L 61.601563 25.179688 C 60.914063 -372.171875 60.066406 -373.019531 59.378906 22.957031 L 43.199219 22.957031 C 42.511719 418.933594 41.664063 418.085938 40.976563 20.734375 L 40.976563 4.667969 C 40.351563 2.980469 39.75 266.316406 39.328125 729.777344 C 38.90625 1193.238281 38.699219 1813.722656 38.757813 2438.332031 Z "/>
<path style=" stroke:none;fill-rule:nonzero;fill:url(#linear0);" d="M 37.722656 5.277344 L 37.722656 20.519531 C 37.722656 23.601563 40.222656 26.105469 43.308594 26.109375 L 58.65625 26.109375 L 58.65625 64.722656 L 11.335938 64.722656 L 11.335938 5.277344 L 37.722656 5.277344 M 38.804688 19.445313 L 10.257813 19.445313 C 9.011719 21.589844 8.003906 1032.550781 8.003906 2278.890625 L 8.003906 65.796875 C 8.003906 1312.136719 9.011719 2323.09375 10.257813 2325.242188 L 59.742188 2325.242188 C 60.441406 2726.65625 61.300781 2725.796875 61.996094 2322.980469 L 61.996094 25.03125 C 61.304688 -15.960938 60.441406 -16.820313 59.742188 22.777344 L 43.3125 22.777344 C 42.613281 62.371094 41.753906 61.511719 41.058594 20.519531 L 41.058594 4.203125 C 40.359375 -393.207031 39.5 -387.398438 38.804688 19.445313 Z "/>
<path style=" stroke:none;fill-rule:nonzero;fill:rgb(0,108,188);fill-opacity:1;" d="M 61.132813 23.222656 L 40.28125 2438.332031 L 40.28125 19.375 C 41.390625 817.117188 42.839844 963.835938 44.085938 404.375 Z "/>
<path style=" stroke:none;fill-rule:nonzero;fill:rgb(47,166,255);fill-opacity:1;" d="M 18.039063 20.34375 L 18.039063 34.125 C 18.042969 428.421875 18.25 792.535156 18.59375 990.3125 C 18.933594 1188.09375 19.355469 1189.757813 19.695313 994.679688 L 31.753906 987.789063 C 31.753906 987.148438 31.753906 986.507813 31.753906 985.867188 L 19.695313 978.976563 C 19.695313 585.023438 19.484375 221.535156 19.144531 24.222656 C 18.804688 -173.089844 18.382813 -174.566406 18.039063 20.34375 Z "/>
<path style=" stroke:none;fill-rule:nonzero;fill:rgb(41,164,255);fill-opacity:1;" d="M 19.570313 40.515625 L 44.777344 40.515625 C 45.730469 40.515625 46.503906 41.289063 46.503906 42.242188 L 46.503906 42.632813 C 46.503906 43.585938 45.730469 44.359375 44.777344 44.359375 L 19.570313 44.359375 C 18.617188 44.359375 17.84375 43.585938 17.84375 42.632813 L 17.84375 42.242188 C 17.84375 41.289063 18.617188 40.515625 19.570313 40.515625 Z "/>
<path style=" stroke:none;fill-rule:nonzero;fill:rgb(41,164,255);fill-opacity:1;" d="M 19.570313 47.402344 L 44.777344 47.402344 C 45.730469 47.402344 46.503906 48.175781 46.503906 49.128906 L 46.503906 49.519531 C 46.503906 50.476563 45.730469 51.246094 44.777344 51.246094 L 19.570313 51.246094 C 18.617188 51.246094 17.84375 50.476563 17.84375 49.519531 L 17.84375 49.128906 C 17.84375 48.175781 18.617188 47.402344 19.570313 47.402344 Z "/>
<path style=" stroke:none;fill-rule:nonzero;fill:rgb(41,164,255);fill-opacity:1;" d="M 19.570313 54.292969 L 34.179688 54.292969 C 35.132813 54.292969 35.90625 55.066406 35.90625 56.019531 L 35.90625 56.414063 C 35.90625 57.367188 35.132813 58.140625 34.179688 58.140625 L 19.570313 58.140625 C 18.617188 58.140625 17.84375 57.367188 17.84375 56.414063 L 17.84375 56.019531 C 17.84375 55.066406 18.617188 54.292969 19.570313 54.292969 Z "/>
</g>
</svg>
