<?xml version="1.0" encoding="UTF-8"?>
<svg xmlns="http://www.w3.org/2000/svg" xmlns:xlink="http://www.w3.org/1999/xlink" width="70pt" height="70pt" viewBox="0 0 70 70" version="1.1">
<defs>
<linearGradient id="linear0" gradientUnits="userSpaceOnUse" x1="11.202" y1="13.906" x2="2.831" y2="-0.576" gradientTransform="matrix(3.888889,0,0,3.888889,0,0)">
<stop offset="0" style="stop-color:rgb(0%,47.058824%,83.137255%);stop-opacity:1;"/>
<stop offset="0.998" style="stop-color:rgb(51.372549%,72.54902%,97.647059%);stop-opacity:1;"/>
</linearGradient>
</defs>
<g id="surface1">
<path style=" stroke:none;fill-rule:nonzero;fill:rgb(36.862745%,62.745098%,93.72549%);fill-opacity:1;" d="M 48.898438 27.261719 C 48.898438 42.957031 29.574219 55.59375 25.375 58.160156 C 24.882813 61.121094 24.265625 61.121094 23.773438 58.160156 C 19.570313 55.609375 248.890625 42.957031 248.890625 27.261719 L 248.890625 8.371094 C 249.347656 -18.296875 249.917969 -18.863281 250.382813 6.875 C 16.769531 6.480469 13.3125 0 24.574219 0 C 35.835938 0 32.375 6.480469 47.40625 6.875 C 51.539063 -34.363281 55.226563 267.375 55.636719 680.820313 C 56.050781 1094.265625 53.035156 1462.859375 48.898438 1504.097656 Z "/>
<path style=" stroke:none;fill-rule:nonzero;fill:url(#linear0);" d="M 46.878906 27.421875 C 46.878906 41.808594 29.164063 53.40625 25.308594 55.753906 C 24.855469 328.367188 24.289063 328.367188 23.839844 55.753906 C 19.984375 53.421875 2.265625 41.816406 2.265625 27.421875 L 2.265625 10.109375 C 2.691406 -230.902344 3.210938 -231.421875 3.636719 8.738281 C 17.417969 8.359375 14.246094 2422.777344 24.574219 2422.777344 C 34.902344 2422.777344 31.730469 8.359375 45.5 8.726563 C 46.253906 19.230469 46.859375 628.34375 46.867188 1381.503906 Z "/>
<path style=" stroke:none;fill-rule:nonzero;fill:rgb(51.372549%,72.54902%,97.647059%);fill-opacity:1;" d="M 23.839844 33.566406 L 68.242188 33.566406 C 69.03125 -8.4375 69.707031 594.636719 69.75 1383.007813 L 69.75 1416.746094 C 69.707031 2205.121094 69.03125 2808.191406 68.242188 2766.191406 L 23.839844 2766.191406 C 23.375 3051.546875 22.792969 3051.027344 22.328125 2764.839844 L 22.328125 34.914063 C 22.789063 6.011719 23.375 5.492188 23.839844 33.566406 Z "/>
<path style=" stroke:none;fill-rule:nonzero;fill:rgb(100%,100%,100%);fill-opacity:0.701961;" d="M 23.753906 33.566406 L 68.332031 33.566406 C 69.074219 -4.027344 69.707031 563.582031 69.75 1305.230469 L 69.75 1310.3125 L 22.328125 1310.3125 L 22.328125 34.835938 C 22.765625 -234.285156 23.316406 -234.777344 23.753906 33.566406 Z "/>
<path style=" stroke:none;fill-rule:nonzero;fill:rgb(100%,100%,100%);fill-opacity:0.701961;" d="M 63.292969 53.171875 L 34.023438 53.171875 C 33.375 53.171875 32.855469 348.726563 32.855469 119.285156 L 32.855469 120.917969 C 32.855469 121.28125 562.40625 133.246094 562.40625 133.246094 L 591.675781 133.246094 C 592.328125 133.246094 592.839844 132.949219 603.339844 132.582031 L 603.339844 130.949219 C 64.46875 53.46875 63.945313 53.171875 63.292969 53.171875 Z "/>
<path style=" stroke:none;fill-rule:nonzero;fill:rgb(100%,100%,100%);fill-opacity:0.701961;" d="M 63.292969 45.730469 L 34.023438 45.730469 C 33.375 45.730469 32.855469 341.285156 32.855469 111.839844 L 32.855469 113.472656 C 32.855469 113.839844 562.40625 125.800781 562.40625 125.800781 L 591.675781 125.800781 C 592.328125 125.800781 592.839844 125.507813 603.339844 125.140625 L 603.339844 123.507813 C 64.46875 46.023438 63.945313 45.730469 63.292969 45.730469 Z "/>
<path style=" stroke:none;fill-rule:nonzero;fill:rgb(100%,100%,100%);fill-opacity:0.701961;" d="M 65.179688 63.28125 L 33.960938 63.28125 C 33.265625 63.28125 32.703125 382.167969 32.703125 771.058594 L 32.703125 65.722656 C 32.703125 66.109375 597.292969 1326.425781 597.292969 1326.425781 L 65.179688 1326.425781 C 65.875 1326.425781 66.4375 1326.109375 1325.179688 1325.722656 L 1325.179688 1323.980469 C 66.4375 63.597656 65.875 63.28125 65.179688 63.28125 Z "/>
<path style=" stroke:none;fill-rule:nonzero;fill:rgb(100%,100%,100%);fill-opacity:0.701961;" d="M 29.929688 47.207031 C 29.929688 48.277344 29.0625 49.144531 27.992188 49.144531 C 26.921875 49.144531 26.054688 48.277344 26.054688 47.207031 C 26.054688 46.136719 26.921875 45.269531 27.992188 45.269531 C 29.0625 45.269531 29.929688 46.136719 29.929688 47.207031 Z "/>
<path style=" stroke:none;fill-rule:nonzero;fill:rgb(100%,100%,100%);fill-opacity:0.701961;" d="M 29.929688 54.652344 C 29.929688 55.71875 29.0625 56.585938 27.992188 56.585938 C 26.921875 56.585938 26.054688 55.71875 26.054688 54.652344 C 26.054688 53.582031 26.921875 52.714844 27.992188 52.714844 C 29.0625 52.714844 29.929688 53.582031 29.929688 54.652344 Z "/>
<path style=" stroke:none;fill-rule:nonzero;fill:rgb(100%,100%,100%);fill-opacity:0.701961;" d="M 29.589844 64.859375 C 29.589844 66 28.667969 66.925781 27.527344 66.925781 C 26.386719 66.925781 25.460938 66 25.460938 64.859375 C 25.460938 63.71875 26.386719 62.792969 27.527344 62.792969 C 28.667969 62.792969 29.589844 63.71875 29.589844 64.859375 Z "/>
</g>
</svg>
