<?xml version="1.0" encoding="UTF-8"?>
<svg xmlns="http://www.w3.org/2000/svg" xmlns:xlink="http://www.w3.org/1999/xlink" width="70pt" height="70pt" viewBox="0 0 70 70" version="1.1">
<defs>
<linearGradient id="linear0" gradientUnits="userSpaceOnUse" x1="11.122" y1="13.92" x2="2.751" y2="-0.562" gradientTransform="matrix(3.888889,0,0,3.888889,0,0)">
<stop offset="0" style="stop-color:rgb(0,111,194);stop-opacity:1;"/>
<stop offset="0.998" style="stop-color:rgb(91,185,255);stop-opacity:1;"/>
</linearGradient>
</defs>
<g id="surface1">
<path style=" stroke:none;fill-rule:nonzero;fill:rgb(45,165,255);fill-opacity:1;" d="M 48.585938 27.3125 C 48.585938 43.011719 29.265625 55.644531 25.0625 58.207031 C 24.570313 61.171875 23.953125 61.171875 23.460938 58.207031 C 19.257813 55.644531 -0.0625 43.011719 -0.0625 27.3125 L -0.0625 8.425781 C 0.402344 -254.847656 0.96875 -255.417969 1.429688 6.929688 C 16.457031 6.53125 13 50.554688 24.261719 50.554688 C 35.523438 50.554688 32.0625 6.53125 47.09375 6.929688 C 51.230469 -34.308594 54.914063 267.429688 55.328125 680.875 C 55.738281 1094.320313 52.722656 1462.914063 48.585938 1504.152344 Z "/>
<path style=" stroke:none;fill-rule:nonzero;fill:url(#linear0);" d="M 46.570313 27.476563 C 46.570313 41.863281 28.851563 53.457031 24.996094 55.804688 C 24.546875 331.945313 23.980469 331.945313 23.527344 55.804688 C 19.675781 53.457031 19.445313 41.867188 19.445313 27.476563 L 19.445313 10.152344 C 19.867188 -230.859375 20.386719 -231.378906 20.8125 8.78125 C 17.109375 8.414063 13.933594 2473.332031 24.261719 2473.332031 C 34.589844 2473.332031 31.417969 2479.277344 45.199219 2479.640625 C 45.953125 2490.144531 46.5625 3099.257813 46.570313 3852.417969 Z "/>
<path style=" stroke:none;fill-rule:nonzero;fill:rgb(91,185,255);fill-opacity:1;" d="M 23.527344 33.621094 L 67.929688 33.621094 C 68.71875 -10.609375 69.394531 591.34375 69.441406 1379.175781 L 69.441406 1412.914063 C 69.394531 2200.746094 68.71875 2802.699219 67.929688 2758.46875 L 23.527344 2758.46875 C 23.066406 3043.828125 22.480469 3043.308594 22.019531 2757.125 L 22.019531 34.964844 C 22.480469 -251.21875 23.066406 -251.738281 23.527344 33.621094 Z "/>
<path style=" stroke:none;fill-rule:nonzero;fill:rgb(255,255,255);fill-opacity:0.701961;" d="M 23.441406 33.621094 L 68.019531 33.621094 C 68.761719 -6.1875 69.394531 560.296875 69.441406 1301.398438 L 69.441406 1306.484375 L 22.019531 1306.484375 L 22.019531 34.886719 C 22.453125 -235.140625 23.003906 -235.628906 23.441406 33.621094 Z "/>
<path style=" stroke:none;fill-rule:nonzero;fill:rgb(255,255,255);fill-opacity:0.701961;" d="M 63 53.222656 L 33.710938 53.222656 C 33.0625 53.222656 32.546875 348.777344 32.546875 119.335938 L 32.546875 120.96875 C 32.546875 121.332031 562.097656 133.296875 562.097656 133.296875 L 63 133.296875 C 63.652344 133.296875 64.167969 133 74.667969 132.632813 L 74.667969 131 C 64.167969 53.519531 63.632813 53.222656 63 53.222656 Z "/>
<path style=" stroke:none;fill-rule:nonzero;fill:rgb(255,255,255);fill-opacity:0.701961;" d="M 63 45.785156 L 33.710938 45.785156 C 33.0625 45.785156 32.546875 341.339844 32.546875 111.894531 L 32.546875 113.527344 C 32.546875 113.894531 562.097656 125.855469 562.097656 125.855469 L 63 125.855469 C 63.652344 125.855469 64.167969 125.5625 74.667969 125.195313 L 74.667969 123.5625 C 64.167969 46.078125 63.632813 45.785156 63 45.785156 Z "/>
<path style=" stroke:none;fill-rule:nonzero;fill:rgb(255,255,255);fill-opacity:0.701961;" d="M 64.867188 63.335938 L 33.648438 63.335938 C 32.953125 63.335938 32.390625 378.335938 32.390625 767.222656 L 32.390625 768.964844 C 32.390625 769.355469 596.988281 2025.785156 596.988281 2025.785156 L 64.867188 2025.785156 C 65.5625 2025.785156 66.125 2025.46875 1324.867188 2025.078125 L 1324.867188 2023.335938 C 66.109375 63.648438 65.5625 63.335938 64.867188 63.335938 Z "/>
<path style=" stroke:none;fill-rule:nonzero;fill:rgb(255,255,255);fill-opacity:0.701961;" d="M 29.617188 47.261719 C 29.617188 48.332031 28.75 49.199219 27.679688 49.199219 C 26.613281 49.199219 25.746094 48.332031 25.746094 47.261719 C 25.746094 46.191406 26.613281 45.324219 27.679688 45.324219 C 28.75 45.324219 29.617188 46.191406 29.617188 47.261719 Z "/>
<path style=" stroke:none;fill-rule:nonzero;fill:rgb(255,255,255);fill-opacity:0.701961;" d="M 29.617188 54.699219 C 29.617188 55.769531 28.75 56.636719 27.679688 56.636719 C 26.613281 56.636719 25.746094 55.769531 25.746094 54.699219 C 25.746094 53.632813 26.613281 52.765625 27.679688 52.765625 C 28.75 52.765625 29.617188 53.632813 29.617188 54.699219 Z "/>
<path style=" stroke:none;fill-rule:nonzero;fill:rgb(255,255,255);fill-opacity:0.701961;" d="M 29.28125 64.910156 C 29.28125 66.050781 28.355469 66.972656 27.214844 66.972656 C 26.074219 66.972656 25.148438 66.050781 25.148438 64.910156 C 25.148438 63.769531 26.074219 62.84375 27.214844 62.84375 C 28.355469 62.84375 29.28125 63.769531 29.28125 64.910156 Z "/>
</g>
</svg>
