<?xml version="1.0" encoding="UTF-8"?>
<svg xmlns="http://www.w3.org/2000/svg" xmlns:xlink="http://www.w3.org/1999/xlink" width="70pt" height="70pt" viewBox="0 0 70 70" version="1.1">
<defs>
<linearGradient id="linear0" gradientUnits="userSpaceOnUse" x1="9" y1="14.071" x2="9" y2="1.313" gradientTransform="matrix(3.888889,0,0,3.888889,0,0)">
<stop offset="0" style="stop-color:rgb(0%,47.058824%,83.137255%);stop-opacity:1;"/>
<stop offset="0.156" style="stop-color:rgb(7.45098%,50.196078%,85.490196%);stop-opacity:1;"/>
<stop offset="0.528" style="stop-color:rgb(23.529412%,56.862745%,89.803922%);stop-opacity:1;"/>
<stop offset="0.822" style="stop-color:rgb(33.333333%,61.176471%,92.54902%);stop-opacity:1;"/>
<stop offset="1" style="stop-color:rgb(36.862745%,62.745098%,93.72549%);stop-opacity:1;"/>
</linearGradient>
</defs>
<g id="surface1">
<path style=" stroke:none;fill-rule:nonzero;fill:url(#linear0);" d="M 70 39.179688 C 69.769531 31.476563 63.988281 25.078125 56.351563 24.0625 C 55.875 13.222656 46.777344 4.777344 35.933594 5.105469 C 27.292969 4.945313 19.496094 10.257813 16.488281 18.359375 C 7.289063 19.480469 0.28125 27.148438 0 36.414063 C 0.40625 46.902344 9.21875 55.089844 19.707031 54.71875 C 20.296875 54.71875 20.875 54.691406 1758.042969 54.648438 L 1789.957031 54.648438 C 1790.238281 92.035156 1790.523438 91.992188 1790.800781 54.519531 C 1795.039063 -420.667969 1413.257813 -809.316406 938.070313 -813.550781 C 462.882813 -817.785156 74.234375 -436.003906 70 39.179688 Z "/>
<path style=" stroke:none;fill-rule:nonzero;fill:rgb(19.607843%,74.509804%,86.666667%);fill-opacity:1;" d="M 46.925781 45.914063 L 22.195313 45.914063 C 21.835938 -123.671875 21.414063 -83.332031 21.097656 150.914063 L 21.097656 157.648438 C 21.414063 390.375 21.835938 430.671875 22.191406 262.648438 L 46.925781 262.648438 C 47.265625 461.632813 47.683594 461.230469 48.019531 261.597656 L 48.019531 46.960938 C 47.683594 -151.835938 47.265625 -152.238281 46.925781 45.914063 Z "/>
<path style=" stroke:none;fill-rule:nonzero;fill:rgb(9.803922%,54.117647%,70.196078%);fill-opacity:1;" d="M 46.925781 56.058594 L 22.195313 56.058594 C 21.835938 -113.527344 21.414063 -73.1875 21.097656 161.058594 L 21.097656 167.789063 C 21.109375 760.617188 21.597656 1232.515625 22.191406 1221.679688 L 46.925781 1221.679688 C 47.265625 1420.660156 47.683594 1420.257813 48.019531 1220.625 L 48.019531 57.109375 C 47.683594 -141.6875 47.265625 -142.089844 46.925781 56.058594 Z "/>
<path style=" stroke:none;fill-rule:nonzero;fill:rgb(70.588235%,92.54902%,21.176471%);fill-opacity:1;" d="M 43.828125 47.566406 L 45.277344 47.566406 C 45.433594 47.566406 45.558594 172.925781 45.558594 327.566406 L 45.558594 328.949219 C 45.558594 477.144531 45.4375 597.28125 45.289063 597.28125 L 43.816406 597.28125 C 43.734375 645.132813 43.628906 645.03125 43.546875 597.015625 L 43.546875 47.832031 C 43.632813 -2.265625 43.742188 -2.371094 43.828125 47.566406 Z "/>
<path style=" stroke:none;fill-rule:nonzero;fill:rgb(70.588235%,92.54902%,21.176471%);fill-opacity:1;" d="M 43.820313 50.894531 L 45.28125 50.894531 C 45.4375 50.894531 45.5625 176.253906 45.5625 330.894531 L 45.5625 332.265625 C 45.5625 486.90625 45.4375 612.265625 45.28125 612.265625 L 43.828125 612.265625 C 43.742188 662.195313 43.632813 662.089844 43.546875 611.988281 L 43.546875 610.601563 C 43.394531 535.429688 43.328125 349.195313 43.402344 194.636719 C 43.480469 40.078125 43.664063 -24.277344 43.820313 50.894531 Z "/>
<path style=" stroke:none;fill-rule:nonzero;fill:rgb(70.588235%,92.54902%,21.176471%);fill-opacity:1;" d="M 43.902344 57.660156 L 45.363281 57.660156 C 45.519531 57.660156 45.644531 183.019531 45.644531 337.660156 L 45.644531 339.046875 C 45.644531 487.242188 45.523438 607.378906 45.375 607.378906 L 43.914063 607.378906 C 43.828125 657.308594 43.71875 657.203125 43.632813 607.097656 L 43.632813 57.945313 C 43.714844 9.921875 43.820313 9.816406 43.902344 57.660156 Z "/>
<path style=" stroke:none;fill-rule:nonzero;fill:rgb(70.588235%,92.54902%,21.176471%);fill-opacity:1;" d="M 43.902344 60.988281 L 45.363281 60.988281 C 45.519531 60.988281 45.644531 186.351563 45.644531 340.988281 L 45.644531 342.375 C 45.644531 490.570313 45.523438 610.707031 45.375 610.707031 L 43.902344 610.707031 C 43.820313 658.558594 43.714844 658.453125 43.632813 610.4375 L 43.632813 609.042969 C 43.714844 561.027344 43.820313 560.925781 43.902344 608.773438 Z "/>
<path style=" stroke:none;fill-rule:nonzero;fill:rgb(31.372549%,90.196078%,100%);fill-opacity:1;" d="M 46.695313 34.972656 L 21.960938 34.972656 C 21.675781 28.722656 21.398438 136.378906 21.191406 334.144531 C 20.988281 531.910156 20.867188 803.492188 20.863281 1088.863281 L 20.863281 42.777344 C 20.875 634.679688 21.363281 1105.355469 21.957031 1096.667969 L 46.695313 1096.667969 C 47.285156 1105.355469 47.773438 634.679688 47.785156 42.777344 L 47.785156 36.027344 C 47.449219 -162.769531 47.03125 -163.175781 46.695313 34.972656 Z "/>
<path style=" stroke:none;fill-rule:nonzero;fill:rgb(100%,100%,100%);fill-opacity:1;" d="M 43.585938 36.628906 L 45.050781 36.628906 C 45.203125 36.628906 45.328125 161.988281 45.328125 316.628906 L 45.328125 318.015625 C 45.328125 466.210938 45.207031 586.347656 45.0625 586.347656 L 43.59375 586.347656 C 43.507813 636.277344 43.402344 636.171875 43.3125 586.066406 L 43.3125 36.898438 C 43.398438 -12.628906 43.503906 -12.730469 43.585938 36.628906 Z "/>
<path style=" stroke:none;fill-rule:nonzero;fill:rgb(100%,100%,100%);fill-opacity:1;" d="M 43.585938 39.957031 L 45.050781 39.957031 C 45.203125 39.957031 45.328125 165.320313 45.328125 319.957031 L 45.328125 41.609375 C 45.328125 189.808594 45.207031 309.945313 45.0625 309.945313 L 43.585938 309.945313 C 43.503906 357.792969 43.402344 357.691406 43.316406 309.675781 L 43.316406 308.28125 C 43.316406 160.089844 43.4375 39.957031 43.585938 39.957031 Z "/>
<path style=" stroke:none;fill-rule:nonzero;fill:rgb(100%,100%,100%);fill-opacity:1;" d="M 45.246094 28.777344 L 35.796875 38.226563 C 35.355469 82.238281 34.644531 82.238281 34.203125 38.226563 L 24.753906 28.777344 C 24.867188 24.136719 24.996094 23.832031 25.109375 27.917969 L 30.921875 27.917969 C 31.074219 117.378906 31.265625 117.1875 31.421875 27.417969 L 31.421875 15.609375 C 31.535156 14.792969 31.683594 14.644531 31.8125 15.222656 L 38.171875 15.222656 C 38.386719 15.222656 38.5625 16.960938 38.5625 19.109375 L 38.5625 27.421875 C 38.5625 304.484375 38.785156 529.085938 39.0625 529.085938 L 44.875 529.085938 C 43.492188 518.777344 42.457031 398.421875 42.558594 260.265625 C 42.660156 122.109375 43.867188 18.46875 45.246094 28.777344 Z "/>
</g>
</svg>
