<?xml version="1.0" encoding="UTF-8"?>
<svg xmlns="http://www.w3.org/2000/svg" xmlns:xlink="http://www.w3.org/1999/xlink" width="70pt" height="70pt" viewBox="0 0 70 70" version="1.1">
<defs>
<linearGradient id="linear0" gradientUnits="userSpaceOnUse" x1="9" y1="13.343" x2="9" y2="0.586" gradientTransform="matrix(3.888889,0,0,3.888889,0,0)">
<stop offset="0" style="stop-color:rgb(0%,47.058824%,83.137255%);stop-opacity:1;"/>
<stop offset="1" style="stop-color:rgb(36.862745%,62.745098%,93.72549%);stop-opacity:1;"/>
</linearGradient>
<linearGradient id="linear1" gradientUnits="userSpaceOnUse" x1="9.104" y1="10.28" x2="9.104" y2="7.603" gradientTransform="matrix(3.888889,0,0,3.888889,0,0)">
<stop offset="0" style="stop-color:rgb(46.27451%,73.72549%,17.647059%);stop-opacity:1;"/>
<stop offset="0.412" style="stop-color:rgb(47.843137%,76.470588%,18.431373%);stop-opacity:1;"/>
<stop offset="1" style="stop-color:rgb(52.54902%,83.921569%,20%);stop-opacity:1;"/>
</linearGradient>
<linearGradient id="linear2" gradientUnits="userSpaceOnUse" x1="9.119" y1="17.414" x2="9.119" y2="13.924" gradientTransform="matrix(3.888889,0,0,3.888889,0,0)">
<stop offset="0" style="stop-color:rgb(0%,47.058824%,83.137255%);stop-opacity:1;"/>
<stop offset="1" style="stop-color:rgb(36.862745%,62.745098%,93.72549%);stop-opacity:1;"/>
</linearGradient>
</defs>
<g id="surface1">
<path style=" stroke:none;fill-rule:nonzero;fill:url(#linear0);" d="M 70 36.351563 C 69.769531 28.648438 63.988281 22.25 56.351563 21.234375 C -567.085938 15.59375 -1077.046875 516.417969 -1082.6875 1139.851563 C -1088.324219 1763.289063 -587.5 2273.25 35.933594 2278.890625 C 27.296875 2278.726563 19.496094 2284.039063 16.488281 2292.136719 C 640.171875 2287.585938 1142.074219 1778.300781 1137.519531 1154.617188 C 1132.964844 530.9375 623.679688 29.035156 0 33.589844 C 0.410156 44.074219 9.21875 52.257813 19.707031 51.890625 C 20.296875 51.890625 20.875 51.863281 1758.042969 51.816406 L 1789.957031 51.816406 C 1790.238281 89.203125 1790.523438 89.164063 1790.800781 51.691406 C 1795.039063 -423.496094 1413.257813 -812.144531 938.070313 -816.378906 C 462.882813 -820.613281 74.234375 -438.832031 70 36.351563 Z "/>
<path style=" stroke:none;fill-rule:nonzero;fill:rgb(0%,35.686275%,63.137255%);fill-opacity:1;" d="M 32.257813 39.265625 L 38.84375 39.265625 L 38.84375 60.070313 L 32.257813 60.070313 Z "/>
<path style=" stroke:none;fill-rule:nonzero;fill:rgb(100%,100%,100%);fill-opacity:1;" d="M 54.199219 22.554688 C 53.949219 -121.484375 53.644531 -121.78125 53.394531 21.777344 L 43.886719 21.777344 C 43.738281 20.328125 43.605469 108.109375 43.550781 243.417969 C 43.496094 378.730469 43.527344 534.296875 43.632813 636.222656 L 46.375 3378.070313 L 229.152344 3378.070313 C 229.152344 3378.238281 229.152344 3378.410156 229.152344 3378.578125 L 226.246094 6283.578125 C 1954.589844 6231.527344 3313.496094 4788.230469 3261.445313 3059.886719 C 3209.390625 1331.542969 1766.097656 -27.359375 37.753906 24.691406 L 37.753906 18.953125 C 37.863281 -44.277344 38 -44.414063 38.109375 18.59375 L 42.265625 18.59375 C 42.347656 49.773438 42.4375 49.554688 42.519531 17.976563 L 35.777344 11.222656 C 35.625 -140.050781 35.421875 -225.058594 35.207031 -225.058594 C 34.996094 -225.058594 34.789063 -140.050781 34.636719 11.222656 L 27.871094 17.976563 C 27.765625 119.902344 27.734375 275.472656 27.789063 410.78125 C 27.84375 546.089844 27.976563 633.871094 28.125 632.421875 L 32.277344 632.421875 C 32.476563 632.421875 32.640625 794.347656 32.640625 994.089844 L 32.640625 24.691406 C 30.164063 25.316406 28.007813 26.828125 26.574219 28.9375 L 23.441406 25.824219 C 23.441406 25.65625 23.441406 25.488281 23.441406 25.320313 L 23.257813 25.136719 L 2764.925781 22.414063 C 2764.925781 -756279.6875 2151.824219 -1369383.820313 1395.519531 -1369383.992188 C 639.21875 -1369384.167969 26.113281 -756280.320313 26.113281 21.785156 L 16.605469 21.777344 C 16.164063 21.773438 15.800781 379.820313 15.800781 822.890625 L 15.800781 32.078125 C 15.804688 176.535156 15.890625 305.742188 16.023438 360.710938 C 16.15625 415.675781 16.3125 385.851563 16.414063 284.855469 L 19.15625 282.136719 L 201.933594 281.953125 C 202.074219 142.511719 202.300781 142.511719 202.441406 281.953125 L 24.804688 34.371094 C 24.804688 34.503906 24.804688 34.632813 24.804688 34.757813 C 24.804688 40.507813 29.464844 45.167969 35.214844 45.167969 C 40.964844 45.167969 45.625 40.507813 45.625 34.757813 C 45.625 34.5 45.605469 34.242188 45.585938 33.980469 L 50.175781 29.390625 C 50.3125 -110.050781 50.539063 -110.050781 50.679688 29.390625 L 50.863281 214.910156 L 2792.53125 214.910156 C 2792.59375 321.113281 2792.710938 385.671875 2792.835938 385.617188 C 2792.960938 385.566406 2793.078125 320.914063 2793.144531 214.660156 Z "/>
<path style=" stroke:none;fill-rule:nonzero;fill:url(#linear1);" d="M 40.609375 34.769531 C 40.609375 37.644531 38.277344 39.972656 35.40625 39.972656 C 32.53125 39.972656 30.199219 37.644531 30.199219 34.769531 C 30.199219 31.898438 32.53125 29.566406 35.40625 29.566406 C 38.277344 29.566406 40.609375 31.898438 40.609375 34.769531 Z "/>
<path style=" stroke:none;fill-rule:nonzero;fill:url(#linear2);" d="M 42.25 60.933594 C 42.25 64.683594 39.210938 67.722656 35.460938 67.722656 C 31.714844 67.722656 28.675781 64.683594 28.675781 60.933594 C 28.675781 57.1875 31.714844 54.148438 35.460938 54.148438 C 39.210938 54.148438 42.25 57.1875 42.25 60.933594 Z "/>
</g>
</svg>
