<?xml version="1.0" encoding="UTF-8"?>
<svg xmlns="http://www.w3.org/2000/svg" xmlns:xlink="http://www.w3.org/1999/xlink" width="70pt" height="70pt" viewBox="0 0 70 70" version="1.1">
<defs>
<linearGradient id="linear0" gradientUnits="userSpaceOnUse" x1="10.467" y1="9.987" x2="10.467" y2="7.506" gradientTransform="matrix(3.888889,0,0,3.888889,0,0)">
<stop offset="0" style="stop-color:rgb(0,108,188);stop-opacity:1;"/>
<stop offset="1" style="stop-color:rgb(41,164,255);stop-opacity:1;"/>
</linearGradient>
<linearGradient id="linear1" gradientUnits="userSpaceOnUse" x1="4.288" y1="13.077" x2="4.58" y2="5.029" gradientTransform="matrix(3.888889,0,0,3.888889,0,0)">
<stop offset="0" style="stop-color:rgb(0,138,240);stop-opacity:1;"/>
<stop offset="1" style="stop-color:rgb(47,166,255);stop-opacity:1;"/>
</linearGradient>
<linearGradient id="linear2" gradientUnits="userSpaceOnUse" x1="8.711" y1="13.237" x2="9.003" y2="5.189" gradientTransform="matrix(3.888889,0,0,3.888889,0,0)">
<stop offset="0" style="stop-color:rgb(0,138,240);stop-opacity:1;"/>
<stop offset="1" style="stop-color:rgb(47,166,255);stop-opacity:1;"/>
</linearGradient>
<linearGradient id="linear3" gradientUnits="userSpaceOnUse" x1="8.915" y1="13.245" x2="9.207" y2="5.197" gradientTransform="matrix(3.888889,0,0,3.888889,0,0)">
<stop offset="0" style="stop-color:rgb(0,138,240);stop-opacity:1;"/>
<stop offset="1" style="stop-color:rgb(47,166,255);stop-opacity:1;"/>
</linearGradient>
<linearGradient id="linear4" gradientUnits="userSpaceOnUse" x1="4.471" y1="13.083" x2="4.763" y2="5.035" gradientTransform="matrix(3.888889,0,0,3.888889,0,0)">
<stop offset="0" style="stop-color:rgb(0,138,240);stop-opacity:1;"/>
<stop offset="1" style="stop-color:rgb(47,166,255);stop-opacity:1;"/>
</linearGradient>
</defs>
<g id="surface1">
<path style=" stroke:none;fill-rule:nonzero;fill:rgb(71,176,255);fill-opacity:1;" d="M 0 3861.667969 L 7.683594 3861.667969 L 7.683594 18.570313 C 7.683594 675.789063 7.152344 1208.570313 6.496094 1208.570313 L 1.195313 1208.570313 C 0.878906 1209.601563 0.574219 1084.683594 0.351563 861.40625 C 0.125 638.125 0 334.851563 0 18.570313 L 0 6.246094 C 106.464844 -0.113281 193.285156 857.800781 193.921875 1922.445313 C 194.558594 2987.089844 108.765625 3855.308594 2.300781 3861.667969 Z "/>
<path style=" stroke:none;fill-rule:nonzero;fill:rgb(71,176,255);fill-opacity:0.501961;" d="M 0 3861.667969 L 7.683594 3861.667969 L 7.683594 18.570313 C 7.683594 675.789063 7.152344 1208.570313 6.496094 1208.570313 L 1.195313 1208.570313 C 0.878906 1209.601563 0.574219 1084.683594 0.351563 861.40625 C 0.125 638.125 0 334.851563 0 18.570313 L 0 6.246094 C 106.464844 -0.113281 193.285156 857.800781 193.921875 1922.445313 C 194.558594 2987.089844 108.765625 3855.308594 2.300781 3861.667969 Z "/>
<path style=" stroke:none;fill-rule:nonzero;fill:rgb(71,176,255);fill-opacity:1;" d="M 62.320313 3861.667969 L 67.617188 3861.667969 C 68.90625 3861.667969 69.949219 3872.113281 69.949219 3885 L 69.949219 3897.367188 C 69.949219 4554.585938 69.417969 5087.367188 68.757813 5087.367188 L 63.507813 5087.367188 C 63.140625 5299.570313 62.6875 5299.117188 62.320313 5086.175781 L 62.320313 -3.863281 Z "/>
<path style=" stroke:none;fill-rule:nonzero;fill:rgb(71,176,255);fill-opacity:0.501961;" d="M 62.320313 3861.667969 L 67.617188 3861.667969 C 68.90625 3861.667969 69.949219 3872.113281 69.949219 3885 L 69.949219 3897.367188 C 69.949219 4554.585938 69.417969 5087.367188 68.757813 5087.367188 L 63.507813 5087.367188 C 63.140625 5299.570313 62.6875 5299.117188 62.320313 5086.175781 L 62.320313 -3.863281 Z "/>
<path style=" stroke:none;fill-rule:nonzero;fill:rgb(41,164,255);fill-opacity:1;" d="M 69.957031 6.164063 L 69.957031 11.296875 L 0.125 11.296875 L 0.125 6.164063 C 0.804688 1.25 1.695313 0.359375 2.457031 3.832031 L 67.617188 3.832031 C 68.382813 0.328125 69.277344 1.222656 69.957031 6.164063 Z "/>
<path style=" stroke:none;fill-rule:nonzero;fill:rgb(71,176,255);fill-opacity:1;" d="M 0 50.167969 L 6.496094 50.167969 C 7.152344 50.167969 7.683594 582.949219 7.683594 1240.167969 L 7.683594 1254.996094 L 2.382813 1254.996094 C -30.507813 1261.578125 -57.707031 1000.273438 -58.363281 671.355469 C -59.023438 342.4375 -32.890625 70.460938 0 63.878906 C 0 63.835938 0 63.796875 0 63.753906 L 0 51.429688 C 0.347656 -131.511719 0.761719 -131.984375 1.109375 50.167969 Z "/>
<path style=" stroke:none;fill-rule:nonzero;fill:rgb(71,176,255);fill-opacity:0.501961;" d="M 0 50.167969 L 6.496094 50.167969 C 7.152344 50.167969 7.683594 582.949219 7.683594 1240.167969 L 7.683594 1254.996094 L 2.382813 1254.996094 C -30.507813 1261.578125 -57.707031 1000.273438 -58.363281 671.355469 C -59.023438 342.4375 -32.890625 70.460938 0 63.878906 C 0 63.835938 0 63.796875 0 63.753906 L 0 51.429688 C 0.347656 -131.511719 0.761719 -131.984375 1.109375 50.167969 Z "/>
<path style=" stroke:none;fill-rule:nonzero;fill:rgb(71,176,255);fill-opacity:1;" d="M 63.507813 50.167969 L 68.808594 50.167969 C 69.179688 -162.046875 69.632813 -161.601563 70 51.332031 L 70 63.65625 C 70 76.542969 68.957031 86.992188 67.667969 86.992188 L 62.320313 86.992188 L 62.320313 72.40625 C 62.664063 -109.175781 63.078125 -109.652344 63.425781 71.136719 Z "/>
<path style=" stroke:none;fill-rule:nonzero;fill:rgb(71,176,255);fill-opacity:0.501961;" d="M 63.507813 50.167969 L 68.808594 50.167969 C 69.179688 -162.046875 69.632813 -161.601563 70 51.332031 L 70 63.65625 C 70 76.542969 68.957031 86.992188 67.667969 86.992188 L 62.320313 86.992188 L 62.320313 72.40625 C 62.664063 -109.175781 63.078125 -109.652344 63.425781 71.136719 Z "/>
<path style=" stroke:none;fill-rule:nonzero;fill:rgb(41,164,255);fill-opacity:1;" d="M 0 63.835938 L 0 58.722656 L 69.835938 58.722656 L 69.835938 63.855469 C 69.835938 76.742188 68.792969 87.1875 67.503906 87.1875 L 2.332031 87.1875 C 1.042969 87.1875 0 76.730469 0 63.835938 Z "/>
<path style=" stroke:none;fill-rule:nonzero;fill:url(#linear0);" d="M 60.027344 34.332031 L 51.722656 25.914063 C 51.5625 -130.207031 51.308594 -130.238281 51.148438 25.839844 L 55.035156 25.839844 L 51.148438 31.402344 C 63.710938 32.390625 73.816406 135.046875 73.71875 260.691406 C 73.617188 386.335938 63.351563 487.390625 50.789063 486.402344 L 30.449219 486.402344 C 29.542969 485.226563 28.140625 484.53125 26.65625 484.527344 C 26.492188 484.527344 26.328125 484.503906 26.167969 484.503906 C 23.484375 484.511719 21.277344 486.621094 21.152344 489.300781 C 21.023438 491.980469 23.023438 494.289063 25.695313 494.546875 C 25.851563 510.421875 33.628906 518.359375 49.027344 518.359375 C 49.1875 518.359375 49.351563 518.359375 49.507813 518.335938 C 51.015625 518.3125 52.425781 517.605469 53.347656 516.414063 L 50.554688 516.414063 C 50.757813 526.574219 50.921875 681.316406 50.945313 881.96875 L 50.945313 43.554688 C 51.058594 121.664063 51.203125 137.703125 51.332031 86.332031 C 51.4375 86.742188 51.554688 86.6875 51.652344 86.183594 L 59.976563 77.902344 C 59.996094 64 60.011719 49.464844 60.027344 34.332031 Z "/>
<path style=" stroke:none;fill-rule:nonzero;fill:url(#linear1);" d="M 10.679688 21.1875 L 10.679688 33.175781 L 18.277344 33.175781 C 18.972656 30.039063 21.460938 27.613281 24.617188 27 L 24.617188 19.222656 L 12.625 19.222656 C 11.988281 16.335938 11.246094 17.085938 10.679688 21.1875 Z "/>
<path style=" stroke:none;fill-rule:nonzero;fill:url(#linear2);" d="M 39.894531 19.238281 L 27.902344 19.238281 L 27.902344 27.015625 C 512.226563 25.953125 905.710938 417.710938 906.773438 902.035156 C 907.835938 1386.359375 516.074219 1779.84375 31.753906 1780.90625 L 41.839844 1780.90625 L 41.839844 21.183594 C 41.273438 17.089844 40.53125 16.347656 39.894531 19.238281 Z "/>
<path style=" stroke:none;fill-rule:nonzero;fill:url(#linear3);" d="M 27.902344 42.984375 L 27.902344 50.679688 L 39.894531 50.679688 C 40.53125 53.574219 41.273438 52.828125 41.839844 48.734375 L 41.839844 41.191406 L 31.808594 41.191406 C 30.695313 42.136719 29.34375 42.753906 27.902344 42.984375 Z "/>
<path style=" stroke:none;fill-rule:nonzero;fill:url(#linear4);" d="M 18.277344 36.742188 L 10.679688 36.742188 L 10.679688 48.734375 C 10.679688 59.472656 11.550781 68.179688 12.625 68.179688 L 24.617188 68.179688 L 24.617188 42.945313 C 21.433594 42.367188 18.925781 39.910156 18.277344 36.742188 Z "/>
</g>
</svg>
