<?xml version="1.0" encoding="UTF-8"?>
<svg xmlns="http://www.w3.org/2000/svg" xmlns:xlink="http://www.w3.org/1999/xlink" width="70pt" height="70pt" viewBox="0 0 70 70" version="1.1">
<defs>
<linearGradient id="linear0" gradientUnits="userSpaceOnUse" x1="7.94" y1="7.7" x2="7.94" y2="3.75" gradientTransform="matrix(3.888889,0,0,3.888889,0,0)">
<stop offset="0" style="stop-color:rgb(0,138,240);stop-opacity:1;"/>
<stop offset="1" style="stop-color:rgb(47,166,255);stop-opacity:1;"/>
</linearGradient>
<linearGradient id="linear1" gradientUnits="userSpaceOnUse" x1="7.94" y1="14.26" x2="7.94" y2="10.31" gradientTransform="matrix(3.888889,0,0,3.888889,0,0)">
<stop offset="0" style="stop-color:rgb(0,138,240);stop-opacity:1;"/>
<stop offset="1" style="stop-color:rgb(47,166,255);stop-opacity:1;"/>
</linearGradient>
</defs>
<g id="surface1">
<path style=" stroke:none;fill-rule:nonzero;fill:rgb(71,176,255);fill-opacity:1;" d="M 4.121094 5.523438 L 9.140625 5.523438 L 9.140625 19.445313 C 9.140625 81.730469 8.632813 132.222656 8.011719 132.222656 L 2.996094 132.222656 C 2.371094 132.222656 1.867188 81.730469 1.867188 19.445313 L 1.867188 7.777344 C 2.558594 -34.03125 3.421875 -34.894531 4.121094 5.523438 Z "/>
<path style=" stroke:none;fill-rule:nonzero;fill:rgb(71,176,255);fill-opacity:0.501961;" d="M 4.121094 5.523438 L 9.140625 5.523438 L 9.140625 19.445313 C 9.140625 81.730469 8.632813 132.222656 8.011719 132.222656 L 2.996094 132.222656 C 2.371094 132.222656 1.867188 81.730469 1.867188 19.445313 L 1.867188 7.777344 C 2.558594 -34.03125 3.421875 -34.894531 4.121094 5.523438 Z "/>
<path style=" stroke:none;fill-rule:nonzero;fill:rgb(71,176,255);fill-opacity:1;" d="M 60.859375 5.523438 L 65.878906 5.523438 C 67.101563 5.523438 68.09375 104.765625 68.09375 227.1875 L 68.09375 19.445313 C 68.09375 81.730469 67.589844 132.222656 66.964844 132.222656 L 61.988281 132.222656 C 61.367188 132.222656 60.859375 81.730469 60.859375 19.445313 Z "/>
<path style=" stroke:none;fill-rule:nonzero;fill:rgb(71,176,255);fill-opacity:0.501961;" d="M 60.859375 5.523438 L 65.878906 5.523438 C 67.101563 5.523438 68.09375 104.765625 68.09375 227.1875 L 68.09375 19.445313 C 68.09375 81.730469 67.589844 132.222656 66.964844 132.222656 L 61.988281 132.222656 C 61.367188 132.222656 60.859375 81.730469 60.859375 19.445313 Z "/>
<path style=" stroke:none;fill-rule:nonzero;fill:rgb(41,164,255);fill-opacity:1;" d="M 68.09375 7.699219 L 68.09375 12.5625 L 1.984375 12.5625 L 1.984375 7.699219 C -36.929688 7.011719 -36.085938 6.164063 4.199219 5.484375 L 65.878906 5.484375 C 106.164063 6.164063 107.007813 7.011719 68.09375 7.699219 Z "/>
<path style=" stroke:none;fill-rule:nonzero;fill:rgb(71,176,255);fill-opacity:1;" d="M 0 49.351563 L 8.011719 49.351563 C 8.632813 49.351563 9.140625 99.84375 9.140625 162.128906 L 9.140625 176.167969 L 4.121094 176.167969 C 3.207031 188.957031 2.308594 143.535156 1.867188 62.222656 L 1.867188 50.554688 C 2.214844 30.035156 2.644531 29.574219 2.996094 49.351563 Z "/>
<path style=" stroke:none;fill-rule:nonzero;fill:rgb(71,176,255);fill-opacity:0.501961;" d="M 0 49.351563 L 8.011719 49.351563 C 8.632813 49.351563 9.140625 99.84375 9.140625 162.128906 L 9.140625 176.167969 L 4.121094 176.167969 C 3.207031 188.957031 2.308594 143.535156 1.867188 62.222656 L 1.867188 50.554688 C 2.214844 30.035156 2.644531 29.574219 2.996094 49.351563 Z "/>
<path style=" stroke:none;fill-rule:nonzero;fill:rgb(71,176,255);fill-opacity:1;" d="M 61.988281 49.351563 L 67.003906 49.351563 C 67.628906 49.351563 68.132813 99.84375 68.132813 162.128906 L 68.132813 173.792969 C 68.132813 296.21875 67.140625 395.460938 65.917969 395.460938 L 60.859375 395.460938 L 60.859375 50.554688 C 61.207031 30.035156 61.636719 29.574219 61.988281 49.351563 Z "/>
<path style=" stroke:none;fill-rule:nonzero;fill:rgb(71,176,255);fill-opacity:0.501961;" d="M 61.988281 49.351563 L 67.003906 49.351563 C 67.628906 49.351563 68.132813 99.84375 68.132813 162.128906 L 68.132813 173.792969 C 68.132813 296.21875 67.140625 395.460938 65.917969 395.460938 L 60.859375 395.460938 L 60.859375 50.554688 C 61.207031 30.035156 61.636719 29.574219 61.988281 49.351563 Z "/>
<path style=" stroke:none;fill-rule:nonzero;fill:rgb(41,164,255);fill-opacity:1;" d="M 1.867188 62.300781 L 1.867188 57.4375 L 67.976563 57.4375 L 67.976563 62.300781 C 106.890625 62.988281 106.046875 63.835938 65.761719 64.515625 L 4.082031 64.515625 C -36.203125 63.835938 -37.046875 62.988281 1.867188 62.300781 Z "/>
<path style=" stroke:none;fill-rule:nonzero;fill:rgb(41,164,255);fill-opacity:1;" d="M 57.984375 34.378906 L 50.90625 27.222656 C 50.808594 14.5 50.636719 10.09375 50.488281 16.53125 C 50.339844 22.972656 50.257813 38.605469 50.285156 54.445313 L 50.285156 31.890625 C 50.171875 40.976563 50.019531 42.515625 49.894531 35.777344 L 29.515625 35.777344 C 28.746094 34.773438 27.554688 34.1875 26.289063 34.183594 C 24.671875 34.027344 23.105469 34.804688 22.246094 36.1875 C 21.390625 37.566406 21.390625 39.316406 22.246094 40.695313 C 23.105469 42.078125 24.671875 42.855469 26.289063 42.699219 C 27.570313 42.683594 28.773438 42.082031 29.554688 41.066406 L 49.894531 41.066406 C 49.992188 39.957031 50.09375 43.148438 50.167969 49.835938 C 50.242188 56.523438 50.285156 66.070313 50.285156 76.066406 L 50.285156 80.382813 C 50.277344 95.464844 50.367188 109.222656 50.511719 114.523438 C 50.652344 119.820313 50.8125 115.464844 50.90625 103.714844 L 57.984375 96.679688 C 59.703125 96.679688 61.097656 82.730469 61.097656 65.527344 C 61.097656 48.324219 59.703125 34.378906 57.984375 34.378906 Z "/>
<path style=" stroke:none;fill-rule:nonzero;fill:url(#linear0);" d="M 44.917969 21.738281 L 37.839844 14.699219 C 37.742188 1.980469 37.570313 -2.429688 37.421875 4.011719 C 37.273438 10.449219 37.191406 26.082031 37.214844 41.921875 L 37.214844 19.445313 C 37.117188 26.941406 36.980469 28.429688 36.867188 23.332031 L 24.109375 23.332031 C 23.324219 22.328125 22.121094 21.742188 20.84375 21.738281 C 18.828125 21.699219 17.058594 23.070313 16.59375 25.03125 C 16.132813 26.996094 17.101563 29.015625 18.921875 29.878906 C 20.742188 30.746094 22.921875 30.222656 24.148438 28.621094 L 36.867188 28.621094 C 37.058594 28.621094 37.214844 44.292969 37.214844 63.621094 L 37.214844 29.59375 C 37.210938 44.675781 37.300781 58.433594 37.445313 63.734375 C 37.585938 69.03125 37.746094 64.675781 37.839844 52.929688 L 44.917969 45.890625 C 45.582031 45.890625 46.125 40.484375 46.125 33.8125 C 46.125 27.144531 45.582031 21.738281 44.917969 21.738281 Z "/>
<path style=" stroke:none;fill-rule:nonzero;fill:url(#linear1);" d="M 44.917969 47.25 L 37.839844 40.210938 C 37.742188 27.488281 37.570313 23.082031 37.421875 29.523438 C 37.273438 35.960938 37.191406 51.59375 37.214844 67.433594 L 37.214844 71.710938 C 37.21875 73.714844 37.066406 75.398438 36.867188 75.601563 L 24.109375 75.601563 C 23.324219 74.597656 22.121094 74.007813 20.84375 74.003906 C 27.320313 74.917969 33.308594 70.410156 34.222656 63.933594 C 35.136719 57.457031 30.625 51.46875 24.148438 50.554688 L 36.867188 50.554688 C 37.058594 50.554688 37.214844 66.226563 37.214844 85.554688 L 37.214844 89.871094 C 37.210938 104.953125 37.300781 118.710938 37.445313 124.011719 C 37.585938 129.308594 37.746094 124.953125 37.839844 113.207031 L 44.917969 106.167969 C 46.542969 106.167969 47.863281 92.976563 47.863281 76.707031 C 47.863281 60.4375 46.542969 47.25 44.917969 47.25 Z "/>
</g>
</svg>
