<?xml version="1.0" encoding="UTF-8"?>
<svg xmlns="http://www.w3.org/2000/svg" xmlns:xlink="http://www.w3.org/1999/xlink" width="70pt" height="70pt" viewBox="0 0 70 70" version="1.1">
<defs>
<linearGradient id="linear0" gradientUnits="userSpaceOnUse" x1="5.05" y1="10.55" x2="5.05" y2="13.48" gradientTransform="matrix(3.888889,0,0,3.888889,0,0)">
<stop offset="0" style="stop-color:rgb(47,166,255);stop-opacity:1;"/>
<stop offset="1" style="stop-color:rgb(0,138,240);stop-opacity:1;"/>
</linearGradient>
<linearGradient id="linear1" gradientUnits="userSpaceOnUse" x1="12.84" y1="10.57" x2="12.84" y2="13.5" gradientTransform="matrix(3.888889,0,0,3.888889,0,0)">
<stop offset="0" style="stop-color:rgb(47,166,255);stop-opacity:1;"/>
<stop offset="1" style="stop-color:rgb(0,138,240);stop-opacity:1;"/>
</linearGradient>
</defs>
<g id="surface1">
<path style=" stroke:none;fill-rule:nonzero;fill:rgb(41,164,255);fill-opacity:1;" d="M 12.40625 60.667969 C 10.316406 60.832031 8.226563 60.3125 6.457031 59.1875 C 5.121094 57.769531 4.480469 55.835938 4.707031 53.898438 L 4.707031 40.171875 C 4.707031 37.917969 3.8125 36.710938 1.945313 36.710938 L 1.945313 33.289063 C 3.8125 33.289063 4.707031 32.082031 278.054688 29.710938 L 278.054688 16.214844 C 277.84375 14.246094 278.480469 12.28125 279.804688 10.8125 C 279.398438 84.652344 219.207031 144.179688 145.367188 143.773438 C 71.527344 143.363281 11.996094 83.171875 12.40625 9.332031 L 12.40625 12.792969 C 10.421875 12.792969 9.332031 117.792969 9.332031 343.351563 L 9.332031 356.570313 C 9.332031 359.605469 8.4375 361.472656 6.457031 362.25 C 8.519531 363.34375 9.671875 365.617188 9.332031 367.929688 L 9.332031 381.035156 C -64.484375 381.214844 -124.179688 441.207031 -123.996094 515.023438 C -123.816406 588.84375 -63.824219 648.539063 9.996094 648.355469 L 17.773438 648.355469 L 9.996094 651.816406 Z "/>
<path style=" stroke:none;fill-rule:nonzero;fill:rgb(41,164,255);fill-opacity:1;" d="M 57.59375 9.332031 C 98.402344 7.691406 132.816406 39.441406 134.457031 80.246094 C 136.101563 121.054688 104.351563 155.46875 63.542969 157.109375 C 64.878906 158.53125 65.519531 160.464844 65.292969 162.398438 L 65.292969 29.828125 C 65.292969 32.082031 158.199219 309.398438 158.199219 309.398438 L 158.199219 312.820313 C 156.332031 312.820313 155.4375 433.378906 155.4375 670.601563 L 155.4375 683.9375 C 155.65625 685.921875 155.019531 687.902344 153.6875 689.382813 C 197.71875 691.027344 232.078125 728.050781 230.4375 772.082031 C 228.792969 816.109375 191.769531 850.472656 147.738281 848.828125 L 147.738281 845.367188 C 145.753906 845.367188 150.8125 844.316406 454.960938 842.0625 L 454.960938 828.839844 C 454.960938 825.804688 544.40625 823.9375 742.738281 823.160156 C 740.675781 822.066406 739.523438 819.792969 739.859375 817.484375 L 739.859375 16.214844 C 739.898438 15.289063 739.667969 14.371094 739.199219 13.570313 L 738.421875 13.570313 Z "/>
<path style=" stroke:none;fill-rule:nonzero;fill:rgb(0,81,142);fill-opacity:1;" d="M 36.59375 32.472656 L 36.59375 27.535156 L 33.09375 27.535156 L 33.09375 32.472656 C 33.09375 71.132813 32.78125 102.472656 32.394531 102.472656 L 19.445313 102.472656 C 18.671875 102.472656 18.042969 165.152344 18.042969 242.472656 L 18.042969 248.890625 L 21.542969 248.890625 L 21.542969 37.449219 C 21.75 26.167969 21.996094 25.90625 22.207031 36.75 L 47.640625 36.75 C 48.027344 36.75 48.339844 68.089844 48.339844 106.75 L 48.339844 110.367188 L 51.800781 110.367188 L 51.800781 34.570313 C 51.378906 10.597656 50.863281 10.066406 50.4375 33.171875 L 37.292969 33.171875 C 37.078125 45.460938 36.808594 45.195313 36.59375 32.472656 Z "/>
<path style=" stroke:none;fill-rule:nonzero;fill:rgb(0,108,188);fill-opacity:1;" d="M 41.261719 12.484375 L 28.195313 12.484375 C 27.394531 12.457031 26.738281 76.28125 26.714844 156.371094 L 26.714844 26.988281 C 26.714844 65.835938 26.875 103.035156 27.152344 130.132813 C 27.429688 157.234375 27.804688 171.925781 28.195313 170.878906 L 41.261719 170.878906 C 41.65625 173.015625 42.042969 158.804688 42.328125 131.585938 C 42.617188 104.367188 42.777344 66.539063 42.777344 26.988281 L 42.777344 13.921875 C 42.3125 -14.445313 41.730469 -14.996094 41.261719 12.484375 Z M 40.015625 24.8125 C 39.996094 76.980469 39.566406 118.1875 39.042969 118.144531 L 30.371094 118.144531 C 30.070313 135.222656 29.699219 134.867188 29.398438 117.210938 L 29.398438 16.140625 C 29.699219 -1.53125 30.070313 -1.902344 30.371094 15.167969 L 38.890625 15.167969 C 39.425781 15.167969 39.859375 58.695313 39.859375 112.390625 Z "/>
<path style=" stroke:none;fill-rule:nonzero;fill:url(#linear0);" d="M 14.972656 41.027344 L 24.304688 41.027344 C 24.886719 41.027344 25.355469 41.496094 25.355469 42.078125 L 25.355469 51.410156 C 25.355469 51.992188 24.886719 52.460938 24.304688 52.460938 L 14.972656 52.460938 C 14.390625 52.460938 13.921875 51.992188 13.921875 51.410156 L 13.921875 42.078125 C 13.921875 41.496094 14.390625 41.027344 14.972656 41.027344 Z "/>
<path style=" stroke:none;fill-rule:nonzero;fill:url(#linear1);" d="M 45.304688 41.105469 L 54.640625 41.105469 C 55.21875 41.105469 55.6875 41.574219 55.6875 42.15625 L 55.6875 51.488281 C 55.6875 52.070313 55.21875 52.539063 54.640625 52.539063 L 45.304688 52.539063 C 44.726563 52.539063 44.253906 52.070313 44.253906 51.488281 L 44.253906 42.15625 C 44.253906 41.574219 44.726563 41.105469 45.304688 41.105469 Z "/>
</g>
</svg>
