<?xml version="1.0" encoding="UTF-8"?>
<svg xmlns="http://www.w3.org/2000/svg" xmlns:xlink="http://www.w3.org/1999/xlink" width="70pt" height="70pt" viewBox="0 0 70 70" version="1.1">
<g id="surface1">
<path style=" stroke:none;fill-rule:nonzero;fill:rgb(0,102,178);fill-opacity:1;" d="M 0 0 C 0.464844 0 0 0.464844 0 1.167969 L 0 15.167969 C 0 15.867188 467.367188 1182.53125 467.367188 1182.53125 L 474.367188 1182.53125 C 475.066406 1182.53125 475.53125 1182.066406 1640.566406 1181.367188 L 1640.566406 9.332031 L 1691.898438 9.332031 L 1691.898438 15.167969 C 1691.898438 15.867188 2159.265625 16.566406 1693.066406 16.566406 L 1699.832031 16.566406 C 1700.53125 16.566406 1701 16.101563 2866.03125 15.402344 L 2866.03125 1.402344 C 70 0.464844 69.535156 0 68.832031 0 Z M 67.667969 70 C 68.367188 70 68.832031 69.535156 1233.867188 68.832031 L 1233.867188 55.066406 C 1233.867188 54.367188 1233.402344 53.902344 1232.703125 53.902344 L 1225.933594 53.902344 C 1225.234375 53.902344 1224.769531 520.101563 1224.769531 1220.101563 L 1224.769531 1225.703125 L 9.332031 1225.703125 L 9.332031 1219.867188 C 9.332031 1219.167969 8.867188 1218.703125 7.933594 1218.703125 L -1.167969 1218.703125 C -1.867188 1218.703125 -2.332031 1684.902344 -2.332031 1220.101563 L -2.332031 1233.867188 C -2.332031 1234.566406 465.035156 2401.234375 465.035156 2401.234375 L 532.703125 2401.234375 Z "/>
<path style=" stroke:none;fill-rule:nonzero;fill:rgb(57,171,255);fill-opacity:1;" d="M 17.253906 35.996094 C 16.078125 153.59375 14.511719 37.820313 12.847656 37.820313 C 11.183594 37.820313 9.621094 37.171875 8.441406 35.996094 L 0 27.554688 L 0 44.714844 L 25.695313 44.714844 L 25.695313 27.554688 Z "/>
<path style=" stroke:none;fill-rule:nonzero;fill:rgb(57,171,255);fill-opacity:1;" d="M 12.847656 36.566406 C 14.179688 36.566406 15.425781 36.046875 16.367188 35.109375 L 25.695313 25.78125 L 25.695313 25.285156 L 0 25.285156 L 0 25.78125 L 9.328125 35.109375 C -0.367188 27.992188 -2.457031 14.359375 4.664063 4.664063 C 11.78125 -5.03125 25.414063 -7.121094 35.109375 0 Z M 61.558594 35.996094 C 60.382813 153.59375 58.816406 37.820313 57.152344 37.820313 C 55.488281 37.820313 53.921875 37.171875 52.746094 35.996094 L 44.304688 27.554688 L 44.304688 44.714844 L 70 44.714844 L 70 27.554688 Z "/>
<path style=" stroke:none;fill-rule:nonzero;fill:rgb(57,171,255);fill-opacity:1;" d="M 57.152344 36.566406 C 58.480469 36.566406 59.730469 36.046875 60.671875 35.109375 L 70 25.78125 L 70 25.285156 L 44.304688 25.285156 L 44.304688 25.78125 L 53.632813 35.109375 C 43.9375 40.226563 31.929688 36.511719 26.816406 26.816406 C 21.699219 17.121094 25.414063 5.113281 35.109375 0 Z "/>
<path style=" stroke:none;fill-rule:nonzero;fill:rgb(115,195,255);fill-opacity:1;" d="M 36.136719 33.289063 L 40.457031 33.289063 L 40.457031 36.699219 L 36.136719 36.699219 Z M 29.457031 33.289063 L 34.027344 33.289063 L 34.027344 36.699219 L 29.457031 36.699219 Z "/>
</g>
</svg>
