<?xml version="1.0" encoding="UTF-8"?>
<svg xmlns="http://www.w3.org/2000/svg" xmlns:xlink="http://www.w3.org/1999/xlink" width="70pt" height="70pt" viewBox="0 0 70 70" version="1.1">
<defs>
<linearGradient id="linear0" gradientUnits="userSpaceOnUse" x1="10.275" y1="11.03" x2="10.275" y2="7.773" gradientTransform="matrix(3.888889,0,0,3.888889,0,0)">
<stop offset="0" style="stop-color:rgb(0%,47.058824%,83.137255%);stop-opacity:1;"/>
<stop offset="1" style="stop-color:rgb(36.862745%,62.745098%,93.72549%);stop-opacity:1;"/>
</linearGradient>
</defs>
<g id="surface1">
<path style=" stroke:none;fill-rule:nonzero;fill:rgb(63.921569%,63.921569%,63.921569%);fill-opacity:1;" d="M 0 3861.667969 L 7.683594 3861.667969 L 7.683594 18.570313 C 7.683594 675.789063 7.152344 1208.570313 6.496094 1208.570313 L 1.195313 1208.570313 C 0.878906 1209.601563 0.574219 1084.683594 0.351563 861.40625 C 0.125 638.125 0 334.851563 0 18.570313 L 0 6.246094 C 106.464844 -0.113281 193.285156 857.800781 193.921875 1922.445313 C 194.558594 2987.089844 108.765625 3855.308594 2.300781 3861.667969 Z "/>
<path style=" stroke:none;fill-rule:nonzero;fill:rgb(63.921569%,63.921569%,63.921569%);fill-opacity:0.501961;" d="M 0 3861.667969 L 7.683594 3861.667969 L 7.683594 18.570313 C 7.683594 675.789063 7.152344 1208.570313 6.496094 1208.570313 L 1.195313 1208.570313 C 0.878906 1209.601563 0.574219 1084.683594 0.351563 861.40625 C 0.125 638.125 0 334.851563 0 18.570313 L 0 6.246094 C 106.464844 -0.113281 193.285156 857.800781 193.921875 1922.445313 C 194.558594 2987.089844 108.765625 3855.308594 2.300781 3861.667969 Z "/>
<path style=" stroke:none;fill-rule:nonzero;fill:rgb(63.921569%,63.921569%,63.921569%);fill-opacity:1;" d="M 62.320313 3861.667969 L 67.617188 3861.667969 C 68.90625 3861.667969 69.949219 3872.113281 69.949219 3885 L 69.949219 3897.367188 C 69.949219 4554.585938 69.417969 5087.367188 68.757813 5087.367188 L 63.507813 5087.367188 C 63.140625 5299.570313 62.6875 5299.117188 62.320313 5086.175781 L 62.320313 -3.863281 Z "/>
<path style=" stroke:none;fill-rule:nonzero;fill:rgb(63.921569%,63.921569%,63.921569%);fill-opacity:0.501961;" d="M 62.320313 3861.667969 L 67.617188 3861.667969 C 68.90625 3861.667969 69.949219 3872.113281 69.949219 3885 L 69.949219 3897.367188 C 69.949219 4554.585938 69.417969 5087.367188 68.757813 5087.367188 L 63.507813 5087.367188 C 63.140625 5299.570313 62.6875 5299.117188 62.320313 5086.175781 L 62.320313 -3.863281 Z "/>
<path style=" stroke:none;fill-rule:nonzero;fill:rgb(58.039216%,58.039216%,58.039216%);fill-opacity:1;" d="M 69.957031 6.164063 L 69.957031 11.296875 L 0.125 11.296875 L 0.125 6.164063 C 0.804688 1.25 1.695313 0.359375 2.457031 3.832031 L 67.617188 3.832031 C 68.382813 0.328125 69.277344 1.222656 69.957031 6.164063 Z "/>
<path style=" stroke:none;fill-rule:nonzero;fill:rgb(63.921569%,63.921569%,63.921569%);fill-opacity:1;" d="M 0 50.167969 L 6.496094 50.167969 C 7.152344 50.167969 7.683594 582.949219 7.683594 1240.167969 L 7.683594 1254.996094 L 2.382813 1254.996094 C -30.507813 1261.578125 -57.707031 1000.273438 -58.363281 671.355469 C -59.023438 342.4375 -32.890625 70.460938 0 63.878906 C 0 63.835938 0 63.796875 0 63.753906 L 0 51.429688 C 0.347656 -131.511719 0.761719 -131.984375 1.109375 50.167969 Z "/>
<path style=" stroke:none;fill-rule:nonzero;fill:rgb(63.921569%,63.921569%,63.921569%);fill-opacity:0.501961;" d="M 0 50.167969 L 6.496094 50.167969 C 7.152344 50.167969 7.683594 582.949219 7.683594 1240.167969 L 7.683594 1254.996094 L 2.382813 1254.996094 C -30.507813 1261.578125 -57.707031 1000.273438 -58.363281 671.355469 C -59.023438 342.4375 -32.890625 70.460938 0 63.878906 C 0 63.835938 0 63.796875 0 63.753906 L 0 51.429688 C 0.347656 -131.511719 0.761719 -131.984375 1.109375 50.167969 Z "/>
<path style=" stroke:none;fill-rule:nonzero;fill:rgb(63.921569%,63.921569%,63.921569%);fill-opacity:1;" d="M 63.507813 50.167969 L 68.808594 50.167969 C 69.179688 -162.046875 69.632813 -161.601563 70 51.332031 L 70 63.65625 C 70 76.542969 68.957031 86.992188 67.667969 86.992188 L 62.320313 86.992188 L 62.320313 72.40625 C 62.664063 -109.175781 63.078125 -109.652344 63.425781 71.136719 Z "/>
<path style=" stroke:none;fill-rule:nonzero;fill:rgb(63.921569%,63.921569%,63.921569%);fill-opacity:0.501961;" d="M 63.507813 50.167969 L 68.808594 50.167969 C 69.179688 -162.046875 69.632813 -161.601563 70 51.332031 L 70 63.65625 C 70 76.542969 68.957031 86.992188 67.667969 86.992188 L 62.320313 86.992188 L 62.320313 72.40625 C 62.664063 -109.175781 63.078125 -109.652344 63.425781 71.136719 Z "/>
<path style=" stroke:none;fill-rule:nonzero;fill:rgb(58.039216%,58.039216%,58.039216%);fill-opacity:1;" d="M 0 63.835938 L 0 58.722656 L 69.835938 58.722656 L 69.835938 63.855469 C 69.835938 76.742188 68.792969 87.1875 67.503906 87.1875 L 2.332031 87.1875 C 1.042969 87.1875 0 76.730469 0 63.835938 Z "/>
<path style=" stroke:none;fill-rule:nonzero;fill:url(#linear0);" d="M 50.242188 43.914063 C 50.34375 87.085938 50.457031 87.027344 50.558594 43.757813 L 58.882813 35.480469 C 58.882813 35.070313 58.882813 34.65625 58.882813 34.246094 L 50.558594 25.832031 C 50.488281 25.011719 50.382813 24.535156 50.273438 24.523438 C 50.164063 24.507813 50.058594 24.957031 49.984375 25.757813 L 53.871094 25.757813 L 49.984375 31.320313 C 50.007813 256.636719 49.847656 459.90625 49.621094 486.320313 L 30.085938 486.320313 C 29.175781 485.140625 27.777344 484.449219 26.289063 484.445313 C 26.125 484.445313 25.964844 484.421875 25.808594 484.421875 C 23.125 484.429688 20.917969 486.539063 20.789063 489.21875 C 20.664063 491.898438 22.660156 494.207031 25.332031 494.464844 C 25.492188 494.464844 25.652344 494.464844 25.8125 494.464844 C 25.96875 494.464844 26.128906 494.464844 26.289063 494.464844 C 27.796875 494.441406 29.210938 493.734375 30.132813 492.542969 L 49.433594 492.542969 C 49.640625 493.171875 49.816406 650.308594 49.839844 858.097656 L 49.839844 863.222656 C 50.066406 973.835938 50.339844 880.09375 50.449219 653.847656 C 50.558594 427.601563 50.46875 154.523438 50.242188 43.914063 Z "/>
<path style=" stroke:none;fill-rule:nonzero;fill:rgb(46.666667%,22.745098%,86.27451%);fill-opacity:1;" d="M 34.558594 41.105469 C 31.867188 44.886719 27.039063 46.496094 22.617188 45.089844 C 18.195313 43.683594 15.183594 39.585938 15.171875 34.945313 C 15.15625 30.304688 18.140625 26.183594 22.554688 24.75 C 26.96875 23.316406 31.804688 24.898438 34.519531 28.660156 L 40.3125 28.660156 C 37.347656 21.824219 29.988281 18.007813 22.691406 19.53125 C 15.394531 21.050781 10.171875 27.488281 10.1875 34.941406 C 10.199219 42.390625 15.449219 48.808594 22.75 50.304688 C 30.050781 51.796875 37.398438 47.953125 40.335938 41.105469 Z "/>
</g>
</svg>
