<?xml version="1.0" encoding="UTF-8"?>
<svg xmlns="http://www.w3.org/2000/svg" xmlns:xlink="http://www.w3.org/1999/xlink" width="70pt" height="70pt" viewBox="0 0 70 70" version="1.1">
<g id="surface1">
<path style=" stroke:none;fill-rule:nonzero;fill:rgb(0%,44.705882%,77.647059%);fill-opacity:1;" d="M 0 0 C 0.464844 0 0 0.464844 0 1.167969 L 0 15.167969 C 0 15.867188 467.367188 1182.53125 467.367188 1182.53125 L 474.367188 1182.53125 C 475.066406 1182.53125 475.53125 1182.066406 1640.566406 1181.367188 L 1640.566406 9.332031 L 1691.898438 9.332031 L 1691.898438 15.167969 C 1691.898438 15.867188 2159.265625 16.566406 1693.066406 16.566406 L 1699.832031 16.566406 C 1700.53125 16.566406 1701 16.101563 2866.03125 15.402344 L 2866.03125 1.402344 C 70 0.464844 69.535156 0 68.832031 0 Z M 67.667969 70 C 68.367188 70 68.832031 69.535156 1233.867188 68.832031 L 1233.867188 55.066406 C 1233.867188 54.367188 1233.402344 53.902344 1232.703125 53.902344 L 1225.933594 53.902344 C 1225.234375 53.902344 1224.769531 520.101563 1224.769531 1220.101563 L 1224.769531 1225.703125 L 9.332031 1225.703125 L 9.332031 1219.867188 C 9.332031 1219.167969 8.867188 1218.703125 7.933594 1218.703125 L -1.167969 1218.703125 C -1.867188 1218.703125 -2.332031 1684.902344 -2.332031 1220.101563 L -2.332031 1233.867188 C -2.332031 1234.566406 465.035156 2401.234375 465.035156 2401.234375 L 532.703125 2401.234375 Z "/>
<path style=" stroke:none;fill-rule:nonzero;fill:rgb(72.156863%,83.137255%,19.607843%);fill-opacity:1;" d="M 25.828125 31.890625 L 28.851563 28.871094 L 31.085938 31.105469 L 28.066406 34.128906 Z M 30.210938 27.511719 L 33.234375 24.484375 L 35.472656 26.726563 L 32.449219 29.75 Z M 36.835938 25.355469 L 34.59375 23.128906 L 37.589844 20.132813 L 39.828125 22.359375 Z M 34.59375 45.9375 L 36.835938 43.695313 L 39.828125 46.695313 L 37.589844 48.933594 Z M 33.234375 44.5625 L 30.210938 41.539063 L 32.453125 39.3125 L 35.476563 42.335938 Z M 28.855469 40.179688 L 25.828125 37.15625 L 28.070313 34.929688 L 31.078125 37.941406 Z "/>
<path style=" stroke:none;fill-rule:nonzero;fill:rgb(34.901961%,70.588235%,85.098039%);fill-opacity:1;" d="M 50.582031 21.347656 C 51.652344 -294.890625 308.882813 -550.386719 625.121094 -549.316406 C 941.359375 -548.246094 1196.855469 -291.015625 1195.785156 25.222656 L 39.761719 16.050781 L 39.761719 26.816406 L 55.882813 26.816406 L 55.882813 16.050781 Z "/>
<path style=" stroke:none;fill-rule:nonzero;fill:rgb(34.901961%,70.588235%,85.098039%);fill-opacity:1;" d="M 47.820313 21.703125 C 48.652344 21.703125 49.4375 21.378906 50.027344 20.789063 L 55.878906 14.9375 L 55.878906 14.625 L 39.757813 14.625 L 39.757813 14.9375 L 45.613281 20.789063 C 46.199219 611.5625 959.8125 22.996094 959.8125 22.996094 Z M 50.582031 48.960938 C 51.652344 -267.277344 308.882813 -522.773438 625.121094 -521.703125 C 941.359375 -520.628906 1196.855469 -263.402344 1195.785156 52.835938 L 39.761719 43.664063 L 39.761719 54.429688 L 55.882813 54.429688 L 55.882813 43.664063 Z "/>
<path style=" stroke:none;fill-rule:nonzero;fill:rgb(34.901961%,70.588235%,85.098039%);fill-opacity:1;" d="M 47.820313 49.316406 C 48.652344 49.316406 49.4375 48.992188 50.027344 48.402344 L 55.878906 42.550781 L 55.878906 42.238281 L 39.757813 42.238281 L 39.757813 42.550781 L 45.613281 48.402344 C 46.199219 639.175781 959.8125 50.609375 959.8125 50.609375 Z M 17.253906 35.523438 C 16.078125 153.125 14.511719 37.347656 12.847656 37.347656 C 11.183594 37.347656 9.621094 36.699219 8.441406 35.523438 L 0 27.082031 L 0 44.242188 L 25.695313 44.242188 L 25.695313 27.082031 Z "/>
<path style=" stroke:none;fill-rule:nonzero;fill:rgb(34.901961%,70.588235%,85.098039%);fill-opacity:1;" d="M 12.847656 36.09375 C 14.179688 36.09375 15.425781 35.578125 16.367188 34.636719 L 25.695313 25.308594 L 25.695313 24.816406 L 0 24.816406 L 0 25.3125 L 9.328125 34.640625 C -0.238281 27.648438 -2.324219 14.230469 4.664063 4.664063 C 11.652344 -4.902344 25.070313 -6.988281 34.636719 0 Z "/>
</g>
</svg>
