<?xml version="1.0" encoding="UTF-8"?>
<svg xmlns="http://www.w3.org/2000/svg" xmlns:xlink="http://www.w3.org/1999/xlink" width="70pt" height="70pt" viewBox="0 0 70 70" version="1.1">
<defs>
<linearGradient id="linear0" gradientUnits="userSpaceOnUse" x1="9.83" y1="1.59" x2="9.83" y2="8.94" gradientTransform="matrix(3.888889,0,0,3.888889,0,0)">
<stop offset="0" style="stop-color:rgb(100%,100%,100%);stop-opacity:1;"/>
<stop offset="0.56" style="stop-color:rgb(98.431373%,98.431373%,98.431373%);stop-opacity:1;"/>
<stop offset="1" style="stop-color:rgb(94.901961%,94.901961%,94.901961%);stop-opacity:1;"/>
</linearGradient>
<linearGradient id="linear1" gradientUnits="userSpaceOnUse" x1="5.71" y1="7.13" x2="5.82" y2="17.51" gradientTransform="matrix(3.888889,0,0,3.888889,0,0)">
<stop offset="0" style="stop-color:rgb(19.607843%,83.137255%,96.078431%);stop-opacity:1;"/>
<stop offset="0.32" style="stop-color:rgb(19.215686%,81.960784%,95.294118%);stop-opacity:1;"/>
<stop offset="0.53" style="stop-color:rgb(18.039216%,78.823529%,92.156863%);stop-opacity:1;"/>
<stop offset="0.7" style="stop-color:rgb(16.078431%,72.941176%,87.058824%);stop-opacity:1;"/>
<stop offset="0.86" style="stop-color:rgb(13.333333%,64.705882%,79.607843%);stop-opacity:1;"/>
<stop offset="1" style="stop-color:rgb(9.803922%,54.117647%,70.196078%);stop-opacity:1;"/>
<stop offset="1" style="stop-color:rgb(9.803922%,54.117647%,70.196078%);stop-opacity:1;"/>
</linearGradient>
</defs>
<g id="surface1">
<path style=" stroke:none;fill-rule:nonzero;fill:rgb(0%,47.058824%,83.137255%);fill-opacity:1;" d="M 38.226563 202.222656 C 56.195313 202.222656 67.160156 15.554688 68.054688 33.640625 C 68.121094 34.90625 67.660156 36.144531 66.785156 37.0625 C 65.910156 37.980469 64.695313 38.5 63.429688 38.5 L 12.871094 38.5 C 11.625 38.46875 10.445313 37.9375 9.605469 37.019531 C 8.761719 36.101563 8.324219 34.882813 8.398438 33.640625 C 9.292969 15.554688 20.261719 202.222656 38.226563 202.222656 Z "/>
<path style=" stroke:none;fill-rule:nonzero;fill:url(#linear0);" d="M 12.988281 35.429688 C 12.570313 55.136719 12.082031 54.535156 11.667969 33.792969 C 12.328125 16.332031 24.34375 5.09375 38.226563 5.09375 C 52.109375 5.09375 64.128906 16.332031 64.984375 33.792969 C 64.847656 39.992188 64.703125 44.484375 64.554688 47.171875 L 111.222656 47.171875 Z "/>
<path style=" stroke:none;fill-rule:nonzero;fill:rgb(36.862745%,62.745098%,93.72549%);fill-opacity:1;" d="M 52.695313 14.738281 C 49.105469 11.519531 44.550781 9.578125 39.746094 9.214844 L 39.746094 19.445313 C 110.621094 17.78125 169.425781 73.886719 171.089844 144.765625 C 172.757813 215.640625 116.648438 274.445313 45.773438 276.109375 Z "/>
<path style=" stroke:none;fill-rule:nonzero;fill:rgb(0%,47.058824%,83.137255%);fill-opacity:1;" d="M 23.761719 14.738281 L 30.683594 21.855469 C 32.414063 20.503906 34.488281 19.667969 36.671875 19.445313 L 36.671875 9.214844 C 31.875 9.574219 27.332031 11.515625 23.761719 14.738281 Z "/>
<path style=" stroke:none;fill-rule:nonzero;fill:rgb(36.862745%,62.745098%,93.72549%);fill-opacity:1;" d="M 47.949219 24.109375 C 49.347656 25.890625 50.246094 28.011719 50.554688 30.253906 L 60.355469 30.253906 C 60.027344 25.375 58.144531 20.730469 54.988281 16.996094 Z "/>
<path style=" stroke:none;fill-rule:nonzero;fill:rgb(0%,35.686275%,63.137255%);fill-opacity:1;" d="M 28.503906 24.109375 L 21.582031 16.996094 C 18.414063 20.722656 16.53125 25.371094 16.214844 30.253906 L 25.976563 30.253906 C 26.28125 28.023438 27.152344 25.910156 28.503906 24.109375 Z "/>
<path style=" stroke:none;fill-rule:nonzero;fill:rgb(0%,35.686275%,63.137255%);fill-opacity:1;" d="M 56.234375 21.894531 C 55.640625 -25.113281 54.804688 -25.484375 54.210938 21 L 39.785156 26.753906 L 40.910156 314.535156 L 55.339844 308.777344 C 56.011719 306.148438 56.597656 261.34375 56.800781 196.914063 C 57 132.484375 56.773438 62.386719 56.234375 21.894531 Z "/>
<path style=" stroke:none;fill-rule:nonzero;fill:rgb(46.27451%,46.27451%,46.27451%);fill-opacity:1;" d="M 42.429688 28.855469 C 42.429688 31.175781 40.546875 33.054688 38.226563 33.054688 C 35.90625 33.054688 34.027344 31.175781 34.027344 28.855469 C 34.027344 26.535156 35.90625 24.65625 38.226563 24.65625 C 40.546875 24.65625 42.429688 26.535156 42.429688 28.855469 Z "/>
<path style=" stroke:none;fill-rule:nonzero;fill:url(#linear1);" d="M 41.726563 67.785156 L 3.460938 67.785156 C 2.253906 67.785156 1.515625 65.839844 2.214844 64.828125 L 15.554688 45.617188 C 15.554688 45.332031 15.554688 45.046875 15.554688 44.761719 L 15.554688 32.042969 C 15.371094 30.871094 15.144531 30.53125 14.933594 31.109375 L 14.195313 31.109375 C 13.722656 57.734375 13.144531 57.15625 12.679688 29.59375 L 12.679688 29.089844 C 13.144531 1.527344 13.722656 0.949219 14.195313 27.570313 L 31.109375 27.570313 C 31.515625 26.492188 31.910156 42.121094 32.195313 70.804688 C 32.480469 99.484375 32.636719 138.691406 32.628906 179.238281 L 32.628906 179.898438 C 32.226563 180.953125 31.839844 165.714844 31.554688 137.664063 C 31.269531 109.617188 31.109375 71.164063 31.109375 31.109375 L 30.292969 31.109375 C 29.863281 31.109375 29.515625 34.59375 29.515625 38.890625 L 29.515625 51.605469 C 29.523438 82.144531 29.617188 111.839844 29.789063 137.160156 L 43.011719 156.371094 C 43.671875 65.839844 42.972656 67.785156 41.726563 67.785156 Z "/>
<path style=" stroke:none;fill-rule:nonzero;fill:rgb(100%,100%,100%);fill-opacity:1;" d="M 8.515625 62.222656 L 18.082031 48.222656 C 18.289063 49.496094 18.5 48.832031 18.707031 46.238281 L 18.707031 40.5625 C 19.050781 20.066406 19.480469 19.636719 19.832031 39.433594 L 25.277344 39.433594 C 25.574219 39.414063 25.855469 51.417969 26.0625 72.6875 C 26.265625 93.957031 26.378906 122.664063 26.367188 152.210938 L 26.367188 46.667969 C 22.714844 47.847656 19.851563 78.40625 19.96875 114.917969 C 20.085938 151.429688 23.144531 180.070313 26.792969 178.890625 L 36.59375 62.222656 C 36.773438 87.625 36.789063 120.863281 36.640625 148.050781 C 36.492188 175.238281 36.203125 191.699219 35.894531 190.554688 L 9.179688 190.554688 C 8.875 190.21875 8.597656 173.1875 8.460938 146.292969 C 8.324219 119.398438 8.34375 87.046875 8.515625 62.222656 Z "/>
</g>
</svg>
