<?xml version="1.0" encoding="UTF-8"?>
<svg xmlns="http://www.w3.org/2000/svg" xmlns:xlink="http://www.w3.org/1999/xlink" width="70pt" height="70pt" viewBox="0 0 70 70" version="1.1">
<defs>
<linearGradient id="linear0" gradientUnits="userSpaceOnUse" x1="5.77" y1="7.08" x2="5.88" y2="17.58" gradientTransform="matrix(3.888889,0,0,3.888889,0,0)">
<stop offset="0" style="stop-color:rgb(79,180,255);stop-opacity:1;"/>
<stop offset="0.32" style="stop-color:rgb(73,177,255);stop-opacity:1;"/>
<stop offset="0.53" style="stop-color:rgb(61,172,255);stop-opacity:1;"/>
<stop offset="0.7" style="stop-color:rgb(37,162,255);stop-opacity:1;"/>
<stop offset="0.86" style="stop-color:rgb(3,148,255);stop-opacity:1;"/>
<stop offset="1" style="stop-color:rgb(0,124,216);stop-opacity:1;"/>
<stop offset="1" style="stop-color:rgb(0,124,216);stop-opacity:1;"/>
</linearGradient>
</defs>
<g id="surface1">
<path style=" stroke:none;fill-rule:nonzero;fill:rgb(229,243,255);fill-opacity:1;" d="M 58.644531 45.304688 C 48.035156 53.542969 32.757813 51.617188 24.519531 41.007813 C 16.28125 30.398438 18.207031 15.121094 28.816406 6.882813 L 29.089844 6.6875 C 39.753906 -1.472656 55.011719 0.554688 63.175781 11.21875 C 71.335938 21.882813 69.308594 37.144531 58.644531 45.304688 "/>
<path style=" stroke:none;fill-rule:nonzero;fill:rgb(0,108,188);fill-opacity:1;" d="M 63.15625 11.433594 C 55.0625 0.714844 39.820313 -1.425781 29.089844 6.648438 L 28.816406 26.09375 C 27.964844 36.632813 34.015625 46.519531 43.789063 50.554688 C 49.171875 50.574219 54.40625 48.78125 58.644531 45.460938 C 69.210938 37.265625 71.21875 22.097656 63.15625 11.433594 Z M 22.59375 24.539063 C 22.820313 21.644531 23.628906 18.828125 24.964844 16.253906 L 30.839844 16.253906 C 30.1875 18.972656 29.8125 21.746094 29.710938 24.539063 Z M 34.261719 16.253906 L 42.351563 16.253906 L 42.351563 24.539063 L 32.859375 24.539063 C 32.957031 21.738281 33.375 18.960938 34.105469 16.253906 Z M 45.460938 16.253906 L 53.550781 16.253906 C 54.28125 18.960938 54.699219 21.738281 54.792969 24.539063 L 45.460938 24.539063 Z M 42.351563 27.648438 L 42.351563 35.894531 L 34.105469 35.894531 C 33.371094 33.203125 32.953125 30.4375 32.859375 27.648438 Z M 39.238281 27.648438 L 48.570313 27.648438 C 48.480469 30.4375 48.0625 33.203125 47.328125 35.894531 L 45.304688 35.894531 Z M 51.722656 27.648438 L 58.800781 27.648438 C 58.574219 30.523438 57.78125 33.328125 56.464844 35.894531 L 56.621094 35.894531 C 57.304688 33.195313 57.695313 30.433594 57.789063 27.648438 Z M 51.722656 24.539063 C 51.628906 21.746094 51.238281 18.96875 50.554688 16.253906 L 56.464844 16.253906 C 57.808594 18.828125 58.601563 21.648438 58.800781 24.539063 Z M 54.484375 13.144531 L 55.6875 13.144531 C 54.898438 10.824219 53.742188 8.644531 52.265625 6.6875 C 55.53125 8.105469 58.378906 10.324219 60.550781 13.144531 Z M 46.238281 13.144531 L 39.238281 13.144531 L 39.238281 5.367188 C 44.835938 4.78125 50.152344 7.945313 52.304688 13.144531 Z M 36.128906 5.367188 L 36.128906 13.144531 L 35.195313 13.144531 C 36.265625 9.609375 38.820313 6.714844 42.195313 5.210938 Z M 30.761719 9.332031 C 32.082031 8.324219 33.519531 7.476563 35.039063 6.804688 C 33.570313 8.78125 32.414063 10.972656 31.617188 13.300781 L 26.949219 13.300781 C 28.027344 11.804688 29.3125 10.46875 30.761719 9.332031 Z M 22.59375 27.648438 L 29.710938 27.648438 C 29.8125 30.429688 30.191406 33.191406 30.839844 35.894531 L 24.964844 35.894531 C 23.597656 33.347656 22.789063 30.535156 22.59375 27.648438 Z M 26.988281 39.082031 L 31.8125 39.082031 C 32.609375 41.398438 33.765625 43.578125 35.234375 45.539063 C 31.980469 44.125 29.140625 41.902344 26.988281 39.082031 Z M 35.195313 39.082031 L 42.195313 39.082031 L 42.195313 46.859375 C 38.8125 45.351563 36.253906 42.4375 35.195313 38.890625 Z M 45.304688 46.859375 L 45.304688 38.890625 L 52.304688 38.890625 C 51.273438 42.484375 48.714844 45.441406 45.304688 46.976563 Z M 56.738281 42.777344 C 129.761719 44.023438 187.953125 104.230469 186.707031 177.253906 C 185.460938 250.28125 125.253906 308.46875 52.226563 307.222656 C 126.324219 308.179688 187.167969 248.882813 188.125 174.785156 C 189.082031 100.6875 129.785156 39.84375 55.6875 38.890625 L 60.550781 38.890625 C 59.445313 40.335938 58.164063 41.644531 56.738281 42.777344 Z "/>
<path style=" stroke:none;fill-rule:nonzero;fill:url(#linear0);" d="M 42.195313 68.054688 L 3.460938 68.054688 C 2.253906 68.054688 1.515625 66.070313 2.214844 65.0625 L 15.554688 45.617188 C 15.644531 46.136719 15.738281 45.835938 15.828125 44.722656 L 15.828125 31.890625 C 15.601563 30.25 15.304688 29.953125 15.050781 31.109375 L 14.351563 31.109375 C 13.878906 57.734375 13.300781 57.15625 12.832031 29.59375 L 12.832031 28.894531 C 13.300781 1.28125 13.878906 0.644531 14.351563 27.222656 L 31.34375 27.222656 C 32.1875 27.433594 32.863281 34.335938 32.859375 42.777344 L 32.859375 43.476563 C 32.128906 43.449219 31.496094 38.296875 31.34375 31.109375 L 30.605469 31.109375 C 30.363281 20.230469 30.082031 23.203125 29.867188 38.890625 L 29.867188 51.761719 C 29.855469 82.582031 29.949219 112.847656 30.140625 137.316406 L 43.476563 156.761719 C 44.179688 66.109375 43.4375 68.054688 42.195313 68.054688 Z "/>
<path style=" stroke:none;fill-rule:nonzero;fill:rgb(255,255,255);fill-opacity:1;" d="M 8.710938 62.921875 L 18.316406 48.921875 C 18.523438 50.160156 18.734375 49.484375 18.9375 46.898438 L 18.9375 41.261719 C 19.285156 20.777344 19.714844 20.363281 20.066406 40.171875 L 25.511719 40.171875 C 26.117188 40.136719 26.617188 88.300781 26.640625 149.0625 L 26.640625 155.089844 C 22.878906 156.164063 19.921875 187.503906 20.027344 225.089844 C 20.136719 262.675781 23.269531 292.273438 27.027344 291.199219 L 36.867188 305.472656 C 37.035156 331.519531 37.050781 364.714844 36.90625 392.1875 C 36.761719 419.65625 36.476563 437.078125 36.167969 437.695313 L 9.410156 437.695313 C 8.375 457.023438 7.378906 388.796875 7.1875 285.308594 C 6.992188 181.816406 7.675781 82.253906 8.710938 62.921875 Z "/>
</g>
</svg>
