<?xml version="1.0" encoding="UTF-8"?>
<svg xmlns="http://www.w3.org/2000/svg" xmlns:xlink="http://www.w3.org/1999/xlink" width="70pt" height="70pt" viewBox="0 0 70 70" version="1.1">
<defs>
<linearGradient id="linear0" gradientUnits="userSpaceOnUse" x1="9" y1="19.13" x2="9" y2="-0.29" gradientTransform="matrix(3.888889,0,0,3.888889,0,0)">
<stop offset="0" style="stop-color:rgb(0%,47.058824%,83.137255%);stop-opacity:1;"/>
<stop offset="0.16" style="stop-color:rgb(7.45098%,50.196078%,85.490196%);stop-opacity:1;"/>
<stop offset="0.53" style="stop-color:rgb(23.529412%,56.862745%,89.803922%);stop-opacity:1;"/>
<stop offset="0.82" style="stop-color:rgb(33.333333%,61.176471%,92.54902%);stop-opacity:1;"/>
<stop offset="1" style="stop-color:rgb(36.862745%,62.745098%,93.72549%);stop-opacity:1;"/>
</linearGradient>
</defs>
<g id="surface1">
<path style=" stroke:none;fill-rule:nonzero;fill:url(#linear0);" d="M 70 44.253906 C 69.828125 36.535156 64.015625 30.109375 56.351563 29.167969 C 55.886719 18.320313 46.785156 9.859375 35.933594 10.1875 C 27.300781 10 19.484375 15.265625 16.410156 23.332031 C 7.179688 24.453125 0.183594 32.199219 0 41.496094 C 0.402344 51.992188 9.21875 60.183594 19.714844 59.8125 L 53.355469 59.8125 C 53.640625 63.851563 53.925781 63.851563 54.210938 59.8125 C 62.808594 59.730469 69.789063 52.847656 70 44.253906 Z "/>
<path style=" stroke:none;fill-rule:nonzero;fill:rgb(61.176471%,92.156863%,100%);fill-opacity:1;" d="M 21.078125 40.40625 L 17.65625 40.40625 C 17.171875 38.304688 15.1875 36.902344 13.046875 37.148438 C 10.902344 37.390625 9.285156 39.203125 9.285156 41.359375 C 9.285156 43.515625 10.902344 45.328125 13.046875 45.570313 C 15.1875 45.8125 17.171875 44.410156 17.65625 42.3125 L 21.078125 42.3125 C 21.507813 42.3125 21.855469 45.792969 21.855469 50.089844 L 21.855469 66.8125 L 23.761719 66.8125 L 23.761719 50.089844 C 22.949219 -0.875 21.925781 -4.566406 21.078125 40.40625 Z M 13.496094 382.628906 C 12.511719 327.28125 12.027344 212.933594 12.308594 103.839844 C 12.585938 -5.253906 13.566406 -81.894531 14.691406 -83.023438 C 15.820313 -84.148438 16.8125 -9.480469 17.113281 99.03125 C 17.417969 207.542969 16.953125 322.839844 15.984375 380.140625 C 15.140625 385.59375 14.324219 347.8125 13.820313 279.824219 C 13.320313 211.839844 13.195313 122.953125 13.496094 43.828125 Z "/>
<path style=" stroke:none;fill-rule:nonzero;fill:rgb(94.901961%,94.901961%,94.901961%);fill-opacity:1;" d="M 34.765625 41.261719 L 34.765625 37.371094 C 33.972656 31.640625 32.933594 30.601563 32.042969 34.648438 L 26.015625 34.648438 C 25.761719 35.808594 25.464844 35.511719 25.238281 33.871094 L 25.238281 13.222656 L 24.34375 59.890625 L 23.332031 14.234375 L 23.332031 33.679688 C 23.332031 181.875 24.535156 302.011719 26.015625 302.011719 L 32.042969 302.011719 C 32.496094 302.011719 32.859375 338.574219 32.859375 383.679688 L 32.859375 387.566406 C 30.925781 387.988281 29.546875 389.707031 29.554688 391.6875 C 29.554688 393.902344 31.257813 395.746094 33.464844 395.917969 C 35.671875 396.089844 37.640625 394.535156 37.984375 392.34375 C 38.324219 390.15625 36.921875 388.074219 34.765625 387.566406 Z M 33.792969 47.871094 C 32.8125 -7.476563 32.328125 -121.820313 32.605469 -230.914063 C 32.886719 -340.011719 33.867188 -416.652344 34.992188 -417.777344 C 36.117188 -418.90625 37.113281 -344.234375 37.414063 -235.722656 C 37.71875 -127.210938 37.253906 -11.914063 36.285156 45.382813 C 35.519531 90.617188 34.570313 91.5625 33.792969 47.871094 Z "/>
<path style=" stroke:none;fill-rule:nonzero;fill:rgb(61.176471%,92.156863%,100%);fill-opacity:1;" d="M 56.503906 33.054688 C 54.359375 33.0625 52.558594 34.671875 52.308594 36.804688 C 52.0625 38.9375 53.445313 40.917969 55.535156 41.417969 L 55.535156 42.195313 C 55.535156 87.296875 55.167969 123.859375 54.714844 123.859375 L 46.9375 123.859375 L 46.9375 29.320313 C 46.113281 -19.445313 45.089844 -20.464844 44.253906 26.640625 L 40.25 26.640625 C 39.828125 24.703125 38.109375 23.324219 36.128906 23.332031 C 33.914063 23.332031 32.070313 25.035156 31.898438 27.242188 C 31.726563 29.453125 33.28125 31.417969 35.472656 31.761719 C 37.660156 32.101563 39.742188 30.699219 40.25 28.542969 L 44.410156 28.542969 C 44.839844 28.542969 45.1875 32.027344 45.1875 36.320313 L 45.1875 66.8125 L 47.09375 66.8125 L 47.09375 44.917969 L 54.871094 44.917969 C 55.761719 48.964844 56.800781 47.925781 57.59375 42.195313 L 57.59375 41.417969 C 59.523438 40.980469 60.894531 39.269531 60.898438 37.292969 C 60.902344 36.144531 60.433594 35.039063 59.605469 34.242188 C 58.773438 33.441406 57.65625 33.011719 56.503906 33.054688 Z M 36.128906 30.0625 C 35.148438 -25.285156 34.660156 -139.632813 34.941406 -248.726563 C 35.222656 -357.820313 36.199219 -434.464844 37.324219 -435.589844 C 38.453125 -436.714844 39.445313 -362.046875 39.75 -253.535156 C 40.050781 -145.023438 39.585938 -29.726563 38.617188 27.570313 C 37.851563 72.804688 36.902344 73.753906 36.128906 30.0625 Z M 56.503906 39.785156 C 55.515625 -14.867188 55.019531 -129.363281 55.296875 -238.992188 C 55.570313 -348.621094 56.550781 -425.828125 57.683594 -426.976563 C 58.8125 -428.125 59.808594 -352.925781 60.109375 -243.882813 C 60.40625 -134.839844 59.933594 -19.355469 58.957031 37.292969 C 58.199219 81.046875 57.269531 81.992188 56.503906 39.785156 Z "/>
</g>
</svg>
