<?xml version="1.0" encoding="UTF-8"?>
<svg xmlns="http://www.w3.org/2000/svg" xmlns:xlink="http://www.w3.org/1999/xlink" width="70pt" height="70pt" viewBox="0 0 70 70" version="1.1">
<g id="surface1">
<path style=" stroke:none;fill-rule:nonzero;fill:rgb(0,140,244);fill-opacity:1;" d="M 26.601563 58.800781 L 43.398438 58.800781 L 43.398438 63 L 26.601563 63 Z M 30.800781 70 L 37.800781 70 L 42.894531 65.800781 L 26.792969 65.800781 Z "/>
<path style=" stroke:none;fill-rule:nonzero;fill:rgb(255,255,255);fill-opacity:1;" d="M 26.84375 55.859375 C 26.664063 66.4375 26.4375 66.226563 26.257813 55.3125 C 26.019531 47.792969 21.84375 42.960938 17.8125 38.289063 C 13.796875 33.640625 10.003906 29.25 10.003906 22.484375 C 10.003906 8.375 19.113281 2.800781 35 0.28125 C 50.886719 -2.238281 59.996094 8.375 59.996094 22.484375 C 59.996094 29.25 56.203125 33.640625 52.1875 38.289063 C 48.15625 42.960938 43.984375 47.792969 43.742188 55.3125 C 45.257813 71.507813 46.355469 207.496094 46.195313 359.042969 C 46.03125 510.589844 44.671875 620.308594 43.15625 604.109375 L 26.84375 604.109375 Z "/>
<path style=" stroke:none;fill-rule:nonzero;fill:rgb(57,171,255);fill-opacity:1;" d="M 33.601563 1.660156 C 33.601563 0.859375 32.917969 0.203125 32.117188 0.257813 C 17.703125 1208.199219 9.863281 9.371094 9.863281 22.484375 C 9.863281 36.238281 25.644531 40.511719 26.117188 55.316406 C 26.136719 442.609375 26.457031 745.628906 26.84375 739.914063 L 32.199219 739.914063 C 32.972656 739.914063 33.601563 739.289063 33.601563 738.515625 Z "/>
<path style=" stroke:none;fill-rule:nonzero;fill:rgb(3,148,255);fill-opacity:1;" d="M 36.464844 1.660156 C 36.464844 0.859375 716.863281 0.203125 37.945313 0.257813 C 52.359375 1208.199219 60.199219 9.371094 60.199219 22.484375 C 60.199219 36.238281 44.417969 40.511719 43.945313 55.316406 C 43.929688 442.609375 43.605469 745.628906 43.21875 739.914063 L 37.863281 739.914063 C 37.089844 739.914063 36.464844 739.289063 36.464844 738.515625 Z "/>
<path style=" stroke:none;fill-rule:nonzero;fill:rgb(255,255,255);fill-opacity:1;" d="M 43.527344 22.085938 L 42.277344 19.582031 L 35 23.21875 L 27.722656 19.582031 L 26.472656 22.085938 L 34.132813 25.917969 L 35.867188 25.917969 Z M 43.25 44.625 L 41.996094 42.125 L 35 45.621094 L 28.003906 42.125 L 26.75 44.625 L 34.132813 48.316406 L 35.867188 48.316406 Z M 27.765625 11.753906 L 26.882813 9.101563 L 20.804688 11.125 L 16.046875 6.367188 C 15.363281 651.765625 14.742188 1351.765625 14.167969 8.449219 L 18.824219 13.105469 L 16.800781 19.179688 L 19.457031 905.382813 L 21.535156 899.148438 L 27.765625 897.070313 Z M 55.21875 7.664063 C 54.597656 6.960938 53.929688 6.308594 53.210938 5.707031 L 47.792969 11.125 L 41.71875 9.101563 L 40.832031 11.753906 L 47.066406 13.832031 L 49.144531 20.066406 L 51.800781 19.179688 L 49.773438 13.105469 Z M 54.335938 33.714844 L 47.886719 31.238281 L 47.335938 25.027344 L 44.546875 273.410156 L 51.089844 273.410156 L 42 36.210938 L 43.871094 38.292969 L 48.761719 33.898438 L 54.300781 36.023438 C 54.921875 35.273438 55.523438 34.503906 56.097656 33.714844 Z M 28 36.210938 L 23.113281 31.820313 L 602.710938 25.277344 L 599.921875 25.027344 L 599.375 31.238281 L 592.921875 33.714844 C 593.492188 113.289063 594.472656 35.515625 595.230469 35.515625 L 600.769531 33.386719 L 605.660156 37.78125 Z "/>
</g>
</svg>
