<?xml version="1.0" encoding="UTF-8"?>
<svg xmlns="http://www.w3.org/2000/svg" xmlns:xlink="http://www.w3.org/1999/xlink" width="70pt" height="70pt" viewBox="0 0 70 70" version="1.1">
<defs>
<radialGradient id="radial0" gradientUnits="userSpaceOnUse" cx="55.71" cy="71.92" fx="55.71" fy="71.92" r="9" gradientTransform="matrix(3.655556,0,0,3.655556,-169.594444,-229.133333)">
<stop offset="0.67" style="stop-color:rgb(41.960784%,72.54902%,94.901961%);stop-opacity:1;"/>
<stop offset="0.74" style="stop-color:rgb(38.039216%,70.588235%,94.509804%);stop-opacity:1;"/>
<stop offset="0.85" style="stop-color:rgb(27.843137%,65.882353%,93.72549%);stop-opacity:1;"/>
<stop offset="0.99" style="stop-color:rgb(11.372549%,58.039216%,92.156863%);stop-opacity:1;"/>
<stop offset="1" style="stop-color:rgb(10.588235%,57.647059%,92.156863%);stop-opacity:1;"/>
</radialGradient>
</defs>
<g id="surface1">
<path style=" stroke:none;fill-rule:nonzero;fill:url(#radial0);" d="M 35 1.945313 C 16.742188 1.945313 1.945313 16.742188 1.945313 35 C 1.945313 53.257813 16.742188 68.054688 35 68.054688 C 53.257813 68.054688 68.054688 53.257813 68.054688 35 C 68.054688 16.742188 53.257813 1.945313 35 1.945313 Z "/>
<path style=" stroke:none;fill-rule:nonzero;fill:rgb(100%,100%,100%);fill-opacity:1;" d="M 62.339844 35 C 62.339844 50.097656 50.097656 62.339844 35 62.339844 C 19.902344 62.339844 7.660156 50.097656 7.660156 35 C 7.660156 19.902344 19.902344 7.660156 35 7.660156 C 50.097656 7.660156 62.339844 19.902344 62.339844 35 Z "/>
<path style=" stroke:none;fill-rule:nonzero;fill:rgb(19.607843%,74.509804%,86.666667%);fill-opacity:1;" d="M 31.964844 35 C 31.964844 36.652344 30.625 37.996094 28.972656 37.996094 C 27.320313 37.996094 25.976563 36.652344 25.976563 35 C 25.976563 33.347656 27.320313 32.003906 28.972656 32.003906 C 30.625 32.003906 31.964844 33.347656 31.964844 35 Z "/>
<path style=" stroke:none;fill-rule:nonzero;fill:rgb(19.607843%,74.509804%,86.666667%);fill-opacity:1;" d="M 20.457031 26.445313 L 18.976563 26.445313 C 18.355469 26.445313 17.851563 76.9375 17.851563 139.222656 L 17.851563 161.464844 C 17.851563 288.183594 18.878906 390.910156 20.144531 390.910156 L 41.804688 390.910156 C 42.15625 410.695313 42.585938 410.253906 42.933594 389.746094 L 42.933594 388.265625 C 42.585938 367.769531 42.15625 367.339844 41.804688 387.140625 L 22.359375 387.140625 C 22.191406 396.683594 21.984375 396.460938 21.816406 386.554688 L 21.816406 27.570313 C 21.417969 -3.226563 20.859375 -3.6875 20.457031 26.445313 Z "/>
<path style=" stroke:none;fill-rule:nonzero;fill:rgb(19.607843%,74.509804%,86.666667%);fill-opacity:1;" d="M 44.023438 35 C 44.023438 36.652344 42.679688 37.996094 41.027344 37.996094 C 39.375 37.996094 38.035156 36.652344 38.035156 35 C 38.035156 33.347656 39.375 32.003906 41.027344 32.003906 C 42.679688 32.003906 44.023438 33.347656 44.023438 35 Z "/>
<path style=" stroke:none;fill-rule:nonzero;fill:rgb(19.607843%,74.509804%,86.666667%);fill-opacity:1;" d="M 48.300781 17.890625 L 28.117188 17.890625 C 27.746094 1.226563 27.316406 5.679688 26.988281 29.554688 L 26.988281 31.035156 C 26.988281 93.320313 27.492188 143.8125 28.117188 143.8125 L 47.5625 143.8125 C 47.882813 143.8125 48.144531 169.929688 48.144531 202.144531 L 48.144531 222.328125 C 48.144531 284.613281 48.648438 335.105469 49.273438 335.105469 L 50.75 335.105469 C 51.101563 354.902344 51.53125 354.472656 51.878906 333.976563 L 51.878906 20.183594 C 51.183594 -20.039063 50.328125 -20.90625 49.621094 17.890625 Z "/>
</g>
</svg>
