<?xml version="1.0" encoding="UTF-8"?>
<svg xmlns="http://www.w3.org/2000/svg" xmlns:xlink="http://www.w3.org/1999/xlink" width="70pt" height="70pt" viewBox="0 0 70 70" version="1.1">
<defs>
<linearGradient id="linear0" gradientUnits="userSpaceOnUse" x1="9" y1="0" x2="9" y2="18" gradientTransform="matrix(3.888889,0,0,3.888889,0,0)">
<stop offset="0" style="stop-color:rgb(41,164,255);stop-opacity:1;"/>
<stop offset="1" style="stop-color:rgb(0,108,188);stop-opacity:1;"/>
</linearGradient>
<linearGradient id="linear1" gradientUnits="userSpaceOnUse" x1="-998.057" y1="-213.109" x2="-1002.698" y2="-204.987" gradientTransform="matrix(0.000000000000000238,3.888889,-3.888889,0.000000000000000238,-759.387222,3916.08)">
<stop offset="0" style="stop-color:rgb(255,255,255);stop-opacity:1;"/>
<stop offset="1" style="stop-color:rgb(255,255,255);stop-opacity:0.301961;"/>
</linearGradient>
<linearGradient id="linear2" gradientUnits="userSpaceOnUse" x1="-122.365" y1="1106.487" x2="-127.006" y2="1114.61" gradientTransform="matrix(0.000000000000000238,-3.888889,3.888889,0.000000000000000238,-4301.204444,-437.410556)">
<stop offset="0" style="stop-color:rgb(255,255,255);stop-opacity:1;"/>
<stop offset="1" style="stop-color:rgb(255,255,255);stop-opacity:0.301961;"/>
</linearGradient>
</defs>
<g id="surface1">
<path style=" stroke:none;fill-rule:nonzero;fill:url(#linear0);" d="M 2.332031 0 L 67.667969 0 C 68.957031 0 70 1.042969 70 2.332031 L 70 67.667969 C 70 68.957031 68.957031 70 67.667969 70 L 2.332031 70 C 1.042969 70 0 68.957031 0 67.667969 L 0 2.332031 C 0 1.042969 1.042969 0 2.332031 0 Z "/>
<path style=" stroke:none;fill-rule:nonzero;fill:rgb(255,255,255);fill-opacity:1;" d="M 51.648438 38.195313 C -525.027344 36.105469 -994.210938 501.902344 -996.300781 1078.578125 C -998.390625 1655.257813 -532.597656 2124.441406 44.082031 2126.53125 L 44.082031 2130.1875 C 46.089844 2128.421875 48.671875 2127.453125 51.34375 2127.464844 C 54.40625 2127.464844 55.9375 2129.355469 55.933594 2133.136719 L 49.257813 3070.359375 C 44.355469 3749.617188 41.90625 3752.039063 41.90625 3077.625 C 41.832031 3079.378906 42.519531 3081.078125 43.789063 3082.289063 C -442.683594 3083.726563 -835.878906 3479.257813 -834.441406 3965.726563 C -833.003906 4452.199219 -437.476563 4845.394531 48.996094 4843.957031 C 51.859375 4844.046875 54.519531 4842.492188 55.847656 4839.957031 L 55.761719 4839.957031 L 55.761719 4836.476563 L 59.5 4836.476563 L 59.5 46.503906 C 59.5 40.964844 56.882813 38.195313 51.648438 38.195313 Z M 55.925781 51.941406 C 55.988281 53.675781 55.367188 55.367188 54.195313 56.648438 C 567.511719 57.859375 982.660156 474.964844 981.449219 988.285156 C 980.242188 1501.601563 563.132813 1916.746094 49.816406 1915.539063 C 48.6875 1915.597656 47.574219 1915.230469 46.707031 1914.507813 L 44.042969 5468.613281 C -468.035156 1913.445313 -884.457031 1495.300781 -883.390625 980.558594 C -882.328125 465.816406 -464.1875 49.398438 50.554688 50.460938 L 55.925781 49.722656 Z "/>
<path style=" stroke:none;fill-rule:nonzero;fill:url(#linear1);" d="M 53.597656 34.574219 L 59.574219 28.433594 C 58.925781 27.785156 471.796875 27.222656 58.953125 27.222656 L 56.296875 27.222656 C 56.042969 28.378906 55.746094 28.082031 55.519531 26.445313 C 55.433594 22.480469 54.492188 11.480469 39.460938 11.105469 C 39.03125 11.105469 38.683594 14.589844 38.683594 18.882813 L 38.683594 22.773438 C 38.683594 24.949219 38.773438 27.027344 38.933594 28.503906 C 39.089844 29.984375 39.304688 30.726563 39.523438 30.550781 C 41.746094 26.660156 46.441406 24.929688 50.65625 26.445313 C 50.65625 30.738281 50.308594 34.222656 49.878906 34.222656 L 47.445313 34.222656 C 46.191406 34.222656 45.980469 38.109375 46.816406 1243.667969 L 52.359375 1249.8125 C 85.917969 1253.226563 113.398438 983.953125 113.738281 648.375 C 114.082031 312.800781 87.15625 37.992188 53.597656 34.574219 Z "/>
<path style=" stroke:none;fill-rule:nonzero;fill:url(#linear2);" d="M 17.578125 38.625 L 11.597656 44.769531 C 10.945313 694.214844 11.183594 1254.839844 1221.042969 1254.839844 L 1223.691406 1254.839844 C 1224.121094 1254.839844 1224.472656 1258.320313 1224.472656 1262.617188 C 15.554688 50.71875 16.664063 61.71875 31.695313 62.09375 C 31.949219 63.25 32.246094 62.953125 32.472656 61.316406 L 32.472656 57.425781 C 32.234375 55.554688 31.90625 55.253906 31.636719 56.648438 C 28.753906 57.273438 25.75 56.480469 23.546875 54.519531 C 21.347656 52.558594 20.214844 49.664063 20.503906 46.730469 L 18.042969 46.730469 C 16.796875 46.730469 19.503906 46.339844 80.265625 45.519531 L 18.824219 38.625 C 18.679688 36.652344 18.449219 35.488281 18.203125 35.488281 C 17.957031 35.488281 17.722656 36.652344 17.578125 38.625 Z "/>
<path style=" stroke:none;fill-rule:nonzero;fill:rgb(255,255,255);fill-opacity:1;" d="M 25.785156 17.109375 C 826.902344 15.589844 1477.570313 663.792969 1479.09375 1464.914063 C 1480.613281 2266.03125 832.410156 2916.703125 31.289063 2918.222656 C 32.828125 2919.699219 33.695313 2921.742188 33.683594 2923.871094 C 33.671875 2926.003906 32.789063 2928.039063 31.234375 2929.5 C 828.058594 2931.554688 1472.347656 3579.175781 1470.292969 4376 C 1468.234375 5172.824219 820.617188 5817.109375 23.792969 5815.054688 L 22.683594 5812.554688 C 24.894531 5812.617188 27.070313 5811.992188 28.90625 5810.757813 C 30.285156 5809.8125 31.109375 5808.242188 31.101563 5806.570313 C 1628.546875 5806.101563 2923.152344 4510.734375 2922.679688 2913.289063 C 2922.210938 1315.84375 1626.84375 21.242188 29.398438 21.710938 C 28.246094 20.550781 26.761719 19.769531 25.148438 19.484375 C 24.285156 22.730469 22.78125 25.769531 20.722656 28.429688 C -470.042969 28.710938 -867.660156 426.78125 -867.378906 917.546875 C -867.097656 1408.316406 -469.023438 1805.929688 21.742188 1805.648438 L 19.660156 3252.316406 C 19.335938 3251.910156 19.054688 3251.476563 18.8125 3251.023438 C 700.730469 3252.574219 1252.277344 3806.632813 1250.726563 4488.550781 C 1249.175781 5170.46875 695.113281 5722.015625 13.195313 5720.464844 C 12.007813 5720.5 10.859375 5720.054688 10.003906 5719.234375 C 9.089844 5718.25 8.625 5716.929688 8.722656 5715.589844 C -1563.441406 5715.015625 -2837.464844 4440.0625 -2836.890625 2867.898438 C -2836.320313 1295.734375 -1561.363281 21.710938 10.800781 22.285156 C 12.175781 20.460938 14.007813 19.039063 16.113281 18.15625 C 16.175781 16.082031 83.582031 14.632813 218.332031 13.804688 C 216.171875 96.769531 214.464844 138.25 213.210938 138.25 L 212.796875 135.84375 C 211.449219 185.101563 213.355469 185.082031 218.515625 135.78125 C 218.6875 134 218.960938 132.226563 219.332031 130.476563 L 216.925781 484.363281 L 19.054688 11.277344 C 22.433594 11.058594 25.792969 10.65625 29.128906 10.070313 L 28.617188 33.40625 C 374.410156 36.386719 652.3125 319.125 649.328125 664.917969 C 646.347656 1010.707031 363.609375 1288.609375 17.820313 1285.628906 C -978.75 1285.5625 -1786.675781 2093.390625 -1786.742188 3089.957031 C -1786.804688 4086.523438 -978.976563 4894.453125 17.589844 4894.515625 C 18.78125 4894.214844 20 4894.054688 21.230469 4894.039063 C 20.910156 4894.039063 21.859375 4894.039063 22.171875 4925.148438 C 22.390625 4924.503906 22.542969 4923.835938 22.617188 4923.160156 L 20.152344 5277.046875 C -1432.339844 5275.492188 -2608.554688 4096.753906 -2607 2644.261719 C -2605.445313 1191.773438 -1426.707031 15.554688 25.785156 17.109375 Z M 17.703125 27.890625 C 16.894531 25.609375 16.394531 23.226563 16.21875 20.808594 C 7.628906 19.828125 -0.128906 26 -1.109375 34.589844 C -2.089844 43.179688 4.078125 50.941406 12.671875 51.921875 C 11.847656 53.050781 11.386719 54.410156 11.359375 55.808594 C 11.273438 762.628906 11.472656 1474.207031 11.914063 2033.054688 L 62.472656 2039.273438 L 11.378906 2039.273438 C 565.625 2034.652344 1015.792969 1587.074219 1017.390625 1033.367188 C 1018.988281 479.65625 571.414063 29.488281 17.703125 27.890625 Z M 22.527344 19.296875 C -135.332031 18.25 -264.15625 145.371094 -265.203125 303.230469 C -266.25 461.09375 -139.128906 589.914063 18.734375 590.964844 C 18.785156 592.890625 19.082031 594.804688 19.628906 596.65625 C 179.0625 597.457031 308.957031 468.859375 309.757813 309.425781 C 310.558594 149.992188 181.960938 20.097656 22.527344 19.296875 Z "/>
</g>
</svg>
