<?xml version="1.0" encoding="UTF-8"?>
<svg xmlns="http://www.w3.org/2000/svg" xmlns:xlink="http://www.w3.org/1999/xlink" width="70pt" height="70pt" viewBox="0 0 70 70" version="1.1">
<defs>
<linearGradient id="linear0" gradientUnits="userSpaceOnUse" x1="5.71" y1="7.1" x2="5.82" y2="17.48" gradientTransform="matrix(3.888889,0,0,3.888889,0,0)">
<stop offset="0" style="stop-color:rgb(79,180,255);stop-opacity:1;"/>
<stop offset="0.32" style="stop-color:rgb(73,177,255);stop-opacity:1;"/>
<stop offset="0.53" style="stop-color:rgb(61,172,255);stop-opacity:1;"/>
<stop offset="0.7" style="stop-color:rgb(37,162,255);stop-opacity:1;"/>
<stop offset="0.86" style="stop-color:rgb(3,148,255);stop-opacity:1;"/>
<stop offset="1" style="stop-color:rgb(0,124,216);stop-opacity:1;"/>
<stop offset="1" style="stop-color:rgb(0,124,216);stop-opacity:1;"/>
</linearGradient>
</defs>
<g id="surface1">
<path style=" stroke:none;fill-rule:nonzero;fill:rgb(205,233,255);fill-opacity:1;" d="M 23.332031 2.332031 L 66.578125 2.332031 C 67.34375 0.0117188 67.992188 58.15625 68.054688 134.554688 L 68.054688 37.0625 C 68.035156 74.210938 67.867188 109.035156 67.589844 133.84375 C 67.3125 158.652344 66.949219 171.40625 66.578125 169.285156 L 23.332031 169.285156 C 22.878906 196.996094 22.304688 196.484375 21.855469 167.960938 L 21.855469 -3.65625 C 22.320313 -29.066406 22.890625 -26.761719 23.332031 2.332031 Z "/>
<path style=" stroke:none;fill-rule:nonzero;fill:rgb(41,164,255);fill-opacity:1;" d="M 23.101563 23.332031 L 66.65625 23.332031 C 67.378906 21.003906 67.992188 75.675781 68.054688 147.777344 L 68.054688 152.832031 L 21.699219 152.832031 L 21.699219 3.578125 C 22.167969 -16.492188 22.707031 -8.875 23.101563 23.332031 Z "/>
<path style=" stroke:none;fill-rule:nonzero;fill:rgb(95,187,255);fill-opacity:1;" d="M 21.699219 8.632813 L 37.179688 8.632813 L 37.179688 23.527344 L 21.699219 23.527344 Z "/>
<path style=" stroke:none;fill-rule:nonzero;fill:rgb(0,108,188);fill-opacity:1;" d="M 37.101563 8.632813 L 52.578125 8.632813 L 52.578125 23.527344 L 37.101563 23.527344 Z "/>
<path style=" stroke:none;fill-rule:nonzero;fill:rgb(95,187,255);fill-opacity:1;" d="M 52.578125 8.632813 L 68.054688 8.632813 L 68.054688 23.527344 L 52.578125 23.527344 Z "/>
<path style=" stroke:none;fill-rule:nonzero;fill:rgb(0,108,188);fill-opacity:1;" d="M 65.839844 38.539063 L 52.578125 38.539063 L 52.578125 23.488281 L 68.132813 23.488281 L 68.132813 36.167969 C 67.433594 79.558594 66.546875 80.472656 65.839844 38.539063 Z "/>
<path style=" stroke:none;fill-rule:nonzero;fill:rgb(95,187,255);fill-opacity:1;" d="M 52.695313 38.382813 L 37.214844 38.382813 L 37.214844 23.488281 L 52.695313 23.488281 Z "/>
<path style=" stroke:none;fill-rule:nonzero;fill:rgb(0,108,188);fill-opacity:1;" d="M 37.214844 38.382813 L 21.738281 38.382813 L 21.738281 23.488281 L 37.214844 23.488281 Z "/>
<path style=" stroke:none;fill-rule:nonzero;fill:url(#linear0);" d="M 41.726563 67.667969 L 3.460938 67.667969 C 2.253906 67.667969 1.515625 65.722656 2.214844 64.710938 L 15.398438 45.265625 C 15.453125 45.351563 15.503906 45.132813 15.554688 44.605469 L 15.554688 31.890625 C 15.367188 30.769531 15.140625 30.484375 14.933594 31.109375 L 14.195313 31.109375 C 13.722656 57.734375 13.144531 57.15625 12.679688 29.59375 L 12.679688 28.933594 C 13.144531 1.382813 13.722656 0.820313 14.195313 27.457031 L 31.109375 27.457031 C 31.507813 26.40625 31.894531 41.511719 32.179688 69.339844 C 32.46875 97.167969 32.628906 135.355469 32.628906 175.234375 L 32.628906 175.933594 C 32.234375 176.976563 31.851563 162.273438 31.566406 135.085938 C 31.285156 107.898438 31.117188 70.472656 31.109375 31.109375 L 30.292969 31.109375 C 28.253906 28.964844 26.425781 43.761719 26.210938 64.167969 C 25.996094 84.570313 27.476563 102.851563 29.515625 105 L 29.515625 117.753906 C 29.523438 148.292969 29.617188 177.988281 29.789063 203.3125 L 43.011719 222.523438 C 43.671875 65.722656 42.972656 67.667969 41.726563 67.667969 Z "/>
<path style=" stroke:none;fill-rule:nonzero;fill:rgb(255,255,255);fill-opacity:1;" d="M 8.515625 62.222656 L 18.082031 48.261719 C 18.289063 49.535156 18.5 48.871094 18.707031 46.277344 L 18.707031 40.445313 C 19.050781 19.949219 19.480469 19.519531 19.832031 39.316406 L 25.277344 39.316406 C 25.574219 39.296875 25.855469 51.300781 26.0625 72.570313 C 26.265625 93.839844 26.378906 122.546875 26.367188 152.09375 L 26.367188 46.667969 C 22.714844 47.847656 19.851563 78.40625 19.96875 114.917969 C 20.085938 151.429688 23.144531 180.070313 26.792969 178.890625 L 36.59375 62.222656 C 36.796875 87.621094 36.828125 122.550781 36.675781 151.210938 C 36.523438 179.875 36.21875 196.84375 35.894531 194.445313 L 9.179688 194.445313 C 8.863281 195.21875 8.570313 177.636719 8.425781 149.324219 C 8.285156 121.015625 8.320313 87.074219 8.515625 62.222656 Z "/>
</g>
</svg>
