<?xml version="1.0" encoding="UTF-8"?>
<svg xmlns="http://www.w3.org/2000/svg" xmlns:xlink="http://www.w3.org/1999/xlink" width="70pt" height="70pt" viewBox="0 0 70 70" version="1.1">
<defs>
<linearGradient id="linear0" gradientUnits="userSpaceOnUse" x1="9.03" y1="13.38" x2="9.03" y2="4.63" gradientTransform="matrix(3.888889,0,0,3.888889,0,0)">
<stop offset="0" style="stop-color:rgb(9.803922%,54.117647%,70.196078%);stop-opacity:1;"/>
<stop offset="0.4" style="stop-color:rgb(14.509804%,68.235294%,82.745098%);stop-opacity:1;"/>
<stop offset="0.78" style="stop-color:rgb(18.431373%,79.215686%,92.54902%);stop-opacity:1;"/>
<stop offset="1" style="stop-color:rgb(19.607843%,83.137255%,96.078431%);stop-opacity:1;"/>
</linearGradient>
</defs>
<g id="surface1">
<path style=" stroke:none;fill-rule:nonzero;fill:url(#linear0);" d="M 19.679688 18.003906 L 50.515625 18.003906 C 51.398438 18.003906 52.109375 18.71875 52.109375 19.601563 L 52.109375 50.4375 C 52.109375 51.320313 51.398438 52.035156 50.515625 52.035156 L 19.679688 52.035156 C 18.796875 52.035156 18.082031 51.320313 18.082031 50.4375 L 18.082031 19.601563 C 18.082031 18.71875 18.796875 18.003906 19.679688 18.003906 Z "/>
<path style=" stroke:none;fill-rule:nonzero;fill:rgb(76.470588%,94.509804%,100%);fill-opacity:1;" d="M 45.8125 47.367188 L 62.84375 35.429688 C 62.84375 35.144531 62.84375 34.855469 62.84375 34.570313 L 45.8125 22.671875 C 45.65625 10.398438 45.441406 8.441406 45.265625 17.667969 C 45.089844 26.894531 44.984375 45.597656 44.996094 65.449219 L 44.996094 29.945313 L 18.082031 29.945313 L 18.082031 40.054688 L 44.996094 40.054688 L 44.996094 46.9375 C 45.097656 58.710938 45.246094 65.503906 45.402344 65.585938 C 45.558594 65.667969 45.707031 59.03125 45.8125 47.367188 Z "/>
<path style=" stroke:none;fill-rule:nonzero;fill:rgb(58.039216%,58.039216%,58.039216%);fill-opacity:1;" d="M 66.109375 68.445313 L 3.890625 68.445313 C 3.257813 103.945313 2.488281 103.171875 1.867188 66.421875 L 1.867188 -3.578125 C 2.5 -38.125 3.273438 -36.167969 3.890625 1.554688 L 66.109375 1.554688 C 67.226563 1.554688 68.132813 92.09375 68.132813 203.777344 L 68.132813 23.332031 C 68.144531 61.644531 67.9375 97.304688 67.601563 115.429688 C 67.261719 133.550781 66.851563 131.019531 66.539063 108.890625 L 62.648438 106.167969 C 62.507813 108.820313 62.363281 108.53125 62.222656 105.3125 L 62.222656 7.777344 L 8.011719 7.777344 L 8.011719 62.222656 L 61.988281 62.222656 L 61.988281 49.777344 C 62.128906 46.457031 62.273438 46.179688 62.417969 48.960938 L 66.304688 46.121094 C 66.617188 23.992188 67.03125 21.460938 67.367188 39.582031 C 67.707031 57.707031 67.910156 93.367188 67.898438 131.679688 L 67.898438 151.121094 C 67.199219 156.449219 66.523438 125.160156 66.109375 68.445313 Z "/>
<path style=" stroke:none;fill-rule:nonzero;fill:rgb(46.27451%,46.27451%,46.27451%);fill-opacity:1;" d="M 61.988281 7.777344 L 61.988281 20.417969 C 61.984375 54.152344 62.144531 85.980469 62.417969 105.972656 L 66.304688 108.695313 C 66.605469 142.550781 67.097656 152.21875 67.503906 132.347656 C 67.910156 112.476563 68.136719 67.925781 68.054688 23.332031 L 68.054688 7.777344 Z "/>
<path style=" stroke:none;fill-rule:nonzero;fill:rgb(46.27451%,46.27451%,46.27451%);fill-opacity:1;" d="M 61.988281 62.222656 L 61.988281 49.582031 C 62.128906 46.136719 62.273438 45.859375 62.417969 48.765625 L 66.304688 46.003906 C 66.625 26.695313 67.019531 25.632813 67.347656 43.214844 C 67.675781 60.796875 67.886719 94.402344 67.898438 131.5625 L 67.898438 147.117188 Z "/>
</g>
</svg>
