<?xml version="1.0" encoding="UTF-8"?>
<svg xmlns="http://www.w3.org/2000/svg" xmlns:xlink="http://www.w3.org/1999/xlink" width="70pt" height="70pt" viewBox="0 0 70 70" version="1.1">
<defs>
<linearGradient id="linear0" gradientUnits="userSpaceOnUse" x1="9.13" y1="18.81" x2="8.85" y2="-8.1" gradientTransform="matrix(3.888889,0,0,3.888889,0,0)">
<stop offset="0" style="stop-color:rgb(9.803922%,54.117647%,70.196078%);stop-opacity:1;"/>
<stop offset="0" style="stop-color:rgb(9.803922%,54.117647%,70.196078%);stop-opacity:1;"/>
<stop offset="0.09" style="stop-color:rgb(13.333333%,64.705882%,79.607843%);stop-opacity:1;"/>
<stop offset="0.19" style="stop-color:rgb(16.078431%,72.941176%,87.058824%);stop-opacity:1;"/>
<stop offset="0.29" style="stop-color:rgb(18.039216%,78.823529%,92.156863%);stop-opacity:1;"/>
<stop offset="0.42" style="stop-color:rgb(19.215686%,81.960784%,95.294118%);stop-opacity:1;"/>
<stop offset="0.62" style="stop-color:rgb(19.607843%,83.137255%,96.078431%);stop-opacity:1;"/>
</linearGradient>
</defs>
<g id="surface1">
<path style=" stroke:none;fill-rule:nonzero;fill:rgb(100%,100%,100%);fill-opacity:1;" d="M 51.996094 32.820313 C 51.996094 37.054688 48.5625 40.484375 44.332031 40.484375 C 40.101563 40.484375 36.671875 37.054688 36.671875 32.820313 C 36.671875 28.589844 40.101563 25.160156 44.332031 25.160156 C 48.5625 25.160156 51.996094 28.589844 51.996094 32.820313 Z "/>
<path style=" stroke:none;fill-rule:nonzero;fill:rgb(100%,100%,100%);fill-opacity:1;" d="M 63.195313 55.609375 C 63.195313 58.941406 60.496094 61.640625 57.167969 61.640625 C 53.835938 61.640625 51.140625 58.941406 51.140625 55.609375 C 51.140625 52.28125 53.835938 49.582031 57.167969 49.582031 C 60.496094 49.582031 63.195313 52.28125 63.195313 55.609375 Z "/>
<path style=" stroke:none;fill-rule:nonzero;fill:rgb(100%,100%,100%);fill-opacity:1;" d="M 38.5 51.488281 C 38.5 54.34375 36.183594 56.660156 33.328125 56.660156 C 30.472656 56.660156 28.15625 54.34375 28.15625 51.488281 C 28.15625 48.632813 30.472656 46.316406 33.328125 46.316406 C 36.183594 46.316406 38.5 48.632813 38.5 51.488281 Z "/>
<path style=" stroke:none;fill-rule:nonzero;fill:rgb(100%,100%,100%);fill-opacity:1;" d="M 36.011719 12.09375 C 36.011719 15.636719 33.136719 18.511719 29.59375 18.511719 C 26.050781 18.511719 23.179688 15.636719 23.179688 12.09375 C 23.179688 8.550781 26.050781 5.679688 29.59375 5.679688 C 33.136719 5.679688 36.011719 8.550781 36.011719 12.09375 Z "/>
<path style=" stroke:none;fill-rule:nonzero;fill:rgb(100%,100%,100%);fill-opacity:1;" d="M 17.578125 35.738281 C 17.578125 38.59375 15.261719 40.910156 12.40625 40.910156 C 9.550781 40.910156 7.234375 38.59375 7.234375 35.738281 C 7.234375 32.882813 9.550781 30.566406 12.40625 30.566406 C 15.261719 30.566406 17.578125 32.882813 17.578125 35.738281 Z "/>
<path style=" stroke:none;fill-rule:nonzero;fill:rgb(58.039216%,58.039216%,58.039216%);fill-opacity:1;" d="M 58.566406 54.40625 L 45.617188 31.734375 L 44.332031 32.472656 L 45.382813 31.695313 L 30.722656 10.851563 L 28.039063 12.792969 L 41.027344 31.265625 L 12.25 33.640625 L 12.523438 36.984375 L 41.027344 34.609375 L 31.578125 50.320313 L 34.417969 52.035156 L 44.140625 35.855469 L 55.6875 56.039063 Z "/>
<path style=" stroke:none;fill-rule:nonzero;fill:rgb(58.039216%,58.039216%,58.039216%);fill-opacity:1;" d="M 68.171875 4.785156 C 67.269531 -41.472656 66.183594 -35.878906 65.332031 19.445313 L 50.554688 19.445313 C 49.78125 19.445313 49.15625 82.125 49.15625 159.445313 L 49.15625 8.828125 C 49.15625 86.148438 49.78125 148.828125 50.554688 148.828125 L 59.695313 148.828125 L 59.695313 157.773438 C 59.714844 236.378906 60.347656 299.617188 61.132813 301.660156 L 66.578125 301.660156 C 67.027344 326.140625 67.570313 325.597656 68.015625 300.222656 L 68.015625 4.785156 Z "/>
<path style=" stroke:none;fill-rule:nonzero;fill:rgb(58.039216%,58.039216%,58.039216%);fill-opacity:1;" d="M 19.445313 59.773438 L 10.148438 59.773438 L 10.148438 50.828125 C 9.707031 25.453125 9.160156 24.90625 8.710938 49.390625 L -3.265625 49.390625 C -4.050781 51.429688 -4.683594 114.671875 -4.707031 193.277344 L -4.707031 207.667969 C -4.683594 362.933594 -3.417969 487.679688 -1.867188 487.667969 L 19.445313 487.667969 C 19.878906 512.242188 20.414063 511.710938 20.84375 486.265625 L 20.84375 61.171875 C 20.414063 35.730469 19.878906 35.195313 19.445313 59.773438 Z "/>
<path style=" stroke:none;fill-rule:nonzero;fill:url(#linear0);" d="M 44.332031 25.238281 C 47.496094 25.238281 50.34375 27.15625 51.535156 30.085938 C 52.726563 33.015625 52.027344 36.378906 49.761719 38.585938 C 47.496094 40.792969 44.117188 41.410156 41.21875 40.144531 C 38.320313 38.878906 36.476563 35.984375 36.554688 32.820313 C 36.660156 28.601563 40.113281 25.238281 44.332031 25.238281 Z M 23.332031 12.09375 C 23.316406 14.722656 24.898438 17.097656 27.328125 18.101563 C 29.757813 19.101563 32.554688 18.53125 34.394531 16.652344 C 36.238281 14.777344 36.757813 11.972656 35.710938 9.5625 C 34.664063 7.152344 32.261719 5.613281 29.632813 5.679688 C 26.136719 5.742188 23.332031 8.59375 23.332031 12.09375 Z M 7.234375 35.699219 C 7.234375 38.554688 9.550781 40.871094 12.40625 40.871094 C 15.261719 40.871094 17.578125 38.554688 17.578125 35.699219 C 17.578125 32.84375 15.261719 30.527344 12.40625 30.527344 C 9.550781 30.527344 7.234375 32.84375 7.234375 35.699219 Z M 28.15625 51.449219 C 28.140625 53.5625 29.398438 55.472656 31.34375 56.292969 C 33.292969 57.109375 35.539063 56.675781 37.039063 55.1875 C 38.535156 53.699219 38.988281 51.457031 38.183594 49.503906 C 37.378906 47.550781 35.476563 46.277344 33.367188 46.277344 C 31.988281 46.265625 30.664063 46.808594 29.683594 47.777344 C 28.707031 48.75 28.15625 50.070313 28.15625 51.449219 Z M 51.179688 55.609375 C 51.160156 58.050781 52.621094 60.261719 54.871094 61.207031 C 57.121094 62.152344 59.722656 61.648438 61.453125 59.925781 C 63.1875 58.207031 63.707031 55.609375 62.777344 53.351563 C 61.847656 51.09375 59.648438 49.621094 57.207031 49.621094 C 55.605469 49.601563 54.066406 50.222656 52.933594 51.351563 C 51.800781 52.476563 51.167969 54.011719 51.179688 55.609375 Z "/>
</g>
</svg>
