<?xml version="1.0" encoding="UTF-8"?>
<svg xmlns="http://www.w3.org/2000/svg" xmlns:xlink="http://www.w3.org/1999/xlink" width="70pt" height="70pt" viewBox="0 0 70 70" version="1.1">
<defs>
<radialGradient id="radial0" gradientUnits="userSpaceOnUse" cx="125.5" cy="123.98" fx="125.5" fy="123.98" r="11.18" gradientTransform="matrix(3.655556,0,0,3.655556,-429.177778,-421.555556)">
<stop offset="0.27" style="stop-color:rgb(100%,84.313725%,5.882353%);stop-opacity:1;"/>
<stop offset="0.49" style="stop-color:rgb(100%,79.607843%,7.058824%);stop-opacity:1;"/>
<stop offset="0.88" style="stop-color:rgb(99.607843%,67.45098%,9.803922%);stop-opacity:1;"/>
<stop offset="1" style="stop-color:rgb(99.607843%,63.137255%,10.588235%);stop-opacity:1;"/>
</radialGradient>
</defs>
<g id="surface1">
<path style=" stroke:none;fill-rule:nonzero;fill:url(#radial0);" d="M 54.445313 27.609375 C 55.953125 26.109375 56.804688 24.0625 56.804688 21.933594 C 56.804688 19.800781 55.953125 17.757813 54.445313 16.253906 L 40.679688 237.222656 C 39.175781 235.710938 37.132813 234.863281 35 234.863281 C 32.867188 234.863281 30.824219 235.710938 29.320313 237.222656 L 15.554688 16.253906 C 14.046875 17.757813 13.195313 19.800781 13.195313 21.933594 C 13.195313 24.0625 14.046875 26.109375 15.554688 27.609375 L 27.222656 39.277344 C 27.648438 81.3125 27.886719 138.824219 27.882813 198.722656 L 27.882813 62.222656 C 28.144531 72.828125 28.417969 79.386719 28.699219 81.667969 L 33.949219 86.917969 C 34.28125 122.636719 34.746094 142.941406 35.234375 142.941406 C 35.71875 142.941406 36.183594 122.636719 36.515625 86.917969 L 41.609375 81.820313 L 44.605469 78.789063 C 44.605469 78.296875 44.605469 77.804688 44.605469 77.3125 L 42.464844 75.171875 C 42.464844 74.628906 42.464844 74.082031 42.464844 73.539063 L 40.328125 71.359375 C 40.328125 70.867188 40.328125 70.375 40.328125 69.882813 L 38.1875 67.707031 C 38.1875 67.175781 38.1875 66.644531 38.1875 66.109375 L 36.050781 63.933594 C 36.050781 63.441406 36.050781 62.949219 36.050781 62.457031 L 33.054688 59.421875 L 33.054688 40.832031 Z M 35 5.714844 C 36.863281 5.699219 38.550781 6.8125 39.269531 8.53125 C 39.992188 10.25 39.601563 12.234375 38.285156 13.550781 C 36.964844 14.867188 34.984375 15.257813 33.265625 14.539063 C 31.546875 13.816406 30.433594 12.128906 30.449219 10.265625 C 30.449219 7.753906 32.488281 5.714844 35 5.714844 Z "/>
<path style=" stroke:none;fill-rule:nonzero;fill:rgb(100%,57.647059%,0%);fill-opacity:0.74902;" d="M 31.382813 62.726563 C 31.558594 92.167969 31.878906 110.121094 32.222656 109.96875 C 32.566406 109.816406 32.882813 91.582031 33.054688 61.988281 L 33.054688 44.605469 C 32.902344 40.371094 32.742188 40.078125 32.589844 43.75 C 32.285156 23.027344 31.886719 21.394531 31.566406 39.527344 C 31.242188 57.664063 31.054688 92.445313 31.070313 129.304688 L 31.070313 146.6875 C 31.296875 124.746094 31.410156 93.957031 31.382813 62.726563 Z "/>
<path style=" stroke:none;fill-rule:nonzero;fill:rgb(100%,57.647059%,0%);fill-opacity:0.74902;" d="M 25.160156 20.882813 L 45.460938 20.882813 C 46.148438 20.882813 46.707031 21.441406 46.707031 22.128906 L 46.707031 22.320313 C 46.707031 23.007813 46.148438 23.566406 45.460938 23.566406 L 25.160156 23.566406 C 24.472656 23.566406 23.917969 23.007813 23.917969 22.320313 L 23.917969 22.128906 C 23.917969 21.441406 24.472656 20.882813 25.160156 20.882813 Z "/>
<path style=" stroke:none;fill-rule:nonzero;fill:rgb(100%,57.647059%,0%);fill-opacity:0.74902;" d="M 25.160156 25.238281 L 45.460938 25.238281 C 46.148438 25.238281 46.707031 25.796875 46.707031 26.484375 L 46.707031 26.679688 C 46.707031 27.363281 46.148438 27.921875 45.460938 27.921875 L 25.160156 27.921875 C 24.472656 27.921875 23.917969 27.363281 23.917969 26.679688 L 23.917969 26.484375 C 23.917969 25.796875 24.472656 25.238281 25.160156 25.238281 Z "/>
</g>
</svg>
