<?xml version="1.0" encoding="UTF-8"?>
<svg xmlns="http://www.w3.org/2000/svg" xmlns:xlink="http://www.w3.org/1999/xlink" width="70pt" height="70pt" viewBox="0 0 70 70" version="1.1">
<defs>
<linearGradient id="linear0" gradientUnits="userSpaceOnUse" x1="8.929" y1="7.745" x2="8.929" y2="0.5" gradientTransform="matrix(3.888889,0,0,3.888889,0,0)">
<stop offset="0" style="stop-color:rgb(21.568627%,76.078431%,69.411765%);stop-opacity:1;"/>
<stop offset="0.565" style="stop-color:rgb(24.705882%,86.666667%,76.470588%);stop-opacity:1;"/>
<stop offset="0.908" style="stop-color:rgb(25.882353%,90.980392%,79.215686%);stop-opacity:1;"/>
</linearGradient>
</defs>
<g id="surface1">
<path style=" stroke:none;fill-rule:nonzero;fill:rgb(46.27451%,46.27451%,46.27451%);fill-opacity:1;" d="M 59.636719 46.546875 L 64.007813 46.546875 C 64.390625 46.546875 64.703125 358.207031 64.703125 742.65625 L 64.703125 757.667969 L 58.941406 757.667969 L 58.941406 742.65625 C 59.15625 618.09375 59.421875 617.828125 59.636719 741.960938 Z "/>
<path style=" stroke:none;fill-rule:nonzero;fill:rgb(46.27451%,46.27451%,46.27451%);fill-opacity:1;" d="M 5.996094 46.921875 L 10.554688 46.921875 C 10.941406 46.921875 11.253906 78.261719 11.253906 116.921875 L 11.253906 131.558594 L 5.296875 131.558594 L 5.296875 47.621094 C 5.511719 34.898438 5.777344 34.632813 5.996094 46.921875 Z "/>
<path style=" stroke:none;fill-rule:nonzero;fill:rgb(58.039216%,58.039216%,58.039216%);fill-opacity:1;" d="M 5.296875 66.160156 L 5.296875 62.273438 L 64.703125 62.273438 L 64.703125 66.160156 C 402.429688 66.746094 401.707031 67.46875 62.808594 68.054688 L 7.179688 68.054688 C -331.714844 67.46875 -332.433594 66.746094 5.296875 66.160156 Z "/>
<path style=" stroke:none;fill-rule:nonzero;fill:rgb(0%,47.058824%,83.137255%);fill-opacity:1;" d="M 15.878906 28.292969 L 24.15625 28.292969 C 24.964844 28.292969 25.617188 28.945313 25.617188 29.75 L 25.617188 56.988281 C 25.617188 57.792969 24.964844 58.445313 24.15625 58.445313 L 15.878906 58.445313 C 15.074219 58.445313 14.421875 57.792969 14.421875 56.988281 L 14.421875 29.75 C 14.421875 28.945313 15.074219 28.292969 15.878906 28.292969 Z "/>
<path style=" stroke:none;fill-rule:nonzero;fill:rgb(0%,47.058824%,83.137255%);fill-opacity:1;" d="M 30.820313 28.292969 L 39.097656 28.292969 C 39.90625 28.292969 40.558594 28.945313 40.558594 29.75 L 40.558594 56.988281 C 40.558594 57.792969 39.90625 58.445313 39.097656 58.445313 L 30.820313 58.445313 C 30.015625 58.445313 29.359375 57.792969 29.359375 56.988281 L 29.359375 29.75 C 29.359375 28.945313 30.015625 28.292969 30.820313 28.292969 Z "/>
<path style=" stroke:none;fill-rule:nonzero;fill:rgb(21.568627%,76.078431%,69.411765%);fill-opacity:1;" d="M 45.757813 28.292969 L 54.035156 28.292969 C 54.839844 28.292969 55.496094 28.945313 55.496094 29.75 L 55.496094 56.988281 C 55.496094 57.792969 54.839844 58.445313 54.035156 58.445313 L 45.757813 58.445313 C 44.953125 58.445313 44.296875 57.792969 44.296875 56.988281 L 44.296875 29.75 C 44.296875 28.945313 44.953125 28.292969 45.757813 28.292969 Z "/>
<path style=" stroke:none;fill-rule:nonzero;fill:url(#linear0);" d="M 54.832031 13.6875 L 43.28125 2119.445313 C 43.109375 1951.949219 42.859375 1902.097656 42.636719 1992.945313 C 42.417969 2083.792969 42.273438 2297.628906 42.273438 2535.554688 L 42.273438 9.277344 C 28.347656 9.277344 14.421875 16.71875 14.421875 30.121094 C 2005.53125 27.132813 26.359375 19.1875 42.273438 19.1875 L 42.273438 25.667969 C 42.273438 263.589844 42.417969 477.429688 42.636719 568.277344 C 42.859375 659.125 43.109375 609.273438 43.28125 441.777344 L 54.832031 14.519531 C 54.832031 14.242188 54.832031 13.964844 54.832031 13.6875 Z "/>
</g>
</svg>
