<?xml version="1.0" encoding="UTF-8"?>
<svg xmlns="http://www.w3.org/2000/svg" xmlns:xlink="http://www.w3.org/1999/xlink" width="70pt" height="70pt" viewBox="0 0 70 70" version="1.1">
<g id="surface1">
<path style=" stroke:none;fill-rule:nonzero;fill:rgb(57,171,255);fill-opacity:1;" d="M 41.160156 66.5 C 41.160156 68.460938 39.621094 70 37.660156 70 L 3.5 70 C 1.539063 70 0 68.460938 0 66.5 L 0 3.5 C 0 1.539063 1.539063 0 3.5 0 L 37.519531 0 C 39.480469 0 41.019531 1.539063 41.019531 3.5 L 41.019531 66.5 Z "/>
<path style=" stroke:none;fill-rule:nonzero;fill:rgb(0,102,178);fill-opacity:1;" d="M 6.019531 37.800781 C 6.019531 35.28125 7.980469 33.320313 10.5 33.320313 L 30.941406 33.320313 C 33.460938 33.320313 35.421875 35.28125 35.421875 37.800781 C 35.421875 40.320313 33.460938 42.28125 30.941406 42.28125 L 10.5 42.28125 C 7.980469 42.28125 6.019531 40.320313 6.019531 37.800781 Z "/>
<path style=" stroke:none;fill-rule:nonzero;fill:rgb(115,195,255);fill-opacity:1;" d="M 13.578125 37.800781 C 13.578125 39.421875 12.265625 40.738281 10.640625 40.738281 C 9.015625 40.738281 7.699219 39.421875 7.699219 37.800781 C 7.699219 36.175781 9.015625 34.859375 10.640625 34.859375 C 12.265625 34.859375 13.578125 36.175781 13.578125 37.800781 Z "/>
<path style=" stroke:none;fill-rule:nonzero;fill:rgb(0,102,178);fill-opacity:1;" d="M 6.019531 24.5 C 6.019531 21.980469 7.980469 20.019531 10.5 20.019531 L 30.941406 20.019531 C 33.460938 20.019531 35.421875 21.980469 35.421875 24.5 C 35.421875 27.019531 33.460938 28.980469 30.941406 28.980469 L 10.5 28.980469 C 7.980469 28.980469 6.019531 27.019531 6.019531 24.5 Z "/>
<path style=" stroke:none;fill-rule:nonzero;fill:rgb(115,195,255);fill-opacity:1;" d="M 13.578125 24.5 C 13.578125 26.125 12.265625 27.441406 10.640625 27.441406 C 9.015625 27.441406 7.699219 26.125 7.699219 24.5 C 7.699219 22.875 9.015625 21.558594 10.640625 21.558594 C 12.265625 21.558594 13.578125 22.875 13.578125 24.5 Z "/>
<path style=" stroke:none;fill-rule:nonzero;fill:rgb(0,102,178);fill-opacity:1;" d="M 6.019531 11.339844 C 6.019531 8.820313 7.980469 6.859375 10.5 6.859375 L 30.941406 6.859375 C 33.460938 6.859375 35.421875 8.820313 35.421875 11.339844 C 35.421875 13.859375 33.460938 15.820313 30.941406 15.820313 L 10.5 15.820313 C 7.980469 15.820313 6.019531 13.71875 6.019531 11.339844 Z "/>
<path style=" stroke:none;fill-rule:nonzero;fill:rgb(115,195,255);fill-opacity:1;" d="M 13.578125 11.339844 C 13.578125 12.964844 12.265625 14.28125 10.640625 14.28125 C 9.015625 14.28125 7.699219 12.964844 7.699219 11.339844 C 7.699219 9.714844 9.015625 8.398438 10.640625 8.398438 C 12.265625 8.398438 13.578125 9.714844 13.578125 11.339844 Z "/>
<path style=" stroke:none;fill-rule:nonzero;fill:rgb(255,255,255);fill-opacity:1;" d="M 54.601563 28.558594 L 50.820313 36.960938 L 46.058594 38.359375 L 45.5 40.320313 L 45.5 45.640625 L 43.960938 51.378906 L 41.019531 54.601563 L 39.058594 61.039063 C 39.058594 61.039063 42.140625 64.261719 42.140625 64.960938 C 42.28125 70.558594 44.800781 72.238281 44.800781 72.238281 L 47.738281 83.441406 L 53.761719 83.441406 L 60.058594 82.878906 L 65.800781 77.140625 L 65.800781 71.261719 L 61.878906 61.878906 L 58.941406 57.261719 L 57.820313 54.039063 L 56.558594 47.738281 L 55.441406 46.058594 C 55.300781 46.058594 54.601563 46.058594 54.601563 47.460938 Z "/>
<path style=" stroke:none;fill-rule:nonzero;fill:rgb(147,209,255);fill-opacity:1;" d="M 54.460938 35.980469 C 54.039063 35.839844 53.761719 35.699219 53.480469 35.558594 C 53.058594 35.421875 52.78125 35.28125 52.5 35.140625 C 51.660156 34.578125 50.960938 34.300781 50.261719 34.300781 L 50.121094 34.300781 C 49.839844 34.300781 49.558594 34.300781 49.140625 35.699219 C 48.441406 38.5 48.019531 42.699219 47.601563 45.5 L 47.460938 46.898438 L 47.320313 48.300781 L 47.179688 49.699219 C 47.039063 51.101563 46.621094 53.898438 46.199219 56.699219 C 45.78125 59.5 45.640625 63.699219 45.78125 68.039063 C 51.941406 77.839844 47.179688 69.441406 46.058594 70 C 51.101563 75.738281 47.738281 73.21875 49.140625 73.5 C 54.738281 75.039063 54.738281 75.039063 54.738281 75.039063 L 54.878906 75.039063 C 55.578125 75.039063 56.140625 74.761719 56.699219 74.480469 C 58.101563 74.339844 59.5 74.339844 62.300781 74.199219 C 65.101563 74.058594 61.601563 73.78125 72.101563 73.640625 C 71.121094 73.359375 73.921875 72.660156 74.199219 71.960938 C 75.601563 71.679688 75.601563 71.261719 74.199219 70.980469 C 73.921875 72.378906 73.5 70.839844 73.078125 70.558594 Z M 68.320313 60.761719 C 67.898438 60.339844 67.761719 59.640625 67.621094 58.941406 L 67.621094 58.660156 C 67.480469 57.820313 67.199219 57.261719 66.921875 56.980469 C 66.359375 56.558594 65.941406 56.421875 65.238281 56.558594 L 64.820313 56.558594 C 64.261719 63.558594 62.859375 58.101563 61.878906 58.101563 L 61.460938 58.101563 C 60.480469 57.820313 59.921875 56.699219 59.78125 55.578125 L 59.78125 55.441406 L 59.5 55.441406 C 58.941406 58.238281 58.519531 65.238281 58.238281 57.398438 C 57.960938 67.199219 57.960938 59.5 57.820313 60.898438 C 57.820313 61.601563 57.539063 62.441406 57.261719 63.421875 C 57.121094 67.621094 56.980469 70.421875 56.980469 74.621094 C 56.558594 76.160156 56.558594 77.28125 56.839844 77.839844 C 63.558594 79.378906 58.660156 80.640625 58.660156 80.640625 L 58.941406 80.640625 C 60.339844 80.5 61.738281 79.660156 62.859375 78.398438 C 72.660156 77.28125 65.238281 76.578125 66.359375 76.019531 C 70.558594 75.738281 74.761719 75.601563 77.558594 75.460938 C 84.558594 75.039063 87.359375 74.761719 87.359375 74.199219 C 87.359375 73.5 87.078125 72.800781 86.238281 71.820313 Z M 44.660156 62.300781 C 44.101563 61.601563 43.398438 60.898438 43.121094 60.199219 C 42.558594 59.078125 42 57.820313 41.441406 56.980469 C 40.738281 56.140625 40.179688 55.578125 39.480469 55.578125 L 39.058594 55.578125 C 38.5 55.578125 38.078125 58.378906 37.800781 62.578125 C 37.660156 65.378906 37.378906 66.78125 37.238281 69.578125 C 37.101563 72.378906 36.820313 75.179688 36.539063 77.980469 C 36.121094 82.179688 35.558594 83.578125 35.140625 77.28125 C 35 77.28125 35 77.28125 34.859375 78.679688 C 34.300781 80.078125 33.878906 82.878906 33.460938 77.699219 C 33.179688 81.898438 33.320313 88.898438 33.320313 79.519531 L 33.320313 79.800781 C 33.460938 85.539063 45.921875 79.800781 35.140625 79.378906 C 46.339844 78.960938 37.101563 79.101563 37.519531 81.199219 C 45.21875 82.601563 38.359375 85.539063 47.460938 82.601563 C 47.601563 95.339844 50.121094 85.398438 51.378906 93.660156 C 56.980469 96.179688 61.179688 97.300781 61.601563 93.660156 C 62.300781 93.660156 62.578125 93.519531 63 93.378906 C 65.101563 92.261719 65.238281 90.859375 64.398438 92.679688 C 63.980469 91 63 89.601563 64.261719 92.539063 C 63.980469 92.121094 63.699219 91.699219 63.699219 91.699219 Z "/>
<path style=" stroke:none;fill-rule:nonzero;fill:rgb(0,33,58);fill-opacity:1;" d="M 52.21875 24.5 L 51.238281 24.5 C 43.261719 31.5 45.359375 33.601563 45.21875 36.398438 C 45.078125 38.5 44.660156 40.039063 43.261719 42.140625 C 41.578125 44.101563 39.199219 47.320313 38.078125 50.679688 C 37.519531 52.21875 37.238281 53.898438 37.519531 55.441406 C 37.378906 55.441406 37.378906 56.839844 37.378906 56.839844 C 36.820313 62.441406 36.539063 68.039063 36.121094 58.378906 C 35.699219 62.578125 35.140625 63.980469 34.578125 65.378906 C 34.019531 68.179688 33.320313 70.980469 32.898438 77.980469 C 32.480469 84.980469 32.621094 79.378906 32.761719 80.078125 C 32.898438 80.78125 33.039063 81.480469 32.898438 81.898438 C 32.480469 94.5 32.339844 84 32.761719 84.699219 C 33.039063 92.679688 42.558594 86.519531 43.960938 86.238281 C 46.761719 89.878906 46.761719 91.558594 55.160156 91.558594 L 55.300781 91.28125 L 55.160156 94.078125 C 56.980469 103.878906 58.660156 106.679688 60.058594 104.859375 C 59.78125 106.679688 59.21875 107.101563 58.238281 116.058594 C 58.238281 118.441406 57.820313 120.398438 57.679688 128.660156 C 57.539063 131.601563 61.878906 133.558594 61.878906 128.660156 C 62.019531 130.480469 65.238281 135.660156 63.421875 130.761719 C 65.519531 134.398438 65.519531 132.160156 63.28125 133.839844 C 62.300781 138.179688 60.761719 138.179688 60.761719 138.179688 L 60.480469 138.039063 L 63.421875 138.039063 C 64.679688 136.640625 66.640625 135.941406 67.898438 135.238281 C 67.199219 134.820313 80.5 134.398438 80.5 133.558594 C 80.5 132.859375 80.078125 132.019531 79.101563 130.898438 C 78.820313 130.480469 78.679688 129.921875 78.398438 129.078125 C 78.261719 128.378906 78.121094 127.539063 77.421875 127.121094 C 77.140625 126.980469 77 126.839844 76.71875 126.699219 C 85.121094 124.320313 82.320313 121.800781 76.441406 119.699219 C 75.460938 117.039063 73.640625 114.660156 72.238281 113.121094 C 70.699219 111.160156 69.300781 109.339844 69.300781 106.679688 C 69.160156 103.039063 72.101563 95.480469 62.441406 95.339844 Z M 53.199219 30.800781 C 53.621094 30.800781 53.898438 33.320313 57.820313 34.160156 C 64.261719 45.5 62.300781 42.839844 59.21875 42.839844 C 56.140625 42.839844 59.078125 52.640625 58.941406 44.238281 C 58.800781 47.039063 58.660156 48.441406 58.519531 51.238281 C 58.519531 51.238281 58.378906 51.238281 58.378906 51.101563 C 57.960938 50.960938 57.679688 50.820313 57.398438 50.679688 C 58.800781 50.539063 58.800781 50.398438 60.199219 50.261719 C 61.601563 49.980469 61.601563 49.699219 61.601563 49.421875 C 61.601563 49.140625 61.601563 48.859375 61.460938 48.71875 C 61.320313 48.441406 61.320313 48.300781 61.039063 48.160156 C 60.761719 48.019531 60.761719 47.878906 60.480469 47.878906 C 60.339844 47.878906 60.199219 47.878906 59.921875 49.28125 C 59.78125 50.679688 59.640625 52.078125 59.5 54.878906 C 59.359375 57.679688 59.359375 60.480469 59.359375 63.28125 L 59.359375 63.699219 C 58.941406 63.558594 58.660156 63.421875 58.378906 63.28125 L 58.378906 33.601563 C 58.378906 33.039063 59.78125 32.621094 61.179688 32.199219 C 61.039063 31.78125 65.378906 31.359375 69.578125 31.078125 C 73.78125 30.800781 68.738281 30.800781 82.179688 30.800781 Z M 47.601563 30.378906 C 47.320313 30.378906 48.160156 32.480469 50.679688 33.601563 C 56.980469 42 48.160156 42 48.160156 42 C 48.160156 42 48.441406 50.679688 60.761719 50.679688 L 60.761719 51.238281 L 60.621094 51.238281 L 59.78125 55.441406 L 59.78125 55.019531 C 59.78125 54.738281 59.640625 54.601563 59.640625 54.460938 C 59.5 54.320313 59.5 54.179688 59.359375 54.039063 C 59.21875 53.898438 59.078125 53.898438 59.078125 53.898438 C 58.941406 53.898438 58.800781 55.300781 58.660156 55.300781 C 58.519531 55.300781 58.519531 58.101563 58.378906 60.898438 C 58.238281 63.699219 58.378906 61.320313 58.378906 61.601563 C 58.378906 61.878906 58.378906 62.019531 60.339844 62.019531 C 60.480469 63.558594 63.421875 66.21875 63.421875 66.21875 L 63.140625 69.019531 C 63.140625 69.019531 63 70.421875 62.859375 70.421875 C 62.578125 70.28125 62.441406 70 62.300781 69.578125 C 62.160156 69.160156 62.019531 68.738281 62.019531 68.320313 C 62.019531 67.898438 62.019531 67.480469 63.421875 67.058594 C 64.820313 66.640625 66.21875 66.359375 69.019531 66.078125 C 71.820313 65.941406 74.621094 65.941406 78.820313 65.800781 C 78.820313 65.941406 78.820313 65.800781 78.820313 65.800781 Z M 50.121094 33.601563 C 50.679688 33.601563 51.519531 33.738281 52.359375 42.558594 C 57.539063 46.761719 54.320313 51.378906 54.460938 47.601563 C 61.460938 47.601563 54.320313 47.601563 54.320313 47.601563 C 54.320313 47.601563 54.460938 53.199219 54.320313 48.441406 C 54.039063 54.039063 53.339844 61.039063 52.359375 49.980469 C 51.800781 51.378906 51.378906 55.578125 50.820313 58.378906 C 50.261719 61.179688 49.699219 63.980469 48.859375 63.980469 C 48.160156 63.980469 47.738281 63.699219 47.460938 63.421875 C 47.039063 63.140625 46.761719 62.71875 46.339844 62.441406 C 45.640625 62.019531 45.21875 61.460938 45.078125 61.039063 C 44.941406 60.621094 45.078125 60.199219 49.28125 59.921875 C 53.480469 59.640625 56.28125 59.359375 59.078125 59.21875 C 60.480469 59.078125 61.878906 59.078125 61.878906 58.941406 C 64.679688 58.660156 70.28125 58.101563 63.421875 57.820313 C 67.761719 64.820313 63.421875 58.800781 63.421875 58.800781 Z M 54.460938 36.261719 C 54.179688 36.261719 53.898438 37.660156 53.621094 39.058594 C 53.339844 40.460938 52.921875 43.261719 52.5 46.058594 C 51.660156 50.261719 50.820313 54.460938 49.839844 54.460938 C 48.859375 54.460938 48.160156 54.039063 47.601563 53.621094 C 47.320313 53.339844 47.039063 53.199219 46.898438 53.058594 L 46.621094 52.78125 C 46.480469 52.640625 46.480469 52.640625 46.339844 52.640625 L 46.339844 52.21875 C 46.199219 52.21875 46.199219 53.898438 47.738281 53.898438 C 47.878906 55.71875 52.640625 60.058594 51.941406 55.300781 C 52.921875 57.679688 61.738281 57.679688 61.738281 57.679688 C 61.738281 57.679688 63.699219 57.261719 64.539063 56.699219 C 64.121094 56.421875 72.941406 56.28125 75.738281 56 C 78.539063 55.859375 81.339844 55.71875 82.738281 55.71875 L 82.601563 55.578125 Z M 53.480469 48.859375 C 54.179688 51.519531 55.71875 55.441406 56.839844 57.398438 C 63.421875 59.078125 60.058594 59.5 62.578125 60.199219 C 62.578125 60.761719 62.578125 61.179688 65.238281 56.980469 C 64.261719 50.398438 63.140625 49.421875 64.820313 56.558594 C 64.398438 56 64.539063 56 77 59.21875 C 79.941406 62.300781 82.179688 63 79.800781 61.320313 C 79.800781 64.539063 81.199219 61.320313 80.078125 63.140625 C 81.480469 65.101563 89.878906 65.800781 81.898438 65.519531 C 84.839844 65.519531 89.878906 65.519531 89.878906 65.519531 L 89.601563 65.519531 C 89.320313 64.679688 89.320313 63.980469 87.640625 63.140625 C 85.960938 62.441406 84.558594 62.441406 84.28125 71.539063 L 84.28125 71.820313 C 84.140625 71.820313 84 73.21875 83.859375 73.21875 C 83.019531 77.421875 82.601563 85.820313 82.320313 75.460938 C 82.039063 85.261719 82.039063 77.699219 81.898438 78.960938 C 81.898438 79.660156 81.621094 80.5 81.339844 81.480469 C 78.539063 83.578125 74.480469 84.421875 71.121094 87.078125 C 70.839844 86.660156 70.699219 86.378906 70.421875 85.960938 C 70.28125 85.679688 70.140625 85.539063 69.859375 85.261719 C 72.660156 85.261719 70.558594 85.261719 70.699219 85.121094 C 73.5 84.980469 76.300781 84.839844 76.300781 84.558594 C 77.699219 84 76.300781 83.300781 75.601563 82.320313 C 74.898438 81.480469 73.78125 80.5 72.238281 79.378906 C 70.980469 78.679688 70.421875 77.699219 70 76.71875 C 69.578125 75.738281 69.71875 74.621094 70 73.640625 C 69.578125 71.539063 71.679688 69.578125 72.378906 68.320313 C 73.78125 68.179688 74.058594 67.621094 74.199219 67.621094 C 75.601563 65.519531 78.960938 67.339844 81.480469 67.621094 C 79.660156 73.21875 77.839844 80.21875 76.019531 78.820313 C 73.640625 82.179688 69.441406 82.320313 66.078125 80.21875 C 66.078125 80.640625 69.441406 84.839844 69.578125 86.941406 C 79.800781 90.578125 75.179688 88.621094 77.421875 86.941406 C 78.960938 86.660156 79.519531 86.378906 83.019531 86.660156 C 92.820313 85.960938 84.421875 85.820313 91.421875 86.519531 C 92.960938 85.960938 93.378906 85.398438 93.378906 85.398438 Z M 59.078125 64.261719 C 59.5 64.261719 59.921875 66.921875 63.140625 69.859375 C 64.820313 82.320313 64.960938 69.578125 68.738281 68.320313 C 70.140625 65.941406 81.339844 67.480469 68.460938 67.058594 C 66.921875 65.941406 66.078125 67.058594 67.761719 71.261719 C 66.78125 81.058594 66.78125 81.058594 66.78125 81.058594 Z M 57.679688 65.941406 C 57.820313 77.839844 60.058594 67.621094 60.339844 77.421875 C 63 76.71875 63.699219 76.019531 63.699219 76.019531 L 63.28125 76.019531 C 62.71875 76.019531 64.398438 76.019531 64.820313 80.640625 C 68.179688 91.140625 66.5 91.140625 66.5 91.140625 C 66.5 91.140625 66.78125 92.679688 74.898438 93.101563 C 75.878906 104.160156 76.578125 105.699219 77.140625 93.101563 C 77.558594 92.820313 85.539063 92.121094 88.339844 91.839844 C 95.339844 88.480469 89.738281 87.21875 91.28125 90.71875 C 92.679688 88.058594 93.378906 86.800781 93.519531 86.800781 C 93.660156 86.800781 91.140625 86.378906 90.578125 85.121094 C 90.160156 84.421875 90.300781 83.160156 91.980469 81.898438 C 94.78125 80.640625 100.378906 79.378906 100.378906 78.261719 C 100.378906 76.859375 100.238281 75.738281 104.578125 74.761719 C 105.980469 74.058594 108.78125 73.359375 103.320313 72.941406 C 103.179688 74.339844 103.179688 74.339844 103.320313 72.941406 Z M 37.101563 67.339844 L 37.378906 67.339844 C 38.078125 68.738281 38.78125 67.898438 39.339844 68.738281 C 39.898438 69.578125 40.460938 70.699219 41.019531 71.960938 C 41.441406 81.761719 42.421875 73.921875 43.261719 75.039063 C 52.78125 76.441406 45.359375 76.441406 46.199219 74.898438 C 47.601563 74.058594 48.441406 72.800781 48.71875 73.640625 C 51.519531 70.699219 48.71875 69.160156 47.878906 71.820313 C 46.898438 67.761719 47.039063 66.359375 46.761719 71.121094 C 46.621094 70 46.339844 69.71875 45.921875 69.71875 C 45.5 69.71875 45.640625 68.601563 48.71875 67.339844 C 48.441406 66.640625 48.71875 65.941406 48.71875 65.238281 C 48.578125 64.539063 48.578125 63.839844 48.578125 63.421875 C 51.378906 62.859375 55.578125 62.578125 61.179688 62.441406 C 66.78125 62.300781 73.78125 62.019531 62.859375 61.601563 C 67.058594 61.039063 71.261719 60.480469 75.460938 60.058594 C 79.660156 59.640625 82.460938 59.359375 88.058594 59.359375 Z "/>
</g>
</svg>
