<?xml version="1.0" encoding="UTF-8"?>
<svg xmlns="http://www.w3.org/2000/svg" xmlns:xlink="http://www.w3.org/1999/xlink" width="70pt" height="70pt" viewBox="0 0 70 70" version="1.1">
<defs>
<linearGradient id="linear0" gradientUnits="userSpaceOnUse" x1="-0.258" y1="-0.226" x2="8.727" y2="8.72" gradientTransform="matrix(3.888889,0,0,3.888889,0,0)">
<stop offset="0.059" style="stop-color:rgb(0,120,210);stop-opacity:1;"/>
<stop offset="1" style="stop-color:rgb(0,73,128);stop-opacity:1;"/>
</linearGradient>
<linearGradient id="linear1" gradientUnits="userSpaceOnUse" x1="9.064" y1="8.78" x2="17.493" y2="0.669" gradientTransform="matrix(3.888889,0,0,3.888889,0,0)">
<stop offset="0" style="stop-color:rgb(0,73,128);stop-opacity:1;"/>
<stop offset="0.941" style="stop-color:rgb(0,120,210);stop-opacity:1;"/>
</linearGradient>
<linearGradient id="linear2" gradientUnits="userSpaceOnUse" x1="8.863" y1="8.499" x2="17.77" y2="18.081" gradientTransform="matrix(3.888889,0,0,3.888889,0,0)">
<stop offset="0.059" style="stop-color:rgb(0,120,210);stop-opacity:1;"/>
<stop offset="1" style="stop-color:rgb(0,73,128);stop-opacity:1;"/>
</linearGradient>
<linearGradient id="linear3" gradientUnits="userSpaceOnUse" x1="8.643" y1="9.163" x2="0.493" y2="17.672" gradientTransform="matrix(3.888889,0,0,3.888889,0,0)">
<stop offset="0.059" style="stop-color:rgb(0,120,210);stop-opacity:1;"/>
<stop offset="1" style="stop-color:rgb(0,73,128);stop-opacity:1;"/>
</linearGradient>
</defs>
<g id="surface1">
<path style=" stroke:none;fill-rule:nonzero;fill:url(#linear0);" d="M 28.523438 28.570313 L 7.503906 28.570313 C 7.160156 226.90625 6.738281 226.484375 6.394531 27.460938 L 6.394531 7.550781 C 6.738281 -191.472656 7.160156 -191.894531 7.503906 6.441406 L 27.414063 6.441406 C 28.027344 6.441406 28.523438 504.398438 28.523438 1118.664063 L 28.523438 28.570313 M 32.976563 33.019531 L 32.976563 3.109375 C 32.429688 -304.019531 31.738281 -108.839844 31.429688 439.054688 C 31.121094 986.953125 31.316406 1680.089844 31.867188 1987.222656 L 3.058594 1987.222656 C 3.597656 1680.089844 3.785156 993.222656 3.480469 453.054688 C 3.171875 -87.109375 2.484375 -276.019531 1.945313 31.109375 L 1.945313 31.910156 C 1.945313 646.171875 2.441406 1144.128906 3.058594 1144.128906 Z "/>
<path style=" stroke:none;fill-rule:nonzero;fill:url(#linear1);" d="M 41.476563 28.570313 L 41.476563 7.570313 C 41.820313 -191.453125 42.242188 -191.875 42.585938 6.460938 L 62.496094 6.460938 C 63.109375 6.460938 63.605469 504.417969 63.605469 1118.683594 L 63.605469 27.460938 C 63.605469 641.722656 63.109375 1139.683594 62.496094 1139.683594 L 41.476563 1139.683594 M 37.023438 33.019531 L 66.941406 33.019531 C 67.289063 231.355469 67.710938 230.933594 68.054688 31.910156 L 68.054688 -3.109375 C 67.710938 -201.335938 67.289063 -201.761719 66.941406 -4.226563 L 38.132813 -4.226563 C 37.785156 -191.285156 37.359375 -177.824219 37.023438 31.109375 Z "/>
<path style=" stroke:none;fill-rule:nonzero;fill:url(#linear2);" d="M 41.476563 41.429688 L 62.496094 41.429688 C 63.109375 41.429688 63.605469 539.386719 63.605469 1153.652344 L 63.605469 1173.558594 C 63.605469 1787.820313 63.109375 2285.78125 62.496094 2285.78125 L 42.585938 2285.78125 C 42.242188 2484.117188 41.820313 2483.691406 41.476563 2284.667969 L 41.476563 2263.667969 M 37.023438 36.980469 L 37.023438 66.890625 C 37.023438 681.785156 37.519531 1180.859375 38.132813 1183 L 66.941406 1183 C 67.558594 1180.859375 68.054688 681.785156 68.054688 66.890625 L 68.054688 38.109375 C 67.710938 -160.914063 67.289063 -161.335938 66.941406 37 Z "/>
<path style=" stroke:none;fill-rule:nonzero;fill:url(#linear3);" d="M 28.523438 41.429688 L 28.523438 62.429688 C 28.523438 676.691406 28.027344 1174.652344 27.414063 1174.652344 L 7.503906 1174.652344 C 7.160156 1372.984375 6.738281 1372.5625 6.394531 1173.539063 L 6.394531 42.539063 C 6.738281 -156.484375 7.160156 -156.90625 7.503906 41.429688 L 28.523438 41.429688 M 32.976563 36.980469 L 3.058594 36.980469 C 2.710938 -161.351563 2.289063 -160.917969 1.945313 38.109375 L 1.945313 66.890625 C 1.945313 681.785156 2.441406 1180.859375 3.058594 1183 L 31.867188 1183 C 32.480469 1180.859375 32.976563 681.785156 32.976563 66.890625 Z "/>
<path style=" stroke:none;fill-rule:nonzero;fill:rgb(29,159,255);fill-opacity:1;" d="M 57.945313 31.964844 C 57.609375 25.46875 56.253906 19.0625 53.925781 12.984375 C 1111.707031 13.589844 1968.714844 871.578125 1968.109375 1929.359375 C 1967.503906 2987.136719 1109.515625 3844.144531 51.738281 3843.539063 C 1110.222656 3839.207031 1964.78125 2977.621094 1960.445313 1919.136719 C 1956.113281 860.648438 1094.527344 6.09375 36.042969 10.425781 C 23.941406 10.425781 14.132813 20.230469 14.132813 32.328125 C 14.128906 44.429688 23.9375 54.238281 36.035156 54.238281 C 48.136719 54.238281 57.945313 44.429688 57.945313 32.332031 Z "/>
<path style=" stroke:none;fill-rule:nonzero;fill:rgb(255,255,255);fill-opacity:1;" d="M 53.75 42.191406 C 48.273438 49.308594 36.773438 46.933594 29.472656 47.300781 C -21 46.59375 -62.488281 86.9375 -63.195313 137.410156 C -63.902344 187.882813 -23.558594 229.371094 26.914063 230.078125 L 28.011719 229.710938 C 31.683594 228.679688 35.28125 227.398438 38.78125 225.878906 C 45.351563 222.539063 50.097656 216.453125 51.742188 209.269531 C 48.960938 216.113281 43.378906 221.429688 36.40625 223.871094 C 34.417969 234.917969 30.324219 245.480469 24.351563 254.984375 L 23.988281 254.800781 C 18.703125 41.640625 18.519531 30.144531 28 26.492188 C 32.199219 24.851563 36.214844 25.761719 40.777344 24.667969 C 46.152344 23.359375 50.765625 19.933594 53.570313 15.167969 C 56.308594 23.023438 59.226563 34.886719 53.75 42.191406 Z M 22.902344 49.308594 C 23.617188 -363.402344 23.964844 -1204.34375 23.75 -2001.398438 C 23.539063 -2798.449219 22.816406 -3353.078125 21.992188 -3353.902344 C 21.167969 -3354.726563 20.441406 -2801.539063 20.226563 -2004.914063 C 20.011719 -1208.289063 20.359375 -366.652344 21.074219 47.484375 C 21.640625 375.351563 22.335938 376.046875 22.902344 49.308594 Z "/>
</g>
</svg>
