<?xml version="1.0" encoding="UTF-8"?>
<svg xmlns="http://www.w3.org/2000/svg" xmlns:xlink="http://www.w3.org/1999/xlink" width="70pt" height="70pt" viewBox="0 0 70 70" version="1.1">
<defs>
<linearGradient id="linear0" gradientUnits="userSpaceOnUse" x1="7.12" y1="17.44" x2="7.12" y2="0.56" gradientTransform="matrix(3.888889,0,0,3.888889,0,0)">
<stop offset="0" style="stop-color:rgb(47,166,255);stop-opacity:1;"/>
<stop offset="0.36" style="stop-color:rgb(53,169,255);stop-opacity:1;"/>
<stop offset="0.63" style="stop-color:rgb(71,176,255);stop-opacity:1;"/>
<stop offset="0.88" style="stop-color:rgb(99,188,255);stop-opacity:1;"/>
<stop offset="1" style="stop-color:rgb(119,197,255);stop-opacity:1;"/>
</linearGradient>
</defs>
<g id="surface1">
<path style=" stroke:none;fill-rule:nonzero;fill:url(#linear0);" d="M 3.65625 2.179688 L 51.761719 2.179688 C 52.964844 2.179688 53.9375 3.152344 53.9375 4.355469 L 53.9375 65.644531 C 53.9375 66.847656 52.964844 67.820313 51.761719 67.820313 L 3.65625 67.820313 C 2.453125 67.820313 1.476563 66.847656 1.476563 65.644531 L 1.476563 4.355469 C 1.476563 3.152344 2.453125 2.179688 3.65625 2.179688 Z "/>
<path style=" stroke:none;fill-rule:nonzero;fill:rgb(0,108,188);fill-opacity:1;" d="M 68.367188 48.144531 L 57.207031 36.984375 C 57.089844 21.101563 56.90625 12.019531 56.710938 12.800781 C 56.511719 13.585938 56.335938 24.125 56.234375 40.871094 L 56.234375 47.40625 C 42.816406 47.40625 29.398438 54.5625 29.398438 67.472656 C 219.957031 64.59375 41.066406 56.933594 56.234375 56.933594 L 56.234375 63.195313 C 56.335938 79.941406 56.511719 90.484375 56.710938 91.265625 C 56.90625 92.046875 57.089844 82.964844 57.207031 67.082031 L 68.367188 55.921875 C 68.367188 53.332031 68.367188 50.734375 68.367188 48.144531 Z "/>
<path style=" stroke:none;fill-rule:nonzero;fill:rgb(119,197,255);fill-opacity:1;" d="M 43.011719 21.777344 L 43.011719 39.589844 L 27.726563 48.535156 L 27.726563 30.683594 Z "/>
<path style=" stroke:none;fill-rule:nonzero;fill:rgb(201,232,255);fill-opacity:1;" d="M 43.011719 21.777344 L 27.726563 30.722656 L 12.40625 21.777344 L 27.726563 12.832031 Z "/>
<path style=" stroke:none;fill-rule:nonzero;fill:rgb(171,219,255);fill-opacity:1;" d="M 27.726563 30.722656 L 27.726563 48.535156 L 12.40625 39.589844 L 12.40625 21.777344 Z "/>
<path style=" stroke:none;fill-rule:nonzero;fill:rgb(201,232,255);fill-opacity:1;" d="M 12.40625 39.589844 L 27.726563 30.683594 L 27.726563 48.535156 Z "/>
<path style=" stroke:none;fill-rule:nonzero;fill:rgb(171,219,255);fill-opacity:1;" d="M 43.011719 39.589844 L 27.726563 30.683594 L 27.726563 48.535156 Z "/>
</g>
</svg>
