<?xml version="1.0" encoding="UTF-8"?>
<svg xmlns="http://www.w3.org/2000/svg" xmlns:xlink="http://www.w3.org/1999/xlink" width="70pt" height="70pt" viewBox="0 0 70 70" version="1.1">
<defs>
<linearGradient id="linear0" gradientUnits="userSpaceOnUse" x1="-175.993" y1="-343.723" x2="-175.993" y2="-359.232" gradientTransform="matrix(4.495556,0,0,4.001667,826.672778,1441.02)">
<stop offset="0" style="stop-color:rgb(93,186,255);stop-opacity:1;"/>
<stop offset="0.284" style="stop-color:rgb(97,187,255);stop-opacity:1;"/>
<stop offset="0.547" style="stop-color:rgb(109,193,255);stop-opacity:1;"/>
<stop offset="0.8" style="stop-color:rgb(131,202,255);stop-opacity:1;"/>
<stop offset="1" style="stop-color:rgb(153,211,255);stop-opacity:1;"/>
</linearGradient>
</defs>
<g id="surface1">
<path style=" stroke:none;fill-rule:nonzero;fill:rgb(119,197,255);fill-opacity:1;" d="M 21.546875 50.964844 L 19.265625 53.25 C 18.863281 53.65625 -310.648438 -274.269531 -716.714844 -679.1875 L -733.644531 -696.070313 C -1544.257813 -1504.394531 -2200.738281 -2160.328125 -2199.929688 -2161.140625 L -2197.636719 -2163.4375 L 21.554688 49.488281 C 152.894531 180.914063 152.894531 181.472656 21.558594 50.957031 Z "/>
<path style=" stroke:none;fill-rule:nonzero;fill:rgb(0,132,230);fill-opacity:1;" d="M 18.914063 16.742188 L 21.207031 19.027344 C 21.613281 19.433594 -306.3125 348.945313 -711.230469 755.011719 L -729.308594 773.140625 L -731.605469 770.847656 C -993.054688 1032.128906 -993.054688 1031.011719 -731.609375 767.917969 L 17.449219 16.738281 C 148.871094 -114.601563 149.429688 -114.601563 18.914063 16.742188 Z "/>
<path style=" stroke:none;fill-rule:nonzero;fill:rgb(119,197,255);fill-opacity:1;" d="M 66.847656 31.15625 L 69.136719 33.453125 C 69.945313 34.261719 -586.53125 690.195313 -1397.144531 1498.519531 L -1414.078125 1515.402344 C -1820.144531 1920.324219 -2149.652344 2248.246094 -2150.058594 2247.839844 L -2152.335938 2245.558594 C -2283.675781 2376.074219 -2283.675781 2375.511719 -2152.332031 2244.089844 L 66.855469 31.164063 Z "/>
<path style=" stroke:none;fill-rule:nonzero;fill:rgb(0,132,230);fill-opacity:1;" d="M 69.152344 36.324219 L 66.859375 38.613281 L 48.78125 20.484375 C -356.140625 -385.582031 -684.0625 -715.09375 -683.65625 -715.5 L -681.363281 -717.785156 C -811.878906 -849.125 -811.316406 -849.125 -679.894531 -717.785156 L 69.164063 33.394531 C 330.609375 296.492188 330.609375 297.609375 69.160156 36.328125 Z "/>
<path style=" stroke:none;fill-rule:nonzero;fill:url(#linear0);" d="M 32.894531 38.5 L 18.9375 38.5 C 18.699219 183.09375 18.398438 182.820313 18.160156 37.796875 L 17.871094 37.796875 L 34.964844 4.394531 C 35.191406 -110.78125 35.460938 -110.933594 35.6875 3.980469 L 52.195313 3.980469 C 52.605469 -11.5625 52.949219 301.328125 52.972656 708.511719 L 56.863281 708.511719 L 33.1875 30.980469 L 52.351563 30.980469 C 52.761719 15.433594 53.105469 328.347656 53.128906 735.550781 L 527.574219 735.550781 L 21.082031 65.285156 C 20.78125 244.175781 18.65625 84.730469 19.695313 64.550781 Z "/>
</g>
</svg>
