<?xml version="1.0" encoding="UTF-8"?>
<svg xmlns="http://www.w3.org/2000/svg" xmlns:xlink="http://www.w3.org/1999/xlink" width="70pt" height="70pt" viewBox="0 0 70 70" version="1.1">
<defs>
<linearGradient id="linear0" gradientUnits="userSpaceOnUse" x1="8.99" y1="16.61" x2="8.99" y2="-1.27" gradientTransform="matrix(3.888889,0,0,3.888889,0,0)">
<stop offset="0" style="stop-color:rgb(0%,47.058824%,83.137255%);stop-opacity:1;"/>
<stop offset="0.16" style="stop-color:rgb(7.45098%,50.196078%,85.490196%);stop-opacity:1;"/>
<stop offset="0.53" style="stop-color:rgb(23.529412%,56.862745%,89.803922%);stop-opacity:1;"/>
<stop offset="0.82" style="stop-color:rgb(33.333333%,61.176471%,92.54902%);stop-opacity:1;"/>
<stop offset="1" style="stop-color:rgb(36.862745%,62.745098%,93.72549%);stop-opacity:1;"/>
</linearGradient>
</defs>
<g id="surface1">
<path style=" stroke:none;fill-rule:nonzero;fill:url(#linear0);" d="M 70 41.027344 C 69.875 33.199219 64.097656 26.613281 56.351563 25.472656 C 56.054688 14.476563 46.929688 5.789063 35.933594 6.027344 C 27.242188 5.9375 19.445313 11.351563 16.488281 19.523438 C 7.097656 20.746094 0.0546875 28.71875 0 38.1875 C 0.296875 48.785156 9.121094 57.136719 19.714844 56.855469 L 53.355469 56.855469 C 53.640625 56.878906 53.925781 56.878906 54.210938 56.855469 C 62.886719 56.710938 69.875 49.703125 70 41.027344 Z "/>
<path style=" stroke:none;fill-rule:nonzero;fill:rgb(89.019608%,89.019608%,89.019608%);fill-opacity:1;" d="M 23.140625 37.527344 C 23.140625 39.050781 21.902344 40.289063 20.378906 40.289063 C 18.851563 40.289063 17.617188 39.050781 17.617188 37.527344 C 17.617188 36.003906 18.851563 34.765625 20.378906 34.765625 C 21.902344 34.765625 23.140625 36.003906 23.140625 37.527344 Z "/>
<path style=" stroke:none;fill-rule:nonzero;fill:rgb(100%,100%,100%);fill-opacity:1;" d="M 30.101563 38.578125 L 30.101563 36.359375 L 29.789063 36.359375 L 27.417969 35.582031 L 26.792969 34.066406 L 147.351563 31.5 L 145.792969 29.945313 L 145.484375 29.945313 L 23.917969 31.109375 L 22.398438 30.488281 L 21.429688 27.804688 L 19.210938 27.804688 L 19.210938 28.117188 L 18.433594 265.339844 L 16.800781 31.109375 L 14.273438 29.90625 L 12.714844 45.460938 L 12.714844 45.773438 L 127.710938 45.148438 L 279.378906 42.429688 L 376.601563 42.429688 L 376.601563 38.890625 L 376.910156 38.890625 L 379.285156 47.289063 L 530.949219 46.082031 L 789.171875 61.949219 L 789.171875 64.167969 L 788.042969 216.457031 L 890.167969 216.457031 L 890.167969 216.144531 L 897.945313 213.773438 L 1049.609375 213.148438 L 1307.484375 228.707031 L 1305.929688 228.707031 L 1305.617188 227.578125 L 1303.398438 289.800781 L 1301.882813 289.800781 Z M 20.378906 361.355469 C 18.015625 361.355469 16.101563 359.441406 16.101563 357.078125 C 16.101563 354.714844 18.015625 352.800781 20.378906 352.800781 C 22.742188 352.800781 24.65625 354.714844 24.65625 357.078125 C -62.40625 358.257813 -133.9375 288.640625 -135.121094 201.582031 C -136.300781 114.519531 -66.683594 42.988281 20.378906 41.804688 Z "/>
<path style=" stroke:none;fill-rule:nonzero;fill:rgb(89.019608%,89.019608%,89.019608%);fill-opacity:1;" d="M 42.15625 25.628906 C 42.15625 27.433594 40.691406 28.894531 38.890625 28.894531 C 37.085938 28.894531 35.621094 27.433594 35.621094 25.628906 C 35.621094 23.824219 37.085938 22.359375 38.890625 22.359375 C 40.691406 22.359375 42.15625 23.824219 42.15625 25.628906 Z "/>
<path style=" stroke:none;fill-rule:nonzero;fill:rgb(100%,100%,100%);fill-opacity:1;" d="M 50.554688 26.871094 L 50.554688 24.226563 L 50.207031 24.226563 L 47.328125 23.332031 L 46.667969 21.351563 L 48.105469 18.238281 L 46.238281 16.371094 L 45.890625 16.371094 L 43.207031 152.484375 L 41.417969 151.746094 L 40.25 148.515625 L 37.488281 148.515625 L 37.488281 148.90625 L 36.554688 432.792969 L 34.726563 506.683594 L 31.695313 505.246094 L 29.828125 692.105469 L 64.828125 692.105469 L 31.109375 21.390625 L 30.488281 23.332031 L 27.222656 24.382813 L 27.222656 27.222656 L 27.609375 27.222656 L 30.449219 120.554688 L 31.109375 29.90625 L 29.671875 61.015625 L 31.617188 35 L 32.003906 34.804688 L 296.449219 33.445313 L 479.964844 48.339844 L 482.609375 48.339844 L 482.609375 47.949219 L 575.945313 45.109375 L 758.722656 44.371094 L 1067.382813 231.039063 L 1065.515625 230.84375 L 1065.167969 230.84375 L 46.667969 29.867188 L 47.40625 28.039063 Z M 38.890625 30.761719 C 36.054688 30.761719 33.753906 28.460938 33.753906 25.628906 C 33.753906 22.792969 36.054688 20.496094 38.890625 20.496094 C 41.722656 20.496094 44.023438 22.792969 44.023438 25.628906 C 44.03125 26.992188 43.496094 28.304688 42.53125 29.269531 C 41.566406 30.234375 40.253906 30.773438 38.890625 30.761719 Z "/>
</g>
</svg>
