<?xml version="1.0" encoding="UTF-8"?>
<svg xmlns="http://www.w3.org/2000/svg" xmlns:xlink="http://www.w3.org/1999/xlink" width="70pt" height="70pt" viewBox="0 0 70 70" version="1.1">
<defs>
<linearGradient id="linear0" gradientUnits="userSpaceOnUse" x1="9" y1="11.06" x2="9" y2="7.53" gradientTransform="matrix(3.888889,0,0,3.888889,0,0)">
<stop offset="0" style="stop-color:rgb(88.627451%,40.392157%,3.137255%);stop-opacity:1;"/>
<stop offset="1" style="stop-color:rgb(96.862745%,55.294118%,11.764706%);stop-opacity:1;"/>
</linearGradient>
<linearGradient id="linear1" gradientUnits="userSpaceOnUse" x1="9" y1="17.7" x2="9" y2="0.3" gradientTransform="matrix(3.888889,0,0,3.888889,0,0)">
<stop offset="0" style="stop-color:rgb(88.627451%,40.392157%,3.137255%);stop-opacity:1;"/>
<stop offset="0.005" style="stop-color:rgb(88.627451%,40.784314%,3.137255%);stop-opacity:1;"/>
<stop offset="0.117" style="stop-color:rgb(92.54902%,47.45098%,7.058824%);stop-opacity:1;"/>
<stop offset="0.257" style="stop-color:rgb(94.901961%,51.764706%,9.803922%);stop-opacity:1;"/>
<stop offset="0.454" style="stop-color:rgb(96.470588%,54.509804%,11.372549%);stop-opacity:1;"/>
<stop offset="1" style="stop-color:rgb(96.862745%,55.294118%,11.764706%);stop-opacity:1;"/>
</linearGradient>
</defs>
<g id="surface1">
<path style=" stroke:none;fill-rule:nonzero;fill:rgb(88.627451%,47.45098%,3.137255%);fill-opacity:1;" d="M 35 37.722656 L 25.277344 47.445313 C 25.277344 46.667969 24.5 45.890625 24.109375 45.109375 C 23.722656 44.332031 23.332031 44.332031 22.945313 44.332031 L 32.277344 35 L 22.167969 24.890625 C 23.417969 24.410156 24.410156 23.417969 24.890625 22.167969 L 35 32.277344 L 45.109375 22.167969 C 44.722656 30.332031 57.945313 37.722656 57.945313 37.722656 C 61.167969 37.292969 64.125 39.554688 64.554688 42.777344 C 64.984375 46 62.722656 48.960938 59.5 49.390625 L 37.722656 35 L 47.445313 44.722656 C 46.65625 26.828125 45.828125 37.867188 45.109375 75.832031 Z "/>
<path style=" stroke:none;fill-rule:nonzero;fill:rgb(88.627451%,47.45098%,3.137255%);fill-opacity:1;" d="M 21.390625 52.890625 L 29.945313 61.445313 L 29.945313 61.054688 C 30.011719 59.429688 30.710938 57.898438 31.890625 56.777344 L 24.890625 49.777344 C 24.480469 51.441406 23.089844 52.679688 21.390625 52.890625 Z "/>
<path style=" stroke:none;fill-rule:nonzero;fill:rgb(88.627451%,47.45098%,3.137255%);fill-opacity:1;" d="M 8.554688 39.667969 L 16.722656 48.222656 C 16.808594 46.601563 17.894531 45.207031 19.445313 44.722656 L 12.832031 37.722656 C 11.714844 38.902344 10.179688 39.597656 8.554688 39.667969 Z "/>
<path style=" stroke:none;fill-rule:nonzero;fill:rgb(88.627451%,47.45098%,3.137255%);fill-opacity:1;" d="M 16.722656 21.777344 L 9.722656 28.777344 C 11.355469 29.070313 12.777344 30.066406 13.609375 31.5 L 20.222656 24.890625 L 17.890625 23.722656 C 17.5 22.945313 17.109375 22.554688 16.722656 21.777344 Z "/>
<path style=" stroke:none;fill-rule:nonzero;fill:rgb(88.627451%,47.45098%,3.137255%);fill-opacity:1;" d="M 29.945313 8.554688 L 21.777344 16.722656 C 30.367188 15.863281 38.03125 22.132813 38.890625 30.722656 C 39.746094 39.3125 33.480469 46.972656 24.890625 47.832031 L 31.890625 12.832031 C 30.640625 11.765625 29.929688 10.199219 29.945313 8.554688 Z "/>
<path style=" stroke:none;fill-rule:nonzero;fill:rgb(88.627451%,47.45098%,3.137255%);fill-opacity:1;" d="M 48.609375 16.722656 L 40.832031 8.945313 C 40.695313 10.53125 39.835938 11.964844 38.5 12.832031 L 45.5 19.832031 C 45.875 18.296875 47.074219 17.097656 48.609375 16.722656 Z "/>
<path style=" stroke:none;fill-rule:nonzero;fill:rgb(88.627451%,47.45098%,3.137255%);fill-opacity:1;" d="M 61.054688 29.167969 L 53.667969 21.777344 C 62.257813 22.636719 68.527344 30.296875 67.667969 38.890625 C 66.808594 47.480469 59.148438 53.746094 50.554688 52.890625 L 57.554688 59.890625 C 49.070313 58.921875 42.976563 51.261719 43.945313 42.777344 C 44.910156 34.292969 52.570313 28.199219 61.054688 29.167969 Z "/>
<path style=" stroke:none;fill-rule:nonzero;fill:rgb(88.627451%,47.45098%,3.137255%);fill-opacity:1;" d="M 57.554688 38.109375 L 50.945313 44.722656 C 51.722656 49.777344 56.390625 56.390625 56.390625 56.390625 C 56.777344 0.695313 57.171875 9.894531 57.554688 83.609375 L 65.722656 75.445313 C 55.414063 77.699219 45.226563 71.171875 42.972656 60.859375 C 40.71875 50.550781 47.246094 40.367188 57.554688 38.109375 Z "/>
<path style=" stroke:none;fill-rule:nonzero;fill:rgb(88.627451%,47.45098%,3.137255%);fill-opacity:1;" d="M 45.5 50.167969 L 38.890625 56.777344 L 39.277344 60.667969 C 40.34375 61.671875 40.910156 63.09375 40.832031 64.554688 L 49 56.390625 C 48.128906 419.84375 47.148438 419.425781 46.277344 55.222656 C 46.019531 87.714844 45.757813 86.015625 45.5 50.167969 Z "/>
<path style=" stroke:none;fill-rule:nonzero;fill:rgb(96.862745%,55.294118%,11.764706%);fill-opacity:1;" d="M 26.832031 21 C 26.832031 24.222656 24.222656 26.832031 21 26.832031 C 17.777344 26.832031 15.167969 24.222656 15.167969 21 C 15.167969 17.777344 17.777344 15.167969 21 15.167969 C 24.222656 15.167969 26.832031 17.777344 26.832031 21 Z "/>
<path style=" stroke:none;fill-rule:nonzero;fill:rgb(96.862745%,55.294118%,11.764706%);fill-opacity:1;" d="M 54.832031 21 C 54.832031 24.222656 52.222656 26.832031 49 26.832031 C 45.777344 26.832031 43.167969 24.222656 43.167969 21 C 43.167969 17.777344 45.777344 15.167969 49 15.167969 C 52.222656 15.167969 54.832031 17.777344 54.832031 21 Z "/>
<path style=" stroke:none;fill-rule:nonzero;fill:rgb(96.862745%,55.294118%,11.764706%);fill-opacity:1;" d="M 26.832031 49 C 26.832031 52.222656 24.222656 54.832031 21 54.832031 C 17.777344 54.832031 15.167969 52.222656 15.167969 49 C 15.167969 45.777344 17.777344 43.167969 21 43.167969 C 24.222656 43.167969 26.832031 45.777344 26.832031 49 Z "/>
<path style=" stroke:none;fill-rule:nonzero;fill:rgb(96.862745%,55.294118%,11.764706%);fill-opacity:1;" d="M 54.832031 49 C 54.832031 52.222656 52.222656 54.832031 49 54.832031 C 45.777344 54.832031 43.167969 52.222656 43.167969 49 C 43.167969 45.777344 45.777344 43.167969 49 43.167969 C 52.222656 43.167969 54.832031 45.777344 54.832031 49 Z "/>
<path style=" stroke:none;fill-rule:nonzero;fill:url(#linear0);" d="M 8.554688 27.609375 C 12.636719 27.609375 15.945313 30.917969 15.945313 35 C 15.945313 39.082031 12.636719 42.390625 8.554688 42.390625 C 4.476563 42.390625 1.167969 39.082031 1.167969 35 C 1.167969 30.917969 4.476563 27.609375 8.554688 27.609375 Z M 61.445313 27.609375 C 65.523438 27.609375 68.832031 30.917969 68.832031 35 C 68.832031 39.082031 65.523438 42.390625 61.445313 42.390625 C 57.363281 42.390625 54.054688 39.082031 54.054688 35 C 54.054688 30.917969 57.363281 27.609375 61.445313 27.609375 Z "/>
<path style=" stroke:none;fill-rule:nonzero;fill:url(#linear1);" d="M 35 1.167969 C 39.082031 1.167969 42.390625 4.476563 42.390625 8.554688 C 42.390625 12.636719 39.082031 15.945313 35 15.945313 C 30.917969 15.945313 27.609375 12.636719 27.609375 8.554688 C 27.609375 4.476563 30.917969 1.167969 35 1.167969 Z M 35 54.054688 C 39.082031 54.054688 42.390625 57.363281 42.390625 61.445313 C 42.390625 65.523438 39.082031 68.832031 35 68.832031 C 30.917969 68.832031 27.609375 65.523438 27.609375 61.445313 C 27.609375 57.363281 30.917969 54.054688 35 54.054688 Z "/>
</g>
</svg>
