<?xml version="1.0" encoding="UTF-8"?>
<svg xmlns="http://www.w3.org/2000/svg" xmlns:xlink="http://www.w3.org/1999/xlink" width="70pt" height="70pt" viewBox="0 0 70 70" version="1.1">
<defs>
<linearGradient id="linear0" gradientUnits="userSpaceOnUse" x1="9.01" y1="11.69" x2="9.01" y2="2.48" gradientTransform="matrix(3.888889,0,0,3.888889,0,0)">
<stop offset="0" style="stop-color:rgb(0%,47.058824%,83.137255%);stop-opacity:1;"/>
<stop offset="0.54" style="stop-color:rgb(20.784314%,55.686275%,89.019608%);stop-opacity:1;"/>
<stop offset="1" style="stop-color:rgb(36.862745%,62.745098%,93.72549%);stop-opacity:1;"/>
</linearGradient>
</defs>
<g id="surface1">
<path style=" stroke:none;fill-rule:nonzero;fill:rgb(46.27451%,73.72549%,17.647059%);fill-opacity:1;" d="M 58.644531 43.246094 C 58.644531 37.898438 48.074219 33.5625 35.039063 33.5625 C 22 33.5625 11.433594 37.898438 11.433594 43.246094 C 11.433594 48.59375 22 52.929688 35.039063 52.929688 C 48.074219 52.929688 58.644531 48.59375 58.644531 43.246094 Z "/>
<path style=" stroke:none;fill-rule:nonzero;fill:rgb(36.862745%,58.823529%,14.117647%);fill-opacity:1;" d="M 43.476563 43.167969 C 43.476563 41.984375 39.960938 41.027344 35.621094 41.027344 C 31.285156 41.027344 27.765625 41.984375 27.765625 43.167969 C 27.765625 44.347656 31.285156 45.304688 35.621094 45.304688 C 39.960938 45.304688 43.476563 44.347656 43.476563 43.167969 Z "/>
<path style=" stroke:none;fill-rule:nonzero;fill:url(#linear0);" d="M 58.644531 21.738281 C 58.644531 16.390625 48.074219 12.054688 35.039063 12.054688 C 22 12.054688 11.433594 16.390625 11.433594 21.738281 C 11.433594 27.085938 22 31.421875 35.039063 31.421875 C 48.074219 31.421875 58.644531 27.085938 58.644531 21.738281 Z "/>
<path style=" stroke:none;fill-rule:nonzero;fill:rgb(0%,35.686275%,63.137255%);fill-opacity:1;" d="M 43.476563 21.621094 C 43.476563 20.441406 39.960938 19.484375 35.621094 19.484375 C 31.285156 19.484375 27.765625 20.441406 27.765625 21.621094 C 27.765625 22.804688 31.285156 23.761719 35.621094 23.761719 C 39.960938 23.761719 43.476563 22.804688 43.476563 21.621094 Z "/>
<path style=" stroke:none;fill-rule:nonzero;fill:rgb(58.039216%,58.039216%,58.039216%);fill-opacity:1;" d="M 15.128906 46.667969 L 3.460938 46.667969 C 2.84375 44.523438 2.242188 67.878906 1.800781 111.261719 C 1.359375 154.644531 1.117188 214.246094 1.128906 276.109375 L 1.128906 287.777344 C 1.878906 318.921875 2.742188 283.226563 3.054688 208.054688 C 3.363281 132.882813 3.007813 46.699219 2.253906 15.554688 L 3.539063 15.554688 C 3.898438 36.886719 4.347656 36.453125 4.707031 14.429688 L 4.707031 3.890625 L 15.128906 3.890625 C 15.488281 25.222656 15.9375 24.785156 16.292969 2.761719 L 16.292969 -1.632813 C 15.84375 -10.851563 15.382813 8.265625 15.128906 46.667969 Z "/>
<path style=" stroke:none;fill-rule:nonzero;fill:rgb(58.039216%,58.039216%,58.039216%);fill-opacity:1;" d="M 66.109375 0.464844 L 54.445313 0.464844 C 53.800781 0.464844 53.277344 5.691406 53.277344 12.132813 L 53.277344 2.878906 C 53.621094 5.285156 54.066406 5.667969 54.445313 3.890625 L 64.90625 3.890625 L 64.90625 14.390625 C 65.269531 38.027344 65.742188 38.480469 66.109375 15.554688 L 67.394531 15.554688 C 67.753906 36.886719 68.203125 36.453125 68.5625 14.429688 L 68.5625 2.761719 C 67.816406 -45.191406 66.863281 -46.085938 66.109375 0.464844 Z "/>
<path style=" stroke:none;fill-rule:nonzero;fill:rgb(58.039216%,58.039216%,58.039216%);fill-opacity:1;" d="M 15.128906 66.929688 L 4.707031 66.929688 L 4.707031 56.429688 C 4.347656 34.402344 3.898438 33.96875 3.539063 55.300781 L -2.253906 55.300781 C -2.878906 55.300781 -3.382813 105.792969 -3.382813 168.078125 L -3.382813 179.746094 C -3.394531 240.238281 -3.160156 298.613281 -2.738281 341.757813 C -2.3125 384.902344 -1.734375 409.199219 -1.128906 409.1875 L 10.539063 409.1875 C 10.898438 430.519531 11.347656 430.085938 11.707031 408.0625 L 11.707031 406.816406 C 21.089844 416.265625 29.464844 347.839844 30.410156 253.984375 C 31.355469 160.125 24.511719 76.378906 15.128906 66.929688 Z "/>
<path style=" stroke:none;fill-rule:nonzero;fill:rgb(58.039216%,58.039216%,58.039216%);fill-opacity:1;" d="M 67.238281 55.300781 L 66.109375 55.300781 C 65.488281 55.300781 64.984375 105.792969 64.984375 168.078125 L 64.984375 178.578125 L 54.445313 178.578125 C 54.0625 162.019531 53.621094 166.433594 53.277344 190.246094 L 53.277344 191.488281 C 50.164063 194.710938 47.898438 222.570313 48.222656 253.710938 C 48.542969 284.855469 51.332031 307.488281 54.445313 304.265625 L 66.109375 304.265625 C 66.824219 344.546875 67.699219 343.671875 68.40625 301.972656 L 68.40625 290.304688 C 69.054688 258.089844 69.320313 179.363281 68.996094 114.46875 C 68.675781 49.574219 67.886719 23.082031 67.238281 55.300781 Z "/>
<path style=" stroke:none;fill-rule:nonzero;fill:rgb(36.862745%,58.823529%,14.117647%);fill-opacity:1;" d="M 35 52.734375 C 48.027344 52.734375 58.605469 48.417969 58.605469 43.050781 L 58.605469 48.765625 C 58.332031 53.976563 47.792969 58.332031 35 58.332031 C 22.207031 58.332031 11.394531 53.976563 11.394531 48.648438 L 11.394531 43.050781 C 11.433594 48.417969 22.011719 52.734375 35 52.734375 Z "/>
<path style=" stroke:none;fill-rule:nonzero;fill:rgb(0%,47.058824%,83.137255%);fill-opacity:1;" d="M 35 31.109375 C 48.027344 31.109375 58.605469 26.753906 58.605469 21.429688 L 58.605469 27.222656 C 58.332031 32.472656 47.792969 36.632813 35 36.632813 C 22.207031 36.632813 11.433594 32.277344 11.433594 26.910156 L 11.433594 21.542969 C 11.433594 26.871094 22.011719 31.109375 35 31.109375 Z "/>
</g>
</svg>
