<?xml version="1.0" encoding="UTF-8"?>
<svg xmlns="http://www.w3.org/2000/svg" xmlns:xlink="http://www.w3.org/1999/xlink" width="70pt" height="70pt" viewBox="0 0 70 70" version="1.1">
<defs>
<linearGradient id="linear0" gradientUnits="userSpaceOnUse" x1="9" y1="778.831" x2="9" y2="790.831" gradientTransform="matrix(3.888889,0,0,-3.888889,0,3078.117778)">
<stop offset="0" style="stop-color:rgb(0,108,188);stop-opacity:1;"/>
<stop offset="0.8" style="stop-color:rgb(41,164,255);stop-opacity:1;"/>
</linearGradient>
<linearGradient id="linear1" gradientUnits="userSpaceOnUse" x1="9" y1="774.201" x2="9" y2="778.831" gradientTransform="matrix(3.888889,0,0,-3.888889,0,3078.117778)">
<stop offset="0" style="stop-color:rgb(153,211,255);stop-opacity:1;"/>
<stop offset="1" style="stop-color:rgb(0,127,222);stop-opacity:1;"/>
</linearGradient>
</defs>
<g id="surface1">
<path style=" stroke:none;fill-rule:nonzero;fill:url(#linear0);" d="M 2.332031 2.664063 L 67.667969 2.664063 C 68.957031 2.664063 70 3.707031 70 4.996094 L 70 46.996094 C 70 48.285156 68.957031 49.332031 67.667969 49.332031 L 2.332031 49.332031 C 1.042969 49.332031 0 48.285156 0 46.996094 L 0 4.996094 C 0 3.707031 1.042969 2.664063 2.332031 2.664063 Z "/>
<path style=" stroke:none;fill-rule:nonzero;fill:url(#linear1);" d="M 49.039063 63.445313 C 42.117188 62.359375 41.84375 57.378906 41.84375 49.332031 L 28.117188 49.332031 C 28.117188 57.378906 27.882813 62.359375 20.960938 63.445313 C 18.980469 63.667969 17.488281 65.34375 17.5 67.335938 L 52.5 67.335938 C 52.511719 65.34375 51.019531 63.667969 49.039063 63.445313 Z "/>
<path style=" stroke:none;fill-rule:nonzero;fill:rgb(255,255,255);fill-opacity:0.8;" d="M 39.3125 8.472656 C 38.734375 -136.5 38.148438 214.332031 38.003906 792.085938 C 37.859375 1369.835938 38.210938 1955.722656 38.789063 2100.695313 C -536.414063 2105.511719 -1006.609375 1643.125 -1011.429688 1067.925781 C -1016.246094 492.726563 -553.859375 22.527344 21.34375 17.710938 L 21.773438 320.183594 L 2133.441406 320.183594 C 2133.5 356.539063 2133.574219 356.457031 2133.636719 319.964844 L 24.285156 11.644531 C 24.222656 -33.296875 24.136719 -33.359375 24.070313 11.492188 L 16.332031 14 C 16.277344 25.429688 16.230469 61.652344 16.203125 112.386719 C 16.179688 163.121094 16.175781 222.824219 16.199219 274.554688 L 19.394531 2378.625 L 139.949219 2378.625 C 135.828125 2385.273438 136.453125 2393.816406 141.496094 2399.792969 C 146.539063 2405.773438 154.855469 2407.828125 162.101563 2404.890625 C 169.351563 2401.949219 173.886719 2394.679688 173.339844 2386.878906 C 172.792969 2379.078125 167.289063 2372.511719 159.699219 2370.613281 Z "/>
<path style=" stroke:none;fill-rule:nonzero;fill:rgb(255,255,255);fill-opacity:1;" d="M 43.488281 22.554688 L 42.191406 20.304688 L 746.078125 16.195313 L 742.777344 14.292969 L 739.574219 2678.179688 L 33.789063 2678.179688 L 30.585938 2675.515625 L 27.285156 2866.070313 L 28 20.320313 L 26.6875 22.554688 L 22.78125 1465.332031 L 22.78125 1469.148438 L 26.6875 2913.226563 L 2274.46875 2913.226563 L 27.285156 35.628906 L 30.585938 229.390625 L 25.324219 229.390625 L 22.121094 2896.582031 L 20.214844 2895.875 L 16.105469 4194.765625 L 13.855469 4198.675781 L 12.414063 4198.675781 L 12.414063 24.015625 Z M 35.089844 31.679688 C 31.90625 31.6875 29.320313 29.113281 29.316406 25.929688 C 29.308594 22.746094 31.886719 20.164063 35.070313 20.160156 C 38.25 20.15625 40.832031 22.738281 40.832031 25.917969 C 40.832031 29.09375 38.265625 31.671875 35.089844 31.679688 Z "/>
</g>
</svg>
