<?xml version="1.0" encoding="UTF-8"?>
<svg xmlns="http://www.w3.org/2000/svg" xmlns:xlink="http://www.w3.org/1999/xlink" width="70pt" height="70pt" viewBox="0 0 70 70" version="1.1">
<defs>
<linearGradient id="linear0" gradientUnits="userSpaceOnUse" x1="8.83" y1="12.87" x2="8.83" y2="0.87" gradientTransform="matrix(3.888889,0,0,3.888889,0,0)">
<stop offset="0" style="stop-color:rgb(0,108,188);stop-opacity:1;"/>
<stop offset="0.82" style="stop-color:rgb(41,164,255);stop-opacity:1;"/>
</linearGradient>
<linearGradient id="linear1" gradientUnits="userSpaceOnUse" x1="8.83" y1="17.5" x2="8.83" y2="12.87" gradientTransform="matrix(3.888889,0,0,3.888889,0,0)">
<stop offset="0" style="stop-color:rgb(0,132,230);stop-opacity:1;"/>
<stop offset="0.98" style="stop-color:rgb(0,88,154);stop-opacity:1;"/>
</linearGradient>
</defs>
<g id="surface1">
<path style=" stroke:none;fill-rule:nonzero;fill:url(#linear0);" d="M 1.671875 3.382813 L 67.003906 3.382813 C 68.292969 3.382813 69.339844 4.429688 69.339844 5.714844 L 69.339844 47.714844 C 69.339844 49.003906 68.292969 50.050781 67.003906 50.050781 L 1.671875 50.050781 C 0.382813 50.050781 -0.660156 49.003906 -0.660156 47.714844 L -0.660156 5.714844 C -0.660156 4.429688 0.382813 3.382813 1.671875 3.382813 Z "/>
<path style=" stroke:none;fill-rule:nonzero;fill:rgb(255,255,255);fill-opacity:1;" d="M 4.511719 7.273438 L 64.167969 7.273438 C 64.875 7.273438 65.449219 7.847656 65.449219 8.554688 L 65.449219 44.878906 C 65.449219 45.585938 64.875 46.160156 64.167969 46.160156 L 4.511719 46.160156 C 3.800781 46.160156 3.226563 45.585938 3.226563 44.878906 L 3.226563 8.554688 C 3.226563 7.847656 3.800781 7.273438 4.511719 7.273438 Z "/>
<path style=" stroke:none;fill-rule:nonzero;fill:rgb(0,108,188);fill-opacity:1;" d="M 46.003906 19.910156 L 46.003906 33.484375 L 34.339844 40.328125 L 34.339844 26.714844 Z "/>
<path style=" stroke:none;fill-rule:nonzero;fill:rgb(95,187,255);fill-opacity:1;" d="M 46.003906 19.910156 L 34.339844 26.753906 L 22.671875 19.910156 L 34.339844 13.105469 Z "/>
<path style=" stroke:none;fill-rule:nonzero;fill:rgb(41,164,255);fill-opacity:1;" d="M 34.339844 26.753906 L 34.339844 40.328125 L 22.671875 33.484375 L 22.671875 19.910156 Z "/>
<path style=" stroke:none;fill-rule:nonzero;fill:rgb(95,187,255);fill-opacity:0.2;" d="M 22.671875 33.484375 L 34.339844 26.714844 L 34.339844 40.328125 Z "/>
<path style=" stroke:none;fill-rule:nonzero;fill:rgb(41,164,255);fill-opacity:0.2;" d="M 46.003906 33.484375 L 34.339844 26.714844 L 34.339844 40.328125 Z "/>
<path style=" stroke:none;fill-rule:nonzero;fill:url(#linear1);" d="M 48.378906 64.167969 C 41.457031 63.078125 41.183594 58.101563 41.183594 50.050781 L 27.457031 50.050781 C 27.457031 58.101563 27.222656 63.078125 20.300781 64.167969 C 18.320313 64.386719 16.828125 66.0625 16.839844 68.054688 L 51.839844 68.054688 C 51.851563 66.0625 50.355469 64.386719 48.378906 64.167969 Z "/>
<path style=" stroke:none;fill-rule:nonzero;fill:rgb(41,164,255);fill-opacity:1;" d="M 19.832031 9.996094 L 10.1875 9.996094 C 9.574219 8.953125 8.980469 32.664063 8.542969 75.804688 C 8.101563 118.949219 7.855469 177.90625 7.855469 239.4375 L 7.855469 21.933594 C 7.855469 28.375 8.378906 33.601563 9.023438 33.601563 L 9.800781 33.601563 C 10.179688 35.335938 10.628906 34.890625 10.964844 32.433594 L 10.964844 13.027344 L 19.832031 13.027344 C 20.214844 14.761719 20.660156 14.316406 21 11.859375 L 21 11.121094 C 20.660156 8.679688 20.214844 8.246094 19.832031 9.996094 Z "/>
<path style=" stroke:none;fill-rule:nonzero;fill:rgb(41,164,255);fill-opacity:1;" d="M 19.832031 40.328125 L 10.929688 40.328125 L 10.929688 31.460938 C 10.589844 29.003906 10.144531 28.558594 9.761719 30.292969 L 9.023438 30.292969 C 8.378906 30.292969 7.855469 35.519531 7.855469 41.960938 L 7.855469 51.605469 C 7.855469 113.136719 8.101563 172.09375 8.542969 215.238281 C 8.980469 258.378906 9.574219 282.09375 10.1875 281.050781 L 19.832031 281.050781 C 20.214844 282.796875 20.660156 282.367188 21 279.921875 L 21 279.144531 C 27.59375 275.921875 32.679688 219.851563 32.359375 153.902344 C 32.035156 87.957031 26.429688 37.105469 19.832031 40.328125 Z "/>
<path style=" stroke:none;fill-rule:nonzero;fill:rgb(41,164,255);fill-opacity:1;" d="M 58.332031 10.070313 L 48.84375 10.070313 C 48.464844 -8.148438 48.015625 -3.648438 47.679688 21.738281 L 47.679688 22.476563 C 47.675781 53.074219 47.800781 82.367188 48.023438 103.628906 C 48.242188 124.894531 48.539063 136.3125 48.84375 135.253906 L 57.710938 135.253906 L 57.710938 144.199219 C 57.710938 174.796875 57.835938 204.085938 58.054688 225.351563 C 58.273438 246.617188 58.570313 258.03125 58.878906 256.976563 L 59.65625 256.976563 C 60.007813 276.777344 60.4375 276.347656 60.785156 255.851563 L 60.785156 12.40625 C 60.039063 -35.558594 59.085938 -36.46875 58.332031 10.070313 Z "/>
<path style=" stroke:none;fill-rule:nonzero;fill:rgb(41,164,255);fill-opacity:1;" d="M 59.65625 30.371094 L 58.917969 30.371094 C 58.273438 30.371094 57.75 35.59375 57.75 42.039063 L 57.75 50.90625 L 48.84375 50.90625 C 48.464844 32.683594 48.015625 37.183594 47.679688 62.570313 L 47.679688 63.351563 C 47.679688 69.792969 48.199219 75.015625 48.84375 75.015625 L 58.332031 75.015625 C 59.046875 115.285156 59.921875 114.394531 60.628906 72.683594 L 60.628906 31.539063 C 60.335938 29.742188 59.980469 29.316406 59.65625 30.371094 Z "/>
</g>
</svg>
