<?xml version="1.0" encoding="UTF-8"?>
<svg xmlns="http://www.w3.org/2000/svg" xmlns:xlink="http://www.w3.org/1999/xlink" width="70pt" height="70pt" viewBox="0 0 70 70" version="1.1">
<defs>
<radialGradient id="radial0" gradientUnits="userSpaceOnUse" cx="1848.536" cy="3347.483" fx="1848.536" fy="3347.483" r="50.267" gradientTransform="matrix(0.583333,0,0,0.583333,-1048.996667,-1923.409444)">
<stop offset="0.183" style="stop-color:rgb(36.862745%,62.745098%,93.72549%);stop-opacity:1;"/>
<stop offset="1" style="stop-color:rgb(0%,47.058824%,83.137255%);stop-opacity:1;"/>
</radialGradient>
<linearGradient id="linear0" gradientUnits="userSpaceOnUse" x1="3.459" y1="9.738" x2="3.431" y2="6.226" gradientTransform="matrix(3.888889,0,0,3.888889,0,0)">
<stop offset="0" style="stop-color:rgb(80%,80%,80%);stop-opacity:1;"/>
<stop offset="0.123" style="stop-color:rgb(84.313725%,84.313725%,84.313725%);stop-opacity:1;"/>
<stop offset="1" style="stop-color:rgb(98.823529%,98.823529%,98.823529%);stop-opacity:1;"/>
</linearGradient>
<linearGradient id="linear1" gradientUnits="userSpaceOnUse" x1="8.547" y1="13.251" x2="8.547" y2="10.102" gradientTransform="matrix(3.888889,0,0,3.888889,0,0)">
<stop offset="0" style="stop-color:rgb(80%,80%,80%);stop-opacity:1;"/>
<stop offset="0.123" style="stop-color:rgb(84.313725%,84.313725%,84.313725%);stop-opacity:1;"/>
<stop offset="1" style="stop-color:rgb(98.823529%,98.823529%,98.823529%);stop-opacity:1;"/>
</linearGradient>
<linearGradient id="linear2" gradientUnits="userSpaceOnUse" x1="13.196" y1="8.878" x2="13.296" y2="18.078" gradientTransform="matrix(3.888889,0,0,3.888889,0,0)">
<stop offset="0" style="stop-color:rgb(19.607843%,83.137255%,96.078431%);stop-opacity:1;"/>
<stop offset="0.321" style="stop-color:rgb(19.215686%,81.960784%,95.294118%);stop-opacity:1;"/>
<stop offset="1" style="stop-color:rgb(9.803922%,54.117647%,70.196078%);stop-opacity:1;"/>
</linearGradient>
</defs>
<g id="surface1">
<path style=" stroke:none;fill-rule:nonzero;fill:url(#radial0);" d="M 47.292969 52.46875 C 39.023438 59.003906 27.882813 60.597656 18.113281 56.644531 C 8.339844 52.691406 1.445313 43.796875 0.046875 33.351563 C -1.351563 22.90625 2.96875 12.511719 11.355469 6.128906 L 11.667969 5.898438 C 24.53125 -3.820313 42.832031 -1.332031 52.628906 11.472656 C 62.429688 24.277344 60.050781 42.589844 47.308594 52.46875 "/>
<path style=" stroke:none;fill-rule:nonzero;fill:rgb(100%,100%,100%);fill-opacity:0.6;" d="M 21.355469 23.195313 C 29.652344 15.304688 40.65625 10.882813 52.109375 10.84375 C 50.613281 8.976563 48.890625 7.304688 46.980469 5.859375 C -1007.574219 1.390625 -1866.085938 852.652344 -1870.558594 1907.207031 C -1875.03125 2961.765625 -1023.769531 3820.277344 30.789063 3824.75 C 1081.609375 3820.863281 1930.320313 2965.859375 1926.433594 1915.035156 C 1922.550781 864.214844 1067.542969 15.503906 16.722656 19.390625 C 18.636719 20.125 20.261719 21.460938 21.355469 23.195313 Z "/>
<path style=" stroke:none;fill-rule:nonzero;fill:rgb(100%,100%,100%);fill-opacity:0.6;" d="M 6.832031 34.976563 C 5.652344 37.917969 4.691406 40.945313 3.949219 44.027344 C -874.488281 44.617188 -1586.125 757.214844 -1585.53125 1635.65625 C -1584.9375 2514.09375 -872.339844 3225.730469 6.097656 3225.136719 C -610.3125 3225.664063 -1109.585938 3725.792969 -1109.058594 4342.203125 C -1108.53125 4958.613281 -608.402344 5457.886719 8.007813 5457.359375 C -1488.652344 5456.328125 -2701.097656 4242.207031 -2700.066406 2745.546875 C -2699.035156 1248.886719 -1484.914063 36.441406 11.746094 37.472656 C 9.894531 37.148438 8.183594 36.28125 6.832031 34.976563 Z "/>
<path style=" stroke:none;fill-rule:nonzero;fill:rgb(94.901961%,94.901961%,94.901961%);fill-opacity:0.54902;" d="M 10.210938 19.328125 C 8.992188 16.054688 8.195313 12.644531 7.835938 9.171875 C 6.390625 10.703125 5.117188 12.390625 4.035156 14.199219 C 4.433594 16.976563 5.082031 19.707031 5.980469 22.363281 C 7.078125 20.976563 8.546875 19.921875 10.210938 19.328125 Z "/>
<path style=" stroke:none;fill-rule:nonzero;fill:url(#linear0);" d="M 22.800781 28.199219 C 22.800781 33.40625 18.582031 37.625 13.375 37.625 C 8.167969 37.625 3.945313 33.40625 3.945313 28.199219 C 3.945313 22.992188 8.167969 18.773438 13.375 18.773438 C 18.582031 18.773438 22.800781 22.992188 22.800781 28.199219 Z "/>
<path style=" stroke:none;fill-rule:nonzero;fill:rgb(94.901961%,94.901961%,94.901961%);fill-opacity:0.54902;" d="M 27.113281 45.410156 C 27.113281 43.761719 27.78125 42.179688 28.964844 41.03125 C 25.792969 39.28125 22.863281 37.121094 20.253906 34.609375 C 802.042969 36.03125 1434.65625 670.953125 1433.234375 1452.742188 C 1431.8125 2234.53125 796.894531 2867.144531 15.105469 2865.722656 C 16.648438 2867.335938 18.324219 2868.816406 20.109375 2870.15625 C 22.320313 2871.816406 24.683594 2873.257813 27.171875 2874.460938 C -754.050781 2874.476563 -1387.367188 2241.183594 -1387.382813 1459.964844 C -1387.398438 678.746094 -754.105469 45.425781 27.113281 45.410156 Z "/>
<path style=" stroke:none;fill-rule:nonzero;fill:rgb(94.901961%,94.901961%,94.901961%);fill-opacity:0.54902;" d="M 48.839844 46.136719 C 45.644531 46.140625 42.457031 45.769531 39.34375 45.035156 C 39.34375 45.15625 39.34375 45.28125 39.34375 45.421875 C 39.347656 47.019531 38.722656 48.558594 37.601563 49.699219 C -194.359375 52.949219 -379.765625 243.625 -376.515625 475.582031 C -373.265625 707.542969 -182.589844 892.949219 49.371094 889.699219 C 282.382813 890.800781 472.167969 702.800781 473.269531 469.789063 C 474.367188 236.777344 286.367188 46.988281 53.355469 45.890625 C 51.855469 46.054688 50.347656 46.136719 48.839844 46.136719 Z "/>
<path style=" stroke:none;fill-rule:nonzero;fill:url(#linear1);" d="M 39.363281 45.410156 C 39.363281 48.792969 36.621094 51.535156 33.238281 51.535156 C 29.855469 51.535156 27.113281 48.792969 27.113281 45.410156 C 27.113281 42.027344 29.855469 39.285156 33.238281 39.285156 C 36.621094 39.285156 39.363281 42.027344 39.363281 45.410156 Z "/>
<path style=" stroke:none;fill-rule:nonzero;fill:rgb(94.901961%,94.901961%,94.901961%);fill-opacity:0.701961;" d="M 40.769531 29.046875 C 41.085938 27.710938 41.828125 26.515625 42.882813 25.640625 C 37.191406 21.507813 32.019531 16.699219 27.488281 11.324219 C 369.078125 13.214844 644.457031 291.660156 642.570313 633.25 C 640.679688 974.839844 362.234375 1250.222656 20.640625 1248.332031 C -377.769531 1247.296875 -701.585938 1569.433594 -702.625 1967.84375 C -703.664063 2366.257813 -381.527344 2690.074219 16.886719 2691.109375 C 756.238281 2693.144531 1357.246094 2095.429688 1359.28125 1356.082031 C 1361.316406 616.730469 763.601563 15.71875 24.25 13.683594 C 29.101563 19.46875 34.648438 24.628906 40.769531 29.046875 Z "/>
<path style=" stroke:none;fill-rule:nonzero;fill:rgb(100%,100%,100%);fill-opacity:1;" d="M 53.699219 30.222656 C 53.699219 33.816406 50.785156 36.726563 47.195313 36.726563 C 43.605469 36.726563 40.691406 33.816406 40.691406 30.222656 C 40.691406 26.632813 43.605469 23.722656 47.195313 23.722656 C 50.785156 23.722656 53.699219 26.632813 53.699219 30.222656 Z "/>
<path style=" stroke:none;fill-rule:nonzero;fill:rgb(94.901961%,94.901961%,94.901961%);fill-opacity:0.54902;" d="M 58.117188 34.609375 L 57.011719 34.027344 L 56.90625 33.96875 L 55.882813 33.417969 L 55.695313 33.3125 C 55.386719 33.144531 55.078125 32.972656 54.773438 32.804688 L 54.550781 32.667969 L 53.460938 32.046875 C 141.519531 32.652344 212.414063 104.53125 211.808594 192.589844 C 211.203125 280.648438 139.324219 351.542969 51.265625 350.9375 C 51.691406 596.792969 546.445313 424.824219 546.445313 424.824219 L 546.738281 589.355469 L 1211.855469 655.46875 C 1212.824219 1186.300781 1319.832031 671.023438 1319.832031 671.023438 C 1320.246094 669.769531 1320.570313 668.484375 1320.808594 667.183594 Z "/>
<path style=" stroke:none;fill-rule:nonzero;fill:rgb(100%,100%,100%);fill-opacity:1;" d="M 22.800781 28.199219 C 22.800781 33.40625 18.582031 37.625 13.375 37.625 C 8.167969 37.625 3.945313 33.40625 3.945313 28.199219 C 3.945313 22.992188 8.167969 18.773438 13.375 18.773438 C 18.582031 18.773438 22.800781 22.992188 22.800781 28.199219 Z "/>
<path style=" stroke:none;fill-rule:nonzero;fill:rgb(100%,100%,100%);fill-opacity:1;" d="M 39.363281 45.410156 C 39.363281 48.792969 36.621094 51.535156 33.238281 51.535156 C 29.855469 51.535156 27.113281 48.792969 27.113281 45.410156 C 27.113281 42.027344 29.855469 39.285156 33.238281 39.285156 C 36.621094 39.285156 39.363281 42.027344 39.363281 45.410156 Z "/>
<path style=" stroke:none;fill-rule:nonzero;fill:url(#linear2);" d="M 68.65625 70.023438 L 34.714844 70.023438 C 33.636719 70.023438 32.996094 68.296875 33.609375 67.40625 L 45.304688 50.355469 C 45.382813 56.984375 45.464844 56.722656 45.542969 49.578125 L 45.542969 38.300781 C 45.335938 -82.085938 45.078125 -82.339844 44.871094 37.632813 L 44.238281 37.632813 C 43.824219 276.085938 43.3125 275.574219 42.898438 36.292969 L 42.898438 35.710938 C 43.3125 -203.570313 43.824219 -204.082031 44.238281 34.367188 L 59.109375 34.367188 C 59.851563 36.507813 60.453125 638.308594 60.453125 1379.921875 L 60.453125 1380.527344 C 60.449219 2120.625 59.851563 2720.058594 59.109375 2722.195313 L 58.480469 2722.195313 C 58.113281 2722.195313 57.8125 3021.667969 57.8125 3391.082031 L 57.8125 3402.363281 C 57.890625 3411.730469 57.96875 3414.332031 58.046875 3410.140625 L 69.746094 3427.160156 C 70.390625 68.296875 69.734375 70.023438 68.65625 70.023438 Z "/>
<path style=" stroke:none;fill-rule:nonzero;fill:rgb(100%,100%,100%);fill-opacity:1;" d="M 38.625 65.46875 L 47.511719 52.5 C 47.699219 68.777344 47.890625 68.164063 48.082031 50.664063 L 48.082031 45.460938 C 48.402344 -138.949219 48.792969 -139.339844 49.113281 44.429688 L 54.167969 44.429688 C 54.441406 43.390625 54.703125 151.632813 54.898438 345.125 C 55.089844 538.617188 55.199219 801.347656 55.199219 1074.984375 L 55.199219 1080.558594 C 55.199219 1522.546875 55.335938 1953.605469 55.585938 2317.226563 L 64.664063 2330.425781 C 98.167969 2332.195313 125.1875 2605.246094 125.011719 2940.300781 C 124.832031 3275.351563 97.527344 3545.53125 64.023438 3543.757813 L 39.277344 3543.757813 C -56.773438 3545.5625 -134.78125 2768.382813 -134.964844 1807.878906 C -135.144531 847.378906 -57.425781 67.273438 38.625 65.46875 Z "/>
<path style=" stroke:none;fill-rule:nonzero;fill:rgb(23.529412%,83.137255%,76.078431%);fill-opacity:1;" d="M 41.28125 61.597656 C 45.695313 58.695313 51.230469 58.070313 56.183594 59.910156 C 71.085938 58.21875 52.933594 1879.910156 60.59375 59.570313 L 64.789063 65.402344 C 65.03125 407.316406 65.066406 856.941406 64.875 1230.972656 C 64.683594 1605.003906 64.300781 1840.953125 63.878906 1842.625 L 39.300781 1842.625 C 39.015625 1965.800781 38.691406 1965.148438 38.40625 1840.824219 Z "/>
</g>
</svg>
