<?xml version="1.0" encoding="UTF-8"?>
<svg xmlns="http://www.w3.org/2000/svg" xmlns:xlink="http://www.w3.org/1999/xlink" width="70pt" height="70pt" viewBox="0 0 70 70" version="1.1">
<defs>
<linearGradient id="linear0" gradientUnits="userSpaceOnUse" x1="5.759" y1="0.5" x2="5.759" y2="16.523" gradientTransform="matrix(3.888889,0,0,3.888889,0,0)">
<stop offset="0" style="stop-color:rgb(101,189,255);stop-opacity:1;"/>
<stop offset="0.375" style="stop-color:rgb(93,186,255);stop-opacity:1;"/>
<stop offset="0.763" style="stop-color:rgb(69,176,255);stop-opacity:1;"/>
<stop offset="1" style="stop-color:rgb(47,166,255);stop-opacity:1;"/>
</linearGradient>
<linearGradient id="linear1" gradientUnits="userSpaceOnUse" x1="11.676" y1="17.5" x2="11.676" y2="8.901" gradientTransform="matrix(3.888889,0,0,3.888889,0,0)">
<stop offset="0" style="stop-color:rgb(0,108,188);stop-opacity:1;"/>
<stop offset="0.156" style="stop-color:rgb(0,120,210);stop-opacity:1;"/>
<stop offset="0.528" style="stop-color:rgb(1,147,255);stop-opacity:1;"/>
<stop offset="0.822" style="stop-color:rgb(31,159,255);stop-opacity:1;"/>
<stop offset="1" style="stop-color:rgb(41,164,255);stop-opacity:1;"/>
</linearGradient>
</defs>
<g id="surface1">
<path style=" stroke:none;fill-rule:nonzero;fill:url(#linear0);" d="M 42.621094 62.144531 C 42.558594 1287.824219 41.515625 2231.128906 40.289063 2173.8125 L 4.511719 2173.8125 C 3.792969 2612.023438 2.894531 2611.207031 2.179688 2171.699219 L 2.179688 4.054688 C 2.894531 -426.917969 3.792969 -420.980469 4.503906 19.445313 L 40.28125 19.445313 C 41.507813 -37.871094 42.550781 905.433594 42.613281 2131.109375 Z "/>
<path style=" stroke:none;fill-rule:nonzero;fill:rgb(0,44,78);fill-opacity:1;" d="M 8.113281 28.582031 C 7.988281 26.027344 9.953125 23.851563 12.511719 23.722656 L 32.644531 23.722656 C 35.199219 23.851563 37.167969 26.027344 37.042969 28.582031 C 37.167969 31.140625 35.199219 33.316406 32.644531 33.445313 L 12.511719 33.445313 C 9.953125 33.316406 7.988281 31.140625 8.113281 28.582031 Z "/>
<path style=" stroke:none;fill-rule:nonzero;fill:rgb(0,44,78);fill-opacity:1;" d="M 8.113281 14.191406 C 7.988281 11.636719 9.957031 9.464844 12.511719 9.332031 L 32.644531 9.332031 C 35.199219 9.464844 37.164063 11.636719 37.042969 14.191406 C 37.160156 16.742188 35.191406 18.90625 32.644531 19.035156 L 12.511719 19.035156 C 9.960938 18.90625 7.996094 16.742188 8.113281 14.191406 Z "/>
<path style=" stroke:none;fill-rule:nonzero;fill:rgb(119,197,255);fill-opacity:1;" d="M 17.027344 14.191406 C 17.027344 15.984375 15.570313 17.441406 13.773438 17.441406 C 11.980469 17.441406 10.523438 15.984375 10.523438 14.191406 C 10.523438 12.394531 11.980469 10.9375 13.773438 10.9375 C 15.570313 10.9375 17.027344 12.394531 17.027344 14.191406 Z "/>
<path style=" stroke:none;fill-rule:nonzero;fill:rgb(119,197,255);fill-opacity:1;" d="M 17.027344 28.582031 C 17.027344 30.378906 15.570313 31.835938 13.773438 31.835938 C 11.980469 31.835938 10.523438 30.378906 10.523438 28.582031 C 10.523438 26.789063 11.980469 25.332031 13.773438 25.332031 C 15.570313 25.332031 17.027344 26.789063 17.027344 28.582031 Z "/>
<path style=" stroke:none;fill-rule:nonzero;fill:url(#linear1);" d="M 57.746094 40.769531 L 45.40625 34.609375 L 32.621094 40.769531 L 27.953125 49.910156 L 27.953125 66.945313 C 27.957031 679.691406 28.453125 1175.285156 29.066406 1175.28125 L 61.75 1175.28125 C 62.097656 1373.617188 62.519531 1373.195313 62.863281 1174.171875 L 62.863281 49.910156 Z "/>
<path style=" stroke:none;fill-rule:nonzero;fill:rgb(119,197,255);fill-opacity:1;" d="M 25.203125 54.832031 C 24.714844 304.667969 24.136719 303.769531 23.648438 52.421875 L 29.132813 40.445313 C 29.375 -14.324219 29.628906 -14.589844 29.875 39.667969 L 44.863281 31.605469 C 45.371094 -246.453125 45.988281 -246.453125 46.496094 31.605469 L 60.964844 39.667969 C 61.265625 206.242188 61.507813 459.875 61.660156 766.890625 L 67.667969 52.363281 C 68.085938 892.144531 67.75 1914.179688 66.910156 2335.140625 C 66.070313 2756.105469 65.046875 2416.589844 64.625 1576.808594 L 58.851563 42.390625 L 45.652344 35.039063 L 31.988281 42.390625 L 26.75 53.832031 C 26.265625 302.085938 25.691406 302.457031 25.203125 54.832031 Z "/>
<path style=" stroke:none;fill-rule:nonzero;fill:rgb(0,81,142);fill-opacity:1;" d="M 42.882813 44.371094 L 47.617188 44.371094 C 48.226563 44.371094 48.722656 44.867188 48.722656 45.480469 L 48.722656 50.539063 C 48.722656 51.152344 48.226563 51.648438 47.617188 51.648438 L 42.882813 51.648438 C 42.269531 51.648438 41.773438 51.152344 41.773438 50.539063 L 41.773438 45.480469 C 41.773438 44.867188 42.269531 44.371094 42.882813 44.371094 Z "/>
<path style=" stroke:none;fill-rule:nonzero;fill:rgb(0,81,142);fill-opacity:1;" d="M 45.246094 61.988281 L 51.96875 57.488281 C 51.765625 -2.425781 51.546875 -2.492188 51.34375 57.300781 L 39.148438 57.300781 C 38.925781 57.125 38.710938 123.507813 38.527344 247.855469 Z "/>
<path style=" stroke:none;fill-rule:nonzero;fill:rgb(0,81,142);fill-opacity:1;" d="M 52.453125 66.8125 L 52.453125 58.539063 L 46.273438 62.675781 Z "/>
<path style=" stroke:none;fill-rule:nonzero;fill:rgb(0,81,142);fill-opacity:1;" d="M 44.21875 62.675781 L 38.042969 58.539063 L 38.042969 66.8125 Z "/>
<path style=" stroke:none;fill-rule:nonzero;fill:rgb(0,81,142);fill-opacity:1;" d="M 52.402344 68.054688 L 52.453125 68.054688 L 52.453125 67.972656 Z "/>
<path style=" stroke:none;fill-rule:nonzero;fill:rgb(0,81,142);fill-opacity:1;" d="M 38.042969 67.972656 L 38.042969 68.054688 L 38.09375 68.054688 Z "/>
<path style=" stroke:none;fill-rule:nonzero;fill:rgb(0,81,142);fill-opacity:1;" d="M 38.238281 68.054688 L 52.253906 68.054688 L 45.246094 63.367188 Z "/>
</g>
</svg>
