<?xml version="1.0" encoding="UTF-8"?>
<svg xmlns="http://www.w3.org/2000/svg" xmlns:xlink="http://www.w3.org/1999/xlink" width="70pt" height="70pt" viewBox="0 0 70 70" version="1.1">
<defs>
<linearGradient id="linear0" gradientUnits="userSpaceOnUse" x1="8.995" y1="20.15" x2="8.995" y2="4.41" gradientTransform="matrix(3.888889,0,0,-3.888889,0,77.777778)">
<stop offset="0" style="stop-color:rgb(41,164,255);stop-opacity:1;"/>
<stop offset="1" style="stop-color:rgb(0,108,188);stop-opacity:1;"/>
</linearGradient>
</defs>
<g id="surface1">
<path style=" stroke:none;fill-rule:nonzero;fill:url(#linear0);" d="M 3.890625 6.417969 L 66.109375 6.417969 C 71.050781 0.941406 75.5 36.546875 76.046875 85.945313 C 76.59375 135.34375 73.035156 179.828125 68.09375 185.304688 L 68.09375 228.472656 C 68.03125 332.210938 67.148438 411.792969 66.109375 407.359375 L 3.890625 407.359375 C 3.234375 410.609375 2.453125 409.917969 1.867188 405.570313 L 1.867188 8.285156 C 2.453125 3.910156 3.234375 3.191406 3.890625 6.417969 Z "/>
<path style=" stroke:none;fill-rule:nonzero;fill:rgb(119,197,255);fill-opacity:1;" d="M 46.160156 32.433594 L 56.503906 38.421875 L 66.890625 44.371094 C 67.027344 132.320313 67.128906 272.855469 67.164063 434.511719 C 67.199219 596.167969 67.167969 765.4375 67.078125 904.410156 L 257.636719 904.410156 L 60.15625 908.300781 L 65.097656 916.777344 C 64.6875 925.917969 64.265625 927.488281 63.851563 921.40625 L 62.839844 979.738281 C 61.535156 1101.394531 59.511719 1100.867188 58.210938 978.535156 L 53.273438 969.976563 L 46.390625 973.867188 C 46.277344 987.035156 46.113281 994.582031 45.941406 994.476563 C 45.769531 994.371094 45.605469 986.625 45.496094 973.324219 L 45.496094 32.976563 C 45.695313 -89.832031 45.949219 -90.0625 46.148438 32.386719 C 46.152344 32.367188 46.15625 32.378906 46.160156 32.433594 Z "/>
<path style=" stroke:none;fill-rule:nonzero;fill:rgb(255,255,255);fill-opacity:1;" d="M 29.554688 12.910156 L 40.753906 12.910156 C 41.054688 12.910156 41.300781 37.285156 41.300781 67.355469 L 41.300781 79.023438 C 41.300781 106.941406 41.074219 129.578125 40.792969 129.578125 L 29.789063 129.578125 C 29.621094 139.136719 29.410156 138.929688 29.246094 129.035156 L 29.246094 117.367188 C 29.355469 75.1875 29.480469 75.007813 29.59375 116.859375 Z "/>
<path style=" stroke:none;fill-rule:nonzero;fill:rgb(95,187,255);fill-opacity:1;" d="M 29.554688 31.695313 L 40.753906 31.695313 C 40.933594 -40.980469 41.136719 -20.617188 41.300781 86.140625 L 41.300781 97.804688 C 41.300781 125.726563 41.074219 148.359375 40.792969 148.359375 L 29.789063 148.359375 C 29.621094 157.917969 29.410156 157.710938 29.246094 147.816406 L 29.246094 136.148438 C 29.355469 93.96875 29.480469 93.789063 29.59375 135.644531 Z M 50.167969 12.910156 L 61.367188 12.910156 C 61.667969 12.910156 61.910156 37.285156 61.910156 67.355469 L 61.910156 79.023438 C 61.910156 106.941406 61.683594 129.578125 61.40625 129.578125 L 50.359375 129.578125 C 50.191406 139.136719 49.984375 138.929688 49.816406 129.035156 L 49.816406 117.367188 C 49.917969 39.804688 50.042969 2.511719 50.167969 12.910156 Z "/>
<path style=" stroke:none;fill-rule:nonzero;fill:rgb(255,255,255);fill-opacity:1;" d="M 9.957031 31.695313 L 21.15625 31.695313 C 21.335938 -40.980469 21.539063 -20.617188 21.699219 86.140625 L 21.699219 97.804688 C 21.699219 125.726563 21.472656 148.359375 21.195313 148.359375 L 10.1875 148.359375 C 10.019531 157.917969 9.8125 157.710938 9.644531 147.816406 L 9.644531 136.148438 C 9.757813 93.96875 9.882813 93.789063 9.996094 135.644531 Z "/>
<path style=" stroke:none;fill-rule:nonzero;fill:rgb(255,255,255);fill-opacity:1;" d="M 9.957031 12.910156 L 21.15625 12.910156 C 21.335938 -59.765625 21.539063 -39.398438 21.699219 67.355469 L 21.699219 79.023438 C 21.699219 106.941406 21.472656 129.578125 21.195313 129.578125 L 10.1875 129.578125 C 10.019531 139.136719 9.8125 138.929688 9.644531 129.035156 L 9.644531 117.367188 C 9.757813 75.1875 9.882813 75.007813 9.996094 116.859375 Z "/>
</g>
</svg>
