<?xml version="1.0" encoding="UTF-8"?>
<svg xmlns="http://www.w3.org/2000/svg" xmlns:xlink="http://www.w3.org/1999/xlink" width="70pt" height="70pt" viewBox="0 0 70 70" version="1.1">
<defs>
<linearGradient id="linear0" gradientUnits="userSpaceOnUse" x1="7.05" y1="8.98" x2="7.05" y2="0.34" gradientTransform="matrix(3.888889,0,0,3.888889,0,0)">
<stop offset="0" style="stop-color:rgb(0%,47.058824%,83.137255%);stop-opacity:1;"/>
<stop offset="1" style="stop-color:rgb(36.862745%,62.745098%,93.72549%);stop-opacity:1;"/>
</linearGradient>
<linearGradient id="linear1" gradientUnits="userSpaceOnUse" x1="7.05" y1="3.78" x2="7.05" y2="2.4" gradientTransform="matrix(3.888889,0,0,3.888889,0,0)">
<stop offset="0" style="stop-color:rgb(9.803922%,30.980392%,60.784314%);stop-opacity:0;"/>
<stop offset="0.26" style="stop-color:rgb(9.803922%,30.980392%,61.176471%);stop-opacity:0.0117647;"/>
<stop offset="0.41" style="stop-color:rgb(9.411765%,31.764706%,61.960784%);stop-opacity:0.0509804;"/>
<stop offset="0.52" style="stop-color:rgb(8.627451%,32.941176%,63.529412%);stop-opacity:0.109804;"/>
<stop offset="0.62" style="stop-color:rgb(7.843137%,34.117647%,65.490196%);stop-opacity:0.211765;"/>
<stop offset="0.71" style="stop-color:rgb(6.666667%,36.078431%,68.235294%);stop-opacity:0.329412;"/>
<stop offset="0.8" style="stop-color:rgb(5.098039%,38.431373%,71.372549%);stop-opacity:0.470588;"/>
<stop offset="0.88" style="stop-color:rgb(3.529412%,41.568627%,75.294118%);stop-opacity:0.65098;"/>
<stop offset="0.95" style="stop-color:rgb(1.568627%,44.705882%,79.607843%);stop-opacity:0.85098;"/>
<stop offset="1" style="stop-color:rgb(0%,47.058824%,83.137255%);stop-opacity:1;"/>
</linearGradient>
</defs>
<g id="surface1">
<path style=" stroke:none;fill-rule:nonzero;fill:rgb(58.039216%,58.039216%,58.039216%);fill-opacity:1;" d="M 61.367188 34.570313 L 68.640625 27.222656 C 69.222656 26.601563 72.527344 26.09375 68.132813 26.09375 L 64.515625 26.09375 C 64.238281 41.785156 63.898438 41.429688 63.621094 25.160156 C 63.621094 20.570313 62.457031 7.777344 44.957031 7.351563 C 44.710938 6.289063 44.472656 15.242188 44.296875 32.132813 C 44.121094 49.023438 44.023438 72.382813 44.023438 96.792969 L 44.023438 12.679688 C 44.019531 37.8125 44.125 61.824219 44.3125 78.839844 C 44.496094 95.859375 44.742188 104.308594 44.996094 102.121094 C 48.375 101.371094 51.90625 102.296875 54.480469 104.613281 C 57.050781 106.933594 58.34375 110.351563 57.945313 113.789063 C 57.953125 138.175781 57.867188 161.941406 57.695313 179.566406 C 57.527344 197.191406 57.292969 207.144531 57.050781 207.121094 L 53.667969 207.121094 C 52.773438 207.121094 52.578125 257.679688 53.160156 218.789063 L 59.929688 226.179688 C 60.457031 265.910156 61.207031 255.230469 61.605469 202.320313 C 62.003906 149.410156 61.894531 74.304688 61.367188 34.570313 Z "/>
<path style=" stroke:none;fill-rule:nonzero;fill:url(#linear0);" d="M 5.40625 1.320313 L 49.429688 1.320313 C 50.652344 1.320313 51.644531 2.316406 51.644531 3.539063 L 51.644531 32.707031 C 51.644531 33.929688 50.652344 34.921875 49.429688 34.921875 L 5.40625 34.921875 C 4.179688 34.921875 3.1875 33.929688 3.1875 32.707031 L 3.1875 3.539063 C 3.1875 2.316406 4.179688 1.320313 5.40625 1.320313 Z "/>
<path style=" stroke:none;fill-rule:nonzero;fill:rgb(51.372549%,72.54902%,97.647059%);fill-opacity:1;" d="M 5.367188 132.222656 L 50.050781 132.222656 C 50.929688 132.222656 51.644531 203.609375 51.644531 291.667969 L 51.644531 9.332031 L 3.1875 9.332031 L 3.1875 3.539063 C 4.113281 -3.261719 4.980469 48.054688 5.367188 132.222656 Z "/>
<path style=" stroke:none;fill-rule:nonzero;fill:url(#linear1);" d="M 3.1875 9.332031 L 51.644531 9.332031 L 51.644531 14.699219 L 3.1875 14.699219 Z "/>
<path style=" stroke:none;fill-rule:nonzero;fill:rgb(0%,35.686275%,63.137255%);fill-opacity:1;" d="M 39.898438 42.582031 L 67.898438 42.582031 C 68.671875 42.582031 69.300781 43.210938 69.300781 43.984375 L 69.300781 62.535156 C 69.300781 63.304688 68.671875 63.933594 67.898438 63.933594 L 39.898438 63.933594 C 39.125 63.933594 38.5 63.304688 38.5 62.535156 L 38.5 43.984375 C 38.5 43.210938 39.125 42.582031 39.898438 42.582031 Z "/>
<path style=" stroke:none;fill-rule:nonzero;fill:rgb(100%,100%,100%);fill-opacity:1;" d="M 10.148438 12.40625 L 44.644531 12.40625 C 45.039063 12.351563 45.363281 43.125 45.382813 82.40625 L 45.382813 16.722656 C 45.34375 54.464844 45.023438 83.042969 44.644531 82.832031 L 10.148438 82.832031 C 9.921875 96.6875 9.636719 96.433594 9.410156 82.171875 L 9.410156 13.105469 C 9.636719 -1.167969 9.921875 -1.4375 10.148438 12.40625 Z "/>
<path style=" stroke:none;fill-rule:nonzero;fill:rgb(100%,100%,100%);fill-opacity:1;" d="M 10.148438 19.445313 L 44.683594 19.445313 C 44.867188 18.371094 45.042969 24.859375 45.175781 37.378906 C 45.308594 49.894531 45.382813 67.328125 45.382813 85.554688 L 45.382813 89.171875 C 45.382813 127.832031 45.070313 159.171875 44.683594 159.171875 L 10.148438 159.171875 C 9.933594 171.460938 9.664063 171.195313 9.449219 158.472656 L 9.449219 20.261719 C 9.664063 6.644531 9.933594 6.328125 10.148438 19.445313 Z "/>
<path style=" stroke:none;fill-rule:nonzero;fill:rgb(100%,100%,100%);fill-opacity:1;" d="M 10.148438 26.792969 L 44.683594 26.792969 C 45.070313 26.792969 45.382813 58.132813 45.382813 96.792969 L 45.382813 31.109375 C 45.363281 68.246094 45.054688 97.28125 44.683594 97.222656 L 10.148438 97.222656 C 9.777344 97.28125 9.46875 68.246094 9.449219 31.109375 L 9.449219 27.496094 C 9.664063 14.773438 9.933594 14.507813 10.148438 26.792969 Z "/>
<path style=" stroke:none;fill-rule:nonzero;fill:rgb(0%,47.058824%,83.137255%);fill-opacity:1;" d="M 34.804688 37.996094 L 62.804688 37.996094 C 63.578125 37.996094 64.207031 38.621094 64.207031 39.394531 L 64.207031 57.945313 C 64.207031 58.71875 63.578125 59.34375 62.804688 59.34375 L 34.804688 59.34375 C 34.03125 59.34375 33.40625 58.71875 33.40625 57.945313 L 33.40625 39.394531 C 33.40625 38.621094 34.03125 37.996094 34.804688 37.996094 Z "/>
<path style=" stroke:none;fill-rule:nonzero;fill:rgb(51.372549%,72.54902%,97.647059%);fill-opacity:1;" d="M 35 37.996094 L 63.390625 37.996094 C 63.949219 37.996094 64.398438 83.261719 64.398438 139.105469 L 64.398438 142.996094 L 33.40625 142.996094 L 33.40625 139.300781 C 33.59375 69.359375 34.285156 25.414063 35 37.996094 Z "/>
<path style=" stroke:none;fill-rule:nonzero;fill:rgb(100%,100%,100%);fill-opacity:1;" d="M 37.839844 45.070313 L 59.773438 45.070313 C 60.015625 44.988281 60.21875 63.605469 60.238281 87.851563 L 60.238281 90.144531 C 60.21875 114.386719 60.015625 133.007813 59.773438 132.921875 L 37.839844 132.921875 C 37.695313 142.023438 37.511719 141.855469 37.371094 132.496094 L 37.371094 45.5 C 37.511719 36.136719 37.695313 35.96875 37.839844 45.070313 Z "/>
<path style=" stroke:none;fill-rule:nonzero;fill:rgb(100%,100%,100%);fill-opacity:1;" d="M 37.839844 49.621094 L 59.773438 49.621094 C 59.890625 48.527344 60.011719 52.542969 60.101563 60.6875 C 60.1875 68.832031 60.238281 80.347656 60.238281 92.398438 L 60.238281 94.695313 C 60.238281 106.746094 60.1875 118.261719 60.101563 126.40625 C 60.011719 134.550781 59.890625 138.566406 59.773438 137.472656 L 37.839844 137.472656 C 37.695313 145.675781 37.515625 145.511719 37.371094 137.042969 L 37.371094 134.75 C 37.136719 121.863281 37.050781 92.359375 37.179688 68.851563 C 37.308594 45.34375 37.605469 36.734375 37.839844 49.621094 Z "/>
<path style=" stroke:none;fill-rule:nonzero;fill:rgb(100%,100%,100%);fill-opacity:1;" d="M 37.839844 54.210938 L 59.773438 54.210938 C 59.890625 53.117188 60.011719 57.132813 60.101563 65.277344 C 60.1875 73.421875 60.238281 84.9375 60.238281 96.988281 L 60.238281 99.285156 C 60.238281 111.335938 60.1875 122.851563 60.101563 130.996094 C 60.011719 139.136719 59.890625 143.15625 59.773438 142.0625 L 37.839844 142.0625 C 37.695313 150.265625 37.515625 150.101563 37.371094 141.632813 L 37.371094 139.339844 C 37.136719 126.453125 37.050781 96.949219 37.179688 73.441406 C 37.308594 49.933594 37.605469 41.324219 37.839844 54.210938 Z "/>
</g>
</svg>
