<?xml version="1.0" encoding="UTF-8"?>
<svg xmlns="http://www.w3.org/2000/svg" xmlns:xlink="http://www.w3.org/1999/xlink" width="70pt" height="70pt" viewBox="0 0 70 70" version="1.1">
<defs>
<linearGradient id="linear0" gradientUnits="userSpaceOnUse" x1="10.75" y1="13.54" x2="10.75" y2="2.92" gradientTransform="matrix(3.888889,0,0,3.888889,0,0)">
<stop offset="0" style="stop-color:rgb(0%,47.058824%,83.137255%);stop-opacity:1;"/>
<stop offset="0.16" style="stop-color:rgb(7.45098%,50.196078%,85.490196%);stop-opacity:1;"/>
<stop offset="0.53" style="stop-color:rgb(23.529412%,56.862745%,89.803922%);stop-opacity:1;"/>
<stop offset="0.82" style="stop-color:rgb(33.333333%,61.176471%,92.54902%);stop-opacity:1;"/>
<stop offset="1" style="stop-color:rgb(36.862745%,62.745098%,93.72549%);stop-opacity:1;"/>
</linearGradient>
<linearGradient id="linear1" gradientUnits="userSpaceOnUse" x1="7.45" y1="17.24" x2="7.45" y2="1.19" gradientTransform="matrix(3.888889,0,0,3.888889,0,0)">
<stop offset="0" style="stop-color:rgb(9.803922%,54.117647%,70.196078%);stop-opacity:1;"/>
<stop offset="0" style="stop-color:rgb(9.803922%,54.117647%,70.196078%);stop-opacity:1;"/>
<stop offset="0.11" style="stop-color:rgb(13.333333%,64.705882%,79.607843%);stop-opacity:1;"/>
<stop offset="0.23" style="stop-color:rgb(16.078431%,72.941176%,87.058824%);stop-opacity:1;"/>
<stop offset="0.37" style="stop-color:rgb(18.039216%,78.823529%,92.156863%);stop-opacity:1;"/>
<stop offset="0.53" style="stop-color:rgb(19.215686%,81.960784%,95.294118%);stop-opacity:1;"/>
<stop offset="0.78" style="stop-color:rgb(19.607843%,83.137255%,96.078431%);stop-opacity:1;"/>
</linearGradient>
</defs>
<g id="surface1">
<path style=" stroke:none;fill-rule:nonzero;fill:url(#linear0);" d="M 70 40.949219 C 69.804688 34.746094 65.148438 29.59375 58.996094 28.777344 C 58.617188 20.039063 51.285156 13.230469 42.542969 13.496094 C 35.621094 13.421875 29.398438 17.699219 26.988281 24.1875 C 19.484375 25.0625 13.773438 31.335938 13.609375 38.890625 C 14.050781 47.28125 21.074219 53.808594 29.476563 53.628906 L 57.398438 53.628906 C 64.34375 53.523438 69.9375 47.894531 70 40.949219 Z "/>
<path style=" stroke:none;fill-rule:nonzero;fill:url(#linear1);" d="M 57.945313 43.632813 C 57.753906 37.261719 52.984375 31.964844 46.667969 31.109375 C 46.226563 22.175781 38.691406 15.246094 29.75 15.554688 C 22.628906 15.402344 16.183594 19.746094 13.648438 26.40625 C 6.042969 27.339844 0.25 33.679688 0 41.339844 C 0.335938 50.03125 7.640625 56.8125 16.332031 56.503906 L 44.878906 56.503906 C 52.003906 56.464844 57.796875 50.757813 57.945313 43.632813 Z "/>
<path style=" stroke:none;fill-rule:nonzero;fill:rgb(100%,100%,100%);fill-opacity:1;" d="M 18.746094 36.4375 L 22.050781 36.4375 C 22.296875 35.929688 22.539063 45.792969 22.710938 63.660156 L 30.488281 71.4375 C 30.488281 71.894531 30.488281 72.347656 30.488281 72.800781 L 19.910156 56.234375 C 19.734375 73.722656 19.496094 83.515625 19.25 83.457031 L 16.101563 83.457031 C 15.890625 80.070313 15.703125 70.039063 15.554688 54.871094 L 24.539063 45.773438 C 24.539063 45.332031 24.539063 44.890625 24.539063 44.449219 L 18.082031 38.035156 C 18.292969 29.449219 18.53125 28.882813 18.746094 36.4375 Z M 32.082031 23.332031 L 35.464844 23.332031 C 35.71875 24.714844 35.957031 35.871094 36.128906 54.445313 L 42.078125 60.472656 C 42.078125 60.914063 42.078125 61.355469 42.078125 61.792969 L 34.300781 69.222656 C 34.125 86.710938 33.886719 96.503906 33.640625 96.445313 L 30.800781 96.445313 C 30.574219 104.625 30.324219 104.058594 30.101563 94.851563 L 36.050781 31.109375 C 36.050781 30.671875 36.050781 30.230469 36.050781 29.789063 L 31.421875 25.121094 C 31.632813 16.476563 31.867188 15.839844 32.082031 23.332031 Z M 39.042969 38.890625 L 42.351563 38.890625 C 42.59375 40.261719 42.828125 49.855469 43.011719 66.109375 L 47.871094 70.972656 C 47.871094 71.414063 47.871094 71.855469 47.871094 72.292969 L 40.832031 52.460938 C 40.660156 70.332031 40.421875 80.195313 40.171875 79.683594 L 36.984375 79.683594 C 36.769531 87.238281 36.535156 86.671875 36.320313 78.089844 L 41.84375 72.488281 C 41.84375 72.046875 41.84375 71.605469 41.84375 71.167969 L 38.382813 67.628906 C 38.515625 52.980469 38.695313 42.980469 38.890625 39.082031 Z "/>
</g>
</svg>
