<?xml version="1.0" encoding="UTF-8"?>
<svg xmlns="http://www.w3.org/2000/svg" xmlns:xlink="http://www.w3.org/1999/xlink" width="70pt" height="70pt" viewBox="0 0 70 70" version="1.1">
<defs>
<linearGradient id="linear0" gradientUnits="userSpaceOnUse" x1="9.59" y1="17.96" x2="9.59" y2="-0.17" gradientTransform="matrix(3.888889,0,0,3.888889,0,0)">
<stop offset="0" style="stop-color:rgb(0%,47.058824%,83.137255%);stop-opacity:1;"/>
<stop offset="0.82" style="stop-color:rgb(36.862745%,62.745098%,93.72549%);stop-opacity:1;"/>
</linearGradient>
</defs>
<g id="surface1">
<path style=" stroke:none;fill-rule:nonzero;fill:url(#linear0);" d="M 70 41.726563 C 69.792969 34.527344 64.386719 28.542969 57.246094 27.609375 C 56.824219 17.484375 48.320313 9.585938 38.1875 9.917969 C 30.097656 9.738281 22.777344 14.699219 19.949219 22.285156 C 11.359375 23.324219 4.835938 30.511719 4.628906 39.160156 C 5.007813 48.949219 13.234375 56.582031 23.023438 56.234375 L 55.261719 56.234375 C 63.292969 56.191406 69.832031 49.757813 70 41.726563 Z "/>
<path style=" stroke:none;fill-rule:evenodd;fill:rgb(31.372549%,90.196078%,100%);fill-opacity:1;" d="M 0 45.34375 C -0.0429688 41.414063 1.5 37.628906 4.28125 34.847656 C 7.0625 32.066406 10.847656 30.523438 14.777344 30.566406 C 18.707031 30.535156 22.484375 32.082031 25.261719 34.859375 C 28.039063 37.636719 29.585938 41.414063 29.554688 45.34375 L 29.554688 60.082031 L 14.777344 60.082031 C 10.851563 60.125 7.074219 58.585938 4.296875 55.816406 C 1.515625 53.042969 -0.03125 49.269531 0 45.34375 Z "/>
<path style=" stroke:none;fill-rule:nonzero;fill:rgb(100%,100%,100%);fill-opacity:1;" d="M 23.996094 46.316406 L 23.996094 44.140625 L 21.777344 43.359375 L 21.234375 41.882813 L 130.121094 39.589844 L 130.121094 39.355469 L 129.421875 38.65625 L 20.804688 37.722656 L 20.496094 37.722656 L 18.316406 38.890625 L 16.839844 38.460938 L 15.867188 36.011719 L 13.726563 36.011719 L 12.988281 257.679688 L 11.355469 38.890625 L 8.828125 37.683594 L 7.3125 189.351563 L 7.3125 189.621094 L 122.265625 189.621094 L 7.777344 43.285156 L 5.171875 140.503906 L 5.171875 142.683594 L 5.484375 142.683594 L 7.777344 151.082031 L 155.554688 149.917969 L 409.851563 165.785156 L 409.851563 167.921875 L 408.761719 320.210938 L 506.878906 320.210938 L 506.878906 319.898438 L 580.765625 317.566406 L 728.542969 316.945313 L 986.417969 468.609375 L 984.898438 468.609375 L 984.589844 467.523438 L 982.410156 510.300781 L 980.894531 510.300781 Z M 14.855469 248.539063 C 14.855469 246.503906 14.855469 244.46875 14.855469 242.433594 L 318.1875 242.433594 L 14.855469 242.433594 C 14.644531 179.480469 14.644531 111.289063 14.855469 48.339844 Z "/>
</g>
</svg>
